<svg xmlns="http://www.w3.org/2000/svg" xmlns:xlink="http://www.w3.org/1999/xlink" width="259" height="32" viewBox="0 0 259 32" fill="none"><g opacity="1"  transform="translate(0 0)"><path id="矩形 7" fill-rule="evenodd" style="fill:#89A5F0" opacity="1" d="M1 17L239 17C239.55 17 240 16.55 240 16L240 16C240 15.45 239.55 15 239 15L1 15C0.45 15 0 15.45 0 16L0 16C0 16.55 0.45 17 1 17Z"></path><path id="圆形 1" fill-rule="evenodd" style="fill:#1952E7" opacity="0.5" d="M243 0C234.16 0 227 7.16 227 16C227 24.84 234.16 32 243 32C251.84 32 259 24.84 259 16C259 7.16 251.84 0 243 0Z"></path><path id="圆形 1" fill-rule="evenodd" style="fill:#1952E7" opacity="0.5" d="M243 6C237.48 6 233 10.48 233 16C233 21.52 237.48 26 243 26C248.52 26 253 21.52 253 16C253 10.48 248.52 6 243 6Z"></path><path id="圆形 1" fill-rule="evenodd" style="fill:#FFFFFF" opacity="1" d="M243 12C240.79 12 239 13.79 239 16C239 18.21 240.79 20 243 20C245.21 20 247 18.21 247 16C247 13.79 245.21 12 243 12Z"></path></g></svg>