<svg xmlns="http://www.w3.org/2000/svg" xmlns:xlink="http://www.w3.org/1999/xlink" width="48" height="48" viewBox="0 0 48 48" fill="none"><g opacity="1"  transform="translate(0 0)"><mask id="bg-mask-0" fill="white"><use transform="translate(0 0)" xlink:href="#path_0"></use></mask><g mask="url(#bg-mask-0)" ><path id="路径 1" fill-rule="evenodd" fill="url(#linear_0)" opacity="1" d="M24.3889 44.4816L9.68415 44.4816C7.73537 44.4816 6.15137 42.8976 6.15137 40.9488L6.15137 12.1752C6.15137 10.2264 7.73537 8.6424 9.68415 8.6424L11.0858 8.6424C11.7481 8.6424 12.2858 9.18 12.2858 9.84239C12.2858 10.5048 11.7481 11.0424 11.0858 11.0424L9.68415 11.0424C9.06015 11.0424 8.55137 11.5512 8.55137 12.1752L8.55137 40.9512C8.55137 41.5752 9.06015 42.084 9.68415 42.084L24.3889 42.084C25.0514 42.084 25.5889 42.6216 25.5889 43.284C25.5889 43.9464 25.0514 44.4816 24.3889 44.4816ZM37.6105 28.0008C36.9481 28.0008 36.4105 27.4632 36.4105 26.8008L36.4105 12.1752C36.4105 11.5512 35.9018 11.0424 35.2778 11.0424L33.9385 11.0424C33.2761 11.0424 32.7385 10.5048 32.7385 9.84239C32.7385 9.18 33.2761 8.6424 33.9385 8.6424L35.2801 8.6424C37.2289 8.6424 38.8129 10.2264 38.8129 12.1752L38.8129 26.8008C38.8129 26.8204 38.8124 26.8401 38.8114 26.8597C38.8104 26.8793 38.8089 26.8989 38.8069 26.9185C38.805 26.938 38.8026 26.9575 38.7996 26.977C38.7967 26.9964 38.7933 27.0158 38.7894 27.035C38.7856 27.0543 38.7812 27.0735 38.7764 27.0925C38.7716 27.1116 38.7663 27.1305 38.7606 27.1493C38.7548 27.1681 38.7487 27.1868 38.7421 27.2053C38.7354 27.2237 38.7283 27.2421 38.7207 27.2602C38.7132 27.2783 38.7052 27.2963 38.6968 27.3141C38.6883 27.3318 38.6795 27.3494 38.6702 27.3667C38.6609 27.384 38.6512 27.4011 38.6411 27.4179C38.631 27.4347 38.6204 27.4513 38.6095 27.4677C38.5986 27.484 38.5872 27.5 38.5755 27.5158C38.5637 27.5316 38.5516 27.5471 38.5392 27.5622C38.5267 27.5774 38.5138 27.5923 38.5006 27.6068C38.4874 27.6214 38.4738 27.6356 38.4599 27.6495C38.446 27.6634 38.4318 27.6769 38.4172 27.6901C38.4026 27.7033 38.3877 27.7161 38.3725 27.7285C38.3573 27.741 38.3418 27.7531 38.326 27.7648C38.3102 27.7764 38.2942 27.7877 38.2778 27.7987C38.2614 27.8096 38.2449 27.8201 38.228 27.8302C38.2111 27.8402 38.194 27.8499 38.1767 27.8592C38.1594 27.8684 38.1418 27.8773 38.1241 27.8857C38.1063 27.8941 38.0883 27.902 38.0701 27.9095C38.052 27.917 38.0336 27.9241 38.0151 27.9307C37.9966 27.9373 37.9779 27.9435 37.9591 27.9492C37.9404 27.9548 37.9214 27.9601 37.9023 27.9649C37.8833 27.9696 37.8641 27.9739 37.8448 27.9778C37.8256 27.9816 37.8062 27.9849 37.7867 27.9878C37.7673 27.9907 37.7478 27.9931 37.7282 27.995C37.7087 27.9969 37.6891 27.9984 37.6695 27.9994C37.6498 28.0003 37.6302 28.0008 37.6105 28.0008Z"></path><path id="路径 2" fill-rule="evenodd" fill="url(#linear_1)" opacity="1" d="M29.674 6.22078L27.1997 6.22078C26.6164 4.1616 24.7277 2.6496 22.4812 2.6496C20.2348 2.6496 18.346 4.1592 17.7628 6.22078L15.2908 6.22078C14.5492 6.22078 13.9492 6.82078 13.9492 7.56238L13.9492 11.9664C13.9492 12.708 14.5492 13.308 15.2908 13.308L29.674 13.308C30.4157 13.308 31.0157 12.708 31.0157 11.9664L31.0157 7.56238C31.018 6.82078 30.4157 6.22078 29.674 6.22078Z"></path><path id="路径 3" fill-rule="evenodd" style="fill:#FFFFFF" opacity="1" d="M20.9619 6.27361C20.9619 6.29846 20.9625 6.3233 20.9637 6.34814C20.965 6.37299 20.9668 6.39779 20.9692 6.42253C20.9717 6.44725 20.9747 6.47191 20.9784 6.4965C20.982 6.5211 20.9862 6.5456 20.9911 6.57C20.9959 6.59438 21.0014 6.61863 21.0074 6.64275C21.0135 6.66685 21.0201 6.6908 21.0273 6.71461C21.0345 6.73839 21.0423 6.76199 21.0507 6.78539C21.0591 6.8088 21.068 6.83199 21.0776 6.85496C21.0871 6.87793 21.0971 6.90066 21.1077 6.92316C21.1184 6.94563 21.1296 6.96783 21.1413 6.98977C21.153 7.01167 21.1653 7.0333 21.1781 7.05464C21.1908 7.07596 21.2041 7.09696 21.2179 7.11764C21.2318 7.1383 21.2461 7.15861 21.2609 7.17858C21.2757 7.19855 21.291 7.21814 21.3067 7.23736C21.3225 7.25658 21.3387 7.27541 21.3554 7.29385C21.3721 7.31226 21.3893 7.33026 21.4069 7.34785C21.4244 7.36541 21.4424 7.38255 21.4609 7.39927C21.4793 7.41596 21.4981 7.43219 21.5173 7.44797C21.5366 7.46376 21.5561 7.47904 21.5761 7.49382C21.5961 7.50863 21.6164 7.52294 21.6371 7.53675C21.6578 7.55057 21.6787 7.56386 21.7001 7.57664C21.7214 7.58943 21.743 7.60169 21.765 7.61344C21.7869 7.62516 21.8091 7.63633 21.8315 7.64696C21.854 7.65758 21.8768 7.66764 21.8997 7.67714C21.9227 7.68667 21.9459 7.69563 21.9693 7.704C21.9927 7.71238 22.0163 7.72018 22.0401 7.72739C22.0639 7.73461 22.0879 7.74124 22.1119 7.74727C22.1361 7.7533 22.1603 7.75875 22.1847 7.76363C22.2091 7.76847 22.2336 7.77272 22.2582 7.77638C22.2828 7.78 22.3075 7.78304 22.3322 7.78547C22.3569 7.78791 22.3817 7.78974 22.4066 7.79096C22.4314 7.79218 22.4562 7.79279 22.4811 7.79279C22.506 7.79279 22.5308 7.79218 22.5557 7.79096C22.5805 7.78974 22.6053 7.78791 22.63 7.78547C22.6548 7.78304 22.6794 7.78 22.704 7.77638C22.7286 7.77272 22.7531 7.76847 22.7775 7.76363C22.8019 7.75875 22.8261 7.7533 22.8502 7.74727C22.8744 7.74124 22.8983 7.73461 22.9221 7.72739C22.9459 7.72018 22.9695 7.71238 22.9929 7.704C23.0163 7.69563 23.0395 7.68667 23.0625 7.67714C23.0854 7.66764 23.1082 7.65758 23.1306 7.64696C23.1531 7.63633 23.1753 7.62516 23.1972 7.61344C23.2192 7.60169 23.2408 7.58943 23.2621 7.57664C23.2835 7.56386 23.3045 7.55057 23.3251 7.53675C23.3458 7.52294 23.3661 7.50863 23.3861 7.49382C23.4061 7.47904 23.4257 7.46376 23.4449 7.44797C23.4641 7.43219 23.4829 7.41596 23.5013 7.39927C23.5198 7.38255 23.5378 7.36541 23.5553 7.34785C23.5729 7.33026 23.5901 7.31226 23.6067 7.29385C23.6235 7.27541 23.6397 7.25658 23.6554 7.23736C23.6712 7.21814 23.6865 7.19855 23.7013 7.17858C23.7161 7.15861 23.7305 7.1383 23.7443 7.11764C23.7581 7.09696 23.7714 7.07596 23.7842 7.05464C23.7969 7.0333 23.8092 7.01167 23.8209 6.98977C23.8326 6.96783 23.8438 6.94563 23.8544 6.92316C23.8651 6.90066 23.8751 6.87793 23.8847 6.85496C23.8942 6.83199 23.9031 6.8088 23.9115 6.78539C23.9199 6.76199 23.9276 6.73839 23.9349 6.71461C23.9421 6.6908 23.9487 6.66685 23.9548 6.64275C23.9608 6.61863 23.9663 6.59438 23.9711 6.57C23.9759 6.5456 23.9802 6.5211 23.9839 6.4965C23.9875 6.47191 23.9906 6.44725 23.993 6.42253C23.9954 6.39779 23.9973 6.37299 23.9985 6.34814C23.9997 6.3233 24.0003 6.29846 24.0003 6.27361C24.0003 6.24874 23.9997 6.22389 23.9985 6.19908C23.9973 6.17424 23.9954 6.14944 23.993 6.12469C23.9906 6.09994 23.9875 6.07527 23.9839 6.05068C23.9802 6.02608 23.9759 6.0016 23.9711 5.97722C23.9663 5.95285 23.9608 5.9286 23.9548 5.90447C23.9487 5.88035 23.9421 5.85639 23.9349 5.83261C23.9276 5.8088 23.9199 5.78519 23.9115 5.76179C23.9031 5.73838 23.8942 5.71519 23.8847 5.69222C23.8751 5.66925 23.8651 5.64653 23.8544 5.62407C23.8438 5.6016 23.8326 5.57939 23.8209 5.55746C23.8092 5.53552 23.7969 5.5139 23.7842 5.49258C23.7714 5.47127 23.7581 5.45027 23.7443 5.42958C23.7305 5.4089 23.7161 5.38857 23.7013 5.3686C23.6865 5.34863 23.6712 5.32904 23.6554 5.30982C23.6397 5.2906 23.6235 5.27179 23.6067 5.25338C23.5901 5.23494 23.5729 5.21694 23.5553 5.19938C23.5378 5.18179 23.5198 5.16464 23.5013 5.14796C23.4829 5.13127 23.4641 5.11504 23.4449 5.09925C23.4257 5.08347 23.4061 5.06818 23.3861 5.05336C23.3661 5.03855 23.3458 5.02424 23.3251 5.01043C23.3045 4.99661 23.2835 4.98332 23.2621 4.97054C23.2408 4.95775 23.2192 4.9455 23.1972 4.93378C23.1753 4.92207 23.1531 4.91089 23.1306 4.90027C23.1082 4.88964 23.0854 4.87957 23.0625 4.87004C23.0395 4.86054 23.0163 4.8516 22.9929 4.84322C22.9695 4.83485 22.9459 4.82705 22.9221 4.81983C22.8983 4.81261 22.8744 4.80597 22.8502 4.79991C22.8261 4.79388 22.8019 4.78844 22.7775 4.7836C22.7531 4.77875 22.7286 4.7745 22.704 4.77085C22.6794 4.76719 22.6548 4.76414 22.63 4.76171C22.6053 4.75927 22.5805 4.75744 22.5557 4.75622C22.5308 4.755 22.506 4.75439 22.4811 4.75439C22.4562 4.75439 22.4314 4.755 22.4066 4.75622C22.3817 4.75744 22.3569 4.75927 22.3322 4.76171C22.3075 4.76414 22.2828 4.76719 22.2582 4.77085C22.2336 4.7745 22.2091 4.77875 22.1847 4.7836C22.1603 4.78844 22.1361 4.79388 22.1119 4.79991C22.0879 4.80597 22.0639 4.81261 22.0401 4.81983C22.0163 4.82705 21.9927 4.83485 21.9693 4.84322C21.9459 4.8516 21.9227 4.86054 21.8997 4.87004C21.8768 4.87957 21.854 4.88964 21.8315 4.90027C21.8091 4.91089 21.7869 4.92207 21.765 4.93378C21.743 4.9455 21.7214 4.95775 21.7001 4.97054C21.6787 4.98332 21.6578 4.99661 21.6371 5.01043C21.6164 5.02424 21.5961 5.03855 21.5761 5.05336C21.5561 5.06818 21.5366 5.08347 21.5173 5.09925C21.4981 5.11504 21.4793 5.13127 21.4609 5.14796C21.4424 5.16464 21.4244 5.18179 21.4069 5.19938C21.3893 5.21694 21.3721 5.23494 21.3554 5.25338C21.3387 5.27179 21.3225 5.2906 21.3067 5.30982C21.291 5.32904 21.2757 5.34863 21.2609 5.3686C21.2461 5.38857 21.2318 5.4089 21.2179 5.42958C21.2041 5.45027 21.1908 5.47127 21.1781 5.49258C21.1653 5.5139 21.153 5.53552 21.1413 5.55746C21.1296 5.57939 21.1184 5.6016 21.1077 5.62407C21.0971 5.64653 21.0871 5.66925 21.0776 5.69222C21.068 5.71519 21.0591 5.73838 21.0507 5.76179C21.0423 5.78519 21.0345 5.8088 21.0273 5.83261C21.0201 5.85639 21.0135 5.88035 21.0074 5.90447C21.0014 5.9286 20.9959 5.95285 20.9911 5.97722C20.9862 6.0016 20.982 6.02608 20.9784 6.05068C20.9747 6.07527 20.9717 6.09994 20.9692 6.12469C20.9668 6.14944 20.965 6.17424 20.9637 6.19908C20.9625 6.22389 20.9619 6.24874 20.9619 6.27361Z"></path><path id="路径 4" fill-rule="evenodd" fill="url(#linear_2)" opacity="1" d="M25.9805 37.4759C25.9805 37.6125 25.9838 37.7489 25.9905 37.8853C25.9972 38.0217 26.0073 38.1577 26.0206 38.2936C26.034 38.4295 26.0507 38.565 26.0708 38.7C26.0908 38.8351 26.1141 38.9695 26.1408 39.1034C26.1674 39.2374 26.1973 39.3705 26.2305 39.503C26.2637 39.6354 26.3 39.767 26.3397 39.8976C26.3793 40.0282 26.4221 40.1578 26.4681 40.2864C26.5141 40.415 26.5632 40.5423 26.6155 40.6684C26.6677 40.7946 26.723 40.9193 26.7814 41.0427C26.8398 41.1662 26.9012 41.2881 26.9655 41.4085C27.0299 41.5289 27.0972 41.6477 27.1673 41.7648C27.2375 41.8819 27.3106 41.9972 27.3864 42.1107C27.4623 42.2242 27.5409 42.3358 27.6222 42.4455C27.7035 42.5552 27.7875 42.6628 27.8741 42.7683C27.9607 42.8738 28.0499 42.9772 28.1415 43.0783C28.2332 43.1795 28.3274 43.2784 28.4239 43.3749C28.5205 43.4714 28.6193 43.5656 28.7205 43.6572C28.8216 43.7489 28.925 43.8381 29.0305 43.9247C29.136 44.0113 29.2437 44.0953 29.3533 44.1766C29.463 44.2579 29.5746 44.3365 29.6881 44.4124C29.8016 44.4882 29.9169 44.5613 30.034 44.6315C30.1511 44.7016 30.2699 44.7689 30.3903 44.8333C30.5107 44.8977 30.6326 44.959 30.756 45.0174C30.8795 45.0757 31.0042 45.131 31.1303 45.1833C31.2565 45.2356 31.3838 45.2847 31.5124 45.3307C31.641 45.3767 31.7706 45.4195 31.9012 45.4591C32.0318 45.4987 32.1634 45.5352 32.2958 45.5683C32.4283 45.6015 32.5614 45.6314 32.6954 45.658C32.8293 45.6847 32.9637 45.708 33.0988 45.728C33.2338 45.7481 33.3693 45.7648 33.5052 45.7782C33.6411 45.7915 33.7772 45.8016 33.9135 45.8083C34.0499 45.815 34.1863 45.8183 34.3229 45.8183C34.4594 45.8183 34.5959 45.815 34.7322 45.8083C34.8686 45.8016 35.0047 45.7915 35.1406 45.7782C35.2764 45.7648 35.4119 45.7481 35.547 45.728C35.682 45.708 35.8165 45.6847 35.9504 45.658C36.0843 45.6314 36.2175 45.6015 36.3499 45.5683C36.4823 45.5352 36.6139 45.4987 36.7445 45.4591C36.8752 45.4195 37.0048 45.3767 37.1333 45.3307C37.2619 45.2847 37.3892 45.2356 37.5154 45.1833C37.6415 45.131 37.7663 45.0757 37.8897 45.0174C38.0131 44.959 38.135 44.8977 38.2554 44.8333C38.3759 44.7689 38.4946 44.7016 38.6117 44.6315C38.7288 44.5613 38.8441 44.4882 38.9577 44.4124C39.0712 44.3365 39.1828 44.2579 39.2924 44.1766C39.4021 44.0953 39.5097 44.0113 39.6152 43.9247C39.7207 43.8381 39.8241 43.7489 39.9253 43.6572C40.0264 43.5656 40.1253 43.4714 40.2218 43.3749C40.3184 43.2784 40.4125 43.1795 40.5042 43.0783C40.5959 42.9772 40.685 42.8738 40.7716 42.7683C40.8582 42.6627 40.9422 42.5551 41.0235 42.4455C41.1049 42.3358 41.1834 42.2242 41.2593 42.1107C41.3352 41.9972 41.4082 41.8819 41.4784 41.7648C41.5485 41.6477 41.6159 41.5289 41.6802 41.4085C41.7446 41.2881 41.8059 41.1662 41.8643 41.0427C41.9227 40.9193 41.978 40.7946 42.0302 40.6684C42.0825 40.5423 42.1316 40.415 42.1776 40.2864C42.2236 40.1578 42.2664 40.0282 42.306 39.8976C42.3457 39.767 42.3821 39.6354 42.4153 39.503C42.4484 39.3705 42.4783 39.2374 42.505 39.1034C42.5316 38.9695 42.555 38.8351 42.575 38.7C42.595 38.565 42.6117 38.4295 42.6251 38.2936C42.6385 38.1577 42.6485 38.0217 42.6552 37.8853C42.6619 37.7489 42.6653 37.6125 42.6653 37.4759C42.6653 37.3394 42.6619 37.2029 42.6552 37.0666C42.6485 36.9302 42.6385 36.7941 42.6251 36.6582C42.6117 36.5224 42.595 36.3869 42.575 36.2518C42.555 36.1168 42.5316 35.9823 42.505 35.8484C42.4783 35.7145 42.4484 35.5813 42.4153 35.4489C42.3821 35.3165 42.3457 35.1849 42.306 35.0543C42.2664 34.9236 42.2236 34.794 42.1776 34.6655C42.1316 34.5369 42.0825 34.4096 42.0302 34.2834C41.978 34.1573 41.9227 34.0325 41.8643 33.9091C41.8059 33.7857 41.7446 33.6638 41.6802 33.5434C41.6159 33.423 41.5485 33.3042 41.4784 33.1871C41.4082 33.07 41.3352 32.9547 41.2593 32.8411C41.1834 32.7276 41.1049 32.616 41.0235 32.5064C40.9422 32.3967 40.8582 32.2891 40.7716 32.1836C40.685 32.078 40.5959 31.9747 40.5042 31.8735C40.4125 31.7724 40.3184 31.6735 40.2218 31.577C40.1253 31.4804 40.0264 31.3863 39.9253 31.2946C39.8241 31.2029 39.7207 31.1138 39.6152 31.0272C39.5097 30.9406 39.4021 30.8566 39.2924 30.7752C39.1828 30.6939 39.0712 30.6153 38.9577 30.5395C38.8441 30.4636 38.7288 30.3906 38.6117 30.3204C38.4946 30.2502 38.3759 30.1829 38.2554 30.1186C38.135 30.0542 38.0131 29.9929 37.8897 29.9345C37.7663 29.8761 37.6415 29.8208 37.5154 29.7686C37.3892 29.7163 37.2619 29.6672 37.1333 29.6212C37.0048 29.5752 36.8752 29.5324 36.7446 29.4927C36.6139 29.4531 36.4823 29.4167 36.3499 29.3835C36.2175 29.3504 36.0843 29.3205 35.9504 29.2938C35.8165 29.2672 35.682 29.2439 35.547 29.2238C35.4119 29.2038 35.2764 29.1871 35.1406 29.1737C35.0047 29.1603 34.8686 29.1503 34.7322 29.1436C34.5959 29.1369 34.4594 29.1335 34.3229 29.1335C34.1863 29.1335 34.0499 29.1369 33.9135 29.1436C33.7772 29.1503 33.6411 29.1603 33.5052 29.1737C33.3693 29.1871 33.2338 29.2038 33.0988 29.2238C32.9637 29.2439 32.8293 29.2672 32.6954 29.2938C32.5614 29.3205 32.4283 29.3504 32.2958 29.3835C32.1634 29.4167 32.0318 29.4531 31.9012 29.4927C31.7706 29.5324 31.641 29.5752 31.5124 29.6212C31.3838 29.6672 31.2565 29.7163 31.1303 29.7686C31.0042 29.8208 30.8795 29.8761 30.756 29.9345C30.6326 29.9929 30.5107 30.0542 30.3903 30.1186C30.2699 30.1829 30.1511 30.2502 30.034 30.3204C29.9169 30.3906 29.8016 30.4636 29.6881 30.5395C29.5746 30.6153 29.463 30.6939 29.3533 30.7752C29.2437 30.8566 29.136 30.9406 29.0305 31.0272C28.925 31.1138 28.8216 31.2029 28.7205 31.2946C28.6193 31.3863 28.5205 31.4804 28.4239 31.577C28.3274 31.6735 28.2332 31.7724 28.1415 31.8735C28.0499 31.9747 27.9607 32.078 27.8741 32.1836C27.7875 32.2891 27.7035 32.3967 27.6222 32.5064C27.5409 32.616 27.4623 32.7276 27.3864 32.8411C27.3106 32.9547 27.2375 33.07 27.1673 33.1871C27.0972 33.3042 27.0299 33.423 26.9655 33.5434C26.9012 33.6638 26.8398 33.7857 26.7814 33.9091C26.723 34.0325 26.6677 34.1573 26.6155 34.2834C26.5632 34.4096 26.5141 34.5369 26.4681 34.6655C26.4221 34.794 26.3793 34.9236 26.3397 35.0543C26.3 35.1849 26.2637 35.3165 26.2305 35.4489C26.1973 35.5813 26.1674 35.7145 26.1408 35.8484C26.1141 35.9824 26.0908 36.1168 26.0708 36.2518C26.0507 36.3869 26.034 36.5224 26.0206 36.6582C26.0073 36.7941 25.9972 36.9302 25.9905 37.0666C25.9838 37.2029 25.9805 37.3394 25.9805 37.4759Z"></path><path id="路径 5" fill-rule="evenodd" fill="url(#linear_3)" opacity="1" d="M29.8797 20.5896L20.6565 20.5896C19.9941 20.5896 19.4565 20.052 19.4565 19.3896C19.4565 18.7272 19.9941 18.1896 20.6565 18.1896L29.8797 18.1896C30.5421 18.1896 31.0797 18.7272 31.0797 19.3896C31.0797 20.052 30.5421 20.5896 29.8797 20.5896ZM14.3661 21.7704C14.0661 21.7704 13.7757 21.6576 13.5525 21.4536L11.2365 19.3176C11.222 19.3043 11.2079 19.2906 11.1942 19.2766C11.1804 19.2626 11.167 19.2482 11.1539 19.2336C11.1409 19.2189 11.1281 19.2039 11.1158 19.1886C11.1035 19.1733 11.0915 19.1577 11.0799 19.1418C11.0684 19.1259 11.0572 19.1098 11.0464 19.0934C11.0356 19.0769 11.0253 19.0602 11.0154 19.0433C11.0054 19.0264 10.9958 19.0092 10.9867 18.9918C10.9776 18.9744 10.9689 18.9568 10.9607 18.9389C10.9524 18.9211 10.9446 18.9031 10.9373 18.8849C10.9299 18.8666 10.923 18.8483 10.9165 18.8297C10.91 18.8112 10.904 18.7925 10.8985 18.7736C10.8929 18.7547 10.8879 18.7358 10.8833 18.7167C10.8786 18.6976 10.8745 18.6784 10.8708 18.6591C10.8671 18.6398 10.8639 18.6204 10.8612 18.6009C10.8585 18.5815 10.8562 18.562 10.8545 18.5424C10.8527 18.5228 10.8514 18.5032 10.8506 18.4836C10.8498 18.464 10.8495 18.4443 10.8496 18.4247C10.8498 18.405 10.8504 18.3854 10.8516 18.3658C10.8527 18.3462 10.8543 18.3266 10.8563 18.307C10.8584 18.2875 10.861 18.268 10.864 18.2486C10.8671 18.2292 10.8706 18.2099 10.8746 18.1906C10.8786 18.1714 10.883 18.1523 10.8879 18.1333C10.8928 18.1142 10.8982 18.0953 10.9041 18.0766C10.91 18.0578 10.9163 18.0392 10.923 18.0208C10.9298 18.0023 10.937 17.9841 10.9447 17.966C10.9523 17.9479 10.9604 17.93 10.9689 17.9122C10.9775 17.8946 10.9864 17.8771 10.9959 17.8598C11.0052 17.8426 11.015 17.8256 11.0253 17.8088C11.0355 17.792 11.0461 17.7755 11.0572 17.7592C11.0682 17.743 11.0796 17.727 11.0915 17.7113C11.1033 17.6956 11.1155 17.6802 11.128 17.6651C11.1406 17.65 11.1536 17.6352 11.1669 17.6208C11.1802 17.6063 11.1939 17.5922 11.2079 17.5785C11.2219 17.5647 11.2363 17.5513 11.2509 17.5382C11.2656 17.5252 11.2806 17.5125 11.2959 17.5002C11.3112 17.4878 11.3268 17.4759 11.3426 17.4643C11.3585 17.4527 11.3747 17.4416 11.3911 17.4308C11.4076 17.42 11.4242 17.4097 11.4412 17.3997C11.4581 17.3897 11.4753 17.3802 11.4927 17.3711C11.5101 17.362 11.5277 17.3533 11.5456 17.3451C11.5634 17.3368 11.5814 17.329 11.5996 17.3217C11.6178 17.3143 11.6362 17.3074 11.6548 17.3009C11.6733 17.2944 11.692 17.2884 11.7109 17.2829C11.7297 17.2773 11.7487 17.2723 11.7678 17.2677C11.7869 17.263 11.8061 17.2589 11.8254 17.2552C11.8447 17.2515 11.8641 17.2484 11.8835 17.2456C11.903 17.2429 11.9225 17.2407 11.9421 17.2389C11.9616 17.2371 11.9812 17.2358 12.0009 17.235C12.0205 17.2342 12.0402 17.2339 12.0598 17.2341C12.0794 17.2342 12.0991 17.2349 12.1187 17.236C12.1383 17.2371 12.1579 17.2387 12.1774 17.2408C12.197 17.2429 12.2164 17.2454 12.2358 17.2484C12.2552 17.2515 12.2746 17.255 12.2938 17.259C12.3131 17.263 12.3322 17.2674 12.3512 17.2724C12.3702 17.2773 12.3891 17.2826 12.4079 17.2885C12.4266 17.2943 12.4452 17.3006 12.4637 17.3074C12.4821 17.3142 12.5004 17.3214 12.5185 17.329C12.5366 17.3367 12.5545 17.3448 12.5722 17.3533C12.5899 17.3618 12.6074 17.3708 12.6246 17.3802C12.6419 17.3896 12.6589 17.3994 12.6757 17.4096C12.6924 17.4199 12.709 17.4305 12.7252 17.4415C12.7415 17.4526 12.7574 17.464 12.7732 17.4758C12.7889 17.4876 12.8042 17.4998 12.8193 17.5124C12.8344 17.525 12.8492 17.5379 12.8637 17.5512L14.2077 18.7896L16.2717 16.0536C16.6701 15.5256 17.4237 15.42 17.9517 15.8184C18.4797 16.2168 18.5853 16.9704 18.1869 17.4984L15.3237 21.2904C15.3111 21.307 15.2981 21.3234 15.2847 21.3393C15.2713 21.3553 15.2575 21.3709 15.2432 21.3862C15.229 21.4014 15.2144 21.4163 15.1994 21.4308C15.1844 21.4453 15.169 21.4594 15.1533 21.4731C15.1375 21.4868 15.1215 21.5 15.1051 21.5129C15.0886 21.5257 15.0719 21.5381 15.0548 21.5501C15.0377 21.5621 15.0203 21.5736 15.0027 21.5847C14.985 21.5958 14.967 21.6064 14.9488 21.6166C14.9306 21.6267 14.9121 21.6363 14.8934 21.6455C14.8746 21.6547 14.8557 21.6634 14.8365 21.6716C14.8173 21.6797 14.798 21.6874 14.7784 21.6947C14.7588 21.7018 14.739 21.7085 14.7191 21.7147C14.6992 21.7208 14.6791 21.7264 14.6589 21.7316C14.6387 21.7367 14.6183 21.7412 14.5979 21.7453C14.5774 21.7494 14.5568 21.7529 14.5362 21.7559C14.5156 21.7589 14.4949 21.7613 14.4741 21.7632C14.4381 21.768 14.4021 21.7704 14.3661 21.7704ZM29.8797 28.2408L20.6565 28.2408C19.9941 28.2408 19.4565 27.7032 19.4565 27.0408C19.4565 26.3784 19.9941 25.8408 20.6565 25.8408L29.8797 25.8408C30.5421 25.8408 31.0797 26.3784 31.0797 27.0408C31.0797 27.7032 30.5421 28.2408 29.8797 28.2408ZM14.3661 29.424C14.0661 29.424 13.7757 29.3112 13.5525 29.1072L11.2365 26.9712C11.222 26.9579 11.2079 26.9442 11.1942 26.9302C11.1804 26.9162 11.167 26.9018 11.1539 26.8872C11.1409 26.8725 11.1281 26.8575 11.1158 26.8422C11.1035 26.8269 11.0915 26.8113 11.0799 26.7955C11.0684 26.7796 11.0572 26.7634 11.0464 26.747C11.0356 26.7305 11.0253 26.7138 11.0154 26.6969C11.0054 26.68 10.9958 26.6628 10.9867 26.6454C10.9776 26.628 10.9689 26.6103 10.9607 26.5925C10.9524 26.5747 10.9446 26.5567 10.9373 26.5385C10.9299 26.5202 10.923 26.5019 10.9165 26.4833C10.91 26.4647 10.904 26.446 10.8985 26.4272C10.8929 26.4084 10.8879 26.3894 10.8833 26.3703C10.8786 26.3512 10.8745 26.332 10.8708 26.3127C10.8671 26.2934 10.8639 26.274 10.8612 26.2546C10.8585 26.2351 10.8562 26.2156 10.8545 26.196C10.8527 26.1764 10.8514 26.1568 10.8506 26.1372C10.8498 26.1175 10.8495 26.0979 10.8496 26.0783C10.8498 26.0586 10.8504 26.039 10.8516 26.0194C10.8527 25.9997 10.8543 25.9802 10.8563 25.9607C10.8584 25.9411 10.861 25.9217 10.864 25.9022C10.8671 25.8828 10.8706 25.8635 10.8746 25.8443C10.8786 25.825 10.883 25.8059 10.8879 25.7868C10.8928 25.7678 10.8982 25.7489 10.9041 25.7302C10.91 25.7114 10.9163 25.6928 10.923 25.6744C10.9298 25.6559 10.937 25.6377 10.9447 25.6196C10.9523 25.6015 10.9604 25.5836 10.9689 25.5659C10.9775 25.5482 10.9864 25.5307 10.9959 25.5135C11.0052 25.4962 11.015 25.4792 11.0253 25.4624C11.0355 25.4456 11.0461 25.4291 11.0572 25.4129C11.0682 25.3966 11.0796 25.3806 11.0915 25.3649C11.1033 25.3492 11.1155 25.3338 11.128 25.3187C11.1406 25.3037 11.1536 25.2888 11.1669 25.2744C11.1802 25.26 11.1939 25.2459 11.2079 25.2321C11.2219 25.2183 11.2363 25.2049 11.2509 25.1919C11.2656 25.1788 11.2806 25.1661 11.2959 25.1537C11.3112 25.1414 11.3268 25.1295 11.3426 25.1179C11.3585 25.1064 11.3747 25.0952 11.3911 25.0844C11.4076 25.0736 11.4242 25.0632 11.4412 25.0533C11.4581 25.0434 11.4753 25.0338 11.4927 25.0247C11.5101 25.0156 11.5277 25.0069 11.5456 24.9987C11.5634 24.9904 11.5814 24.9826 11.5996 24.9752C11.6178 24.9679 11.6362 24.961 11.6548 24.9545C11.6733 24.9481 11.692 24.9421 11.7109 24.9365C11.7297 24.931 11.7487 24.9258 11.7678 24.9212C11.7869 24.9167 11.8061 24.9125 11.8254 24.9088C11.8447 24.9052 11.8641 24.9019 11.8835 24.8992C11.903 24.8965 11.9225 24.8942 11.9421 24.8925C11.9616 24.8907 11.9812 24.8894 12.0009 24.8886C12.0205 24.8878 12.0402 24.8875 12.0598 24.8877C12.0794 24.8878 12.0991 24.8885 12.1187 24.8896C12.1383 24.8907 12.1579 24.8923 12.1774 24.8944C12.197 24.8965 12.2164 24.899 12.2358 24.9021C12.2552 24.9051 12.2746 24.9086 12.2938 24.9126C12.3131 24.9166 12.3322 24.921 12.3512 24.9259C12.3702 24.9309 12.3891 24.9362 12.4079 24.9421C12.4266 24.9479 12.4452 24.9542 12.4637 24.961C12.4821 24.9677 12.5004 24.975 12.5185 24.9827C12.5366 24.9903 12.5545 24.9984 12.5722 25.0069C12.5899 25.0155 12.6074 25.0244 12.6246 25.0338C12.6419 25.0432 12.6589 25.053 12.6757 25.0632C12.6924 25.0735 12.709 25.084 12.7252 25.0951C12.7415 25.1062 12.7574 25.1176 12.7732 25.1294C12.7889 25.1412 12.8042 25.1534 12.8193 25.166C12.8344 25.1785 12.8492 25.1915 12.8637 25.2048L14.2077 26.4432L16.2717 23.7072C16.6701 23.1792 17.4237 23.0736 17.9517 23.472C18.4797 23.8704 18.5853 24.624 18.1869 25.152L15.3237 28.944C15.3111 28.9607 15.2981 28.977 15.2847 28.993C15.2713 29.0089 15.2575 29.0245 15.2432 29.0398C15.229 29.055 15.2144 29.0699 15.1994 29.0844C15.1844 29.0988 15.169 29.113 15.1533 29.1267C15.1375 29.1404 15.1215 29.1536 15.1051 29.1665C15.0886 29.1793 15.0719 29.1917 15.0548 29.2037C15.0377 29.2157 15.0203 29.2272 15.0027 29.2383C14.985 29.2494 14.967 29.26 14.9488 29.2702C14.9306 29.2803 14.9121 29.29 14.8934 29.2991C14.8746 29.3083 14.8557 29.317 14.8365 29.3252C14.8173 29.3334 14.798 29.341 14.7784 29.3483C14.7588 29.3554 14.739 29.3621 14.7191 29.3683C14.6992 29.3744 14.6791 29.38 14.6589 29.3852C14.6387 29.3903 14.6183 29.3949 14.5979 29.3989C14.5774 29.403 14.5568 29.4065 14.5362 29.4095C14.5156 29.4124 14.4949 29.4149 14.4741 29.4168C14.4381 29.4216 14.4021 29.424 14.3661 29.424ZM23.7165 37.0152L20.6565 37.0152C19.9941 37.0152 19.4565 36.4776 19.4565 35.8152C19.4565 35.1528 19.9941 34.6152 20.6565 34.6152L23.7165 34.6152C24.3789 34.6152 24.9165 35.1528 24.9165 35.8152C24.9165 36.4776 24.3789 37.0152 23.7165 37.0152ZM14.3661 38.196C14.0661 38.196 13.7757 38.0832 13.5525 37.8792L11.2365 35.7432C11.222 35.7299 11.2079 35.7162 11.1942 35.7022C11.1804 35.6882 11.167 35.6738 11.1539 35.6592C11.1409 35.6445 11.1281 35.6295 11.1158 35.6142C11.1035 35.5989 11.0915 35.5833 11.0799 35.5675C11.0684 35.5516 11.0572 35.5354 11.0464 35.519C11.0356 35.5025 11.0253 35.4858 11.0154 35.4689C11.0054 35.452 10.9958 35.4348 10.9867 35.4174C10.9776 35.4 10.9689 35.3824 10.9607 35.3646C10.9524 35.3467 10.9446 35.3287 10.9373 35.3105C10.9299 35.2922 10.923 35.2739 10.9165 35.2553C10.91 35.2367 10.904 35.218 10.8985 35.1992C10.8929 35.1804 10.8879 35.1614 10.8833 35.1423C10.8786 35.1232 10.8745 35.104 10.8708 35.0847C10.8671 35.0654 10.8639 35.046 10.8612 35.0266C10.8585 35.0071 10.8562 34.9876 10.8545 34.968C10.8527 34.9484 10.8514 34.9288 10.8506 34.9092C10.8498 34.8895 10.8495 34.8699 10.8496 34.8503C10.8498 34.8306 10.8504 34.811 10.8516 34.7914C10.8527 34.7717 10.8543 34.7522 10.8563 34.7327C10.8584 34.7131 10.861 34.6937 10.864 34.6742C10.8671 34.6548 10.8706 34.6355 10.8746 34.6163C10.8786 34.597 10.883 34.5779 10.8879 34.5588C10.8928 34.5398 10.8982 34.521 10.9041 34.5022C10.91 34.4834 10.9163 34.4648 10.923 34.4464C10.9298 34.4279 10.937 34.4097 10.9447 34.3916C10.9523 34.3735 10.9604 34.3556 10.9689 34.3379C10.9775 34.3202 10.9864 34.3027 10.9959 34.2855C11.0052 34.2682 11.015 34.2512 11.0253 34.2344C11.0355 34.2176 11.0461 34.2011 11.0572 34.1849C11.0682 34.1686 11.0796 34.1526 11.0915 34.1369C11.1033 34.1212 11.1155 34.1058 11.128 34.0907C11.1406 34.0757 11.1536 34.0608 11.1669 34.0464C11.1802 34.032 11.1939 34.0179 11.2079 34.0041C11.2219 33.9903 11.2363 33.9769 11.2509 33.9639C11.2656 33.9508 11.2806 33.9381 11.2959 33.9257C11.3112 33.9134 11.3268 33.9015 11.3426 33.8899C11.3585 33.8784 11.3747 33.8672 11.3911 33.8564C11.4076 33.8456 11.4242 33.8353 11.4412 33.8253C11.4581 33.8154 11.4753 33.8058 11.4927 33.7967C11.5101 33.7876 11.5277 33.7789 11.5456 33.7707C11.5634 33.7624 11.5814 33.7546 11.5996 33.7472C11.6178 33.7399 11.6362 33.733 11.6548 33.7265C11.6733 33.7201 11.692 33.714 11.7109 33.7085C11.7297 33.7029 11.7487 33.6978 11.7678 33.6932C11.7869 33.6887 11.8061 33.6845 11.8254 33.6808C11.8447 33.6772 11.8641 33.6739 11.8835 33.6712C11.903 33.6685 11.9225 33.6662 11.9421 33.6645C11.9616 33.6627 11.9812 33.6614 12.0009 33.6606C12.0205 33.6598 12.0402 33.6595 12.0598 33.6597C12.0794 33.6598 12.0991 33.6605 12.1187 33.6616C12.1383 33.6627 12.1579 33.6643 12.1774 33.6664C12.197 33.6684 12.2164 33.671 12.2358 33.6741C12.2552 33.6771 12.2746 33.6806 12.2938 33.6846C12.3131 33.6886 12.3322 33.693 12.3512 33.6979C12.3702 33.7029 12.3891 33.7082 12.4079 33.7141C12.4266 33.7199 12.4452 33.7262 12.4637 33.733C12.4821 33.7397 12.5004 33.747 12.5185 33.7547C12.5366 33.7623 12.5545 33.7704 12.5722 33.7789C12.5899 33.7875 12.6074 33.7964 12.6246 33.8058C12.6419 33.8152 12.6589 33.825 12.6757 33.8352C12.6924 33.8455 12.709 33.8561 12.7252 33.8672C12.7415 33.8782 12.7574 33.8896 12.7732 33.9014C12.7889 33.9132 12.8042 33.9254 12.8193 33.938C12.8344 33.9505 12.8492 33.9635 12.8637 33.9768L14.2077 35.2152L16.2717 32.4792C16.6701 31.9512 17.4237 31.8456 17.9517 32.244C18.4797 32.6424 18.5853 33.396 18.1869 33.924L15.3237 37.716C15.3111 37.7327 15.2981 37.749 15.2847 37.7649C15.2713 37.7809 15.2575 37.7965 15.2432 37.8118C15.229 37.827 15.2144 37.8419 15.1994 37.8564C15.1844 37.8709 15.169 37.885 15.1533 37.8987C15.1375 37.9124 15.1215 37.9256 15.1051 37.9385C15.0886 37.9513 15.0719 37.9637 15.0548 37.9757C15.0377 37.9877 15.0203 37.9992 15.0027 38.0103C14.985 38.0214 14.967 38.032 14.9488 38.0422C14.9306 38.0523 14.9121 38.062 14.8934 38.0711C14.8746 38.0803 14.8557 38.089 14.8365 38.0972C14.8173 38.1054 14.798 38.113 14.7784 38.1203C14.7588 38.1274 14.739 38.1341 14.7191 38.1403C14.6992 38.1464 14.6791 38.152 14.6589 38.1572C14.6387 38.1623 14.6183 38.1669 14.5979 38.1709C14.5774 38.175 14.5568 38.1785 14.5362 38.1815C14.5156 38.1844 14.4949 38.1869 14.4741 38.1888C14.4381 38.196 14.4021 38.196 14.3661 38.196Z"></path><path id="路径 6" fill-rule="evenodd" style="fill:#FFFFFF" opacity="1" d="M33.5257 41.4936C33.2257 41.4936 32.9353 41.3808 32.7121 41.1768L30.0217 38.6976C30.0072 38.6843 29.9931 38.6706 29.9793 38.6566C29.9656 38.6426 29.9521 38.6283 29.9391 38.6136C29.926 38.5989 29.9133 38.5839 29.901 38.5686C29.8886 38.5533 29.8767 38.5377 29.8651 38.5218C29.8535 38.506 29.8424 38.4898 29.8316 38.4734C29.8208 38.457 29.8105 38.4403 29.8005 38.4233C29.7905 38.4064 29.781 38.3892 29.7719 38.3718C29.7628 38.3544 29.7541 38.3368 29.7458 38.319C29.7376 38.3011 29.7298 38.2831 29.7224 38.2649C29.7151 38.2467 29.7082 38.2283 29.7017 38.2097C29.6952 38.1912 29.6892 38.1725 29.6836 38.1536C29.6781 38.1348 29.673 38.1158 29.6684 38.0967C29.6638 38.0776 29.6596 38.0584 29.656 38.0391C29.6523 38.0198 29.6491 38.0004 29.6464 37.981C29.6437 37.9615 29.6414 37.942 29.6396 37.9224C29.6379 37.9028 29.6366 37.8833 29.6358 37.8636C29.635 37.844 29.6346 37.8244 29.6348 37.8047C29.635 37.785 29.6356 37.7654 29.6367 37.7458C29.6378 37.7262 29.6395 37.7066 29.6416 37.687C29.6436 37.6675 29.6462 37.648 29.6492 37.6286C29.6523 37.6092 29.6558 37.5899 29.6597 37.5707C29.6637 37.5514 29.6682 37.5323 29.6731 37.5133C29.678 37.4942 29.6834 37.4754 29.6893 37.4566C29.6951 37.4379 29.7014 37.4193 29.7082 37.4008C29.715 37.3823 29.7222 37.3641 29.7298 37.346C29.7375 37.3279 29.7456 37.31 29.7541 37.2923C29.7626 37.2746 29.7716 37.2571 29.781 37.2399C29.7904 37.2226 29.8002 37.2056 29.8104 37.1888C29.8207 37.172 29.8313 37.1555 29.8423 37.1393C29.8534 37.123 29.8648 37.107 29.8766 37.0913C29.8884 37.0756 29.9006 37.0602 29.9132 37.0451C29.9258 37.03 29.9387 37.0153 29.9521 37.0008C29.9654 36.9864 29.979 36.9723 29.9931 36.9585C30.0071 36.9447 30.0214 36.9313 30.0361 36.9182C30.0508 36.9052 30.0658 36.8925 30.0811 36.8801C30.0964 36.8678 30.112 36.8559 30.1278 36.8443C30.1437 36.8328 30.1599 36.8216 30.1763 36.8108C30.1927 36.8 30.2094 36.7897 30.2264 36.7797C30.2433 36.7698 30.2605 36.7602 30.2779 36.7511C30.2953 36.742 30.3129 36.7333 30.3308 36.7251C30.3486 36.7168 30.3666 36.709 30.3848 36.7017C30.403 36.6943 30.4214 36.6874 30.44 36.6809C30.4585 36.6745 30.4772 36.6685 30.4961 36.6629C30.5149 36.6574 30.5339 36.6523 30.553 36.6477C30.5721 36.6431 30.5913 36.6389 30.6106 36.6352C30.6299 36.6316 30.6493 36.6284 30.6687 36.6257C30.6882 36.6229 30.7077 36.6207 30.7273 36.6189C30.7468 36.6171 30.7664 36.6158 30.7861 36.6151C30.8057 36.6143 30.8253 36.6139 30.845 36.6141C30.8646 36.6142 30.8843 36.6149 30.9039 36.616C30.9235 36.6171 30.9431 36.6187 30.9626 36.6208C30.9821 36.6229 31.0016 36.6254 31.021 36.6285C31.0404 36.6315 31.0598 36.635 31.079 36.639C31.0982 36.643 31.1174 36.6474 31.1364 36.6524C31.1554 36.6573 31.1743 36.6627 31.1931 36.6685C31.2118 36.6743 31.2304 36.6807 31.2488 36.6874C31.2673 36.6942 31.2856 36.7014 31.3037 36.709C31.3218 36.7167 31.3397 36.7248 31.3574 36.7333C31.3751 36.7419 31.3925 36.7508 31.4098 36.7602C31.4271 36.7696 31.4441 36.7794 31.4609 36.7896C31.4776 36.7999 31.4942 36.8105 31.5104 36.8215C31.5267 36.8326 31.5426 36.844 31.5583 36.8558C31.574 36.8676 31.5894 36.8798 31.6045 36.8924C31.6196 36.905 31.6344 36.9179 31.6488 36.9312L33.3648 38.5128L36.4633 34.4088C36.8617 33.8808 37.6153 33.7752 38.1433 34.1736C38.6713 34.572 38.7768 35.3256 38.3785 35.8536L34.4808 41.0136C34.4683 41.0303 34.4553 41.0466 34.4419 41.0626C34.4285 41.0786 34.4147 41.0942 34.4005 41.1094C34.3862 41.1246 34.3716 41.1395 34.3566 41.154C34.3416 41.1685 34.3262 41.1826 34.3104 41.1963C34.2947 41.21 34.2786 41.2233 34.2622 41.2361C34.2458 41.2489 34.2291 41.2614 34.212 41.2734C34.1949 41.2853 34.1775 41.2968 34.1598 41.308C34.1422 41.319 34.1242 41.3296 34.106 41.3398C34.0878 41.3499 34.0693 41.3596 34.0506 41.3688C34.0318 41.3779 34.0129 41.3866 33.9937 41.3948C33.9745 41.403 33.9551 41.4107 33.9355 41.4179C33.916 41.425 33.8962 41.4318 33.8763 41.4379C33.8563 41.444 33.8363 41.4497 33.8161 41.4548C33.7958 41.4599 33.7755 41.4645 33.755 41.4686C33.7346 41.4726 33.714 41.4761 33.6934 41.4791C33.6727 41.4821 33.652 41.4845 33.6313 41.4864C33.5977 41.4936 33.5617 41.4936 33.5257 41.4936Z"></path></g></g><defs><rect id="path_0" x="0" y="0" width="48" height="48" rx="0" ry="0"/><linearGradient id="linear_0" x1="-0.0013919400170490127%" y1="50%" x2="99.99939196433849%" y2="50%" gradientUnits="objectBoundingBox"><stop offset="0" stop-color="#2CC789" stop-opacity="1" /><stop offset="1" stop-color="#1BF7C8" stop-opacity="1" /></linearGradient><linearGradient id="linear_1" x1="-0.0017060927292017907%" y1="50%" x2="99.99970610448501%" y2="50%" gradientUnits="objectBoundingBox"><stop offset="0" stop-color="#2CC789" stop-opacity="1" /><stop offset="1" stop-color="#1BF7C8" stop-opacity="1" /></linearGradient><linearGradient id="linear_2" x1="-0.001311658852660086%" y1="50%" x2="99.99931168638521%" y2="50%" gradientUnits="objectBoundingBox"><stop offset="0" stop-color="#2CC789" stop-opacity="1" /><stop offset="1" stop-color="#1BF7C8" stop-opacity="1" /></linearGradient><linearGradient id="linear_3" x1="-0.002865553208479801%" y1="50%" x2="100.00086551858773%" y2="50%" gradientUnits="objectBoundingBox"><stop offset="0" stop-color="#2CC789" stop-opacity="1" /><stop offset="1" stop-color="#1BF7C8" stop-opacity="1" /></linearGradient></defs></svg>