<svg xmlns="http://www.w3.org/2000/svg" xmlns:xlink="http://www.w3.org/1999/xlink" width="48" height="48" viewBox="0 0 48 48" fill="none"><g opacity="1"  transform="translate(0 0)"><mask id="bg-mask-0" fill="white"><use transform="translate(0 0)" xlink:href="#path_0"></use></mask><g mask="url(#bg-mask-0)" ><path id="路径 1" fill-rule="evenodd" style="fill:#000000" opacity="1" d="M0.0546875 24.0548C0.0546875 24.4467 0.0643019 24.8383 0.0835306 25.2297C0.102759 25.6211 0.131579 26.0118 0.169991 26.4018C0.208402 26.7918 0.256358 27.1806 0.313859 27.5683C0.37136 27.9559 0.438337 28.3419 0.514789 28.7263C0.591242 29.1106 0.67708 29.4929 0.772297 29.873C0.867514 30.2531 0.972003 30.6307 1.08576 31.0057C1.19952 31.3807 1.32241 31.7527 1.45443 32.1217C1.58645 32.4907 1.72745 32.8562 1.87741 33.2182C2.02738 33.5803 2.18614 33.9384 2.35369 34.2927C2.52124 34.6469 2.69738 34.9969 2.88211 35.3425C3.06685 35.6881 3.25995 36.029 3.46141 36.3651C3.66288 36.7012 3.87247 37.0322 4.09019 37.3581C4.30791 37.6839 4.5335 38.0042 4.76694 38.319C5.00038 38.6337 5.24141 38.9425 5.48998 39.2455C5.73861 39.5484 5.9945 39.8451 6.25766 40.1354C6.52086 40.4258 6.791 40.7095 7.06808 40.9867C7.3452 41.2637 7.62894 41.5339 7.91928 41.797C8.20967 42.0602 8.5063 42.3161 8.8092 42.5647C9.11216 42.8133 9.42102 43.0544 9.73573 43.2878C10.0505 43.5212 10.3708 43.7468 10.6967 43.9645C11.0225 44.1822 11.3535 44.3918 11.6896 44.5933C12.0258 44.7948 12.3666 44.9879 12.7122 45.1726C13.0579 45.3573 13.4078 45.5335 13.762 45.7011C14.1163 45.8686 14.4744 46.0273 14.8365 46.1773C15.1985 46.3273 15.5641 46.4683 15.933 46.6003C16.302 46.7323 16.674 46.8551 17.049 46.9688C17.424 47.0825 17.8016 47.187 18.1817 47.2822C18.5619 47.3778 18.9441 47.4636 19.3285 47.5395C19.7128 47.6164 20.0988 47.6834 20.4864 47.7406C20.8741 47.7982 21.2629 47.8461 21.6529 47.8845C22.0429 47.9229 22.4336 47.952 22.825 47.9707C23.2164 47.9904 23.6081 47.9998 23.9999 47.9998C24.3918 47.9998 24.7835 47.9904 25.1749 47.9707C25.5663 47.952 25.957 47.9229 26.347 47.8845C26.737 47.8461 27.1258 47.7982 27.5135 47.7406C27.9011 47.6834 28.2871 47.6164 28.6714 47.5395C29.0558 47.4636 29.438 47.3778 29.8182 47.2822C30.1983 47.187 30.5759 47.0825 30.9509 46.9688C31.3259 46.8551 31.6979 46.7323 32.0668 46.6003C32.4358 46.4683 32.8013 46.3273 33.1634 46.1773C33.5255 46.0273 33.8836 45.8685 34.2379 45.701C34.5921 45.5335 34.9421 45.3573 35.2877 45.1726C35.6333 44.9879 35.9742 44.7948 36.3102 44.5933C36.6464 44.3918 36.9774 44.1822 37.3032 43.9645C37.6291 43.7468 37.9494 43.5212 38.2641 43.2878C38.5789 43.0544 38.8878 42.8133 39.1907 42.5647C39.4936 42.3161 39.7903 42.0602 40.0806 41.797C40.371 41.5339 40.6547 41.2637 40.9318 40.9867C41.2089 40.7095 41.4791 40.4258 41.7422 40.1354C42.0054 39.8451 42.2613 39.5484 42.5099 39.2455C42.7585 38.9425 42.9995 38.6337 43.2329 38.319C43.4664 38.0042 43.692 37.6839 43.9097 37.3581C44.1274 37.0322 44.337 36.7012 44.5385 36.3651C44.74 36.029 44.933 35.6881 45.1178 35.3425C45.3025 34.9969 45.4787 34.6469 45.6462 34.2927C45.8138 33.9384 45.9725 33.5803 46.1225 33.2182C46.2725 32.8562 46.4135 32.4907 46.5455 32.1217C46.6775 31.7527 46.8005 31.3807 46.9143 31.0057C47.0281 30.6307 47.1327 30.2531 47.2273 29.873C47.323 29.4929 47.4087 29.1106 47.4852 28.7263C47.5616 28.3419 47.6286 27.9559 47.6858 27.5683C47.7434 27.1806 47.7913 26.7918 47.8297 26.4018C47.8681 26.0118 47.8972 25.6211 47.9164 25.2297C47.9356 24.8383 47.945 24.4467 47.945 24.0548C47.945 23.6629 47.9356 23.2712 47.9164 22.8798C47.8972 22.4884 47.8681 22.0977 47.8297 21.7077C47.7913 21.3177 47.7434 20.9289 47.6858 20.5413C47.6286 20.1536 47.5616 19.7676 47.4852 19.3833C47.4087 18.9989 47.323 18.6167 47.2273 18.2365C47.1327 17.8564 47.0281 17.4788 46.9143 17.1038C46.8005 16.7288 46.6775 16.3568 46.5455 15.9878C46.4135 15.6188 46.2725 15.2534 46.1225 14.8913C45.9725 14.5292 45.8138 14.1711 45.6462 13.8169C45.4787 13.4626 45.3025 13.1126 45.1178 12.7671C44.933 12.4214 44.7399 12.0805 44.5385 11.7444C44.337 11.4083 44.1274 11.0773 43.9097 10.7515C43.692 10.4257 43.4664 10.1054 43.2329 9.79059C42.9995 9.47583 42.7585 9.16697 42.5099 8.86406C42.2613 8.56111 42.0054 8.26448 41.7422 7.97414C41.4791 7.68375 41.2089 7.40001 40.9318 7.12293C40.6547 6.84581 40.371 6.57567 40.0806 6.31251C39.7903 6.04931 39.4936 5.79342 39.1907 5.54484C38.8878 5.29622 38.5789 5.05518 38.2641 4.82175C37.9494 4.5883 37.6291 4.36272 37.3032 4.145C36.9774 3.92728 36.6464 3.71769 36.3102 3.51623C35.9742 3.31476 35.6333 3.12166 35.2877 2.93693C34.9421 2.75219 34.5921 2.57605 34.2379 2.4085C33.8836 2.24095 33.5255 2.08219 33.1634 1.93222C32.8013 1.78225 32.4358 1.64126 32.0668 1.50924C31.6979 1.37722 31.3259 1.25433 30.9509 1.14057C30.5759 1.02682 30.1983 0.922328 29.8182 0.827106C29.438 0.731885 29.0558 0.646052 28.6714 0.569597C28.2871 0.493145 27.9011 0.42617 27.5135 0.368668C27.1258 0.311167 26.737 0.263211 26.347 0.2248C25.957 0.186389 25.5663 0.157569 25.1749 0.13834C24.7835 0.119111 24.3918 0.109497 23.9999 0.109497C23.6081 0.109497 23.2164 0.119111 22.825 0.13834C22.4336 0.157569 22.0429 0.186389 21.6529 0.2248C21.2629 0.263211 20.8741 0.311167 20.4864 0.368668C20.0988 0.42617 19.7128 0.493145 19.3285 0.569597C18.9441 0.646052 18.5619 0.731885 18.1817 0.827106C17.8016 0.922328 17.424 1.02682 17.049 1.14057C16.674 1.25433 16.302 1.37722 15.933 1.50924C15.5641 1.64126 15.1985 1.78225 14.8365 1.93222C14.4744 2.08219 14.1163 2.24095 13.762 2.4085C13.4078 2.57605 13.0579 2.75219 12.7122 2.93693C12.3666 3.12166 12.0258 3.31476 11.6896 3.51623C11.3535 3.71769 11.0225 3.92728 10.6967 4.145C10.3708 4.36272 10.0505 4.5883 9.73573 4.82175C9.42102 5.05518 9.11216 5.29622 8.8092 5.54484C8.5063 5.79342 8.20967 6.04931 7.91928 6.31251C7.62894 6.57567 7.3452 6.84581 7.06808 7.12293C6.791 7.40001 6.52086 7.68375 6.25766 7.97414C5.9945 8.26448 5.73861 8.56111 5.48998 8.86406C5.24141 9.16697 5.00038 9.47583 4.76694 9.79059C4.5335 10.1054 4.30791 10.4257 4.09019 10.7515C3.87247 11.0773 3.66288 11.4083 3.46141 11.7444C3.25995 12.0805 3.06685 12.4214 2.88212 12.7671C2.69738 13.1126 2.52124 13.4626 2.35369 13.8169C2.18614 14.1711 2.02738 14.5292 1.87741 14.8913C1.72745 15.2534 1.58645 15.6188 1.45443 15.9878C1.32241 16.3568 1.19952 16.7288 1.08576 17.1038C0.972003 17.4788 0.867514 17.8564 0.772297 18.2365C0.67708 18.6167 0.591242 18.9989 0.514789 19.3833C0.438337 19.7676 0.37136 20.1536 0.313859 20.5413C0.256358 20.9289 0.208402 21.3177 0.169991 21.7077C0.131579 22.0977 0.102759 22.4884 0.0835306 22.8798C0.0643019 23.2712 0.0546875 23.6629 0.0546875 24.0548Z"></path><path id="路径 1" fill-rule="evenodd" fill="url(#linear_0)" opacity="1" d="M0.0546875 24.0548C0.0546875 24.4467 0.0643019 24.8383 0.0835306 25.2297C0.102759 25.6211 0.131579 26.0118 0.169991 26.4018C0.208402 26.7918 0.256358 27.1806 0.313859 27.5683C0.37136 27.9559 0.438337 28.3419 0.514789 28.7263C0.591242 29.1106 0.67708 29.4929 0.772297 29.873C0.867514 30.2531 0.972003 30.6307 1.08576 31.0057C1.19952 31.3807 1.32241 31.7527 1.45443 32.1217C1.58645 32.4907 1.72745 32.8562 1.87741 33.2182C2.02738 33.5803 2.18614 33.9384 2.35369 34.2927C2.52124 34.6469 2.69738 34.9969 2.88211 35.3425C3.06685 35.6881 3.25995 36.029 3.46141 36.3651C3.66288 36.7012 3.87247 37.0322 4.09019 37.3581C4.30791 37.6839 4.5335 38.0042 4.76694 38.319C5.00038 38.6337 5.24141 38.9425 5.48998 39.2455C5.73861 39.5484 5.9945 39.8451 6.25766 40.1354C6.52086 40.4258 6.791 40.7095 7.06808 40.9867C7.3452 41.2637 7.62894 41.5339 7.91928 41.797C8.20967 42.0602 8.5063 42.3161 8.8092 42.5647C9.11216 42.8133 9.42102 43.0544 9.73573 43.2878C10.0505 43.5212 10.3708 43.7468 10.6967 43.9645C11.0225 44.1822 11.3535 44.3918 11.6896 44.5933C12.0258 44.7948 12.3666 44.9879 12.7122 45.1726C13.0579 45.3573 13.4078 45.5335 13.762 45.7011C14.1163 45.8686 14.4744 46.0273 14.8365 46.1773C15.1985 46.3273 15.5641 46.4683 15.933 46.6003C16.302 46.7323 16.674 46.8551 17.049 46.9688C17.424 47.0825 17.8016 47.187 18.1817 47.2822C18.5619 47.3778 18.9441 47.4636 19.3285 47.5395C19.7128 47.6164 20.0988 47.6834 20.4864 47.7406C20.8741 47.7982 21.2629 47.8461 21.6529 47.8845C22.0429 47.9229 22.4336 47.952 22.825 47.9707C23.2164 47.9904 23.6081 47.9998 23.9999 47.9998C24.3918 47.9998 24.7835 47.9904 25.1749 47.9707C25.5663 47.952 25.957 47.9229 26.347 47.8845C26.737 47.8461 27.1258 47.7982 27.5135 47.7406C27.9011 47.6834 28.2871 47.6164 28.6714 47.5395C29.0558 47.4636 29.438 47.3778 29.8182 47.2822C30.1983 47.187 30.5759 47.0825 30.9509 46.9688C31.3259 46.8551 31.6979 46.7323 32.0668 46.6003C32.4358 46.4683 32.8013 46.3273 33.1634 46.1773C33.5255 46.0273 33.8836 45.8685 34.2379 45.701C34.5921 45.5335 34.9421 45.3573 35.2877 45.1726C35.6333 44.9879 35.9742 44.7948 36.3102 44.5933C36.6464 44.3918 36.9774 44.1822 37.3032 43.9645C37.6291 43.7468 37.9494 43.5212 38.2641 43.2878C38.5789 43.0544 38.8878 42.8133 39.1907 42.5647C39.4936 42.3161 39.7903 42.0602 40.0806 41.797C40.371 41.5339 40.6547 41.2637 40.9318 40.9867C41.2089 40.7095 41.4791 40.4258 41.7422 40.1354C42.0054 39.8451 42.2613 39.5484 42.5099 39.2455C42.7585 38.9425 42.9995 38.6337 43.2329 38.319C43.4664 38.0042 43.692 37.6839 43.9097 37.3581C44.1274 37.0322 44.337 36.7012 44.5385 36.3651C44.74 36.029 44.933 35.6881 45.1178 35.3425C45.3025 34.9969 45.4787 34.6469 45.6462 34.2927C45.8138 33.9384 45.9725 33.5803 46.1225 33.2182C46.2725 32.8562 46.4135 32.4907 46.5455 32.1217C46.6775 31.7527 46.8005 31.3807 46.9143 31.0057C47.0281 30.6307 47.1327 30.2531 47.2273 29.873C47.323 29.4929 47.4087 29.1106 47.4852 28.7263C47.5616 28.3419 47.6286 27.9559 47.6858 27.5683C47.7434 27.1806 47.7913 26.7918 47.8297 26.4018C47.8681 26.0118 47.8972 25.6211 47.9164 25.2297C47.9356 24.8383 47.945 24.4467 47.945 24.0548C47.945 23.6629 47.9356 23.2712 47.9164 22.8798C47.8972 22.4884 47.8681 22.0977 47.8297 21.7077C47.7913 21.3177 47.7434 20.9289 47.6858 20.5413C47.6286 20.1536 47.5616 19.7676 47.4852 19.3833C47.4087 18.9989 47.323 18.6167 47.2273 18.2365C47.1327 17.8564 47.0281 17.4788 46.9143 17.1038C46.8005 16.7288 46.6775 16.3568 46.5455 15.9878C46.4135 15.6188 46.2725 15.2534 46.1225 14.8913C45.9725 14.5292 45.8138 14.1711 45.6462 13.8169C45.4787 13.4626 45.3025 13.1126 45.1178 12.7671C44.933 12.4214 44.7399 12.0805 44.5385 11.7444C44.337 11.4083 44.1274 11.0773 43.9097 10.7515C43.692 10.4257 43.4664 10.1054 43.2329 9.79059C42.9995 9.47583 42.7585 9.16697 42.5099 8.86406C42.2613 8.56111 42.0054 8.26448 41.7422 7.97414C41.4791 7.68375 41.2089 7.40001 40.9318 7.12293C40.6547 6.84581 40.371 6.57567 40.0806 6.31251C39.7903 6.04931 39.4936 5.79342 39.1907 5.54484C38.8878 5.29622 38.5789 5.05518 38.2641 4.82175C37.9494 4.5883 37.6291 4.36272 37.3032 4.145C36.9774 3.92728 36.6464 3.71769 36.3102 3.51623C35.9742 3.31476 35.6333 3.12166 35.2877 2.93693C34.9421 2.75219 34.5921 2.57605 34.2379 2.4085C33.8836 2.24095 33.5255 2.08219 33.1634 1.93222C32.8013 1.78225 32.4358 1.64126 32.0668 1.50924C31.6979 1.37722 31.3259 1.25433 30.9509 1.14057C30.5759 1.02682 30.1983 0.922328 29.8182 0.827106C29.438 0.731885 29.0558 0.646052 28.6714 0.569597C28.2871 0.493145 27.9011 0.42617 27.5135 0.368668C27.1258 0.311167 26.737 0.263211 26.347 0.2248C25.957 0.186389 25.5663 0.157569 25.1749 0.13834C24.7835 0.119111 24.3918 0.109497 23.9999 0.109497C23.6081 0.109497 23.2164 0.119111 22.825 0.13834C22.4336 0.157569 22.0429 0.186389 21.6529 0.2248C21.2629 0.263211 20.8741 0.311167 20.4864 0.368668C20.0988 0.42617 19.7128 0.493145 19.3285 0.569597C18.9441 0.646052 18.5619 0.731885 18.1817 0.827106C17.8016 0.922328 17.424 1.02682 17.049 1.14057C16.674 1.25433 16.302 1.37722 15.933 1.50924C15.5641 1.64126 15.1985 1.78225 14.8365 1.93222C14.4744 2.08219 14.1163 2.24095 13.762 2.4085C13.4078 2.57605 13.0579 2.75219 12.7122 2.93693C12.3666 3.12166 12.0258 3.31476 11.6896 3.51623C11.3535 3.71769 11.0225 3.92728 10.6967 4.145C10.3708 4.36272 10.0505 4.5883 9.73573 4.82175C9.42102 5.05518 9.11216 5.29622 8.8092 5.54484C8.5063 5.79342 8.20967 6.04931 7.91928 6.31251C7.62894 6.57567 7.3452 6.84581 7.06808 7.12293C6.791 7.40001 6.52086 7.68375 6.25766 7.97414C5.9945 8.26448 5.73861 8.56111 5.48998 8.86406C5.24141 9.16697 5.00038 9.47583 4.76694 9.79059C4.5335 10.1054 4.30791 10.4257 4.09019 10.7515C3.87247 11.0773 3.66288 11.4083 3.46141 11.7444C3.25995 12.0805 3.06685 12.4214 2.88212 12.7671C2.69738 13.1126 2.52124 13.4626 2.35369 13.8169C2.18614 14.1711 2.02738 14.5292 1.87741 14.8913C1.72745 15.2534 1.58645 15.6188 1.45443 15.9878C1.32241 16.3568 1.19952 16.7288 1.08576 17.1038C0.972003 17.4788 0.867514 17.8564 0.772297 18.2365C0.67708 18.6167 0.591242 18.9989 0.514789 19.3833C0.438337 19.7676 0.37136 20.1536 0.313859 20.5413C0.256358 20.9289 0.208402 21.3177 0.169991 21.7077C0.131579 22.0977 0.102759 22.4884 0.0835306 22.8798C0.0643019 23.2712 0.0546875 23.6629 0.0546875 24.0548Z"></path><path id="路径 2" fill-rule="evenodd" style="fill:#FFFFFF" opacity="1" d="M37.4552 31.7411C37.4655 31.7582 37.4753 31.7754 37.4849 31.7929C37.4944 31.8104 37.5036 31.828 37.5125 31.8458C37.5213 31.8637 37.5297 31.8817 37.5378 31.8998C37.5458 31.918 37.5536 31.9364 37.5609 31.9548C37.5682 31.9733 37.5752 31.992 37.5817 32.0107C37.5883 32.0295 37.5945 32.0484 37.6003 32.0674C37.6061 32.0865 37.6115 32.1056 37.6165 32.1248C37.6215 32.1441 37.6261 32.1635 37.6303 32.1829C37.6345 32.2023 37.6383 32.2218 37.6418 32.2414C37.6452 32.2611 37.6482 32.2808 37.6508 32.3004C37.6535 32.3202 37.6557 32.34 37.6575 32.3597C37.6593 32.3795 37.6606 32.3993 37.6617 32.4192C37.6627 32.4391 37.6633 32.459 37.6635 32.4788C37.6636 32.4988 37.6634 32.5186 37.6628 32.5385C37.6621 32.5584 37.6611 32.5783 37.6597 32.5981C37.6582 32.618 37.6564 32.6377 37.6541 32.6575C37.6518 32.6773 37.6492 32.697 37.6462 32.7166C37.6431 32.7363 37.6396 32.7559 37.6357 32.7754C37.6319 32.7949 37.6276 32.8144 37.623 32.8337C37.6183 32.853 37.6133 32.8723 37.6078 32.8914C37.6024 32.9105 37.5965 32.9295 37.5903 32.9484C37.584 32.9673 37.5774 32.9861 37.5705 33.0047C37.5635 33.0233 37.5561 33.0418 37.5484 33.0601C37.5406 33.0785 37.5325 33.0966 37.524 33.1146C37.5155 33.1326 37.5067 33.1504 37.4975 33.168C37.4882 33.1856 37.4787 33.2031 37.4687 33.2203C37.4588 33.2376 37.4485 33.2546 37.4379 33.2714C37.4272 33.2882 37.4163 33.3048 37.405 33.3211C37.3937 33.3375 37.3821 33.3537 37.3701 33.3695C37.3581 33.3855 37.3458 33.4011 37.3332 33.4164C37.3206 33.4318 37.3077 33.447 37.2945 33.4618C37.2812 33.4767 37.2677 33.4912 37.2539 33.5055C37.2401 33.5199 37.226 33.5339 37.2116 33.5476C37.1971 33.5613 37.1825 33.5748 37.1676 33.5879C37.1526 33.601 37.1374 33.6139 37.1219 33.6263C37.1065 33.6389 37.0907 33.651 37.0748 33.6629C37.0588 33.6748 37.0426 33.6863 37.0262 33.6975C37.0097 33.7087 36.9931 33.7195 36.9762 33.73C36.9593 33.7406 36.9422 33.7508 36.9249 33.7605C36.9076 33.7704 36.8901 33.7799 36.8724 33.789C36.8547 33.798 36.8369 33.8068 36.8189 33.8152C36.8008 33.8235 36.7826 33.8316 36.7642 33.8392C36.7458 33.8468 36.7273 33.854 36.7087 33.8609C36.69 33.8678 36.6712 33.8742 36.6523 33.8803C36.6333 33.8864 36.6143 33.8921 36.5951 33.8975C36.5759 33.9028 36.5566 33.9077 36.5373 33.9122C36.5179 33.9168 36.4984 33.9209 36.4789 33.9246C36.4594 33.9284 36.4398 33.9317 36.4201 33.9346C36.4004 33.9375 36.3807 33.9401 36.3609 33.9422C36.3412 33.9443 36.3213 33.9461 36.3015 33.9474C36.2816 33.9487 36.2617 33.9496 36.2419 33.9501C36.222 33.9506 36.2021 33.9507 36.1822 33.9504C36.1623 33.9501 36.1424 33.9494 36.1226 33.9482C36.1027 33.9471 36.0829 33.9456 36.0631 33.9436C36.0433 33.9417 36.0236 33.9394 36.0039 33.9366C35.9842 33.9339 35.9645 33.9307 35.945 33.9272C35.9254 33.9236 35.9059 33.9197 35.8865 33.9153C35.8671 33.911 35.8477 33.9062 35.8285 33.9011C35.8093 33.896 35.7902 33.8904 35.7712 33.8845C35.7522 33.8786 35.7334 33.8723 35.7146 33.8656C35.6959 33.8589 35.6773 33.8519 35.6589 33.8444C35.6404 33.837 35.6221 33.8291 35.604 33.8209C35.5859 33.8128 35.5679 33.8042 35.5502 33.7952C35.5324 33.7863 35.5148 33.777 35.4975 33.7673C35.4049 33.7179 35.3147 33.6647 35.2268 33.6076C35.1389 33.5505 35.0535 33.4898 34.9708 33.4253C34.888 33.3609 34.8082 33.2932 34.7313 33.2219C34.6543 33.1507 34.5806 33.0764 34.51 32.9988C31.9615 30.1927 29.3036 27.48 26.6867 24.7275C26.5764 24.6097 26.4624 24.4957 26.3446 24.3854C26.0025 24.6761 25.6719 24.9669 25.3287 25.2577L24.0413 23.8893C23.795 24.0877 23.5487 24.2862 23.2888 24.4994C21.4518 22.6453 19.6286 20.7788 17.7517 18.8859C19.616 17.244 21.4518 15.6157 23.3275 13.9623C25.1918 15.8415 27.0425 17.6955 28.9057 19.5872L28.1075 20.3021C28.5316 20.7514 28.9421 21.2029 29.3823 21.6704C29.1086 21.9213 28.835 22.1596 28.5465 22.4253L28.9296 22.8346C31.5898 25.5872 34.193 28.3819 36.9171 31.0684C37.0198 31.1692 37.1159 31.2759 37.2054 31.3887C37.2948 31.5015 37.377 31.6193 37.4518 31.7423L37.4552 31.7411ZM27.5202 36.838L10.3378 36.838C10.3079 36.2418 10.3125 35.6459 10.3515 35.0501C10.3545 35.0259 10.3581 35.0017 10.3623 34.9776C10.3664 34.9535 10.371 34.9296 10.3762 34.9057C10.3813 34.8818 10.387 34.858 10.3932 34.8344C10.3994 34.8107 10.4061 34.7872 10.4133 34.7638C10.4205 34.7405 10.4282 34.7173 10.4364 34.6943C10.4446 34.6712 10.4532 34.6484 10.4624 34.6257C10.4716 34.6031 10.4813 34.5807 10.4914 34.5584C10.5016 34.5362 10.5122 34.5142 10.5233 34.4924C10.5344 34.4707 10.5459 34.4491 10.558 34.4278C10.57 34.4065 10.5825 34.3855 10.5954 34.3648C10.6084 34.344 10.6217 34.3236 10.6355 34.3034C10.6494 34.2832 10.6636 34.2634 10.6783 34.2439C10.6929 34.2243 10.708 34.2051 10.7235 34.1862C10.739 34.1673 10.7549 34.1488 10.7713 34.1305C10.7875 34.1123 10.8042 34.0945 10.8213 34.077C10.8384 34.0595 10.8558 34.0424 10.8736 34.0256C10.8914 34.0089 10.9096 33.9925 10.9281 33.9766C10.9466 33.9607 10.9654 33.9451 10.9846 33.9299C11.0038 33.9148 11.0233 33.9001 11.0432 33.8857C11.063 33.8715 11.0831 33.8576 11.1035 33.8441C11.1239 33.8307 11.1446 33.8177 11.1656 33.8052C11.1866 33.7927 11.2078 33.7806 11.2293 33.7689C11.2508 33.7573 11.2725 33.7462 11.2945 33.7355C11.3165 33.7248 11.3387 33.7146 11.3611 33.7048C11.3836 33.6951 11.4062 33.6859 11.429 33.6771C11.4518 33.6683 11.4748 33.6601 11.498 33.6523C11.5212 33.6446 11.5445 33.6373 11.568 33.6305C11.5915 33.6238 11.6151 33.6175 11.6389 33.6118C11.6626 33.606 11.6865 33.6008 11.7105 33.5961C11.7345 33.5914 11.7585 33.5872 11.7827 33.5835C11.8069 33.5799 11.8311 33.5768 11.8554 33.5741C11.8797 33.5715 11.904 33.5694 11.9284 33.5678C12.0242 33.5541 12.1063 33.5279 12.2158 33.5153L12.2568 33.3033C12.2557 33.2807 12.2553 33.258 12.2555 33.2355C12.2556 33.2129 12.2563 33.1902 12.2578 33.1676C12.2591 33.1451 12.2611 33.1225 12.2637 33.1C12.2663 33.0776 12.2695 33.0552 12.2734 33.0329C12.2772 33.0106 12.2816 32.9884 12.2866 32.9664C12.2917 32.9444 12.2973 32.9224 12.3035 32.9007C12.3098 32.8789 12.3166 32.8574 12.3239 32.836C12.3313 32.8146 12.3393 32.7934 12.3479 32.7725C12.3564 32.7516 12.3655 32.7308 12.3752 32.7104C12.3849 32.6899 12.3951 32.6698 12.4059 32.6498C12.4167 32.63 12.428 32.6104 12.4398 32.5911C12.4516 32.5718 12.464 32.5529 12.4768 32.5342C12.4897 32.5157 12.5031 32.4975 12.5169 32.4795C12.5308 32.4617 12.5451 32.4442 12.56 32.4271C12.5748 32.41 12.59 32.3933 12.6058 32.377C12.6215 32.3608 12.6376 32.3449 12.6542 32.3295C12.6708 32.3142 12.6878 32.2992 12.7052 32.2847C12.7225 32.2703 12.7403 32.2563 12.7585 32.2428C12.7766 32.2293 12.7951 32.2163 12.814 32.2038C12.8329 32.1914 12.852 32.1794 12.8715 32.1679C12.8911 32.1564 12.9109 32.1456 12.931 32.1352C12.9511 32.1248 12.9715 32.115 12.9921 32.1057C13.0127 32.0965 13.0336 32.0878 13.0547 32.0797C13.0758 32.0715 13.0972 32.064 13.1187 32.057C13.1402 32.05 13.1619 32.0437 13.1838 32.0378C13.2056 32.0321 13.2277 32.0269 13.2498 32.0223C13.272 32.0177 13.2942 32.0137 13.3166 32.0103C13.339 32.007 13.3614 32.0042 13.3839 32.002C13.4065 31.9999 13.429 31.9984 13.4516 31.9974C13.4742 31.9965 13.4968 31.9962 13.5194 31.9965C13.5421 31.9968 13.5647 31.9977 13.5872 31.9992C13.6098 32.0008 13.6323 32.0029 13.6548 32.0056C15.5317 31.992 17.4096 32.0056 19.2876 32.0056L24.1907 32.0056C24.2139 32.0016 24.2373 31.9982 24.2608 31.9954C24.2843 31.9926 24.3078 31.9904 24.3314 31.9889C24.355 31.9874 24.3786 31.9866 24.4023 31.9863C24.4259 31.9861 24.4495 31.9866 24.4732 31.9876C24.4967 31.9887 24.5203 31.9904 24.5438 31.9928C24.5673 31.9951 24.5908 31.9981 24.6142 32.0018C24.6375 32.0054 24.6607 32.0097 24.6839 32.0146C24.707 32.0195 24.7299 32.025 24.7528 32.0312C24.7755 32.0374 24.7982 32.0442 24.8207 32.0516C24.8431 32.059 24.8653 32.067 24.8873 32.0756C24.9094 32.0843 24.9311 32.0934 24.9526 32.1032C24.9741 32.1131 24.9953 32.1234 25.0163 32.1344C25.0372 32.1454 25.0578 32.1569 25.0782 32.169C25.0985 32.1811 25.1184 32.1937 25.1381 32.2069C25.1577 32.2201 25.1769 32.2338 25.1958 32.248C25.2146 32.2623 25.2331 32.277 25.2512 32.2923C25.2692 32.3076 25.2869 32.3233 25.3041 32.3395C25.3213 32.3557 25.338 32.3723 25.3543 32.3895C25.3706 32.4066 25.3864 32.4241 25.4017 32.4421C25.4171 32.4601 25.4319 32.4786 25.4462 32.4973C25.4606 32.5162 25.4744 32.5353 25.4877 32.5549C25.5009 32.5744 25.5137 32.5943 25.5259 32.6145C25.5381 32.6348 25.5497 32.6554 25.5607 32.6763C25.5718 32.6972 25.5823 32.7183 25.5922 32.7398C25.6021 32.7613 25.6115 32.783 25.6202 32.8049C25.6289 32.8269 25.637 32.8491 25.6446 32.8715C25.6521 32.8939 25.659 32.9165 25.6652 32.9393C25.6715 32.9621 25.6771 32.985 25.6822 33.0081C25.6872 33.0312 25.6916 33.0544 25.6953 33.0778C25.6991 33.1011 25.7022 33.1245 25.7047 33.148C25.7071 33.1716 25.709 33.1951 25.7102 33.2187C25.7114 33.2423 25.7119 33.266 25.7118 33.2896C25.7145 33.2983 25.7175 33.3069 25.7207 33.3154C25.7239 33.3239 25.7274 33.3323 25.7312 33.3405C25.735 33.3488 25.739 33.357 25.7433 33.365C25.7475 33.3731 25.7521 33.381 25.7569 33.3886C25.7617 33.3964 25.7667 33.404 25.7719 33.4114C25.7771 33.4189 25.7826 33.4261 25.7883 33.4332C25.794 33.4403 25.7999 33.4472 25.8061 33.4539C25.8122 33.4607 25.8185 33.4672 25.8251 33.4735C25.8316 33.4798 25.8384 33.4859 25.8453 33.4918C25.8522 33.4977 25.8593 33.5034 25.8666 33.5088C25.8739 33.5143 25.8813 33.5195 25.889 33.5245C25.8966 33.5295 25.9043 33.5342 25.9122 33.5387C25.9201 33.5432 25.9282 33.5475 25.9364 33.5515C25.9445 33.5555 25.9528 33.5592 25.9612 33.5627C25.9696 33.5662 25.9781 33.5694 25.9867 33.5723C25.9953 33.5753 26.004 33.578 26.0128 33.5804C26.0397 33.5838 26.0665 33.5879 26.0932 33.5926C26.1199 33.5973 26.1465 33.6026 26.1729 33.6085C26.1993 33.6145 26.2256 33.6211 26.2518 33.6282C26.2779 33.6354 26.3039 33.6432 26.3296 33.6515C26.3554 33.6599 26.381 33.6689 26.4064 33.6785C26.4317 33.688 26.4568 33.6982 26.4817 33.7089C26.5066 33.7197 26.5312 33.731 26.5556 33.7428C26.58 33.7547 26.604 33.7672 26.6278 33.7802C26.6516 33.7932 26.6751 33.8068 26.6982 33.8208C26.7214 33.8349 26.7442 33.8496 26.7667 33.8647C26.7891 33.8799 26.8112 33.8956 26.8329 33.9118C26.8547 33.928 26.876 33.9447 26.897 33.9618C26.9179 33.979 26.9385 33.9967 26.9587 34.0148C26.9788 34.033 26.9985 34.0516 27.0178 34.0706C27.037 34.0897 27.0558 34.1092 27.0742 34.1291C27.0926 34.1491 27.1104 34.1694 27.1279 34.1902C27.1453 34.211 27.1622 34.2321 27.1786 34.2537C27.195 34.2752 27.211 34.2972 27.2264 34.3194C27.2418 34.3418 27.2567 34.3644 27.271 34.3874C27.2854 34.4104 27.2992 34.4337 27.3125 34.4573C27.3257 34.481 27.3384 34.5049 27.3506 34.5291C27.3627 34.5534 27.3743 34.5779 27.3853 34.6026C27.3963 34.6274 27.4068 34.6524 27.4166 34.6777C27.4265 34.7029 27.4357 34.7284 27.4444 34.7541C27.453 34.7798 27.4611 34.8056 27.4686 34.8317C27.476 34.8577 27.4828 34.884 27.4891 34.9103C27.4953 34.9367 27.5009 34.9632 27.5059 34.9898C27.5109 35.0165 27.5153 35.0433 27.519 35.0701C27.5228 35.097 27.5259 35.1239 27.5284 35.1508C27.5309 35.1778 27.5328 35.2049 27.534 35.232C27.5353 35.259 27.5359 35.2861 27.5359 35.3132C27.5358 35.3403 27.5352 35.3674 27.5339 35.3945C27.5202 35.8586 27.5202 36.334 27.5202 36.838ZM23.0949 25.9566C23.0972 26.0452 23.0926 26.1333 23.0812 26.2212C23.0679 26.2522 23.0542 26.2829 23.0399 26.3134C23.0256 26.344 23.0107 26.3743 22.9955 26.4043C22.9801 26.4343 22.9643 26.4641 22.9481 26.4936C22.9318 26.5231 22.915 26.5523 22.8978 26.5813C22.8805 26.6103 22.8628 26.6389 22.8446 26.6673C22.8264 26.6957 22.8078 26.7238 22.7887 26.7515C22.7695 26.7793 22.7499 26.8067 22.7299 26.8338C22.7099 26.8609 22.6894 26.8877 22.6685 26.9141C22.6476 26.9406 22.6262 26.9667 22.6045 26.9924C22.5827 27.0181 22.5605 27.0435 22.5379 27.0685C22.5153 27.0935 22.4923 27.1181 22.4688 27.1423C22.4454 27.1666 22.4216 27.1904 22.3974 27.2138C22.3732 27.2373 22.3485 27.2604 22.3236 27.283C22.2986 27.3057 22.2733 27.3279 22.2476 27.3496C22.2218 27.3715 22.1958 27.3929 22.1694 27.4138C22.143 27.4347 22.1162 27.4552 22.0891 27.4753C22.062 27.4953 22.0346 27.515 22.0069 27.5341C21.9791 27.5533 21.9511 27.572 21.9227 27.5902C21.8944 27.6084 21.8657 27.6262 21.8368 27.6434C21.8078 27.6607 21.7786 27.6775 21.7492 27.6938C21.7196 27.7101 21.6899 27.726 21.6599 27.7412C21.6298 27.7566 21.5995 27.7714 21.5691 27.7858C21.5385 27.8001 21.5078 27.8139 21.4769 27.8272C21.4459 27.8406 21.4147 27.8534 21.3833 27.8656C21.3519 27.8779 21.3203 27.8897 21.2886 27.9009C21.2568 27.9122 21.2248 27.9229 21.1927 27.933C21.1605 27.9433 21.1283 27.9529 21.0958 27.962C21.0634 27.9712 21.0308 27.9797 20.998 27.9878C20.9653 27.9958 20.9325 28.0034 20.8995 28.0103C20.8665 28.0172 20.8334 28.0237 20.8002 28.0295C20.767 28.0354 20.7337 28.0407 20.7004 28.0455C20.667 28.0502 20.6335 28.0545 20.6001 28.0581C20.5555 28.0516 20.5113 28.0435 20.4675 28.0337C20.4235 28.024 20.38 28.0126 20.337 27.9996C20.2939 27.9865 20.2514 27.9719 20.2095 27.9557C20.1675 27.9395 20.1262 27.9218 20.0856 27.9024C20.045 27.8831 20.0051 27.8624 19.9661 27.84C19.927 27.8178 19.8888 27.7941 19.8515 27.7689C19.8142 27.7438 19.7779 27.7173 19.7426 27.6894C19.7073 27.6616 19.6731 27.6324 19.64 27.602C17.8155 25.8004 16.0356 23.9623 14.2397 22.1288C14.2205 22.1128 14.2017 22.0963 14.1834 22.0792C14.1651 22.0621 14.1474 22.0445 14.1301 22.0264C14.1128 22.0083 14.096 21.9897 14.0798 21.9706C14.0636 21.9516 14.048 21.9321 14.0329 21.9121C14.0178 21.8921 14.0033 21.8717 13.9894 21.8509C13.9755 21.8302 13.9622 21.809 13.9495 21.7874C13.9368 21.7658 13.9247 21.7439 13.9133 21.7216C13.9018 21.6994 13.8911 21.6768 13.8809 21.6539C13.8708 21.631 13.8613 21.6079 13.8525 21.5845C13.8437 21.561 13.8356 21.5374 13.8282 21.5135C13.8207 21.4896 13.8139 21.4655 13.8079 21.4412C13.8018 21.417 13.7965 21.3925 13.7918 21.3679C13.7872 21.3434 13.7832 21.3187 13.78 21.2938C13.7767 21.269 13.7742 21.2441 13.7724 21.2191C13.7706 21.1942 13.7695 21.1692 13.7691 21.1442C13.7688 21.1192 13.7692 21.0942 13.7702 21.0691C13.7713 21.0442 13.7731 21.0192 13.7756 20.9943C13.7781 20.9694 13.7813 20.9446 13.7852 20.9199C13.7892 20.8952 13.7938 20.8706 13.7991 20.8461C13.8045 20.8217 13.8106 20.7974 13.8173 20.7733C13.824 20.7492 13.8315 20.7254 13.8396 20.7016C13.8477 20.678 13.8565 20.6546 13.8659 20.6314C13.8754 20.6082 13.8855 20.5853 13.8963 20.5628C13.9071 20.5402 13.9185 20.5179 13.9306 20.496C13.9426 20.4741 13.9553 20.4525 13.9686 20.4313C13.9819 20.4101 13.9958 20.3893 14.0103 20.3689C14.0248 20.3485 14.0398 20.3285 14.0555 20.309C14.0711 20.2895 14.0873 20.2704 14.1041 20.2518C14.1208 20.2332 14.1381 20.2151 14.1559 20.1975C14.1736 20.1799 14.1919 20.1628 14.2107 20.1462C14.2294 20.1297 14.2486 20.1136 14.2683 20.0982C14.288 20.0828 14.3081 20.0679 14.3286 20.0535C14.3778 19.994 14.4289 19.9363 14.4821 19.8803C14.5353 19.8244 14.5903 19.7704 14.6473 19.7183C14.7042 19.6663 14.7629 19.6162 14.8234 19.5682C14.8838 19.5203 14.9459 19.4745 15.0096 19.4308C15.0733 19.3872 15.1384 19.3459 15.2049 19.3068C15.2715 19.2677 15.3393 19.231 15.4085 19.1967C15.4776 19.1624 15.5478 19.1305 15.6192 19.1011C15.6905 19.0717 15.7628 19.0448 15.8361 19.0205C15.8508 19.0169 15.8656 19.0134 15.8805 19.0103C15.8953 19.0071 15.9102 19.0042 15.9251 19.0014C15.94 18.9988 15.955 18.9963 15.97 18.9941C15.985 18.9919 16.0001 18.9899 16.0152 18.9882C16.0302 18.9864 16.0453 18.9849 16.0605 18.9837C16.0755 18.9825 16.0907 18.9814 16.1059 18.9807C16.121 18.9799 16.1362 18.9794 16.1513 18.9791C16.1665 18.9788 16.1817 18.9788 16.1969 18.979C16.212 18.9792 16.2272 18.9797 16.2424 18.9803C16.2575 18.981 16.2727 18.982 16.2878 18.9832C16.3029 18.9844 16.318 18.9858 16.3331 18.9874C16.3482 18.9891 16.3633 18.991 16.3783 18.9931C16.3933 18.9953 16.4083 18.9976 16.4233 19.0003C16.4382 19.0029 16.4531 19.0058 16.4679 19.0088C16.4827 19.012 16.4976 19.0153 16.5123 19.0189C16.527 19.0225 16.5418 19.0263 16.5564 19.0303C16.571 19.0344 16.5855 19.0387 16.6001 19.0432C16.6146 19.0477 16.629 19.0524 16.6433 19.0574C16.6576 19.0624 16.6719 19.0676 16.686 19.073C16.7002 19.0785 16.7143 19.0841 16.7283 19.09C16.7422 19.0959 16.7562 19.102 16.77 19.1083C16.7837 19.1146 16.7974 19.1212 16.811 19.128C16.8246 19.1347 16.8381 19.1417 16.8515 19.1489C16.8648 19.1561 16.878 19.1635 16.8912 19.1711C16.9043 19.1788 16.9173 19.1866 16.9302 19.1946C16.943 19.2027 16.9558 19.2109 16.9684 19.2194C16.9809 19.2278 16.9934 19.2365 17.0058 19.2453C17.0181 19.2541 17.0302 19.2632 17.0423 19.2724C17.0543 19.2817 17.0662 19.2911 17.078 19.3007C17.0897 19.3103 17.1013 19.3201 17.1127 19.3301C17.1241 19.3401 17.1354 19.3503 17.1465 19.3606C17.1576 19.371 17.1685 19.3815 17.1793 19.3922C19.0265 21.2607 20.8623 23.1319 22.6867 25.0057C22.7887 25.1462 22.8812 25.2929 22.9641 25.4455C23.0469 25.5983 23.1194 25.7557 23.1816 25.9178C23.1542 25.9178 23.1269 25.9441 23.0995 25.9578L23.0949 25.9566ZM23.551 12.48L23.551 12.4367C23.6879 11.4298 24.5385 10.9806 25.291 10.5313C25.3109 10.5221 25.331 10.5133 25.3512 10.5049C25.3715 10.4965 25.3919 10.4886 25.4125 10.4811C25.4331 10.4736 25.4538 10.4666 25.4747 10.46C25.4956 10.4534 25.5166 10.4472 25.5378 10.4416C25.559 10.4359 25.5803 10.4306 25.6017 10.4259C25.623 10.4211 25.6446 10.4168 25.6661 10.4129C25.6877 10.4091 25.7093 10.4057 25.7311 10.4028C25.7528 10.3999 25.7745 10.3975 25.7964 10.3955C25.8182 10.3935 25.8401 10.392 25.862 10.3909C25.8839 10.3899 25.9057 10.3894 25.9277 10.3893C25.9496 10.3892 25.9715 10.3896 25.9934 10.3904C26.0153 10.3913 26.0372 10.3926 26.059 10.3945C26.0809 10.3962 26.1027 10.3985 26.1244 10.4012C26.1461 10.404 26.1678 10.4072 26.1894 10.4109C26.211 10.4145 26.2325 10.4187 26.254 10.4233C26.2754 10.4279 26.2967 10.433 26.3179 10.4385C26.3391 10.444 26.3602 10.45 26.3812 10.4564C26.4021 10.4629 26.4229 10.4697 26.4435 10.4771C26.4642 10.4844 26.4847 10.4922 26.505 10.5004C26.5253 10.5086 26.5455 10.5173 26.5654 10.5264C26.5853 10.5354 26.6051 10.5449 26.6247 10.5549C26.6442 10.5648 26.6635 10.5751 26.6826 10.5859C26.7016 10.5967 26.7205 10.6079 26.7391 10.6195C26.7577 10.631 26.7761 10.643 26.7942 10.6554C26.8123 10.6677 26.8301 10.6805 26.8476 10.6936C26.8651 10.7068 26.8824 10.7203 26.8994 10.7342C26.9163 10.748 26.933 10.7623 26.9493 10.7769C26.9656 10.7915 26.9817 10.8064 26.9974 10.8217C27.0131 10.837 27.0285 10.8526 27.0435 10.8686C27.0585 10.8845 27.0732 10.9008 27.0875 10.9174C27.1018 10.934 27.1158 10.9509 27.1294 10.9681C27.143 10.9853 27.1562 11.0027 27.169 11.0205C28.8535 12.7294 30.5388 14.4416 32.2249 16.1573C33.1303 17.0695 33.1029 17.7537 32.1291 18.6066C31.9102 18.7913 31.7049 18.9897 31.4712 19.1619C31.4529 19.1771 31.4343 19.1918 31.4154 19.2062C31.3965 19.2205 31.3772 19.2344 31.3576 19.2478C31.338 19.2613 31.3181 19.2743 31.2979 19.2867C31.2777 19.2992 31.2572 19.3112 31.2364 19.3228C31.2157 19.3343 31.1947 19.3454 31.1734 19.3559C31.152 19.3665 31.1305 19.3765 31.1088 19.386C31.087 19.3956 31.065 19.4047 31.0429 19.4131C31.0207 19.4217 30.9983 19.4297 30.9758 19.4371C30.9532 19.4446 30.9305 19.4515 30.9076 19.4579C30.8848 19.4643 30.8617 19.4702 30.8386 19.4755C30.8154 19.4809 30.7921 19.4857 30.7688 19.4899C30.7454 19.4941 30.7219 19.4978 30.6984 19.5009C30.6749 19.5041 30.6512 19.5067 30.6276 19.5087C30.6039 19.5107 30.5802 19.5122 30.5565 19.5131C30.5327 19.514 30.509 19.5143 30.4852 19.5142C30.4614 19.514 30.4377 19.5132 30.414 19.5119C30.3903 19.5106 30.3666 19.5088 30.343 19.5063C30.3193 19.5039 30.2957 19.501 30.2722 19.4974C30.2488 19.4939 30.2254 19.4898 30.2021 19.4852C30.1787 19.4806 30.1556 19.4754 30.1325 19.4697C30.1095 19.464 30.0865 19.4578 30.0637 19.451C30.041 19.4443 30.0184 19.437 29.996 19.4291C29.9735 19.4213 29.9513 19.4129 29.9293 19.404C29.9072 19.3951 29.8854 19.3858 29.8638 19.3759C29.8422 19.366 29.8208 19.3556 29.7997 19.3447C29.7787 19.3338 29.7578 19.3224 29.7372 19.3105C29.7166 19.2986 29.6963 19.2863 29.6764 19.2734C29.6564 19.2606 29.6367 19.2473 29.6173 19.2336C29.5979 19.2198 29.5789 19.2056 29.5602 19.191C29.5415 19.1764 29.5231 19.1613 29.5051 19.1458C29.4871 19.1303 29.4695 19.1144 29.4523 19.098C29.435 19.0817 29.4181 19.065 29.4016 19.0478C27.608 17.2337 25.8133 15.4207 24.0425 13.5746C23.9201 13.415 23.8074 13.2488 23.7045 13.0761C23.6015 12.9033 23.5089 12.7252 23.4267 12.5416C23.4693 12.5224 23.5103 12.5004 23.5499 12.4755L23.551 12.48Z"></path></g></g><defs><rect id="path_0" x="0" y="0" width="48" height="48" rx="0" ry="0"/><linearGradient id="linear_0" x1="-0.00032626640304311627%" y1="50%" x2="100.00032626640302%" y2="50%" gradientUnits="objectBoundingBox"><stop offset="0.0069" stop-color="#FF3831" stop-opacity="1" /><stop offset="1" stop-color="#FFA4C2" stop-opacity="1" /></linearGradient></defs></svg>