<svg xmlns="http://www.w3.org/2000/svg" xmlns:xlink="http://www.w3.org/1999/xlink" width="48" height="48" viewBox="0 0 48 48" fill="none"><g opacity="1"  transform="translate(0 0)"><mask id="bg-mask-0" fill="white"><use transform="translate(0 0)" xlink:href="#path_0"></use></mask><g mask="url(#bg-mask-0)" ><path id="路径 1" fill-rule="evenodd" fill="url(#linear_0)" opacity="1" d="M0 24C0 24.3928 0.00963633 24.7853 0.028909 25.1776C0.0481819 25.5699 0.0770677 25.9615 0.115567 26.3524C0.154065 26.7433 0.202132 27.133 0.259764 27.5215C0.317396 27.9101 0.384526 28.2969 0.461153 28.6822C0.537778 29.0674 0.623812 29.4505 0.71925 29.8315C0.814687 30.2125 0.919416 30.591 1.03343 30.9668C1.14745 31.3427 1.27062 31.7155 1.40294 32.0853C1.53526 32.4552 1.67658 32.8215 1.82689 33.1844C1.9772 33.5473 2.13632 33.9062 2.30426 34.2613C2.47219 34.6164 2.64874 34.9671 2.83389 35.3135C3.01904 35.6599 3.21258 36.0015 3.41451 36.3384C3.61644 36.6753 3.82651 37.0071 4.04473 37.3337C4.26295 37.6603 4.48904 37.9813 4.72303 38.2968C4.95698 38.6122 5.19858 38.9218 5.44777 39.2254C5.69691 39.529 5.95341 39.8264 6.21717 40.1174C6.48094 40.4085 6.75169 40.6928 7.02942 40.9706C7.30716 41.2483 7.59155 41.5191 7.88259 41.7828C8.17364 42.0466 8.47097 42.3031 8.77458 42.5522C9.07819 42.8014 9.38775 43.043 9.70322 43.277C10.0187 43.5109 10.3397 43.737 10.6663 43.9552C10.9929 44.1735 11.3246 44.3835 11.6615 44.5855C11.9984 44.7874 12.3401 44.981 12.6865 45.1661C13.0329 45.3513 13.3836 45.5278 13.7387 45.6957C14.0938 45.8637 14.4527 46.0228 14.8156 46.1731C15.1785 46.3234 15.5448 46.4647 15.9146 46.597C16.2845 46.7294 16.6573 46.8525 17.0332 46.9664C17.409 47.0803 17.7875 47.1853 18.1685 47.2809C18.5495 47.3761 18.9326 47.4623 19.3178 47.5387C19.7031 47.6152 20.0899 47.6827 20.4785 47.7403C20.867 47.798 21.2567 47.8458 21.6476 47.8842C22.0385 47.9231 22.4301 47.9517 22.8224 47.9709C23.2147 47.9902 23.6072 48 24 48C24.3928 48 24.7853 47.9902 25.1776 47.9709C25.5699 47.9517 25.9615 47.9231 26.3524 47.8842C26.7433 47.8458 27.133 47.798 27.5215 47.7403C27.9101 47.6827 28.2969 47.6152 28.6822 47.5387C29.0674 47.4623 29.4505 47.3761 29.8315 47.2809C30.2125 47.1853 30.591 47.0803 30.9668 46.9664C31.3427 46.8525 31.7155 46.7294 32.0853 46.597C32.4552 46.4647 32.8215 46.3234 33.1844 46.1731C33.5473 46.0228 33.9062 45.8637 34.2613 45.6957C34.6164 45.5278 34.9671 45.3513 35.3135 45.1661C35.6599 44.981 36.0015 44.7874 36.3384 44.5855C36.6753 44.3835 37.0071 44.1735 37.3337 43.9552C37.6603 43.737 37.9813 43.5109 38.2968 43.277C38.6122 43.043 38.9218 42.8014 39.2254 42.5522C39.529 42.3031 39.8264 42.0466 40.1174 41.7828C40.4085 41.5191 40.6928 41.2483 40.9706 40.9706C41.2483 40.6928 41.5191 40.4085 41.7828 40.1174C42.0466 39.8264 42.3031 39.529 42.5522 39.2254C42.8014 38.9218 43.043 38.6122 43.277 38.2968C43.5109 37.9813 43.737 37.6603 43.9552 37.3337C44.1735 37.0071 44.3835 36.6753 44.5855 36.3384C44.7874 36.0015 44.981 35.6599 45.1661 35.3135C45.3513 34.9671 45.5278 34.6164 45.6957 34.2613C45.8637 33.9062 46.0228 33.5473 46.1731 33.1844C46.3234 32.8215 46.4647 32.4552 46.597 32.0854C46.7294 31.7155 46.8525 31.3427 46.9664 30.9668C47.0803 30.591 47.1853 30.2125 47.2809 29.8315C47.3761 29.4505 47.4623 29.0674 47.5387 28.6822C47.6152 28.2969 47.6827 27.9101 47.7403 27.5215C47.798 27.133 47.8458 26.7433 47.8842 26.3524C47.9231 25.9615 47.9517 25.5699 47.9709 25.1776C47.9902 24.7853 48 24.3928 48 24C48 23.6072 47.9902 23.2147 47.9709 22.8224C47.9517 22.4301 47.9231 22.0385 47.8842 21.6476C47.8458 21.2567 47.798 20.867 47.7403 20.4785C47.6827 20.0899 47.6152 19.7031 47.5387 19.3178C47.4623 18.9326 47.3761 18.5495 47.2809 18.1685C47.1853 17.7875 47.0803 17.409 46.9664 17.0332C46.8525 16.6573 46.7294 16.2845 46.597 15.9146C46.4647 15.5448 46.3234 15.1785 46.1731 14.8156C46.0228 14.4527 45.8637 14.0938 45.6957 13.7387C45.5278 13.3836 45.3513 13.0329 45.1661 12.6865C44.981 12.3401 44.7874 11.9984 44.5855 11.6615C44.3835 11.3246 44.1735 10.9929 43.9552 10.6663C43.737 10.3397 43.5109 10.0187 43.277 9.70322C43.043 9.38775 42.8014 9.07819 42.5522 8.77458C42.3031 8.47097 42.0466 8.17364 41.7828 7.88259C41.5191 7.59155 41.2483 7.30716 40.9706 7.02942C40.6928 6.75169 40.4085 6.48094 40.1174 6.21717C39.8264 5.95341 39.529 5.69691 39.2254 5.44777C38.9218 5.19858 38.6122 4.95698 38.2968 4.72303C37.9813 4.48904 37.6603 4.26295 37.3337 4.04473C37.0071 3.82651 36.6753 3.61644 36.3384 3.41451C36.0015 3.21258 35.6599 3.01904 35.3135 2.83389C34.9671 2.64874 34.6164 2.47219 34.2613 2.30426C33.9062 2.13632 33.5473 1.9772 33.1844 1.82689C32.8215 1.67658 32.4552 1.53526 32.0854 1.40294C31.7155 1.27062 31.3427 1.14745 30.9668 1.03343C30.591 0.919416 30.2125 0.814687 29.8315 0.71925C29.4505 0.623812 29.0674 0.537778 28.6822 0.461153C28.2969 0.384526 27.9101 0.317396 27.5215 0.259764C27.133 0.202132 26.7433 0.154065 26.3524 0.115567C25.9615 0.0770677 25.5699 0.0481819 25.1776 0.028909C24.7853 0.00963633 24.3928 0 24 0C23.6072 0 23.2147 0.00963633 22.8224 0.028909C22.4301 0.0481819 22.0385 0.0770677 21.6476 0.115567C21.2567 0.154065 20.867 0.202132 20.4785 0.259764C20.0899 0.317396 19.7031 0.384526 19.3178 0.461153C18.9326 0.537778 18.5495 0.623812 18.1685 0.71925C17.7875 0.814687 17.409 0.919416 17.0332 1.03343C16.6573 1.14745 16.2845 1.27062 15.9146 1.40294C15.5448 1.53526 15.1785 1.67658 14.8156 1.82689C14.4527 1.9772 14.0938 2.13632 13.7387 2.30426C13.3836 2.47219 13.0329 2.64874 12.6865 2.83389C12.3401 3.01904 11.9984 3.21258 11.6615 3.41451C11.3246 3.61644 10.9929 3.82651 10.6663 4.04473C10.3397 4.26295 10.0187 4.48904 9.70322 4.72303C9.38775 4.95698 9.07819 5.19858 8.77458 5.44777C8.47097 5.69691 8.17364 5.95341 7.88259 6.21717C7.59155 6.48094 7.30716 6.75169 7.02942 7.02942C6.75169 7.30716 6.48094 7.59155 6.21717 7.88259C5.95341 8.17364 5.69691 8.47097 5.44777 8.77458C5.19858 9.07819 4.95698 9.38775 4.72303 9.70322C4.48904 10.0187 4.26295 10.3397 4.04473 10.6663C3.82651 10.9929 3.61644 11.3246 3.41451 11.6615C3.21258 11.9984 3.01904 12.3401 2.83389 12.6865C2.64874 13.0329 2.47219 13.3836 2.30426 13.7387C2.13632 14.0938 1.9772 14.4527 1.82689 14.8156C1.67658 15.1785 1.53526 15.5448 1.40294 15.9146C1.27062 16.2845 1.14745 16.6573 1.03343 17.0332C0.919416 17.409 0.814687 17.7875 0.71925 18.1685C0.623812 18.5495 0.537778 18.9326 0.461153 19.3178C0.384526 19.7031 0.317396 20.0899 0.259764 20.4785C0.202132 20.867 0.154065 21.2567 0.115567 21.6476C0.0770677 22.0385 0.0481819 22.4301 0.028909 22.8224C0.00963633 23.2147 0 23.6072 0 24Z"></path><path id="路径 2" fill-rule="evenodd" style="fill:#FFFFFF" opacity="1" d="M37.1444 22.4496C37.5524 22.1952 37.8644 22.0944 38.078 22.1472C38.294 22.2 38.3997 22.3752 38.3997 22.6752L38.3997 32.6112C38.3997 33.3792 38.3133 33.9912 38.1404 34.4496C38.1238 34.4994 38.1055 34.5485 38.0855 34.597C38.0653 34.6455 38.0436 34.6932 38.0202 34.7401C37.9967 34.7871 37.9716 34.8331 37.945 34.8783C37.9183 34.9235 37.89 34.9677 37.8602 35.0109C37.8304 35.0541 37.7991 35.0962 37.7664 35.1371C37.7336 35.1781 37.6994 35.2179 37.6638 35.2565C37.6282 35.295 37.5913 35.3323 37.5531 35.3683C37.5149 35.4042 37.4755 35.4388 37.4349 35.472C37.3968 35.5004 37.3579 35.5275 37.3181 35.5535C37.2784 35.5795 37.2379 35.6042 37.1966 35.6276C37.1553 35.6511 37.1133 35.6733 37.0707 35.6941C37.028 35.715 36.9847 35.7345 36.9409 35.7527C36.897 35.7709 36.8526 35.7878 36.8077 35.8032C36.7629 35.8186 36.7175 35.8327 36.6718 35.8453C36.626 35.8579 36.5799 35.8692 36.5334 35.879C36.487 35.8888 36.4402 35.8971 36.3933 35.904C35.9949 35.9688 35.5604 36 35.09 36L33.7437 36C33.0693 36 32.2557 35.9952 31.3077 35.9832C30.3573 35.9736 29.3013 35.9688 28.1349 35.9688L13.214 35.9688C12.4797 35.9688 11.8773 35.8656 11.4069 35.664C11.354 35.6429 11.3018 35.6203 11.2503 35.596C11.1987 35.5718 11.148 35.5462 11.098 35.519C11.0479 35.4917 10.9988 35.4631 10.9504 35.433C10.9021 35.4029 10.8548 35.3714 10.8083 35.3385C10.7619 35.3055 10.7164 35.2712 10.672 35.2357C10.6276 35.2001 10.5843 35.1632 10.5421 35.125C10.4998 35.0868 10.4587 35.0475 10.4188 35.0068C10.3789 34.9662 10.3403 34.9245 10.3029 34.8816C10.2697 34.8417 10.2377 34.8008 10.2069 34.759C10.1761 34.7173 10.1465 34.6747 10.1182 34.6312C10.0898 34.5877 10.0627 34.5435 10.0369 34.4985C10.0111 34.4535 9.98653 34.4078 9.96331 34.3613C9.94012 34.3149 9.91826 34.2679 9.89773 34.2202C9.87723 34.1725 9.85811 34.1243 9.84036 34.0755C9.82261 34.0268 9.80626 33.9776 9.79133 33.9278C9.77639 33.8782 9.7629 33.8281 9.75087 33.7776C9.69978 33.5662 9.66158 33.3525 9.63626 33.1365C9.61098 32.9206 9.59878 32.7038 9.59965 32.4864L9.59965 22.9944C9.59965 22.5672 9.70287 22.296 9.90687 22.1784C10.1109 22.0608 10.3653 22.1088 10.6724 22.3224C10.754 22.3872 10.9364 22.5144 11.2244 22.7064C11.51 22.8984 11.8413 23.1144 12.218 23.3616C13.0195 23.88 13.8219 24.3967 14.6253 24.912C14.9924 25.1448 15.3093 25.3536 15.5733 25.536C15.8397 25.716 16.0124 25.8264 16.094 25.8696C16.3604 26.04 16.4829 26.2272 16.4637 26.4288C16.4589 26.4781 16.4514 26.527 16.4412 26.5755C16.4309 26.6239 16.418 26.6717 16.4025 26.7188C16.387 26.7658 16.3688 26.8118 16.3482 26.8568C16.3275 26.9018 16.3044 26.9456 16.2789 26.988C16.1973 27.1584 16.0749 27.4248 15.9117 27.7872C15.7484 28.1472 15.5757 28.5264 15.3909 28.9224L14.87 30.0408C14.7069 30.3912 14.582 30.6408 14.5029 30.792C14.3997 30.96 14.3637 31.104 14.3949 31.224C14.3978 31.2372 14.4014 31.2503 14.4055 31.2632C14.4095 31.2761 14.4141 31.2889 14.4193 31.3014C14.4244 31.3139 14.4301 31.3262 14.4362 31.3383C14.4424 31.3503 14.449 31.3621 14.4561 31.3737C14.4633 31.3852 14.4709 31.3964 14.479 31.4073C14.487 31.4182 14.4955 31.4287 14.5045 31.4389C14.5134 31.449 14.5227 31.4588 14.5325 31.4683C14.5422 31.4777 14.5524 31.4866 14.5629 31.4952C14.6444 31.5576 14.7477 31.5744 14.87 31.5432C14.8868 31.5381 14.9033 31.5323 14.9196 31.5259C14.9359 31.5194 14.9519 31.5123 14.9676 31.5045C14.9833 31.4968 14.9987 31.4884 15.0138 31.4795C15.0288 31.4705 15.0434 31.4609 15.0577 31.4507C15.0719 31.4405 15.0858 31.4297 15.0991 31.4184C15.1125 31.4071 15.1254 31.3953 15.1378 31.383C15.1503 31.3706 15.1622 31.3578 15.1736 31.3445C15.185 31.3312 15.1958 31.3174 15.206 31.3032C15.2684 31.2384 15.4269 31.0512 15.6813 30.744C15.9357 30.432 16.2164 30.0984 16.5237 29.736C16.982 29.1932 17.4515 28.6605 17.9324 28.1376C18.0357 28.032 18.194 27.9096 18.4077 27.7704C18.4195 27.762 18.4316 27.754 18.4439 27.7464C18.4563 27.7389 18.4689 27.7317 18.4818 27.725C18.4946 27.7183 18.5077 27.7121 18.521 27.7062C18.5342 27.7004 18.5477 27.6951 18.5614 27.6901C18.575 27.6852 18.5888 27.6808 18.6028 27.6769C18.6167 27.6729 18.6307 27.6694 18.6449 27.6664C18.6591 27.6634 18.6734 27.6608 18.6877 27.6588C18.7021 27.6568 18.7165 27.6553 18.731 27.6542C18.7454 27.6532 18.7599 27.6526 18.7744 27.6525C18.7889 27.6525 18.8034 27.6529 18.8179 27.6538C18.8323 27.6548 18.8467 27.6562 18.8611 27.6581C18.8755 27.66 18.8898 27.6623 18.904 27.6652C18.9182 27.6681 18.9323 27.6715 18.9463 27.6753C18.9603 27.6791 18.9741 27.6834 18.9878 27.6882C19.0015 27.693 19.015 27.6982 19.0283 27.704C19.0416 27.7096 19.0548 27.7158 19.0677 27.7224C19.6004 28.0897 20.1364 28.452 20.6757 28.8096C21.0333 29.0448 21.3909 29.2824 21.7484 29.5296C22.106 29.7744 22.406 29.9712 22.6509 30.12C22.8957 30.288 23.1549 30.396 23.4333 30.4392C23.7093 30.4824 23.9684 30.492 24.2133 30.4704C24.458 30.4512 24.6837 30.4032 24.8877 30.3264C25.0481 30.2728 25.2017 30.204 25.3484 30.12C25.4684 30.0552 25.706 29.9184 26.0517 29.7048C26.3997 29.4912 26.7764 29.2512 27.1869 28.9848C27.5949 28.7208 27.9789 28.4688 28.334 28.2336C28.694 28.0008 28.9437 27.84 29.0853 27.7536C29.3109 27.6264 29.5053 27.5904 29.6684 27.6432C29.8317 27.696 30.0044 27.8088 30.1893 27.9792C30.2709 28.0416 30.434 28.2336 30.6789 28.5552C30.9237 28.8744 31.1949 29.22 31.49 29.592C31.7877 29.9664 32.0637 30.3216 32.318 30.6624C32.5724 31.0032 32.75 31.2384 32.8533 31.3656C32.9757 31.5144 33.1053 31.596 33.2373 31.6056C33.2521 31.6073 33.267 31.6083 33.282 31.6086C33.2969 31.6088 33.3118 31.6083 33.3268 31.6071C33.3417 31.6058 33.3565 31.6039 33.3712 31.6012C33.3859 31.5986 33.4004 31.5952 33.4148 31.5911C33.4292 31.587 33.4433 31.5821 33.4573 31.5766C33.4712 31.5712 33.4848 31.565 33.4981 31.5581C33.5113 31.5513 33.5243 31.5438 33.5368 31.5357C33.5494 31.5276 33.5615 31.5189 33.5733 31.5096C33.5852 31.4994 33.5967 31.4888 33.6078 31.4777C33.6188 31.4666 33.6293 31.455 33.6394 31.4429C33.6495 31.4309 33.659 31.4184 33.668 31.4056C33.677 31.3927 33.6854 31.3795 33.6932 31.366C33.7011 31.3524 33.7084 31.3385 33.715 31.3243C33.7217 31.3101 33.7277 31.2957 33.7332 31.281C33.7386 31.2662 33.7434 31.2513 33.7476 31.2362C33.7517 31.2211 33.7552 31.2058 33.758 31.1904C33.7893 31.0512 33.7533 30.8976 33.65 30.7272C33.5615 30.522 33.4799 30.3139 33.4053 30.1032C33.2853 29.7744 33.146 29.4072 32.9924 28.9992C32.7353 28.3189 32.4545 27.6485 32.15 26.988C32.1159 26.9291 32.0847 26.8686 32.0566 26.8066C32.0284 26.7446 32.0033 26.6813 31.9814 26.6169C31.9594 26.5524 31.9407 26.487 31.9251 26.4208C31.9096 26.3544 31.8974 26.2875 31.8884 26.22C31.8789 26.028 31.9844 25.86 32.21 25.7088L32.978 25.1976C33.4269 24.9 33.926 24.564 34.4781 24.1896C35.03 23.82 35.5653 23.4696 36.086 23.136C36.6069 22.8072 36.9597 22.5768 37.142 22.4496L37.1444 22.4496ZM23.9997 27.9456C23.8964 27.9696 23.7237 27.9144 23.4789 27.7872C23.1966 27.6379 22.9206 27.4779 22.6509 27.3072C21.5592 26.6837 20.4768 26.0445 19.4037 25.3896C18.4653 24.8376 17.4597 24.2352 16.3869 23.5848C15.314 22.9368 14.318 22.332 13.3989 21.78L13.3989 16.0272L13.4613 16.0272L13.4613 15.9936C13.4613 15.4416 13.562 14.9232 13.766 14.4456C13.97 13.9656 14.246 13.5456 14.594 13.1832C14.942 12.8208 15.3453 12.5328 15.8037 12.3192C16.2644 12.1056 16.7589 12 17.2917 12L30.7077 12C31.2404 12 31.7397 12.1056 32.21 12.3192C32.6804 12.5328 33.0884 12.8208 33.434 13.1832C33.7844 13.5432 34.058 13.9656 34.2644 14.4456C34.4684 14.9256 34.5693 15.4416 34.5693 15.9936L34.5693 16.0272L34.6317 16.0272L34.6317 21.78C33.6909 22.332 32.6877 22.9344 31.6124 23.5848C29.522 24.8324 27.434 26.0844 25.3484 27.3408C25.112 27.4755 24.872 27.6035 24.6284 27.7248C24.3309 27.8712 24.1244 27.948 23.9997 27.948L23.9997 27.9456ZM19.2213 18.0096L28.8093 18.0096L28.8093 15.9936L19.2237 15.9936L19.2237 18.0096L19.2213 18.0096ZM19.2213 22.0032L28.8093 22.0032L28.8093 19.9872L19.2237 19.9872L19.2237 22.0032L19.2213 22.0032Z"></path></g></g><defs><rect id="path_0" x="0" y="0" width="48" height="48" rx="0" ry="0"/><linearGradient id="linear_0" x1="0%" y1="50%" x2="100%" y2="50%" gradientUnits="objectBoundingBox"><stop offset="0" stop-color="#6C6CEA" stop-opacity="1" /><stop offset="1" stop-color="#8368FC" stop-opacity="1" /></linearGradient></defs></svg>