<svg xmlns="http://www.w3.org/2000/svg" xmlns:xlink="http://www.w3.org/1999/xlink" width="48" height="48" viewBox="0 0 48 48" fill="none"><g opacity="1"  transform="translate(0 0)"><mask id="bg-mask-0" fill="white"><use transform="translate(0 0)" xlink:href="#path_0"></use></mask><g mask="url(#bg-mask-0)" ><path id="路径 1" fill-rule="evenodd" fill="url(#linear_0)" opacity="1" d="M30.7951 13.149C30.7621 13.149 30.7321 13.161 30.7051 13.167C30.7441 13.161 30.7861 13.161 30.8281 13.155C30.8161 13.155 30.8101 13.149 30.7951 13.149Z"></path><path id="路径 2" fill-rule="evenodd" fill="url(#linear_1)" opacity="1" d="M31.2327 13.116C31.0947 13.116 30.9598 13.14 30.8247 13.158C31.0858 13.176 31.2927 13.386 31.2927 13.65L31.2927 16.65L33.4198 16.65C33.6958 16.65 33.9178 16.875 33.9178 17.148C33.9178 17.424 33.6958 17.646 33.4198 17.646L30.7917 17.646C30.5187 17.646 30.2967 17.424 30.2967 17.148L30.2967 13.647C30.2967 13.407 30.4737 13.215 30.7017 13.17C28.9468 13.431 27.5938 14.928 27.5938 16.755C27.5938 18.762 29.2227 20.391 31.2327 20.391C33.2427 20.391 34.8717 18.762 34.8717 16.755C34.8747 14.745 33.2427 13.116 31.2327 13.116Z"></path><path id="路径 3" fill-rule="evenodd" fill="url(#linear_2)" opacity="1" d="M24 0C10.746 0 0 10.746 0 24C0 37.254 10.746 48 24 48C37.254 48 48 37.254 48 24C48 10.746 37.254 0 24 0ZM24.054 21.228C24.342 20.937 24.627 20.652 24.918 20.373C25.206 20.094 25.41 19.902 25.53 19.797C25.743 19.581 25.98 19.476 26.244 19.476C26.508 19.476 26.724 19.596 26.892 19.833C27.204 20.232 27.081 20.697 26.532 21.228C26.391 21.363 26.175 21.594 25.884 21.927C25.596 22.257 25.311 22.584 25.023 22.902C24.687 23.301 24.315 23.712 23.91 24.135L23.91 24.891L26.244 24.891C26.58 24.891 26.823 24.975 26.982 25.152C27.138 25.323 27.213 25.515 27.213 25.728C27.213 25.965 27.144 26.172 26.997 26.343C26.853 26.52 26.616 26.592 26.28 26.562L23.943 26.604L23.907 27.957L26.205 27.957C26.88 27.957 27.213 28.236 27.213 28.791C27.24 29.061 27.174 29.253 27.018 29.373C26.862 29.493 26.664 29.55 26.424 29.55L23.91 29.55L23.91 30.348C23.91 30.588 23.82 30.819 23.64 31.044C23.46 31.269 23.226 31.368 22.941 31.347C22.653 31.347 22.413 31.275 22.221 31.125C22.029 30.978 21.921 30.72 21.897 30.348L21.897 29.55L19.452 29.55C19.212 29.55 19.014 29.478 18.858 29.334C18.702 29.187 18.636 29.007 18.66 28.794C18.66 28.554 18.738 28.362 18.894 28.221C19.05 28.071 19.236 27.996 19.452 27.996L21.894 27.996L21.894 26.604L19.452 26.604C19.209 26.604 19.017 26.526 18.876 26.364C18.735 26.205 18.66 26.019 18.66 25.809C18.66 25.596 18.738 25.395 18.894 25.212C19.05 25.023 19.236 24.933 19.452 24.933L21.894 24.933L21.93 24.096C21.498 23.616 21.105 23.166 20.745 22.74C20.433 22.368 20.145 22.023 19.881 21.705L19.344 21.15C19.224 20.991 19.116 20.772 19.02 20.493C18.924 20.214 18.972 19.929 19.164 19.635C19.38 19.371 19.644 19.296 19.956 19.416C20.268 19.536 20.52 19.686 20.709 19.875C20.805 20.007 20.973 20.205 21.21 20.472L22.935 22.383C23.346 21.957 23.718 21.573 24.054 21.228ZM35.1 32.043C35.1 34.506 33.096 36.51 30.63 36.51L15.972 36.51C13.506 36.51 11.502 34.506 11.502 32.043L11.502 17.379C11.502 14.913 13.506 12.909 15.972 12.909L23.217 12.909L23.217 14.949L15.972 14.949C14.631 14.949 13.542 16.038 13.542 17.379L13.542 32.04C13.542 33.375 14.631 34.467 15.972 34.467L30.633 34.467C31.971 34.467 33.063 33.378 33.063 32.04L33.063 24.75L35.103 24.75L35.103 32.043L35.1 32.043ZM31.233 22.017C28.326 22.017 25.968 19.659 25.968 16.755C25.968 13.851 28.326 11.49 31.233 11.49C34.14 11.49 36.498 13.848 36.498 16.755C36.498 19.662 34.14 22.017 31.233 22.017Z"></path></g></g><defs><rect id="path_0" x="0" y="0" width="48" height="48" rx="0" ry="0"/><linearGradient id="linear_0" x1="-0.01905487804977447%" y1="50%" x2="100.01905487804979%" y2="50%" gradientUnits="objectBoundingBox"><stop offset="0" stop-color="#598BFC" stop-opacity="1" /><stop offset="1" stop-color="#178BFF" stop-opacity="1" /></linearGradient><linearGradient id="linear_1" x1="-0.002859223487211056%" y1="50%" x2="100.00285922348722%" y2="50%" gradientUnits="objectBoundingBox"><stop offset="0" stop-color="#598BFC" stop-opacity="1" /><stop offset="1" stop-color="#178BFF" stop-opacity="1" /></linearGradient><linearGradient id="linear_2" x1="0%" y1="50%" x2="100%" y2="50%" gradientUnits="objectBoundingBox"><stop offset="0" stop-color="#598BFC" stop-opacity="1" /><stop offset="1" stop-color="#178BFF" stop-opacity="1" /></linearGradient></defs></svg>