<svg xmlns="http://www.w3.org/2000/svg" xmlns:xlink="http://www.w3.org/1999/xlink" width="48" height="48" viewBox="0 0 48 48" fill="none"><g opacity="1"  transform="translate(0 0)"><mask id="bg-mask-0" fill="white"><use transform="translate(0 0)" xlink:href="#path_0"></use></mask><g mask="url(#bg-mask-0)" ><path id="路径 1" fill-rule="evenodd" fill="url(#linear_0)" opacity="1" d="M17.664 24.36C17.328 24.024 17.184 23.64 17.184 23.184C17.184 22.728 17.352 22.344 17.664 22.032C18 21.72 18.384 21.552 18.84 21.552L28.704 21.552C29.16 21.552 29.544 21.72 29.88 22.032C30.216 22.344 30.36 22.728 30.36 23.184C30.36 23.64 30.192 24.024 29.88 24.36C29.544 24.696 29.16 24.84 28.704 24.84L18.84 24.84C18.384 24.84 17.976 24.696 17.664 24.36ZM36 31.704L31.776 28.992C31.32 28.704 30.96 28.896 30.96 29.4L30.96 35.04C30.96 35.568 31.32 35.736 31.776 35.448L36 32.736C36.432 32.472 36.432 31.992 36 31.704ZM48 24C48 37.248 37.248 48 24 48C10.752 48 0 37.248 0 24C0 10.752 10.752 0 24 0C37.248 0 48 10.752 48 24ZM28.728 14.64C28.728 15.144 28.92 15.648 29.304 16.032C29.688 16.416 30.192 16.608 30.696 16.608L33.672 16.608L33.672 12.696C33.672 12.432 33.576 12.192 33.384 12C33.192 11.808 32.928 11.712 32.688 11.712L28.728 11.712L28.728 14.64ZM26.616 36.384C26.184 35.784 25.872 35.136 25.632 34.416C25.392 33.696 25.296 32.952 25.296 32.16L25.296 31.776C25.296 31.68 25.296 31.536 25.32 31.416L18.84 31.416C18.384 31.416 18 31.248 17.664 30.936C17.328 30.624 17.184 30.24 17.184 29.784C17.184 29.328 17.352 28.944 17.664 28.608C18 28.272 18.384 28.128 18.84 28.128L26.496 28.128C27.168 27.096 28.056 26.28 29.136 25.656C30.24 25.032 31.44 24.744 32.76 24.744C32.904 24.744 33.048 24.744 33.216 24.768C33.384 24.768 33.528 24.792 33.696 24.816L33.696 18.288L29.856 18.288C29.376 18.288 28.944 18.168 28.584 17.952C28.224 17.736 27.96 17.472 27.72 17.136C27.504 16.824 27.336 16.464 27.24 16.08C27.144 15.696 27.072 15.336 27.072 15L27.072 11.712L14.88 11.712C14.616 11.712 14.376 11.808 14.184 12C13.992 12.192 13.896 12.456 13.896 12.696L13.896 35.4C13.896 35.664 13.992 35.904 14.184 36.096C14.376 36.288 14.64 36.384 14.88 36.384L26.616 36.384ZM39.72 32.232C39.72 28.608 36.672 25.656 32.928 25.656C29.16 25.656 26.136 28.608 26.136 32.232C26.136 35.856 29.184 38.808 32.928 38.808C36.672 38.808 39.72 35.856 39.72 32.232Z"></path></g></g><defs><rect id="path_0" x="0" y="0" width="48" height="48" rx="0" ry="0"/><linearGradient id="linear_0" x1="0%" y1="50%" x2="100%" y2="50%" gradientUnits="objectBoundingBox"><stop offset="0" stop-color="#FF6D00" stop-opacity="1" /><stop offset="1" stop-color="#F7AD59" stop-opacity="1" /></linearGradient></defs></svg>