<svg xmlns="http://www.w3.org/2000/svg" xmlns:xlink="http://www.w3.org/1999/xlink" width="80" height="80" viewBox="0 0 80 80" fill="none"><g opacity="1"  transform="translate(0 0)"><mask id="bg-mask-0" fill="white"><use transform="translate(0 0)" xlink:href="#path_0"></use></mask><g mask="url(#bg-mask-0)" ><g opacity="1"  transform="translate(6.669921875 5.6700439453125)"><g filter="url(#filter_1)"></g><path id="路径 1" fill-rule="evenodd" fill="url(#linear_0)" opacity="1" d="M18.32 0C8.2 0 0 8.2 0 18.32C0 28.44 8.2 36.64 18.32 36.64C28.44 36.64 36.64 28.44 36.64 18.32C36.64 8.2 28.44 0 18.32 0Z"></path><path id="路径 2" fill-rule="evenodd" style="fill:#63B5FF" opacity="0.4" d="M37.4721 8.95264C21.7221 8.95264 8.95215 21.7226 8.95215 37.4726C8.95215 53.2326 21.7221 66.0026 37.4721 66.0026C53.2321 66.0026 66.0021 53.2326 66.0021 37.4726C66.0021 21.7226 53.2321 8.95264 37.4721 8.95264Z"></path><path id="路径 2" style="fill:url(#linear_1); opacity:100" d="M37.4721 9.57764C22.0662 9.57764 9.57715 22.0667 9.57715 37.4726C9.57715 52.8786 22.0662 65.3776 37.4721 65.3776C52.8836 65.3776 65.3771 52.8841 65.3771 37.4726C65.3771 22.0611 52.8836 9.57764 37.4721 9.57764ZM37.4721 8.32764C53.574 8.32764 66.6271 21.3708 66.6271 37.4726C66.6271 53.5745 53.574 66.6276 37.4721 66.6276C21.3758 66.6276 8.32715 53.569 8.32715 37.4726C8.32715 21.3763 21.3758 8.32764 37.4721 8.32764Z"></path><g opacity="1" filter="url(#filter_4)" transform="translate(8.4677734375 8.3280029296875)"><g filter="url(#filter_5)"></g><path id="路径 3" fill-rule="evenodd" fill="url(#linear_2)" opacity="1" d="M9.85381 28.8535C19.9726 28.8535 28.1755 20.6505 28.1755 10.5318C28.1755 6.61179 26.9444 2.97935 24.8479 0C11.6531 1.88572 1.30817 12.6082 0 25.9807C2.84527 27.7993 6.22645 28.8535 9.85381 28.8535Z"></path></g></g><g opacity="1"  transform="translate(20.830078125 19.830078125)"><g opacity="1"  transform="translate(0.0009765625 0)"></g><g opacity="1"  transform="translate(4.6689453125 4.666259765625)"><g filter="url(#filter_9)"></g><path  id="路径 4" style="fill:#FFFFFF; opacity:1;" d="M38.997 18.6702C38.997 29.8964 29.8964 38.997 18.6702 38.997C7.44396 38.997 -1.66668 29.8964 -1.66668 18.6702C-1.66668 7.43844 7.43844 -1.66668 18.6702 -1.66668C29.9019 -1.66668 38.997 7.43844 38.997 18.6702ZM35.6636 18.6702C35.6636 9.2794 28.0609 1.66668 18.6702 1.66668C9.2794 1.66668 1.66668 9.2794 1.66668 18.6702C1.66668 28.0554 9.28492 35.6636 18.6702 35.6636C28.0554 35.6636 35.6636 28.0554 35.6636 18.6702ZM13.366 26.7789L13.3699 26.7753L18.9972 21.5499L13.4155 16.7656C12.6394 16.1004 12.6394 14.8999 13.4155 14.2347L20.4155 8.23464Q20.4777 8.18136 20.5448 8.13442Q20.6119 8.08749 20.6832 8.04735Q20.7546 8.00722 20.8296 7.97427Q20.9045 7.94133 20.9824 7.91589Q21.0602 7.89045 21.1401 7.87276Q21.2201 7.85507 21.3014 7.8453Q21.3827 7.83554 21.4645 7.83378Q21.5464 7.83203 21.628 7.83831Q21.7097 7.84459 21.7903 7.85884Q21.8709 7.87309 21.9498 7.89518Q22.0286 7.91727 22.1049 7.94697Q22.1812 7.97668 22.2542 8.01372Q22.3272 8.05077 22.3963 8.09479Q22.4653 8.13881 22.5297 8.18939Q22.5941 8.23997 22.6532 8.29661Q22.7123 8.35325 22.7656 8.41542Q22.8189 8.47759 22.8658 8.54468Q22.9128 8.61177 22.9529 8.68314Q22.9931 8.75451 23.026 8.82946Q23.0589 8.90442 23.0844 8.98225Q23.1098 9.06007 23.1275 9.14002Q23.1452 9.21996 23.155 9.30126Q23.1647 9.38255 23.1665 9.46441Q23.1682 9.54627 23.162 9.62791Q23.1557 9.70955 23.1414 9.79018Q23.1272 9.87081 23.1051 9.94965Q23.083 10.0285 23.0533 10.1048Q23.0236 10.1811 22.9865 10.2541Q22.9495 10.3271 22.9055 10.3962Q22.8615 10.4652 22.8109 10.5296Q22.7603 10.594 22.7037 10.6531Q22.647 10.7122 22.5849 10.7655L17.0611 15.5001L22.5849 20.2347C23.3407 20.8826 23.3637 22.0442 22.6343 22.7215L15.6373 29.2187L15.6342 29.2216Q15.5209 29.3268 15.3901 29.4094Q15.2593 29.492 15.1156 29.5491Q14.9719 29.6062 14.8201 29.6359Q14.6683 29.6656 14.5136 29.6669L14.5001 29.6669L14.4867 29.6669Q14.3164 29.6655 14.15 29.6297Q13.9835 29.594 13.8278 29.5253Q13.672 29.4566 13.5333 29.3579Q13.3946 29.2591 13.2788 29.1343C13.0024 28.8369 12.8334 28.4383 12.8334 28.0002C12.8334 27.5178 13.0384 27.0833 13.366 26.7789Z"></path></g></g></g></g><defs><rect id="path_0" x="0" y="0" width="80" height="80" rx="0" ry="0"/><filter id="filter_1" x="0" y="0" width="79.33333333333334" height="84.33333333333334" filterUnits="userSpaceOnUse" color-interpolation-filters="sRGB"><feFlood flood-opacity="0" result="feFloodId"/>
        <feColorMatrix in="SourceAlpha" type="matrix" values="0 0 0 0 0 0 0 0 0 0 0 0 0 0 0 0 0 0 127 0" result="hardAlpha"/>
        
        <feOffset dx="0" dy="5.000000000000001"/>
        <feGaussianBlur stdDeviation="3.333333333333334"/>
         <feComposite in2="hardAlpha" operator="out"/>
        <feColorMatrix type="matrix" values="0 0 0 0 0.2196078431372549 0 0 0 0 0.3764705882352941 0 0 0 0 0.9568627450980393 0 0 0 0.1 0"/>
        <feBlend mode="normal" in2="BackgroundImageFix" result="dropShadow_1"/>
        <feBlend mode="normal" in="SourceGraphic" in2="dropShadow_2" result="shape"/></filter><linearGradient id="linear_0" x1="46.59059707514584%" y1="47.72727272727273%" x2="84.09402924854163%" y2="84.0909090909091%" gradientUnits="objectBoundingBox"><stop offset="0" stop-color="#4A99FF" stop-opacity="1" /><stop offset="1" stop-color="#408DFF" stop-opacity="0" /></linearGradient><linearGradient id="linear_1" x1="20.00190539274948%" y1="6.934306569343065%" x2="83.56929634620892%" y2="87.22627737226277%" gradientUnits="objectBoundingBox"><stop offset="0" stop-color="#EDF5FF" stop-opacity="0.72" /><stop offset="1" stop-color="#298CFF" stop-opacity="0.12" /></linearGradient><filter id="filter_4" x="-4.166666666666668" y="-4.166666666666668" width="36.5088218053182" height="37.186806996663414" filterUnits="userSpaceOnUse" color-interpolation-filters="sRGB"><feFlood flood-opacity="0" result="BackgroundImageFix"/>
          <feBlend mode="normal" in="SourceGraphic" in2="BackgroundImageFix" result="shape"/>
          <feGaussianBlur stdDeviation="2.083333333333334" result="effect1_foregroundBlur" /></filter><filter id="filter_5" x="0" y="0" width="28.175488471984863" height="28.853473663330078" filterUnits="userSpaceOnUse" color-interpolation-filters="sRGB"><feFlood flood-opacity="0" result="feFloodId"/>
        <feColorMatrix in="SourceAlpha" type="matrix" values="0 0 0 0 0 0 0 0 0 0 0 0 0 0 0 0 0 0 127 0" result="hardAlpha"/>
        
        <feOffset dx="null" dy="null"/>
        
         <feComposite in2="hardAlpha" operator="out"/>
        <feColorMatrix type="matrix" values="0 0 0 0 0 0 0 0 0 0 0 0 0 0 0 0 0 0 0 0"/>
        <feBlend mode="normal" in2="BackgroundImageFix" result="dropShadow_1"/>
        <feBlend mode="normal" in="SourceGraphic" in2="dropShadow_2" result="shape"/></filter><linearGradient id="linear_2" x1="27.583282845103135%" y1="30.30635394357823%" x2="86.69871409824256%" y2="76.48746471474504%" gradientUnits="objectBoundingBox"><stop offset="0" stop-color="#71B3FF" stop-opacity="1" /><stop offset="0.526677" stop-color="#71B3FF" stop-opacity="1" /><stop offset="1" stop-color="#B0D3FC" stop-opacity="1" /></linearGradient><filter id="filter_9" x="0" y="0" width="43.99967447916667" height="47.3330078125" filterUnits="userSpaceOnUse" color-interpolation-filters="sRGB"><feFlood flood-opacity="0" result="feFloodId"/>
        <feColorMatrix in="SourceAlpha" type="matrix" values="0 0 0 0 0 0 0 0 0 0 0 0 0 0 0 0 0 0 127 0" result="hardAlpha"/>
        
        <feOffset dx="0" dy="3.333333333333334"/>
        <feGaussianBlur stdDeviation="1.666666666666667"/>
         <feComposite in2="hardAlpha" operator="out"/>
        <feColorMatrix type="matrix" values="0 0 0 0 0.2196078431372549 0 0 0 0 0.3764705882352941 0 0 0 0 0.9568627450980393 0 0 0 0.25 0"/>
        <feBlend mode="normal" in2="BackgroundImageFix" result="dropShadow_1"/>
        <feBlend mode="normal" in="SourceGraphic" in2="dropShadow_2" result="shape"/></filter></defs></svg>