<svg xmlns="http://www.w3.org/2000/svg" xmlns:xlink="http://www.w3.org/1999/xlink" width="24" height="24" viewBox="0 0 24 24" fill="none"><g opacity="1"  transform="translate(0 0)"><mask id="bg-mask-0" fill="white"><use transform="translate(0 0)" xlink:href="#path_0"></use></mask><g mask="url(#bg-mask-0)" ><path id="路径 1" fill-rule="evenodd" style="fill:#FF5733" opacity="1" d="M11.9993 2.5L8.9428 8.7388L2 9.74555L7.02945 14.6625L5.8272 21.5L11.9993 18.2096L18.1727 21.5L16.9793 14.6625L22 9.74555L15.0956 8.7388L11.9993 2.5Z"></path><path  id="路径 1" style="fill:#FF5733; opacity:1;" d="M13.1967 3.08661L10.1402 9.32541C9.94642 9.72085 9.56993 9.99514 9.13414 10.0583L2.19134 11.0651L2 9.74555L2.93209 8.79214L7.96154 13.7091C8.27625 14.0168 8.41886 14.46 8.34264 14.8935L7.14039 21.7309L5.8272 21.5L5.19995 20.3234L11.3721 17.033C11.7641 16.824 12.2344 16.824 12.6264 17.033L18.7998 20.3234L18.1727 21.5L16.8592 21.7293L15.6658 14.8918C15.5903 14.4592 15.7327 14.0172 16.0464 13.71L21.0671 8.79295L22 9.74555L21.8076 11.0649L14.9033 10.0582C14.4703 9.99505 14.0958 9.72349 13.9013 9.33155L10.805 3.09275L11.9993 2.5L13.1967 3.08661ZM10.8019 1.91339C11.2883 0.920604 12.7021 0.916972 13.1936 1.90725L16.29 8.14605L15.0956 8.7388L15.288 7.41942L22.1924 8.42617C23.2842 8.58537 23.7212 9.92613 22.9329 10.6981L17.9122 15.6151L16.9793 14.6625L18.2928 14.4333L19.4862 21.2707C19.6771 22.3646 18.5255 23.1989 17.5456 22.6766L11.3722 19.3862L11.9993 18.2096L12.6265 19.3862L6.45444 22.6766C5.47383 23.1994 4.32157 22.3636 4.51401 21.2691L5.71626 14.4316L7.02945 14.6625L6.09736 15.616L1.06791 10.699C0.278213 9.92692 0.715705 8.5845 1.80866 8.42602L8.75146 7.41927L8.9428 8.7388L7.74544 8.15219L10.8019 1.91339Z"></path></g></g><defs><rect id="path_0" x="0" y="0" width="24" height="24" rx="0" ry="0"/></defs></svg>