<svg xmlns="http://www.w3.org/2000/svg" xmlns:xlink="http://www.w3.org/1999/xlink" width="16" height="16" viewBox="0 0 16 16" fill="none"><g opacity="1"  transform="translate(0 0)"><g opacity="1"  transform="translate(3.75 2.7498779296875)"><path id="路径" fill-rule="evenodd" fill="url(#linear_0)" opacity="1" d="M7.02422 3.38522C6.6405 2.91063 6.67365 4.4035 6.22535 4.17579C5.77707 3.94807 5.90793 0.825495 3.18821 0.0246392C2.10106 -0.295365 3.61907 2.5835 1.96508 3.91235C0.310794 5.24093 -2.02921 8.12836 3.29649 10.5001C3.29649 10.5001 0.537924 7.34292 4.09507 5.4935C4.91107 5.06921 3.82877 6.54749 5.16021 7.6015C6.49163 8.65578 5.16021 10.5001 5.16021 10.5001C5.16021 10.5001 11.2105 8.56577 7.0242 3.38522L7.02422 3.38522Z"></path></g></g><defs><linearGradient id="linear_0" x1="-0.000273185144848155%" y1="0%" x2="-0.000273185144862163%" y2="100%" gradientUnits="objectBoundingBox"><stop offset="0" stop-color="#FCF2DE" stop-opacity="1" /><stop offset="1" stop-color="#FFFFFF" stop-opacity="1" /></linearGradient></defs></svg>