<svg xmlns="http://www.w3.org/2000/svg" xmlns:xlink="http://www.w3.org/1999/xlink" width="48" height="48" viewBox="0 0 48 48" fill="none"><g opacity="1"  transform="translate(0 0)"><path id="icon-bg" fill-rule="evenodd" style="fill:#000000" opacity="0.6" d="M24 48L24 48C37.25 48 48 37.25 48 24L48 24C48 10.75 37.25 0 24 0L24 0C10.75 0 0 10.75 0 24L0 24C0 37.25 10.75 48 24 48Z"></path><g opacity="1"  transform="translate(12 12)"><mask id="bg-mask-0" fill="white"><use transform="translate(0 0)" xlink:href="#path_0"></use></mask><g mask="url(#bg-mask-0)" ><path id="路径 1" fill-rule="evenodd" style="fill:#FFFFFF" opacity="1" d="M22.6206 0.111328L1.37937 0.111328C0.679125 0.111328 0.111328 0.678773 0.111328 1.37972L0.111328 22.6203C0.111328 23.3212 0.679125 23.8887 1.37937 23.8887L22.6207 23.8887C23.3209 23.8887 23.8887 23.3212 23.8887 22.6203L23.8887 1.37972C23.8887 0.678773 23.3209 0.111328 22.6206 0.111328ZM3.82655 5.31262L14.2291 5.31262C14.6395 5.31262 14.9722 5.64497 14.9722 6.05566C14.9722 6.46636 14.6395 6.7987 14.2291 6.7987L3.82655 6.7987C3.4162 6.7987 3.08351 6.46636 3.08351 6.05566C3.08351 5.64497 3.4162 5.31262 3.82655 5.31262ZM8.28478 16.0867C8.28478 16.2913 8.11826 16.4583 7.91325 16.4583L3.45502 16.4583C3.24966 16.4583 3.08348 16.2914 3.08348 16.0867L3.08348 15.3437C3.08348 15.1383 3.24966 14.9722 3.45502 14.9722L7.91327 14.9722C8.11826 14.9722 8.2848 15.1383 8.2848 15.3437L8.2848 16.0867L8.28478 16.0867ZM9.02784 12L3.82655 12C3.4162 12 3.08351 11.6677 3.08351 11.257C3.08351 10.8463 3.4162 10.5139 3.82655 10.5139L9.02784 10.5139C9.43819 10.5139 9.77088 10.8463 9.77088 11.257C9.77088 11.6677 9.43816 12 9.02784 12ZM18.4019 20.402L15.6579 18.5727L12.9143 20.402L13.8286 17.6584L12.0004 15.8299L14.7436 15.8299L15.7025 13.2089L16.5722 15.8299L19.3158 15.8299L17.4872 17.6584L18.4019 20.402ZM21.0689 17.6584L20.1394 17.6584C20.1697 17.508 20.1925 17.3563 20.2077 17.2036C20.223 17.0508 20.2305 16.8977 20.2304 16.7441C20.2304 14.2182 18.1834 12.1713 15.6579 12.1713C13.1323 12.1713 11.0857 14.2182 11.0857 16.7441C11.0857 17.0569 11.1173 17.3624 11.1771 17.6584L10.2472 17.6584C10.2218 17.5074 10.2027 17.3555 10.1899 17.2029C10.1771 17.0502 10.1707 16.8973 10.1707 16.7441C10.1707 13.7139 12.628 11.257 15.6579 11.257C18.6885 11.257 21.1451 13.7139 21.1451 16.7441C21.145 16.8973 21.1387 17.0502 21.1259 17.2029C21.1132 17.3555 21.0942 17.5074 21.0689 17.6584Z"></path></g></g></g><defs><rect id="path_0" x="0" y="0" width="24" height="24" rx="0" ry="0"/></defs></svg>