<svg xmlns="http://www.w3.org/2000/svg" xmlns:xlink="http://www.w3.org/1999/xlink" width="48" height="48" viewBox="0 0 48 48" fill="none"><g opacity="1"  transform="translate(0 0)"><g id="icon-bg" filter="url(#filter_2)"><path id="icon-bg" fill-rule="evenodd" style="fill:#000000" opacity="0.6" d="M24 48L24 48C37.25 48 48 37.25 48 24L48 24C48 10.75 37.25 0 24 0L24 0C10.75 0 0 10.75 0 24L0 24C0 37.25 10.75 48 24 48Z"></path></g><g opacity="1"  transform="translate(9 11)"><mask id="bg-mask-0" fill="white"><use transform="translate(0 0)" xlink:href="#path_0"></use></mask><g mask="url(#bg-mask-0)" ><path id="路径 2" fill-rule="evenodd" style="fill:#FFFFFF" opacity="1" d="M15.9367 20.4C15.9372 20.3311 15.9388 20.2623 15.9415 20.1935C15.9443 20.1246 15.9482 20.0559 15.9533 19.9872C15.9584 19.9185 15.9646 19.85 15.972 19.7815C15.9794 19.713 15.9879 19.6447 15.9976 19.5765C16.0072 19.5083 16.018 19.4403 16.03 19.3725C16.042 19.3046 16.0551 19.237 16.0693 19.1697C16.0835 19.1023 16.0989 19.0351 16.1154 18.9683C16.1319 18.9014 16.1495 18.8348 16.1682 18.7686C16.1869 18.7023 16.2067 18.6363 16.2276 18.5707C16.2486 18.5051 16.2706 18.4399 16.2937 18.375C16.3169 18.3101 16.3411 18.2456 16.3663 18.1816C16.3917 18.1175 16.418 18.0539 16.4454 17.9908C16.4728 17.9276 16.5013 17.8649 16.5308 17.8027C16.5604 17.7404 16.591 17.6787 16.6225 17.6175C16.6542 17.5563 16.6868 17.4957 16.7204 17.4356C16.7541 17.3755 16.7887 17.316 16.8243 17.2571L8.70847 17.2571C8.69728 17.2555 8.68608 17.2536 8.67495 17.2515C8.66382 17.2494 8.65274 17.2471 8.6417 17.2444C8.63068 17.2417 8.61976 17.2388 8.60886 17.2357C8.59799 17.2325 8.58718 17.2291 8.57646 17.2254C8.56576 17.2217 8.55516 17.2178 8.54461 17.2136C8.53409 17.2094 8.52366 17.205 8.51335 17.2003C8.50304 17.1956 8.49281 17.1906 8.48273 17.1854C8.47266 17.1803 8.46272 17.1748 8.45291 17.1692C8.4431 17.1635 8.43343 17.1576 8.42388 17.1515C8.41436 17.1454 8.40498 17.139 8.39572 17.1325C8.38649 17.1259 8.37741 17.1191 8.36851 17.1121C8.3596 17.1051 8.35087 17.0979 8.34231 17.0905C8.33376 17.083 8.32538 17.0754 8.31718 17.0676C8.30898 17.0597 8.30098 17.0517 8.29318 17.0435C8.28539 17.0353 8.27777 17.0269 8.27033 17.0184C8.26295 17.0098 8.25574 17.001 8.24874 16.9921C8.24177 16.9832 8.235 16.9741 8.22844 16.9649C8.22187 16.9556 8.21555 16.9462 8.20945 16.9367C8.20336 16.9271 8.19747 16.9174 8.19182 16.9076C8.18619 16.8978 8.1808 16.8878 8.17562 16.8777C8.17046 16.8677 8.16557 16.8574 8.16088 16.8471C8.15619 16.8368 8.15177 16.8264 8.14761 16.8158C8.14345 16.8053 8.13952 16.7947 8.13583 16.784C8.1322 16.7732 8.1288 16.7624 8.12564 16.7515C8.1225 16.7406 8.1196 16.7297 8.11696 16.7187C8.11436 16.7076 8.11201 16.6966 8.1099 16.6854C8.10782 16.6743 8.10601 16.6631 8.10442 16.6519C8.1029 16.6406 8.10161 16.6294 8.10059 16.6181C8.09959 16.6068 8.09883 16.5955 8.09836 16.5842C8.09789 16.5729 8.09768 16.5615 8.09774 16.5502C8.0978 16.5389 8.09815 16.5275 8.09877 16.5162C8.09938 16.5049 8.10026 16.4936 8.10141 16.4824C8.10029 16.4711 8.09944 16.4598 8.09886 16.4485C8.09827 16.4372 8.09798 16.4259 8.09792 16.4146C8.09789 16.4033 8.09813 16.392 8.09859 16.3807C8.09909 16.3694 8.09985 16.3581 8.10091 16.3468C8.10196 16.3356 8.10325 16.3243 8.1048 16.3132C8.10639 16.3019 8.10823 16.2908 8.11034 16.2797C8.11245 16.2685 8.11482 16.2575 8.11746 16.2465C8.1201 16.2355 8.123 16.2246 8.12616 16.2137C8.12933 16.2029 8.13275 16.1921 8.13642 16.1814C8.14011 16.1707 8.14403 16.16 8.14819 16.1496C8.15238 16.139 8.15681 16.1286 8.16149 16.1184C8.16618 16.108 8.1711 16.0979 8.17626 16.0878C8.18145 16.0777 8.18686 16.0678 8.19249 16.058C8.19814 16.0482 8.204 16.0385 8.2101 16.029C8.21622 16.0195 8.22255 16.0101 8.22908 16.0009C8.23564 15.9917 8.24244 15.9826 8.24941 15.9738C8.25639 15.9648 8.26359 15.9561 8.27101 15.9476C8.27842 15.939 8.28601 15.9306 8.2938 15.9225C8.30162 15.9142 8.30962 15.9063 8.31779 15.8985C8.326 15.8907 8.33434 15.883 8.3429 15.8756C8.35145 15.8682 8.36019 15.861 8.36906 15.854C8.37797 15.8471 8.38705 15.8403 8.39625 15.8337C8.40548 15.8272 8.41485 15.8209 8.42435 15.8148C8.4339 15.8086 8.44356 15.8027 8.45335 15.7971C8.46316 15.7915 8.4731 15.7861 8.48314 15.7809C8.49322 15.7757 8.50339 15.7708 8.51367 15.7661C8.52398 15.7614 8.53438 15.757 8.5449 15.7528C8.55542 15.7486 8.56603 15.7447 8.57669 15.741C8.58741 15.7374 8.59819 15.7339 8.60903 15.7308C8.6199 15.7276 8.63083 15.7247 8.64182 15.7221C8.65283 15.7194 8.66391 15.7171 8.67501 15.7149C8.68614 15.7128 8.69728 15.711 8.70847 15.7094L18.1143 15.7094C18.1703 15.66 18.2271 15.6116 18.2849 15.5642C18.3426 15.5169 18.4012 15.4706 18.4606 15.4255C18.52 15.3803 18.5803 15.3362 18.6413 15.2932C18.7024 15.2503 18.7642 15.2084 18.8268 15.1678C18.8894 15.1271 18.9527 15.0876 19.0168 15.0492C19.0808 15.0109 19.1456 14.9737 19.211 14.9378C19.2764 14.9018 19.3425 14.8671 19.4092 14.8336C19.4759 14.8001 19.5432 14.7678 19.6111 14.7367C19.679 14.7057 19.7475 14.6759 19.8165 14.6475C19.8855 14.6189 19.955 14.5917 20.025 14.5658C20.095 14.5398 20.1654 14.5151 20.2363 14.4918C20.3073 14.4685 20.3786 14.4464 20.4503 14.4257C20.522 14.405 20.5941 14.3856 20.6665 14.3676C20.739 14.3495 20.8117 14.3328 20.8848 14.3175C20.9579 14.3021 21.0312 14.2881 21.1047 14.2754C21.1783 14.2627 21.2521 14.2514 21.3261 14.2415C21.4001 14.2315 21.4742 14.223 21.5485 14.2158C21.6229 14.2086 21.6973 14.2027 21.7718 14.1982C21.8463 14.1938 21.9209 14.1907 21.9955 14.189C22.0702 14.1873 22.1448 14.1869 22.2195 14.188C22.2941 14.189 22.3687 14.1914 22.4433 14.1953C22.5178 14.199 22.5923 14.2042 22.6666 14.2108C22.741 14.2173 22.8153 14.2252 22.8893 14.2345C22.9634 14.2437 23.0373 14.2544 23.111 14.2664C23.1847 14.2784 23.2581 14.2918 23.3313 14.3065C23.4045 14.3212 23.4774 14.3373 23.55 14.3547C23.6226 14.3721 23.6948 14.3908 23.7667 14.4109C23.8386 14.431 23.9101 14.4524 23.9812 14.4751C24.0524 14.4978 24.123 14.5218 24.1933 14.5471C24.2635 14.5724 24.3333 14.5991 24.4025 14.6269C24.4718 14.6548 24.5405 14.684 24.6086 14.7144C24.6768 14.7448 24.7444 14.7765 24.8114 14.8094L24.8114 3.31412C24.8116 3.28905 24.8111 3.26398 24.8101 3.23892C24.8091 3.21388 24.8074 3.18887 24.8051 3.16389C24.8029 3.13891 24.8 3.11401 24.7965 3.08918C24.793 3.06436 24.7889 3.03963 24.7842 3.015C24.7795 2.99036 24.7742 2.96585 24.7683 2.9415C24.7624 2.91712 24.7559 2.8929 24.7488 2.86884C24.7417 2.84479 24.7341 2.82092 24.7258 2.79724C24.7176 2.77356 24.7088 2.7501 24.6994 2.72685C24.69 2.7036 24.68 2.68059 24.6695 2.65783C24.659 2.63507 24.6479 2.61258 24.6363 2.59035C24.6247 2.56813 24.6125 2.54621 24.5998 2.52458C24.5871 2.50296 24.5739 2.48165 24.5602 2.46067C24.5465 2.43969 24.5322 2.41905 24.5175 2.39877C24.5027 2.37848 24.4875 2.35857 24.4718 2.33903C24.4561 2.31949 24.4399 2.30035 24.4233 2.2816C24.4066 2.26285 24.3895 2.24452 24.372 2.2266C24.3544 2.20869 24.3364 2.19121 24.318 2.17418C24.2996 2.15714 24.2808 2.14057 24.2616 2.12445C24.2424 2.10834 24.2228 2.0927 24.2028 2.07754C24.1829 2.06238 24.1625 2.04772 24.1418 2.03356C24.1211 2.01939 24.1001 2.00574 24.0788 1.99261C24.0574 1.97947 24.0357 1.96687 24.0137 1.95479C23.9918 1.94271 23.9695 1.93118 23.947 1.92019C23.9244 1.9092 23.9016 1.89877 23.8786 1.8889C23.8556 1.87902 23.8323 1.86972 23.8088 1.86098C23.7853 1.85224 23.7616 1.84409 23.7376 1.83651C23.7137 1.82893 23.6897 1.82194 23.6654 1.81554C23.6412 1.80914 23.6168 1.80334 23.5923 1.79813C23.5678 1.79292 23.5431 1.78831 23.5183 1.78431C23.4936 1.78031 23.4688 1.77691 23.4438 1.77412C23.4189 1.77133 23.3939 1.76915 23.3689 1.76758C23.3439 1.76601 23.3188 1.76505 23.2938 1.76471L5.06435 1.76471C5.03928 1.76503 5.01421 1.76595 4.98915 1.7675C4.96411 1.76904 4.93912 1.77119 4.91418 1.77396C4.88924 1.77672 4.86437 1.7801 4.83959 1.78408C4.81482 1.78806 4.79016 1.79264 4.76561 1.79783C4.74106 1.80302 4.71665 1.8088 4.69237 1.81519C4.66811 1.82157 4.64402 1.82854 4.6201 1.8361C4.59617 1.84366 4.57244 1.8518 4.54891 1.86052C4.52537 1.86924 4.50207 1.87854 4.479 1.8884C4.45592 1.89826 4.43309 1.90868 4.41054 1.91966C4.38798 1.93063 4.36569 1.94216 4.34368 1.95423C4.32169 1.96629 4.3 1.97889 4.27861 1.99202C4.25723 2.00515 4.23617 2.0188 4.21545 2.03295C4.19472 2.04711 4.17437 2.06177 4.15436 2.07693C4.13436 2.09208 4.11475 2.10771 4.09551 2.12383C4.07629 2.13995 4.05746 2.15652 4.03902 2.17356C4.0206 2.1906 4.00261 2.20807 3.98503 2.22599C3.96747 2.2439 3.95035 2.26224 3.93367 2.28099C3.91701 2.29975 3.90081 2.3189 3.88507 2.33844C3.86933 2.35799 3.85407 2.37791 3.83931 2.3982C3.82456 2.4185 3.81031 2.43914 3.79656 2.46013C3.78281 2.48112 3.76958 2.50243 3.75686 2.52407C3.74415 2.54571 3.73197 2.56764 3.72033 2.58988C3.70871 2.61211 3.69763 2.63461 3.68708 2.65739C3.67655 2.68016 3.66658 2.70318 3.65717 2.72644C3.64775 2.74971 3.63892 2.77319 3.63068 2.79688C3.62242 2.82058 3.61474 2.84446 3.60765 2.86853C3.60055 2.8926 3.59404 2.91684 3.58814 2.94123C3.58224 2.96561 3.57694 2.99012 3.57223 3.01477C3.56753 3.03942 3.56343 3.06417 3.55993 3.08904C3.55643 3.11388 3.55354 3.13879 3.55126 3.16377C3.54899 3.18877 3.54733 3.2138 3.54628 3.23886C3.54522 3.26394 3.54478 3.28903 3.54496 3.31412L3.54496 26.0788C3.54496 26.3894 4.00023 26.5447 4.15202 26.3894L7.03728 23.7565L9.62083 26.0788C9.63817 26.0928 9.65578 26.1065 9.67365 26.1197C9.69155 26.1329 9.70972 26.1458 9.72817 26.1583C9.74663 26.1708 9.76532 26.1828 9.78428 26.1945C9.80323 26.2062 9.82242 26.2175 9.84185 26.2283C9.8613 26.2392 9.88096 26.2496 9.90082 26.2597C9.92071 26.2697 9.94081 26.2793 9.96108 26.2885C9.98136 26.2976 10.0018 26.3064 10.0225 26.3147C10.0432 26.323 10.064 26.3308 10.085 26.3383C10.106 26.3457 10.1271 26.3527 10.1484 26.3592C10.1697 26.3657 10.1911 26.3718 10.2127 26.3774C10.2342 26.383 10.2559 26.3882 10.2776 26.3929C10.2994 26.3976 10.3213 26.4018 10.3432 26.4056C10.3651 26.4093 10.3871 26.4126 10.4092 26.4154C10.4313 26.4183 10.4535 26.4206 10.4757 26.4225C10.4979 26.4244 10.5201 26.4258 10.5423 26.4268C10.5646 26.4277 10.5868 26.4282 10.6091 26.4282C10.6313 26.4282 10.6536 26.4277 10.6758 26.4268C10.6981 26.4258 10.7203 26.4244 10.7425 26.4225C10.7647 26.4206 10.7868 26.4183 10.8089 26.4154C10.831 26.4126 10.853 26.4093 10.8749 26.4056C10.8969 26.4018 10.9187 26.3976 10.9405 26.3929C10.9623 26.3882 10.9839 26.383 11.0055 26.3774C11.027 26.3718 11.0485 26.3657 11.0697 26.3592C11.091 26.3527 11.1122 26.3457 11.1331 26.3383C11.1541 26.3308 11.175 26.323 11.1956 26.3147C11.2163 26.3064 11.2368 26.2976 11.2571 26.2885C11.2773 26.2793 11.2974 26.2697 11.3173 26.2597C11.3372 26.2496 11.3568 26.2392 11.3763 26.2283C11.3957 26.2175 11.4149 26.2062 11.4339 26.1945C11.4528 26.1828 11.4715 26.1708 11.49 26.1583C11.5084 26.1458 11.5266 26.1329 11.5445 26.1197C11.5624 26.1065 11.58 26.0928 11.5973 26.0788L14.1791 23.91L16.7608 26.2341C16.7782 26.2481 16.7958 26.2617 16.8137 26.275C16.8316 26.2882 16.8497 26.3011 16.8682 26.3136C16.8866 26.326 16.9053 26.3381 16.9243 26.3498C16.9432 26.3615 16.9624 26.3727 16.9818 26.3836C17.0013 26.3945 17.021 26.4049 17.0408 26.4149C17.0607 26.425 17.0808 26.4346 17.1011 26.4438C17.1214 26.4529 17.1418 26.4617 17.1625 26.47C17.1832 26.4783 17.204 26.4861 17.225 26.4936C17.246 26.501 17.2671 26.508 17.2884 26.5145C17.3097 26.521 17.3311 26.5271 17.3527 26.5327C17.3742 26.5383 17.3959 26.5435 17.4176 26.5482C17.4394 26.5529 17.4613 26.5571 17.4832 26.5608C17.5051 26.5646 17.5271 26.5679 17.5492 26.5708C17.5713 26.5736 17.5935 26.5759 17.6157 26.5778C17.6379 26.5797 17.6601 26.5811 17.6823 26.5821C17.7046 26.583 17.7268 26.5835 17.7491 26.5835C17.7713 26.5835 17.7936 26.583 17.8158 26.5821C17.8381 26.5811 17.8603 26.5797 17.8825 26.5778C17.9047 26.5759 17.9268 26.5736 17.9489 26.5708C17.971 26.5679 17.993 26.5646 18.0149 26.5608C18.0369 26.5571 18.0587 26.5529 18.0805 26.5482C18.1023 26.5435 18.1239 26.5383 18.1455 26.5327C18.167 26.5271 18.1885 26.521 18.2097 26.5145C18.231 26.508 18.2522 26.501 18.2731 26.4936C18.2941 26.4861 18.315 26.4783 18.3356 26.47C18.3563 26.4617 18.3768 26.4529 18.3971 26.4438C18.4173 26.4346 18.4374 26.425 18.4573 26.4149C18.4772 26.4049 18.4968 26.3945 18.5163 26.3836C18.5357 26.3727 18.5549 26.3615 18.5739 26.3498C18.5928 26.3381 18.6115 26.326 18.63 26.3136C18.6484 26.3011 18.6666 26.2882 18.6845 26.275C18.7024 26.2617 18.72 26.2481 18.7373 26.2341L19.1926 25.8229C19.1316 25.7902 19.0713 25.7564 19.0115 25.7217C18.9517 25.6869 18.8925 25.6511 18.8338 25.6144C18.7753 25.5776 18.7173 25.5399 18.6599 25.5012C18.6026 25.4625 18.5459 25.4228 18.4899 25.3823C18.4339 25.3417 18.3786 25.3001 18.324 25.2577C18.2694 25.2152 18.2155 25.1718 18.1623 25.1276C18.1092 25.0833 18.0567 25.0381 18.0051 24.9921C17.9534 24.9461 17.9026 24.8992 17.8525 24.8515C17.8025 24.8038 17.7532 24.7552 17.7047 24.7058C17.6563 24.6564 17.6087 24.6063 17.5619 24.5553C17.5152 24.5043 17.4693 24.4525 17.4242 24.4C17.3792 24.3475 17.3351 24.2942 17.2918 24.2402C17.2486 24.1862 17.2063 24.1315 17.1649 24.0761C17.1235 24.0207 17.083 23.9646 17.0435 23.9078C17.004 23.851 16.9654 23.7936 16.9278 23.7355C16.8903 23.6775 16.8536 23.6188 16.818 23.5595C16.7824 23.5002 16.7478 23.4403 16.7142 23.3798C16.6806 23.3194 16.6479 23.2583 16.6164 23.1968C16.5848 23.1352 16.5543 23.0732 16.5248 23.0106C16.4953 22.948 16.4669 22.8849 16.4395 22.8214C16.4122 22.7579 16.3859 22.6939 16.3606 22.6295C16.3354 22.565 16.3113 22.5002 16.2882 22.435C16.2652 22.3698 16.2432 22.3042 16.2224 22.2382C16.2016 22.1723 16.1818 22.106 16.1632 22.0393C16.1446 21.9727 16.1271 21.9058 16.1107 21.8386C16.0943 21.7714 16.0791 21.7039 16.065 21.6362C16.0508 21.5685 16.0379 21.5005 16.026 21.4324C16.0142 21.3642 16.0035 21.2959 15.994 21.2274C15.9845 21.1588 15.9761 21.0902 15.9688 21.0214C15.9616 20.9526 15.9555 20.8837 15.9506 20.8147C15.9456 20.7457 15.9419 20.6766 15.9393 20.6075C15.9367 20.5383 15.9352 20.4692 15.935 20.4L15.9367 20.4ZM8.70847 6.41295L19.6461 6.41295C20.0238 6.46589 20.292 6.80825 20.2532 7.18589C20.2543 7.19714 20.2552 7.20845 20.2558 7.21979C20.2564 7.2311 20.2568 7.2424 20.2569 7.25374C20.2569 7.26505 20.2567 7.27639 20.2562 7.28773C20.2558 7.29904 20.255 7.31034 20.254 7.32165C20.253 7.33293 20.2517 7.34418 20.2501 7.3554C20.2486 7.36662 20.2468 7.37781 20.2447 7.38895C20.2426 7.40008 20.2402 7.41115 20.2376 7.4222C20.235 7.43321 20.2321 7.44417 20.229 7.45507C20.2258 7.46594 20.2224 7.47675 20.2187 7.48747C20.2151 7.49819 20.2112 7.50883 20.207 7.51938C20.2028 7.52989 20.1984 7.54032 20.1937 7.55067C20.1891 7.56098 20.1841 7.57117 20.179 7.58128C20.1738 7.59136 20.1684 7.60129 20.1628 7.61113C20.1571 7.62098 20.1513 7.63065 20.1451 7.6402C20.1391 7.64975 20.1327 7.65915 20.1262 7.66841C20.1196 7.67764 20.1128 7.68672 20.1059 7.69566C20.0989 7.70456 20.0917 7.71329 20.0842 7.72188C20.0769 7.73043 20.0692 7.73884 20.0614 7.74707C20.0536 7.75528 20.0456 7.76327 20.0374 7.77112C20.0292 7.77892 20.0208 7.78656 20.0123 7.79401C20.0037 7.80142 19.995 7.80862 19.9861 7.81563C19.9772 7.82263 19.9681 7.82943 19.9589 7.83602C19.9496 7.84258 19.9403 7.84891 19.9307 7.85506C19.9212 7.86115 19.9115 7.86704 19.9017 7.87273C19.8919 7.87838 19.8819 7.8838 19.8718 7.88899C19.8618 7.89414 19.8516 7.89909 19.8412 7.90378C19.8309 7.90847 19.8205 7.91292 19.81 7.91711C19.7995 7.9213 19.7888 7.92526 19.7781 7.92895C19.7674 7.93261 19.7566 7.93604 19.7457 7.93923C19.7349 7.94239 19.7239 7.94529 19.7129 7.94793C19.7019 7.95057 19.6908 7.95294 19.6796 7.95508C19.6685 7.95719 19.6574 7.95901 19.6461 7.96059L8.70847 7.96059C8.69728 7.95901 8.68608 7.95719 8.67495 7.95508C8.66382 7.95294 8.65274 7.95057 8.6417 7.94793C8.63068 7.94529 8.61976 7.94239 8.60886 7.93923C8.59799 7.93604 8.58718 7.93261 8.57646 7.92895C8.56576 7.92526 8.55516 7.9213 8.54461 7.91711C8.53409 7.91292 8.52366 7.90847 8.51335 7.90378C8.50304 7.89909 8.49281 7.89414 8.48273 7.88899C8.47266 7.8838 8.46272 7.87838 8.45291 7.87273C8.4431 7.86704 8.43343 7.86115 8.42388 7.85506C8.41436 7.84891 8.40498 7.84258 8.39572 7.83602C8.38649 7.82943 8.37741 7.82263 8.36851 7.81566C8.3596 7.80862 8.35087 7.80142 8.34231 7.79401C8.33376 7.78656 8.32538 7.77892 8.31718 7.77112C8.309 7.76327 8.30101 7.75528 8.29318 7.74707C8.28539 7.73884 8.27777 7.73043 8.27033 7.72188C8.26295 7.71329 8.25574 7.70456 8.24874 7.69566C8.24177 7.68672 8.235 7.67764 8.22844 7.66841C8.22187 7.65915 8.21555 7.64975 8.20945 7.6402C8.20336 7.63065 8.19747 7.62098 8.19182 7.61113C8.18619 7.60129 8.1808 7.59136 8.17562 7.58128C8.17046 7.57117 8.16557 7.56098 8.16088 7.55067C8.15619 7.54032 8.15177 7.52989 8.14761 7.51938C8.14345 7.50883 8.13952 7.49819 8.13583 7.48747C8.1322 7.47675 8.1288 7.46594 8.12564 7.45507C8.1225 7.44417 8.1196 7.43321 8.11696 7.4222C8.11436 7.41115 8.11201 7.40008 8.1099 7.38895C8.10782 7.37781 8.10601 7.36662 8.10442 7.3554C8.1029 7.34418 8.10161 7.33293 8.10059 7.32165C8.09959 7.31034 8.09883 7.29904 8.09836 7.28773C8.09789 7.27639 8.09768 7.26505 8.09774 7.25374C8.09783 7.2424 8.09818 7.2311 8.09877 7.21979C8.09938 7.20845 8.10026 7.19714 8.10141 7.18589C8.10029 7.17464 8.09944 7.16336 8.09886 7.15205C8.09827 7.14074 8.09798 7.12946 8.09792 7.11816C8.09786 7.10685 8.0981 7.09554 8.09859 7.08423C8.09909 7.07292 8.09985 7.06164 8.10091 7.05039C8.10196 7.03911 8.10325 7.02786 8.1048 7.01667C8.10639 7.00548 8.10823 6.99432 8.11034 6.98321C8.11245 6.97208 8.11482 6.96104 8.11746 6.95005C8.1201 6.93903 8.123 6.92808 8.12616 6.91724C8.12933 6.90637 8.13275 6.89559 8.13642 6.88492C8.14011 6.8742 8.14403 6.8636 8.14819 6.85311C8.15238 6.84259 8.15681 6.83219 8.16149 6.82188C8.16618 6.81156 8.1711 6.8014 8.17626 6.79135C8.18145 6.78127 8.18686 6.77134 8.19249 6.76155C8.19814 6.75174 8.204 6.74207 8.2101 6.73255C8.21622 6.72303 8.22255 6.71365 8.22908 6.70445C8.23564 6.6952 8.24244 6.68614 8.24941 6.67727C8.25639 6.66836 8.26359 6.65966 8.27101 6.65111C8.27842 6.64255 8.28601 6.63417 8.2938 6.626C8.30162 6.61779 8.30962 6.6098 8.31779 6.602C8.326 6.59418 8.33434 6.58656 8.3429 6.57918C8.35145 6.57177 8.36019 6.56456 8.36906 6.55759C8.37797 6.55059 8.38705 6.54382 8.39625 6.53729C8.40548 6.53072 8.41485 6.52437 8.42435 6.51827C8.4339 6.51218 8.44356 6.50629 8.45335 6.50067C8.46316 6.49501 8.4731 6.48959 8.48314 6.48444C8.49322 6.47925 8.50339 6.47433 8.51367 6.46967C8.52398 6.46498 8.53438 6.46053 8.5449 6.45637C8.55542 6.45215 8.56603 6.44822 8.57669 6.44456C8.58741 6.44087 8.59819 6.43747 8.60903 6.43431C8.6199 6.43114 8.63083 6.42824 8.64182 6.42561C8.65283 6.42297 8.66391 6.4206 8.67501 6.41849C8.68614 6.41638 8.69728 6.41453 8.70847 6.41295ZM8.70847 11.0612L19.6461 11.0612C20.0238 11.1141 20.292 11.4565 20.2532 11.8341C20.2543 11.8454 20.2552 11.8567 20.2558 11.868C20.2564 11.8793 20.2568 11.8906 20.2569 11.902C20.2569 11.9133 20.2567 11.9246 20.2562 11.936C20.2558 11.9473 20.255 11.9586 20.254 11.9699C20.253 11.9811 20.2517 11.9924 20.2501 12.0036C20.2486 12.0149 20.2468 12.0261 20.2447 12.0372C20.2426 12.0483 20.2402 12.0594 20.2376 12.0704C20.235 12.0815 20.2321 12.0924 20.229 12.1033C20.2258 12.1142 20.2224 12.125 20.2187 12.1357C20.2151 12.1464 20.2112 12.157 20.207 12.1676C20.2028 12.1781 20.1984 12.1886 20.1937 12.1989C20.1891 12.2092 20.1841 12.2194 20.179 12.2295C20.1738 12.2396 20.1684 12.2495 20.1628 12.2594C20.1571 12.2692 20.1513 12.2789 20.1451 12.2884C20.1391 12.298 20.1327 12.3074 20.1262 12.3166C20.1196 12.3259 20.1128 12.335 20.1059 12.3439C20.0989 12.3528 20.0917 12.3615 20.0842 12.3701C20.0769 12.3787 20.0692 12.3871 20.0614 12.3953C20.0536 12.4035 20.0456 12.4115 20.0374 12.4193C20.0292 12.4272 20.0208 12.4348 20.0123 12.4422C20.0037 12.4496 19.995 12.4568 19.9861 12.4639C19.9772 12.4709 19.9681 12.4777 19.9589 12.4842C19.9496 12.4908 19.9403 12.4971 19.9307 12.5033C19.9212 12.5094 19.9115 12.5153 19.9017 12.521C19.8919 12.5266 19.8819 12.532 19.8718 12.5372C19.8618 12.5424 19.8516 12.5473 19.8412 12.552C19.8309 12.5567 19.8205 12.5611 19.81 12.5654C19.7995 12.5695 19.7888 12.5735 19.7781 12.5772C19.7674 12.5809 19.7566 12.5843 19.7457 12.5874C19.7349 12.5906 19.7239 12.5935 19.7129 12.5962C19.7019 12.5988 19.6908 12.6012 19.6796 12.6033C19.6685 12.6054 19.6574 12.6072 19.6461 12.6088L8.70847 12.6088C8.69728 12.6072 8.68608 12.6054 8.67495 12.6033C8.66382 12.6012 8.65274 12.5988 8.6417 12.5962C8.63068 12.5935 8.61976 12.5906 8.60886 12.5874C8.59799 12.5843 8.58718 12.5809 8.57646 12.5772C8.56576 12.5735 8.55516 12.5695 8.54461 12.5654C8.53409 12.5611 8.52366 12.5567 8.51335 12.552C8.50304 12.5473 8.49281 12.5424 8.48273 12.5372C8.47266 12.532 8.46272 12.5266 8.45291 12.521C8.4431 12.5153 8.43343 12.5094 8.42388 12.5033C8.41436 12.4971 8.40498 12.4908 8.39572 12.4842C8.38649 12.4777 8.37741 12.4709 8.36851 12.4639C8.3596 12.4568 8.35087 12.4496 8.34231 12.4422C8.33376 12.4348 8.32538 12.4272 8.31718 12.4193C8.309 12.4115 8.30101 12.4035 8.29318 12.3953C8.28539 12.3871 8.27777 12.3787 8.27033 12.3701C8.26295 12.3615 8.25574 12.3528 8.24874 12.3439C8.24177 12.335 8.235 12.3259 8.22844 12.3166C8.22187 12.3074 8.21555 12.298 8.20945 12.2884C8.20336 12.2789 8.19747 12.2692 8.19182 12.2594C8.18619 12.2495 8.1808 12.2396 8.17562 12.2295C8.17046 12.2194 8.16557 12.2092 8.16088 12.1989C8.15619 12.1886 8.15177 12.1781 8.14761 12.1676C8.14345 12.157 8.13952 12.1464 8.13583 12.1357C8.1322 12.125 8.1288 12.1142 8.12564 12.1033C8.1225 12.0924 8.1196 12.0815 8.11696 12.0704C8.11436 12.0594 8.11201 12.0483 8.1099 12.0372C8.10782 12.0261 8.10601 12.0149 8.10442 12.0036C8.1029 11.9924 8.10161 11.9811 8.10059 11.9699C8.09959 11.9586 8.09883 11.9473 8.09836 11.936C8.09789 11.9246 8.09768 11.9133 8.09774 11.902C8.09783 11.8906 8.09818 11.8793 8.09877 11.868C8.09938 11.8567 8.10026 11.8454 8.10141 11.8341C8.10023 11.8228 8.09933 11.8115 8.09868 11.8002C8.09804 11.7888 8.09768 11.7775 8.09757 11.7662C8.09748 11.7548 8.09766 11.7435 8.0981 11.7321C8.09856 11.7208 8.09927 11.7094 8.10026 11.6981C8.10126 11.6868 8.10255 11.6755 8.10407 11.6643C8.1056 11.653 8.10741 11.6418 8.10946 11.6307C8.11154 11.6195 8.11389 11.6084 8.11649 11.5974C8.1191 11.5863 8.12197 11.5753 8.12511 11.5644C8.12824 11.5535 8.13164 11.5427 8.13527 11.5319C8.13894 11.5212 8.14283 11.5105 8.14699 11.5C8.15115 11.4894 8.15558 11.479 8.16023 11.4686C8.16492 11.4583 8.16982 11.448 8.17497 11.4379C8.18013 11.4278 8.18555 11.4178 8.19117 11.408C8.1968 11.3981 8.20269 11.3884 8.20878 11.3788C8.21487 11.3692 8.2212 11.3598 8.22776 11.3506C8.23433 11.3413 8.24112 11.3322 8.2481 11.3233C8.25507 11.3143 8.26228 11.3055 8.26969 11.2969C8.27713 11.2883 8.28475 11.2799 8.29254 11.2717C8.30036 11.2635 8.30836 11.2554 8.31656 11.2476C8.32477 11.2397 8.33317 11.2321 8.34173 11.2246C8.35031 11.2172 8.35904 11.21 8.36795 11.2029C8.37688 11.1959 8.38597 11.1891 8.3952 11.1825C8.40445 11.1759 8.41383 11.1696 8.42338 11.1634C8.43293 11.1573 8.44263 11.1514 8.45247 11.1457C8.46231 11.14 8.47228 11.1346 8.48235 11.1294C8.49246 11.1242 8.50269 11.1193 8.513 11.1146C8.52334 11.1099 8.53377 11.1054 8.54432 11.1012C8.55486 11.097 8.5655 11.093 8.57622 11.0893C8.58697 11.0857 8.59778 11.0822 8.60868 11.0791C8.61958 11.0759 8.63057 11.073 8.64158 11.0703C8.65263 11.0677 8.66373 11.0653 8.67489 11.0632C8.68605 11.0611 8.69725 11.0592 8.70847 11.0576L8.70847 11.0612Z"></path><path id="路径 3" fill-rule="evenodd" style="fill:#FFFFFF" opacity="1" d="M22.1483 14.1882C22.0466 14.1882 21.945 14.1907 21.8435 14.1957C21.742 14.2007 21.6406 14.2082 21.5394 14.2181C21.4383 14.2281 21.3374 14.2405 21.2368 14.2555C21.1362 14.2704 21.0361 14.2877 20.9364 14.3076C20.8367 14.3274 20.7375 14.3497 20.6389 14.3744C20.5403 14.3991 20.4424 14.4262 20.3451 14.4557C20.2478 14.4852 20.1513 14.5171 20.0556 14.5513C19.9599 14.5856 19.8651 14.6222 19.7711 14.6611C19.6772 14.7 19.5843 14.7412 19.4924 14.7846C19.4005 14.8281 19.3097 14.8738 19.2201 14.9217C19.1304 14.9696 19.042 15.0197 18.9548 15.072C18.8676 15.1242 18.7817 15.1786 18.6972 15.2351C18.6127 15.2916 18.5296 15.3501 18.4479 15.4106C18.3663 15.4712 18.2862 15.5337 18.2076 15.5982C18.129 15.6627 18.052 15.7291 17.9767 15.7974C17.9014 15.8656 17.8278 15.9357 17.7559 16.0076C17.684 16.0795 17.6139 16.1531 17.5457 16.2284C17.4774 16.3037 17.411 16.3807 17.3465 16.4593C17.282 16.5379 17.2195 16.618 17.159 16.6996C17.0984 16.7813 17.0399 16.8644 16.9834 16.9489C16.9269 17.0334 16.8725 17.1193 16.8203 17.2065C16.768 17.2937 16.7179 17.3821 16.67 17.4718C16.6221 17.5614 16.5764 17.6522 16.5329 17.7441C16.4894 17.836 16.4483 17.9289 16.4094 18.0228C16.3705 18.1168 16.3339 18.2116 16.2996 18.3073C16.2654 18.403 16.2335 18.4995 16.204 18.5968C16.1745 18.6941 16.1474 18.792 16.1227 18.8906C16.098 18.9893 16.0757 19.0884 16.0559 19.1881C16.0361 19.2878 16.0187 19.388 16.0038 19.4885C15.9888 19.5891 15.9764 19.69 15.9664 19.7911C15.9565 19.8923 15.949 19.9937 15.944 20.0952C15.939 20.1967 15.9365 20.2983 15.9365 20.4C15.9365 20.5016 15.939 20.6033 15.944 20.7048C15.949 20.8063 15.9565 20.9077 15.9664 21.0088C15.9764 21.11 15.9888 21.2109 16.0038 21.3114C16.0187 21.412 16.0361 21.5122 16.0559 21.6119C16.0757 21.7116 16.098 21.8107 16.1227 21.9093C16.1474 22.0079 16.1745 22.1059 16.204 22.2032C16.2335 22.3004 16.2654 22.397 16.2996 22.4927C16.3339 22.5884 16.3705 22.6832 16.4094 22.7771C16.4483 22.871 16.4894 22.964 16.5329 23.0559C16.5764 23.1478 16.6221 23.2385 16.67 23.3282C16.7179 23.4179 16.768 23.5063 16.8203 23.5935C16.8725 23.6807 16.9269 23.7666 16.9834 23.8511C17.0399 23.9356 17.0984 24.0187 17.159 24.1003C17.2195 24.182 17.282 24.2621 17.3465 24.3407C17.411 24.4193 17.4774 24.4962 17.5457 24.5715C17.6139 24.6469 17.684 24.7205 17.7559 24.7924C17.8278 24.8642 17.9014 24.9343 17.9767 25.0026C18.052 25.0709 18.129 25.1373 18.2076 25.2017C18.2862 25.2662 18.3663 25.3288 18.4479 25.3893C18.5296 25.4499 18.6127 25.5084 18.6972 25.5649C18.7817 25.6214 18.8676 25.6757 18.9548 25.728C19.042 25.7803 19.1304 25.8304 19.2201 25.8783C19.3097 25.9262 19.4005 25.9719 19.4924 26.0154C19.5843 26.0588 19.6772 26.1 19.7711 26.1389C19.8651 26.1778 19.9599 26.2144 20.0556 26.2486C20.1513 26.2829 20.2478 26.3148 20.3451 26.3443C20.4424 26.3738 20.5403 26.4009 20.6389 26.4256C20.7375 26.4503 20.8367 26.4726 20.9364 26.4924C21.0361 26.5122 21.1363 26.5296 21.2368 26.5445C21.3374 26.5594 21.4383 26.5719 21.5394 26.5818C21.6406 26.5918 21.742 26.5993 21.8435 26.6043C21.945 26.6093 22.0466 26.6117 22.1483 26.6117C22.2499 26.6117 22.3515 26.6092 22.453 26.6041C22.5545 26.5991 22.6558 26.5916 22.757 26.5816C22.8581 26.5716 22.9589 26.5591 23.0594 26.5441C23.16 26.5292 23.26 26.5118 23.3597 26.4919C23.4594 26.472 23.5585 26.4497 23.6571 26.425C23.7557 26.4002 23.8536 26.3731 23.9508 26.3436C24.048 26.314 24.1445 26.2821 24.2402 26.2479C24.3358 26.2136 24.4306 26.177 24.5245 26.138C24.6184 26.0991 24.7113 26.0579 24.8031 26.0144C24.895 25.9709 24.9857 25.9252 25.0753 25.8773C25.1649 25.8293 25.2533 25.7792 25.3404 25.727C25.4276 25.6747 25.5134 25.6203 25.5979 25.5638C25.6824 25.5073 25.7654 25.4488 25.847 25.3883C25.9287 25.3277 26.0087 25.2651 26.0873 25.2007C26.1658 25.1362 26.2427 25.0698 26.318 25.0015C26.3933 24.9332 26.4668 24.8632 26.5387 24.7913C26.6105 24.7194 26.6806 24.6458 26.7488 24.5705C26.8171 24.4952 26.8834 24.4182 26.9478 24.3397C27.0123 24.2611 27.0748 24.181 27.1353 24.0993C27.1958 24.0177 27.2543 23.9346 27.3108 23.8501C27.3672 23.7656 27.4216 23.6797 27.4738 23.5926C27.526 23.5054 27.5761 23.417 27.624 23.3274C27.6719 23.2377 27.7175 23.147 27.761 23.0551C27.8044 22.9632 27.8456 22.8703 27.8845 22.7764C27.9233 22.6825 27.9599 22.5877 27.9941 22.4921C28.0284 22.3963 28.0602 22.2999 28.0897 22.2026C28.1192 22.1054 28.1463 22.0075 28.171 21.9089C28.1957 21.8103 28.2179 21.7111 28.2377 21.6115C28.2576 21.5118 28.2749 21.4117 28.2898 21.3112C28.3047 21.2106 28.3172 21.1098 28.3271 21.0087C28.3371 20.9075 28.3445 20.8062 28.3496 20.7047C28.3545 20.6032 28.357 20.5016 28.357 20.4C28.357 20.2984 28.3545 20.1968 28.3496 20.0953C28.3445 19.9938 28.3371 19.8925 28.3271 19.7913C28.3172 19.6902 28.3047 19.5893 28.2898 19.4888C28.2749 19.3883 28.2576 19.2882 28.2377 19.1885C28.2179 19.0888 28.1957 18.9897 28.171 18.8911C28.1463 18.7925 28.1192 18.6946 28.0897 18.5974C28.0602 18.5001 28.0284 18.4036 27.9941 18.3079C27.9599 18.2122 27.9233 18.1174 27.8845 18.0235C27.8456 17.9296 27.8044 17.8368 27.761 17.7449C27.7175 17.653 27.6719 17.5622 27.624 17.4726C27.5761 17.383 27.526 17.2946 27.4738 17.2074C27.4216 17.1202 27.3672 17.0344 27.3108 16.9499C27.2543 16.8654 27.1958 16.7823 27.1353 16.7006C27.0748 16.619 27.0123 16.5389 26.9478 16.4603C26.8834 16.3817 26.8171 16.3048 26.7488 16.2295C26.6806 16.1542 26.6105 16.0806 26.5387 16.0087C26.4668 15.9368 26.3933 15.8667 26.318 15.7984C26.2427 15.7302 26.1658 15.6638 26.0873 15.5993C26.0087 15.5348 25.9287 15.4723 25.847 15.4117C25.7654 15.3512 25.6824 15.2926 25.5979 15.2362C25.5134 15.1797 25.4276 15.1253 25.3404 15.073C25.2533 15.0207 25.1649 14.9706 25.0753 14.9227C24.9857 14.8747 24.895 14.829 24.8031 14.7856C24.7113 14.7421 24.6184 14.7009 24.5245 14.6619C24.4306 14.623 24.3358 14.5864 24.2402 14.5521C24.1445 14.5179 24.048 14.4859 23.9508 14.4564C23.8536 14.4269 23.7557 14.3997 23.6571 14.375C23.5585 14.3503 23.4594 14.328 23.3597 14.3081C23.26 14.2882 23.16 14.2708 23.0594 14.2558C22.9589 14.2409 22.8581 14.2284 22.757 14.2184C22.6558 14.2084 22.5545 14.2009 22.453 14.1959C22.3515 14.1908 22.2499 14.1883 22.1483 14.1882ZM22.1483 25.7241C22.0612 25.7241 21.9741 25.722 21.887 25.7177C21.8 25.7134 21.7131 25.707 21.6264 25.6985C21.5397 25.69 21.4533 25.6793 21.3671 25.6665C21.2809 25.6537 21.195 25.6388 21.1096 25.6218C21.0241 25.6048 20.9391 25.5857 20.8546 25.5646C20.7701 25.5434 20.6862 25.5201 20.6028 25.4949C20.5194 25.4696 20.4367 25.4422 20.3546 25.4129C20.2726 25.3835 20.1913 25.3522 20.1108 25.3188C20.0304 25.2855 19.9507 25.2502 19.8719 25.2129C19.7932 25.1757 19.7154 25.1365 19.6385 25.0954C19.5617 25.0544 19.4859 25.0114 19.4111 24.9666C19.3364 24.9218 19.2628 24.8752 19.1904 24.8268C19.1179 24.7784 19.0467 24.7283 18.9767 24.6764C18.9067 24.6245 18.838 24.5709 18.7707 24.5156C18.7033 24.4603 18.6374 24.4034 18.5728 24.3449C18.5083 24.2864 18.4452 24.2263 18.3836 24.1647C18.322 24.1031 18.2619 24.04 18.2034 23.9754C18.1449 23.9109 18.088 23.8449 18.0327 23.7776C17.9774 23.7102 17.9238 23.6415 17.8719 23.5716C17.82 23.5016 17.7699 23.4304 17.7214 23.3579C17.673 23.2855 17.6264 23.2119 17.5816 23.1371C17.5368 23.0624 17.4939 22.9866 17.4528 22.9098C17.4118 22.8329 17.3726 22.7551 17.3353 22.6763C17.2981 22.5976 17.2628 22.5179 17.2295 22.4374C17.1961 22.3569 17.1647 22.2757 17.1354 22.1936C17.106 22.1116 17.0787 22.0289 17.0534 21.9455C17.0281 21.8621 17.0049 21.7782 16.9837 21.6937C16.9625 21.6091 16.9435 21.5241 16.9265 21.4387C16.9095 21.3532 16.8946 21.2674 16.8818 21.1812C16.869 21.095 16.8583 21.0085 16.8498 20.9219C16.8413 20.8351 16.8349 20.7483 16.8306 20.6612C16.8263 20.5742 16.8242 20.4871 16.8242 20.4C16.8242 20.3129 16.8263 20.2258 16.8306 20.1388C16.8349 20.0517 16.8413 19.9648 16.8498 19.8781C16.8583 19.7914 16.869 19.705 16.8818 19.6188C16.8946 19.5326 16.9095 19.4468 16.9265 19.3613C16.9435 19.2758 16.9625 19.1908 16.9837 19.1063C17.0049 19.0218 17.0281 18.9379 17.0534 18.8545C17.0787 18.7711 17.106 18.6884 17.1354 18.6063C17.1647 18.5243 17.1961 18.443 17.2295 18.3625C17.2628 18.282 17.2981 18.2024 17.3353 18.1236C17.3726 18.0449 17.4118 17.9671 17.4528 17.8902C17.4939 17.8134 17.5368 17.7376 17.5816 17.6628C17.6264 17.5881 17.673 17.5145 17.7214 17.4421C17.7699 17.3696 17.82 17.2984 17.8719 17.2284C17.9238 17.1584 17.9774 17.0898 18.0327 17.0224C18.088 16.955 18.1449 16.8891 18.2034 16.8245C18.2619 16.76 18.322 16.6969 18.3836 16.6353C18.4452 16.5737 18.5083 16.5136 18.5728 16.4551C18.6374 16.3966 18.7033 16.3397 18.7707 16.2844C18.838 16.2291 18.9067 16.1755 18.9767 16.1236C19.0467 16.0717 19.1179 16.0216 19.1904 15.9731C19.2628 15.9247 19.3364 15.8781 19.4111 15.8333C19.4859 15.7886 19.5617 15.7456 19.6385 15.7046C19.7154 15.6635 19.7932 15.6243 19.8719 15.587C19.9507 15.5498 20.0303 15.5145 20.1108 15.4811C20.1913 15.4478 20.2726 15.4164 20.3546 15.3871C20.4367 15.3577 20.5194 15.3304 20.6028 15.3051C20.6862 15.2798 20.7701 15.2566 20.8546 15.2354C20.9391 15.2142 21.0241 15.1952 21.1096 15.1782C21.195 15.1612 21.2809 15.1463 21.3671 15.1335C21.4533 15.1207 21.5397 15.1101 21.6264 15.1015C21.7131 15.093 21.8 15.0866 21.887 15.0823C21.9741 15.078 22.0612 15.0759 22.1483 15.0759C22.2354 15.0759 22.3225 15.078 22.4095 15.0823C22.4966 15.0866 22.5834 15.093 22.6701 15.1015C22.7569 15.1101 22.8433 15.1207 22.9295 15.1335C23.0157 15.1463 23.1015 15.1612 23.187 15.1782C23.2724 15.1952 23.3574 15.2142 23.4419 15.2354C23.5265 15.2566 23.6104 15.2798 23.6938 15.3051C23.7772 15.3304 23.8599 15.3577 23.9419 15.3871C24.024 15.4164 24.1053 15.4478 24.1857 15.4811C24.2662 15.5145 24.3459 15.5498 24.4246 15.587C24.5034 15.6243 24.5812 15.6635 24.6581 15.7046C24.7349 15.7456 24.8107 15.7885 24.8854 15.8333C24.9602 15.8781 25.0338 15.9247 25.1062 15.9731C25.1787 16.0216 25.2499 16.0717 25.3198 16.1236C25.3898 16.1755 25.4585 16.2291 25.5259 16.2844C25.5932 16.3397 25.6592 16.3966 25.7237 16.4551C25.7883 16.5136 25.8514 16.5737 25.913 16.6353C25.9746 16.6969 26.0347 16.76 26.0932 16.8245C26.1517 16.8891 26.2086 16.955 26.2639 17.0224C26.3192 17.0898 26.3727 17.1584 26.4247 17.2284C26.4765 17.2984 26.5267 17.3696 26.5751 17.4421C26.6235 17.5145 26.6701 17.5881 26.7149 17.6628C26.7597 17.7376 26.8026 17.8134 26.8437 17.8902C26.8848 17.9671 26.924 18.0449 26.9612 18.1236C26.9985 18.2024 27.0338 18.282 27.0671 18.3625C27.1005 18.443 27.1318 18.5243 27.1612 18.6063C27.1905 18.6884 27.2179 18.7711 27.2432 18.8545C27.2684 18.9379 27.2917 19.0218 27.3129 19.1063C27.334 19.1908 27.3531 19.2758 27.3701 19.3613C27.3871 19.4468 27.402 19.5326 27.4148 19.6188C27.4276 19.705 27.4382 19.7914 27.4468 19.8781C27.4553 19.9648 27.4617 20.0517 27.466 20.1388C27.4703 20.2258 27.4724 20.3129 27.4724 20.4C27.4724 20.4871 27.4703 20.5742 27.466 20.6612C27.4617 20.7483 27.4553 20.8351 27.4468 20.9219C27.4382 21.0085 27.4276 21.095 27.4148 21.1812C27.402 21.2674 27.3871 21.3532 27.3701 21.4387C27.3531 21.5241 27.334 21.6091 27.3129 21.6937C27.2917 21.7782 27.2684 21.8621 27.2432 21.9455C27.2179 22.0289 27.1905 22.1116 27.1612 22.1936C27.1318 22.2757 27.1005 22.3569 27.0671 22.4374C27.0338 22.5179 26.9985 22.5976 26.9612 22.6763C26.924 22.7551 26.8848 22.8329 26.8437 22.9098C26.8026 22.9866 26.7597 23.0624 26.7149 23.1371C26.6701 23.2119 26.6235 23.2855 26.5751 23.3579C26.5267 23.4304 26.4765 23.5016 26.4247 23.5716C26.3727 23.6415 26.3192 23.7102 26.2639 23.7776C26.2086 23.8449 26.1517 23.9109 26.0932 23.9754C26.0347 24.04 25.9746 24.1031 25.913 24.1647C25.8514 24.2263 25.7883 24.2864 25.7237 24.3449C25.6592 24.4034 25.5932 24.4603 25.5259 24.5156C25.4585 24.5709 25.3898 24.6245 25.3198 24.6764C25.2499 24.7283 25.1787 24.7784 25.1062 24.8268C25.0338 24.8752 24.9602 24.9218 24.8854 24.9666C24.8107 25.0114 24.7349 25.0544 24.6581 25.0954C24.5812 25.1365 24.5034 25.1757 24.4246 25.2129C24.3459 25.2502 24.2662 25.2855 24.1857 25.3188C24.1053 25.3522 24.024 25.3835 23.9419 25.4129C23.8599 25.4422 23.7772 25.4696 23.6938 25.4949C23.6104 25.5201 23.5265 25.5434 23.4419 25.5646C23.3574 25.5857 23.2724 25.6048 23.187 25.6218C23.1015 25.6388 23.0157 25.6537 22.9295 25.6665C22.8433 25.6793 22.7569 25.69 22.6701 25.6985C22.5834 25.707 22.4966 25.7134 22.4095 25.7177C22.3225 25.722 22.2354 25.7241 22.1483 25.7241Z"></path><path id="路径 4" fill-rule="evenodd" style="fill:#FFFFFF" opacity="1" d="M22.1492 21.3653L20.6474 21.3653C20.6345 21.3662 20.6216 21.3666 20.6087 21.3667C20.5958 21.3668 20.5829 21.3665 20.57 21.3657C20.5571 21.3649 20.5443 21.3637 20.5315 21.3621C20.5187 21.3605 20.5059 21.3585 20.4932 21.3561C20.4806 21.3536 20.468 21.3508 20.4555 21.3475C20.443 21.3443 20.4306 21.3406 20.4184 21.3365C20.4061 21.3325 20.394 21.328 20.382 21.3232C20.37 21.3183 20.3582 21.3131 20.3466 21.3075C20.335 21.3018 20.3236 21.2958 20.3123 21.2895C20.3011 21.2831 20.2901 21.2764 20.2793 21.2693C20.2685 21.2622 20.2579 21.2548 20.2476 21.247C20.2373 21.2393 20.2272 21.2311 20.2175 21.2227C20.2077 21.2143 20.1982 21.2056 20.189 21.1965C20.1797 21.1875 20.1708 21.1781 20.1622 21.1685C20.1536 21.1589 20.1453 21.149 20.1374 21.1389C20.1294 21.1287 20.1218 21.1183 20.1145 21.1076C20.1108 21.1026 20.1073 21.0975 20.1039 21.0924C20.1005 21.0872 20.0972 21.082 20.0939 21.0767C20.0907 21.0714 20.0876 21.0661 20.0846 21.0607C20.0816 21.0552 20.0787 21.0498 20.0759 21.0443C20.0731 21.0388 20.0704 21.0332 20.0678 21.0276C20.0652 21.0219 20.0628 21.0163 20.0604 21.0106C20.0581 21.0049 20.0558 20.9991 20.0537 20.9933C20.0516 20.9875 20.0495 20.9816 20.0476 20.9757C20.0457 20.9698 20.0439 20.9639 20.0423 20.958C20.0406 20.952 20.039 20.946 20.0376 20.94C20.0362 20.934 20.0348 20.9279 20.0337 20.9219C20.0324 20.9158 20.0314 20.9097 20.0304 20.9036C20.0294 20.8975 20.0286 20.8914 20.0279 20.8852C20.0271 20.8791 20.0265 20.8729 20.0261 20.8668C20.0256 20.8606 20.0252 20.8544 20.025 20.8482C20.0247 20.8421 20.0246 20.8358 20.0246 20.8297C20.0246 20.8235 20.0247 20.8173 20.025 20.8111C20.0252 20.8049 20.0256 20.7988 20.0261 20.7926C20.0265 20.7864 20.0271 20.7803 20.0279 20.7741C20.0286 20.768 20.0294 20.7619 20.0304 20.7557C20.0314 20.7496 20.0324 20.7435 20.0337 20.7375C20.0348 20.7314 20.0362 20.7253 20.0376 20.7193C20.039 20.7133 20.0406 20.7073 20.0423 20.7014C20.0439 20.6954 20.0457 20.6895 20.0476 20.6836C20.0495 20.6777 20.0516 20.6719 20.0537 20.6661C20.0558 20.6603 20.0581 20.6545 20.0604 20.6488C20.0628 20.6431 20.0652 20.6374 20.0678 20.6318C20.0704 20.6261 20.0731 20.6206 20.0759 20.6151C20.0787 20.6095 20.0816 20.6041 20.0846 20.5987C20.0876 20.5933 20.0907 20.5879 20.0939 20.5826C20.0972 20.5774 20.1005 20.5721 20.1039 20.567C20.1073 20.5618 20.1108 20.5567 20.1145 20.5517C20.1722 20.4758 20.2369 20.4064 20.3086 20.3435C20.3721 20.2817 20.4445 20.227 20.5062 20.167C20.5106 20.1639 20.5148 20.1607 20.5189 20.1574C20.523 20.154 20.527 20.1506 20.5309 20.147C20.5348 20.1434 20.5386 20.1397 20.5423 20.1359C20.546 20.1321 20.5496 20.1282 20.5531 20.1242C20.5565 20.1202 20.5599 20.116 20.5631 20.1119C20.5663 20.1076 20.5694 20.1033 20.5723 20.0989C20.5753 20.0945 20.5781 20.0901 20.5808 20.0855C20.5835 20.0809 20.5861 20.0763 20.5885 20.0716C20.5909 20.0669 20.5932 20.0621 20.5953 20.0572C20.5975 20.0524 20.5995 20.0474 20.6013 20.0425C20.6032 20.0375 20.6049 20.0325 20.6064 20.0274C20.608 20.0224 20.6093 20.0172 20.6106 20.0121C20.6118 20.0069 20.6129 20.0018 20.6139 19.9965C20.6148 19.9913 20.6156 19.9861 20.6162 19.9808C20.6168 19.9755 20.6173 19.9703 20.6176 19.965C20.6179 19.9597 20.6181 19.9544 20.6181 19.9491C20.6181 19.9438 20.6179 19.9385 20.6176 19.9332C20.6173 19.9279 20.6168 19.9226 20.6162 19.9174C20.6156 19.9121 20.6148 19.9068 20.6139 19.9016C20.6129 19.8964 20.6118 19.8912 20.6106 19.8861C20.6093 19.8809 20.608 19.8758 20.6064 19.8707C20.6049 19.8657 20.6032 19.8606 20.6013 19.8557C20.5995 19.8507 20.5975 19.8458 20.5953 19.841C20.5932 19.8361 20.5909 19.8313 20.5885 19.8266C20.5861 19.8219 20.5835 19.8172 20.5808 19.8127C20.5781 19.8081 20.5753 19.8036 20.5723 19.7992C20.5694 19.7948 20.5663 19.7905 20.5631 19.7863C20.5599 19.7821 20.5565 19.778 20.5531 19.774C20.5496 19.77 20.546 19.766 20.5423 19.7622C20.5386 19.7584 20.5348 19.7547 20.5309 19.7512C20.527 19.7476 20.523 19.7441 20.5189 19.7408C20.5148 19.7374 20.5106 19.7342 20.5062 19.7311C20.4233 19.6429 20.3298 19.5547 20.2521 19.4682C20.2333 19.4491 20.2148 19.4297 20.1967 19.4099C20.1786 19.3901 20.161 19.3699 20.1437 19.3494C20.1265 19.3288 20.1096 19.308 20.0932 19.2867C20.0768 19.2655 20.0609 19.244 20.0454 19.2221C20.0298 19.2002 20.0148 19.178 20.0002 19.1556C19.9856 19.1331 19.9714 19.1103 19.9577 19.0872C19.944 19.0642 19.9308 19.0408 19.9181 19.0172C19.9054 18.9936 19.8931 18.9697 19.8814 18.9456C19.8696 18.9215 19.8584 18.8972 19.8476 18.8726C19.8369 18.8481 19.8266 18.8233 19.8169 18.7983C19.8071 18.7733 19.7979 18.7481 19.7892 18.7228C19.7804 18.6974 19.7722 18.6719 19.7646 18.6462C19.7569 18.6205 19.7497 18.5946 19.7431 18.5687C19.7365 18.5427 19.7304 18.5166 19.7249 18.4903C19.7193 18.4641 19.7143 18.4377 19.7098 18.4113C19.7053 18.3848 19.7014 18.3583 19.698 18.3317C19.6956 18.3111 19.6935 18.2904 19.6917 18.2698C19.69 18.2491 19.6885 18.2283 19.6874 18.2076C19.6863 18.1869 19.6856 18.1661 19.6851 18.1454C19.6847 18.1246 19.6846 18.1038 19.6849 18.0831C19.6851 18.0623 19.6857 18.0415 19.6866 18.0208C19.6875 18 19.6888 17.9793 19.6904 17.9586C19.692 17.9379 19.6939 17.9172 19.6962 17.8966C19.6984 17.876 19.701 17.8554 19.7039 17.8348C19.7068 17.8142 19.7101 17.7937 19.7136 17.7733C19.7172 17.7528 19.7212 17.7324 19.7254 17.7121C19.7296 17.6918 19.7342 17.6715 19.7391 17.6513C19.744 17.6311 19.7492 17.611 19.7547 17.591C19.7603 17.571 19.7662 17.5511 19.7724 17.5313C19.7785 17.5114 19.785 17.4917 19.7919 17.4721C19.7987 17.4525 19.8058 17.433 19.8133 17.4136C19.8207 17.3942 19.8285 17.375 19.8366 17.3558C19.8447 17.3367 19.853 17.3177 19.8617 17.2989C19.8704 17.28 19.8794 17.2613 19.8887 17.2427C19.898 17.2241 19.9076 17.2057 19.9175 17.1874C19.9274 17.1692 19.9375 17.1511 19.948 17.1332C19.9585 17.1152 19.9692 17.0975 19.9803 17.0799C19.9913 17.0623 20.0027 17.0449 20.0143 17.0277C20.0259 17.0105 20.0378 16.9934 20.0499 16.9766C20.0621 16.9598 20.0745 16.9431 20.0872 16.9267C20.0999 16.9103 20.1129 16.8941 20.1261 16.878C20.1393 16.862 20.1528 16.8462 20.1665 16.8306C20.1802 16.815 20.1942 16.7997 20.2084 16.7846C20.2227 16.7694 20.2371 16.7545 20.2519 16.7399C20.2666 16.7252 20.2815 16.7108 20.2967 16.6966C20.3119 16.6825 20.3272 16.6685 20.3429 16.6548C20.3585 16.6412 20.3743 16.6277 20.3904 16.6146C20.4065 16.6014 20.4227 16.5885 20.4392 16.5758C20.4599 16.5582 20.4808 16.541 20.5021 16.524C20.5233 16.5071 20.5448 16.4905 20.5665 16.4742C20.5883 16.458 20.6103 16.4421 20.6325 16.4265C20.6548 16.4109 20.6773 16.3957 20.7 16.3809C20.7227 16.366 20.7457 16.3515 20.7689 16.3374C20.7921 16.3233 20.8155 16.3096 20.8391 16.2962C20.8628 16.2828 20.8866 16.2698 20.9107 16.2571C20.9347 16.2445 20.9589 16.2323 20.9833 16.2204C21.0078 16.2085 21.0324 16.1971 21.0572 16.186C21.082 16.1749 21.1069 16.1642 21.132 16.1539C21.1572 16.1436 21.1825 16.1337 21.2079 16.1242C21.2334 16.1147 21.2589 16.1056 21.2847 16.0969C21.3104 16.0882 21.3363 16.0799 21.3622 16.0721C21.3882 16.0642 21.4144 16.0567 21.4406 16.0497C21.4668 16.0427 21.4931 16.036 21.5196 16.0298C21.546 16.0236 21.5725 16.0178 21.5992 16.0125C21.6258 16.0071 21.6525 16.0021 21.6792 15.9976C21.706 15.993 21.7328 15.9889 21.7598 15.9853C21.7867 15.9816 21.8136 15.9783 21.8406 15.9755C21.8676 15.9727 21.8947 15.9703 21.9218 15.9683C21.9489 15.9663 21.976 15.9648 22.0031 15.9637C22.0302 15.9626 22.0574 15.9619 22.0845 15.9616C22.1117 15.9613 22.1388 15.9615 22.166 15.9621C22.1932 15.9627 22.2203 15.9638 22.2474 15.9652C22.2745 15.9667 22.3016 15.9686 22.3287 15.9709C22.3557 15.9732 22.3827 15.9759 22.4097 15.9791C22.4367 15.9823 22.4636 15.9859 22.4904 15.9899C22.5173 15.9939 22.5441 15.9983 22.5708 16.0032C22.5975 16.0081 22.6241 16.0134 22.6507 16.0191C22.6773 16.0248 22.7037 16.0309 22.73 16.0375C22.7564 16.044 22.7827 16.051 22.8088 16.0584C22.8349 16.0657 22.8609 16.0735 22.8868 16.0817C23.7215 16.2564 24.378 16.9041 24.5633 17.737C24.6921 18.3123 24.5333 18.9123 24.138 19.3482C24.0409 19.4664 23.9298 19.5776 23.8204 19.6888C23.6227 19.8882 23.6262 20.0153 23.8345 20.2076C23.9439 20.2994 24.0462 20.3982 24.1451 20.5005C24.1524 20.509 24.1593 20.5176 24.166 20.5266C24.1727 20.5354 24.1792 20.5445 24.1853 20.5539C24.1914 20.5632 24.1972 20.5727 24.2027 20.5824C24.2082 20.5921 24.2134 20.6019 24.2182 20.612C24.2231 20.622 24.2276 20.6322 24.2318 20.6425C24.236 20.6528 24.2398 20.6633 24.2433 20.6739C24.2468 20.6844 24.25 20.6951 24.2528 20.7059C24.2556 20.7167 24.258 20.7276 24.2601 20.7385C24.2622 20.7494 24.264 20.7604 24.2654 20.7715C24.2667 20.7825 24.2677 20.7936 24.2684 20.8048C24.269 20.8159 24.2693 20.827 24.2692 20.8382C24.2692 20.8493 24.2687 20.8604 24.268 20.8715C24.2672 20.8826 24.266 20.8937 24.2645 20.9048C24.2629 20.9158 24.2611 20.9268 24.2588 20.9377C24.2566 20.9486 24.254 20.9594 24.251 20.9702C24.2481 20.9809 24.2448 20.9916 24.2411 21.0021C24.2375 21.0126 24.2335 21.023 24.2292 21.0333C24.2249 21.0436 24.2202 21.0537 24.2152 21.0637C24.2102 21.0736 24.2049 21.0834 24.1993 21.093C24.1937 21.1026 24.1878 21.1121 24.1815 21.1213C24.1753 21.1305 24.1688 21.1395 24.1619 21.1484C24.1551 21.1572 24.148 21.1657 24.1406 21.1741C24.1332 21.1824 24.1256 21.1905 24.1176 21.1984C24.1097 21.2062 24.1016 21.2138 24.0931 21.2211C24.0847 21.2284 24.0761 21.2354 24.0672 21.2422C24.0584 21.2489 24.0493 21.2553 24.04 21.2615C24.0307 21.2676 24.0212 21.2735 24.0116 21.279C24.0019 21.2846 23.992 21.2897 23.982 21.2946C23.972 21.2995 23.9618 21.3041 23.9516 21.3083C23.9412 21.3125 23.9308 21.3164 23.9202 21.32C23.9097 21.3235 23.899 21.3267 23.8882 21.3296C23.8775 21.3324 23.8666 21.3349 23.8557 21.337C23.7908 21.3537 23.7249 21.362 23.658 21.3617L22.1509 21.3617L22.1509 21.3653L22.1492 21.3653ZM26.1427 23.0082L18.1592 23.0082L18.1592 22.2811C18.1595 22.2717 18.16 22.2622 18.1609 22.2528C18.1617 22.2434 18.1627 22.234 18.164 22.2247C18.1652 22.2153 18.1668 22.206 18.1685 22.1967C18.1703 22.1874 18.1722 22.1782 18.1745 22.169C18.1767 22.1598 18.1792 22.1507 18.1819 22.1416C18.1846 22.1326 18.1875 22.1236 18.1906 22.1147C18.1938 22.1058 18.1972 22.097 18.2008 22.0882C18.2044 22.0795 18.2082 22.0708 18.2123 22.0623C18.2163 22.0538 18.2206 22.0453 18.225 22.037C18.2295 22.0287 18.2342 22.0205 18.2391 22.0124C18.244 22.0043 18.2491 21.9963 18.2544 21.9885C18.2597 21.9807 18.2652 21.973 18.2709 21.9655C18.2766 21.958 18.2825 21.9506 18.2886 21.9433C18.2947 21.9361 18.3009 21.929 18.3073 21.9221C18.3138 21.9152 18.3204 21.9084 18.3272 21.9018C18.334 21.8952 18.3409 21.8889 18.348 21.8826C18.3551 21.8764 18.3624 21.8704 18.3698 21.8645C18.3772 21.8587 18.3848 21.853 18.3925 21.8476C18.4002 21.8421 18.4081 21.8368 18.4161 21.8317C18.424 21.8267 18.4321 21.8218 18.4403 21.8172C18.4486 21.8125 18.4569 21.8081 18.4654 21.8039C18.4738 21.7996 18.4824 21.7956 18.4911 21.7919C18.4997 21.7881 18.5085 21.7845 18.5173 21.7812C18.5261 21.7778 18.535 21.7747 18.5441 21.7718C18.5531 21.7689 18.5621 21.7663 18.5713 21.7639C18.5804 21.7614 18.5896 21.7593 18.5988 21.7573C18.6081 21.7554 18.6174 21.7537 18.6267 21.7522C18.6361 21.7507 18.6454 21.7495 18.6548 21.7485C18.6642 21.7475 18.6736 21.7468 18.6831 21.7463C18.6925 21.7458 18.7019 21.7455 18.7114 21.7455C18.7208 21.7454 18.7303 21.7457 18.7397 21.7461C18.7492 21.7466 18.7586 21.7473 18.768 21.7482L25.5109 21.7482C25.5206 21.747 25.5304 21.7461 25.5401 21.7455C25.5499 21.7448 25.5596 21.7444 25.5694 21.7442C25.5791 21.7441 25.5889 21.7442 25.5987 21.7445C25.6084 21.7449 25.6182 21.7455 25.6279 21.7464C25.6377 21.7472 25.6474 21.7484 25.657 21.7498C25.6667 21.7511 25.6763 21.7528 25.6859 21.7547C25.6955 21.7565 25.7051 21.7587 25.7145 21.761C25.724 21.7634 25.7334 21.7661 25.7427 21.7689C25.7521 21.7718 25.7613 21.7749 25.7705 21.7783C25.7797 21.7817 25.7887 21.7852 25.7977 21.7891C25.8067 21.7929 25.8156 21.797 25.8244 21.8013C25.8331 21.8056 25.8418 21.8101 25.8503 21.8149C25.8589 21.8196 25.8673 21.8246 25.8755 21.8298C25.8838 21.835 25.8919 21.8404 25.8999 21.846C25.9079 21.8517 25.9158 21.8575 25.9235 21.8635C25.9311 21.8696 25.9387 21.8758 25.946 21.8822C25.9534 21.8886 25.9606 21.8952 25.9676 21.902C25.9746 21.9088 25.9814 21.9158 25.9881 21.923C25.9947 21.9301 26.0012 21.9375 26.0074 21.945C26.0137 21.9525 26.0198 21.9601 26.0256 21.9679C26.0315 21.9758 26.0371 21.9837 26.0426 21.9918C26.048 22 26.0533 22.0082 26.0583 22.0166C26.0633 22.025 26.0681 22.0335 26.0726 22.0421C26.0772 22.0508 26.0815 22.0595 26.0857 22.0684C26.0898 22.0772 26.0936 22.0862 26.0973 22.0953C26.1009 22.1043 26.1043 22.1135 26.1075 22.1227C26.1106 22.132 26.1135 22.1413 26.1162 22.1507C26.1188 22.1601 26.1213 22.1696 26.1234 22.1791C26.1256 22.1886 26.1275 22.1982 26.1292 22.2078C26.1309 22.2175 26.1323 22.2271 26.1335 22.2368C26.1346 22.2465 26.1355 22.2562 26.1362 22.266C26.1369 22.2757 26.1373 22.2855 26.1374 22.2953C26.1445 22.53 26.1445 22.7682 26.1445 23.0082L26.1427 23.0082ZM18.588 23.9488L18.588 23.2994L25.6115 23.2994C25.6962 23.2994 25.7227 23.3188 25.7209 23.3947L25.7209 23.9594L18.588 23.9488Z"></path></g></g></g><defs><filter id="filter_2" x="-20" y="-20" width="88" height="88" filterUnits="userSpaceOnUse" color-interpolation-filters="sRGB"><feFlood flood-opacity="0" result="BackgroundImageFix"/>
          <feGaussianBlur in="BackgroundImage" stdDeviation="10"/>
          <feComposite in2="SourceAlpha" operator="in" result="effect1_backgroundBlur"/>
          <feBlend mode="normal" in="SourceGraphic" in2="effect1_backgroundBlur" result="shape"/></filter><rect id="path_0" x="0" y="0" width="30" height="30" rx="0" ry="0"/></defs></svg>