<svg xmlns="http://www.w3.org/2000/svg" xmlns:xlink="http://www.w3.org/1999/xlink" width="48" height="48" viewBox="0 0 48 48" fill="none"><g opacity="1"  transform="translate(0 0)"><path id="icon-bg" fill-rule="evenodd" style="fill:#000000" opacity="0.6" d="M24 48L24 48C37.25 48 48 37.25 48 24L48 24C48 10.75 37.25 0 24 0L24 0C10.75 0 0 10.75 0 24L0 24C0 37.25 10.75 48 24 48Z"></path><g opacity="1"  transform="translate(9 11)"><mask id="bg-mask-0" fill="white"><use transform="translate(0 0)" xlink:href="#path_0"></use></mask><g mask="url(#bg-mask-0)" ><path id="路径 1" fill-rule="evenodd" style="fill:#FFFFFF" opacity="1" d="M23.4987 26.0339C23.1732 26.0339 22.978 25.9037 22.1319 25.2529C21.6763 24.9275 20.7651 24.2115 20.4397 24.0814L19.5285 24.0814C9.11494 24.2766 8.98477 24.1464 8.65935 23.8861C8.52918 23.821 7.68308 23.1051 6.77189 22.3892C0.588844 17.5729 0.26342 17.1824 0.133253 16.8569C-0.0620014 16.2712 -0.0620014 15.6203 0.26342 15.0997C0.653929 14.5139 1.36986 14.2536 2.4763 14.2536C3.97325 14.2536 5.8607 15.7505 7.35765 16.922C7.87833 17.3776 8.65935 17.9634 8.91969 18.0285L14.9726 18.0285C15.1678 17.9634 15.3631 17.8332 15.4932 17.7031L14.7122 17.5729C13.9312 17.4427 13.2153 17.3776 12.8248 17.3125C11.7183 17.1173 10.8071 16.0759 10.8071 15.0997C10.8071 14.1234 11.458 12.8868 13.2153 12.8868L19.0729 12.8868C21.3509 12.8868 23.5638 13.6678 25.321 15.1647C30.0071 19.1349 30.0071 19.3953 30.0071 19.7858C30.0071 19.981 29.942 20.1763 29.8119 20.3715C29.6817 20.5017 28.2498 21.8685 26.8831 23.2353C23.8892 26.0339 23.8241 26.0339 23.4987 26.0339Z"></path><path id="路径 2" fill-rule="evenodd" style="fill:#FFFFFF" opacity="1" d="M3.51791 16.4664C2.93215 16.4664 2.47656 16.0108 2.47656 15.4251L2.47656 3.18915C2.47656 1.43186 3.90842 0 5.66572 0L18.2271 0C19.9844 0 21.4162 1.43186 21.4162 3.18915L21.4162 13.2773C21.4162 13.8631 20.9606 14.3186 20.3749 14.3186C19.7891 14.3186 19.3335 13.8631 19.3335 13.2773L19.3335 3.18915C19.3335 2.60339 18.8779 2.1478 18.2922 2.1478L5.66572 2.1478C5.07995 2.1478 4.62435 2.60339 4.62435 3.18915L4.62435 15.4251C4.62435 16.0108 4.10367 16.4664 3.51791 16.4664Z"></path><path id="路径 3" fill-rule="evenodd" style="fill:#FFFFFF" opacity="1" d="M16.2091 7.41969L7.68296 7.41969C7.09719 7.41969 6.6416 6.96409 6.6416 6.37833C6.6416 5.79257 7.09719 5.33698 7.68296 5.33698L16.2091 5.33698C16.7948 5.33698 17.2504 5.79257 17.2504 6.37833C17.3155 6.89901 16.7948 7.41969 16.2091 7.41969Z"></path></g></g></g><defs><rect id="path_0" x="0" y="0" width="30" height="30" rx="0" ry="0"/></defs></svg>