<svg xmlns="http://www.w3.org/2000/svg" xmlns:xlink="http://www.w3.org/1999/xlink" width="48" height="48" viewBox="0 0 48 48" fill="none"><g opacity="1"  transform="translate(0 0)"><path id="icon-bg" fill-rule="evenodd" style="fill:#000000" opacity="0.6" d="M24 48L24 48C37.25 48 48 37.25 48 24L48 24C48 10.75 37.25 0 24 0L24 0C10.75 0 0 10.75 0 24L0 24C0 37.25 10.75 48 24 48Z"></path><g opacity="1"  transform="translate(9 9)"><mask id="bg-mask-0" fill="white"><use transform="translate(0 0)" xlink:href="#path_0"></use></mask><g mask="url(#bg-mask-0)" ><path id="路径 1" fill-rule="evenodd" style="fill:#FFFFFF" opacity="1" d="M21.0656 15.3319C20.4206 15.976 19.4831 16.3238 18.3037 16.4006C18.31 16.4337 18.317 16.4667 18.3247 16.4994C18.3324 16.5322 18.3408 16.5648 18.3499 16.5972C18.3591 16.6297 18.3689 16.6619 18.3794 16.6938C18.3899 16.7258 18.4011 16.7576 18.413 16.7891C18.4248 16.8206 18.4374 16.8519 18.4506 16.8828C18.4638 16.9138 18.4777 16.9445 18.4923 16.9748C18.5068 17.0052 18.522 17.0353 18.5379 17.065C18.5537 17.0947 18.5702 17.124 18.5873 17.153C18.6044 17.1821 18.6222 17.2107 18.6405 17.2389C18.6589 17.2671 18.6778 17.295 18.6974 17.3224C18.7169 17.3498 18.7371 17.3768 18.7578 17.4033C18.7785 17.4299 18.7998 17.456 18.8216 17.4816C18.8435 17.5072 18.8658 17.5324 18.8888 17.5571C18.9117 17.5817 18.9352 17.6059 18.9591 17.6295C18.9831 17.6532 19.0076 17.6763 19.0325 17.6989C19.0575 17.7215 19.083 17.7435 19.1089 17.765C19.1348 17.7865 19.1612 17.8074 19.188 17.8278C19.2148 17.8482 19.2421 17.8679 19.2697 17.8871C19.2974 17.9063 19.3255 17.9249 19.354 17.9428C19.3825 17.9608 19.4113 17.9781 19.4406 17.9949C19.4698 18.0116 19.4994 18.0277 19.5293 18.0431C19.5592 18.0586 19.5895 18.0734 19.62 18.0875C19.6506 18.1016 19.6814 18.1151 19.7126 18.1279C19.7437 18.1407 19.7752 18.1529 19.8068 18.1643C19.8385 18.1758 19.8704 18.1865 19.9025 18.1966C19.9347 18.2067 19.967 18.2161 19.9995 18.2247C20.0321 18.2334 20.0648 18.2414 20.0976 18.2487C20.1305 18.2559 20.1636 18.2625 20.1967 18.2683C20.2299 18.2742 20.2632 18.2793 20.2965 18.2837C20.3299 18.2881 20.3634 18.2918 20.3969 18.2947C20.4305 18.2977 20.4641 18.2999 20.4977 18.3014C20.5314 18.3029 20.565 18.3037 20.5987 18.3038C20.6347 18.3037 20.6706 18.3027 20.7065 18.301C20.7424 18.2992 20.7783 18.2966 20.8141 18.2932C20.8499 18.2898 20.8856 18.2855 20.9212 18.2805C20.9568 18.2754 20.9923 18.2695 21.0276 18.2628C21.063 18.2561 21.0981 18.2486 21.1331 18.2402C21.1681 18.2319 21.2028 18.2227 21.2374 18.2128C21.272 18.2029 21.3063 18.1921 21.3403 18.1806C21.3744 18.1691 21.4082 18.1568 21.4417 18.1437C21.4752 18.1306 21.5084 18.1167 21.5412 18.1021C21.5741 18.0875 21.6066 18.0721 21.6387 18.056C21.6709 18.0399 21.7026 18.023 21.734 18.0054C21.7653 17.9878 21.7963 17.9695 21.8268 17.9505C21.8573 17.9315 21.8874 17.9117 21.917 17.8913C21.9466 17.8709 21.9758 17.8498 22.0044 17.8281C22.033 17.8063 22.0611 17.7839 22.0887 17.7609C22.1163 17.7378 22.1434 17.7141 22.1699 17.6898C22.1964 17.6655 22.2223 17.6406 22.2477 17.6151C22.273 17.5896 22.2978 17.5635 22.3219 17.5369C22.3461 17.5102 22.3696 17.483 22.3925 17.4553C22.4154 17.4276 22.4376 17.3993 22.4592 17.3706C22.4808 17.3418 22.5017 17.3125 22.5219 17.2828C22.5421 17.2531 22.5617 17.2229 22.5805 17.1922C22.5994 17.1616 22.6175 17.1306 22.6349 17.0991C22.6523 17.0676 22.6689 17.0358 22.6849 17.0035C22.7008 16.9713 22.716 16.9387 22.7304 16.9058C22.7449 16.8728 22.7585 16.8395 22.7714 16.806C22.7843 16.7724 22.7964 16.7385 22.8077 16.7044C22.819 16.6703 22.8296 16.6359 22.8393 16.6013C22.849 16.5667 22.858 16.5318 22.8661 16.4968C22.8742 16.4618 22.8815 16.4266 22.888 16.3912C22.8945 16.3558 22.9002 16.3203 22.905 16.2847C22.9099 16.2491 22.914 16.2133 22.9171 16.1775C22.1109 16.0303 21.4575 15.6244 21.0693 15.3272L21.0656 15.3319Z"></path><path id="路径 2" fill-rule="evenodd" style="fill:#FFFFFF" opacity="1" d="M25.3969 23.4394L15.6356 23.4394C15.6356 23.4394 15.6244 23.4197 15.6356 23.37C16.1306 21.0628 18.165 19.32 20.6175 19.32C23.0963 19.32 25.1503 21.0975 25.6181 23.4394L25.3988 23.4394L25.3969 23.4394ZM14.1862 23.4394L4.6875 23.4394C4.64625 23.4394 4.61063 23.4206 4.57125 23.4159C4.51875 23.4094 4.47375 23.3841 4.42313 23.3691C4.91906 21.0628 6.95344 19.3191 9.405 19.3191C11.8837 19.3191 13.9388 21.0975 14.4066 23.4394L14.1862 23.4394ZM9.37313 13.3125C9.41651 13.3125 9.45984 13.3136 9.50317 13.3158C9.5465 13.318 9.58975 13.3212 9.6329 13.3255C9.67605 13.3298 9.71909 13.3351 9.76201 13.3416C9.8049 13.348 9.84762 13.3554 9.89016 13.3639C9.9327 13.3724 9.975 13.3819 10.0171 13.3925C10.0591 13.4031 10.1009 13.4147 10.1424 13.4273C10.1839 13.4399 10.2251 13.4535 10.2659 13.4682C10.3068 13.4828 10.3472 13.4984 10.3873 13.5151C10.4273 13.5317 10.467 13.5493 10.5062 13.5679C10.5454 13.5864 10.5841 13.6059 10.6224 13.6264C10.6606 13.6469 10.6983 13.6683 10.7355 13.6905C10.7727 13.7128 10.8093 13.7361 10.8454 13.7602C10.8815 13.7843 10.9169 13.8093 10.9518 13.8351C10.9866 13.861 11.0208 13.8877 11.0543 13.9152C11.0878 13.9427 11.1207 13.971 11.1528 14.0002C11.1849 14.0293 11.2163 14.0592 11.247 14.0899C11.2777 14.1205 11.3076 14.1519 11.3367 14.1841C11.3659 14.2162 11.3942 14.249 11.4217 14.2826C11.4492 14.3161 11.4759 14.3503 11.5018 14.3851C11.5276 14.42 11.5526 14.4554 11.5767 14.4915C11.6008 14.5275 11.624 14.5642 11.6463 14.6014C11.6686 14.6385 11.69 14.6763 11.7105 14.7145C11.731 14.7528 11.7505 14.7915 11.769 14.8307C11.7876 14.8699 11.8052 14.9095 11.8218 14.9496C11.8384 14.9897 11.8541 15.0301 11.8687 15.071C11.8833 15.1118 11.897 15.1529 11.9096 15.1944C11.9222 15.236 11.9338 15.2777 11.9444 15.3198C11.9549 15.3619 11.9645 15.4042 11.973 15.4467C11.9815 15.4893 11.9889 15.532 11.9953 15.5749C12.0017 15.6178 12.0071 15.6608 12.0114 15.704C12.0156 15.7471 12.0189 15.7904 12.0211 15.8337C12.0232 15.877 12.0243 15.9204 12.0244 15.9638C12.0243 16.0071 12.0232 16.0505 12.021 16.0938C12.0189 16.1371 12.0156 16.1803 12.0113 16.2235C12.0071 16.2667 12.0017 16.3097 11.9953 16.3526C11.9889 16.3955 11.9815 16.4382 11.973 16.4807C11.9645 16.5232 11.9549 16.5655 11.9444 16.6076C11.9338 16.6497 11.9222 16.6915 11.9096 16.7329C11.8969 16.7745 11.8833 16.8156 11.8687 16.8564C11.854 16.8972 11.8384 16.9377 11.8218 16.9777C11.8052 17.0178 11.7876 17.0575 11.769 17.0966C11.7504 17.1358 11.7309 17.1746 11.7105 17.2128C11.69 17.251 11.6686 17.2888 11.6463 17.3259C11.624 17.3631 11.6008 17.3997 11.5767 17.4358C11.5525 17.4719 11.5276 17.5073 11.5017 17.5421C11.4759 17.577 11.4492 17.6111 11.4216 17.6447C11.3941 17.6782 11.3658 17.711 11.3367 17.7431C11.3075 17.7753 11.2776 17.8066 11.247 17.8373C11.2163 17.868 11.1849 17.8979 11.1527 17.927C11.1206 17.9561 11.0878 17.9844 11.0542 18.012C11.0207 18.0395 10.9865 18.0661 10.9517 18.092C10.9169 18.1178 10.8814 18.1428 10.8454 18.1669C10.8093 18.191 10.7726 18.2142 10.7355 18.2365C10.6983 18.2588 10.6605 18.2801 10.6223 18.3006C10.5841 18.321 10.5453 18.3405 10.5061 18.3591C10.4669 18.3776 10.4273 18.3952 10.3872 18.4118C10.3472 18.4284 10.3067 18.4441 10.2659 18.4587C10.225 18.4733 10.1839 18.4869 10.1424 18.4995C10.1009 18.5121 10.0591 18.5237 10.017 18.5343C9.97494 18.5448 9.93264 18.5544 9.89013 18.5628C9.84759 18.5713 9.80487 18.5788 9.76195 18.5851C9.71906 18.5915 9.67603 18.5969 9.63287 18.6011C9.58972 18.6054 9.54647 18.6086 9.50317 18.6108C9.45984 18.6129 9.41651 18.614 9.37313 18.6141C9.32977 18.614 9.28644 18.6129 9.24314 18.6107C9.1998 18.6086 9.15659 18.6053 9.11344 18.6011C9.07028 18.5967 9.02728 18.5914 8.98438 18.585C8.94149 18.5786 8.89878 18.5712 8.85627 18.5627C8.81376 18.5542 8.77146 18.5447 8.72941 18.5341C8.68734 18.5235 8.64557 18.5119 8.60408 18.4993C8.5626 18.4867 8.52144 18.4731 8.48063 18.4584C8.43981 18.4438 8.39939 18.4282 8.35934 18.4116C8.31929 18.395 8.27965 18.3774 8.24048 18.3588C8.20128 18.3403 8.16255 18.3207 8.12432 18.3003C8.08608 18.2798 8.04838 18.2585 8.0112 18.2362C7.97402 18.2138 7.9374 18.1906 7.90137 18.1666C7.8653 18.1424 7.82988 18.1175 7.79505 18.0916C7.76021 18.0658 7.72605 18.0391 7.69254 18.0116C7.65902 17.9841 7.62621 17.9558 7.59407 17.9266C7.56193 17.8975 7.53056 17.8677 7.49988 17.837C7.46921 17.8063 7.43933 17.7749 7.4102 17.7428C7.38108 17.7107 7.35278 17.6779 7.32527 17.6443C7.29776 17.6108 7.27107 17.5767 7.24523 17.5418C7.21939 17.507 7.19443 17.4716 7.17032 17.4355C7.14621 17.3995 7.12301 17.3629 7.10071 17.3257C7.07842 17.2885 7.05703 17.2508 7.03658 17.2125C7.01613 17.1743 6.99662 17.1356 6.97808 17.0964C6.9595 17.0572 6.94192 17.0176 6.92531 16.9775C6.9087 16.9375 6.89306 16.8971 6.87844 16.8563C6.86382 16.8154 6.8502 16.7743 6.83757 16.7328C6.82494 16.6913 6.81337 16.6495 6.80279 16.6075C6.79222 16.5654 6.7827 16.5231 6.7742 16.4806C6.7657 16.4381 6.75826 16.3954 6.75187 16.3525C6.74546 16.3096 6.74013 16.2666 6.73582 16.2234C6.73154 16.1803 6.72832 16.1371 6.72615 16.0937C6.72396 16.0504 6.72284 16.0071 6.72281 15.9638C6.72284 15.9204 6.72396 15.877 6.72609 15.8337C6.72823 15.7904 6.73145 15.7472 6.73573 15.704C6.74001 15.6609 6.74534 15.6178 6.75173 15.5749C6.75812 15.532 6.76556 15.4893 6.77405 15.4467C6.78252 15.4042 6.79204 15.3619 6.80259 15.3199C6.81316 15.2778 6.82474 15.236 6.83733 15.1945C6.84996 15.153 6.86358 15.1119 6.8782 15.071C6.89282 15.0302 6.90844 14.9897 6.92505 14.9497C6.94166 14.9096 6.95924 14.87 6.97778 14.8308C6.99633 14.7916 7.01584 14.7528 7.03629 14.7146C7.05674 14.6764 7.07812 14.6386 7.10042 14.6014C7.12271 14.5642 7.14592 14.5276 7.17 14.4915C7.19411 14.4555 7.21907 14.42 7.24491 14.3852C7.27075 14.3503 7.29741 14.3162 7.32492 14.2826C7.35243 14.2491 7.38076 14.2163 7.40988 14.1841C7.439 14.152 7.46889 14.1206 7.49956 14.0899C7.53023 14.0592 7.56161 14.0293 7.59375 14.0002C7.62589 13.9711 7.6587 13.9427 7.69222 13.9152C7.72573 13.8877 7.75992 13.861 7.79476 13.8352C7.82959 13.8093 7.86501 13.7843 7.90107 13.7602C7.93711 13.7361 7.97373 13.7129 8.01094 13.6906C8.04811 13.6683 8.08585 13.6469 8.12408 13.6264C8.16231 13.6059 8.20105 13.5864 8.24022 13.5679C8.27941 13.5493 8.31905 13.5317 8.3591 13.5151C8.39915 13.4985 8.43961 13.4828 8.48045 13.4682C8.52126 13.4536 8.56242 13.4399 8.60394 13.4273C8.64542 13.4147 8.6872 13.4031 8.72927 13.3925C8.77134 13.3819 8.81364 13.3724 8.85615 13.3639C8.89869 13.3554 8.94141 13.348 8.9843 13.3416C9.02719 13.3351 9.07022 13.3298 9.11338 13.3255C9.15653 13.3212 9.19978 13.318 9.2431 13.3158C9.28641 13.3136 9.32974 13.3125 9.37313 13.3125ZM17.9625 15.9525L17.9747 15.9516L17.9719 15.9375C17.9719 15.8941 17.973 15.8508 17.9752 15.8074C17.9773 15.7641 17.9805 15.7208 17.9848 15.6777C17.9891 15.6345 17.9944 15.5915 18.0008 15.5486C18.0072 15.5056 18.0146 15.4629 18.0231 15.4204C18.0316 15.3778 18.0411 15.3355 18.0517 15.2934C18.0622 15.2514 18.0738 15.2096 18.0864 15.168C18.099 15.1265 18.1126 15.0854 18.1272 15.0445C18.1418 15.0037 18.1574 14.9632 18.1741 14.9231C18.1907 14.883 18.2082 14.8434 18.2268 14.8042C18.2453 14.765 18.2648 14.7262 18.2853 14.688C18.3057 14.6497 18.3271 14.612 18.3494 14.5748C18.3717 14.5375 18.3949 14.5009 18.419 14.4648C18.4431 14.4287 18.468 14.3933 18.4939 14.3584C18.5197 14.3236 18.5464 14.2894 18.5739 14.2558C18.6014 14.2223 18.6297 14.1894 18.6588 14.1573C18.688 14.1251 18.7178 14.0937 18.7485 14.063C18.7792 14.0323 18.8106 14.0024 18.8427 13.9732C18.8748 13.9441 18.9076 13.9157 18.9412 13.8882C18.9747 13.8606 19.0088 13.8339 19.0437 13.8081C19.0785 13.7822 19.1139 13.7572 19.15 13.7331C19.1861 13.7089 19.2227 13.6857 19.2599 13.6634C19.297 13.641 19.3348 13.6196 19.373 13.5991C19.4112 13.5786 19.45 13.5591 19.4892 13.5405C19.5283 13.5219 19.568 13.5043 19.608 13.4876C19.6481 13.471 19.6886 13.4554 19.7294 13.4407C19.7702 13.426 19.8114 13.4123 19.8529 13.3997C19.8944 13.3871 19.9361 13.3754 19.9782 13.3648C20.0203 13.3542 20.0626 13.3447 20.1051 13.3361C20.1476 13.3276 20.1904 13.3201 20.2333 13.3137C20.2762 13.3073 20.3192 13.3019 20.3624 13.2976C20.4055 13.2933 20.4488 13.29 20.4921 13.2878C20.5354 13.2856 20.5788 13.2845 20.6222 13.2844C20.6656 13.2844 20.709 13.2855 20.7523 13.2877C20.7957 13.2898 20.839 13.293 20.8821 13.2973C20.9254 13.3016 20.9684 13.3069 21.0113 13.3133C21.0543 13.3197 21.097 13.3272 21.1396 13.3357C21.1822 13.3442 21.2245 13.3537 21.2666 13.3643C21.3087 13.3748 21.3505 13.3864 21.392 13.399C21.4336 13.4117 21.4748 13.4253 21.5156 13.4399C21.5565 13.4546 21.597 13.4702 21.6371 13.4868C21.6772 13.5035 21.7168 13.5211 21.7561 13.5397C21.7953 13.5582 21.834 13.5778 21.8723 13.5982C21.9106 13.6187 21.9483 13.6401 21.9855 13.6625C22.0228 13.6848 22.0594 13.708 22.0955 13.7321C22.1316 13.7562 22.1671 13.7812 22.2019 13.8071C22.2368 13.833 22.271 13.8597 22.3045 13.8872C22.3381 13.9148 22.3709 13.9431 22.4031 13.9723C22.4352 14.0014 22.4667 14.0314 22.4974 14.0621C22.528 14.0928 22.5579 14.1242 22.5871 14.1564C22.6162 14.1885 22.6446 14.2214 22.6721 14.255C22.6997 14.2885 22.7263 14.3227 22.7522 14.3576C22.7781 14.3924 22.803 14.4279 22.8272 14.464C22.8513 14.5001 22.8745 14.5368 22.8968 14.574C22.9191 14.6112 22.9405 14.649 22.961 14.6873C22.9814 14.7255 23.0009 14.7643 23.0195 14.8035C23.038 14.8428 23.0556 14.8825 23.0723 14.9226C23.0889 14.9627 23.1045 15.0031 23.1191 15.044C23.1338 15.0849 23.1474 15.1261 23.16 15.1676C23.1726 15.2092 23.1842 15.251 23.1947 15.2931C23.2053 15.3352 23.2148 15.3775 23.2233 15.4201C23.2317 15.4627 23.2392 15.5054 23.2455 15.5484C23.2519 15.5913 23.2573 15.6343 23.2615 15.6775C23.2658 15.7207 23.269 15.764 23.2711 15.8074C23.2733 15.8507 23.2743 15.8941 23.2744 15.9375C23.2744 15.9713 23.265 16.0022 23.265 16.0359C23.2622 16.3922 23.3278 17.8294 24.2962 19.3819L23.7544 19.3819C23.7059 19.2984 23.6591 19.2139 23.614 19.1285C23.5688 19.0431 23.5254 18.9569 23.4836 18.8698C23.4419 18.7827 23.4019 18.6948 23.3636 18.6061C23.3253 18.5174 23.2888 18.4281 23.254 18.338C23.2193 18.2479 23.1863 18.1571 23.1551 18.0657C23.1239 17.9742 23.0946 17.8823 23.067 17.7897C23.0394 17.6972 23.0137 17.6041 22.9898 17.5105C22.966 17.4169 22.9439 17.3229 22.9237 17.2284C22.8962 17.2777 22.8671 17.3259 22.8365 17.3733C22.8058 17.4207 22.7737 17.467 22.7401 17.5123C22.7065 17.5576 22.6715 17.6018 22.6351 17.6449C22.5986 17.688 22.5609 17.7298 22.5217 17.7705C22.4826 17.8111 22.4423 17.8505 22.4006 17.8886C22.359 17.9266 22.3162 17.9633 22.2722 17.9987C22.2282 18.034 22.1832 18.0679 22.137 18.1003C22.0909 18.1327 22.0438 18.1637 21.9956 18.1931C21.9722 18.2081 21.9459 18.2203 21.9225 18.2334C21.8434 18.278 21.7623 18.3185 21.6791 18.3548C21.596 18.3912 21.5111 18.4232 21.4247 18.4509C21.3731 18.4669 21.3244 18.4847 21.2728 18.4978C21.1667 18.5264 21.0592 18.5483 20.9503 18.5633C20.8415 18.5784 20.7321 18.5866 20.6222 18.5878C20.3953 18.5878 20.1787 18.5503 19.9678 18.4969C19.9163 18.4828 19.8684 18.4659 19.8178 18.45C19.729 18.4212 19.6419 18.388 19.5565 18.3502C19.4711 18.3125 19.3879 18.2704 19.3069 18.2241C19.2853 18.2119 19.2638 18.2025 19.2431 18.1894C19.1945 18.1593 19.1469 18.1276 19.1003 18.0945C19.0537 18.0613 19.0083 18.0267 18.9639 17.9906C18.9195 17.9546 18.8764 17.9171 18.8344 17.8782C18.7925 17.8393 18.7518 17.7991 18.7125 17.7577C18.6732 17.7162 18.6352 17.6735 18.5986 17.6295C18.562 17.5856 18.5268 17.5405 18.4931 17.4943C18.4594 17.4481 18.4272 17.4009 18.3966 17.3526C18.3659 17.3043 18.3369 17.2551 18.3094 17.205C18.2894 17.3005 18.2675 17.3956 18.2437 17.4903C18.2199 17.5849 18.1942 17.6791 18.1666 17.7727C18.139 17.8663 18.1096 17.9593 18.0783 18.0518C18.047 18.1442 18.0138 18.236 17.9788 18.3271C17.9438 18.4182 17.907 18.5086 17.8684 18.5982C17.8298 18.6878 17.7894 18.7766 17.7471 18.8646C17.705 18.9526 17.661 19.0398 17.6153 19.126C17.5697 19.2122 17.5223 19.2975 17.4731 19.3819L16.9284 19.3819C18.0469 17.5931 17.9625 15.9684 17.9616 15.9525L17.9625 15.9525ZM18.7463 9.40406L18.7463 7.52906L24.3713 7.52906L24.3713 9.40406L18.7463 9.40406ZM25.3125 3.75L4.6875 3.75C3.13688 3.75 1.875 5.01188 1.875 6.5625L1.875 23.4375C1.875 24.375 2.34094 25.2019 3.04688 25.7138C3.07637 25.7354 3.10627 25.7564 3.13658 25.7769C3.16691 25.7974 3.19764 25.8172 3.22875 25.8364C3.25986 25.8557 3.29134 25.8743 3.32317 25.8923C3.35503 25.9103 3.38722 25.9276 3.41974 25.9444C3.45228 25.9611 3.48513 25.9772 3.51829 25.9926C3.55146 26.008 3.58492 26.0227 3.61869 26.0368C3.65244 26.0509 3.68646 26.0644 3.72073 26.0771C3.75503 26.0899 3.78955 26.1019 3.8243 26.1133C3.85906 26.1247 3.89404 26.1354 3.92924 26.1454C3.96442 26.1554 3.99978 26.1647 4.03532 26.1733C4.07089 26.1819 4.1066 26.1898 4.14246 26.1969C4.17832 26.2041 4.21432 26.2106 4.25045 26.2164C4.28656 26.2221 4.32278 26.2272 4.35911 26.2315C4.39544 26.2358 4.43184 26.2394 4.4683 26.2423C4.50477 26.2452 4.54127 26.2474 4.57781 26.2488C4.61435 26.2502 4.65092 26.2509 4.6875 26.2509L25.3125 26.2509C25.3484 26.2509 25.3844 26.2502 25.4203 26.2489C25.4563 26.2475 25.4921 26.2454 25.528 26.2426C25.5639 26.2398 25.5996 26.2363 25.6354 26.2321C25.6711 26.2279 25.7067 26.2231 25.7422 26.2175C25.7778 26.212 25.8132 26.2058 25.8484 26.1988C25.8837 26.1919 25.9189 26.1843 25.9538 26.176C25.9888 26.1677 26.0237 26.1587 26.0583 26.1491C26.0929 26.1394 26.1274 26.1292 26.1616 26.1182C26.1959 26.1072 26.2299 26.0955 26.2637 26.0832C26.2975 26.0709 26.331 26.058 26.3643 26.0444C26.3976 26.0308 26.4306 26.0166 26.4633 26.0017C26.4961 25.9868 26.5285 25.9713 26.5606 25.9552C26.5928 25.939 26.6246 25.9223 26.6561 25.9049C26.6876 25.8875 26.7187 25.8696 26.7495 25.851C26.7803 25.8324 26.8107 25.8132 26.8407 25.7935C26.8708 25.7737 26.9004 25.7534 26.9297 25.7325C26.9526 25.7164 26.9753 25.7 26.9977 25.6833C27.0201 25.6665 27.0423 25.6494 27.0642 25.632C27.0862 25.6146 27.1078 25.5969 27.1292 25.5788C27.1506 25.5607 27.1717 25.5423 27.1925 25.5236C27.2134 25.505 27.2339 25.4859 27.2542 25.4666C27.2745 25.4473 27.2945 25.4277 27.3141 25.4078C27.3338 25.3879 27.3532 25.3677 27.3723 25.3472C27.3913 25.3267 27.4101 25.306 27.4286 25.2849C27.447 25.2638 27.4652 25.2425 27.483 25.2209C27.5008 25.1994 27.5183 25.1775 27.5355 25.1554C27.5527 25.1333 27.5695 25.1109 27.586 25.0883C27.6025 25.0656 27.6186 25.0428 27.6344 25.0197C27.6502 24.9966 27.6657 24.9732 27.6808 24.9497C27.6959 24.9261 27.7107 24.9023 27.7251 24.8783C27.7395 24.8543 27.7535 24.8301 27.7672 24.8057C27.7809 24.7812 27.7942 24.7566 27.8072 24.7318C27.8201 24.707 27.8326 24.6819 27.8449 24.6567C27.857 24.6316 27.8689 24.6062 27.8803 24.5806C27.8917 24.5551 27.9028 24.5293 27.9134 24.5034C27.9241 24.4776 27.9344 24.4515 27.9443 24.4253C27.9541 24.3991 27.9636 24.3728 27.9727 24.3463C27.9818 24.3199 27.9905 24.2933 27.9988 24.2665C28.0071 24.2398 28.015 24.2129 28.0225 24.1859C28.03 24.159 28.0371 24.1319 28.0438 24.1047C28.0505 24.0775 28.0567 24.0502 28.0626 24.0229C28.0685 23.9955 28.0739 23.968 28.079 23.9405C28.084 23.913 28.0887 23.8854 28.0929 23.8577C28.0971 23.83 28.1009 23.8023 28.1043 23.7745C28.1077 23.7467 28.1107 23.7188 28.1133 23.6909C28.1158 23.6631 28.1179 23.6352 28.1197 23.6072C28.1214 23.5793 28.1227 23.5513 28.1236 23.5233C28.1245 23.4954 28.1249 23.4674 28.125 23.4394L28.125 6.5625C28.125 5.01188 26.8631 3.75 25.3125 3.75Z"></path></g></g></g><defs><rect id="path_0" x="0" y="0" width="30" height="30" rx="0" ry="0"/></defs></svg>