<svg xmlns="http://www.w3.org/2000/svg" xmlns:xlink="http://www.w3.org/1999/xlink" width="100" height="100" viewBox="0 0 100 100" fill="none"><g opacity="1"  transform="translate(0 0)"><mask id="mask-0" fill="white"><path d="M0 100L100 100L100 0L0 0L0 100Z"  ></path></mask><path d="M0 100L100 100L100 0L0 0L0 100Z"  ></path><g mask="url(#mask-0)"><path id="Vector" fill-rule="evenodd" style="fill:#E3D1FF" d="M53.8556 78.2646C51.9856 77.5446 48.8856 77.4746 46.9556 78.1046L22.8855 85.9946C20.9455 86.6346 20.8955 87.7346 22.7655 88.4646L46.0256 97.4546C47.8956 98.1746 50.9956 98.2446 52.9356 97.6146L77.0057 89.7246C78.9457 89.0846 78.9957 87.9746 77.1257 87.2546L53.8556 78.2646Z"></path></g><g mask="url(#mask-0)"><path id="Vector" fill-rule="evenodd" style="fill:#BB9BFF" d="M46.9121 92.9122C46.9121 92.9122 47.1121 92.9822 47.2021 93.0122C47.2021 93.0122 47.2121 93.0122 47.2221 93.0122L47.7421 93.1522L47.7821 93.1622L48.1021 93.2222C48.4921 93.2822 48.5321 93.2922 48.5321 93.2922L48.6821 93.3022C48.6821 93.3022 48.9121 93.3322 48.9321 93.3322L49.4421 93.3622L49.8621 93.3622C50.2221 93.3622 50.3221 93.3522 50.3221 93.3522L50.7721 93.3222L51.0521 93.2922C51.1221 93.2822 51.2721 93.2622 51.2721 93.2622L51.6721 93.1922L51.9221 93.1322L51.9621 93.1222L70.352 87.1022C70.552 87.0322 70.592 87.0122 70.592 87.0122L70.712 86.9622L71.022 86.8022C71.192 86.6822 71.242 86.6422 71.242 86.6422C71.352 86.5222 71.392 86.4722 71.392 86.4722C71.402 86.4622 71.412 86.4522 71.412 86.4522C71.412 86.4522 71.432 86.4122 71.442 86.3922C71.492 86.2522 71.502 86.1922 71.502 86.1922L71.612 80.3122L71.602 80.3822C71.602 80.3822 71.562 80.4922 71.562 80.5022L71.492 80.2622C71.492 80.2622 71.482 80.3522 71.482 80.3722C71.422 80.5022 71.412 80.5322 71.412 80.5322C71.402 80.5422 71.382 80.5722 71.382 80.5722L71.322 80.6522C71.172 80.7922 71.142 80.8122 71.142 80.8122L70.932 80.9422C70.672 81.0722 70.572 81.1122 70.572 81.1122C70.572 81.1122 70.542 81.1222 70.522 81.1222L52.3021 87.1022C52.2221 87.1322 52.0421 87.1822 52.0421 87.1822C51.9121 87.2222 51.8221 87.2422 51.7221 87.2622C51.7221 87.2622 51.5321 87.3022 51.4321 87.3122L51.0121 87.3722C50.7421 87.4022 50.5121 87.4122 50.5121 87.4122C50.2121 87.4322 50.0721 87.4322 50.0721 87.4322C50.0721 87.4322 49.8221 87.4322 49.7421 87.4322L49.3221 87.4222L48.9421 87.3822C48.8521 87.3822 48.6821 87.3622 48.6821 87.3622L48.3321 87.3122C48.3321 87.3122 48.1121 87.2722 48.0421 87.2522C48.0121 87.2522 47.9621 87.2322 47.9621 87.2322C47.5821 87.1422 47.4921 87.1222 47.4021 87.0922C47.4021 87.0922 47.2221 87.0322 47.1421 87.0022L29.6421 80.2422L29.4821 80.1722C29.4821 80.1722 29.4621 80.1622 29.4421 80.1522C29.2621 80.0622 29.1921 80.0222 29.1921 80.0222C29.1921 80.0222 29.0421 79.9322 29.0421 79.9322C29.0021 79.9022 28.9321 79.8522 28.9321 79.8522C28.9321 79.8522 28.8721 79.8022 28.8521 79.7722C28.7321 79.6422 28.7021 79.5922 28.7021 79.5922C28.7021 79.5922 28.6621 79.5122 28.6521 79.4922C28.6221 79.3522 28.6121 79.3022 28.6121 79.3022L28.6121 79.6522C28.6121 79.6522 28.5921 79.6322 28.5921 79.6222C28.5121 79.4922 28.4921 79.4022 28.4921 79.3222L28.3721 85.1922C28.3621 85.5322 28.7221 85.8822 29.4421 86.1622L46.9121 92.9122ZM28.4921 79.3022C28.4921 79.3122 28.4921 79.3222 28.4921 79.3222L28.4921 79.3022Z"></path></g><g mask="url(#mask-0)"><g opacity="1"  transform="translate(9.767578125 1.8603515625)"><g opacity="1"  transform="translate(0 47.20947265625)"><path id="Vector" fill-rule="evenodd" style="fill:#E3D1FF" opacity="1" d="M80.2303 26.028L80.4403 15.068L80.4203 15.208C80.4203 15.208 80.3503 15.408 80.3403 15.418L80.2203 14.988C80.2203 14.988 80.1903 15.148 80.1803 15.188C80.0903 15.428 80.0603 15.488 80.0603 15.488C80.0403 15.518 80.0203 15.558 80.0203 15.558L79.9003 15.708C79.6203 15.958 79.5603 16.008 79.5603 16.008L79.1803 16.248C78.6803 16.488 78.5003 16.558 78.5003 16.558C78.5003 16.558 78.4503 16.578 78.4103 16.588L44.5102 27.7181C44.3602 27.7681 44.0402 27.8581 44.0402 27.8581C43.7902 27.9281 43.6202 27.9681 43.4402 27.9981C43.4402 27.9981 43.0702 28.0781 42.8902 28.1081L42.1202 28.2181C41.6202 28.2681 41.1902 28.2881 41.1902 28.2881C40.6202 28.3181 40.3702 28.3281 40.3702 28.3281C40.3702 28.3281 39.9002 28.3281 39.7502 28.3181L38.9802 28.2981L38.2601 28.2381C38.1001 28.2281 37.7901 28.1881 37.7901 28.1881L37.1401 28.0881C37.1401 28.0881 36.7301 28.0181 36.5901 27.9881C36.5301 27.9781 36.4401 27.9581 36.4401 27.9581C35.7401 27.7881 35.5601 27.7381 35.4001 27.6781C35.4001 27.6781 35.0601 27.5681 34.9101 27.5081L2.37001 14.948L2.07001 14.818C2.07001 14.818 2.02001 14.798 2.00001 14.788C1.65001 14.618 1.52001 14.538 1.52001 14.538C1.52001 14.538 1.26 14.378 1.24 14.368C1.17 14.318 1.05 14.218 1.05 14.218C1.05 14.218 0.930004 14.118 0.880003 14.078C0.670003 13.838 0.610002 13.738 0.610002 13.738C0.610002 13.738 0.530002 13.598 0.510002 13.548C0.460002 13.298 0.450002 13.198 0.450002 13.198L0.440002 13.848C0.440002 13.848 0.410002 13.808 0.400002 13.788C0.260001 13.548 0.220001 13.388 0.220001 13.248L0 24.148C-0.0200001 24.788 0.640002 25.438 1.99001 25.958L34.4801 38.5081C34.4801 38.5081 34.8601 38.6481 35.0401 38.6981C35.0401 38.6981 35.0501 38.7081 35.0601 38.7081L36.0301 38.9681L36.1101 38.9781L36.7001 39.0981C37.4301 39.2081 37.5101 39.2181 37.5101 39.2181L37.7901 39.2481C37.7901 39.2481 38.2101 39.2881 38.2402 39.2981L39.1902 39.3481L39.9702 39.3581C40.6402 39.3481 40.8302 39.3381 40.8302 39.3381L41.6702 39.2781L42.2002 39.2181C42.3202 39.2081 42.6002 39.1681 42.6002 39.1681L43.3402 39.0381L43.8102 38.9281L43.8802 38.9081L78.0803 27.7081C78.4603 27.5781 78.5403 27.5481 78.5403 27.5481L78.7603 27.4481L79.3403 27.1481C79.6603 26.9281 79.7403 26.8581 79.7403 26.8581C79.9703 26.6281 80.0303 26.528 80.0303 26.528C80.0503 26.5081 80.0603 26.4881 80.0603 26.4881C80.0603 26.4881 80.1003 26.4181 80.1203 26.378C80.2203 26.118 80.2303 26.028 80.2303 26.028ZM0.220001 13.198C0.220001 13.218 0.220001 13.228 0.220001 13.248L0.220001 13.198Z"></path><path id="Vector" fill-rule="evenodd" fill="url(#linear_0)" opacity="1" d="M45.8304 0.83C43.2004 -0.18 38.8404 -0.28 36.1204 0.61L2.29043 11.69C-0.43957 12.58 -0.51957 14.13 2.12043 15.15L34.8204 27.77C37.4504 28.78 41.8104 28.88 44.5304 27.99L78.3704 16.91C81.1004 16.02 81.1704 14.47 78.5404 13.45L45.8304 0.83Z"></path><g filter="url(#filter_8)"><path id="Vector" fill-rule="evenodd" fill="url(#linear_1)" opacity="1" d="M44.1369 4.63297C42.2669 3.91297 39.1668 3.84297 37.2368 4.47297L13.1668 12.363C11.2268 13.003 11.1768 14.103 13.0468 14.833L36.3068 23.823C38.1768 24.543 41.2769 24.613 43.2169 23.983L67.2869 16.093C69.2269 15.453 69.2769 14.343 67.4069 13.623L44.1369 4.63297Z"></path><path  id="Vector" style="fill:#FFFFFF; opacity:0.19;" d="M44.0341 4.89994M44.0341 4.89994Q40.7383 3.63095 37.3256 4.74492L13.2559 12.6348Q11.9888 13.0529 11.9638 13.5779Q11.9392 14.0935 13.1508 14.5665L36.41 23.5562Q39.7019 24.8237 43.1285 23.7109L67.1978 15.8212Q68.4648 15.4032 68.4899 14.8744Q68.5146 14.356 67.3042 13.89L44.0338 4.89982L44.0341 4.89994ZM44.24 4.36612L67.5097 13.356Q69.1057 13.9705 69.0614 14.9016Q69.0177 15.8233 67.376 16.3648L43.3052 24.2551Q39.6857 25.4305 36.2037 24.0899L12.9427 15.0995Q11.3481 14.477 11.3923 13.5506Q11.436 12.6327 13.0777 12.0912L37.1481 4.20102Q40.7541 3.02394 44.2396 4.366L44.24 4.36612Z"></path></g></g><g opacity="1"  transform="translate(22.791015625 54.418701171875)"><g id="Vector" filter="url(#filter_11)"><path id="Vector" fill-rule="evenodd" style="fill:#6100DC" opacity="0.5" d="M19.6102 1.75551C18.4802 1.31551 16.6001 1.27551 15.4401 1.65551L0.900008 6.42555C-0.270002 6.80556 -0.300003 7.47556 0.830007 7.90557L14.8801 13.3356C16.0101 13.7756 17.8802 13.8156 19.0502 13.4356L33.5903 8.67557C34.7603 8.28557 34.7903 7.61556 33.6603 7.18556L19.6102 1.75551Z"></path></g><path id="Vector" fill-rule="evenodd" fill="url(#linear_2)" opacity="1" d="M19.6102 0.360003C18.4802 -0.0800007 16.6001 -0.120001 15.4401 0.260002L0.900008 5.03005C-0.270002 5.41005 -0.300003 6.08005 0.830007 6.51006L14.8801 11.9401C16.0101 12.3801 17.8802 12.4201 19.0502 12.0401L33.5903 7.28007C34.7603 6.89006 34.7903 6.22006 33.6603 5.79005L19.6102 0.360003Z"></path><path id="Vector" style="fill:url(#linear_3); opacity:100" d="M19.568 0.468359M19.568 0.468359Q18.7419 0.146708 17.5337 0.118749Q16.3299 0.0908917 15.4763 0.370504L0.936254 5.14053Q0.135213 5.4007 0.118655 5.7567Q0.102282 6.10872 0.871363 6.40138L14.9221 11.8316Q15.7485 12.1534 16.9528 12.1814Q18.1532 12.2092 19.0143 11.9295L33.5541 7.16956Q34.3551 6.90257 34.3717 6.54468Q34.388 6.19138 33.6189 5.89873L19.5683 0.468465L19.568 0.468359ZM19.6521 0.251541L33.7017 5.68137Q34.6281 6.03392 34.604 6.55544Q34.58 7.07273 33.6265 7.39057L19.0861 12.1507Q18.1873 12.4426 16.9475 12.4139Q15.7022 12.385 14.8382 12.0486L0.788652 6.61874Q-0.137853 6.26617 -0.113655 5.7459Q-0.0896218 5.2292 0.863762 4.91956L15.4039 0.1495Q16.2954 -0.142529 17.5391 -0.113749Q18.7882 -0.084844 19.6524 0.251648L19.6521 0.251541Z"></path></g><g opacity="1"  transform="translate(13.48828125 0)"><path id="Vector" fill-rule="evenodd" fill="url(#linear_4)" opacity="0.3" d="M0 61.3201L26.5101 71.5402L27.1301 0.619881L0 -0.00012207L0 61.3201Z"></path><path id="Vector" fill-rule="evenodd" fill="url(#linear_5)" opacity="0.3" d="M27.1258 0.621948L26.5059 71.5408L54.2554 62.5409L54.2554 1.22194L27.1258 0.621948Z"></path></g></g></g><g mask="url(#mask-0)"><g opacity="1"  transform="translate(24.904296875 22.68115234375)"><path id="Vector" fill-rule="evenodd" style="fill:#444444" opacity="1" d="M34.0777 9.50247L32.8036 8.76139C32.7946 8.75339 32.7776 8.74438 32.7686 8.74438L34.0577 9.49347C34.0627 9.49847 34.0707 9.49947 34.0777 9.50247ZM34.0927 9.51147C34.0887 9.50647 34.0837 9.50447 34.0777 9.50247L34.0927 9.51147Z"></path><path id="Vector" fill-rule="evenodd" style="fill:#424242" opacity="1" d="M34.1715 9.54583L32.8817 8.79696C32.8557 8.78796 32.8297 8.77096 32.8037 8.76196L34.0935 9.51084C34.1195 9.51984 34.1455 9.53583 34.1715 9.54583Z"></path><path id="Vector" fill-rule="evenodd" style="fill:#404040" opacity="1" d="M32.8898 8.80163C32.8898 8.80263 32.8908 8.80363 32.8908 8.80563C32.8908 8.80563 34.1713 9.5549 34.1713 9.5459L32.8898 8.80163ZM32.8818 8.79663L32.8898 8.80163C32.8878 8.79663 32.8818 8.79663 32.8818 8.79663Z"></path><path id="Union" fill-rule="evenodd" style="fill:#8357E1" opacity="1" d="M0.930275 29.3614L0.430705 29.0704C0.390705 29.0503 0.160702 28.8003 0.160702 28.8003L0.0507006 28.5203C0.0507006 28.5203 0.0407005 28.4903 0.000700008 28.2203L0.000700008 27.9703C0.000700008 27.9703 0.0107001 27.9003 0.0607007 27.5903L0.120701 27.3303C0.120701 27.3303 0.130702 27.2903 0.240703 26.9803L0.370704 26.7203L0.550707 26.4203L15.3409 4.01005C15.3409 4.01005 15.3909 3.95005 15.5309 3.75005C15.5409 3.72004 15.6309 3.62004 15.6309 3.62004C15.6709 3.56004 15.7709 3.46004 15.7709 3.46004L15.8909 3.35004L16.1509 3.15004C16.1809 3.13004 16.2709 3.08004 16.2709 3.08004C16.2709 3.08004 16.4009 3.01004 16.6909 2.90003C16.7309 2.89003 16.8909 2.87003 16.8909 2.87003L17.2109 2.91004L22.431 4.78006L22.431 2.24003L22.501 1.94002C22.511 1.93002 22.591 1.65002 22.591 1.65002C22.591 1.65002 22.601 1.65002 22.731 1.40002L22.931 1.09001C22.931 1.09001 22.961 1.06001 23.021 0.980012C23.051 0.970012 23.271 0.750009 23.271 0.750009L23.461 0.630008L24.301 0.140002C24.351 0.110001 24.601 0.0200002 24.601 0.0200002C24.611 0.0200002 24.811 0 24.811 0C24.811 0 24.861 0.0100001 25.041 0.0700008L26.231 0.80001C26.231 0.80001 26.2033 0.794462 26.0941 0.783365L26.9537 1.31072C26.9537 1.31072 26.9037 1.30072 26.6737 1.28072L26.4237 1.35072C26.3737 1.36072 26.2837 1.41072 26.2837 1.41072L25.4437 1.90072C25.4437 1.90072 25.3337 1.96072 25.1137 2.15073L25.0737 2.18073C25.0537 2.20073 24.8737 2.41073 24.8737 2.41073C24.8737 2.41073 24.8537 2.44073 24.8537 2.45073L24.7037 2.68073C24.7037 2.68073 24.6637 2.74073 24.5837 2.92074C24.5837 2.92074 24.5537 3.00074 24.5337 3.04074L24.4537 3.33074C24.4537 3.36074 24.4237 3.52074 24.4237 3.52074C24.4237 3.52074 24.4137 3.64074 24.4137 3.70074L24.4237 6.06077L19.0836 4.15075C19.0836 4.15075 19.0236 4.14075 18.7636 4.16075C18.7236 4.16075 18.6336 4.19075 18.6336 4.19075L18.2436 4.35075C18.2136 4.38075 17.9936 4.52075 17.9936 4.52075C17.9736 4.54075 17.7336 4.75076 17.7336 4.75076C17.6836 4.80076 17.4336 5.10076 17.4336 5.10076C17.4136 5.12076 17.3036 5.28076 17.3036 5.28076L2.54343 27.701C2.54343 27.701 2.46343 27.811 2.34343 28.051C2.34343 28.051 2.33343 28.081 2.24343 28.281C2.24343 28.281 2.19343 28.371 2.18343 28.431C2.17343 28.441 2.10343 28.661 2.10343 28.661L2.05342 28.911L2.01342 29.2311L2.02342 29.5711C2.02342 29.5911 2.09343 29.8611 2.09343 29.8611C2.09343 29.8911 2.17343 30.0511 2.17343 30.0511C2.18343 30.0811 2.24343 30.1611 2.24343 30.1611C2.28343 30.1911 2.34343 30.2611 2.34343 30.2611C2.34343 30.2611 2.39343 30.3011 2.42343 30.3211L1.15341 29.5811C1.12489 29.5668 0.999731 29.4356 0.930275 29.3614ZM32.0452 8.2328L33.3352 8.98281L32.928 8.83665L34.0578 9.49352L27.2877 7.06349L25.9977 6.31348L26.4049 6.45963L25.2751 5.80277L32.0452 8.2328ZM6.68488 24.263L5.39487 23.503L5.42487 36.6531C5.42487 37.2732 5.69487 37.7432 6.11487 37.9832L6.49104 38.2036C6.58939 38.3212 6.7061 38.4188 6.83748 38.4939L8.1175 39.2439C7.71749 39.0039 7.44749 38.5439 7.43749 37.9139L7.40749 24.7737L6.68507 24.3481L6.68488 24.263Z"></path><path id="Vector" fill-rule="evenodd" fill="url(#linear_6)" opacity="1" d="M9.6335 39.1579L27.0737 29.0878C28.1637 28.4678 29.2437 26.5778 29.2437 25.3278L29.2037 12.1777L32.1637 13.2377C32.4437 13.3477 32.7737 13.2777 33.1137 13.0877C33.5437 12.8277 33.9737 12.3677 34.2637 11.7877C34.7937 10.7477 34.6837 9.71764 34.0537 9.49764L27.2837 7.06762L27.3637 6.53762L27.3637 1.98757C27.3537 1.33757 26.8837 1.06757 26.3137 1.39757L25.4636 1.88757C24.8936 2.21758 24.4336 3.02758 24.4336 3.67759L24.4436 6.03761L19.2136 4.16759C18.9436 4.06759 18.6036 4.13759 18.2736 4.3276C17.9436 4.5176 17.6036 4.8376 17.3336 5.2576L2.57344 27.6778C1.93344 28.6478 1.83344 29.7778 2.36344 30.2178C2.66344 30.4578 3.08345 30.4278 3.52345 30.1778C3.85345 29.9878 4.18346 29.6678 4.46346 29.2478L7.40349 24.7678L7.44349 37.9179C7.44349 39.1679 8.5435 39.7879 9.6335 39.1579Z"></path><path fill-rule="evenodd" id="Vector" style="fill:url(#linear_7); opacity:100" d="M7.40477 25.1897L7.44349 37.9179C7.44349 39.1679 8.5435 39.7879 9.6335 39.1579L27.0737 29.0878C28.1637 28.4678 29.2437 26.5778 29.2437 25.3278L29.2044 12.425L29.2037 12.1777L29.4365 12.261L32.1637 13.2377C32.4437 13.3477 32.7737 13.2777 33.1137 13.0877C33.5437 12.8277 33.9737 12.3677 34.2637 11.7877C34.7937 10.7477 34.6837 9.71764 34.0537 9.49764L27.2837 7.06762L27.3637 6.53762L27.3637 1.98757C27.3537 1.33757 26.8837 1.06757 26.3137 1.39757L25.4636 1.88757C24.8936 2.21758 24.4336 3.02758 24.4336 3.67759L24.4426 5.79026L24.4436 6.03761L24.2107 5.95433L19.2136 4.16759C18.9436 4.06759 18.6036 4.13759 18.2736 4.3276C17.9436 4.5176 17.6036 4.8376 17.3336 5.2576L2.57344 27.6778C1.93344 28.6478 1.83344 29.7778 2.36344 30.2178C2.66344 30.4578 3.08345 30.4278 3.52345 30.1778C3.85345 29.9878 4.18346 29.6678 4.46346 29.2478L7.172 25.1205L7.40349 24.7678L7.40477 25.1897ZM27.1311 6.52015L27.1311 1.98757Q27.1257 1.63584 26.9341 1.52748Q26.7416 1.41854 26.4302 1.59883L25.5798 2.08905Q24.6662 2.61798 24.6662 3.67759L24.6776 6.36824L19.1353 4.38658Q18.8322 4.27433 18.3896 4.52914Q17.8954 4.81367 17.5292 5.38336L2.76769 27.8057Q1.72519 29.3857 2.51199 30.0389Q2.83811 30.2997 3.40856 29.9756Q3.87953 29.7045 4.26996 29.1188L7.63369 23.9931L7.67604 37.9172Q7.67605 38.7193 8.24419 39.0405Q8.81431 39.3628 9.51713 38.9566L9.51722 38.9565L26.9574 28.8864Q29.0111 27.7182 29.0111 25.3278L28.9701 11.847L32.2454 13.0199L32.2487 13.0212Q32.5454 13.1378 32.9968 12.8866Q33.6535 12.4881 34.0557 11.6837Q34.421 10.9669 34.3622 10.3575Q34.3118 9.83409 33.9771 9.7172L27.0252 7.22193L27.1311 6.52015Z"></path><path id="Vector" fill-rule="evenodd" style="fill:#8357E1" opacity="1" d="M16.59 22.0281C15.39 22.7281 14.4199 24.4082 14.4199 25.7982L14.4499 34.2085L20.9902 30.4184L20.9602 22.0181C20.9602 20.628 19.9801 20.068 18.7801 20.768L16.59 22.0281Z"></path><path id="Vector" fill-rule="evenodd" style="fill:#E0D4FF" opacity="1" d="M16.3338 23.5741C16.3238 23.5941 16.3038 23.6141 16.3038 23.6141C16.3038 23.6141 16.2538 23.6841 16.2138 23.7241L16.1638 23.7941C16.1638 23.7941 16.1338 23.8241 16.1138 23.8541C16.0438 23.9441 16.0338 23.9641 16.0138 23.9941L15.9438 24.084L15.9038 24.144C15.8438 24.234 15.8038 24.294 15.7738 24.354L15.6638 24.534C15.6538 24.544 15.6438 24.574 15.6338 24.594C15.6338 24.594 15.5738 24.694 15.5738 24.724C15.5738 24.724 15.5238 24.824 15.5038 24.884C15.4638 24.974 15.4138 25.104 15.4138 25.104L15.4038 25.144C15.3638 25.244 15.3438 25.304 15.3438 25.304C15.3038 25.414 15.2938 25.474 15.2938 25.474C15.2638 25.554 15.2438 25.624 15.2438 25.624L15.2238 25.734C15.2238 25.734 15.2038 25.824 15.1938 25.844C15.1938 25.844 15.1738 25.964 15.1638 26.024L15.1638 26.074L15.1538 26.174C15.1338 26.334 15.1338 26.504 15.1338 26.504L15.1638 34.9039L16.1038 35.4539L16.0738 27.054C16.0738 27.054 16.0738 26.894 16.0838 26.804C16.1038 26.674 16.1138 26.574 16.1138 26.574C16.1138 26.504 16.1238 26.454 16.1338 26.394C16.1738 26.234 16.1838 26.164 16.1838 26.164C16.2038 26.104 16.2338 26.004 16.2338 26.004L16.2538 25.914C16.2738 25.854 16.3238 25.744 16.3238 25.744C16.3238 25.744 16.3338 25.694 16.3438 25.674L16.4438 25.434C16.4838 25.344 16.5138 25.274 16.5438 25.204C16.6138 25.064 16.6538 25.004 16.6838 24.934C16.7438 24.814 16.7938 24.744 16.8438 24.674C16.8438 24.674 16.8638 24.624 16.8838 24.614L16.9938 24.454L17.0538 24.374C17.0838 24.334 17.1138 24.284 17.1438 24.254C17.1738 24.214 17.2038 24.184 17.2338 24.144C17.2638 24.114 17.3238 24.0541 17.3238 24.0541C17.3638 24.0041 17.4138 23.9441 17.4638 23.8941L17.5638 23.8041C17.5638 23.8041 17.6138 23.7541 17.6338 23.7341L17.7537 23.6241C17.7838 23.6041 17.8137 23.5841 17.8337 23.5641C17.8737 23.5241 17.9237 23.4941 17.9737 23.4641C17.9737 23.4641 18.0137 23.4241 18.0437 23.4141C18.1137 23.3741 18.1837 23.3241 18.2537 23.2841L20.4337 22.0241C20.5037 21.9841 20.5637 21.9541 20.6337 21.9141C20.6437 21.9341 20.6737 21.9141 20.6737 21.9141C20.7337 21.8941 20.8037 21.8641 20.8637 21.8341C20.9237 21.8241 21.0337 21.7941 21.0337 21.7941C21.0537 21.7841 21.0937 21.7741 21.1237 21.7741L21.2337 21.7641C21.2637 21.7641 21.2937 21.7541 21.2937 21.7541L21.4637 21.7541C21.4637 21.7541 21.5837 21.7641 21.6337 21.7641L21.6637 21.7741L21.7937 21.8141C21.8037 21.8141 21.8237 21.8241 21.8237 21.8241C21.8537 21.8341 21.8737 21.8441 21.9037 21.8541L21.0237 21.3441C21.0237 21.3441 20.9437 21.2941 20.9037 21.2841C20.8737 21.2641 20.8537 21.2641 20.8537 21.2641C20.8337 21.2541 20.7837 21.2441 20.7837 21.2441L20.7237 21.2241C20.7237 21.2241 20.7037 21.2241 20.6937 21.2241C20.6337 21.2041 20.5837 21.2041 20.5437 21.1941L20.3637 21.1941C20.3437 21.1941 20.2937 21.2041 20.2937 21.2041C20.2737 21.2041 20.2337 21.2141 20.2337 21.2141C20.2137 21.2141 20.1737 21.2241 20.1737 21.2241C20.1537 21.2241 20.0937 21.2341 20.0937 21.2341C20.0737 21.2341 20.0437 21.2441 20.0437 21.2441C20.0037 21.2541 19.9737 21.2641 19.9237 21.2841L19.7837 21.3341L19.7337 21.3641C19.6137 21.4241 19.5537 21.4441 19.4837 21.4941L17.3038 22.7541L17.0938 22.8841C17.0638 22.9041 17.0238 22.9241 17.0238 22.9241C16.9838 22.9641 16.8838 23.0341 16.8838 23.0341C16.8638 23.0541 16.8338 23.0741 16.8038 23.0941C16.7638 23.1241 16.6838 23.1941 16.6838 23.1941C16.6538 23.2241 16.6338 23.2441 16.6138 23.2641C16.5938 23.2841 16.5738 23.3141 16.5738 23.3141C16.5738 23.3141 16.5338 23.3441 16.5238 23.3641C16.4738 23.4141 16.4338 23.4641 16.3838 23.5241L16.3338 23.5741ZM21.9637 21.8941C21.9437 21.8741 21.9237 21.8641 21.9037 21.8541L21.9637 21.8941Z"></path><path id="Vector" fill-rule="evenodd" style="fill:#FFFFFF" opacity="1" d="M18.2365 23.3C17.0364 24.0001 16.0664 25.6801 16.0664 27.0702L16.0964 35.4805L22.6367 31.6904L22.6067 23.29C22.6067 21.9 21.6266 21.34 20.4266 22.04L18.2365 23.3Z"></path><path id="Vector" fill-rule="evenodd" style="fill:#9E7F1D" opacity="1" d="M40.6921 32.1486L39.3022 31.3486L36.0625 29.4988L37.4524 30.3087L40.6921 32.1486Z"></path></g></g><g mask="url(#mask-0)"><g opacity="1"  transform="translate(51.3310546875 43.33056640625)"><path id="Vector" fill-rule="evenodd" style="fill:#C68620" opacity="1" d="M6.78545 0.85604L7.60808 1.33994C7.67808 1.35994 7.69808 1.35994 7.69808 1.35994L7.76808 1.35994C7.85807 1.34994 7.87807 1.33994 7.87807 1.33994C7.87807 1.33994 7.92807 1.32994 7.95807 1.31994L8.07806 1.25995L9.22802 0.589975C9.25801 0.579975 9.30801 0.549976 9.30801 0.549976C9.30801 0.549976 9.32801 0.549976 9.32801 0.539977L9.43801 0.499978C9.518 0.479979 9.548 0.479979 9.548 0.479979L9.688 0.479979L9.80799 0.519978L8.96803 0.0499978C8.89803 0.0199991 8.88803 0.0199991 8.88803 0.0199991C8.88803 0.0199991 8.81803 0 8.79803 0L8.67804 0L8.61804 0.00999957C8.61804 0.00999957 8.54804 0.0299987 8.52805 0.0399983C8.52805 0.0399983 8.45805 0.0599974 8.45805 0.069997L7.2281 0.769967L7.11811 0.829964L7.02811 0.859963C7.02811 0.859963 6.97811 0.869962 6.96811 0.869962L6.85812 0.879962C6.85812 0.879962 6.82812 0.869962 6.80812 0.859963C6.80037 0.859963 6.79262 0.858461 6.78545 0.85604ZM6.78545 0.85604C6.77412 0.852213 6.76425 0.846088 6.75812 0.839964L6.78545 0.85604ZM1.35836 12.2895C1.35836 12.4595 1.44835 12.6895 1.44835 12.6895C1.48835 12.7494 1.52835 12.7994 1.58835 12.8194L2.42831 13.3194C2.28832 13.2294 2.20832 13.0494 2.20832 12.7794L2.20832 11.4595C2.20832 11.2295 2.06832 11.0695 1.93833 10.9995L1.08837 10.4995C1.21836 10.5795 1.35836 10.7295 1.35836 10.9595L1.35836 12.2895Z"></path><path id="Vector" fill-rule="evenodd" style="fill:#FFCD2E" opacity="1" d="M5.57641 1.48317L4.75642 2.88316C4.55642 3.15315 4.34642 3.43315 4.14642 3.55315L2.99643 4.21315C2.51643 4.49314 2.18644 5.07314 2.18644 5.61313L2.18644 6.94312C2.18644 7.17312 2.11644 7.45312 1.91644 7.72312L1.10644 9.20311C0.776446 9.7831 0.776446 10.3331 1.11644 10.5231L1.92644 10.9931C2.06644 11.0631 2.19643 11.2231 2.19643 11.4631L2.20643 12.7831C2.21643 13.3331 2.55643 13.5231 3.02643 13.2531L4.18642 12.5831C4.38642 12.4631 4.58642 12.4231 4.72642 12.5831L5.53641 13.0531C5.70641 13.1431 5.90641 13.1231 6.11641 13.0131C6.3164 12.8931 6.5264 12.6831 6.6864 12.3831L7.49639 10.9831C7.63639 10.7531 7.83639 10.4831 8.04639 10.3631L9.19638 9.7031C9.67638 9.42311 10.0064 8.84311 10.0064 8.29311L9.99638 6.97312C9.99638 6.74313 10.0664 6.46313 10.2764 6.19313L11.0864 4.78314C11.4864 4.16315 11.4864 3.54315 11.1464 3.42315L10.0564 2.80316L10.0564 1.09317C10.0464 0.543173 9.70638 0.353175 9.23638 0.623173L8.08639 1.29317C7.88639 1.40317 7.67639 1.44317 7.53639 1.29317L6.7264 0.823171C6.5564 0.723172 6.3464 0.753172 6.1464 0.863171C5.94641 0.98317 5.73641 1.20317 5.57641 1.48317Z"></path><path id="Vector" fill-rule="evenodd" style="fill:#C68620" opacity="1" d="M4.72969 0.974975L3.90971 2.39494L3.75971 2.60494L3.70971 2.66493L3.67971 2.69493L3.61971 2.76493L3.60971 2.78493L3.50972 2.88493L3.47972 2.91493C3.39972 2.97493 3.38972 2.99493 3.38972 2.99493L3.29972 3.05492L2.14975 3.72491L1.99975 3.81491C1.99975 3.82491 1.98975 3.83491 1.98975 3.83491C1.98975 3.83491 1.89975 3.9049 1.85975 3.9449C1.83976 3.9549 1.83976 3.9649 1.83976 3.9649L1.77976 4.0249L1.75976 4.0449C1.75976 4.0449 1.70976 4.1049 1.70976 4.1149L1.67976 4.1449L1.61976 4.2249L1.60976 4.2449C1.60976 4.2449 1.55976 4.31489 1.55976 4.32489L1.52976 4.39489C1.51976 4.42489 1.50976 4.43489 1.50976 4.43489C1.46976 4.53489 1.45976 4.56489 1.45976 4.56489C1.44976 4.57489 1.44976 4.59489 1.44976 4.59489C1.44976 4.59489 1.43977 4.61489 1.42977 4.62489L1.40977 4.72488C1.37977 4.83488 1.37977 4.84488 1.37977 4.84488C1.36977 4.87488 1.36977 4.90488 1.35977 4.93488L1.34977 5.13487L1.34977 6.45484C1.34977 6.50484 1.34977 6.55484 1.33977 6.60484C1.32977 6.69484 1.31977 6.72484 1.31977 6.72484L1.29977 6.81483L1.28977 6.83483L1.25977 6.91483C1.25977 6.91483 1.21977 6.98483 1.20977 7.01483L1.14977 7.12483C1.11977 7.16483 1.07977 7.22482 1.07977 7.22482L0.259794 8.71479C0.249794 8.73479 0.219795 8.78479 0.219795 8.78479C0.219795 8.78479 0.199795 8.82479 0.189795 8.83479L0.139797 8.93478L0.0997976 9.02478L0.0897978 9.05478L0.0597986 9.16478C0.0597986 9.16478 0.039799 9.24477 0.0297993 9.25478C0.0297993 9.25478 0.0197995 9.34477 0.00979976 9.36477L-0.000199995 9.46477L-0.000199995 9.59477L0.00979976 9.68476C0.00979976 9.68476 0.0197995 9.74476 0.0297993 9.76476L0.0497988 9.78476C0.0497988 9.78476 0.0797981 9.85476 0.0897978 9.86476C0.119797 9.90476 0.129797 9.92476 0.129797 9.92476L0.169796 9.96476C0.209795 10.0048 0.249794 10.0348 0.249794 10.0348L1.10977 10.5247L1.03977 10.4747L1.02978 10.4647C0.979776 10.4147 0.969777 10.3947 0.969777 10.3947L0.939777 10.3547C0.939777 10.3547 0.899778 10.3047 0.899778 10.2848L0.889778 10.2648C0.859779 10.1548 0.849779 10.0948 0.849779 10.0948L0.849779 9.96476C0.849779 9.96476 0.859779 9.86476 0.859779 9.85476C0.859779 9.85476 0.879779 9.77476 0.889778 9.75476C0.899778 9.69477 0.919778 9.65477 0.919778 9.65477C0.919778 9.64477 0.929778 9.62477 0.929778 9.62477C0.949777 9.54477 0.959777 9.52477 0.959777 9.52477C0.959777 9.52477 0.979776 9.46477 0.999776 9.43477C0.999776 9.43477 1.02978 9.36477 1.03977 9.33477C1.07977 9.27477 1.08977 9.24477 1.10977 9.21478L1.91975 7.73481C1.91975 7.73481 1.93975 7.70481 1.94975 7.69481L2.00975 7.59482C2.06975 7.48482 2.07975 7.46482 2.08975 7.45482L2.12975 7.35482C2.12975 7.35482 2.13975 7.29482 2.14975 7.28482C2.14975 7.28482 2.14975 7.26482 2.15975 7.25482C2.15975 7.25482 2.16975 7.19482 2.16975 7.18483C2.18975 7.05483 2.18975 7.00483 2.18975 6.95483L2.18975 5.63486L2.19975 5.46487L2.19975 5.43487C2.21975 5.34487 2.21975 5.32487 2.21975 5.32487L2.24975 5.22487C2.24975 5.22487 2.25975 5.15487 2.27974 5.13487C2.27974 5.13487 2.29974 5.05488 2.31974 5.02488L2.31974 5.01488C2.31974 5.01488 2.33974 4.96488 2.35974 4.93488L2.40974 4.83488C2.40974 4.83488 2.41974 4.83488 2.41974 4.82488C2.47974 4.74488 2.47974 4.72488 2.48974 4.72488C2.55974 4.62489 2.58974 4.59489 2.58974 4.59489C2.58974 4.59489 2.62974 4.54489 2.62974 4.53489L2.68973 4.47489L2.70973 4.44489C2.74973 4.40489 2.83973 4.33489 2.83973 4.33489C2.89973 4.2949 2.99973 4.2249 2.99973 4.2249L4.1497 3.56491L4.2397 3.50491L4.2697 3.47491C4.2897 3.46492 4.3297 3.42492 4.3297 3.42492L4.35969 3.39492L4.44969 3.30492C4.45969 3.28492 4.47969 3.27492 4.47969 3.27492C4.47969 3.27492 4.50969 3.23492 4.52969 3.20492L4.55969 3.17492C4.55969 3.17492 4.58969 3.14492 4.59969 3.12492L4.75969 2.90493L5.57967 1.50496L5.63966 1.40497C5.63966 1.40497 5.68966 1.33497 5.69966 1.31497C5.69966 1.31497 5.75966 1.25497 5.76966 1.23497C5.77966 1.22497 5.79966 1.19497 5.79966 1.19497C5.84966 1.13497 5.88966 1.09497 5.88966 1.09497L5.94966 1.03497L5.98966 0.994975L6.01965 0.974975L6.07965 0.924977C6.10965 0.904977 6.14965 0.874978 6.14965 0.874978C6.17965 0.854978 6.21965 0.844979 6.24965 0.824979C6.25965 0.824979 6.26965 0.814979 6.26965 0.814979L6.32965 0.80498C6.40965 0.78498 6.43964 0.77498 6.43964 0.77498L6.51964 0.77498L6.58964 0.78498C6.58964 0.78498 6.62964 0.79498 6.64964 0.80498C6.64964 0.80498 6.70964 0.824979 6.71964 0.834979L7.53962 1.30497L6.67964 0.79498L5.86966 0.324991C5.84966 0.314991 5.80966 0.304992 5.80966 0.304992L5.76966 0.284992L5.65966 0.264993L5.54967 0.264993C5.54967 0.264993 5.53967 0.264993 5.52967 0.274992L5.41967 0.304992L5.38967 0.314991C5.35967 0.324991 5.31967 0.344991 5.28967 0.36499C5.21967 0.414989 5.19967 0.424989 5.19967 0.424989L5.12968 0.484987L5.08968 0.524986L5.05968 0.544986C5.05968 0.544986 4.99968 0.614984 4.97968 0.634984L4.89968 0.744981C4.82968 0.844979 4.79968 0.874978 4.79968 0.874978L4.72969 0.974975ZM5.15968 7.69481L4.1397 7.33482L3.69971 8.02481L5.44967 9.11478C5.73966 8.03481 6.68964 5.69486 7.84961 3.76491L7.73961 3.53491C6.47964 5.17487 5.56967 6.86483 5.15968 7.69481Z"></path><path id="Vector" fill-rule="evenodd" style="fill:#E8CFAC" opacity="1" d="M5.35356 7.65485L5.29356 7.78486C5.29356 7.78486 5.27355 7.81487 5.26355 7.82487C5.24355 7.88487 5.21355 7.92488 5.19355 7.97488L4.17344 7.62485L3.7334 8.30492L4.35346 8.66495L4.80351 7.98488L5.81361 8.33492C5.83361 8.28492 5.86361 8.24491 5.88362 8.19491C5.88362 8.19491 5.90362 8.1649 5.91362 8.1549C5.91362 8.1549 5.95362 8.07489 5.98363 8.02489C5.98363 8.02489 5.99363 8.00489 5.99363 7.99489C6.02363 7.93488 6.05363 7.88487 6.09364 7.82487C6.10364 7.78486 6.13364 7.74486 6.14364 7.71486C6.14364 7.71486 6.18365 7.64485 6.20365 7.60485C6.22365 7.56484 6.26366 7.48483 6.26366 7.48483C6.29366 7.44483 6.31366 7.40483 6.33366 7.36482C6.35366 7.32482 6.37367 7.28481 6.40367 7.24481L6.47368 7.1248C6.49368 7.07479 6.52368 7.03479 6.54368 6.98478C6.56369 6.94478 6.59369 6.90478 6.62369 6.86477C6.63369 6.83477 6.64369 6.80477 6.6637 6.78476L6.77371 6.60474C6.78371 6.57474 6.81371 6.54474 6.82371 6.50473C6.86372 6.45473 6.89372 6.39472 6.92372 6.34472C6.94372 6.31472 6.97373 6.27471 6.99373 6.23471C7.03373 6.1847 7.06374 6.1247 7.09374 6.07469C7.12374 6.04469 7.14374 6.00468 7.16375 5.96468C7.19375 5.92468 7.21375 5.89467 7.24375 5.85467C7.32376 5.72466 7.40377 5.59464 7.49378 5.47463C7.50378 5.46463 7.50378 5.44463 7.51378 5.43463C7.60379 5.29461 7.6938 5.1546 7.79381 5.01458C7.82381 4.98458 7.84382 4.94458 7.87382 4.90457C7.93382 4.82456 7.99383 4.74456 8.05384 4.66455C8.08384 4.62454 8.10384 4.58454 8.13384 4.54454C8.22385 4.42452 8.30386 4.30451 8.40387 4.1845L7.77381 3.82446C7.6838 3.94448 7.60379 4.06449 7.51378 4.1845C7.48378 4.2245 7.46378 4.25451 7.43377 4.29451C7.36377 4.37452 7.31376 4.45453 7.25376 4.53453C7.25376 4.53453 7.22375 4.57454 7.20375 4.60454L7.17375 4.65455C7.07374 4.79456 6.98373 4.93458 6.89372 5.06459C6.88372 5.08459 6.87372 5.09459 6.86372 5.10459C6.78371 5.23461 6.7037 5.36462 6.62369 5.48463L6.58369 5.54464C6.57369 5.56464 6.55368 5.58464 6.54368 5.60464C6.52368 5.64465 6.50368 5.67465 6.47368 5.71465C6.44367 5.77466 6.40367 5.82467 6.37367 5.87467C6.35366 5.91467 6.32366 5.95468 6.30366 5.98468C6.26366 6.04469 6.23365 6.09469 6.20365 6.1447C6.18365 6.1847 6.16364 6.21471 6.14364 6.24471L6.04363 6.41473C6.02363 6.44473 5.99363 6.49473 5.99363 6.49473C5.99363 6.50473 5.99363 6.50473 5.98363 6.51474C5.98363 6.51474 5.94362 6.58474 5.92362 6.62475C5.89362 6.67475 5.87362 6.71476 5.84361 6.75476L5.78361 6.87477C5.7536 6.91478 5.7336 6.96478 5.7136 7.00479C5.6836 7.04479 5.6736 7.07479 5.64359 7.1248C5.62359 7.1648 5.60359 7.20481 5.58359 7.24481C5.56358 7.27481 5.54358 7.30482 5.52358 7.34482C5.50358 7.38482 5.48358 7.41483 5.46357 7.45483C5.42357 7.52484 5.40357 7.57484 5.37356 7.62485C5.37356 7.63485 5.35356 7.65485 5.35356 7.65485Z"></path><path id="Vector" fill-rule="evenodd" style="fill:#FFFFFF" opacity="1" d="M5.82148 8.35378L4.80137 8.00375L4.36133 8.68382L6.11151 9.77393C6.41154 8.69382 7.36163 6.36358 8.51175 4.42338L8.40174 4.19336C7.14161 5.84353 6.23152 7.5337 5.82148 8.35378Z"></path></g></g></g><defs><linearGradient id="linear_0" x1="50%" y1="-3.0616171314629196e-15%" x2="51%" y2="100%" gradientUnits="objectBoundingBox"><stop offset="0" stop-color="#B9A0FF" stop-opacity="1" /><stop offset="1" stop-color="#F9F4FF" stop-opacity="1" /></linearGradient><linearGradient id="linear_1" x1="-0.08300583994249841%" y1="47.51238226890564%" x2="99.49885754913798%" y2="55.504417419433594%" gradientUnits="objectBoundingBox"><stop offset="0" stop-color="#C4BAFF" stop-opacity="1" /><stop offset="0.9143999814987183" stop-color="#E4D3FF" stop-opacity="1" /><stop offset="1" stop-color="#E4D3FF" stop-opacity="1" /></linearGradient><filter id="filter_8" x="0" y="0" width="69.34850063188571" height="24.985059308274682" filterUnits="userSpaceOnUse" color-interpolation-filters="sRGB"><feFlood flood-opacity="0" result="feFloodId"/>
          <feBlend mode="normal" in="SourceGraphic" in2="BackgroundImageFix" result="shape"/> 
          <feColorMatrix in="SourceAlpha" type="matrix" values="0 0 0 0 0 0 0 0 0 0 0 0 0 0 0 0 0 0 127 0" result="hardAlpha"/>
          
          <feOffset dx="0" dy="0.9302325581395349"/>
          <feGaussianBlur stdDeviation="0.5813953488372093"/>
          <feComposite in2="hardAlpha" operator="arithmetic" k2="-1" k3="1"/>
          <feColorMatrix type="matrix" values="0 0 0 0 0.3843137254901961 0 0 0 0 0.07058823529411765 0 0 0 0 0.8941176470588236 0 0 0 1 0"/>
          <feBlend mode="normal" in2="shape" result="innerShadow_0" />
          </filter><filter id="filter_11" x="-1.709986320109439" y="-1.709986320109439" width="37.90532420271888" height="15.721542578878546" filterUnits="userSpaceOnUse" color-interpolation-filters="sRGB"><feFlood flood-opacity="0" result="BackgroundImageFix"/>
          <feBlend mode="normal" in="SourceGraphic" in2="BackgroundImageFix" result="shape"/>
          <feGaussianBlur stdDeviation="0.8549931600547195" result="effect1_foregroundBlur" /></filter><linearGradient id="linear_2" x1="50%" y1="-3.0616171314629196e-15%" x2="51%" y2="100%" gradientUnits="objectBoundingBox"><stop offset="0" stop-color="#8A2FFF" stop-opacity="1" /><stop offset="1" stop-color="#D9A9FF" stop-opacity="1" /></linearGradient><linearGradient id="linear_3" x1="49.99999703981376%" y1="-34.02825593948364%" x2="50.99999703981376%" y2="34.02825593948364%" gradientUnits="objectBoundingBox"><stop offset="0" stop-color="#FFFFFF" stop-opacity="1" /><stop offset="1" stop-color="#FFFFFF" stop-opacity="0" /></linearGradient><linearGradient id="linear_4" x1="50.00136493543841%" y1="99.99938607215881%" x2="51.00136493543841%" y2="-0.0008106248060357757%" gradientUnits="objectBoundingBox"><stop offset="0" stop-color="#2F00E9" stop-opacity="1" /><stop offset="1" stop-color="#FFFFFF" stop-opacity="0" /></linearGradient><linearGradient id="linear_5" x1="49.999672110862555%" y1="99.99938011169434%" x2="47.36137774424202%" y2="-1.0409961454570293%" gradientUnits="objectBoundingBox"><stop offset="0" stop-color="#642EFF" stop-opacity="1" /><stop offset="1" stop-color="#E7D4FF" stop-opacity="0" /></linearGradient><linearGradient id="linear_6" x1="50%" y1="-3.0616171314629196e-15%" x2="51%" y2="100%" gradientUnits="objectBoundingBox"><stop offset="0" stop-color="#BB9BFF" stop-opacity="1" /><stop offset="1" stop-color="#D7C5FF" stop-opacity="1" /></linearGradient><linearGradient id="linear_7" x1="44.413886514669585%" y1="10.50710380077362%" x2="90.23080970837711%" y2="30.858835577964783%" gradientUnits="objectBoundingBox"><stop offset="0" stop-color="#FFFFFF" stop-opacity="0.3" /><stop offset="1" stop-color="#FFFFFF" stop-opacity="0" /></linearGradient></defs></svg>