<svg xmlns="http://www.w3.org/2000/svg" xmlns:xlink="http://www.w3.org/1999/xlink" width="100" height="100" viewBox="0 0 100 100" fill="none"><g opacity="1"  transform="translate(0 0)"><mask id="mask-0" fill="white"><path d="M0 100L100 100L100 0L0 0L0 100Z"  ></path></mask><path d="M0 100L100 100L100 0L0 0L0 100Z"  ></path><g mask="url(#mask-0)"><g opacity="1"  transform="translate(9.767578125 1.8604736328125)"><path id="Vector" fill-rule="evenodd" style="fill:#D8D1FF" opacity="1" d="M44.3205 76.4041C42.4505 75.6841 39.3504 75.6141 37.4204 76.2441L13.3504 84.1341C11.4103 84.7741 11.3603 85.8741 13.2304 86.6041L36.4904 95.5941C38.3604 96.3142 41.4604 96.3842 43.4005 95.7542L67.4705 87.8641C69.4105 87.2241 69.4605 86.1141 67.5905 85.3941L44.3205 76.4041Z"></path><path id="Vector" fill-rule="evenodd" style="fill:#A6A5FF" opacity="1" d="M38.3321 86.3822C38.3321 86.3822 38.1121 86.3422 38.0421 86.3222C38.0121 86.3222 37.9621 86.3022 37.9621 86.3022C37.5821 86.2122 37.4921 86.1922 37.4021 86.1622C37.4021 86.1622 37.2221 86.1022 37.1421 86.0722L19.6421 79.3122L19.4821 79.2422C19.4821 79.2422 19.4621 79.2322 19.4421 79.2222C19.2621 79.1322 19.1921 79.0922 19.1921 79.0922C19.1921 79.0922 19.0421 79.0022 19.0421 79.0022C19.0021 78.9722 18.9321 78.9222 18.9321 78.9222C18.9321 78.9222 18.8721 78.8722 18.8521 78.8422C18.7321 78.7122 18.7021 78.6622 18.7021 78.6622C18.7021 78.6622 18.6621 78.5822 18.6521 78.5622C18.6221 78.4222 18.6121 78.3722 18.6121 78.3722L18.6121 78.7222C18.6121 78.7222 18.5921 78.7022 18.5921 78.6922C18.5121 78.5622 18.4921 78.4722 18.4921 78.3922L18.3721 84.2622C18.3621 84.6022 18.7221 84.9522 19.4421 85.2322L36.9121 91.9822C36.9121 91.9822 37.1121 92.0522 37.2021 92.0822C37.2021 92.0822 37.2121 92.0822 37.2221 92.0822L37.7421 92.2222L37.7821 92.2322L38.1021 92.2922C38.4921 92.3522 38.5321 92.3622 38.5321 92.3622L38.6821 92.3722C38.6821 92.3722 38.9121 92.4022 38.9321 92.4022L39.4421 92.4322L39.8621 92.4322C40.2221 92.4322 40.3221 92.4222 40.3221 92.4222L40.7721 92.3922L41.0521 92.3622C41.1221 92.3522 41.2721 92.3322 41.2721 92.3322L41.6721 92.2622L41.9221 92.2022L41.9621 92.1922L60.352 86.1722C60.552 86.1022 60.592 86.0822 60.592 86.0822L60.712 86.0322L61.022 85.8722C61.192 85.7522 61.242 85.7122 61.242 85.7122C61.352 85.5922 61.392 85.5422 61.392 85.5422C61.402 85.5322 61.412 85.5222 61.412 85.5222C61.412 85.5222 61.432 85.4822 61.442 85.4622C61.492 85.3222 61.502 85.2622 61.502 85.2622L61.612 79.3822L61.602 79.4522C61.602 79.4522 61.562 79.5622 61.562 79.5722L61.492 79.3322C61.492 79.3322 61.482 79.4222 61.482 79.4422C61.422 79.5722 61.412 79.6022 61.412 79.6022C61.402 79.6122 61.382 79.6422 61.382 79.6422L61.322 79.7222C61.172 79.8622 61.142 79.8822 61.142 79.8822L60.932 80.0122C60.672 80.1422 60.572 80.1822 60.572 80.1822C60.572 80.1822 60.542 80.1922 60.522 80.1922L42.3021 86.1722C42.2221 86.2022 42.0421 86.2522 42.0421 86.2522C41.9121 86.2922 41.8221 86.3122 41.7221 86.3322C41.7221 86.3322 41.5321 86.3722 41.4321 86.3822L41.0121 86.4422C40.7421 86.4722 40.5121 86.4822 40.5121 86.4822C40.2121 86.5022 40.0721 86.5022 40.0721 86.5022C40.0721 86.5022 39.8221 86.5022 39.7421 86.5022L39.3221 86.4922L38.9421 86.4522C38.8521 86.4522 38.6821 86.4322 38.6821 86.4322L38.3321 86.3822ZM18.4921 78.3922L18.4921 78.3722C18.4921 78.3822 18.4921 78.3922 18.4921 78.3922Z"></path><g opacity="1"  transform="translate(0 47.2091064453125)"><path id="Vector" fill-rule="evenodd" style="fill:#D8D1FF" opacity="1" d="M80.4203 15.2083C80.4203 15.2083 80.3503 15.4083 80.3403 15.4183L80.2203 14.9882C80.2203 14.9882 80.1903 15.1482 80.1803 15.1882C80.0903 15.4283 80.0603 15.4883 80.0603 15.4883C80.0403 15.5183 80.0203 15.5583 80.0203 15.5583L79.9003 15.7083C79.6203 15.9583 79.5603 16.0083 79.5603 16.0083L79.1803 16.2483C78.6803 16.4883 78.5003 16.5583 78.5003 16.5583C78.5003 16.5583 78.4503 16.5783 78.4103 16.5883L44.5102 27.7183C44.3602 27.7683 44.0402 27.8583 44.0402 27.8583C43.7902 27.9283 43.6202 27.9683 43.4402 27.9983C43.4402 27.9983 43.0702 28.0783 42.8902 28.1083L42.1202 28.2183C41.6202 28.2683 41.1902 28.2883 41.1902 28.2883C40.6202 28.3183 40.3702 28.3283 40.3702 28.3283C40.3702 28.3283 39.9002 28.3283 39.7502 28.3183L38.9802 28.2983L38.2601 28.2383C38.1001 28.2283 37.7901 28.1883 37.7901 28.1883L37.1401 28.0883C37.1401 28.0883 36.7301 28.0183 36.5901 27.9883C36.5301 27.9783 36.4401 27.9583 36.4401 27.9583C35.7401 27.7883 35.5601 27.7383 35.4001 27.6783C35.4001 27.6783 35.0601 27.5683 34.9101 27.5083L2.37001 14.9482L2.07001 14.8182C2.07001 14.8182 2.02001 14.7982 2.00001 14.7882C1.65001 14.6182 1.52001 14.5382 1.52001 14.5382C1.52001 14.5382 1.26 14.3782 1.24 14.3682C1.17 14.3182 1.05 14.2182 1.05 14.2182C1.05 14.2182 0.930004 14.1182 0.880003 14.0782C0.670003 13.8382 0.610002 13.7382 0.610002 13.7382C0.610002 13.7382 0.530002 13.5982 0.510002 13.5482C0.460002 13.2982 0.450002 13.1982 0.450002 13.1982L0.440002 13.8482C0.440002 13.8482 0.410002 13.8082 0.400002 13.7882C0.260001 13.5482 0.220001 13.3882 0.220001 13.2482L0 24.1483C-0.0200001 24.7883 0.640002 25.4383 1.99001 25.9583L34.4801 38.5083C34.4801 38.5083 34.8601 38.6483 35.0401 38.6983C35.0401 38.6983 35.0501 38.7083 35.0601 38.7083L36.0301 38.9683L36.1101 38.9783L36.7001 39.0983C37.4301 39.2083 37.5101 39.2183 37.5101 39.2183L37.7901 39.2483C37.7901 39.2483 38.2101 39.2883 38.2402 39.2983L39.1902 39.3483L39.9702 39.3583C40.6402 39.3483 40.8302 39.3383 40.8302 39.3383L41.6702 39.2783L42.2002 39.2183C42.3202 39.2083 42.6002 39.1683 42.6002 39.1683L43.3402 39.0383L43.8102 38.9283L43.8802 38.9083L78.0803 27.7083C78.4603 27.5783 78.5403 27.5483 78.5403 27.5483L78.7603 27.4483L79.3403 27.1483C79.6603 26.9283 79.7403 26.8583 79.7403 26.8583C79.9703 26.6283 80.0303 26.5283 80.0303 26.5283C80.0503 26.5083 80.0603 26.4883 80.0603 26.4883C80.0603 26.4883 80.1003 26.4183 80.1203 26.3783C80.2203 26.1183 80.2303 26.0283 80.2303 26.0283L80.4403 15.0682L80.4203 15.2083ZM0.220001 13.1982C0.220001 13.2182 0.220001 13.2282 0.220001 13.2482L0.220001 13.1982Z"></path><path id="Vector" fill-rule="evenodd" fill="url(#linear_0)" opacity="1" d="M45.8304 0.830244C43.2004 -0.179756 38.8404 -0.279756 36.1204 0.610244L2.29043 11.6902C-0.43957 12.5802 -0.51957 14.1302 2.12043 15.1502L34.8204 27.7702C37.4504 28.7802 41.8104 28.8802 44.5304 27.9902L78.3704 16.9102C81.1004 16.0202 81.1704 14.4702 78.5404 13.4502L45.8304 0.830244Z"></path><g filter="url(#filter_8)"><path id="Vector" fill-rule="evenodd" fill="url(#linear_1)" opacity="1" d="M44.1369 4.63321C42.2669 3.91321 39.1668 3.84321 37.2368 4.47321L13.1668 12.3632C11.2268 13.0032 11.1768 14.1032 13.0468 14.8332L36.3068 23.8233C38.1768 24.5433 41.2769 24.6133 43.2169 23.9833L67.2869 16.0933C69.2269 15.4532 69.2769 14.3432 67.4069 13.6232L44.1369 4.63321Z"></path><path  id="Vector" style="fill:#FFFFFF; opacity:0.19;" d="M44.0341 4.90018M44.0341 4.90018Q40.7383 3.63119 37.3256 4.74516L13.2559 12.6351Q11.9888 13.0531 11.9638 13.5781Q11.9392 14.0938 13.1508 14.5668L36.41 23.5564Q39.7019 24.8239 43.1285 23.7112L67.1978 15.8214Q68.4648 15.4034 68.4899 14.8747Q68.5146 14.3563 67.3042 13.8902L44.0338 4.90006L44.0341 4.90018ZM44.24 4.36637L67.5097 13.3563Q69.1057 13.9708 69.0614 14.9018Q69.0177 15.8235 67.376 16.3651L43.3052 24.2554Q39.6857 25.4308 36.2037 24.0901L12.9427 15.0997Q11.3481 14.4772 11.3923 13.5509Q11.436 12.633 13.0777 12.0914L37.1481 4.20127Q40.7541 3.02419 44.2396 4.36625L44.24 4.36637Z"></path></g></g><g opacity="1"  transform="translate(22.791015625 54.4185791015625)"><g id="Vector" filter="url(#filter_11)"><path id="Vector" fill-rule="evenodd" style="fill:#2C00DC" opacity="0.5" d="M19.6102 1.75551C18.4802 1.31551 16.6001 1.27551 15.4401 1.65551L0.900008 6.42555C-0.270002 6.80556 -0.300003 7.47556 0.830007 7.90557L14.8801 13.3356C16.0101 13.7756 17.8802 13.8156 19.0502 13.4356L33.5903 8.67557C34.7603 8.28557 34.7903 7.61556 33.6603 7.18556L19.6102 1.75551Z"></path></g><path id="Vector" fill-rule="evenodd" fill="url(#linear_2)" opacity="1" d="M19.6102 0.360003C18.4802 -0.0800007 16.6001 -0.120001 15.4401 0.260002L0.900008 5.03005C-0.270002 5.41005 -0.300003 6.08005 0.830007 6.51006L14.8801 11.9401C16.0101 12.3801 17.8802 12.4201 19.0502 12.0401L33.5903 7.28007C34.7603 6.89006 34.7903 6.22006 33.6603 5.79005L19.6102 0.360003Z"></path><path id="Vector" style="fill:url(#linear_3); opacity:100" d="M19.568 0.468359M19.568 0.468359Q18.7419 0.146708 17.5337 0.118749Q16.3299 0.0908917 15.4763 0.370504L0.936254 5.14053Q0.135213 5.4007 0.118655 5.7567Q0.102282 6.10872 0.871363 6.40138L14.9221 11.8316Q15.7485 12.1534 16.9528 12.1814Q18.1532 12.2092 19.0143 11.9295L33.5541 7.16956Q34.3551 6.90257 34.3717 6.54468Q34.388 6.19138 33.6189 5.89873L19.5683 0.468465L19.568 0.468359ZM19.6521 0.251541L33.7017 5.68137Q34.6281 6.03392 34.604 6.55544Q34.58 7.07273 33.6265 7.39057L19.0861 12.1507Q18.1873 12.4426 16.9475 12.4139Q15.7022 12.385 14.8382 12.0486L0.788652 6.61874Q-0.137853 6.26617 -0.113655 5.7459Q-0.0896218 5.2292 0.863762 4.91956L15.4039 0.1495Q16.2954 -0.142529 17.5391 -0.113749Q18.7882 -0.084844 19.6524 0.251648L19.6521 0.251541Z"></path></g><g opacity="1"  transform="translate(13.48828125 0)"><path id="Vector" fill-rule="evenodd" fill="url(#linear_4)" opacity="0.3" d="M0 61.3203L26.5101 71.5403L27.1301 0.620003L0 0L0 61.3203Z"></path><path id="Vector" fill-rule="evenodd" fill="url(#linear_5)" opacity="0.3" d="M27.1258 0.621948L26.5059 71.5408L54.2554 62.5409L54.2554 1.22194L27.1258 0.621948Z"></path></g></g></g><g mask="url(#mask-0)"><g opacity="1"  transform="translate(35.087890625 24.822021484375)"><path id="Union" fill-rule="evenodd" style="fill:#5B5DDD" opacity="1" d="M8.86029 3.45997L8.65028 3.71998C8.58028 3.80998 8.46028 3.95998 8.46028 3.95998C8.36028 4.08999 8.22027 4.24999 8.22027 4.24999C8.11027 4.38999 7.95027 4.58 7.95027 4.58C7.87027 4.68 7.71026 4.87 7.71026 4.87C7.71026 4.87 7.68026 4.9 7.67026 4.92C7.59026 5.01001 7.50026 5.11001 7.42026 5.21001C7.26025 5.39001 7.14025 5.52002 7.03025 5.66002L6.60024 6.12003C6.58024 6.14003 6.58024 6.16003 6.56024 6.17003C6.56024 6.17003 6.29023 6.47004 6.15023 6.62004C5.97023 6.82005 5.82022 6.98005 5.65022 7.14005C5.65022 7.14005 5.47022 7.33006 5.39021 7.42006C5.25021 7.56006 5.19021 7.63006 5.11021 7.69006L5.03021 7.77007L4.8302 7.98007C4.8302 7.98007 4.6602 8.14007 4.6302 8.17007C4.5002 8.29008 4.46019 8.32008 4.42019 8.36008C4.19019 8.56008 4.14019 8.61008 4.14019 8.61008C4.00019 8.75009 3.94018 8.79009 3.94018 8.79009L3.81018 8.90009L3.75018 8.96009C3.75018 8.96009 3.50017 9.1701 3.37017 9.2701C3.35017 9.2801 3.31017 9.3201 3.31017 9.3201C3.31017 9.3201 3.15017 9.4501 3.12017 9.4701L2.85016 9.69011L2.69016 9.81011L2.46015 9.98011L2.32015 10.0901L2.23015 10.1501L2.04014 10.2801L1.90014 10.3801L1.79014 10.4601L1.56013 10.6001C1.56013 10.6001 1.47013 10.6601 1.45013 10.6701C1.40013 10.7101 1.36013 10.7301 1.36013 10.7301L1.17012 10.8501L0.570112 11.2101C0.530111 11.2301 0.49011 11.2601 0.46011 11.2901L0.310107 11.4401L0.190104 11.6001L0.0901019 11.7902L0.0501011 11.9002L0.000100002 12.2402L0.0301006 23.4004C0.0392821 25.9528 1.28762 27.8646 3.00118 29.0274C3.12159 29.1164 3.24462 29.2016 3.36997 29.2829C3.63179 29.4846 3.90677 29.6675 4.19179 29.8312L5.45182 30.5613C5.19402 30.4119 4.94444 30.2471 4.70539 30.0672L4.97041 30.2207C4.85987 30.1567 4.75085 30.0898 4.64352 30.0201C4.61091 29.995 4.5785 29.9697 4.5463 29.944L4.7302 30.0505C4.66181 30.0109 4.594 29.9702 4.52681 29.9284C3.05216 28.7448 2.02009 26.9611 2.01174 24.6411L1.98174 13.4809L2.02174 13.2009C2.02174 13.2009 2.12175 12.9609 2.14175 12.9209C2.14175 12.9209 2.28175 12.7109 2.31175 12.6809L2.40175 12.5809L2.96176 12.2309C3.00176 12.2209 3.00176 12.2109 3.00176 12.2109C3.00176 12.2109 3.20177 12.0909 3.21177 12.0909C3.22177 12.0809 3.25177 12.0709 3.25177 12.0709C3.44177 11.9409 3.48177 11.9209 3.48177 11.9209C3.66178 11.8009 3.74178 11.7509 3.74178 11.7509C3.74178 11.7509 3.83178 11.6909 3.87178 11.6708C4.08179 11.5208 4.10179 11.5008 4.13179 11.4808C4.30179 11.3608 4.34179 11.3308 4.34179 11.3308C4.5318 11.1908 4.5818 11.1508 4.5818 11.1508L4.7518 11.0208C4.9418 10.8708 4.99181 10.8308 4.99181 10.8308C4.99181 10.8308 5.14181 10.7108 5.17181 10.7008L5.35181 10.5508C5.41182 10.5108 5.53182 10.4108 5.53182 10.4108C5.59182 10.3508 5.66182 10.3008 5.72182 10.2508C5.82182 10.1608 5.91183 10.0908 5.91183 10.0908C6.03183 9.99081 6.11183 9.92081 6.11183 9.92081L6.31183 9.74081C6.31183 9.74081 6.36184 9.68081 6.39184 9.66081L6.51184 9.5508C6.51184 9.5508 6.67184 9.4008 6.71184 9.3608L6.92185 9.1508C6.92185 9.1508 6.99185 9.09079 7.02185 9.07079L7.10185 8.98079L7.64186 8.44078L8.11187 7.95077C8.28188 7.77077 8.42188 7.61076 8.55188 7.47076C8.72188 7.28076 8.97189 7.00075 8.97189 7.00075L9.01189 6.95075C9.14189 6.82075 9.2519 6.68074 9.3719 6.55074C9.5019 6.40074 9.6619 6.22073 9.6619 6.22073C9.6619 6.22073 9.69191 6.18073 9.71191 6.16073L9.94191 5.88073C9.94191 5.88073 10.1019 5.69072 10.1719 5.60072L10.4119 5.31071L10.6319 5.04071C10.6319 5.04071 10.7619 4.8807 10.8119 4.8107C10.8119 4.8107 10.9419 4.6407 11.0019 4.5807L11.0219 4.5407C11.0219 4.5407 11.2219 4.28069 11.2519 4.24069C11.2519 4.24069 11.4219 4.01069 11.4319 4.00069C11.4819 3.94068 11.5419 3.85068 11.5419 3.85068L11.882 3.37067C11.912 3.34067 11.952 3.28067 11.952 3.28067C11.952 3.28067 12.062 3.18067 12.082 3.16067C12.242 3.06067 12.272 3.04066 12.292 3.03066L12.562 3.00066L12.832 3.08067C12.952 3.11067 13.002 3.12067 13.002 3.12067L13.302 3.17067L13.472 3.18067L13.692 3.21067L13.942 3.22067C14.032 3.23067 14.102 3.24067 14.102 3.24067L14.252 3.25067L14.502 3.25067L14.852 3.26067L15.222 3.26067C15.332 3.26067 15.432 3.25067 15.542 3.25067C15.792 3.25067 15.972 3.24067 15.972 3.24067L15.992 3.24067L16.342 3.21067L16.442 3.21067L16.8421 3.17067C17.0121 3.15067 17.1721 3.12067 17.3321 3.09067L17.6521 3.03066C17.7821 3.00066 17.8721 2.98066 17.9621 2.96066L18.2521 2.89066C18.3921 2.85066 18.5421 2.81066 18.5421 2.81066C18.5421 2.81066 18.5621 2.80066 18.5721 2.80066C18.5721 2.80066 18.7121 2.76066 18.7721 2.74066L18.8421 2.72066C19.0221 2.66066 19.0721 2.65066 19.0721 2.65066C19.0721 2.65066 19.1721 2.61066 19.2321 2.59066C19.2321 2.59066 19.4321 2.52065 19.5021 2.49065C19.5921 2.46065 19.6521 2.44065 19.7021 2.42065C19.7021 2.42065 19.8521 2.37065 19.9021 2.34065C19.9021 2.34065 20.0521 2.28065 20.0921 2.27065C20.0921 2.27065 20.2721 2.19065 20.3021 2.18065C20.3021 2.18065 20.3421 2.17065 20.3621 2.15065C20.5321 2.08064 20.5721 2.06064 20.5721 2.06064L20.7621 1.98064L20.9821 1.88064C20.9821 1.88064 21.0221 1.86064 21.0321 1.85064C21.0321 1.85064 21.1521 1.79064 21.1621 1.78064C21.1621 1.78064 21.3722 1.69064 21.3822 1.68064L21.9422 1.36063C21.9422 1.36063 22.0022 1.32063 22.0422 1.31063C22.0422 1.31063 22.2322 1.28063 22.2622 1.29063L21.74 0.948659C21.759 0.947643 21.774 0.947861 21.7808 0.95012L21.5177 0.777879C21.5281 0.777828 21.5361 0.778431 21.5406 0.779917L20.4105 0.0399009L20.1905 -0.000100002L19.9805 0.0699015L19.5605 0.309907C19.3605 0.419909 19.3305 0.429909 19.3305 0.429909L19.2905 0.44991L19.1205 0.529911C19.1205 0.529911 18.9405 0.619913 18.9205 0.639914L18.6805 0.749916C18.6605 0.749916 18.6205 0.769916 18.6205 0.769916C18.6205 0.769916 18.5105 0.819918 18.4905 0.829918C18.4905 0.829918 18.2905 0.91992 18.2605 0.92992L18.0005 1.02992C18.0005 1.02992 17.9705 1.04992 17.9405 1.05992C17.9405 1.05992 17.8605 1.08992 17.8105 1.10992L17.5805 1.19993L17.3405 1.27993C17.3405 1.27993 17.1705 1.33993 17.1205 1.35993L16.8905 1.42993C16.7505 1.47993 16.6105 1.50993 16.6105 1.50993C16.5105 1.54993 16.3604 1.58993 16.3604 1.58993L16.3004 1.59993C16.3004 1.59993 16.1504 1.63994 16.0804 1.65994L15.7404 1.72994C15.6204 1.75994 15.5404 1.76994 15.4604 1.78994L15.1104 1.84994C15.0304 1.85994 14.8904 1.87994 14.8904 1.87994C14.7504 1.89994 14.6204 1.90994 14.4904 1.91994C14.2704 1.93994 14.0304 1.94994 14.0304 1.94994C13.9004 1.95994 13.7804 1.96994 13.6704 1.96994L12.6004 1.96994L12.2904 1.95994C12.1804 1.94994 12.0404 1.93994 12.0404 1.93994L11.9804 1.93994C11.9804 1.93994 11.8304 1.91994 11.7604 1.91994C11.7604 1.91994 11.6103 1.90994 11.5603 1.90994C11.5603 1.90994 11.4003 1.87994 11.3603 1.87994L11.0603 1.82994C10.9203 1.80994 10.8903 1.79994 10.8903 1.79994L10.5903 1.71994L10.4803 1.69994L10.2203 1.77994L10.0403 1.91994L9.99031 1.96994L9.6503 2.40995C9.6203 2.44995 9.6103 2.46995 9.6103 2.46995C9.5503 2.56995 9.5103 2.60996 9.5103 2.60996L9.3803 2.76996L9.3003 2.88996C9.3003 2.88996 9.2003 3.00996 9.17029 3.05997L9.03029 3.22997C8.95029 3.32997 8.90029 3.38997 8.86029 3.45997Z"></path><path id="Vector" fill-rule="evenodd" fill="url(#linear_6)" opacity="1" d="M1.7634 24.4301C1.7834 30.34 8.48326 32.7699 12.0932 30.6899C15.6931 28.61 22.363 18.4702 22.343 12.5503L22.313 1.48054C22.313 1.10055 22.053 0.950549 21.733 1.14055L21.303 1.38054C21.193 1.44054 18.973 2.66051 16.6231 2.96051C14.2231 3.2305 12.6132 2.88051 12.6132 2.88051L12.3432 2.80051L11.9932 2.88051C11.8832 2.94051 11.7832 3.04051 11.6732 3.1505L11.4132 3.4905C11.4132 3.4905 9.81323 5.69045 7.41328 8.2004C5.07333 10.6704 2.73338 12.0203 2.73338 12.0203L2.31339 12.2603C1.99339 12.4503 1.7334 12.9003 1.7334 13.2803L1.7634 24.4301Z"></path><path fill-rule="evenodd" id="Vector" style="fill:url(#linear_7); opacity:100" d="M12.6132 2.88051L12.3432 2.80051L11.9932 2.88051C11.8832 2.94051 11.7832 3.04051 11.6732 3.1505L11.4132 3.4905C11.4132 3.4905 9.81323 5.69045 7.41328 8.2004C5.07333 10.6704 2.73338 12.0203 2.73338 12.0203L2.31339 12.2603C1.99339 12.4503 1.7334 12.9003 1.7334 13.2803L1.7634 24.4301C1.7834 30.34 8.48326 32.7699 12.0932 30.6899C15.6931 28.61 22.363 18.4702 22.343 12.5503L22.313 1.48054C22.313 1.10055 22.053 0.950549 21.733 1.14055L21.303 1.38054C21.193 1.44054 18.973 2.66051 16.6231 2.96051C14.2231 3.2305 12.6132 2.88051 12.6132 2.88051ZM11.5996 3.62954Q9.99086 5.84119 7.58137 8.36112Q5.21887 10.8549 2.84959 12.2218L2.42877 12.4622Q1.96595 12.7371 1.96595 13.2803L1.99595 24.4293L1.99595 24.4294Q2.00971 28.4722 5.68777 30.3491Q9.15147 32.1165 11.9771 30.4884Q14.855 28.8257 18.376 22.9407Q22.1243 16.6758 22.1104 12.5511L22.0804 1.48117Q22.0804 1.32953 22.0258 1.29767Q21.9744 1.26768 21.8517 1.34051L21.849 1.34209L21.4163 1.58361L21.4114 1.58629Q19.0274 2.88801 16.6525 3.19119Q14.2125 3.46572 12.5638 3.10777L12.5638 3.10776L12.5554 3.10593L12.3356 3.0408L12.0811 3.09896Q12.0018 3.15169 11.8484 3.30417L11.5996 3.62954Z"></path><path fill-rule="evenodd"  id="Vector" style="fill:#FFFFFF; opacity:1;" d="M12.4829 6.85242L12.2729 6.79242L12.0029 6.85242C11.9229 6.90242 11.8429 6.98242 11.7529 7.06242L11.5529 7.32243C11.5529 7.32243 10.3229 9.02246 8.47286 10.9525C6.67282 12.8625 4.86279 13.9026 4.86279 13.9026L4.54278 14.0926C4.29278 14.2326 4.09277 14.5826 4.09277 14.8726L4.11277 23.4727C4.13277 28.0328 9.29287 29.9029 12.0829 28.3028C14.863 26.6928 19.9931 18.8727 19.9831 14.3126L19.9644 6.3259L19.9644 6.32582L19.9631 5.7724C19.9631 5.48239 19.7631 5.37239 19.5131 5.51239L19.1831 5.7024C19.1693 5.70853 19.1174 5.73583 19.0328 5.77853C18.5662 6.01425 17.1054 6.71922 15.573 6.92242C13.723 7.12242 12.4829 6.85242 12.4829 6.85242ZM19.0353 6.81156Q17.2788 7.63463 15.6953 7.8446L15.6841 7.84608L15.673 7.84728Q14.4304 7.98161 13.2614 7.88982Q12.7273 7.84788 12.3747 7.77977L12.2984 7.87899Q11.9775 8.3216 11.43 8.99862Q10.3278 10.3616 9.14442 11.5962Q7.96711 12.8455 6.5443 13.8929Q5.8244 14.4229 5.32624 14.7091L5.03537 14.8819Q5.03302 14.8856 5.03039 14.8902Q5.026 14.8978 5.0231 14.9042L5.04302 23.4706Q5.04893 24.8161 5.74711 25.8586Q6.38348 26.8087 7.4819 27.3692Q8.53399 27.9061 9.68623 27.9344Q10.8073 27.962 11.6201 27.4959Q12.5115 26.9796 13.7813 25.4782Q15.0884 23.9325 16.2807 21.9369Q17.5414 19.8266 18.2724 17.8703Q19.056 15.7733 19.0528 14.3146L19.0353 6.81156Z"></path></g></g><g mask="url(#mask-0)"><g opacity="1"  transform="translate(50.3251953125 41.051513671875)"><path id="Vector" fill-rule="evenodd" style="fill:#FFD12E" opacity="1" d="M11.6701 8.4707L9.21013 7.06072C10.3601 4.40077 10.1701 1.78082 8.64014 0.910834C7.76015 0.400844 6.62017 0.560841 5.48019 1.22083C4.34021 1.89082 3.20023 3.0508 2.33025 4.55077C0.590281 7.55072 0.600281 10.8107 2.35025 11.8006C3.22023 12.3006 4.37021 12.1406 5.51019 11.4806C6.37018 10.9807 7.24016 10.1907 7.99015 9.18069L10.4501 10.5907C10.6201 10.6807 10.8401 10.6507 11.0701 10.5207C11.2901 10.4007 11.5101 10.1707 11.6801 9.88067C12.0101 9.30068 12.0101 8.6607 11.6701 8.4707Z"></path><path id="Vector" fill-rule="evenodd" style="fill:#FFFFFF" opacity="1" d="M3.15554 5.10967C1.85555 7.34965 1.86555 9.76964 3.16554 10.5096C3.81554 10.8796 4.67553 10.7596 5.51552 10.2696C6.36552 9.77963 7.21551 8.90964 7.86551 7.78965C9.1555 5.55966 9.1555 3.13968 7.84551 2.39969C7.19551 2.02969 6.34552 2.14969 5.49552 2.63968C4.64553 3.12968 3.79554 3.98968 3.15554 5.10967Z"></path><path id="Vector" fill-rule="evenodd" style="fill:#FFD12E" opacity="1" d="M5.63083 3.15196C5.46584 3.42995 5.46584 3.73493 5.63083 3.82692C5.71082 3.87392 5.81682 3.85392 5.92281 3.79393C6.02781 3.73493 6.1338 3.62194 6.2138 3.48294C6.37879 3.20496 6.37879 2.89998 6.2138 2.80798C6.1338 2.76098 6.02781 2.78098 5.92281 2.84098C5.81682 2.89998 5.71082 3.00597 5.63083 3.15196Z"></path><path id="Vector" fill-rule="evenodd" style="fill:#C19421" opacity="1" d="M0.00999952 8.59959C0.00999952 8.59959 0.019999 8.66958 0.019999 8.69958L0.0299986 8.86957C0.0399981 8.90957 0.0399981 8.96957 0.0399981 8.96957C0.0499976 9.02957 0.0599971 9.08956 0.0699966 9.14956C0.0999952 9.29955 0.119994 9.37955 0.139993 9.45955C0.139993 9.45955 0.139993 9.48954 0.149993 9.50954L0.19999 9.68954L0.229989 9.76953L0.279987 9.90952C0.279987 9.90952 0.299986 9.96952 0.309985 9.98952L0.369982 10.1295L0.40998 10.1995C0.429979 10.2495 0.469977 10.2995 0.489977 10.3595L0.62997 10.5695L0.669968 10.6195L0.769963 10.7295C0.769963 10.7295 0.799962 10.7695 0.819961 10.7895L0.919956 10.8895L0.979953 10.9395C1.01995 10.9695 1.05995 10.9995 1.09995 11.0295C1.20994 11.1095 1.32994 11.1795 1.32994 11.1795L2.33989 11.7694C2.28989 11.7394 2.24989 11.7094 2.19989 11.6794C2.0799 11.6094 2.0499 11.5894 2.0099 11.5594L1.84991 11.3995L1.79991 11.3495L1.69992 11.2295C1.67992 11.2195 1.65992 11.1795 1.65992 11.1795C1.61992 11.1195 1.56992 11.0695 1.53993 11.0095C1.48993 10.9195 1.42993 10.8095 1.42993 10.8095C1.41993 10.7895 1.39993 10.7495 1.39993 10.7495L1.33994 10.6095C1.32994 10.5795 1.31994 10.5595 1.30994 10.5295L1.24994 10.3795C1.24994 10.3595 1.22994 10.3295 1.22994 10.2995L1.16994 10.1195C1.16994 10.1195 1.16994 10.0895 1.15994 10.0695C1.15994 10.0695 1.11995 9.90952 1.10995 9.82953C1.07995 9.70953 1.07995 9.63954 1.06995 9.57954C1.06995 9.57954 1.05995 9.51954 1.05995 9.48954C1.05995 9.48954 1.03995 9.37955 1.03995 9.31955L1.03995 9.21956L1.02995 9.02957L1.02995 8.65958C1.02995 8.65958 1.03995 8.46959 1.04995 8.3796C1.04995 8.3796 1.05995 8.3196 1.05995 8.2896L1.07995 8.08961C1.07995 8.04961 1.08995 7.96962 1.08995 7.96962C1.09995 7.90962 1.10995 7.84962 1.11995 7.78963L1.13995 7.67963C1.13995 7.67963 1.15994 7.55964 1.16994 7.48964C1.16994 7.44964 1.18994 7.37965 1.18994 7.37965C1.19994 7.33965 1.21994 7.25965 1.21994 7.25965C1.22994 7.20965 1.24994 7.15966 1.24994 7.10966C1.24994 7.10966 1.26994 7.02966 1.28994 6.98967C1.28994 6.98967 1.30994 6.90967 1.31994 6.86967L1.43993 6.46969L1.46993 6.38969C1.49993 6.2797 1.57992 6.07971 1.57992 6.07971C1.58992 6.04971 1.59992 6.01971 1.60992 5.98971C1.65992 5.86972 1.69992 5.75972 1.75992 5.63973C1.75992 5.63973 1.77991 5.59973 1.77991 5.57973C1.77991 5.57973 1.86991 5.38974 1.91991 5.29975L1.96991 5.18975C2.0099 5.10976 2.0599 5.00976 2.0999 4.92976L2.1499 4.83977C2.19989 4.73977 2.25989 4.62978 2.31989 4.52978C2.31989 4.52978 2.35989 4.45979 2.37989 4.43979C2.42988 4.33979 2.48988 4.2498 2.54988 4.1598C2.56988 4.1298 2.58988 4.0898 2.60987 4.06981C2.67987 3.94981 2.75987 3.82982 2.83986 3.71982C2.91986 3.59983 3.00986 3.47983 3.09985 3.35984C3.12985 3.32984 3.14985 3.29984 3.17985 3.26984L3.24984 3.16985C3.24984 3.16985 3.31984 3.08985 3.35984 3.04985C3.35984 3.04985 3.40984 2.97986 3.44983 2.94986L3.53983 2.83986C3.53983 2.83986 3.63983 2.72987 3.67982 2.67987C3.67982 2.67987 3.73982 2.61987 3.75982 2.59988L3.92981 2.41988L3.98981 2.35989L4.05981 2.29989C4.05981 2.29989 4.1398 2.21989 4.1798 2.1799C4.2098 2.1499 4.2598 2.1099 4.2598 2.1099C4.29979 2.0699 4.33979 2.0299 4.37979 1.9999C4.37979 1.9999 4.42979 1.94991 4.45979 1.92991L4.57978 1.82991L4.65978 1.75992L4.77977 1.66992C4.80977 1.64992 4.86977 1.60992 4.86977 1.60992C4.90976 1.57992 4.94976 1.54993 4.99976 1.51993C4.99976 1.51993 5.04976 1.47993 5.07976 1.46993L5.20975 1.37993C5.22975 1.35993 5.27975 1.32994 5.27975 1.32994C5.34974 1.28994 5.40974 1.24994 5.48974 1.20994C5.57973 1.14994 5.66973 1.09995 5.75972 1.04995C5.75972 1.04995 5.80972 1.02995 5.83972 1.01995C5.91972 0.979953 6.00971 0.929955 6.09971 0.899957C6.1997 0.859959 6.2797 0.82996 6.3597 0.799962C6.48969 0.759964 6.60968 0.729965 6.60968 0.729965C6.63968 0.719966 6.66968 0.709966 6.69968 0.699966C6.69968 0.699966 6.76968 0.689967 6.79967 0.679967C6.79967 0.679967 6.86967 0.669968 6.89967 0.659968C6.89967 0.659968 6.95967 0.649969 6.99966 0.639969L7.11966 0.61997C7.13966 0.61997 7.17966 0.61997 7.17966 0.61997C7.23965 0.609971 7.29965 0.599971 7.35965 0.599971L7.59964 0.599971L7.69963 0.609971C7.76963 0.61997 7.89962 0.639969 7.89962 0.639969C7.91962 0.639969 7.93962 0.639969 7.93962 0.639969C8.00962 0.659968 8.07961 0.679967 8.14961 0.699966L8.20961 0.709966C8.2696 0.729965 8.3196 0.749964 8.3696 0.769963C8.3696 0.769963 8.4096 0.789962 8.4396 0.789962C8.4396 0.789962 8.55959 0.849959 8.61959 0.879958C8.61959 0.889957 8.63959 0.889957 8.63959 0.889957L7.58964 0.279987C7.50964 0.239988 7.44964 0.20999 7.38965 0.189991C7.38965 0.189991 7.36965 0.179991 7.35965 0.169992C7.26965 0.139993 7.15966 0.109995 7.15966 0.109995C7.15966 0.109995 7.12966 0.0999952 7.11966 0.0899957C7.02966 0.0699966 6.87967 0.0299986 6.87967 0.0299986L6.84967 0.0299986C6.77968 0.019999 6.70968 0.00999952 6.64968 0.00999952C6.64968 0.00999952 6.62968 0.00999952 6.60968 0L6.3097 0C6.2497 0 6.1897 0.00999952 6.12971 0.00999952L6.06971 0.019999C6.06971 0.019999 6.00971 0.0299986 5.97971 0.0299986C5.90972 0.0499976 5.87972 0.0499976 5.84972 0.0599971C5.81972 0.0699966 5.77972 0.0699966 5.73972 0.0799962C5.73972 0.0799962 5.67973 0.0899957 5.64973 0.0999952L5.54973 0.129994C5.54973 0.129994 5.43974 0.159992 5.37974 0.179991C5.37974 0.179991 5.32974 0.189991 5.30975 0.19999C5.22975 0.229989 5.14975 0.259988 5.06976 0.289986C5.05976 0.289986 5.04976 0.299986 5.04976 0.299986C4.95976 0.329984 4.87977 0.379982 4.78977 0.41998C4.61978 0.499976 4.52978 0.549974 4.43979 0.599971C4.43979 0.599971 4.30979 0.679967 4.2298 0.729965C4.2298 0.729965 4.1898 0.749964 4.1698 0.769963L4.02981 0.869958C3.99981 0.889957 3.94981 0.919956 3.94981 0.919956C3.90981 0.949954 3.85981 0.979953 3.81982 1.00995L3.73982 1.06995L3.62983 1.15994L3.53983 1.22994L3.41984 1.31994C3.38984 1.33994 3.33984 1.39993 3.33984 1.39993C3.29984 1.42993 3.25984 1.46993 3.21985 1.49993C3.21985 1.49993 3.16985 1.54993 3.13985 1.57992C3.09985 1.61992 3.01986 1.68992 3.01986 1.68992C2.99986 1.70992 2.94986 1.75992 2.94986 1.75992C2.94986 1.75992 2.89986 1.80991 2.88986 1.82991C2.83986 1.87991 2.77987 1.93991 2.71987 1.9999C2.69987 2.0299 2.66987 2.0599 2.64987 2.0899C2.59988 2.1399 2.49988 2.23989 2.49988 2.23989C2.49988 2.23989 2.46988 2.27989 2.44988 2.28989C2.43988 2.30989 2.40988 2.33989 2.40988 2.33989L2.32989 2.43988C2.32989 2.43988 2.25989 2.52988 2.21989 2.56988L2.1399 2.66987L2.0999 2.71987C1.97991 2.87986 1.88991 2.98986 1.79991 3.11985C1.71992 3.22985 1.64992 3.33984 1.57992 3.45983L1.54993 3.49983C1.45993 3.63983 1.34994 3.82982 1.34994 3.82982C1.33994 3.84982 1.31994 3.87981 1.31994 3.87981C1.22994 4.02981 1.16994 4.1298 1.11995 4.2298C1.11995 4.2298 1.08995 4.29979 1.07995 4.31979C1.07995 4.31979 0.979953 4.49978 0.939955 4.57978L0.889957 4.68978C0.83996 4.77977 0.799962 4.87977 0.759964 4.96976C0.759964 4.96976 0.739965 5.00976 0.739965 5.01976L0.729965 5.02976C0.679967 5.14975 0.62997 5.26975 0.589972 5.37974L0.549974 5.46974C0.509976 5.57973 0.469977 5.67973 0.439979 5.77972C0.41998 5.83972 0.40998 5.84972 0.40998 5.84972C0.369982 5.98971 0.329984 6.11971 0.289986 6.2497C0.269987 6.3197 0.249988 6.37969 0.249988 6.37969L0.219989 6.49969C0.20999 6.54969 0.189991 6.64968 0.189991 6.64968C0.179991 6.68968 0.159992 6.76968 0.159992 6.76968L0.159992 6.80967C0.129994 6.94967 0.119994 7.00966 0.109995 7.06966L0.0899957 7.17966L0.0599971 7.35965C0.0599971 7.37965 0.0599971 7.42964 0.0599971 7.42964C0.0399981 7.53964 0.0299986 7.67963 0.0299986 7.67963L0.019999 7.76963C0.019999 7.85962 0.00999952 7.95962 0 8.04961L0 8.07961C0 8.07961 0 8.2396 0 8.3296C0 8.47959 0.00999952 8.53959 0.00999952 8.59959ZM2.37989 11.7894L2.33989 11.7694C2.34989 11.7794 2.36989 11.7894 2.37989 11.7894Z"></path><path id="Vector" fill-rule="evenodd" style="fill:#FFD12E" opacity="1" d="M5.63083 3.15196C5.46584 3.42995 5.46584 3.73493 5.63083 3.82692C5.71082 3.87392 5.81682 3.85392 5.92281 3.79393C6.02781 3.73493 6.1338 3.62194 6.2138 3.48294C6.37879 3.20496 6.37879 2.89998 6.2138 2.80798C6.1338 2.76098 6.02781 2.78098 5.92281 2.84098C5.81682 2.89998 5.71082 3.00597 5.63083 3.15196Z"></path></g></g></g><defs><linearGradient id="linear_0" x1="50%" y1="-3.0616171314629196e-15%" x2="51%" y2="100%" gradientUnits="objectBoundingBox"><stop offset="0" stop-color="#A0B0FF" stop-opacity="1" /><stop offset="1" stop-color="#F9FAFF" stop-opacity="1" /></linearGradient><linearGradient id="linear_1" x1="-0.08300583994249841%" y1="47.51238226890564%" x2="99.49885754913798%" y2="55.504417419433594%" gradientUnits="objectBoundingBox"><stop offset="0" stop-color="#D8D1FF" stop-opacity="1" /><stop offset="0.9143999814987183" stop-color="#E3E0FF" stop-opacity="1" /><stop offset="1" stop-color="#E3E0FF" stop-opacity="1" /></linearGradient><filter id="filter_8" x="0" y="0" width="69.34850063188571" height="24.985359308274685" filterUnits="userSpaceOnUse" color-interpolation-filters="sRGB"><feFlood flood-opacity="0" result="feFloodId"/>
          <feBlend mode="normal" in="SourceGraphic" in2="BackgroundImageFix" result="shape"/> 
          <feColorMatrix in="SourceAlpha" type="matrix" values="0 0 0 0 0 0 0 0 0 0 0 0 0 0 0 0 0 0 127 0" result="hardAlpha"/>
          
          <feOffset dx="0" dy="0.9302325581395349"/>
          <feGaussianBlur stdDeviation="0.5813953488372093"/>
          <feComposite in2="hardAlpha" operator="arithmetic" k2="-1" k3="1"/>
          <feColorMatrix type="matrix" values="0 0 0 0 0.21176470588235294 0 0 0 0 0.2823529411764706 0 0 0 0 0.8823529411764706 0 0 0 1 0"/>
          <feBlend mode="normal" in2="shape" result="innerShadow_0" />
          </filter><filter id="filter_11" x="-1.709986320109439" y="-1.709986320109439" width="37.90532420271888" height="15.721542578878546" filterUnits="userSpaceOnUse" color-interpolation-filters="sRGB"><feFlood flood-opacity="0" result="BackgroundImageFix"/>
          <feBlend mode="normal" in="SourceGraphic" in2="BackgroundImageFix" result="shape"/>
          <feGaussianBlur stdDeviation="0.8549931600547195" result="effect1_foregroundBlur" /></filter><linearGradient id="linear_2" x1="50%" y1="-3.0616171314629196e-15%" x2="51%" y2="100%" gradientUnits="objectBoundingBox"><stop offset="0" stop-color="#715BFD" stop-opacity="1" /><stop offset="1" stop-color="#D6D2FF" stop-opacity="1" /></linearGradient><linearGradient id="linear_3" x1="49.99999703981376%" y1="-34.02825593948364%" x2="50.99999703981376%" y2="34.02825593948364%" gradientUnits="objectBoundingBox"><stop offset="0" stop-color="#FFFFFF" stop-opacity="1" /><stop offset="1" stop-color="#FFFFFF" stop-opacity="0" /></linearGradient><linearGradient id="linear_4" x1="50.00136493543841%" y1="99.99938607215881%" x2="51.00136493543841%" y2="-0.0008106248060357757%" gradientUnits="objectBoundingBox"><stop offset="0" stop-color="#0017E9" stop-opacity="0.6" /><stop offset="1" stop-color="#FFFFFF" stop-opacity="0" /></linearGradient><linearGradient id="linear_5" x1="49.999672110862555%" y1="99.99938011169434%" x2="47.36137774424202%" y2="-1.0409961454570293%" gradientUnits="objectBoundingBox"><stop offset="0" stop-color="#2E75FF" stop-opacity="1" /><stop offset="1" stop-color="#FFFFFF" stop-opacity="0" /></linearGradient><linearGradient id="linear_6" x1="50%" y1="-3.0616171314629196e-15%" x2="51%" y2="100%" gradientUnits="objectBoundingBox"><stop offset="0" stop-color="#6F75FF" stop-opacity="1" /><stop offset="1" stop-color="#AEB2FF" stop-opacity="1" /></linearGradient><linearGradient id="linear_7" x1="34.81464601424455%" y1="19.167108833789825%" x2="68.10903081528248%" y2="64.25098776817322%" gradientUnits="objectBoundingBox"><stop offset="0" stop-color="#FFFFFF" stop-opacity="0.2" /><stop offset="1" stop-color="#FFFFFF" stop-opacity="0" /></linearGradient></defs></svg>