<svg xmlns="http://www.w3.org/2000/svg" xmlns:xlink="http://www.w3.org/1999/xlink" width="32" height="32" viewBox="0 0 32 32" fill="none"><g opacity="1"  transform="translate(0 0)"><mask id="bg-mask-0" fill="white"><use transform="translate(0 0)" xlink:href="#path_0"></use></mask><g mask="url(#bg-mask-0)" ><path  id="路径 1" style="fill:#FF5733; opacity:1;" d="M15.4307 28.3334M15.4307 28.3334Q20.4018 28.3334 22.5839 27.0692Q25.6663 25.2832 25.6663 20.1202Q25.6663 14.2426 22.8888 10.6072L23.6834 10.0001L24.542 10.5127L23.6834 10.0001L24.542 10.5127Q21.4646 15.6667 19.5529 15.6667Q17.9173 15.6667 17.8569 12.3831Q17.8012 9.35576 17.1061 7.97823Q15.7114 5.21485 12.0753 3.57868L12.4856 2.66675L13.478 2.54362L12.4856 2.66675L13.478 2.54362Q14.0599 7.23354 13.1776 9.47058Q12.8574 10.2823 10.959 12.0902Q5.9943 16.8181 6.36655 20.5234Q7.15119 28.3334 15.4307 28.3334L15.4307 28.3334ZM15.4307 30.3334Q5.34205 30.3334 4.37657 20.7233Q3.90651 16.0445 9.57972 10.6419Q11.1588 9.13811 11.3171 8.73679Q12.0123 6.97394 11.4932 2.78988C11.3972 2.0159 12.1847 1.43478 11.4932 2.78988C11.3972 2.0159 12.1847 1.43478 12.896 1.75482Q17.1778 3.68156 18.8916 7.07714Q19.7925 8.86238 19.8566 12.3463Q19.8777 13.4937 19.9458 13.805Q19.9156 13.6667 19.5529 13.6667Q20.3294 13.6667 22.8248 9.48743C23.1874 8.88015 24.0486 8.83094 22.8248 9.48743C23.1874 8.88015 24.0486 8.83094 24.478 9.39297Q27.6663 13.566 27.6663 20.1202Q27.6663 26.4359 23.5865 28.7997Q20.9394 30.3334 15.4307 30.3334L15.4307 30.3334Z"></path><path  id="路径 2" style="fill:#FF5733; opacity:1;" d="M15.1444 16.7456M15.1444 16.7456Q11.7542 19.827 12.2108 22.2199Q12.3695 23.0519 12.9545 23.5982Q13.4337 24.0456 14.0624 24.218Q15.3764 24.5784 16.3352 23.7244Q16.579 23.5073 16.6475 23.2794Q16.715 23.0547 16.6366 22.7413Q16.4199 21.8741 15.2257 20.5842Q13.8853 19.1364 13.4807 16.1394L14.4717 16.0056L15.1444 16.7456ZM13.7991 15.2656C14.3954 14.7237 15.355 15.0733 15.4628 15.8718Q15.7827 18.2419 16.6933 19.2255Q18.2358 20.8916 18.5769 22.2563Q19.0164 24.0147 17.6654 25.218Q16.6622 26.1114 15.377 26.2818Q14.4662 26.4026 13.5335 26.1468Q12.4292 25.844 11.5895 25.06Q10.5273 24.0681 10.2462 22.5948Q9.57959 19.1009 13.7991 15.2656Z"></path></g></g><defs><rect id="path_0" x="0" y="0" width="32" height="32" rx="0" ry="0"/></defs></svg>