<svg xmlns="http://www.w3.org/2000/svg" xmlns:xlink="http://www.w3.org/1999/xlink" width="108" height="108" viewBox="0 0 108 108" fill="none"><g opacity="1"  transform="translate(0 0)"><mask id="bg-mask-0" fill="white"><use transform="translate(0 0)" xlink:href="#path_0"></use></mask><g mask="url(#bg-mask-0)" ><path id="路径 1" fill-rule="evenodd" fill="url(#linear_0)" opacity="1" d="M19.4398 68.4001L87.4799 68.4001L99.8998 84.6001C104.4 90.3602 102.06 95.2202 94.6799 95.2202L12.9599 95.2202C5.57986 95.2202 3.23986 90.3602 7.55986 84.6001L19.4398 68.4001Z"></path><path id="路径 2" fill-rule="evenodd" fill="url(#linear_1)" opacity="1" d="M17.82 27.1094C18.1799 22.9563 21.9599 19.7999 26.46 19.7999L85.6799 19.7999C90.18 19.7999 93.96 23.1225 94.3199 27.1094C94.3199 27.1094 94.68 30.9302 94.68 33.0899L94.68 63.3244C94.68 67.4775 91.0799 70.7999 86.7599 70.7999L26.2799 70.7999C21.78 70.7999 17.0999 67.6436 15.4799 63.8227L14.9399 62.6598L17.82 27.1094Z"></path><path id="路径 3" fill-rule="evenodd" fill="url(#linear_2)" opacity="1" d="M22.4994 19.7999L81.5395 19.7999C86.0395 19.7999 89.6395 23.4 89.6395 27.8999L89.6395 64.0799C89.6395 68.58 86.0395 72.1799 81.5395 72.1799L22.4994 72.1799C17.9995 72 14.3994 68.3999 14.3994 63.9L14.3994 27.8999C14.3994 23.4 17.9995 19.7999 22.4994 19.7999Z"></path><path id="路径 4" fill-rule="evenodd" fill="url(#linear_3)" opacity="1" d="M40.8601 51.1201L48.4201 51.1201L48.4201 47.3401L40.8601 47.3401C38.8802 47.3401 37.8002 46.0802 37.8002 44.4602C37.8002 43.0201 38.8802 42.3002 40.8601 42.3002L46.2601 42.3002C46.2601 42.3002 42.3002 36.5401 40.8601 34.2001C39.6002 31.3201 45.1801 29.3401 46.8001 31.6801C48.4201 34.3801 51.8402 40.1401 51.8402 40.1401C51.8402 40.1401 53.8201 34.5601 55.4401 31.6801C56.8802 28.9801 62.4601 32.2201 60.8401 35.2801C59.4002 37.6201 56.3402 42.4801 56.3402 42.4801L61.2002 41.9401C63.1802 41.9401 64.4402 43.2001 64.4402 44.6401C64.4402 46.0802 63.7202 47.5201 61.7402 47.5201L54.1802 47.5201L54.1802 51.3001L61.2002 50.7601C63.1802 50.7601 64.6201 52.0202 64.6201 53.4601C64.6201 54.9001 63.5401 55.9801 61.5602 55.9801L54.0002 55.9801L54.0002 56.5201C54.0002 59.7601 53.1002 61.3801 51.1201 61.3801L49.1402 61.3801C48.0602 61.3801 46.9802 59.5802 46.9802 57.4202L48.2402 56.1601L40.6802 56.1601C38.7001 56.1601 37.6201 55.0801 37.6201 53.6402C37.8002 51.8401 38.8802 51.1201 40.8601 51.1201Z"></path><path id="路径 5" fill-rule="evenodd" style="fill:#FFFFFF" opacity="1" d="M39.0601 49.86L46.6201 49.86L46.6201 46.2599L39.0601 46.2599C37.08 46.2599 36 45 36 43.5599C36 42.1199 37.08 41.5799 39.0601 41.5799L44.4601 41.5799C44.4601 41.5799 41.7601 37.2599 40.32 34.9199C39.0601 32.2199 43.3801 30.0599 44.82 32.2199C46.44 34.7399 49.5 39.7799 49.5 39.7799C49.5 39.7799 52.92 34.3799 54.54 31.6799C55.98 29.1599 60.6601 32.0399 59.0401 34.9199L54.54 41.76L59.94 41.76C61.92 41.76 63 42.4799 63 43.7399C63 45.1799 61.92 46.4399 59.94 46.4399L52.38 46.4399L52.38 50.0399L59.94 50.0399C61.92 50.0399 63 50.7599 63 52.1999C63 53.64 61.92 54.5399 59.94 54.5399L52.38 54.5399L52.38 55.0799C52.38 58.1399 51.4801 59.58 49.5 59.58C47.52 59.58 46.6201 58.1399 46.6201 55.0799L46.6201 54.5399L39.0601 54.5399C37.08 54.5399 36 53.4599 36 52.1999C36 50.5799 37.08 49.86 39.0601 49.86Z"></path><path id="路径 6" fill-rule="evenodd" fill="url(#linear_4)" opacity="1" d="M75.5999 57.24C76.4999 55.44 78.6599 54 80.6399 54L84.7799 54C88.7399 54 90.7199 56.88 89.0999 60.48L86.2199 66.6L89.2799 66.78C97.0199 67.14 98.6399 71.64 93.2399 77.04L79.9199 89.64C78.48 91.08 75.78 91.44 73.9799 90.72L72.8999 90.18L81.7199 75.42L70.92 75.42C68.9399 75.42 68.0399 73.98 68.76 72.18L75.5999 57.24Z"></path><path id="路径 7" fill-rule="evenodd" fill="url(#linear_5)" opacity="1" d="M70.2005 57.24C71.1005 55.44 73.2605 54 75.2405 54L83.1605 54C85.1405 54 86.0405 55.44 85.3205 57.24L81.0005 66.6L91.4405 66.78C95.4005 66.78 96.3005 69.12 93.4205 71.82L87.8405 77.04L74.5205 89.64C73.0806 91.08 72.3605 90.54 72.9005 88.56L76.3205 75.42L65.5206 75.42C63.5405 75.42 62.6405 73.98 63.3606 72.18L70.2005 57.24Z"></path><path id="路径 7" fill-rule="evenodd" fill="url(#linear_6)" opacity="1" d="M70.2005 57.24C71.1005 55.44 73.2605 54 75.2405 54L83.1605 54C85.1405 54 86.0405 55.44 85.3205 57.24L81.0005 66.6L91.4405 66.78C95.4005 66.78 96.3005 69.12 93.4205 71.82L87.8405 77.04L74.5205 89.64C73.0806 91.08 72.3605 90.54 72.9005 88.56L76.3205 75.42L65.5206 75.42C63.5405 75.42 62.6405 73.98 63.3606 72.18L70.2005 57.24Z"></path></g></g><defs><rect id="path_0" x="0" y="0" width="108" height="108" rx="0" ry="0"/><linearGradient id="linear_0" x1="29.119003016113183%" y1="5.169204491319128%" x2="83.92301816648614%" y2="62.989477019684955%" gradientUnits="objectBoundingBox"><stop offset="0" stop-color="#E8F8FA" stop-opacity="0.9" /><stop offset="1" stop-color="#BADEF7" stop-opacity="1" /></linearGradient><linearGradient id="linear_1" x1="29.11896920507779%" y1="5.169204491319128%" x2="83.9230730954902%" y2="62.989477019684955%" gradientUnits="objectBoundingBox"><stop offset="0" stop-color="#E8F8FA" stop-opacity="0.9" /><stop offset="1" stop-color="#BADEF7" stop-opacity="1" /></linearGradient><linearGradient id="linear_2" x1="80.91959487876356%" y1="13.935026372865188%" x2="20.632575197638637%" y2="92.94617590615914%" gradientUnits="objectBoundingBox"><stop offset="0" stop-color="#57DDFF" stop-opacity="1" /><stop offset="1" stop-color="#1692F7" stop-opacity="1" /></linearGradient><linearGradient id="linear_3" x1="39.928000000000004%" y1="17.244%" x2="88.179%" y2="85.071%" gradientUnits="objectBoundingBox"><stop offset="0" stop-color="#D7F2FA" stop-opacity="0.18" /><stop offset="1" stop-color="#BFCDD9" stop-opacity="0.2" /></linearGradient><linearGradient id="linear_4" x1="39.92792752788898%" y1="17.244%" x2="88.17927471333662%" y2="85.071%" gradientUnits="objectBoundingBox"><stop offset="0" stop-color="#FAD7EA" stop-opacity="0.18" /><stop offset="1" stop-color="#D9BFCA" stop-opacity="0.2" /></linearGradient><linearGradient id="linear_5" x1="35.65099494479425%" y1="38.03640723644769%" x2="100.0001364832708%" y2="100.00013980735723%" gradientUnits="objectBoundingBox"><stop offset="0" stop-color="#FAEDF2" stop-opacity="0.96" /><stop offset="1" stop-color="#FCCFDD" stop-opacity="1" /></linearGradient><linearGradient id="linear_6" x1="80.92109584797501%" y1="13.935019482155228%" x2="20.632974600636004%" y2="92.94612994534626%" gradientUnits="objectBoundingBox"><stop offset="0" stop-color="#FF57A5" stop-opacity="1" /><stop offset="1" stop-color="#FC2828" stop-opacity="1" /></linearGradient></defs></svg>