<svg xmlns="http://www.w3.org/2000/svg" xmlns:xlink="http://www.w3.org/1999/xlink" width="108" height="108" viewBox="0 0 108 108" fill="none"><g opacity="1"  transform="translate(0 0)"><mask id="bg-mask-0" fill="white"><use transform="translate(0 0)" xlink:href="#path_0"></use></mask><g mask="url(#bg-mask-0)" ><path id="路径 1" fill-rule="evenodd" fill="url(#linear_0)" opacity="1" d="M15.8394 75.5999L92.6993 75.5999L102.419 89.4598C106.199 94.6799 103.859 98.9999 97.3794 98.9999L10.2593 98.9999C3.77933 98.9999 1.61933 94.8598 5.57933 89.6399L15.8394 75.5999Z"></path><path id="路径 2" fill-rule="evenodd" fill="url(#linear_1)" opacity="1" d="M29.8213 12.5999L78.7499 12.5999C85 12.5999 89.9999 17.6398 89.9999 23.9399L89.9999 78.6598C89.9999 84.9599 85 89.9998 78.7499 89.9998L29.8213 89.9998C23.5712 89.9998 18.5713 84.9599 18.5713 78.6598L18.5713 23.9399C18.5713 17.6398 23.5712 12.5999 29.8213 12.5999Z"></path><path id="路径 3" fill-rule="evenodd" fill="url(#linear_2)" opacity="1" d="M26.25 12.5999L75.18 12.5999C81.43 12.5999 86.43 17.6398 86.43 23.9398L86.43 78.6597C86.43 84.9598 81.43 89.9997 75.18 89.9997L26.25 89.9997C20 89.9997 15 84.9598 15 78.6597L15 23.9398C15 17.6398 20 12.5999 26.25 12.5999Z"></path><path id="路径 4" fill-rule="evenodd" style="fill:#DAE9FF" opacity="1" d="M29.486 54L35.0659 54C35.9024 54 36.4759 54.72 36.4759 55.8L36.4759 70.2C36.4759 71.28 35.9024 72 35.0659 72L29.486 72C28.6495 72 28.106 71.28 28.106 70.2L28.106 55.8C28.106 54.72 28.6495 54 29.486 54ZM47.0359 45L52.5859 45C53.4223 45 53.9958 45.72 53.9958 46.8L53.9958 70.2C53.9958 71.28 53.4223 72 52.5859 72L47.0359 72C46.1994 72 45.6259 71.28 45.6259 70.2L45.6259 46.8C45.6259 45.72 46.1994 45 47.0359 45Z"></path><path id="路径 5" fill-rule="evenodd" style="fill:#DAE9FF" opacity="1" d="M23.9399 71.3997C23.9399 70.3199 24.742 69.6 25.5439 69.6L73.6632 69.6C74.4651 69.6 75.2672 70.3199 75.2672 71.3997C75.2672 72.4795 74.4651 73.1995 73.6632 73.1995L25.5439 73.1995C24.5816 73.1995 23.9399 72.4795 23.9399 71.3997Z"></path><path id="路径 6" fill-rule="evenodd" style="fill:#DAE9FF" opacity="1" d="M64.5968 33.5999L70.984 33.5999C71.9421 33.5999 72.5809 34.3199 72.5809 35.3999L72.5809 71.3999C72.5809 72.4799 71.9421 73.1999 70.984 73.1999L64.5968 73.1999C63.6388 73.1999 63 72.4799 63 71.3999L63 35.3999C63 34.3199 63.6388 33.5999 64.5968 33.5999Z"></path><path id="路径 7" fill-rule="evenodd" style="fill:#FFFFFF" opacity="1" d="M28.1002 52.2L33.6802 52.2C34.5166 52.2 35.0902 52.92 35.0902 54L35.0902 68.4C35.0902 69.48 34.5166 70.2 33.6802 70.2L28.1002 70.2C27.2638 70.2 26.7202 69.48 26.7202 68.4L26.7202 54C26.7202 52.92 27.2638 52.2 28.1002 52.2ZM45.4402 43.1999L50.9902 43.1999C51.8266 43.1999 52.4002 43.9199 52.4002 44.9999L52.4002 68.4C52.4002 69.48 51.8266 70.2 50.9902 70.2L45.4402 70.2C44.6038 70.2 44.0302 69.48 44.0302 68.4L44.0302 44.9999C44.0302 43.9199 44.6038 43.1999 45.4402 43.1999ZM63.4102 30.5999L68.9902 30.5999C69.8266 30.5999 70.3702 31.3199 70.3702 32.3999L70.3702 68.4C70.3702 69.48 69.8266 70.2 68.9902 70.2L63.4102 70.2C62.5737 70.2 62.0002 69.48 62.0002 68.4L62.0002 32.3999C62.0002 31.3199 62.5737 30.5999 63.4102 30.5999Z"></path><path id="路径 8" fill-rule="evenodd" style="fill:#FFFFFF" opacity="1" d="M22.8735 68.4L70.9928 68.4C71.9552 68.4 72.5968 69.1199 72.5968 70.1997C72.5968 71.2796 71.9552 71.9995 70.9928 71.9995L22.8735 71.9995C21.9112 71.9995 21.2695 71.2796 21.2695 70.1997C21.2695 69.1199 21.9112 68.4 22.8735 68.4Z"></path><path id="路径 11" fill-rule="evenodd" fill="url(#linear_3)" opacity="1" d="M50.3994 66.0597C50.3994 63.3597 52.5594 61.1997 55.2594 61.1997L91.2594 61.1997C93.9594 61.1997 96.4793 63.3597 96.8394 66.0597C96.8394 66.0597 97.1994 68.3996 97.1994 69.8397L97.1994 87.1197C97.1994 89.8197 95.0394 91.9797 92.3394 91.9797L55.2594 91.9797C52.5594 91.9797 50.3994 89.8197 50.3994 87.1197L50.3994 66.0597Z"></path><path id="路径 12" fill-rule="evenodd" fill="url(#linear_4)" opacity="1" d="M53.4606 61.1997L88.7406 61.1997C91.4406 61.1997 93.6006 63.3597 93.6006 66.0597L93.6006 86.9397C93.6006 89.6397 91.4406 91.7997 88.7406 91.7997L53.4606 91.7997C50.7606 91.7997 48.6006 89.6397 48.6006 86.9397L48.6006 66.0597C48.6006 63.3597 50.7606 61.1997 53.4606 61.1997Z"></path><path id="路径 12" fill-rule="evenodd" fill="url(#linear_5)" opacity="1" d="M53.4606 61.1997L88.7406 61.1997C91.4406 61.1997 93.6006 63.3597 93.6006 66.0597L93.6006 86.9397C93.6006 89.6397 91.4406 91.7997 88.7406 91.7997L53.4606 91.7997C50.7606 91.7997 48.6006 89.6397 48.6006 86.9397L48.6006 66.0597C48.6006 63.3597 50.7606 61.1997 53.4606 61.1997Z"></path><path id="路径 13" fill-rule="evenodd" style="fill:#FFFFFF" opacity="1" d="M57.6002 89.1001C56.8802 89.1001 56.3402 88.9201 55.8002 88.3801C54.7202 87.3001 54.7202 85.6801 55.8002 84.6001L64.9802 75.0601C65.8802 74.1601 67.3202 73.9801 68.4002 74.7002L73.2602 78.1201L82.8002 68.4001C83.8802 67.3201 85.5002 67.3201 86.5802 68.4001C87.6602 69.4801 87.6602 71.1001 86.5802 72.1801L75.4202 83.5201C74.5202 84.4202 73.0802 84.6001 72.0002 83.8802L67.1402 80.4601L59.5802 88.2002C59.0402 88.7402 58.3202 89.1001 57.6002 89.1001Z"></path><path id="路径 14" fill-rule="evenodd" style="fill:#FFFFFF" opacity="1" d="M87.2993 72.7202C87.1193 73.6203 86.3993 73.9802 85.6793 73.2602L81.3593 69.1202C80.6393 68.4002 80.8193 67.6803 81.7193 67.5002L86.3993 66.6003C87.2993 66.4202 88.0193 66.9603 87.8393 68.0402L87.2993 72.7202Z"></path></g></g><defs><rect id="path_0" x="0" y="0" width="108" height="108" rx="0" ry="0"/><linearGradient id="linear_0" x1="29.118969552803943%" y1="5.169204491319128%" x2="83.92307253057845%" y2="62.989477019684955%" gradientUnits="objectBoundingBox"><stop offset="0" stop-color="#E8F8FA" stop-opacity="0.9" /><stop offset="1" stop-color="#BADEF7" stop-opacity="1" /></linearGradient><linearGradient id="linear_1" x1="39.92798435693126%" y1="17.244%" x2="88.17905929673566%" y2="85.071%" gradientUnits="objectBoundingBox"><stop offset="0" stop-color="#D7F2FA" stop-opacity="0.18" /><stop offset="1" stop-color="#BFCDD9" stop-opacity="0.2" /></linearGradient><linearGradient id="linear_2" x1="80.9196157475678%" y1="13.935026372865188%" x2="20.6325553764527%" y2="92.94617590615914%" gradientUnits="objectBoundingBox"><stop offset="0" stop-color="#57DDFF" stop-opacity="1" /><stop offset="1" stop-color="#1692F7" stop-opacity="1" /></linearGradient><linearGradient id="linear_3" x1="39.92804203392094%" y1="17.244%" x2="88.17884066589876%" y2="85.071%" gradientUnits="objectBoundingBox"><stop offset="0" stop-color="#FAD7EA" stop-opacity="0.18" /><stop offset="1" stop-color="#D9BFCA" stop-opacity="0.2" /></linearGradient><linearGradient id="linear_4" x1="35.651016183457926%" y1="38.03640723644769%" x2="100.00006247562506%" y2="100.00013980735723%" gradientUnits="objectBoundingBox"><stop offset="0" stop-color="#FAEDF2" stop-opacity="0.96" /><stop offset="1" stop-color="#FCCFDD" stop-opacity="1" /></linearGradient><linearGradient id="linear_5" x1="80.92105008014981%" y1="13.935019482155228%" x2="20.633018068205594%" y2="92.94612994534626%" gradientUnits="objectBoundingBox"><stop offset="0" stop-color="#FF57A5" stop-opacity="1" /><stop offset="1" stop-color="#FC2828" stop-opacity="1" /></linearGradient></defs></svg>