<svg xmlns="http://www.w3.org/2000/svg" xmlns:xlink="http://www.w3.org/1999/xlink" width="108" height="108" viewBox="0 0 108 108" fill="none"><g opacity="1"  transform="translate(0 0)"><mask id="bg-mask-0" fill="white"><use transform="translate(0 0)" xlink:href="#path_0"></use></mask><g mask="url(#bg-mask-0)" ><path id="路径 1" fill-rule="evenodd" fill="url(#linear_0)" opacity="1" d="M17.6392 77.4003L89.0992 77.4003L98.4593 88.9202C101.699 93.0603 100.259 96.3003 94.8592 96.3003L11.1592 96.3003C5.93921 96.3003 4.49922 93.0603 7.73922 89.1002L17.6392 77.4003ZM45.8992 16.7402C50.5792 16.7402 52.0193 19.8002 52.0193 21.9602L52.0193 46.8002C52.0193 48.9602 49.3193 51.3002 46.9792 51.3002L21.0592 51.3002C18.7192 51.3002 16.9193 48.9602 16.9193 46.8002L16.9193 20.7003C16.9193 18.5403 18.7192 16.7402 21.0592 16.7402L45.8992 16.7402Z"></path><path id="路径 2" fill-rule="evenodd" fill="url(#linear_1)" opacity="1" d="M84.7809 55.2598C89.6409 55.2598 91.0808 58.4998 91.0808 60.4797L91.0808 85.3197C91.0808 87.2997 89.4608 89.0997 87.3008 89.0997L62.4608 89.0997C60.4809 89.0997 58.6808 87.4797 58.6808 85.3197L58.6808 60.4797C58.6808 58.4998 60.3008 56.6997 62.4608 56.6997L84.7809 55.2598ZM46.2608 55.2598C51.6608 55.7998 52.7408 58.4998 52.7408 60.4797L52.7408 85.3197C52.7408 87.2997 51.1208 89.0997 48.9608 89.0997L24.1208 89.0997C22.1409 89.0997 20.3408 87.4797 20.3408 85.3197L20.3408 60.4797C20.3408 58.4998 21.9608 56.6997 24.1208 56.6997L46.2608 55.2598Z"></path><path id="路径 3" fill-rule="evenodd" fill="url(#linear_2)" opacity="1" d="M45.5403 16.7402C47.5202 16.7402 49.3203 18.3602 49.3203 20.5202L49.3203 45.3602C49.3203 47.3402 47.7003 49.1402 45.5403 49.1402L20.5202 49.1402C18.5403 49.1402 16.7402 47.5202 16.7402 45.3602L16.7402 20.5202C16.7402 18.5403 18.3602 16.7402 20.5202 16.7402L45.5403 16.7402ZM83.7002 54.9002C85.6802 54.9002 87.4802 56.5202 87.4802 58.6802L87.4802 83.5202C87.4802 85.5003 85.8602 87.3002 83.7002 87.3002L58.8602 87.3002C56.8803 87.3002 55.0802 85.6802 55.0802 83.5202L55.0802 58.6802C55.0802 56.7002 56.7002 54.9002 58.8602 54.9002L83.7002 54.9002ZM45.5403 54.9002C47.5202 54.9002 49.3203 56.5202 49.3203 58.6802L49.3203 83.5202C49.3203 85.5003 47.7003 87.3002 45.5403 87.3002L20.5202 87.3002C18.5403 87.3002 16.7402 85.6802 16.7402 83.5202L16.7402 58.6802C16.7402 56.7002 18.3602 54.9002 20.5202 54.9002L45.5403 54.9002Z"></path><path id="路径 4" fill-rule="evenodd" fill="url(#linear_3)" opacity="1" d="M94.8607 23.5799L74.3408 12.78C72.5408 11.7 66.7808 12.42 65.8808 14.4L56.3409 37.98C55.4408 39.7799 55.9808 42.12 57.9609 43.2L77.4008 54.3599C81.9008 56.16 84.6008 54.18 85.5008 52.38L96.6608 31.1399C97.7408 29.16 97.7408 25.02 94.8607 23.5799Z"></path><path id="路径 5" fill-rule="evenodd" fill="url(#linear_4)" opacity="1" d="M91.6194 24.6602L69.4794 12.9602C67.6795 12.0602 65.3395 12.7802 64.4395 14.5802L52.7395 36.7202C51.8395 38.5203 52.5596 40.8602 54.3595 41.7603L76.4994 53.4602C78.2995 54.3602 80.6395 53.6403 81.5395 51.8402L93.2394 29.7002C94.1395 27.9002 93.4195 25.7402 91.6194 24.6602Z"></path><path id="路径 5" fill-rule="evenodd" fill="url(#linear_5)" opacity="1" d="M91.6194 24.6602L69.4794 12.9602C67.6795 12.0602 65.3395 12.7802 64.4395 14.5802L52.7395 36.7202C51.8395 38.5203 52.5596 40.8602 54.3595 41.7603L76.4994 53.4602C78.2995 54.3602 80.6395 53.6403 81.5395 51.8402L93.2394 29.7002C94.1395 27.9002 93.4195 25.7402 91.6194 24.6602Z"></path></g></g><defs><rect id="path_0" x="0" y="0" width="108" height="108" rx="0" ry="0"/><linearGradient id="linear_0" x1="29.118930349351217%" y1="5.169204491319128%" x2="83.92313622003925%" y2="62.989477019684955%" gradientUnits="objectBoundingBox"><stop offset="0" stop-color="#E8F8FA" stop-opacity="0.9" /><stop offset="1" stop-color="#BADEF7" stop-opacity="1" /></linearGradient><linearGradient id="linear_1" x1="29.118935210253717%" y1="5.169204491319128%" x2="83.92312832307513%" y2="62.989477019684955%" gradientUnits="objectBoundingBox"><stop offset="0" stop-color="#E8F8FA" stop-opacity="0.9" /><stop offset="1" stop-color="#BADEF7" stop-opacity="1" /></linearGradient><linearGradient id="linear_2" x1="80.91964210031807%" y1="13.935026372865188%" x2="20.63253034661595%" y2="92.94617590615914%" gradientUnits="objectBoundingBox"><stop offset="0" stop-color="#57DDFF" stop-opacity="1" /><stop offset="1" stop-color="#1692F7" stop-opacity="1" /></linearGradient><linearGradient id="linear_3" x1="39.928038578061454%" y1="17.244%" x2="88.1788537657061%" y2="85.071%" gradientUnits="objectBoundingBox"><stop offset="0" stop-color="#FAD7EA" stop-opacity="0.18" /><stop offset="1" stop-color="#D9BFCA" stop-opacity="0.2" /></linearGradient><linearGradient id="linear_4" x1="35.65100378803638%" y1="38.03640723644769%" x2="100.0001056683598%" y2="100.00013980735723%" gradientUnits="objectBoundingBox"><stop offset="0" stop-color="#FAEDF2" stop-opacity="0.96" /><stop offset="1" stop-color="#FCCFDD" stop-opacity="1" /></linearGradient><linearGradient id="linear_5" x1="80.92107679141071%" y1="13.935019482155228%" x2="20.632992699432066%" y2="92.94612994534626%" gradientUnits="objectBoundingBox"><stop offset="0" stop-color="#FF57A5" stop-opacity="1" /><stop offset="1" stop-color="#FC2828" stop-opacity="1" /></linearGradient></defs></svg>