<svg xmlns="http://www.w3.org/2000/svg" xmlns:xlink="http://www.w3.org/1999/xlink" width="108" height="108" viewBox="0 0 108 108" fill="none"><g opacity="1"  transform="translate(0 0)"><mask id="bg-mask-0" fill="white"><use transform="translate(0 0)" xlink:href="#path_0"></use></mask><g mask="url(#bg-mask-0)" ><path id="路径 1" fill-rule="evenodd" fill="url(#linear_0)" opacity="1" d="M5.39941 94.3203C5.39941 94.3733 5.41033 94.4264 5.43215 94.4794C5.45398 94.5323 5.48669 94.5852 5.53029 94.6379C5.57389 94.6907 5.62833 94.7433 5.6936 94.7958C5.75886 94.8482 5.83489 94.9004 5.92167 94.9524C6.00845 95.0044 6.10588 95.0562 6.21396 95.1076C6.32204 95.159 6.44065 95.2101 6.56978 95.2609C6.6989 95.3116 6.83839 95.3619 6.98825 95.4119C7.13811 95.4618 7.29815 95.5113 7.46836 95.5602C7.63859 95.6092 7.81879 95.6577 8.00899 95.7057C8.19917 95.7535 8.3991 95.8009 8.6088 95.8477C8.81848 95.8945 9.03766 95.9406 9.26635 95.9861C9.49504 96.0315 9.73295 96.0763 9.98007 96.1204C10.2272 96.1644 10.4833 96.2078 10.7483 96.2504C11.0132 96.293 11.2868 96.3348 11.569 96.3758C11.8512 96.4168 12.1416 96.4569 12.4404 96.4962C12.7391 96.5355 13.0457 96.5739 13.3603 96.6114C13.6748 96.6489 13.9968 96.6854 14.3264 96.721C14.656 96.7567 14.9927 96.7913 15.3366 96.8249C15.6805 96.8586 16.0311 96.8912 16.3883 96.9228C16.7455 96.9543 17.1091 96.9848 17.479 97.0143C17.8488 97.0438 18.2246 97.0721 18.6061 97.0994C18.9876 97.1266 19.3746 97.1528 19.7669 97.1778C20.1591 97.2028 20.5563 97.2266 20.9585 97.2493C21.3606 97.2719 21.7671 97.2934 22.1781 97.3137C22.589 97.3341 23.0039 97.3531 23.4228 97.371C23.8416 97.3889 24.2638 97.4055 24.6894 97.4209C25.1151 97.4362 25.5437 97.4503 25.9752 97.4633C26.4067 97.4762 26.8406 97.4878 27.2769 97.4981C27.7131 97.5084 28.1512 97.5175 28.5913 97.5253C29.0313 97.5331 29.4727 97.5396 29.9153 97.5447C30.358 97.5499 30.8015 97.5538 31.2458 97.5564C31.69 97.559 32.1346 97.5603 32.5795 97.5603C33.0242 97.5603 33.4688 97.559 33.9131 97.5564C34.3573 97.5538 34.8008 97.5499 35.2435 97.5447C35.6861 97.5396 36.1275 97.5331 36.5675 97.5253C37.0076 97.5175 37.4457 97.5084 37.882 97.4981C38.3183 97.4878 38.7521 97.4762 39.1836 97.4633C39.6151 97.4503 40.0437 97.4362 40.4694 97.4208C40.895 97.4055 41.3172 97.3889 41.736 97.371C42.1549 97.3531 42.5698 97.334 42.9808 97.3137C43.3918 97.2934 43.7983 97.2719 44.2003 97.2493C44.6025 97.2266 44.9997 97.2028 45.392 97.1778C45.7842 97.1528 46.1712 97.1266 46.5527 97.0994C46.9343 97.0721 47.31 97.0438 47.6798 97.0143C48.0497 96.9848 48.4133 96.9543 48.7705 96.9228C49.1278 96.8912 49.4784 96.8586 49.8222 96.8249C50.166 96.7913 50.5028 96.7567 50.8324 96.721C51.162 96.6854 51.484 96.6489 51.7986 96.6114C52.1131 96.5739 52.4197 96.5355 52.7185 96.4962C53.0172 96.4569 53.3076 96.4168 53.5899 96.3758C53.872 96.3348 54.1456 96.293 54.4106 96.2504C54.6756 96.2078 54.9317 96.1644 55.1788 96.1204C55.4259 96.0763 55.6638 96.0315 55.8925 95.9861C56.1211 95.9406 56.3403 95.8945 56.5501 95.8477C56.7597 95.8009 56.9597 95.7535 57.1499 95.7057C57.34 95.6577 57.5203 95.6092 57.6905 95.5602C57.8606 95.5113 58.0207 95.4618 58.1706 95.4119C58.3205 95.3619 58.4599 95.3116 58.5891 95.2609C58.7182 95.2101 58.8367 95.159 58.9448 95.1076C59.053 95.0562 59.1504 95.0044 59.2372 94.9524C59.324 94.9004 59.3999 94.8482 59.4652 94.7958C59.5305 94.7433 59.5849 94.6907 59.6285 94.6379C59.6722 94.5852 59.7049 94.5323 59.7267 94.4794C59.7485 94.4264 59.7594 94.3733 59.7594 94.3203C59.7594 94.2673 59.7485 94.2143 59.7267 94.1614C59.7049 94.1084 59.6722 94.0556 59.6285 94.0028C59.5849 93.95 59.5305 93.8974 59.4652 93.845C59.3999 93.7925 59.324 93.7403 59.2372 93.6882C59.1504 93.6362 59.053 93.5845 58.9448 93.5331C58.8367 93.4816 58.7182 93.4306 58.5891 93.3799C58.4599 93.3291 58.3205 93.2788 58.1706 93.2288C58.0207 93.1789 57.8606 93.1294 57.6905 93.0804C57.5203 93.0314 57.34 92.983 57.1499 92.9351C56.9597 92.8871 56.7597 92.8398 56.5501 92.793C56.3403 92.7463 56.1211 92.7001 55.8925 92.6547C55.6638 92.6092 55.4259 92.5644 55.1788 92.5203C54.9317 92.4762 54.6756 92.4329 54.4106 92.3902C54.1456 92.3477 53.872 92.3059 53.5899 92.2649C53.3076 92.224 53.0172 92.1838 52.7185 92.1445C52.4197 92.1052 52.1131 92.0668 51.7986 92.0293C51.484 91.9919 51.162 91.9553 50.8324 91.9196C50.5028 91.8841 50.166 91.8495 49.8222 91.8159C49.4784 91.7822 49.1278 91.7496 48.7705 91.718C48.4133 91.6864 48.0497 91.6559 47.6798 91.6264C47.31 91.597 46.9343 91.5686 46.5527 91.5413C46.1712 91.514 45.7842 91.4879 45.392 91.463C44.9997 91.4379 44.6025 91.4141 44.2003 91.3915C43.7983 91.3687 43.3918 91.3473 42.9808 91.327C42.5698 91.3067 42.1549 91.2876 41.736 91.2697C41.3172 91.2519 40.895 91.2353 40.4694 91.2199C40.0437 91.2045 39.6151 91.1903 39.1836 91.1775C38.7521 91.1646 38.3183 91.153 37.882 91.1427C37.4457 91.1322 37.0076 91.1232 36.5675 91.1154C36.1275 91.1076 35.6861 91.1011 35.2435 91.0959C34.8008 91.0907 34.3573 91.0868 33.9131 91.0842C33.4688 91.0816 33.0242 91.0803 32.5795 91.0803C32.1346 91.0803 31.69 91.0816 31.2458 91.0842C30.8015 91.0868 30.358 91.0907 29.9153 91.0959C29.4727 91.1011 29.0313 91.1076 28.5913 91.1154C28.1512 91.1232 27.7131 91.1322 27.2769 91.1427C26.8406 91.153 26.4067 91.1646 25.9752 91.1775C25.5437 91.1903 25.1151 91.2045 24.6894 91.2199C24.2638 91.2353 23.8416 91.2519 23.4228 91.2697C23.0039 91.2876 22.589 91.3067 22.1781 91.327C21.7671 91.3473 21.3606 91.3687 20.9585 91.3915C20.5563 91.4141 20.1591 91.4379 19.7669 91.463C19.3746 91.4879 18.9876 91.514 18.6061 91.5413C18.2246 91.5686 17.8489 91.597 17.4791 91.6264C17.1092 91.6559 16.7455 91.6864 16.3883 91.718C16.0311 91.7496 15.6805 91.7822 15.3366 91.8158C14.9927 91.8494 14.656 91.8841 14.3264 91.9196C13.9968 91.9553 13.6748 91.9919 13.3603 92.0293C13.0457 92.0668 12.7391 92.1052 12.4404 92.1445C12.1416 92.1838 11.8512 92.224 11.569 92.2649C11.2868 92.3059 11.0132 92.3477 10.7483 92.3902C10.4833 92.4329 10.2272 92.4762 9.98007 92.5203C9.73295 92.5644 9.49504 92.6092 9.26635 92.6547C9.03766 92.7001 8.81848 92.7463 8.6088 92.793C8.39911 92.8398 8.19918 92.8871 8.00899 92.9351C7.81879 92.983 7.63859 93.0314 7.46837 93.0804C7.29815 93.1294 7.13811 93.1789 6.98825 93.2288C6.83839 93.2788 6.6989 93.3291 6.56978 93.3799C6.44065 93.4306 6.32205 93.4816 6.21397 93.5331C6.10589 93.5845 6.00845 93.6362 5.92167 93.6882C5.83489 93.7403 5.75887 93.7925 5.6936 93.845C5.62833 93.8974 5.57389 93.95 5.53029 94.0028C5.4867 94.0556 5.45398 94.1084 5.43215 94.1614C5.41033 94.2143 5.39941 94.2673 5.39941 94.3203Z"></path><path id="路径 2" fill-rule="evenodd" fill="url(#linear_1)" opacity="1" d="M61.3799 98.4602C61.3799 98.4984 61.386 98.5367 61.3981 98.5749C61.4103 98.6132 61.4285 98.6513 61.4528 98.6894C61.477 98.7276 61.5073 98.7656 61.5436 98.8035C61.5799 98.8413 61.6221 98.8791 61.6704 98.9166C61.7187 98.9542 61.7729 98.9915 61.8331 99.0287C61.8932 99.0659 61.9591 99.1027 62.0309 99.1394C62.1028 99.176 62.1804 99.2124 62.2637 99.2484C62.3471 99.2845 62.4362 99.3202 62.5309 99.3556C62.6256 99.3909 62.7258 99.426 62.8316 99.4606C62.9374 99.4952 63.0486 99.5294 63.1653 99.5631C63.2819 99.597 63.4038 99.6303 63.531 99.6631C63.6582 99.696 63.7906 99.7283 63.9281 99.7602C64.0656 99.792 64.208 99.8233 64.3554 99.854C64.5028 99.8848 64.655 99.915 64.8119 99.9446C64.969 99.9742 65.1305 100.003 65.2967 100.032C65.4629 100.06 65.6335 100.088 65.8084 100.115C65.9834 100.142 66.1626 100.168 66.346 100.194C66.5293 100.22 66.7166 100.245 66.9079 100.269C67.0992 100.293 67.2942 100.317 67.493 100.34C67.6917 100.362 67.8939 100.384 68.0997 100.406C68.3055 100.427 68.5144 100.448 68.7266 100.467C68.9389 100.487 69.1542 100.506 69.3724 100.524C69.5907 100.542 69.8116 100.559 70.0353 100.575C70.2589 100.592 70.4851 100.607 70.7138 100.622C70.9423 100.637 71.1731 100.65 71.4062 100.663C71.6391 100.676 71.874 100.688 72.1108 100.699C72.3476 100.71 72.586 100.721 72.8261 100.73C73.066 100.739 73.3074 100.748 73.5501 100.755C73.7928 100.763 74.0366 100.769 74.2813 100.775C74.5261 100.78 74.7717 100.785 75.0179 100.789C75.2642 100.793 75.5109 100.795 75.758 100.797C76.0051 100.799 76.2525 100.8 76.4999 100.8C76.7474 100.8 76.9947 100.799 77.2419 100.797C77.489 100.795 77.7357 100.793 77.9819 100.789C78.2282 100.785 78.4737 100.78 78.7185 100.775C78.9633 100.769 79.207 100.763 79.4496 100.755C79.6923 100.748 79.9337 100.739 80.1738 100.73C80.4138 100.721 80.6522 100.71 80.889 100.699C81.1257 100.688 81.3607 100.676 81.5937 100.663C81.8267 100.65 82.0575 100.637 82.2861 100.622C82.5147 100.607 82.7408 100.592 82.9645 100.575C83.1882 100.559 83.4092 100.542 83.6275 100.524C83.8457 100.506 84.0608 100.487 84.2731 100.467C84.4855 100.448 84.6944 100.427 84.9002 100.406C85.1059 100.385 85.3081 100.362 85.5069 100.34C85.7056 100.317 85.9006 100.293 86.0919 100.269C86.2832 100.245 86.4705 100.22 86.6539 100.194C86.8373 100.168 87.0164 100.142 87.1914 100.115C87.3663 100.088 87.537 100.06 87.7031 100.032C87.8692 100.003 88.0308 99.9742 88.1878 99.9446C88.3449 99.915 88.4971 99.8848 88.6444 99.854C88.7918 99.8233 88.9343 99.792 89.0718 99.7602C89.2092 99.7283 89.3416 99.696 89.4688 99.6631C89.596 99.6303 89.718 99.597 89.8346 99.5631C89.9512 99.5294 90.0624 99.4952 90.1682 99.4606C90.274 99.426 90.3743 99.3909 90.469 99.3556C90.5636 99.3202 90.6526 99.2845 90.7361 99.2484C90.8195 99.2124 90.897 99.176 90.9688 99.1394C91.0406 99.1027 91.1067 99.0659 91.1668 99.0287C91.2269 98.9915 91.2811 98.9542 91.3294 98.9166C91.3776 98.8791 91.4199 98.8413 91.4563 98.8035C91.4926 98.7656 91.5229 98.7276 91.5471 98.6894C91.5714 98.6513 91.5896 98.6132 91.6017 98.5749C91.6139 98.5367 91.6199 98.4984 91.6199 98.4602C91.6199 98.4218 91.6139 98.3836 91.6017 98.3453C91.5896 98.3071 91.5714 98.2689 91.5471 98.2308C91.5229 98.1926 91.4926 98.1546 91.4563 98.1167C91.4199 98.0788 91.3776 98.0411 91.3294 98.0036C91.2811 97.966 91.2269 97.9287 91.1668 97.8916C91.1067 97.8544 91.0406 97.8175 90.9688 97.7808C90.897 97.7442 90.8195 97.7078 90.7361 97.6718C90.6526 97.6357 90.5636 97.6 90.469 97.5646C90.3743 97.5293 90.274 97.4943 90.1682 97.4597C90.0624 97.425 89.9512 97.3908 89.8346 97.3571C89.718 97.3233 89.596 97.29 89.4688 97.2571C89.3416 97.2242 89.2092 97.1919 89.0718 97.16C88.9343 97.1282 88.7918 97.0969 88.6444 97.0662C88.4971 97.0354 88.3449 97.0053 88.1878 96.9757C88.0308 96.9461 87.8692 96.9171 87.7031 96.8887C87.537 96.8603 87.3663 96.8325 87.1914 96.8055C87.0164 96.7784 86.8373 96.752 86.6539 96.7262C86.4705 96.7006 86.2832 96.6756 86.0919 96.6513C85.9007 96.627 85.7057 96.6034 85.5069 96.5806C85.3081 96.5578 85.1059 96.5358 84.9002 96.5145C84.6944 96.4932 84.4855 96.4727 84.2731 96.453C84.0608 96.4333 83.8457 96.4145 83.6275 96.3964C83.4092 96.3784 83.1883 96.3612 82.9646 96.3448C82.7409 96.3284 82.5147 96.3129 82.2861 96.2983C82.0575 96.2836 81.8267 96.2698 81.5937 96.2569C81.3607 96.244 81.1259 96.2319 80.8891 96.2208C80.6523 96.2097 80.4138 96.1995 80.1738 96.1903C79.9337 96.181 79.6924 96.1726 79.4497 96.165C79.2071 96.1576 78.9633 96.1511 78.7185 96.1454C78.4737 96.1398 78.2282 96.1351 77.9819 96.1314C77.7357 96.1276 77.489 96.1248 77.2419 96.123C76.9947 96.1211 76.7474 96.1201 76.4999 96.1201C76.2525 96.1201 76.0051 96.1211 75.758 96.123C75.5109 96.1248 75.2642 96.1276 75.0179 96.1314C74.7717 96.1351 74.5261 96.1398 74.2813 96.1454C74.0366 96.1511 73.7928 96.1576 73.5501 96.165C73.3074 96.1725 73.066 96.1809 72.8261 96.1903C72.586 96.1995 72.3476 96.2097 72.1108 96.2208C71.874 96.2319 71.6391 96.244 71.4062 96.2569C71.1731 96.2698 70.9423 96.2836 70.7138 96.2983C70.4851 96.3129 70.2589 96.3284 70.0353 96.3448C69.8116 96.3612 69.5907 96.3784 69.3724 96.3964C69.1542 96.4145 68.9389 96.4333 68.7267 96.453C68.5145 96.4727 68.3055 96.4932 68.0997 96.5145C67.894 96.5358 67.6917 96.5578 67.493 96.5806C67.2942 96.6034 67.0992 96.627 66.9079 96.6513C66.7166 96.6756 66.5293 96.7006 66.346 96.7262C66.1626 96.752 65.9834 96.7784 65.8085 96.8055C65.6335 96.8325 65.4629 96.8603 65.2968 96.8887C65.1306 96.9171 64.969 96.9461 64.812 96.9757C64.655 97.0053 64.5028 97.0354 64.3555 97.0662C64.208 97.0969 64.0656 97.1282 63.9281 97.16C63.7907 97.1919 63.6583 97.2242 63.531 97.2571C63.4038 97.29 63.2819 97.3233 63.1653 97.3571C63.0486 97.3908 62.9374 97.425 62.8316 97.4597C62.7258 97.4943 62.6256 97.5293 62.5309 97.5646C62.4362 97.6 62.3471 97.6357 62.2638 97.6718C62.1804 97.7078 62.1028 97.7442 62.0309 97.7808C61.9591 97.8175 61.8932 97.8544 61.8331 97.8916C61.773 97.9287 61.7188 97.966 61.6704 98.0036C61.6221 98.0411 61.5799 98.0788 61.5436 98.1167C61.5073 98.1546 61.477 98.1926 61.4528 98.2308C61.4285 98.2689 61.4103 98.3071 61.3981 98.3453C61.386 98.3836 61.3799 98.4218 61.3799 98.4602Z"></path><path id="路径 3" fill-rule="evenodd" style="fill:#000000" opacity="1" d="M59.9394 43.5601L21.2394 43.5601C19.9794 43.5601 18.8994 44.4601 18.8994 45.5401C18.8994 46.6201 19.9794 47.5201 21.2394 47.5201L59.9394 47.5201C61.1995 47.5201 62.2795 46.6201 62.2795 45.5401C62.2795 44.4601 61.1995 43.5601 59.9394 43.5601Z"></path><path id="路径 4" fill-rule="evenodd" fill="url(#linear_2)" opacity="1" d="M98.6407 50.5803L60.6608 51.6603C58.3208 51.6603 56.3408 53.6404 56.3408 55.9803L56.3408 81.1804C56.3408 83.5203 58.3208 85.5004 60.6608 85.5004L74.8808 85.5004L75.2408 88.7404L78.8408 90.3604C79.5608 90.7204 80.8208 90.5403 81.3607 89.8204L85.6808 85.5004L97.9208 85.5004C100.261 85.5004 103.321 83.5203 103.321 81.1804L103.321 55.9803C103.501 53.6404 100.981 50.5803 98.6407 50.5803Z"></path><path id="路径 5" fill-rule="evenodd" fill="url(#linear_3)" opacity="1" d="M95.3992 50.5803L55.9792 50.5803C53.6393 50.5803 51.6592 52.5604 51.6592 54.9003L51.6592 79.7403C51.6592 82.0804 53.6393 84.0603 55.9792 84.0603L70.1992 84.0603L74.5192 88.3803C75.0592 88.9203 76.1392 88.9203 76.6792 88.3803L80.9992 84.0603L95.3992 84.0603C97.7392 84.0603 99.7192 82.0804 99.7192 79.7403L99.7192 54.9003C99.5392 52.5604 97.7392 50.5803 95.3992 50.5803Z"></path><path id="路径 5" fill-rule="evenodd" fill="url(#linear_4)" opacity="1" d="M95.3992 50.5803L55.9792 50.5803C53.6393 50.5803 51.6592 52.5604 51.6592 54.9003L51.6592 79.7403C51.6592 82.0804 53.6393 84.0603 55.9792 84.0603L70.1992 84.0603L74.5192 88.3803C75.0592 88.9203 76.1392 88.9203 76.6792 88.3803L80.9992 84.0603L95.3992 84.0603C97.7392 84.0603 99.7192 82.0804 99.7192 79.7403L99.7192 54.9003C99.5392 52.5604 97.7392 50.5803 95.3992 50.5803Z"></path><path id="路径 6" fill-rule="evenodd" fill="url(#linear_5)" opacity="1" d="M71.2803 19.8003L16.9203 21.2404C13.5003 21.2404 10.8003 23.9404 10.8003 27.3603L10.8003 63.0003C10.8003 66.4203 13.5003 69.1203 16.9203 69.1203L37.4403 69.1203L39.4203 73.9803L42.3003 75.4203C43.9203 76.1403 46.0803 75.7804 47.3403 74.5203L52.7403 68.9403L73.2603 68.9403C76.6803 68.9403 79.3803 66.2403 79.3803 62.8204L79.3803 27.3603C79.3803 23.9404 74.7003 19.8003 71.2803 19.8003Z"></path><path id="路径 7" fill-rule="evenodd" style="fill:#3889FF" opacity="1" d="M67.8594 19.8003L11.5194 19.8003C8.09941 19.8003 5.39941 22.5003 5.39941 25.9203L5.39941 61.5603C5.39941 64.9804 8.09941 67.6804 11.5194 67.6804L32.0395 67.6804L37.4395 73.2603C38.6994 74.5203 40.6795 74.5203 41.9394 73.2603L47.3394 67.6804L67.8594 67.6804C71.2794 67.6804 73.9794 64.9804 73.9794 61.5603L73.9794 25.9203C73.9794 22.5003 71.2794 19.8003 67.8594 19.8003Z"></path><g opacity="1"  transform="translate(13.48681640625 32.98681640625)"><path id="路径 9" fill-rule="evenodd" fill="url(#linear_6)" opacity="1" d="M6.36497 8.49485L12.6865 14.9012C13.9593 16.174 13.9767 17.8536 12.7289 19.1014C11.4811 20.3493 9.7591 20.3742 8.48628 19.1014L2.12234 12.7375C0.849594 11.4647 0.874476 9.74271 2.12234 8.49485C3.37012 7.24706 5.21945 7.34934 6.36497 8.49485Z"></path><path id="路径 9" fill-rule="evenodd" fill="url(#linear_7)" opacity="1" d="M21.2141 6.36424L33.8975 19.1379C35.1703 20.4107 35.1878 22.0903 33.94 23.3381C32.6921 24.5859 30.9702 24.6109 29.6973 23.3381L16.9715 10.6069C15.6987 9.33412 15.7236 7.6121 16.9715 6.36424C18.2192 5.11645 20.0686 5.21872 21.2141 6.36424Z"></path><path id="路径 9" fill-rule="evenodd" fill="url(#linear_8)" opacity="1" d="M21.2327 10.6247L12.7474 19.11C11.4746 20.3828 9.75258 20.3578 8.50479 19.11C7.25693 17.8621 7.23198 16.1402 8.50479 14.8674L16.9901 6.3821C18.2628 5.10936 19.9848 5.13424 21.2327 6.3821C22.4805 7.62989 22.3782 9.47922 21.2327 10.6247Z"></path><path id="路径 9" fill-rule="evenodd" fill="url(#linear_9)" opacity="1" d="M50.9324 6.36424L33.9635 23.332C32.6907 24.6049 30.9687 24.5798 29.7209 23.332C28.473 22.0842 28.4481 20.3622 29.7209 19.0894L46.6898 2.1216C47.9625 0.848857 49.6845 0.873739 50.9324 2.1216C52.1802 3.36939 52.0779 5.21873 50.9324 6.36424Z"></path></g><path id="路径 9" fill-rule="evenodd" style="fill:#FFFFFF" opacity="1" d="M18.3635 38.4824L24.685 44.8888C25.9578 46.1616 25.9752 47.8412 24.7275 49.089C23.4796 50.3368 21.7576 50.3618 20.4848 49.089L14.1209 42.725C12.8481 41.4523 12.873 39.7303 14.1209 38.4824C15.3687 37.2346 17.218 37.3369 18.3635 38.4824Z"></path><path id="路径 9" fill-rule="evenodd" style="fill:#FFFFFF" opacity="1" d="M33.2126 36.3606L45.896 49.1342C47.1689 50.407 47.1863 52.0866 45.9385 53.3344C44.6907 54.5823 42.9687 54.6072 41.6959 53.3344L28.97 40.6032C27.6973 39.3305 27.7221 37.6084 28.97 36.3606C30.2178 35.1128 32.0671 35.2151 33.2126 36.3606Z"></path><path id="路径 9" fill-rule="evenodd" style="fill:#FFFFFF" opacity="1" d="M33.2136 40.6035L24.7284 49.0888C23.4556 50.3616 21.7335 50.3365 20.4858 49.0888C19.2379 47.8409 19.2129 46.1189 20.4858 44.8461L28.971 36.3609C30.2438 35.0881 31.9658 35.113 33.2136 36.3609C34.4614 37.6087 34.3592 39.458 33.2136 40.6035Z"></path><path id="路径 9" fill-rule="evenodd" style="fill:#FFFFFF" opacity="1" d="M62.9104 36.3642L45.9415 53.332C44.6687 54.6049 42.9467 54.5798 41.6989 53.332C40.451 52.0842 40.4261 50.3622 41.6989 49.0894L58.6678 32.1216C59.9405 30.8489 61.6626 30.8737 62.9104 32.1216C64.1582 33.3694 64.0559 35.2187 62.9104 36.3642Z"></path><path id="路径 10" fill-rule="evenodd" fill="url(#linear_10)" opacity="1" d="M86.3994 18.9003C86.3994 19.0328 86.4027 19.1653 86.4092 19.2977C86.4157 19.4301 86.4254 19.5623 86.4384 19.6943C86.4514 19.8262 86.4677 19.9577 86.4871 20.0888C86.5065 20.2199 86.5292 20.3505 86.5551 20.4805C86.5809 20.6105 86.6099 20.7398 86.6422 20.8684C86.6744 20.997 86.7097 21.1248 86.7482 21.2516C86.7867 21.3785 86.8282 21.5043 86.8729 21.6291C86.9175 21.7539 86.9652 21.8776 87.016 22C87.0667 22.1225 87.1204 22.2437 87.1771 22.3635C87.2338 22.4834 87.2934 22.6017 87.3558 22.7186C87.4183 22.8355 87.4836 22.9508 87.5518 23.0645C87.62 23.1782 87.6909 23.2902 87.7645 23.4004C87.8382 23.5106 87.9145 23.619 87.9935 23.7255C88.0724 23.8319 88.154 23.9364 88.2381 24.0388C88.3221 24.1414 88.4087 24.2418 88.4977 24.34C88.5867 24.4381 88.6781 24.5341 88.7718 24.6279C88.8655 24.7216 88.9615 24.813 89.0598 24.902C89.158 24.991 89.2584 25.0776 89.3609 25.1617C89.4633 25.2457 89.5678 25.3272 89.6742 25.4062C89.7807 25.4852 89.8891 25.5615 89.9993 25.6352C90.1095 25.7088 90.2215 25.7797 90.3352 25.8479C90.4489 25.9161 90.5642 25.9814 90.6811 26.0439C90.798 26.1063 90.9164 26.1659 91.0362 26.2226C91.1561 26.2792 91.2772 26.333 91.3997 26.3837C91.5222 26.4345 91.6458 26.4821 91.7706 26.5268C91.8954 26.5715 92.0212 26.613 92.1481 26.6515C92.2749 26.69 92.4027 26.7253 92.5313 26.7575C92.6599 26.7897 92.7892 26.8188 92.9192 26.8446C93.0492 26.8705 93.1798 26.8931 93.3109 26.9126C93.442 26.9321 93.5735 26.9483 93.7054 26.9613C93.8374 26.9742 93.9696 26.9841 94.102 26.9905C94.2344 26.997 94.3669 27.0003 94.4994 27.0003C94.6319 27.0003 94.7644 26.997 94.8968 26.9905C95.0292 26.9841 95.1614 26.9742 95.2934 26.9613C95.4253 26.9483 95.5568 26.9321 95.6879 26.9126C95.8191 26.8931 95.9496 26.8705 96.0797 26.8446C96.2097 26.8188 96.339 26.7897 96.4676 26.7575C96.5962 26.7253 96.7239 26.69 96.8507 26.6515C96.9776 26.613 97.1034 26.5715 97.2282 26.5268C97.353 26.4821 97.4767 26.4345 97.5991 26.3837C97.7216 26.333 97.8428 26.2792 97.9626 26.2226C98.0825 26.1659 98.2008 26.1063 98.3177 26.0439C98.4347 25.9814 98.5499 25.9161 98.6636 25.8479C98.7773 25.7797 98.8893 25.7088 98.9996 25.6352C99.1098 25.5615 99.2181 25.4852 99.3246 25.4062C99.431 25.3272 99.5355 25.2457 99.638 25.1617C99.7405 25.0776 99.8409 24.991 99.9391 24.902C100.037 24.813 100.133 24.7216 100.227 24.6279C100.321 24.5341 100.412 24.4381 100.501 24.34C100.59 24.2418 100.677 24.1414 100.761 24.0388C100.845 23.9364 100.926 23.8319 101.005 23.7255C101.084 23.619 101.161 23.5106 101.234 23.4004C101.308 23.2902 101.379 23.1782 101.447 23.0645C101.515 22.9508 101.58 22.8355 101.643 22.7186C101.705 22.6017 101.765 22.4834 101.822 22.3635C101.878 22.2437 101.932 22.1225 101.983 22C102.034 21.8776 102.081 21.7539 102.126 21.6291C102.171 21.5043 102.212 21.3785 102.251 21.2516C102.289 21.1248 102.324 20.997 102.357 20.8684C102.389 20.7398 102.418 20.6105 102.444 20.4805C102.47 20.3505 102.492 20.2199 102.512 20.0888C102.531 19.9577 102.547 19.8262 102.56 19.6943C102.573 19.5623 102.583 19.4301 102.59 19.2977C102.596 19.1653 102.599 19.0328 102.599 18.9003C102.599 18.7677 102.596 18.6353 102.59 18.5029C102.583 18.3705 102.573 18.2383 102.56 18.1063C102.547 17.9744 102.531 17.8429 102.512 17.7118C102.492 17.5806 102.47 17.4501 102.444 17.3201C102.418 17.19 102.389 17.0607 102.357 16.9321C102.324 16.8035 102.289 16.6758 102.251 16.549C102.212 16.4221 102.171 16.2963 102.126 16.1715C102.081 16.0467 102.034 15.923 101.983 15.8006C101.932 15.6781 101.878 15.5569 101.822 15.4371C101.765 15.3172 101.705 15.1989 101.643 15.082C101.58 14.9651 101.515 14.8498 101.447 14.7361C101.379 14.6224 101.308 14.5104 101.234 14.4002C101.161 14.29 101.084 14.1816 101.005 14.0751C100.926 13.9686 100.845 13.8642 100.761 13.7618C100.677 13.6592 100.59 13.5589 100.501 13.4606C100.412 13.3624 100.321 13.2664 100.227 13.1727C100.133 13.079 100.037 12.9876 99.9391 12.8986C99.8409 12.8096 99.7405 12.723 99.638 12.6389C99.5355 12.5548 99.431 12.4733 99.3246 12.3943C99.2181 12.3154 99.1098 12.2391 98.9996 12.1654C98.8893 12.0918 98.7773 12.0209 98.6636 11.9526C98.5499 11.8845 98.4347 11.8192 98.3177 11.7567C98.2008 11.6942 98.0825 11.6347 97.9626 11.578C97.8428 11.5213 97.7216 11.4676 97.5991 11.4169C97.4767 11.3662 97.353 11.3185 97.2282 11.2737C97.1034 11.2291 96.9776 11.1875 96.8507 11.1491C96.7239 11.1106 96.5962 11.0753 96.4676 11.0431C96.339 11.0108 96.2097 10.9818 96.0797 10.956C95.9496 10.9301 95.8191 10.9074 95.6879 10.8879C95.5568 10.8685 95.4253 10.8523 95.2934 10.8393C95.1615 10.8263 95.0293 10.8166 94.8968 10.8101C94.7644 10.8036 94.6319 10.8003 94.4994 10.8003C94.3669 10.8003 94.2344 10.8036 94.102 10.8101C93.9696 10.8166 93.8374 10.8263 93.7054 10.8393C93.5735 10.8523 93.442 10.8685 93.3109 10.8879C93.1798 10.9074 93.0492 10.9301 92.9192 10.956C92.7892 10.9818 92.6599 11.0108 92.5313 11.0431C92.4027 11.0753 92.2749 11.1106 92.1481 11.1491C92.0212 11.1875 91.8954 11.2291 91.7706 11.2737C91.6458 11.3185 91.5222 11.3662 91.3997 11.4169C91.2772 11.4676 91.1561 11.5213 91.0362 11.578C90.9164 11.6347 90.798 11.6942 90.6811 11.7567C90.5642 11.8192 90.4489 11.8845 90.3352 11.9526C90.2215 12.0209 90.1095 12.0918 89.9993 12.1654C89.8891 12.2391 89.7807 12.3154 89.6742 12.3943C89.5678 12.4733 89.4633 12.5548 89.3609 12.6389C89.2584 12.723 89.158 12.8096 89.0598 12.8986C88.9615 12.9876 88.8655 13.079 88.7718 13.1727C88.6781 13.2664 88.5867 13.3624 88.4977 13.4606C88.4087 13.5589 88.3221 13.6592 88.2381 13.7618C88.154 13.8642 88.0724 13.9686 87.9935 14.0751C87.9145 14.1816 87.8382 14.29 87.7645 14.4002C87.6909 14.5104 87.62 14.6224 87.5518 14.7361C87.4836 14.8498 87.4183 14.9651 87.3558 15.082C87.2934 15.1989 87.2338 15.3172 87.1771 15.4371C87.1204 15.5569 87.0667 15.6781 87.016 15.8006C86.9653 15.923 86.9176 16.0467 86.8729 16.1715C86.8282 16.2963 86.7867 16.4221 86.7482 16.549C86.7097 16.6758 86.6744 16.8035 86.6422 16.9321C86.61 17.0607 86.581 17.19 86.5551 17.3201C86.5292 17.4501 86.5065 17.5806 86.4871 17.7118C86.4677 17.8429 86.4514 17.9744 86.4384 18.1063C86.4254 18.2383 86.4157 18.3705 86.4092 18.5029C86.4027 18.6353 86.3994 18.7677 86.3994 18.9003Z"></path><path id="路径 11" fill-rule="evenodd" fill="url(#linear_11)" opacity="1" d="M82.8003 18.9003C82.8003 19.0328 82.8035 19.1653 82.81 19.2977C82.8165 19.4301 82.8263 19.5623 82.8393 19.6943C82.8523 19.8262 82.8685 19.9577 82.8879 20.0888C82.9073 20.2199 82.93 20.3505 82.9559 20.4805C82.9817 20.6105 83.0108 20.7398 83.043 20.8684C83.0752 20.997 83.1105 21.1248 83.1491 21.2516C83.1875 21.3785 83.2291 21.5043 83.2737 21.6291C83.3184 21.7539 83.3661 21.8776 83.4169 22C83.4676 22.1225 83.5212 22.2437 83.5779 22.3635C83.6346 22.4834 83.6942 22.6017 83.7567 22.7186C83.8192 22.8355 83.8845 22.9508 83.9526 23.0645C84.0208 23.1782 84.0917 23.2902 84.1654 23.4004C84.239 23.5106 84.3153 23.619 84.3942 23.7255C84.4732 23.8319 84.5547 23.9364 84.6388 24.0388C84.7229 24.1414 84.8095 24.2418 84.8986 24.34C84.9876 24.4381 85.079 24.5341 85.1727 24.6279C85.2664 24.7216 85.3624 24.813 85.4606 24.902C85.5589 24.991 85.6592 25.0776 85.7616 25.1617C85.8642 25.2457 85.9686 25.3272 86.0751 25.4062C86.1815 25.4852 86.2899 25.5615 86.4002 25.6352C86.5103 25.7088 86.6223 25.7797 86.736 25.8479C86.8497 25.9161 86.965 25.9814 87.0819 26.0439C87.1988 26.1063 87.3172 26.1659 87.437 26.2226C87.5569 26.2792 87.678 26.333 87.8005 26.3837C87.9229 26.4345 88.0466 26.4821 88.1714 26.5268C88.2963 26.5715 88.4221 26.613 88.549 26.6515C88.6758 26.69 88.8035 26.7253 88.9321 26.7575C89.0607 26.7897 89.19 26.8188 89.3201 26.8446C89.4501 26.8705 89.5806 26.8931 89.7118 26.9126C89.8429 26.9321 89.9744 26.9483 90.1063 26.9613C90.2382 26.9742 90.3704 26.9841 90.5028 26.9905C90.6352 26.997 90.7677 27.0003 90.9003 27.0003C91.0328 27.0003 91.1653 26.997 91.2977 26.9905C91.4301 26.9841 91.5622 26.9742 91.6942 26.9613C91.8261 26.9483 91.9577 26.9321 92.0888 26.9126C92.2199 26.8931 92.3504 26.8705 92.4805 26.8446C92.6105 26.8188 92.7398 26.7897 92.8683 26.7575C92.9969 26.7253 93.1247 26.69 93.2516 26.6515C93.3785 26.613 93.5043 26.5715 93.6291 26.5268C93.7539 26.4821 93.8776 26.4345 94 26.3837C94.1225 26.333 94.2435 26.2792 94.3635 26.2226C94.4833 26.1659 94.6016 26.1063 94.7186 26.0439C94.8355 25.9814 94.9508 25.9161 95.0645 25.8479C95.1782 25.7797 95.2901 25.7088 95.4003 25.6352C95.5105 25.5615 95.619 25.4852 95.7254 25.4062C95.8319 25.3272 95.9364 25.2457 96.0388 25.1617C96.1413 25.0776 96.2417 24.991 96.3398 24.902C96.438 24.813 96.534 24.7216 96.6278 24.6279C96.7215 24.5341 96.8129 24.4381 96.902 24.34C96.991 24.2418 97.0776 24.1414 97.1617 24.0388C97.2457 23.9364 97.3272 23.8319 97.4062 23.7255C97.4852 23.619 97.5615 23.5106 97.6351 23.4004C97.7088 23.2902 97.7797 23.1782 97.8478 23.0645C97.916 22.9508 97.9813 22.8355 98.0438 22.7186C98.1063 22.6017 98.1659 22.4834 98.2226 22.3635C98.2792 22.2437 98.3329 22.1225 98.3836 22C98.4343 21.8776 98.4821 21.7539 98.5267 21.6291C98.5714 21.5043 98.613 21.3785 98.6515 21.2516C98.69 21.1248 98.7253 20.997 98.7575 20.8684C98.7897 20.7398 98.8188 20.6105 98.8446 20.4805C98.8705 20.3505 98.8931 20.2199 98.9125 20.0888C98.9321 19.9577 98.9483 19.8262 98.9613 19.6943C98.9742 19.5623 98.9841 19.4301 98.9905 19.2977C98.997 19.1653 99.0003 19.0328 99.0003 18.9003C99.0003 18.7677 98.997 18.6353 98.9905 18.5029C98.9841 18.3705 98.9742 18.2383 98.9613 18.1063C98.9483 17.9744 98.9321 17.8429 98.9125 17.7118C98.8931 17.5806 98.8705 17.4501 98.8446 17.3201C98.8188 17.19 98.7897 17.0607 98.7575 16.9321C98.7253 16.8035 98.69 16.6758 98.6515 16.549C98.613 16.4221 98.5714 16.2963 98.5267 16.1715C98.4821 16.0467 98.4343 15.923 98.3836 15.8006C98.3329 15.6781 98.2792 15.5569 98.2226 15.4371C98.1659 15.3172 98.1063 15.1989 98.0438 15.082C97.9813 14.9651 97.916 14.8498 97.8478 14.7361C97.7797 14.6224 97.7088 14.5104 97.6351 14.4002C97.5615 14.29 97.4852 14.1816 97.4062 14.0751C97.3272 13.9686 97.2457 13.8642 97.1617 13.7618C97.0776 13.6592 96.991 13.5589 96.902 13.4606C96.8129 13.3624 96.7215 13.2664 96.6278 13.1727C96.534 13.079 96.438 12.9876 96.3398 12.8986C96.2417 12.8096 96.1413 12.723 96.0388 12.6389C95.9364 12.5548 95.8319 12.4733 95.7254 12.3943C95.619 12.3154 95.5105 12.2391 95.4003 12.1654C95.2901 12.0918 95.1782 12.0209 95.0645 11.9526C94.9508 11.8845 94.8355 11.8192 94.7186 11.7567C94.6016 11.6942 94.4833 11.6347 94.3635 11.578C94.2435 11.5213 94.1225 11.4676 94 11.4169C93.8776 11.3662 93.7539 11.3185 93.6291 11.2737C93.5043 11.2291 93.3784 11.1875 93.2515 11.1491C93.1247 11.1106 92.9969 11.0753 92.8683 11.0431C92.7398 11.0108 92.6105 10.9818 92.4805 10.956C92.3504 10.9301 92.2199 10.9074 92.0888 10.8879C91.9577 10.8685 91.8261 10.8523 91.6942 10.8393C91.5622 10.8263 91.4301 10.8166 91.2977 10.8101C91.1653 10.8036 91.0328 10.8003 90.9003 10.8003C90.7677 10.8003 90.6352 10.8036 90.5028 10.8101C90.3704 10.8166 90.2382 10.8263 90.1063 10.8393C89.9744 10.8523 89.8429 10.8685 89.7118 10.8879C89.5806 10.9074 89.4501 10.9301 89.3201 10.956C89.19 10.9818 89.0607 11.0108 88.9321 11.0431C88.8035 11.0753 88.6758 11.1106 88.549 11.1491C88.4221 11.1875 88.2963 11.2291 88.1714 11.2737C88.0466 11.3185 87.9229 11.3662 87.8005 11.4169C87.678 11.4676 87.5569 11.5213 87.437 11.578C87.3172 11.6347 87.1988 11.6942 87.0819 11.7567C86.965 11.8192 86.8497 11.8845 86.736 11.9526C86.6223 12.0209 86.5103 12.0918 86.4002 12.1654C86.2899 12.2391 86.1815 12.3154 86.0751 12.3943C85.9686 12.4733 85.8642 12.5548 85.7616 12.6389C85.6592 12.723 85.5589 12.8096 85.4606 12.8986C85.3624 12.9876 85.2664 13.079 85.1727 13.1727C85.079 13.2664 84.9876 13.3624 84.8986 13.4606C84.8095 13.5589 84.7229 13.6592 84.6388 13.7618C84.5547 13.8642 84.4732 13.9686 84.3942 14.0751C84.3153 14.1816 84.239 14.29 84.1654 14.4002C84.0917 14.5104 84.0208 14.6224 83.9526 14.7361C83.8845 14.8498 83.8192 14.9651 83.7567 15.082C83.6942 15.1989 83.6346 15.3172 83.5779 15.4371C83.5212 15.5569 83.4676 15.6781 83.4169 15.8006C83.3661 15.923 83.3184 16.0467 83.2737 16.1715C83.2291 16.2963 83.1875 16.4221 83.1491 16.549C83.1105 16.6758 83.0752 16.8035 83.043 16.9321C83.0108 17.0607 82.9817 17.19 82.9559 17.3201C82.93 17.4501 82.9073 17.5806 82.8879 17.7118C82.8685 17.8429 82.8523 17.9744 82.8393 18.1063C82.8263 18.2383 82.8165 18.3705 82.81 18.5029C82.8035 18.6353 82.8003 18.7677 82.8003 18.9003Z"></path><path id="路径 11" fill-rule="evenodd" fill="url(#linear_12)" opacity="1" d="M82.8003 18.9003C82.8003 19.0328 82.8035 19.1653 82.81 19.2977C82.8165 19.4301 82.8263 19.5623 82.8393 19.6943C82.8523 19.8262 82.8685 19.9577 82.8879 20.0888C82.9073 20.2199 82.93 20.3505 82.9559 20.4805C82.9817 20.6105 83.0108 20.7398 83.043 20.8684C83.0752 20.997 83.1105 21.1248 83.1491 21.2516C83.1875 21.3785 83.2291 21.5043 83.2737 21.6291C83.3184 21.7539 83.3661 21.8776 83.4169 22C83.4676 22.1225 83.5212 22.2437 83.5779 22.3635C83.6346 22.4834 83.6942 22.6017 83.7567 22.7186C83.8192 22.8355 83.8845 22.9508 83.9526 23.0645C84.0208 23.1782 84.0917 23.2902 84.1654 23.4004C84.239 23.5106 84.3153 23.619 84.3942 23.7255C84.4732 23.8319 84.5547 23.9364 84.6388 24.0388C84.7229 24.1414 84.8095 24.2418 84.8986 24.34C84.9876 24.4381 85.079 24.5341 85.1727 24.6279C85.2664 24.7216 85.3624 24.813 85.4606 24.902C85.5589 24.991 85.6592 25.0776 85.7616 25.1617C85.8642 25.2457 85.9686 25.3272 86.0751 25.4062C86.1815 25.4852 86.2899 25.5615 86.4002 25.6352C86.5103 25.7088 86.6223 25.7797 86.736 25.8479C86.8497 25.9161 86.965 25.9814 87.0819 26.0439C87.1988 26.1063 87.3172 26.1659 87.437 26.2226C87.5569 26.2792 87.678 26.333 87.8005 26.3837C87.9229 26.4345 88.0466 26.4821 88.1714 26.5268C88.2963 26.5715 88.4221 26.613 88.549 26.6515C88.6758 26.69 88.8035 26.7253 88.9321 26.7575C89.0607 26.7897 89.19 26.8188 89.3201 26.8446C89.4501 26.8705 89.5806 26.8931 89.7118 26.9126C89.8429 26.9321 89.9744 26.9483 90.1063 26.9613C90.2382 26.9742 90.3704 26.9841 90.5028 26.9905C90.6352 26.997 90.7677 27.0003 90.9003 27.0003C91.0328 27.0003 91.1653 26.997 91.2977 26.9905C91.4301 26.9841 91.5622 26.9742 91.6942 26.9613C91.8261 26.9483 91.9577 26.9321 92.0888 26.9126C92.2199 26.8931 92.3504 26.8705 92.4805 26.8446C92.6105 26.8188 92.7398 26.7897 92.8683 26.7575C92.9969 26.7253 93.1247 26.69 93.2516 26.6515C93.3785 26.613 93.5043 26.5715 93.6291 26.5268C93.7539 26.4821 93.8776 26.4345 94 26.3837C94.1225 26.333 94.2435 26.2792 94.3635 26.2226C94.4833 26.1659 94.6016 26.1063 94.7186 26.0439C94.8355 25.9814 94.9508 25.9161 95.0645 25.8479C95.1782 25.7797 95.2901 25.7088 95.4003 25.6352C95.5105 25.5615 95.619 25.4852 95.7254 25.4062C95.8319 25.3272 95.9364 25.2457 96.0388 25.1617C96.1413 25.0776 96.2417 24.991 96.3398 24.902C96.438 24.813 96.534 24.7216 96.6278 24.6279C96.7215 24.5341 96.8129 24.4381 96.902 24.34C96.991 24.2418 97.0776 24.1414 97.1617 24.0388C97.2457 23.9364 97.3272 23.8319 97.4062 23.7255C97.4852 23.619 97.5615 23.5106 97.6351 23.4004C97.7088 23.2902 97.7797 23.1782 97.8478 23.0645C97.916 22.9508 97.9813 22.8355 98.0438 22.7186C98.1063 22.6017 98.1659 22.4834 98.2226 22.3635C98.2792 22.2437 98.3329 22.1225 98.3836 22C98.4343 21.8776 98.4821 21.7539 98.5267 21.6291C98.5714 21.5043 98.613 21.3785 98.6515 21.2516C98.69 21.1248 98.7253 20.997 98.7575 20.8684C98.7897 20.7398 98.8188 20.6105 98.8446 20.4805C98.8705 20.3505 98.8931 20.2199 98.9125 20.0888C98.9321 19.9577 98.9483 19.8262 98.9613 19.6943C98.9742 19.5623 98.9841 19.4301 98.9905 19.2977C98.997 19.1653 99.0003 19.0328 99.0003 18.9003C99.0003 18.7677 98.997 18.6353 98.9905 18.5029C98.9841 18.3705 98.9742 18.2383 98.9613 18.1063C98.9483 17.9744 98.9321 17.8429 98.9125 17.7118C98.8931 17.5806 98.8705 17.4501 98.8446 17.3201C98.8188 17.19 98.7897 17.0607 98.7575 16.9321C98.7253 16.8035 98.69 16.6758 98.6515 16.549C98.613 16.4221 98.5714 16.2963 98.5267 16.1715C98.4821 16.0467 98.4343 15.923 98.3836 15.8006C98.3329 15.6781 98.2792 15.5569 98.2226 15.4371C98.1659 15.3172 98.1063 15.1989 98.0438 15.082C97.9813 14.9651 97.916 14.8498 97.8478 14.7361C97.7797 14.6224 97.7088 14.5104 97.6351 14.4002C97.5615 14.29 97.4852 14.1816 97.4062 14.0751C97.3272 13.9686 97.2457 13.8642 97.1617 13.7618C97.0776 13.6592 96.991 13.5589 96.902 13.4606C96.8129 13.3624 96.7215 13.2664 96.6278 13.1727C96.534 13.079 96.438 12.9876 96.3398 12.8986C96.2417 12.8096 96.1413 12.723 96.0388 12.6389C95.9364 12.5548 95.8319 12.4733 95.7254 12.3943C95.619 12.3154 95.5105 12.2391 95.4003 12.1654C95.2901 12.0918 95.1782 12.0209 95.0645 11.9526C94.9508 11.8845 94.8355 11.8192 94.7186 11.7567C94.6016 11.6942 94.4833 11.6347 94.3635 11.578C94.2435 11.5213 94.1225 11.4676 94 11.4169C93.8776 11.3662 93.7539 11.3185 93.6291 11.2737C93.5043 11.2291 93.3784 11.1875 93.2515 11.1491C93.1247 11.1106 92.9969 11.0753 92.8683 11.0431C92.7398 11.0108 92.6105 10.9818 92.4805 10.956C92.3504 10.9301 92.2199 10.9074 92.0888 10.8879C91.9577 10.8685 91.8261 10.8523 91.6942 10.8393C91.5622 10.8263 91.4301 10.8166 91.2977 10.8101C91.1653 10.8036 91.0328 10.8003 90.9003 10.8003C90.7677 10.8003 90.6352 10.8036 90.5028 10.8101C90.3704 10.8166 90.2382 10.8263 90.1063 10.8393C89.9744 10.8523 89.8429 10.8685 89.7118 10.8879C89.5806 10.9074 89.4501 10.9301 89.3201 10.956C89.19 10.9818 89.0607 11.0108 88.9321 11.0431C88.8035 11.0753 88.6758 11.1106 88.549 11.1491C88.4221 11.1875 88.2963 11.2291 88.1714 11.2737C88.0466 11.3185 87.9229 11.3662 87.8005 11.4169C87.678 11.4676 87.5569 11.5213 87.437 11.578C87.3172 11.6347 87.1988 11.6942 87.0819 11.7567C86.965 11.8192 86.8497 11.8845 86.736 11.9526C86.6223 12.0209 86.5103 12.0918 86.4002 12.1654C86.2899 12.2391 86.1815 12.3154 86.0751 12.3943C85.9686 12.4733 85.8642 12.5548 85.7616 12.6389C85.6592 12.723 85.5589 12.8096 85.4606 12.8986C85.3624 12.9876 85.2664 13.079 85.1727 13.1727C85.079 13.2664 84.9876 13.3624 84.8986 13.4606C84.8095 13.5589 84.7229 13.6592 84.6388 13.7618C84.5547 13.8642 84.4732 13.9686 84.3942 14.0751C84.3153 14.1816 84.239 14.29 84.1654 14.4002C84.0917 14.5104 84.0208 14.6224 83.9526 14.7361C83.8845 14.8498 83.8192 14.9651 83.7567 15.082C83.6942 15.1989 83.6346 15.3172 83.5779 15.4371C83.5212 15.5569 83.4676 15.6781 83.4169 15.8006C83.3661 15.923 83.3184 16.0467 83.2737 16.1715C83.2291 16.2963 83.1875 16.4221 83.1491 16.549C83.1105 16.6758 83.0752 16.8035 83.043 16.9321C83.0108 17.0607 82.9817 17.19 82.9559 17.3201C82.93 17.4501 82.9073 17.5806 82.8879 17.7118C82.8685 17.8429 82.8523 17.9744 82.8393 18.1063C82.8263 18.2383 82.8165 18.3705 82.81 18.5029C82.8035 18.6353 82.8003 18.7677 82.8003 18.9003Z"></path></g></g><defs><rect id="path_0" x="0" y="0" width="108" height="108" rx="0" ry="0"/><linearGradient id="linear_0" x1="29.119053068698637%" y1="5.169204491319128%" x2="83.92293685165396%" y2="62.989477019684955%" gradientUnits="objectBoundingBox"><stop offset="0" stop-color="#E8F8FA" stop-opacity="0.9" /><stop offset="1" stop-color="#BADEF7" stop-opacity="1" /></linearGradient><linearGradient id="linear_1" x1="29.11884255486808%" y1="5.169204491319128%" x2="83.92327884990739%" y2="62.989477019684955%" gradientUnits="objectBoundingBox"><stop offset="0" stop-color="#E8F8FA" stop-opacity="0.9" /><stop offset="1" stop-color="#BADEF7" stop-opacity="1" /></linearGradient><linearGradient id="linear_2" x1="39.928011101527666%" y1="17.244%" x2="88.17895791846459%" y2="85.071%" gradientUnits="objectBoundingBox"><stop offset="0" stop-color="#FAD7EA" stop-opacity="0.18" /><stop offset="1" stop-color="#D9BFCA" stop-opacity="0.2" /></linearGradient><linearGradient id="linear_3" x1="35.65099868947602%" y1="38.03640723644769%" x2="100.00012343465876%" y2="100.00013980735723%" gradientUnits="objectBoundingBox"><stop offset="0" stop-color="#FAEDF2" stop-opacity="0.96" /><stop offset="1" stop-color="#FCCFDD" stop-opacity="1" /></linearGradient><linearGradient id="linear_4" x1="80.92108777844939%" y1="13.935019482155228%" x2="20.632982264593497%" y2="92.94612994534626%" gradientUnits="objectBoundingBox"><stop offset="0" stop-color="#FF57A5" stop-opacity="1" /><stop offset="1" stop-color="#FC2828" stop-opacity="1" /></linearGradient><linearGradient id="linear_5" x1="29.118980605718253%" y1="5.169204491319128%" x2="83.92305457414594%" y2="62.989477019684955%" gradientUnits="objectBoundingBox"><stop offset="0" stop-color="#E8F8FA" stop-opacity="0.9" /><stop offset="1" stop-color="#BADEF7" stop-opacity="1" /></linearGradient><linearGradient id="linear_6" x1="8.364310421220031" y1="6.480183083212594" x2="11.724036387678256" y2="14.746105878712953" gradientUnits="userSpaceOnUse"><stop offset="0" stop-color="#E8F8FA" stop-opacity="0.9" /><stop offset="1" stop-color="#BADEF7" stop-opacity="1" /></linearGradient><linearGradient id="linear_7" x1="26.38610343436873" y1="3.021262368302033" x2="33.232357503904765" y2="14.776795511459639" gradientUnits="userSpaceOnUse"><stop offset="0" stop-color="#E8F8FA" stop-opacity="0.9" /><stop offset="1" stop-color="#BADEF7" stop-opacity="1" /></linearGradient><linearGradient id="linear_8" x1="21.119224773743213" y1="7.681141848136505" x2="11.690718480135416" y2="12.203441564933101" gradientUnits="userSpaceOnUse"><stop offset="0" stop-color="#E8F8FA" stop-opacity="0.9" /><stop offset="1" stop-color="#BADEF7" stop-opacity="1" /></linearGradient><linearGradient id="linear_9" x1="50.105309273521215" y1="1.6499042608718983" x2="36.027458323572795" y2="10.820942712683822" gradientUnits="userSpaceOnUse"><stop offset="0" stop-color="#E8F8FA" stop-opacity="0.9" /><stop offset="1" stop-color="#BADEF7" stop-opacity="1" /></linearGradient><linearGradient id="linear_10" x1="39.927629868175764%" y1="17.244%" x2="88.18040302451526%" y2="85.071%" gradientUnits="objectBoundingBox"><stop offset="0" stop-color="#FAD7EA" stop-opacity="0.18" /><stop offset="1" stop-color="#D9BFCA" stop-opacity="0.2" /></linearGradient><linearGradient id="linear_11" x1="35.65084318741462%" y1="38.03640723644769%" x2="100.0006652927363%" y2="100.00013980735723%" gradientUnits="objectBoundingBox"><stop offset="0" stop-color="#FAEDF2" stop-opacity="0.96" /><stop offset="1" stop-color="#FCCFDD" stop-opacity="1" /></linearGradient><linearGradient id="linear_12" x1="80.92142287444571%" y1="13.935019482155228%" x2="20.632664010263714%" y2="92.94612994534626%" gradientUnits="objectBoundingBox"><stop offset="0" stop-color="#FF57A5" stop-opacity="1" /><stop offset="1" stop-color="#FC2828" stop-opacity="1" /></linearGradient></defs></svg>