<svg xmlns="http://www.w3.org/2000/svg" xmlns:xlink="http://www.w3.org/1999/xlink" width="108" height="108" viewBox="0 0 108 108" fill="none"><g opacity="1"  transform="translate(0 0)"><mask id="bg-mask-0" fill="white"><use transform="translate(0 0)" xlink:href="#path_0"></use></mask><g mask="url(#bg-mask-0)" ><path id="路径 1" fill-rule="evenodd" fill="url(#linear_0)" opacity="1" d="M15.8401 76.5L92.16 76.5L101.88 89.8201C105.48 94.86 103.5 99.0001 97.2001 99.0001L9.90002 99.0001C3.78001 99.0001 1.80002 95.04 5.40002 90L15.8401 76.5Z"></path><path id="路径 2" fill-rule="evenodd" fill="url(#linear_1)" opacity="1" d="M24.6598 12.0601L73.4399 12.0601C79.7398 12.0601 84.7799 17.1 84.7799 23.4001L84.7799 77.9401C84.7799 84.24 79.7398 89.2801 73.4399 89.2801L24.6598 89.2801C18.3599 89.2801 13.3198 84.24 13.3198 77.9401L13.3198 23.4001C13.3198 17.1 18.3599 12.0601 24.6598 12.0601Z"></path><path id="路径 3" fill-rule="evenodd" fill="url(#linear_2)" opacity="1" d="M21.4196 12L70.1996 12C76.4996 12 81.5396 17.0399 81.5396 23.34L81.5396 77.88C81.5396 84.18 76.4996 89.22 70.1996 89.22L21.4196 89.22C15.1196 89.22 10.0796 84.18 10.0796 77.88L10.0796 23.34C10.0796 17.0399 15.1196 12 21.4196 12Z"></path><path id="拼合图形" fill-rule="evenodd" fill="url(#linear_3)" opacity="1" d="M62.1555 47.1066L47.9655 62.1966C46.8941 63.268 44.91 63.5199 43.6755 62.3466L33.3855 52.5666C32.2113 51.4505 32.0295 49.5407 33.1455 48.3666C34.2615 47.1924 36.0408 47.1565 37.3455 48.3966L45.4755 56.1066L57.8655 43.0566C58.9815 41.8824 61.0113 41.5805 62.1855 42.6966C63.2358 43.943 63.2715 45.9324 62.1555 47.1066Z"></path><path id="拼合图形" fill-rule="evenodd" style="fill:#FFFFFF" opacity="1" d="M60.9953 45.3899L46.8053 60.4799C45.7339 61.5514 43.7498 61.8033 42.5153 60.6299L32.2253 50.8499C31.0512 49.7339 30.8693 47.8241 31.9853 46.6499C33.1014 45.4758 34.8807 45.4399 36.1853 46.6799L44.3153 54.3899L56.7053 41.3399C57.8214 40.1658 59.8511 39.8639 61.0253 40.9799C62.0756 42.2264 62.1113 44.2157 60.9953 45.3899Z"></path><path id="路径 8" fill-rule="evenodd" style="fill:#000000" opacity="0.2" d="M35.6395 21.6001C32.2195 21.6001 29.5195 19.44 29.5195 16.9201L29.5195 16.7401C29.5195 14.2201 32.2195 12.0601 35.6395 12.0601L68.0996 12.0601C68.0996 16.7403 66.8396 18.4201 65.3996 19.5001C63.9595 20.5801 62.0996 21.6001 60.4796 21.6001L35.6395 21.6001Z"></path><path id="路径 9" fill-rule="evenodd" fill="url(#linear_4)" opacity="1" d="M58.5008 19.0801L34.0208 19.0801C30.7808 19.0801 28.0808 16.3801 28.0808 13.1401C27.9007 9.90007 30.6007 7.20007 34.0208 7.20007L58.5008 7.20007C61.7408 7.20007 64.4408 9.90007 64.4408 13.1401L64.4408 13.32C64.4408 14.94 63.7208 16.3801 62.6408 17.4601C61.5608 18.5401 60.1208 19.0801 58.5008 19.0801Z"></path><path id="路径 10" fill-rule="evenodd" fill="url(#linear_5)" opacity="1" d="M63.8994 74.3399C63.8994 74.6552 63.9072 74.9702 63.9228 75.285C63.9384 75.5999 63.9618 75.914 63.993 76.2278C64.0242 76.5415 64.0631 76.8542 64.1098 77.166C64.1565 77.4778 64.2109 77.7882 64.2729 78.0974C64.335 78.4065 64.4046 78.714 64.4819 79.0198C64.5593 79.3255 64.6441 79.6292 64.7364 79.9308C64.8288 80.2325 64.9286 80.5317 65.0357 80.8285C65.143 81.1253 65.2574 81.4192 65.3791 81.7104C65.5009 82.0016 65.6298 82.2897 65.7658 82.5747C65.9018 82.8596 66.0449 83.1411 66.1948 83.4191C66.3448 83.697 66.5016 83.9712 66.6651 84.2415C66.8287 84.5119 66.9988 84.7782 67.1756 85.0403C67.3524 85.3023 67.5355 85.5599 67.725 85.8131C67.9145 86.0664 68.1102 86.3147 68.312 86.5584C68.5139 86.802 68.7217 87.0406 68.9353 87.2742C69.1489 87.5078 69.3683 87.7359 69.5932 87.9588C69.8182 88.1816 70.0485 88.399 70.2843 88.6107C70.52 88.8224 70.7609 89.0281 71.0067 89.2281C71.2527 89.4281 71.5034 89.6219 71.7589 89.8098C72.0145 89.9975 72.2746 90.1789 72.5391 90.3541C72.8036 90.5292 73.0723 90.6977 73.3452 90.8598C73.6181 91.0219 73.8948 91.1772 74.1754 91.3258C74.456 91.4744 74.7401 91.616 75.0277 91.7508C75.3154 91.8855 75.606 92.0132 75.9 92.1339C76.1939 92.2544 76.4907 92.3679 76.7902 92.4741C77.0898 92.5803 77.3917 92.6792 77.6962 92.7706C78.0007 92.8621 78.3072 92.9462 78.6159 93.0228C78.9245 93.0993 79.2348 93.1684 79.5469 93.2299C79.8588 93.2914 80.1722 93.3452 80.4869 93.3915C80.8016 93.4378 81.1173 93.4763 81.4339 93.5072C81.7505 93.5381 82.0677 93.5613 82.3855 93.5768C82.7032 93.5923 83.0212 93.6 83.3394 93.6C83.6575 93.6 83.9755 93.5923 84.2933 93.5768C84.6111 93.5613 84.9282 93.5381 85.2448 93.5072C85.5614 93.4763 85.8771 93.4378 86.1918 93.3915C86.5065 93.3452 86.8199 93.2914 87.132 93.2299C87.4439 93.1684 87.7542 93.0993 88.0629 93.0228C88.3715 92.9462 88.678 92.8621 88.9825 92.7706C89.287 92.6792 89.589 92.5803 89.8885 92.4741C90.188 92.3679 90.4848 92.2544 90.7788 92.1339C91.0727 92.0132 91.3635 91.8855 91.6511 91.7508C91.9387 91.616 92.2227 91.4744 92.5033 91.3258C92.7839 91.1772 93.0607 91.0219 93.3335 90.8598C93.6064 90.6977 93.8751 90.5292 94.1396 90.3541C94.4041 90.1789 94.6642 89.9975 94.9198 89.8098C95.1753 89.6219 95.426 89.4281 95.672 89.2281C95.9179 89.0281 96.1587 88.8224 96.3944 88.6107C96.6302 88.399 96.8606 88.1816 97.0856 87.9588C97.3105 87.7359 97.5298 87.5078 97.7435 87.2742C97.9571 87.0406 98.1648 86.802 98.3667 86.5584C98.5685 86.3147 98.7642 86.0664 98.9538 85.8131C99.1433 85.5599 99.3264 85.3023 99.5031 85.0403C99.6799 84.7782 99.85 84.5119 100.014 84.2415C100.177 83.9712 100.334 83.697 100.484 83.4191C100.634 83.1411 100.777 82.8596 100.913 82.5746C101.049 82.2897 101.178 82.0016 101.3 81.7104C101.421 81.4192 101.536 81.1253 101.643 80.8285C101.75 80.5317 101.85 80.2325 101.942 79.9308C102.035 79.6292 102.119 79.3255 102.197 79.0198C102.274 78.714 102.344 78.4065 102.406 78.0974C102.468 77.7882 102.522 77.4778 102.569 77.166C102.616 76.8542 102.655 76.5415 102.686 76.2278C102.717 75.914 102.74 75.5999 102.756 75.285C102.772 74.9702 102.779 74.6552 102.779 74.3399C102.779 74.0247 102.772 73.7097 102.756 73.3949C102.74 73.0801 102.717 72.7658 102.686 72.4521C102.655 72.1385 102.616 71.8258 102.569 71.5139C102.522 71.2021 102.468 70.8916 102.406 70.5825C102.344 70.2734 102.274 69.9659 102.197 69.6602C102.119 69.3544 102.035 69.0507 101.942 68.749C101.85 68.4475 101.75 68.1483 101.643 67.8515C101.536 67.5547 101.421 67.2607 101.3 66.9695C101.178 66.6783 101.049 66.3902 100.913 66.1052C100.777 65.8204 100.634 65.5389 100.484 65.2609C100.334 64.9828 100.177 64.7087 100.014 64.4383C99.85 64.168 99.6799 63.9018 99.5031 63.6397C99.3264 63.3776 99.1433 63.1199 98.9538 62.8668C98.7642 62.6136 98.5685 62.3652 98.3667 62.1216C98.1648 61.8779 97.9571 61.6393 97.7435 61.4058C97.5298 61.1722 97.3105 60.944 97.0856 60.7211C96.8606 60.4982 96.6302 60.2809 96.3944 60.0693C96.1587 59.8576 95.9179 59.6517 95.672 59.4517C95.426 59.2518 95.1753 59.0579 94.9198 58.8702C94.6642 58.6824 94.4041 58.5009 94.1396 58.3259C93.8751 58.1507 93.6064 57.9821 93.3335 57.8201C93.0607 57.6581 92.7839 57.5028 92.5033 57.3542C92.2227 57.2056 91.9386 57.0639 91.651 56.9291C91.3634 56.7943 91.0727 56.6667 90.7788 56.5461C90.4848 56.4254 90.188 56.312 89.8885 56.2058C89.589 56.0997 89.287 56.0008 88.9825 55.9093C88.678 55.8178 88.3715 55.7338 88.0629 55.6572C87.7542 55.5805 87.4439 55.5115 87.132 55.4501C86.8199 55.3885 86.5065 55.3346 86.1918 55.2884C85.8771 55.2422 85.5614 55.2036 85.2448 55.1727C84.9282 55.1418 84.6111 55.1186 84.2933 55.1032C83.9755 55.0877 83.6575 55.08 83.3394 55.08C83.0212 55.08 82.7032 55.0877 82.3855 55.1032C82.0677 55.1186 81.7505 55.1418 81.4339 55.1727C81.1173 55.2036 80.8016 55.2422 80.4869 55.2885C80.1722 55.3347 79.8588 55.3885 79.5469 55.4501C79.2348 55.5115 78.9245 55.5805 78.6159 55.6572C78.3072 55.7338 78.0007 55.8178 77.6962 55.9093C77.3917 56.0008 77.0898 56.0997 76.7902 56.2058C76.4907 56.312 76.1939 56.4254 75.9 56.5461C75.606 56.6667 75.3154 56.7943 75.0277 56.9291C74.7401 57.0639 74.456 57.2055 74.1754 57.3542C73.8948 57.5028 73.6181 57.6581 73.3452 57.8201C73.0723 57.9821 72.8036 58.1507 72.5391 58.3259C72.2746 58.5009 72.0145 58.6824 71.7589 58.8702C71.5034 59.0579 71.2527 59.2518 71.0067 59.4517C70.7609 59.6517 70.52 59.8576 70.2843 60.0693C70.0485 60.2809 69.8182 60.4982 69.5932 60.7211C69.3683 60.944 69.1489 61.1722 68.9353 61.4058C68.7217 61.6393 68.5139 61.8779 68.312 62.1216C68.1102 62.3652 67.9145 62.6136 67.725 62.8668C67.5355 63.1199 67.3524 63.3776 67.1756 63.6397C66.9988 63.9018 66.8287 64.168 66.6651 64.4383C66.5016 64.7087 66.3448 64.9828 66.1948 65.2609C66.0449 65.5389 65.9018 65.8204 65.7658 66.1052C65.6298 66.3902 65.5009 66.6783 65.3791 66.9695C65.2574 67.2607 65.143 67.5547 65.0357 67.8515C64.9286 68.1483 64.8288 68.4475 64.7364 68.749C64.6441 69.0507 64.5593 69.3544 64.4819 69.6602C64.4046 69.9659 64.335 70.2734 64.2729 70.5825C64.2109 70.8916 64.1565 71.2021 64.1098 71.5139C64.0631 71.8258 64.0242 72.1385 63.993 72.4521C63.9618 72.7658 63.9384 73.0801 63.9228 73.3949C63.9072 73.7097 63.8994 74.0247 63.8994 74.3399Z"></path><path id="路径 11" fill-rule="evenodd" fill="url(#linear_6)" opacity="1" d="M60.6592 74.3399C60.6592 74.6552 60.667 74.9702 60.6826 75.285C60.6982 75.5999 60.7216 75.914 60.7527 76.2278C60.784 76.5415 60.8229 76.8542 60.8696 77.166C60.9162 77.4778 60.9706 77.7882 61.0326 78.0974C61.0947 78.4065 61.1644 78.714 61.2417 79.0198C61.319 79.3255 61.4039 79.6292 61.4962 79.9308C61.5886 80.2325 61.6884 80.5317 61.7955 80.8285C61.9027 81.1253 62.0172 81.4192 62.1389 81.7104C62.2607 82.0016 62.3896 82.2897 62.5256 82.5747C62.6616 82.8596 62.8046 83.1411 62.9546 83.4191C63.1046 83.697 63.2613 83.9712 63.4249 84.2415C63.5884 84.5119 63.7586 84.7782 63.9354 85.0403C64.1121 85.3023 64.2952 85.5599 64.4847 85.8131C64.6743 86.0664 64.87 86.3147 65.0718 86.5584C65.2737 86.802 65.4814 87.0406 65.6951 87.2742C65.9087 87.5078 66.128 87.7359 66.353 87.9588C66.5779 88.1816 66.8083 88.399 67.044 88.6107C67.2798 88.8224 67.5206 89.0281 67.7665 89.2281C68.0125 89.4281 68.2632 89.6219 68.5187 89.8098C68.7743 89.9975 69.0344 90.1789 69.2989 90.3541C69.5634 90.5292 69.8321 90.6977 70.105 90.8598C70.3778 91.0219 70.6546 91.1772 70.9352 91.3258C71.2158 91.4744 71.4999 91.616 71.7875 91.7508C72.0751 91.8855 72.3658 92.0132 72.6597 92.1339C72.9537 92.2544 73.2505 92.3679 73.55 92.4741C73.8495 92.5803 74.1515 92.6792 74.456 92.7706C74.7605 92.8621 75.0669 92.9462 75.3757 93.0228C75.6843 93.0993 75.9946 93.1684 76.3066 93.2299C76.6186 93.2914 76.932 93.3452 77.2467 93.3915C77.5614 93.4378 77.8771 93.4763 78.1937 93.5072C78.5103 93.5381 78.8275 93.5613 79.1453 93.5768C79.4631 93.5923 79.781 93.6 80.0992 93.6C80.4173 93.6 80.7353 93.5923 81.053 93.5768C81.3708 93.5613 81.688 93.5381 82.0046 93.5072C82.3212 93.4763 82.6369 93.4378 82.9516 93.3915C83.2663 93.3452 83.5797 93.2914 83.8917 93.2299C84.2038 93.1684 84.5141 93.0993 84.8227 93.0228C85.1313 92.9462 85.4378 92.8621 85.7423 92.7706C86.0468 92.6792 86.3487 92.5803 86.6483 92.4741C86.9478 92.3679 87.2446 92.2544 87.5385 92.1339C87.8325 92.0132 88.1232 91.8855 88.4109 91.7508C88.6985 91.616 88.9825 91.4744 89.263 91.3258C89.5437 91.1772 89.8204 91.0219 90.0933 90.8598C90.3661 90.6977 90.6349 90.5292 90.8994 90.3541C91.164 90.1789 91.424 89.9975 91.6795 89.8098C91.9351 89.6219 92.1858 89.4281 92.4317 89.2281C92.6777 89.0281 92.9185 88.8224 93.1542 88.6107C93.3899 88.399 93.6204 88.1816 93.8454 87.9588C94.0703 87.7359 94.2896 87.5078 94.5033 87.2742C94.7168 87.0406 94.9246 86.802 95.1265 86.5584C95.3282 86.3147 95.524 86.0664 95.7135 85.8131C95.903 85.5599 96.0861 85.3023 96.2629 85.0403C96.4397 84.7782 96.6098 84.5119 96.7734 84.2415C96.937 83.9712 97.0937 83.697 97.2437 83.4191C97.3936 83.1411 97.5367 82.8596 97.6727 82.5746C97.8087 82.2897 97.9375 82.0016 98.0593 81.7104C98.1812 81.4192 98.2956 81.1253 98.4028 80.8285C98.5099 80.5317 98.6097 80.2325 98.7021 79.9308C98.7944 79.6292 98.8793 79.3255 98.9566 79.0198C99.0339 78.714 99.1035 78.4065 99.1656 78.0974C99.2277 77.7882 99.282 77.4778 99.3288 77.166C99.3755 76.8542 99.4144 76.5415 99.4455 76.2278C99.4767 75.914 99.5002 75.5999 99.5158 75.285C99.5314 74.9702 99.5392 74.6552 99.5392 74.3399C99.5392 74.0247 99.5314 73.7097 99.5158 73.3949C99.5002 73.0801 99.4767 72.7658 99.4455 72.4521C99.4144 72.1385 99.3755 71.8258 99.3288 71.5139C99.282 71.2021 99.2277 70.8916 99.1656 70.5825C99.1035 70.2734 99.0339 69.9659 98.9566 69.6602C98.8793 69.3544 98.7944 69.0507 98.7021 68.749C98.6097 68.4475 98.5099 68.1483 98.4028 67.8515C98.2956 67.5547 98.1812 67.2607 98.0593 66.9695C97.9375 66.6783 97.8087 66.3902 97.6727 66.1052C97.5367 65.8204 97.3936 65.5389 97.2437 65.2609C97.0937 64.9828 96.937 64.7087 96.7734 64.4383C96.6098 64.168 96.4397 63.9018 96.2629 63.6397C96.0861 63.3776 95.903 63.1199 95.7135 62.8668C95.524 62.6136 95.3282 62.3652 95.1265 62.1216C94.9246 61.8779 94.7168 61.6393 94.5033 61.4058C94.2896 61.1722 94.0703 60.944 93.8454 60.7211C93.6204 60.4982 93.3899 60.2809 93.1542 60.0693C92.9185 59.8576 92.6777 59.6517 92.4317 59.4517C92.1858 59.2518 91.9351 59.0579 91.6795 58.8702C91.424 58.6824 91.1639 58.5009 90.8994 58.3259C90.6349 58.1507 90.3661 57.9821 90.0933 57.8201C89.8204 57.6581 89.5437 57.5028 89.263 57.3542C88.9825 57.2056 88.6985 57.0639 88.4109 56.9291C88.1232 56.7943 87.8325 56.6667 87.5385 56.5461C87.2446 56.4254 86.9478 56.312 86.6483 56.2058C86.3487 56.0997 86.0468 56.0008 85.7423 55.9093C85.4378 55.8178 85.1313 55.7338 84.8227 55.6572C84.5141 55.5805 84.2038 55.5115 83.8917 55.4501C83.5797 55.3885 83.2663 55.3346 82.9516 55.2884C82.6369 55.2422 82.3212 55.2036 82.0046 55.1727C81.688 55.1418 81.3708 55.1186 81.053 55.1032C80.7353 55.0877 80.4173 55.08 80.0992 55.08C79.781 55.08 79.4631 55.0877 79.1453 55.1032C78.8275 55.1186 78.5103 55.1418 78.1937 55.1727C77.8771 55.2036 77.5614 55.2422 77.2467 55.2885C76.932 55.3347 76.6186 55.3885 76.3066 55.4501C75.9946 55.5115 75.6843 55.5805 75.3755 55.6572C75.0669 55.7338 74.7605 55.8178 74.456 55.9093C74.1515 56.0008 73.8495 56.0997 73.55 56.2058C73.2505 56.312 72.9537 56.4254 72.6597 56.5461C72.3658 56.6667 72.0751 56.7943 71.7875 56.9291C71.4999 57.0639 71.2158 57.2055 70.9352 57.3542C70.6546 57.5028 70.3778 57.6581 70.105 57.8201C69.8321 57.9821 69.5634 58.1507 69.2989 58.3259C69.0344 58.5009 68.7743 58.6824 68.5187 58.8702C68.2632 59.0579 68.0125 59.2518 67.7665 59.4517C67.5206 59.6517 67.2798 59.8576 67.044 60.0693C66.8083 60.2809 66.5779 60.4982 66.353 60.7211C66.128 60.944 65.9087 61.1722 65.6951 61.4058C65.4814 61.6393 65.2737 61.8779 65.0718 62.1216C64.87 62.3652 64.6743 62.6136 64.4847 62.8668C64.2952 63.1199 64.1121 63.3776 63.9354 63.6397C63.7586 63.9018 63.5884 64.168 63.4249 64.4383C63.2613 64.7087 63.1046 64.9828 62.9546 65.2609C62.8046 65.5389 62.6616 65.8204 62.5256 66.1052C62.3896 66.3902 62.2607 66.6783 62.1389 66.9695C62.0172 67.2607 61.9027 67.5547 61.7955 67.8515C61.6884 68.1483 61.5886 68.4475 61.4962 68.749C61.4039 69.0507 61.319 69.3544 61.2417 69.6602C61.1644 69.9659 61.0947 70.2734 61.0326 70.5825C60.9706 70.8916 60.9163 71.2021 60.8696 71.5139C60.8229 71.8258 60.784 72.1385 60.7527 72.4521C60.7216 72.7658 60.6982 73.0801 60.6826 73.3949C60.667 73.7097 60.6592 74.0247 60.6592 74.3399Z"></path><path id="路径 11" fill-rule="evenodd" fill="url(#linear_7)" opacity="1" d="M60.6592 74.3399C60.6592 74.6552 60.667 74.9702 60.6826 75.285C60.6982 75.5999 60.7216 75.914 60.7527 76.2278C60.784 76.5415 60.8229 76.8542 60.8696 77.166C60.9162 77.4778 60.9706 77.7882 61.0326 78.0974C61.0947 78.4065 61.1644 78.714 61.2417 79.0198C61.319 79.3255 61.4039 79.6292 61.4962 79.9308C61.5886 80.2325 61.6884 80.5317 61.7955 80.8285C61.9027 81.1253 62.0172 81.4192 62.1389 81.7104C62.2607 82.0016 62.3896 82.2897 62.5256 82.5747C62.6616 82.8596 62.8046 83.1411 62.9546 83.4191C63.1046 83.697 63.2613 83.9712 63.4249 84.2415C63.5884 84.5119 63.7586 84.7782 63.9354 85.0403C64.1121 85.3023 64.2952 85.5599 64.4847 85.8131C64.6743 86.0664 64.87 86.3147 65.0718 86.5584C65.2737 86.802 65.4814 87.0406 65.6951 87.2742C65.9087 87.5078 66.128 87.7359 66.353 87.9588C66.5779 88.1816 66.8083 88.399 67.044 88.6107C67.2798 88.8224 67.5206 89.0281 67.7665 89.2281C68.0125 89.4281 68.2632 89.6219 68.5187 89.8098C68.7743 89.9975 69.0344 90.1789 69.2989 90.3541C69.5634 90.5292 69.8321 90.6977 70.105 90.8598C70.3778 91.0219 70.6546 91.1772 70.9352 91.3258C71.2158 91.4744 71.4999 91.616 71.7875 91.7508C72.0751 91.8855 72.3658 92.0132 72.6597 92.1339C72.9537 92.2544 73.2505 92.3679 73.55 92.4741C73.8495 92.5803 74.1515 92.6792 74.456 92.7706C74.7605 92.8621 75.0669 92.9462 75.3757 93.0228C75.6843 93.0993 75.9946 93.1684 76.3066 93.2299C76.6186 93.2914 76.932 93.3452 77.2467 93.3915C77.5614 93.4378 77.8771 93.4763 78.1937 93.5072C78.5103 93.5381 78.8275 93.5613 79.1453 93.5768C79.4631 93.5923 79.781 93.6 80.0992 93.6C80.4173 93.6 80.7353 93.5923 81.053 93.5768C81.3708 93.5613 81.688 93.5381 82.0046 93.5072C82.3212 93.4763 82.6369 93.4378 82.9516 93.3915C83.2663 93.3452 83.5797 93.2914 83.8917 93.2299C84.2038 93.1684 84.5141 93.0993 84.8227 93.0228C85.1313 92.9462 85.4378 92.8621 85.7423 92.7706C86.0468 92.6792 86.3487 92.5803 86.6483 92.4741C86.9478 92.3679 87.2446 92.2544 87.5385 92.1339C87.8325 92.0132 88.1232 91.8855 88.4109 91.7508C88.6985 91.616 88.9825 91.4744 89.263 91.3258C89.5437 91.1772 89.8204 91.0219 90.0933 90.8598C90.3661 90.6977 90.6349 90.5292 90.8994 90.3541C91.164 90.1789 91.424 89.9975 91.6795 89.8098C91.9351 89.6219 92.1858 89.4281 92.4317 89.2281C92.6777 89.0281 92.9185 88.8224 93.1542 88.6107C93.3899 88.399 93.6204 88.1816 93.8454 87.9588C94.0703 87.7359 94.2896 87.5078 94.5033 87.2742C94.7168 87.0406 94.9246 86.802 95.1265 86.5584C95.3282 86.3147 95.524 86.0664 95.7135 85.8131C95.903 85.5599 96.0861 85.3023 96.2629 85.0403C96.4397 84.7782 96.6098 84.5119 96.7734 84.2415C96.937 83.9712 97.0937 83.697 97.2437 83.4191C97.3936 83.1411 97.5367 82.8596 97.6727 82.5746C97.8087 82.2897 97.9375 82.0016 98.0593 81.7104C98.1812 81.4192 98.2956 81.1253 98.4028 80.8285C98.5099 80.5317 98.6097 80.2325 98.7021 79.9308C98.7944 79.6292 98.8793 79.3255 98.9566 79.0198C99.0339 78.714 99.1035 78.4065 99.1656 78.0974C99.2277 77.7882 99.282 77.4778 99.3288 77.166C99.3755 76.8542 99.4144 76.5415 99.4455 76.2278C99.4767 75.914 99.5002 75.5999 99.5158 75.285C99.5314 74.9702 99.5392 74.6552 99.5392 74.3399C99.5392 74.0247 99.5314 73.7097 99.5158 73.3949C99.5002 73.0801 99.4767 72.7658 99.4455 72.4521C99.4144 72.1385 99.3755 71.8258 99.3288 71.5139C99.282 71.2021 99.2277 70.8916 99.1656 70.5825C99.1035 70.2734 99.0339 69.9659 98.9566 69.6602C98.8793 69.3544 98.7944 69.0507 98.7021 68.749C98.6097 68.4475 98.5099 68.1483 98.4028 67.8515C98.2956 67.5547 98.1812 67.2607 98.0593 66.9695C97.9375 66.6783 97.8087 66.3902 97.6727 66.1052C97.5367 65.8204 97.3936 65.5389 97.2437 65.2609C97.0937 64.9828 96.937 64.7087 96.7734 64.4383C96.6098 64.168 96.4397 63.9018 96.2629 63.6397C96.0861 63.3776 95.903 63.1199 95.7135 62.8668C95.524 62.6136 95.3282 62.3652 95.1265 62.1216C94.9246 61.8779 94.7168 61.6393 94.5033 61.4058C94.2896 61.1722 94.0703 60.944 93.8454 60.7211C93.6204 60.4982 93.3899 60.2809 93.1542 60.0693C92.9185 59.8576 92.6777 59.6517 92.4317 59.4517C92.1858 59.2518 91.9351 59.0579 91.6795 58.8702C91.424 58.6824 91.1639 58.5009 90.8994 58.3259C90.6349 58.1507 90.3661 57.9821 90.0933 57.8201C89.8204 57.6581 89.5437 57.5028 89.263 57.3542C88.9825 57.2056 88.6985 57.0639 88.4109 56.9291C88.1232 56.7943 87.8325 56.6667 87.5385 56.5461C87.2446 56.4254 86.9478 56.312 86.6483 56.2058C86.3487 56.0997 86.0468 56.0008 85.7423 55.9093C85.4378 55.8178 85.1313 55.7338 84.8227 55.6572C84.5141 55.5805 84.2038 55.5115 83.8917 55.4501C83.5797 55.3885 83.2663 55.3346 82.9516 55.2884C82.6369 55.2422 82.3212 55.2036 82.0046 55.1727C81.688 55.1418 81.3708 55.1186 81.053 55.1032C80.7353 55.0877 80.4173 55.08 80.0992 55.08C79.781 55.08 79.4631 55.0877 79.1453 55.1032C78.8275 55.1186 78.5103 55.1418 78.1937 55.1727C77.8771 55.2036 77.5614 55.2422 77.2467 55.2885C76.932 55.3347 76.6186 55.3885 76.3066 55.4501C75.9946 55.5115 75.6843 55.5805 75.3755 55.6572C75.0669 55.7338 74.7605 55.8178 74.456 55.9093C74.1515 56.0008 73.8495 56.0997 73.55 56.2058C73.2505 56.312 72.9537 56.4254 72.6597 56.5461C72.3658 56.6667 72.0751 56.7943 71.7875 56.9291C71.4999 57.0639 71.2158 57.2055 70.9352 57.3542C70.6546 57.5028 70.3778 57.6581 70.105 57.8201C69.8321 57.9821 69.5634 58.1507 69.2989 58.3259C69.0344 58.5009 68.7743 58.6824 68.5187 58.8702C68.2632 59.0579 68.0125 59.2518 67.7665 59.4517C67.5206 59.6517 67.2798 59.8576 67.044 60.0693C66.8083 60.2809 66.5779 60.4982 66.353 60.7211C66.128 60.944 65.9087 61.1722 65.6951 61.4058C65.4814 61.6393 65.2737 61.8779 65.0718 62.1216C64.87 62.3652 64.6743 62.6136 64.4847 62.8668C64.2952 63.1199 64.1121 63.3776 63.9354 63.6397C63.7586 63.9018 63.5884 64.168 63.4249 64.4383C63.2613 64.7087 63.1046 64.9828 62.9546 65.2609C62.8046 65.5389 62.6616 65.8204 62.5256 66.1052C62.3896 66.3902 62.2607 66.6783 62.1389 66.9695C62.0172 67.2607 61.9027 67.5547 61.7955 67.8515C61.6884 68.1483 61.5886 68.4475 61.4962 68.749C61.4039 69.0507 61.319 69.3544 61.2417 69.6602C61.1644 69.9659 61.0947 70.2734 61.0326 70.5825C60.9706 70.8916 60.9163 71.2021 60.8696 71.5139C60.8229 71.8258 60.784 72.1385 60.7527 72.4521C60.7216 72.7658 60.6982 73.0801 60.6826 73.3949C60.667 73.7097 60.6592 74.0247 60.6592 74.3399Z"></path><path id="路径 12" fill-rule="evenodd" fill="url(#linear_8)" opacity="1" d="M72.9005 79.5601L79.2005 79.5601L79.2005 76.5L72.9005 76.5C71.1005 76.5 70.3805 75.42 70.3805 74.34C70.3805 73.2599 71.2805 72.54 72.9005 72.54L77.4005 72.54C77.4005 72.54 73.9805 67.8599 72.9005 66.06C71.8205 63.72 76.5005 62.82 77.7605 64.8C79.0205 66.96 81.7205 71.1 81.7205 71.1C81.7205 71.1 83.8805 66.42 85.3204 64.0799C86.5805 61.9199 91.2604 64.44 89.8205 66.7799C88.5604 68.76 86.0405 72.54 86.0405 72.54L90.5404 72.54C92.3404 72.54 92.8804 73.08 92.8804 74.34C92.8804 75.6 92.3404 76.5 90.5404 76.5L84.2404 76.5L84.2404 79.5601L90.5404 79.5601C92.3404 79.5601 93.0605 80.1001 93.0605 81.36C93.0605 82.44 92.1604 83.3401 90.5404 83.3401L84.2404 83.3401L84.2404 83.7C84.2404 86.22 83.3405 87.48 81.7205 87.48L79.9205 87.48C79.0205 87.48 79.2005 85.32 79.2005 83.7L79.2005 83.3401L72.9005 83.3401C71.1005 83.3401 70.3805 82.44 70.3805 81.36C70.2005 80.1001 71.1005 79.5601 72.9005 79.5601Z"></path><path id="路径 13" fill-rule="evenodd" style="fill:#FFFFFF" opacity="1" d="M71.2804 77.76L77.5803 77.76L77.5803 74.7001L71.2804 74.7001C69.4803 74.7001 68.7604 73.6201 68.7604 72.5401C68.7604 71.46 69.6604 70.74 71.2804 70.74L75.7804 70.74L72.3604 65.16C71.2804 62.82 74.8803 61.02 76.1404 62.82C77.4004 64.98 80.1004 69.12 80.1004 69.12C80.1004 69.12 82.9803 64.62 84.4204 62.28C85.6803 60.12 89.4604 62.64 88.2004 64.98C86.9403 66.96 84.4204 70.74 84.4204 70.74L88.9204 70.74C90.7203 70.74 91.4404 71.28 91.4404 72.5401C91.4404 73.8 90.5403 74.7001 88.9204 74.7001L82.6203 74.7001L82.6203 77.76L88.9204 77.76C90.7203 77.76 91.4404 78.3 91.4404 79.5601C91.4404 80.6401 90.5403 81.54 88.9204 81.54L82.6203 81.54L82.6203 81.9C82.6203 84.4201 81.7204 85.68 80.1004 85.68C78.4804 85.68 77.5804 84.4201 77.5804 81.9L77.5804 81.54L71.2804 81.54C69.4804 81.54 68.7604 80.6401 68.7604 79.5601C68.5804 78.3 69.4804 77.76 71.2804 77.76Z"></path></g></g><defs><rect id="path_0" x="0" y="0" width="108" height="108" rx="0" ry="0"/><linearGradient id="linear_0" x1="29.118948608517396%" y1="5.169204491319128%" x2="83.92310655641609%" y2="62.989477019684955%" gradientUnits="objectBoundingBox"><stop offset="0" stop-color="#E8F8FA" stop-opacity="0.9" /><stop offset="1" stop-color="#BADEF7" stop-opacity="1" /></linearGradient><linearGradient id="linear_1" x1="29.11904502769381%" y1="5.169204491319128%" x2="83.92294991497431%" y2="62.989477019684955%" gradientUnits="objectBoundingBox"><stop offset="0" stop-color="#E8F8FA" stop-opacity="0.9" /><stop offset="1" stop-color="#BADEF7" stop-opacity="1" /></linearGradient><linearGradient id="linear_2" x1="80.91952275634846%" y1="13.935026372865188%" x2="20.632643699493542%" y2="92.94617590615914%" gradientUnits="objectBoundingBox"><stop offset="0" stop-color="#57DDFF" stop-opacity="1" /><stop offset="1" stop-color="#1692F7" stop-opacity="1" /></linearGradient><linearGradient id="linear_3" x1="39.92798230963733%" y1="17.244%" x2="88.17906705722363%" y2="85.071%" gradientUnits="objectBoundingBox"><stop offset="0" stop-color="#D7F2FA" stop-opacity="0.18" /><stop offset="1" stop-color="#BFCDD9" stop-opacity="0.2" /></linearGradient><linearGradient id="linear_4" x1="29.11892484479258%" y1="5.169204491319128%" x2="83.92314516267942%" y2="62.989477019684955%" gradientUnits="objectBoundingBox"><stop offset="0" stop-color="#E8F8FA" stop-opacity="0.9" /><stop offset="1" stop-color="#BADEF7" stop-opacity="1" /></linearGradient><linearGradient id="linear_5" x1="39.927926735678874%" y1="17.244%" x2="88.17927771629435%" y2="85.071%" gradientUnits="objectBoundingBox"><stop offset="0" stop-color="#FAD7EA" stop-opacity="0.18" /><stop offset="1" stop-color="#D9BFCA" stop-opacity="0.2" /></linearGradient><linearGradient id="linear_6" x1="35.651059432468756%" y1="38.03640723644769%" x2="99.99991177134724%" y2="100.00013980735723%" gradientUnits="objectBoundingBox"><stop offset="0" stop-color="#FAEDF2" stop-opacity="0.96" /><stop offset="1" stop-color="#FCCFDD" stop-opacity="1" /></linearGradient><linearGradient id="linear_7" x1="80.92095688157583%" y1="13.935019482155228%" x2="20.633106582691063%" y2="92.94612994534626%" gradientUnits="objectBoundingBox"><stop offset="0" stop-color="#FF57A5" stop-opacity="1" /><stop offset="1" stop-color="#FC2828" stop-opacity="1" /></linearGradient><linearGradient id="linear_8" x1="39.92798604647059%" y1="17.244%" x2="88.17905289235497%" y2="85.071%" gradientUnits="objectBoundingBox"><stop offset="0" stop-color="#FAD7EA" stop-opacity="0.18" /><stop offset="1" stop-color="#D9BFCA" stop-opacity="0.2" /></linearGradient></defs></svg>