<svg xmlns="http://www.w3.org/2000/svg" xmlns:xlink="http://www.w3.org/1999/xlink" width="108" height="108" viewBox="0 0 108 108" fill="none"><g opacity="1"  transform="translate(0 0)"><mask id="bg-mask-0" fill="white"><use transform="translate(0 0)" xlink:href="#path_0"></use></mask><g mask="url(#bg-mask-0)" ><path id="路径 1" fill-rule="evenodd" fill="url(#linear_0)" opacity="1" d="M17.6403 78.3003L93.9603 78.3003L103.68 91.6203C107.28 96.6603 105.3 100.8 99.0003 100.8L11.7003 100.8C5.58031 100.8 3.6003 96.8403 7.20031 91.8003L17.6403 78.3003Z"></path><path id="路径 2" fill-rule="evenodd" style="fill:#DAE9FF" opacity="1" d="M30.5827 15L73.6815 15C79.2478 15 83.7008 19.8951 83.7008 26.014L83.7008 78.986C83.7008 85.105 79.2478 90 73.6815 90L30.5827 90C25.0165 90 20.5635 85.105 20.5635 78.986L20.5635 26.014C20.5635 19.8951 25.0165 15 30.5827 15Z"></path><path id="路径 3" fill-rule="evenodd" fill="url(#linear_1)" opacity="1" d="M27.719 15L70.9767 15C76.5431 15 80.996 19.8951 80.996 26.014L80.996 78.986C80.996 85.105 76.5431 90 70.9767 90L27.719 90C22.1527 90 17.6997 85.105 17.6997 78.986L17.6997 26.014C17.6997 19.8951 22.1527 15 27.719 15Z"></path><path id="路径 4" fill-rule="evenodd" fill="url(#linear_2)" opacity="1" d="M100.979 93.6L99.1794 91.8C101.339 88.9199 102.599 85.32 102.599 81.3599C102.599 71.6399 94.6795 63.72 84.7795 63.72C74.8794 63.72 66.9595 71.6399 66.9595 81.3599C66.9595 91.0799 74.8794 99 84.7795 99C88.7395 99 91.2595 98.0999 94.3194 95.9399L96.2995 97.74C97.3795 98.82 99.5395 98.82 100.439 97.74C101.519 96.84 102.059 95.04 100.979 93.6Z"></path><path id="路径 5" fill-rule="evenodd" fill="url(#linear_3)" opacity="1" d="M98.2807 92.5198L95.9407 90.1798C98.1007 87.2998 99.3607 83.6999 99.3607 79.7399C99.3607 70.0199 91.4407 62.0999 81.5407 62.0999C71.6407 62.0999 63.7207 70.0199 63.7207 79.7399C63.7207 89.4599 71.6407 97.3798 81.5407 97.3798C85.5007 97.3798 89.1007 95.9398 91.9807 93.9598L94.3207 96.2998C95.4007 97.3798 97.0207 97.3798 98.1007 96.2998C99.1807 95.2198 99.1807 93.5998 98.2807 92.5198Z"></path><path id="路径 5" fill-rule="evenodd" fill="url(#linear_4)" opacity="1" d="M98.2807 92.5198L95.9407 90.1798C98.1007 87.2998 99.3607 83.6999 99.3607 79.7399C99.3607 70.0199 91.4407 62.0999 81.5407 62.0999C71.6407 62.0999 63.7207 70.0199 63.7207 79.7399C63.7207 89.4599 71.6407 97.3798 81.5407 97.3798C85.5007 97.3798 89.1007 95.9398 91.9807 93.9598L94.3207 96.2998C95.4007 97.3798 97.0207 97.3798 98.1007 96.2998C99.1807 95.2198 99.1807 93.5998 98.2807 92.5198Z"></path><path id="路径 6" fill-rule="evenodd" style="fill:#FFFFFF" opacity="1" d="M70.3799 79.5596C70.3799 79.7392 70.3843 79.9189 70.3933 80.0984C70.4023 80.2779 70.4157 80.4571 70.4336 80.6358C70.4515 80.8146 70.4739 80.9929 70.5006 81.1707C70.5274 81.3484 70.5587 81.5255 70.5943 81.7017C70.6299 81.8779 70.67 82.0531 70.7143 82.2275C70.7587 82.4018 70.8074 82.575 70.8604 82.7469C70.9134 82.9189 70.9707 83.0895 71.0322 83.2586C71.0937 83.4278 71.1594 83.5954 71.2293 83.7614C71.2992 83.9275 71.3732 84.0917 71.4513 84.2541C71.5294 84.4166 71.6115 84.577 71.6976 84.7355C71.7837 84.894 71.8737 85.0503 71.9676 85.2044C72.0615 85.3585 72.1591 85.5103 72.2606 85.6597C72.3621 85.8092 72.4672 85.956 72.5761 86.1004C72.6848 86.2448 72.7971 86.3863 72.913 86.5252C73.0289 86.6641 73.1482 86.8002 73.2708 86.9333C73.3935 87.0665 73.5194 87.1965 73.6486 87.3236C73.7777 87.4507 73.9099 87.5745 74.0452 87.6952C74.1806 87.8159 74.3189 87.9332 74.46 88.0472C74.6012 88.1612 74.7452 88.2718 74.8918 88.3788C75.0385 88.4859 75.1878 88.5892 75.3397 88.6891C75.4915 88.789 75.6458 88.8851 75.8025 88.9775C75.9591 89.0698 76.118 89.1583 76.2791 89.243C76.4401 89.3277 76.6032 89.4085 76.7683 89.4854C76.9334 89.5623 77.1003 89.6351 77.2691 89.7038C77.4379 89.7726 77.6082 89.8372 77.7801 89.8978C77.9521 89.9583 78.1255 90.0146 78.3003 90.0667C78.4751 90.1189 78.651 90.1668 78.8281 90.2105C79.0053 90.2542 79.1835 90.2935 79.3627 90.3286C79.5417 90.3636 79.7216 90.3943 79.9023 90.4207C80.083 90.4471 80.2642 90.4691 80.4459 90.4867C80.6278 90.5043 80.8099 90.5175 80.9923 90.5264C81.1746 90.5351 81.3572 90.5396 81.5398 90.5396C81.7225 90.5396 81.9051 90.5351 82.0874 90.5264C82.2698 90.5175 82.4519 90.5043 82.6337 90.4867C82.8155 90.4691 82.9967 90.4471 83.1774 90.4207C83.358 90.3943 83.5378 90.3636 83.717 90.3286C83.8962 90.2935 84.0744 90.2542 84.2514 90.2105C84.4286 90.1668 84.6047 90.1189 84.7794 90.0667C84.9542 90.0146 85.1276 89.9583 85.2995 89.8977C85.4715 89.8371 85.6418 89.7725 85.8106 89.7038C85.9793 89.6349 86.1463 89.5622 86.3114 89.4854C86.4764 89.4085 86.6396 89.3277 86.8006 89.243C86.9617 89.1583 87.1206 89.0698 87.2772 88.9775C87.4339 88.8851 87.5882 88.789 87.74 88.6891C87.8918 88.5892 88.0412 88.4859 88.1879 88.3788C88.3346 88.2718 88.4784 88.1612 88.6196 88.0472C88.7609 87.9332 88.8991 87.8159 89.0345 87.6952C89.1698 87.5745 89.302 87.4507 89.4311 87.3236C89.5603 87.1965 89.6861 87.0665 89.8088 86.9333C89.9315 86.8002 90.0508 86.6641 90.1667 86.5252C90.2826 86.3863 90.3949 86.2448 90.5036 86.1004C90.6124 85.956 90.7175 85.8092 90.819 85.6597C90.9206 85.5103 91.0182 85.3585 91.1121 85.2044C91.2059 85.0503 91.2959 84.894 91.3821 84.7355C91.4681 84.577 91.5502 84.4166 91.6284 84.2541C91.7065 84.0917 91.7804 83.9275 91.8504 83.7614C91.9203 83.5954 91.986 83.4278 92.0475 83.2586C92.109 83.0895 92.1662 82.9189 92.2193 82.7469C92.2723 82.575 92.321 82.4018 92.3654 82.2275C92.4098 82.0531 92.4497 81.8779 92.4854 81.7017C92.521 81.5255 92.5523 81.3484 92.579 81.1707C92.6058 80.9929 92.6282 80.8146 92.6461 80.6358C92.6639 80.4571 92.6775 80.2779 92.6864 80.0984C92.6954 79.9189 92.6998 79.7392 92.6998 79.5596C92.6998 79.3799 92.6954 79.2003 92.6864 79.0208C92.6775 78.8414 92.6639 78.6622 92.6461 78.4833C92.6282 78.3045 92.6058 78.1262 92.579 77.9485C92.5523 77.7707 92.521 77.5937 92.4854 77.4174C92.4497 77.2413 92.4098 77.066 92.3654 76.8917C92.321 76.7174 92.2723 76.5442 92.2193 76.3723C92.1662 76.2003 92.109 76.0297 92.0475 75.8605C91.986 75.6913 91.9203 75.5238 91.8504 75.3577C91.7804 75.1917 91.7065 75.0275 91.6284 74.865C91.5502 74.7026 91.4681 74.5421 91.3821 74.3836C91.2959 74.2252 91.2059 74.0688 91.1121 73.9147C91.0182 73.7606 90.9206 73.6088 90.819 73.4594C90.7175 73.31 90.6124 73.1631 90.5036 73.0188C90.3949 72.8745 90.2826 72.7329 90.1667 72.5939C90.0508 72.455 89.9315 72.319 89.8088 72.1859C89.6861 72.0527 89.5603 71.9226 89.4311 71.7955C89.302 71.6685 89.1698 71.5446 89.0345 71.424C88.8991 71.3032 88.7609 71.1859 88.6196 71.0719C88.4784 70.958 88.3346 70.8474 88.1879 70.7403C88.0412 70.6333 87.8918 70.5299 87.74 70.43C87.5882 70.3302 87.4339 70.2341 87.2772 70.1417C87.1206 70.0493 86.9617 69.9608 86.8006 69.8761C86.6396 69.7914 86.4764 69.7106 86.3114 69.6338C86.1463 69.557 85.9793 69.4842 85.8106 69.4154C85.6418 69.3467 85.4715 69.282 85.2995 69.2215C85.1276 69.1609 84.9542 69.1046 84.7794 69.0524C84.6047 69.0002 84.4286 68.9523 84.2516 68.9087C84.0744 68.865 83.8962 68.8256 83.717 68.7905C83.5378 68.7555 83.358 68.7248 83.1774 68.6985C82.9967 68.6721 82.8155 68.6501 82.6337 68.6324C82.4519 68.6149 82.2698 68.6016 82.0874 68.5928C81.9051 68.584 81.7225 68.5796 81.5398 68.5796C81.3572 68.5796 81.1746 68.584 80.9923 68.5928C80.8099 68.6016 80.6278 68.6149 80.4459 68.6324C80.2642 68.6501 80.083 68.6721 79.9023 68.6985C79.7216 68.7248 79.5417 68.7555 79.3627 68.7905C79.1835 68.8256 79.0053 68.865 78.8281 68.9087C78.651 68.9523 78.4751 69.0002 78.3003 69.0524C78.1255 69.1046 77.9521 69.1609 77.7801 69.2215C77.6082 69.282 77.4379 69.3467 77.2691 69.4154C77.1003 69.4842 76.9334 69.557 76.7683 69.6338C76.6032 69.7106 76.4401 69.7914 76.2791 69.8761C76.118 69.9608 75.9591 70.0493 75.8025 70.1417C75.6458 70.2341 75.4915 70.3302 75.3397 70.43C75.1878 70.5299 75.0385 70.6333 74.8918 70.7403C74.7452 70.8474 74.6012 70.958 74.46 71.0719C74.3189 71.1859 74.1806 71.3032 74.0452 71.424C73.9099 71.5446 73.7777 71.6685 73.6486 71.7955C73.5194 71.9226 73.3935 72.0527 73.2708 72.1859C73.1482 72.319 73.0289 72.455 72.913 72.5939C72.7971 72.7329 72.6848 72.8745 72.5761 73.0188C72.4673 73.1631 72.3621 73.31 72.2606 73.4594C72.1591 73.6088 72.0615 73.7606 71.9676 73.9147C71.8737 74.0688 71.7837 74.2252 71.6976 74.3836C71.6115 74.5421 71.5294 74.7026 71.4513 74.865C71.3732 75.0275 71.2992 75.1917 71.2293 75.3577C71.1594 75.5238 71.0937 75.6913 71.0322 75.8605C70.9707 76.0297 70.9134 76.2003 70.8604 76.3723C70.8074 76.5442 70.7587 76.7174 70.7143 76.8917C70.67 77.066 70.6299 77.2413 70.5943 77.4174C70.5587 77.5937 70.5274 77.7707 70.5006 77.9485C70.4739 78.1262 70.4515 78.3045 70.4336 78.4833C70.4157 78.6622 70.4023 78.8414 70.3933 79.0208C70.3843 79.2003 70.3799 79.3799 70.3799 79.5596Z"></path><path id="路径 7" fill-rule="evenodd" style="fill:#DB344E" opacity="0.3" d="M87.8405 83.3399L87.4805 83.3399C86.5805 83.1599 86.0405 82.2599 86.2205 81.3598C86.4005 80.6399 86.5805 80.0999 86.5805 79.3799C86.5805 78.1198 86.2205 77.0398 85.5005 75.9598C84.9605 75.2399 85.1404 74.1599 85.8605 73.6199C86.5805 73.0799 87.6605 73.2598 88.2005 73.9799C89.2805 75.5999 90.0005 77.3999 90.0005 79.1998C90.0005 80.2798 89.8205 81.1799 89.6405 81.8998C89.2805 82.7999 88.5605 83.3399 87.8405 83.3399Z"></path><path id="路径 7" fill-rule="evenodd" fill="url(#linear_5)" opacity="1" d="M87.8405 83.3399L87.4805 83.3399C86.5805 83.1599 86.0405 82.2599 86.2205 81.3598C86.4005 80.6399 86.5805 80.0999 86.5805 79.3799C86.5805 78.1198 86.2205 77.0398 85.5005 75.9598C84.9605 75.2399 85.1404 74.1599 85.8605 73.6199C86.5805 73.0799 87.6605 73.2598 88.2005 73.9799C89.2805 75.5999 90.0005 77.3999 90.0005 79.1998C90.0005 80.2798 89.8205 81.1799 89.6405 81.8998C89.2805 82.7999 88.5605 83.3399 87.8405 83.3399Z"></path><path id="路径 8" fill-rule="evenodd" style="fill:#FFFFFF" opacity="0.5" d="M66.6825 37.9805L34.7163 37.9805C33.285 37.9805 32.0127 39.2404 32.0127 40.8604C32.0127 42.4804 33.126 43.7404 34.7163 43.7404L66.6825 43.7404C68.1138 43.7404 69.3862 42.4804 69.3862 40.8604C69.3862 39.2404 68.1138 37.9805 66.6825 37.9805Z"></path><path id="路径 9" fill-rule="evenodd" style="fill:#FFFFFF" opacity="1" d="M65.0924 36.3604L33.2851 36.3604C31.8538 36.3604 30.5815 37.6203 30.5815 39.2403C30.5815 40.8603 31.6948 42.1203 33.2851 42.1203L65.0924 42.1203C66.5237 42.1203 67.796 40.8603 67.796 39.2403C67.6369 37.6203 66.5237 36.3604 65.0924 36.3604Z"></path><path id="路径 10" fill-rule="evenodd" style="fill:#FFFFFF" opacity="0.5" d="M66.5235 55.6201L34.7163 55.6201C33.285 55.6201 32.0127 56.8802 32.0127 58.5002C32.0127 60.1202 33.126 61.3801 34.7163 61.3801L66.5235 61.3801C67.9549 61.3801 69.2271 60.1202 69.2271 58.5002C69.0681 57.0601 67.9549 55.6201 66.5235 55.6201Z"></path><path id="路径 11" fill-rule="evenodd" style="fill:#FFFFFF" opacity="1" d="M65.0924 54.1802L33.2851 54.1802C31.8538 54.1802 30.5815 55.4401 30.5815 57.0601C30.5815 58.6801 31.6948 59.9401 33.2851 59.9401L65.0924 59.9401C66.5237 59.9401 67.796 58.6801 67.796 57.0601C67.6369 55.4401 66.5237 54.1802 65.0924 54.1802Z"></path><path id="路径 13" fill-rule="evenodd" style="fill:#000000" opacity="0.2" d="M67.5101 22.2623C68.41 21.1822 69.0001 19.7422 69.0001 18.1222L69.0001 17.9422C69.0001 16.8722 68.7601 15.8722 68.3401 15.0022L39.64 15.0222C39.24 15.8922 39 16.8822 39 17.9422C39 21.1822 41.23 23.8823 43.9 23.8823L64.1 23.8823C65.44 23.8823 66.62 23.3423 67.5101 22.2623Z"></path><path id="路径 13" fill-rule="evenodd" fill="url(#linear_6)" opacity="1" d="M61.099 20.88L40.901 20.88C38.2277 20.88 36 18.18 36 14.94C36 11.7 38.2277 9 40.901 9L61.099 9C63.7723 9 66.0001 11.7 66.0001 14.94L66.0001 15.12C66.0001 16.74 65.4061 18.18 64.515 19.26C63.6239 20.34 62.4357 20.88 61.099 20.88Z"></path><path id="路径 14" fill-rule="evenodd" style="fill:#DB344E" opacity="0.3" d="M82.62 74.52C83.52 74.52 84.24 73.8 84.24 72.9C84.24 72.0001 83.52 71.28 82.62 71.28C81.72 71.28 81 72.0001 81 72.9C81 73.8 81.72 74.52 82.62 74.52Z"></path><path id="路径 14" fill-rule="evenodd" fill="url(#linear_7)" opacity="1" d="M82.62 74.52C83.52 74.52 84.24 73.8 84.24 72.9C84.24 72.0001 83.52 71.28 82.62 71.28C81.72 71.28 81 72.0001 81 72.9C81 73.8 81.72 74.52 82.62 74.52Z"></path></g></g><defs><rect id="path_0" x="0" y="0" width="108" height="108" rx="0" ry="0"/><linearGradient id="linear_0" x1="29.11899209511461%" y1="5.169204491319128%" x2="83.92303590860993%" y2="62.989477019684955%" gradientUnits="objectBoundingBox"><stop offset="0" stop-color="#E8F8FA" stop-opacity="0.9" /><stop offset="1" stop-color="#BADEF7" stop-opacity="1" /></linearGradient><linearGradient id="linear_1" x1="80.91958201918135%" y1="13.935026372865188%" x2="20.632587411667156%" y2="92.94617590615914%" gradientUnits="objectBoundingBox"><stop offset="0" stop-color="#57DDFF" stop-opacity="1" /><stop offset="1" stop-color="#1692F7" stop-opacity="1" /></linearGradient><linearGradient id="linear_2" x1="39.927820058327136%" y1="17.244%" x2="88.17968208827722%" y2="85.071%" gradientUnits="objectBoundingBox"><stop offset="0" stop-color="#FAD7EA" stop-opacity="0.18" /><stop offset="1" stop-color="#D9BFCA" stop-opacity="0.2" /></linearGradient><linearGradient id="linear_3" x1="35.65096113926233%" y1="38.03640723644769%" x2="100.00025428106956%" y2="100.00013980735723%" gradientUnits="objectBoundingBox"><stop offset="0" stop-color="#FAEDF2" stop-opacity="0.96" /><stop offset="1" stop-color="#FCCFDD" stop-opacity="1" /></linearGradient><linearGradient id="linear_4" x1="80.92116869651669%" y1="13.935019482155228%" x2="20.6329054134059%" y2="92.94612994534626%" gradientUnits="objectBoundingBox"><stop offset="0" stop-color="#FF57A5" stop-opacity="1" /><stop offset="1" stop-color="#FC2828" stop-opacity="1" /></linearGradient><linearGradient id="linear_5" x1="80.92072128818886%" y1="13.935%" x2="20.633264704561874%" y2="92.946%" gradientUnits="objectBoundingBox"><stop offset="0" stop-color="#FF57A5" stop-opacity="1" /><stop offset="1" stop-color="#FC2828" stop-opacity="1" /></linearGradient><linearGradient id="linear_6" x1="29.119069603101334%" y1="5.169204491319129%" x2="83.92288692371028%" y2="62.98947701968497%" gradientUnits="objectBoundingBox"><stop offset="0" stop-color="#E8F8FA" stop-opacity="0.9" /><stop offset="1" stop-color="#BADEF7" stop-opacity="1" /></linearGradient><linearGradient id="linear_7" x1="80.92323676215283%" y1="13.935%" x2="20.63087565104162%" y2="92.946%" gradientUnits="objectBoundingBox"><stop offset="0" stop-color="#FF57A5" stop-opacity="1" /><stop offset="1" stop-color="#FC2828" stop-opacity="1" /></linearGradient></defs></svg>