<svg xmlns="http://www.w3.org/2000/svg" xmlns:xlink="http://www.w3.org/1999/xlink" width="108" height="108" viewBox="0 0 108 108" fill="none"><g opacity="1"  transform="translate(0 0)"><mask id="bg-mask-0" fill="white"><use transform="translate(0 0)" xlink:href="#path_0"></use></mask><g mask="url(#bg-mask-0)" ><path id="路径 1" fill-rule="evenodd" fill="url(#linear_0)" opacity="1" d="M89.6403 18L27.0003 19.7999C23.0403 19.7999 19.8003 23.0399 19.8003 27L19.8003 69.66C19.8003 73.7999 23.0403 77.0399 26.8203 77.0399L50.4004 77.0399L52.7403 82.8L56.1603 84.5999C57.9604 85.5 60.4803 85.1399 61.9203 83.7L68.2204 77.0399L91.8003 77.0399C95.7604 77.0399 98.8203 73.7999 98.8203 69.66L98.8203 27C99.0004 23.0399 93.4203 18 89.6403 18Z"></path><path id="路径 2" fill-rule="evenodd" fill="url(#linear_1)" opacity="1" d="M86.5795 18L21.4194 18C17.6394 18 14.3994 21.4199 14.3994 25.56L14.3994 69.3C14.3994 73.44 17.6394 76.86 21.4194 76.86L44.9995 76.86L51.4795 83.7C52.9194 85.1399 55.0794 85.1399 56.5194 83.7L62.9994 76.86L86.5795 76.86C90.5394 76.86 93.5995 73.44 93.5995 69.3L93.5995 25.56C93.5995 21.4199 90.3595 18 86.5795 18Z"></path><g opacity="1"  transform="translate(28 21)"><mask id="bg-mask-1" fill="white"><use transform="translate(0 0)" xlink:href="#path_1"></use></mask><g mask="url(#bg-mask-1)" ><path id="路径 1" fill-rule="evenodd" fill="url(#linear_2)" opacity="1" d="M29.8682 31.8133L33.6088 28.0726L46.4338 40.8976L42.6932 44.6383L29.8682 31.8133Z"></path><path id="路径 2" fill-rule="evenodd" fill="url(#linear_3)" opacity="1" d="M48.927 44.9945L46.4332 47.4883C45.7207 48.2008 44.652 48.2008 43.9395 47.4883L34.8551 38.4039C34.1426 37.6914 34.1426 36.6226 34.8551 35.9101L37.3488 33.4164C38.0613 32.7039 39.1301 32.7039 39.8426 33.4164L48.927 42.5008C49.6395 43.2133 49.6395 44.282 48.927 44.9945ZM19.002 27.0039L28.6207 17.3851L36.6363 25.4008L27.0176 35.0195L19.002 27.0039Z"></path><path id="路径 4" fill-rule="evenodd" fill="url(#linear_4)" opacity="1" d="M27.0185 37.513L25.4154 39.1161C24.7029 39.8286 23.6341 39.8286 22.9216 39.1161L14.3716 30.5661C13.8373 30.0317 13.8373 28.963 14.5498 28.2505L16.1529 26.6473C16.8654 25.9348 17.9341 25.9348 18.6466 26.6473L27.1966 35.1973C27.731 35.7317 27.731 36.9786 27.0185 37.513ZM40.7341 23.7973L39.131 25.4005C38.4185 26.113 37.3498 26.113 36.6373 25.4005L28.0873 16.8505C27.3748 16.138 27.3748 15.0692 28.0873 14.3567L29.8685 12.9317C30.581 12.2192 31.6498 12.2192 32.3623 12.9317L40.9123 21.4817C41.4466 22.1942 41.4466 23.263 40.7341 23.7973Z"></path><path id="路径 6" fill-rule="evenodd" fill="url(#linear_5)" opacity="1" d="M29.8685 44.9942L12.5903 44.9942L12.5903 44.1036C12.5903 43.213 13.3028 42.6786 14.0153 42.6786L28.4435 42.6786C29.3341 42.6786 29.8685 43.3911 29.8685 44.1036L29.8685 44.9942Z"></path><path id="路径 7" fill-rule="evenodd" fill="url(#linear_6)" opacity="1" d="M30.7588 47.8449L11.6994 47.8449C10.8088 47.8449 10.2744 47.1324 10.2744 46.4199C10.2744 45.5293 10.9869 44.9949 11.6994 44.9949L30.7588 44.9949C31.6494 44.9949 32.1838 45.7074 32.1838 46.4199C32.1838 47.1324 31.4713 47.8449 30.7588 47.8449Z"></path></g></g><g opacity="1"  transform="translate(25.5 19.5)"><mask id="bg-mask-2" fill="white"><use transform="translate(0 0)" xlink:href="#path_2"></use></mask><g mask="url(#bg-mask-2)" ><path id="路径 1" fill-rule="evenodd" style="fill:#FFFFFF" opacity="1" d="M29.8682 31.8133L33.6088 28.0726L46.4338 40.8976L42.6932 44.6383L29.8682 31.8133Z"></path><path id="路径 2" fill-rule="evenodd" style="fill:#FFFFFF" opacity="1" d="M48.927 44.9945L46.4332 47.4883C45.7207 48.2008 44.652 48.2008 43.9395 47.4883L34.8551 38.4039C34.1426 37.6914 34.1426 36.6226 34.8551 35.9101L37.3488 33.4164C38.0613 32.7039 39.1301 32.7039 39.8426 33.4164L48.927 42.5008C49.6395 43.2133 49.6395 44.282 48.927 44.9945ZM19.002 27.0039L28.6207 17.3851L36.6363 25.4008L27.0176 35.0195L19.002 27.0039Z"></path><path id="路径 4" fill-rule="evenodd" style="fill:#FFFFFF" opacity="1" d="M27.0185 37.513L25.4154 39.1161C24.7029 39.8286 23.6341 39.8286 22.9216 39.1161L14.3716 30.5661C13.8373 30.0317 13.8373 28.963 14.5498 28.2505L16.1529 26.6473C16.8654 25.9348 17.9341 25.9348 18.6466 26.6473L27.1966 35.1973C27.731 35.7317 27.731 36.9786 27.0185 37.513ZM40.7341 23.7973L39.131 25.4005C38.4185 26.113 37.3498 26.113 36.6373 25.4005L28.0873 16.8505C27.3748 16.138 27.3748 15.0692 28.0873 14.3567L29.8685 12.9317C30.581 12.2192 31.6498 12.2192 32.3623 12.9317L40.9123 21.4817C41.4466 22.1942 41.4466 23.263 40.7341 23.7973Z"></path><path id="路径 6" fill-rule="evenodd" style="fill:#FFFFFF" opacity="1" d="M29.8685 44.9942L12.5903 44.9942L12.5903 44.1036C12.5903 43.213 13.3028 42.6786 14.0153 42.6786L28.4435 42.6786C29.3341 42.6786 29.8685 43.3911 29.8685 44.1036L29.8685 44.9942Z"></path><path id="路径 7" fill-rule="evenodd" style="fill:#FFFFFF" opacity="1" d="M30.7588 47.8449L11.6994 47.8449C10.8088 47.8449 10.2744 47.1324 10.2744 46.4199C10.2744 45.5293 10.9869 44.9949 11.6994 44.9949L30.7588 44.9949C31.6494 44.9949 32.1838 45.7074 32.1838 46.4199C32.1838 47.1324 31.4713 47.8449 30.7588 47.8449Z"></path></g></g><path id="路径 5" fill-rule="evenodd" fill="url(#linear_7)" opacity="1" d="M16.1997 97.1999C16.1997 97.2588 16.2286 97.321 16.2597 97.3799C16.2908 97.4387 16.3176 97.5012 16.3797 97.5599C16.4418 97.6184 16.5268 97.6816 16.6197 97.7399C16.7126 97.7981 16.8261 97.8321 16.9497 97.8899C17.0732 97.9477 17.2158 98.0127 17.3697 98.0699C17.5236 98.127 17.6958 98.1935 17.8797 98.2499C18.0636 98.3063 18.2364 98.3444 18.4497 98.3999C18.6631 98.4553 18.8973 98.5254 19.1397 98.5799C19.3821 98.6343 19.6489 98.6766 19.9197 98.7299C20.1905 98.7831 20.4612 98.8579 20.7597 98.9099C21.0583 98.9618 21.3941 99.0093 21.7197 99.0599C22.0453 99.1104 22.3579 99.1609 22.7097 99.2099C23.0616 99.2589 23.4424 99.2825 23.8197 99.3299C24.197 99.3772 24.588 99.4343 24.9897 99.4799C25.3915 99.5254 25.7943 99.5863 26.2197 99.6299C26.645 99.6735 27.0919 99.7082 27.5397 99.7499C27.9876 99.7915 28.4505 99.8303 28.9197 99.8699C29.389 99.9095 29.8701 99.9525 30.3597 99.9899C30.8493 100.027 31.351 100.045 31.8597 100.08C32.3684 100.115 32.8631 100.167 33.3897 100.2C33.9163 100.233 34.4665 100.26 35.0097 100.29C35.553 100.32 36.1012 100.38 36.6597 100.38C37.2183 100.38 37.7671 100.44 38.3397 100.44C38.9123 100.44 39.4946 100.53 40.0797 100.53C40.6649 100.53 41.2534 100.59 41.8497 100.59C42.4461 100.59 43.0736 100.65 43.6797 100.65C44.2859 100.65 44.8954 100.68 45.5097 100.68C46.1241 100.68 46.7186 100.74 47.3397 100.74C47.9609 100.74 48.6033 100.77 49.2297 100.77C49.8562 100.77 50.4894 100.77 51.1197 100.77C51.75 100.77 52.3771 100.8 53.0097 100.8C53.6423 100.8 54.2664 100.8 54.8997 100.8C55.5331 100.8 56.1571 100.8 56.7897 100.8C57.4223 100.8 58.0495 100.77 58.6797 100.77C59.31 100.77 59.9432 100.77 60.5698 100.77C61.1962 100.77 61.8386 100.74 62.4598 100.74C63.081 100.74 63.6754 100.68 64.2898 100.68C64.9041 100.68 65.5137 100.65 66.1198 100.65C66.7259 100.65 67.3534 100.59 67.9498 100.59C68.5462 100.59 69.1346 100.53 69.7198 100.53C70.3049 100.53 70.8873 100.44 71.4598 100.44C72.0323 100.44 72.5811 100.38 73.1398 100.38C73.6983 100.38 74.2465 100.32 74.7898 100.29C75.333 100.26 75.8832 100.233 76.4098 100.2C76.9364 100.167 77.4311 100.115 77.9398 100.08C78.4484 100.045 78.9502 100.027 79.4398 99.9899C79.9294 99.9525 80.4104 99.9095 80.8798 99.8699C81.349 99.8303 81.812 99.7915 82.2598 99.7499C82.7077 99.7082 83.1544 99.6735 83.5798 99.6299C84.0051 99.5863 84.4079 99.5254 84.8098 99.4799C85.2115 99.4343 85.6025 99.3772 85.9798 99.3299C86.357 99.2825 86.7379 99.2589 87.0898 99.2099C87.4417 99.1609 87.7542 99.1104 88.0798 99.0599C88.4054 99.0093 88.7412 98.9618 89.0398 98.9099C89.3384 98.8579 89.609 98.7831 89.8798 98.7299C90.1505 98.6766 90.4173 98.6343 90.6598 98.5799C90.9021 98.5254 91.1364 98.4553 91.3498 98.3999C91.5631 98.3444 91.7359 98.3063 91.9198 98.2499C92.1036 98.1935 92.2759 98.127 92.4298 98.0699C92.5837 98.0127 92.7263 97.9477 92.8498 97.8899C92.9733 97.8321 93.0869 97.7981 93.1798 97.7399C93.2727 97.6816 93.3577 97.6184 93.4198 97.5599C93.4819 97.5012 93.5087 97.4387 93.5398 97.3799C93.5709 97.321 93.5998 97.2588 93.5998 97.1999C93.5998 97.1409 93.5709 97.0787 93.5398 97.0199C93.5087 96.961 93.4819 96.8985 93.4198 96.8399C93.3577 96.7812 93.2727 96.7181 93.1798 96.6599C93.0869 96.6016 92.9733 96.5676 92.8498 96.5099C92.7263 96.4521 92.5837 96.387 92.4298 96.3299C92.2759 96.2727 92.1036 96.2062 91.9198 96.1499C91.7359 96.0935 91.5631 96.0553 91.3498 95.9999C91.1364 95.9444 90.9023 95.8743 90.6598 95.8199C90.4174 95.7654 90.1505 95.7231 89.8798 95.6699C89.609 95.6166 89.3384 95.5417 89.0398 95.4899C88.7412 95.4379 88.4054 95.3904 88.0798 95.3399C87.7542 95.2893 87.4417 95.2389 87.0898 95.1899C86.7379 95.1409 86.357 95.1172 85.9798 95.0699C85.6025 95.0225 85.2115 94.9654 84.8098 94.9199C84.4079 94.8743 84.0051 94.8135 83.5798 94.7699C83.1544 94.7263 82.7077 94.6915 82.2598 94.6499C81.812 94.6082 81.349 94.5694 80.8798 94.5299C80.4104 94.4903 79.9294 94.4472 79.4398 94.4099C78.9502 94.3724 78.4484 94.3549 77.9398 94.3199C77.4311 94.2848 76.9364 94.2326 76.4098 94.1999C75.8832 94.1672 75.333 94.1402 74.7898 94.1099C74.2465 94.0795 73.6983 94.0199 73.1398 94.0199C72.5811 94.0199 72.0322 93.9599 71.4598 93.9599C70.8872 93.9599 70.3049 93.8699 69.7198 93.8699C69.1346 93.8699 68.5462 93.8099 67.9498 93.8099C67.3534 93.8099 66.7259 93.7499 66.1198 93.7499C65.5137 93.7499 64.9041 93.7199 64.2898 93.7199C63.6754 93.7199 63.081 93.6599 62.4598 93.6599C61.8386 93.6599 61.1962 93.6299 60.5698 93.6299C59.9432 93.6299 59.31 93.6299 58.6797 93.6299C58.0495 93.6299 57.4223 93.5999 56.7897 93.5999C56.1571 93.5999 55.5331 93.5999 54.8997 93.5999C54.2664 93.5999 53.6423 93.5999 53.0097 93.5999C52.3771 93.5999 51.75 93.6299 51.1197 93.6299C50.4894 93.6299 49.8562 93.6299 49.2297 93.6299C48.6033 93.6299 47.9609 93.6599 47.3397 93.6599C46.7186 93.6599 46.1241 93.7199 45.5097 93.7199C44.8954 93.7199 44.2859 93.7499 43.6797 93.7499C43.0736 93.7499 42.4461 93.8099 41.8497 93.8099C41.2534 93.8099 40.6649 93.8699 40.0797 93.8699C39.4946 93.8699 38.9123 93.9599 38.3397 93.9599C37.7671 93.9599 37.2183 94.0199 36.6597 94.0199C36.1012 94.0199 35.553 94.0795 35.0097 94.1099C34.4665 94.1402 33.9163 94.1672 33.3897 94.1999C32.8631 94.2326 32.3684 94.2848 31.8597 94.3199C31.351 94.3549 30.8493 94.3724 30.3597 94.4099C29.8701 94.4472 29.389 94.4903 28.9197 94.5299C28.4505 94.5694 27.9876 94.6082 27.5397 94.6499C27.0919 94.6915 26.645 94.7263 26.2197 94.7699C25.7944 94.8135 25.3916 94.8743 24.9897 94.9199C24.588 94.9654 24.197 95.0225 23.8197 95.0699C23.4424 95.1172 23.0616 95.1409 22.7097 95.1899C22.3579 95.2389 22.0453 95.2893 21.7197 95.3399C21.3941 95.3904 21.0583 95.4379 20.7597 95.4899C20.4612 95.5417 20.1905 95.6166 19.9197 95.6699C19.6489 95.7231 19.3821 95.7654 19.1397 95.8199C18.8973 95.8743 18.6631 95.9444 18.4497 95.9999C18.2364 96.0553 18.0636 96.0935 17.8797 96.1499C17.6958 96.2062 17.5236 96.2727 17.3697 96.3299C17.2158 96.387 17.0732 96.4521 16.9497 96.5099C16.8261 96.5676 16.7126 96.6016 16.6197 96.6599C16.5268 96.7181 16.4418 96.7812 16.3797 96.8399C16.3176 96.8985 16.2908 96.961 16.2597 97.0199C16.2286 97.0787 16.1997 97.1409 16.1997 97.1999Z"></path><path id="路径 6" fill-rule="evenodd" fill="url(#linear_8)" opacity="1" d="M88.1396 32.1081C88.1396 32.2406 88.1429 32.3731 88.1494 32.5055C88.1559 32.6379 88.1656 32.77 88.1786 32.9019C88.1916 33.0339 88.2078 33.1655 88.2273 33.2966C88.2467 33.4276 88.2693 33.5582 88.2952 33.6883C88.3211 33.8183 88.3501 33.9476 88.3823 34.0762C88.4145 34.2047 88.4499 34.3325 88.4884 34.4594C88.5269 34.5863 88.5685 34.7121 88.6131 34.8368C88.6577 34.9616 88.7055 35.0853 88.7562 35.2078C88.8069 35.3302 88.8606 35.4514 88.9173 35.5712C88.9739 35.691 89.0335 35.8094 89.096 35.9263C89.1585 36.0433 89.2239 36.1586 89.292 36.2723C89.3601 36.386 89.431 36.4979 89.5047 36.6081C89.5783 36.7183 89.6546 36.8267 89.7336 36.9331C89.8126 37.0397 89.8941 37.1442 89.9782 37.2466C90.0623 37.349 90.1489 37.4494 90.238 37.5476C90.327 37.6458 90.4183 37.7418 90.5121 37.8355C90.6058 37.9293 90.7018 38.0207 90.8 38.1098C90.8982 38.1988 90.9986 38.2854 91.101 38.3694C91.2035 38.4535 91.308 38.535 91.4145 38.614C91.5209 38.693 91.6293 38.7692 91.7395 38.843C91.8497 38.9166 91.9616 38.9875 92.0753 39.0556C92.1891 39.1237 92.3044 39.189 92.4213 39.2516C92.5382 39.3141 92.6566 39.3737 92.7764 39.4303C92.8963 39.487 93.0174 39.5408 93.1398 39.5915C93.2623 39.6422 93.386 39.6899 93.5109 39.7345C93.6357 39.7791 93.7615 39.8208 93.8883 39.8593C94.0152 39.8978 94.1429 39.9331 94.2715 39.9653C94.4001 39.9974 94.5294 40.0265 94.6594 40.0524C94.7894 40.0782 94.92 40.1009 95.0511 40.1203C95.1823 40.1398 95.3138 40.1561 95.4457 40.169C95.5776 40.182 95.7097 40.1918 95.8421 40.1982C95.9745 40.2048 96.107 40.2081 96.2396 40.2081C96.3722 40.2081 96.5047 40.2048 96.6371 40.1982C96.7695 40.1918 96.9016 40.182 97.0335 40.169C97.1655 40.1561 97.2971 40.1398 97.4282 40.1203C97.5592 40.1009 97.6898 40.0782 97.8199 40.0524C97.9499 40.0265 98.0792 39.9974 98.2078 39.9653C98.3363 39.9331 98.4641 39.8978 98.591 39.8593C98.7178 39.8208 98.8437 39.7791 98.9684 39.7345C99.0932 39.6899 99.2169 39.6422 99.3394 39.5915C99.4618 39.5408 99.5829 39.487 99.7028 39.4303C99.8226 39.3737 99.941 39.3141 100.058 39.2516C100.175 39.189 100.29 39.1237 100.404 39.0556C100.518 38.9875 100.629 38.9166 100.74 38.843C100.85 38.7692 100.958 38.693 101.065 38.614C101.171 38.535 101.276 38.4535 101.378 38.3694C101.481 38.2854 101.581 38.1988 101.679 38.1098C101.777 38.0207 101.873 37.9293 101.967 37.8355C102.061 37.7418 102.152 37.6458 102.241 37.5476C102.33 37.4494 102.417 37.349 102.501 37.2466C102.585 37.1442 102.667 37.0397 102.746 36.9331C102.825 36.8267 102.901 36.7183 102.975 36.6081C103.048 36.4979 103.119 36.386 103.187 36.2723C103.255 36.1586 103.321 36.0433 103.383 35.9263C103.446 35.8094 103.505 35.691 103.562 35.5712C103.619 35.4514 103.672 35.3302 103.723 35.2078C103.774 35.0853 103.821 34.9616 103.866 34.8368C103.911 34.7121 103.952 34.5863 103.991 34.4594C104.03 34.3325 104.065 34.2047 104.097 34.0762C104.129 33.9476 104.158 33.8183 104.184 33.6883C104.21 33.5582 104.233 33.4276 104.252 33.2966C104.271 33.1655 104.288 33.0339 104.301 32.9019C104.314 32.77 104.323 32.6379 104.329 32.5055C104.336 32.3731 104.34 32.2406 104.34 32.1081C104.34 31.9754 104.336 31.8429 104.329 31.7105C104.323 31.5781 104.314 31.446 104.301 31.3141C104.288 31.1822 104.271 31.0507 104.252 30.9195C104.233 30.7884 104.21 30.6578 104.184 30.5278C104.158 30.3978 104.129 30.2685 104.097 30.1399C104.065 30.0113 104.03 29.8836 103.991 29.7567C103.952 29.6299 103.911 29.504 103.866 29.3792C103.821 29.2543 103.774 29.1307 103.723 29.0083C103.672 28.8858 103.619 28.7647 103.562 28.6448C103.505 28.525 103.446 28.4066 103.383 28.2897C103.321 28.1728 103.255 28.0575 103.187 27.9438C103.119 27.8301 103.048 27.7181 102.975 27.6079C102.901 27.4977 102.825 27.3893 102.746 27.2829C102.667 27.1764 102.585 27.0719 102.501 26.9694C102.417 26.867 102.33 26.7666 102.241 26.6684C102.152 26.5702 102.061 26.4742 101.967 26.3805C101.873 26.2867 101.777 26.1954 101.679 26.1064C101.581 26.0173 101.481 25.9307 101.378 25.8466C101.276 25.7625 101.171 25.681 101.065 25.602C100.958 25.523 100.85 25.4468 100.74 25.3731C100.629 25.2994 100.518 25.2285 100.404 25.1604C100.29 25.0923 100.175 25.027 100.058 24.9644C99.941 24.9019 99.8226 24.8423 99.7028 24.7857C99.583 24.729 99.4618 24.6753 99.3394 24.6246C99.2169 24.5739 99.0932 24.5262 98.9684 24.4815C98.8437 24.4369 98.7178 24.3953 98.591 24.3568C98.4641 24.3183 98.3363 24.2829 98.2078 24.2507C98.0792 24.2185 97.9499 24.1895 97.8199 24.1636C97.6898 24.1378 97.5592 24.1152 97.4282 24.0957C97.2971 24.0762 97.1655 24.06 97.0335 24.047C96.9016 24.034 96.7695 24.0243 96.6371 24.0178C96.5047 24.0113 96.3722 24.0081 96.2396 24.0081C96.107 24.0081 95.9745 24.0113 95.8421 24.0178C95.7097 24.0243 95.5776 24.034 95.4457 24.047C95.3138 24.06 95.1823 24.0762 95.0511 24.0957C94.92 24.1151 94.7894 24.1377 94.6594 24.1636C94.5294 24.1895 94.4001 24.2185 94.2715 24.2507C94.1429 24.2829 94.0152 24.3183 93.8883 24.3568C93.7615 24.3953 93.6357 24.4369 93.5109 24.4815C93.386 24.5262 93.2623 24.5739 93.1398 24.6246C93.0174 24.6753 92.8963 24.729 92.7764 24.7857C92.6566 24.8423 92.5382 24.9019 92.4213 24.9644C92.3044 25.027 92.1891 25.0923 92.0753 25.1604C91.9616 25.2285 91.8497 25.2994 91.7395 25.3731C91.6293 25.4468 91.5209 25.523 91.4145 25.602C91.308 25.681 91.2035 25.7625 91.101 25.8466C90.9986 25.9307 90.8982 26.0173 90.8 26.1064C90.7018 26.1954 90.6058 26.2867 90.5121 26.3805C90.4183 26.4742 90.327 26.5702 90.238 26.6684C90.1489 26.7666 90.0623 26.867 89.9783 26.9694C89.8941 27.0719 89.8126 27.1764 89.7336 27.2829C89.6546 27.3893 89.5783 27.4977 89.5047 27.6079C89.431 27.7181 89.3601 27.8301 89.292 27.9438C89.2239 28.0575 89.1585 28.1728 89.096 28.2897C89.0335 28.4066 88.9739 28.525 88.9173 28.6448C88.8606 28.7647 88.8069 28.8858 88.7562 29.0083C88.7055 29.1307 88.6577 29.2543 88.6131 29.3792C88.5685 29.504 88.5269 29.6299 88.4884 29.7567C88.4499 29.8836 88.4145 30.0113 88.3823 30.1399C88.3501 30.2685 88.3211 30.3978 88.2952 30.5278C88.2693 30.6578 88.2467 30.7884 88.2273 30.9195C88.2078 31.0507 88.1916 31.1822 88.1787 31.3141C88.1657 31.446 88.1559 31.5781 88.1494 31.7105C88.1429 31.8429 88.1396 31.9754 88.1396 32.1081Z"></path><path id="路径 7" fill-rule="evenodd" fill="url(#linear_9)" opacity="1" d="M84 32.1079C84 32.2405 84.0033 32.3729 84.0098 32.5053C84.0163 32.6377 84.026 32.7699 84.039 32.9018C84.052 33.0337 84.0683 33.1653 84.0878 33.2964C84.1072 33.4275 84.1298 33.5581 84.1557 33.6881C84.1815 33.8182 84.2106 33.9475 84.2428 34.0761C84.275 34.2046 84.3103 34.3323 84.3488 34.4592C84.3873 34.5861 84.4289 34.7119 84.4736 34.8367C84.5182 34.9615 84.5659 35.0852 84.6166 35.2076C84.6673 35.3301 84.7211 35.4513 84.7777 35.5711C84.8344 35.6909 84.894 35.8092 84.9565 35.9262C85.0189 36.0432 85.0843 36.1584 85.1525 36.2721C85.2206 36.3858 85.2915 36.4977 85.3651 36.6079C85.4388 36.7182 85.5151 36.8266 85.5941 36.933C85.673 37.0395 85.7545 37.144 85.8386 37.2465C85.9227 37.3489 86.0093 37.4493 86.0983 37.5475C86.1873 37.6457 86.2787 37.7416 86.3724 37.8354C86.4662 37.9292 86.5622 38.0206 86.6605 38.1096C86.7587 38.1986 86.859 38.2852 86.9615 38.3693C87.0639 38.4533 87.1684 38.5349 87.2749 38.6139C87.3814 38.6928 87.4897 38.7691 87.5999 38.8428C87.7101 38.9164 87.8221 38.9873 87.9358 39.0555C88.0495 39.1236 88.1648 39.1889 88.2817 39.2514C88.3987 39.314 88.517 39.3735 88.6368 39.4302C88.7566 39.4868 88.8778 39.5406 89.0003 39.5913C89.1228 39.6421 89.2464 39.6897 89.3712 39.7344C89.496 39.779 89.6219 39.8206 89.7488 39.8591C89.8756 39.8976 90.0033 39.933 90.1319 39.9651C90.2604 39.9973 90.3898 40.0264 90.5198 40.0522C90.6498 40.0781 90.7803 40.1008 90.9115 40.1202C91.0426 40.1397 91.1742 40.1559 91.3061 40.1689C91.438 40.1819 91.5702 40.1917 91.7026 40.1981C91.835 40.2046 91.9675 40.2079 92.1 40.2079C92.2326 40.2079 92.3651 40.2046 92.4975 40.1981C92.6299 40.1917 92.7621 40.1819 92.894 40.1689C93.0259 40.1559 93.1574 40.1397 93.2885 40.1202C93.4197 40.1008 93.5502 40.0781 93.6802 40.0522C93.8102 40.0264 93.9396 39.9973 94.0682 39.9651C94.1968 39.933 94.3245 39.8976 94.4513 39.8591C94.5782 39.8206 94.704 39.779 94.8288 39.7344C94.9537 39.6897 95.0773 39.6421 95.1997 39.5913C95.3222 39.5406 95.4434 39.4868 95.5632 39.4302C95.6831 39.3735 95.8014 39.314 95.9184 39.2514C96.0352 39.1889 96.1505 39.1236 96.2642 39.0555C96.3779 38.9873 96.4899 38.9164 96.6001 38.8428C96.7104 38.7691 96.8188 38.6928 96.9252 38.6139C97.0316 38.5349 97.1361 38.4533 97.2386 38.3693C97.3411 38.2852 97.4415 38.1986 97.5397 38.1096C97.6378 38.0206 97.7338 37.9292 97.8276 37.8354C97.9213 37.7416 98.0127 37.6457 98.1017 37.5475C98.1907 37.4493 98.2773 37.3489 98.3615 37.2465C98.4455 37.144 98.5271 37.0395 98.606 36.933C98.6851 36.8266 98.7613 36.7182 98.8349 36.6079C98.9086 36.4977 98.9795 36.3858 99.0477 36.2721C99.1158 36.1584 99.1811 36.0432 99.2436 35.9262C99.3062 35.8092 99.3657 35.6909 99.4224 35.5711C99.479 35.4513 99.5327 35.3301 99.5834 35.2076C99.6342 35.0852 99.6819 34.9615 99.7266 34.8367C99.7712 34.7119 99.8127 34.5861 99.8512 34.4592C99.8897 34.3323 99.9251 34.2046 99.9573 34.0761C99.9895 33.9475 100.019 33.8182 100.044 33.6881C100.07 33.5581 100.093 33.4275 100.112 33.2964C100.132 33.1653 100.148 33.0337 100.161 32.9018C100.174 32.7699 100.184 32.6377 100.19 32.5053C100.197 32.3729 100.2 32.2405 100.2 32.1079C100.2 31.9752 100.197 31.8427 100.191 31.7102C100.184 31.5777 100.175 31.4455 100.162 31.3134C100.149 31.1814 100.133 31.0497 100.113 30.9185C100.094 30.7873 100.072 30.6567 100.046 30.5265C100.02 30.3964 99.9911 30.267 99.9589 30.1383C99.9267 30.0096 99.8915 29.8818 99.8531 29.7548C99.8147 29.6278 99.7733 29.5019 99.7287 29.377C99.6841 29.2521 99.6365 29.1283 99.5858 29.0058C99.535 28.8831 99.4814 28.7618 99.4248 28.6419C99.3682 28.5219 99.3087 28.4035 99.2461 28.2865C99.1837 28.1695 99.1184 28.054 99.0504 27.9402C98.9823 27.8264 98.9114 27.7143 98.8377 27.604C98.764 27.4937 98.6878 27.3852 98.6088 27.2786C98.5299 27.172 98.4484 27.0674 98.3643 26.9648C98.2803 26.8622 98.1937 26.7618 98.1045 26.6635C98.0155 26.5651 97.9242 26.469 97.8304 26.3752C97.7367 26.2814 97.6407 26.1899 97.5424 26.1007C97.4442 26.0116 97.3438 25.925 97.2413 25.8407C97.1389 25.7566 97.0344 25.675 96.9278 25.596C96.8213 25.5169 96.7129 25.4404 96.6027 25.3667C96.4925 25.293 96.3804 25.222 96.2666 25.1537C96.1528 25.0855 96.0376 25.0201 95.9206 24.9576C95.8036 24.895 95.6852 24.8353 95.5653 24.7786C95.4454 24.7218 95.3242 24.6681 95.2016 24.6173C95.0791 24.5665 94.9554 24.5188 94.8305 24.4741C94.7056 24.4294 94.5797 24.3877 94.4528 24.3492C94.3259 24.3107 94.1981 24.2753 94.0694 24.243C93.9408 24.2107 93.8114 24.1817 93.6813 24.1558C93.5512 24.1299 93.4205 24.1072 93.2893 24.0877C93.1581 24.0683 93.0265 24.052 92.8945 24.039C92.7625 24.026 92.6303 24.0162 92.4977 24.0097C92.3653 24.0032 92.2327 24 92.1 24C91.9674 24 91.8349 24.0032 91.7024 24.0097C91.5699 24.0162 91.4377 24.026 91.3056 24.039C91.1736 24.052 91.042 24.0683 90.9108 24.0877C90.7796 24.1072 90.649 24.1299 90.5188 24.1558C90.3887 24.1817 90.2594 24.2107 90.1307 24.243C90.0021 24.2753 89.8743 24.3107 89.7473 24.3492C89.6204 24.3877 89.4945 24.4294 89.3696 24.4741C89.2448 24.5188 89.121 24.5665 88.9985 24.6173C88.8759 24.6681 88.7547 24.7218 88.6348 24.7786C88.5149 24.8353 88.3965 24.895 88.2796 24.9576C88.1626 25.0201 88.0472 25.0855 87.9335 25.1537C87.8198 25.222 87.7078 25.293 87.5974 25.3667C87.4872 25.4404 87.3788 25.5169 87.2723 25.596C87.1658 25.675 87.0613 25.7566 86.9588 25.8407C86.8563 25.925 86.7559 26.0116 86.6577 26.1007C86.5595 26.1899 86.4635 26.2814 86.3697 26.3752C86.2759 26.469 86.1846 26.5651 86.0956 26.6635C86.0065 26.7618 85.92 26.8622 85.8359 26.9648C85.7518 27.0674 85.6703 27.172 85.5913 27.2786C85.5124 27.3852 85.4361 27.4937 85.3624 27.604C85.2888 27.7143 85.218 27.8264 85.1498 27.9402C85.0817 28.054 85.0164 28.1695 84.954 28.2865C84.8915 28.4035 84.832 28.5219 84.7753 28.6419C84.7187 28.7618 84.6651 28.8831 84.6144 29.0058C84.5637 29.1283 84.516 29.2521 84.4715 29.377C84.4269 29.5019 84.3854 29.6278 84.347 29.7548C84.3086 29.8818 84.2733 30.0096 84.2412 30.1383C84.2091 30.267 84.1801 30.3964 84.1543 30.5265C84.1286 30.6567 84.106 30.7873 84.0867 30.9185C84.0674 31.0497 84.0512 31.1814 84.0383 31.3134C84.0254 31.4455 84.0158 31.5777 84.0095 31.7102C84.0031 31.8427 83.9999 31.9752 84 32.1079Z"></path><path id="路径 7" fill-rule="evenodd" fill="url(#linear_10)" opacity="1" d="M84 32.1079C84 32.2405 84.0033 32.3729 84.0098 32.5053C84.0163 32.6377 84.026 32.7699 84.039 32.9018C84.052 33.0337 84.0683 33.1653 84.0878 33.2964C84.1072 33.4275 84.1298 33.5581 84.1557 33.6881C84.1815 33.8182 84.2106 33.9475 84.2428 34.0761C84.275 34.2046 84.3103 34.3323 84.3488 34.4592C84.3873 34.5861 84.4289 34.7119 84.4736 34.8367C84.5182 34.9615 84.5659 35.0852 84.6166 35.2076C84.6673 35.3301 84.7211 35.4513 84.7777 35.5711C84.8344 35.6909 84.894 35.8092 84.9565 35.9262C85.0189 36.0432 85.0843 36.1584 85.1525 36.2721C85.2206 36.3858 85.2915 36.4977 85.3651 36.6079C85.4388 36.7182 85.5151 36.8266 85.5941 36.933C85.673 37.0395 85.7545 37.144 85.8386 37.2465C85.9227 37.3489 86.0093 37.4493 86.0983 37.5475C86.1873 37.6457 86.2787 37.7416 86.3724 37.8354C86.4662 37.9292 86.5622 38.0206 86.6605 38.1096C86.7587 38.1986 86.859 38.2852 86.9615 38.3693C87.0639 38.4533 87.1684 38.5349 87.2749 38.6139C87.3814 38.6928 87.4897 38.7691 87.5999 38.8428C87.7101 38.9164 87.8221 38.9873 87.9358 39.0555C88.0495 39.1236 88.1648 39.1889 88.2817 39.2514C88.3987 39.314 88.517 39.3735 88.6368 39.4302C88.7566 39.4868 88.8778 39.5406 89.0003 39.5913C89.1228 39.6421 89.2464 39.6897 89.3712 39.7344C89.496 39.779 89.6219 39.8206 89.7488 39.8591C89.8756 39.8976 90.0033 39.933 90.1319 39.9651C90.2604 39.9973 90.3898 40.0264 90.5198 40.0522C90.6498 40.0781 90.7803 40.1008 90.9115 40.1202C91.0426 40.1397 91.1742 40.1559 91.3061 40.1689C91.438 40.1819 91.5702 40.1917 91.7026 40.1981C91.835 40.2046 91.9675 40.2079 92.1 40.2079C92.2326 40.2079 92.3651 40.2046 92.4975 40.1981C92.6299 40.1917 92.7621 40.1819 92.894 40.1689C93.0259 40.1559 93.1574 40.1397 93.2885 40.1202C93.4197 40.1008 93.5502 40.0781 93.6802 40.0522C93.8102 40.0264 93.9396 39.9973 94.0682 39.9651C94.1968 39.933 94.3245 39.8976 94.4513 39.8591C94.5782 39.8206 94.704 39.779 94.8288 39.7344C94.9537 39.6897 95.0773 39.6421 95.1997 39.5913C95.3222 39.5406 95.4434 39.4868 95.5632 39.4302C95.6831 39.3735 95.8014 39.314 95.9184 39.2514C96.0352 39.1889 96.1505 39.1236 96.2642 39.0555C96.3779 38.9873 96.4899 38.9164 96.6001 38.8428C96.7104 38.7691 96.8188 38.6928 96.9252 38.6139C97.0316 38.5349 97.1361 38.4533 97.2386 38.3693C97.3411 38.2852 97.4415 38.1986 97.5397 38.1096C97.6378 38.0206 97.7338 37.9292 97.8276 37.8354C97.9213 37.7416 98.0127 37.6457 98.1017 37.5475C98.1907 37.4493 98.2773 37.3489 98.3615 37.2465C98.4455 37.144 98.5271 37.0395 98.606 36.933C98.6851 36.8266 98.7613 36.7182 98.8349 36.6079C98.9086 36.4977 98.9795 36.3858 99.0477 36.2721C99.1158 36.1584 99.1811 36.0432 99.2436 35.9262C99.3062 35.8092 99.3657 35.6909 99.4224 35.5711C99.479 35.4513 99.5327 35.3301 99.5834 35.2076C99.6342 35.0852 99.6819 34.9615 99.7266 34.8367C99.7712 34.7119 99.8127 34.5861 99.8512 34.4592C99.8897 34.3323 99.9251 34.2046 99.9573 34.0761C99.9895 33.9475 100.019 33.8182 100.044 33.6881C100.07 33.5581 100.093 33.4275 100.112 33.2964C100.132 33.1653 100.148 33.0337 100.161 32.9018C100.174 32.7699 100.184 32.6377 100.19 32.5053C100.197 32.3729 100.2 32.2405 100.2 32.1079C100.2 31.9752 100.197 31.8427 100.191 31.7102C100.184 31.5777 100.175 31.4455 100.162 31.3134C100.149 31.1814 100.133 31.0497 100.113 30.9185C100.094 30.7873 100.072 30.6567 100.046 30.5265C100.02 30.3964 99.9911 30.267 99.9589 30.1383C99.9267 30.0096 99.8915 29.8818 99.8531 29.7548C99.8147 29.6278 99.7733 29.5019 99.7287 29.377C99.6841 29.2521 99.6365 29.1283 99.5858 29.0058C99.535 28.8831 99.4814 28.7618 99.4248 28.6419C99.3682 28.5219 99.3087 28.4035 99.2461 28.2865C99.1837 28.1695 99.1184 28.054 99.0504 27.9402C98.9823 27.8264 98.9114 27.7143 98.8377 27.604C98.764 27.4937 98.6878 27.3852 98.6088 27.2786C98.5299 27.172 98.4484 27.0674 98.3643 26.9648C98.2803 26.8622 98.1937 26.7618 98.1045 26.6635C98.0155 26.5651 97.9242 26.469 97.8304 26.3752C97.7367 26.2814 97.6407 26.1899 97.5424 26.1007C97.4442 26.0116 97.3438 25.925 97.2413 25.8407C97.1389 25.7566 97.0344 25.675 96.9278 25.596C96.8213 25.5169 96.7129 25.4404 96.6027 25.3667C96.4925 25.293 96.3804 25.222 96.2666 25.1537C96.1528 25.0855 96.0376 25.0201 95.9206 24.9576C95.8036 24.895 95.6852 24.8353 95.5653 24.7786C95.4454 24.7218 95.3242 24.6681 95.2016 24.6173C95.0791 24.5665 94.9554 24.5188 94.8305 24.4741C94.7056 24.4294 94.5797 24.3877 94.4528 24.3492C94.3259 24.3107 94.1981 24.2753 94.0694 24.243C93.9408 24.2107 93.8114 24.1817 93.6813 24.1558C93.5512 24.1299 93.4205 24.1072 93.2893 24.0877C93.1581 24.0683 93.0265 24.052 92.8945 24.039C92.7625 24.026 92.6303 24.0162 92.4977 24.0097C92.3653 24.0032 92.2327 24 92.1 24C91.9674 24 91.8349 24.0032 91.7024 24.0097C91.5699 24.0162 91.4377 24.026 91.3056 24.039C91.1736 24.052 91.042 24.0683 90.9108 24.0877C90.7796 24.1072 90.649 24.1299 90.5188 24.1558C90.3887 24.1817 90.2594 24.2107 90.1307 24.243C90.0021 24.2753 89.8743 24.3107 89.7473 24.3492C89.6204 24.3877 89.4945 24.4294 89.3696 24.4741C89.2448 24.5188 89.121 24.5665 88.9985 24.6173C88.8759 24.6681 88.7547 24.7218 88.6348 24.7786C88.5149 24.8353 88.3965 24.895 88.2796 24.9576C88.1626 25.0201 88.0472 25.0855 87.9335 25.1537C87.8198 25.222 87.7078 25.293 87.5974 25.3667C87.4872 25.4404 87.3788 25.5169 87.2723 25.596C87.1658 25.675 87.0613 25.7566 86.9588 25.8407C86.8563 25.925 86.7559 26.0116 86.6577 26.1007C86.5595 26.1899 86.4635 26.2814 86.3697 26.3752C86.2759 26.469 86.1846 26.5651 86.0956 26.6635C86.0065 26.7618 85.92 26.8622 85.8359 26.9648C85.7518 27.0674 85.6703 27.172 85.5913 27.2786C85.5124 27.3852 85.4361 27.4937 85.3624 27.604C85.2888 27.7143 85.218 27.8264 85.1498 27.9402C85.0817 28.054 85.0164 28.1695 84.954 28.2865C84.8915 28.4035 84.832 28.5219 84.7753 28.6419C84.7187 28.7618 84.6651 28.8831 84.6144 29.0058C84.5637 29.1283 84.516 29.2521 84.4715 29.377C84.4269 29.5019 84.3854 29.6278 84.347 29.7548C84.3086 29.8818 84.2733 30.0096 84.2412 30.1383C84.2091 30.267 84.1801 30.3964 84.1543 30.5265C84.1286 30.6567 84.106 30.7873 84.0867 30.9185C84.0674 31.0497 84.0512 31.1814 84.0383 31.3134C84.0254 31.4455 84.0158 31.5777 84.0095 31.7102C84.0031 31.8427 83.9999 31.9752 84 32.1079Z"></path></g></g><defs><rect id="path_0" x="0" y="0" width="108" height="108" rx="0" ry="0"/><linearGradient id="linear_0" x1="29.118961737139166%" y1="5.169204491319128%" x2="83.92308522781404%" y2="62.989477019684955%" gradientUnits="objectBoundingBox"><stop offset="0" stop-color="#E8F8FA" stop-opacity="0.9" /><stop offset="1" stop-color="#BADEF7" stop-opacity="1" /></linearGradient><linearGradient id="linear_1" x1="80.91957686781909%" y1="13.935026372865188%" x2="20.632592304429963%" y2="92.94617590615914%" gradientUnits="objectBoundingBox"><stop offset="0" stop-color="#57DDFF" stop-opacity="1" /><stop offset="1" stop-color="#1692F7" stop-opacity="1" /></linearGradient><rect id="path_1" x="0" y="0" width="57" height="57" rx="0" ry="0"/><linearGradient id="linear_2" x1="39.92810355118438%" y1="17.244%" x2="88.1786074780909%" y2="85.071%" gradientUnits="objectBoundingBox"><stop offset="0" stop-color="#D7F2FA" stop-opacity="0.18" /><stop offset="1" stop-color="#BFCDD9" stop-opacity="0.2" /></linearGradient><linearGradient id="linear_3" x1="39.92796770801272%" y1="17.244%" x2="88.1791224062532%" y2="85.071%" gradientUnits="objectBoundingBox"><stop offset="0" stop-color="#D7F2FA" stop-opacity="0.18" /><stop offset="1" stop-color="#BFCDD9" stop-opacity="0.2" /></linearGradient><linearGradient id="linear_4" x1="39.928053787245574%" y1="17.244%" x2="88.17879611365679%" y2="85.071%" gradientUnits="objectBoundingBox"><stop offset="0" stop-color="#D7F2FA" stop-opacity="0.18" /><stop offset="1" stop-color="#BFCDD9" stop-opacity="0.2" /></linearGradient><linearGradient id="linear_5" x1="39.92792986610295%" y1="17.244%" x2="88.17926585008492%" y2="85.071%" gradientUnits="objectBoundingBox"><stop offset="0" stop-color="#D7F2FA" stop-opacity="0.18" /><stop offset="1" stop-color="#BFCDD9" stop-opacity="0.2" /></linearGradient><linearGradient id="linear_6" x1="39.92810128015829%" y1="17.244%" x2="88.17861608665972%" y2="85.071%" gradientUnits="objectBoundingBox"><stop offset="0" stop-color="#D7F2FA" stop-opacity="0.18" /><stop offset="1" stop-color="#BFCDD9" stop-opacity="0.2" /></linearGradient><rect id="path_2" x="0" y="0" width="57" height="57" rx="0" ry="0"/><linearGradient id="linear_7" x1="29.11905771663619%" y1="5.169204491319128%" x2="83.92292930067016%" y2="62.989477019684955%" gradientUnits="objectBoundingBox"><stop offset="0" stop-color="#E8F8FA" stop-opacity="0.9" /><stop offset="1" stop-color="#BADEF7" stop-opacity="1" /></linearGradient><linearGradient id="linear_8" x1="39.92812725688872%" y1="17.244%" x2="88.17851761906726%" y2="85.071%" gradientUnits="objectBoundingBox"><stop offset="0" stop-color="#FAD7EA" stop-opacity="0.18" /><stop offset="1" stop-color="#D9BFCA" stop-opacity="0.2" /></linearGradient><linearGradient id="linear_9" x1="35.65084520079168%" y1="38.03640723644769%" x2="100.00065827697966%" y2="100.00013980735723%" gradientUnits="objectBoundingBox"><stop offset="0" stop-color="#FAEDF2" stop-opacity="0.96" /><stop offset="1" stop-color="#FCCFDD" stop-opacity="1" /></linearGradient><linearGradient id="linear_10" x1="80.92141853575988%" y1="13.935019482155228%" x2="20.632668130890533%" y2="92.94612994534626%" gradientUnits="objectBoundingBox"><stop offset="0" stop-color="#FF57A5" stop-opacity="1" /><stop offset="1" stop-color="#FC2828" stop-opacity="1" /></linearGradient></defs></svg>