<svg xmlns="http://www.w3.org/2000/svg" xmlns:xlink="http://www.w3.org/1999/xlink" width="200" height="200" viewBox="0 0 200 200" fill="none"><g opacity="1"  transform="translate(0 0)"><mask id="bg-mask-0" fill="white"><use transform="translate(0 0)" xlink:href="#path_0"></use></mask><g mask="url(#bg-mask-0)" ><path id="路径 1" fill-rule="evenodd" style="fill:#7ECAFC" opacity="1" d="M184.09 169.336L173.444 169.336C173.427 169.336 173.409 169.335 173.394 169.335C173.378 169.334 173.361 169.332 173.345 169.33C173.327 169.329 173.31 169.327 173.294 169.324C173.279 169.323 173.261 169.32 173.245 169.316C173.23 169.313 173.212 169.31 173.197 169.306C173.181 169.302 173.165 169.298 173.149 169.293C173.133 169.288 173.117 169.283 173.102 169.277C173.086 169.271 173.071 169.265 173.055 169.258C173.04 169.253 173.025 169.246 173.011 169.238C172.995 169.231 172.981 169.224 172.966 169.217C172.95 169.209 172.936 169.201 172.923 169.192C172.909 169.183 172.894 169.174 172.88 169.165C172.867 169.156 172.853 169.147 172.84 169.136C172.827 169.126 172.814 169.116 172.801 169.106C172.788 169.095 172.776 169.084 172.763 169.073C172.75 169.062 172.739 169.051 172.727 169.04C172.714 169.027 172.703 169.015 172.693 169.004C172.681 168.991 172.67 168.978 172.66 168.965C172.65 168.952 172.64 168.939 172.63 168.926C172.62 168.912 172.611 168.899 172.601 168.886C172.592 168.872 172.584 168.858 172.575 168.844C172.566 168.829 172.558 168.815 172.55 168.801C172.543 168.785 172.535 168.77 172.527 168.756C172.52 168.741 172.514 168.725 172.507 168.71C172.502 168.695 172.496 168.679 172.49 168.664C172.484 168.649 172.479 168.633 172.474 168.617C172.47 168.601 172.466 168.585 172.461 168.569C172.457 168.553 172.453 168.536 172.45 168.52C172.447 168.504 172.444 168.488 172.441 168.471C172.44 168.455 172.437 168.439 172.435 168.422C172.434 168.406 172.432 168.389 172.431 168.372C172.431 168.356 172.431 168.339 172.431 168.323C172.431 168.307 172.431 168.29 172.431 168.273C172.432 168.256 172.434 168.24 172.435 168.224C172.437 168.207 172.44 168.191 172.441 168.175C172.444 168.158 172.447 168.141 172.45 168.124C172.453 168.109 172.457 168.093 172.461 168.077C172.466 168.061 172.47 168.044 172.474 168.028C172.479 168.013 172.484 167.997 172.49 167.982C172.496 167.966 172.502 167.95 172.507 167.935C172.514 167.919 172.52 167.904 172.527 167.89C172.535 167.875 172.543 167.86 172.55 167.845C172.558 167.831 172.566 167.817 172.575 167.802C172.584 167.788 172.592 167.774 172.601 167.76C172.611 167.746 172.62 167.732 172.63 167.719C172.64 167.706 172.65 167.693 172.66 167.68C172.67 167.667 172.681 167.655 172.693 167.642C172.703 167.63 172.714 167.618 172.727 167.606C172.739 167.595 172.75 167.583 172.763 167.572C172.776 167.561 172.788 167.551 172.801 167.54C172.814 167.53 172.827 167.519 172.84 167.509C172.853 167.499 172.867 167.489 172.88 167.48C172.894 167.471 172.909 167.463 172.923 167.454C172.936 167.445 172.95 167.437 172.966 167.429C172.981 167.422 172.995 167.414 173.011 167.406C173.025 167.4 173.04 167.393 173.055 167.386C173.071 167.381 173.086 167.375 173.102 167.369C173.117 167.363 173.133 167.358 173.149 167.353C173.165 167.348 173.181 167.344 173.197 167.34C173.212 167.336 173.23 167.333 173.245 167.329C173.261 167.326 173.279 167.323 173.294 167.32C173.31 167.318 173.327 167.316 173.345 167.314C173.361 167.313 173.378 167.312 173.394 167.311C173.409 167.311 173.427 167.31 173.444 167.31L184.09 167.31C184.106 167.31 184.123 167.311 184.14 167.311C184.156 167.312 184.173 167.313 184.189 167.314C184.205 167.316 184.222 167.318 184.238 167.32C184.256 167.323 184.271 167.326 184.287 167.329C184.303 167.333 184.32 167.336 184.336 167.34C184.352 167.344 184.369 167.348 184.385 167.353C184.401 167.358 184.415 167.363 184.431 167.369C184.447 167.375 184.463 167.381 184.479 167.386C184.493 167.393 184.507 167.4 184.523 167.406C184.539 167.414 184.553 167.422 184.568 167.429C184.582 167.437 184.597 167.445 184.611 167.454C184.625 167.463 184.64 167.471 184.653 167.48C184.667 167.489 184.681 167.499 184.694 167.509C184.707 167.519 184.72 167.53 184.733 167.54C184.746 167.551 184.758 167.561 184.771 167.572C184.784 167.583 184.795 167.595 184.807 167.606C184.818 167.618 184.83 167.63 184.841 167.642C184.851 167.655 184.863 167.667 184.873 167.68C184.883 167.693 184.894 167.706 184.904 167.719C184.914 167.732 184.923 167.746 184.932 167.76C184.942 167.774 184.95 167.788 184.959 167.802C184.968 167.817 184.976 167.831 184.984 167.845C184.991 167.86 184.999 167.875 185.007 167.89C185.014 167.904 185.02 167.919 185.027 167.935C185.032 167.95 185.038 167.966 185.044 167.982C185.05 167.997 185.055 168.013 185.06 168.028C185.064 168.044 185.068 168.061 185.073 168.077C185.077 168.093 185.08 168.11 185.084 168.126C185.087 168.141 185.09 168.158 185.093 168.175C185.094 168.191 185.097 168.207 185.099 168.224C185.1 168.24 185.1 168.256 185.102 168.273C185.103 168.29 185.103 168.307 185.103 168.323C185.103 168.339 185.103 168.356 185.102 168.372C185.1 168.389 185.1 168.406 185.099 168.422C185.097 168.439 185.094 168.455 185.093 168.471C185.09 168.488 185.087 168.504 185.084 168.52C185.08 168.536 185.077 168.553 185.073 168.569C185.068 168.585 185.064 168.601 185.06 168.617C185.055 168.633 185.05 168.649 185.044 168.664C185.038 168.679 185.032 168.695 185.027 168.71C185.02 168.725 185.014 168.741 185.007 168.756C184.999 168.77 184.991 168.785 184.984 168.801C184.976 168.815 184.968 168.829 184.959 168.844C184.95 168.858 184.942 168.872 184.932 168.886C184.923 168.899 184.914 168.912 184.904 168.926C184.894 168.939 184.883 168.952 184.873 168.965C184.863 168.978 184.851 168.991 184.841 169.004C184.83 169.015 184.818 169.027 184.807 169.04C184.795 169.051 184.784 169.062 184.771 169.073C184.758 169.084 184.746 169.095 184.733 169.106C184.72 169.116 184.707 169.126 184.694 169.136C184.681 169.147 184.667 169.156 184.653 169.165C184.64 169.174 184.625 169.183 184.611 169.192C184.597 169.201 184.582 169.209 184.568 169.217C184.553 169.224 184.539 169.231 184.523 169.238C184.507 169.246 184.493 169.253 184.479 169.258C184.463 169.265 184.447 169.271 184.431 169.277C184.415 169.283 184.399 169.288 184.384 169.293C184.368 169.298 184.352 169.302 184.336 169.306C184.32 169.31 184.303 169.313 184.287 169.316C184.271 169.32 184.256 169.323 184.238 169.324C184.222 169.327 184.205 169.329 184.189 169.33C184.173 169.332 184.156 169.334 184.14 169.335C184.123 169.335 184.106 169.336 184.09 169.336ZM165.7 169.336L24.0735 169.336C24.0569 169.336 24.0404 169.335 24.0238 169.335C24.0073 169.334 23.9907 169.332 23.9742 169.33C23.9577 169.329 23.9413 169.327 23.9249 169.324C23.9085 169.323 23.8922 169.32 23.8759 169.316C23.8596 169.313 23.8435 169.31 23.8274 169.306C23.8113 169.302 23.7954 169.298 23.7795 169.293C23.7636 169.288 23.7478 169.283 23.7322 169.277C23.7167 169.271 23.7012 169.265 23.6859 169.258C23.6705 169.253 23.6554 169.246 23.6404 169.238C23.6254 169.231 23.6106 169.224 23.5959 169.217C23.5814 169.209 23.567 169.201 23.5528 169.192C23.5386 169.183 23.5246 169.174 23.5108 169.165C23.4969 169.156 23.4834 169.147 23.47 169.136C23.4567 169.126 23.4437 169.116 23.4309 169.106C23.418 169.095 23.4055 169.084 23.3932 169.073C23.3809 169.062 23.3689 169.051 23.3572 169.04C23.3455 169.027 23.3341 169.015 23.323 169.004C23.3119 168.991 23.301 168.978 23.2905 168.965C23.2799 168.952 23.2697 168.939 23.2598 168.926C23.2499 168.912 23.2404 168.899 23.2312 168.886C23.222 168.872 23.2132 168.858 23.2047 168.844C23.1962 168.829 23.188 168.815 23.1801 168.801C23.1723 168.785 23.1649 168.77 23.1578 168.756C23.1507 168.741 23.144 168.725 23.1377 168.71C23.1313 168.695 23.1253 168.679 23.1197 168.664C23.1141 168.649 23.1089 168.633 23.1041 168.617C23.0993 168.601 23.0949 168.585 23.0909 168.569C23.0869 168.553 23.0832 168.536 23.08 168.52C23.0767 168.504 23.0739 168.488 23.0715 168.471C23.0691 168.455 23.0671 168.439 23.0654 168.422C23.0638 168.406 23.0626 168.389 23.0617 168.372C23.0609 168.356 23.0605 168.339 23.0605 168.323C23.0605 168.307 23.0609 168.29 23.0617 168.273C23.0626 168.256 23.0638 168.24 23.0654 168.224C23.0671 168.207 23.0691 168.191 23.0715 168.175C23.0739 168.158 23.0767 168.141 23.08 168.124C23.0832 168.109 23.0869 168.093 23.0909 168.077C23.0949 168.061 23.0993 168.044 23.1041 168.028C23.1089 168.013 23.1141 167.997 23.1197 167.982C23.1253 167.966 23.1313 167.95 23.1377 167.935C23.144 167.919 23.1507 167.904 23.1578 167.89C23.1649 167.875 23.1723 167.86 23.1801 167.845C23.188 167.831 23.1962 167.817 23.2047 167.802C23.2132 167.788 23.222 167.774 23.2312 167.76C23.2404 167.746 23.2499 167.732 23.2598 167.719C23.2697 167.706 23.2799 167.693 23.2905 167.68C23.301 167.667 23.3119 167.655 23.323 167.642C23.3341 167.63 23.3455 167.618 23.3572 167.606C23.3689 167.595 23.3809 167.583 23.3932 167.572C23.4055 167.561 23.418 167.551 23.4309 167.54C23.4437 167.53 23.4567 167.519 23.47 167.509C23.4834 167.499 23.4969 167.489 23.5108 167.48C23.5246 167.471 23.5386 167.463 23.5528 167.454C23.567 167.445 23.5814 167.437 23.5959 167.429C23.6106 167.422 23.6254 167.414 23.6404 167.406C23.6554 167.4 23.6705 167.393 23.6859 167.386C23.7012 167.381 23.7167 167.375 23.7322 167.369C23.7478 167.363 23.7636 167.358 23.7795 167.353C23.7954 167.348 23.8113 167.344 23.8274 167.34C23.8435 167.336 23.8596 167.333 23.8759 167.329C23.8922 167.326 23.9085 167.323 23.9249 167.32C23.9413 167.318 23.9577 167.316 23.9742 167.314C23.9907 167.313 24.0073 167.312 24.0238 167.311C24.0404 167.311 24.0569 167.31 24.0735 167.31L165.7 167.31C165.716 167.31 165.733 167.311 165.75 167.311C165.766 167.312 165.784 167.313 165.799 167.314C165.815 167.316 165.832 167.318 165.848 167.32C165.864 167.323 165.881 167.326 165.897 167.329C165.913 167.333 165.93 167.336 165.946 167.34C165.962 167.344 165.978 167.348 165.994 167.353C166.009 167.358 166.025 167.363 166.041 167.369C166.057 167.375 166.073 167.381 166.087 167.386C166.103 167.393 166.117 167.4 166.133 167.406C166.149 167.414 166.163 167.422 166.178 167.429C166.192 167.437 166.207 167.445 166.221 167.454C166.235 167.463 166.25 167.471 166.263 167.48C166.277 167.489 166.29 167.499 166.303 167.509C166.316 167.519 166.33 167.53 166.343 167.54C166.356 167.551 166.368 167.561 166.381 167.572C166.394 167.583 166.405 167.595 166.417 167.606C166.428 167.618 166.44 167.63 166.451 167.642C166.461 167.655 166.473 167.667 166.483 167.68C166.493 167.693 166.504 167.706 166.514 167.719C166.525 167.732 166.533 167.746 166.542 167.76C166.552 167.774 166.561 167.788 166.569 167.802C166.578 167.817 166.586 167.831 166.594 167.845C166.601 167.86 166.608 167.875 166.615 167.89C166.622 167.904 166.63 167.919 166.635 167.935C166.643 167.95 166.648 167.966 166.654 167.982C166.66 167.997 166.666 168.013 166.67 168.028C166.674 168.044 166.679 168.061 166.683 168.077C166.687 168.093 166.69 168.11 166.694 168.126C166.697 168.141 166.7 168.158 166.702 168.175C166.704 168.191 166.707 168.207 166.709 168.224C166.71 168.24 166.71 168.256 166.712 168.273C166.713 168.29 166.713 168.307 166.713 168.323C166.713 168.339 166.713 168.356 166.712 168.372C166.71 168.389 166.71 168.406 166.709 168.422C166.707 168.439 166.704 168.455 166.702 168.471C166.7 168.488 166.697 168.504 166.694 168.52C166.69 168.536 166.687 168.553 166.683 168.569C166.679 168.585 166.674 168.601 166.67 168.617C166.666 168.633 166.66 168.649 166.654 168.664C166.648 168.679 166.643 168.695 166.635 168.71C166.63 168.725 166.622 168.741 166.615 168.756C166.608 168.77 166.601 168.785 166.594 168.801C166.586 168.815 166.578 168.829 166.569 168.844C166.561 168.858 166.552 168.872 166.542 168.886C166.533 168.899 166.525 168.912 166.514 168.926C166.504 168.939 166.493 168.952 166.483 168.965C166.473 168.978 166.461 168.991 166.451 169.004C166.44 169.015 166.428 169.027 166.417 169.04C166.405 169.051 166.394 169.062 166.381 169.073C166.368 169.084 166.356 169.095 166.343 169.106C166.33 169.116 166.316 169.126 166.303 169.136C166.29 169.147 166.277 169.156 166.263 169.165C166.25 169.174 166.235 169.183 166.221 169.192C166.207 169.201 166.192 169.209 166.178 169.217C166.163 169.224 166.149 169.231 166.133 169.238C166.117 169.246 166.103 169.253 166.087 169.258C166.073 169.265 166.057 169.271 166.041 169.277C166.025 169.283 166.009 169.288 165.994 169.293C165.978 169.298 165.962 169.302 165.946 169.306C165.93 169.31 165.913 169.313 165.897 169.316C165.881 169.32 165.864 169.323 165.848 169.324C165.832 169.327 165.815 169.329 165.799 169.33C165.784 169.332 165.766 169.334 165.75 169.335C165.733 169.335 165.716 169.336 165.7 169.336ZM19.4574 169.336L16.0325 169.336C16.0159 169.336 15.9993 169.335 15.9828 169.335C15.9662 169.334 15.9497 169.332 15.9332 169.33C15.9167 169.329 15.9003 169.327 15.8838 169.324C15.8674 169.323 15.8511 169.32 15.8348 169.316C15.8186 169.313 15.8024 169.31 15.7863 169.306C15.7703 169.302 15.7543 169.298 15.7384 169.293C15.7226 169.288 15.7068 169.283 15.6912 169.277C15.6756 169.271 15.6601 169.265 15.6449 169.258C15.6295 169.253 15.6144 169.246 15.5994 169.238C15.5844 169.231 15.5696 169.224 15.5549 169.217C15.5403 169.209 15.526 169.201 15.5118 169.192C15.4975 169.183 15.4835 169.174 15.4697 169.165C15.4559 169.156 15.4424 169.147 15.429 169.136C15.4157 169.126 15.4026 169.116 15.3899 169.106C15.377 169.095 15.3645 169.084 15.3522 169.073C15.3399 169.062 15.3279 169.051 15.3162 169.04C15.3045 169.027 15.2931 169.015 15.2818 169.004C15.2707 168.991 15.2599 168.978 15.2495 168.965C15.2389 168.952 15.2287 168.939 15.2188 168.926C15.2089 168.912 15.1994 168.899 15.1902 168.886C15.181 168.872 15.1721 168.858 15.1636 168.844C15.155 168.829 15.1469 168.815 15.1391 168.801C15.1313 168.785 15.1239 168.77 15.1168 168.756C15.1097 168.741 15.103 168.725 15.0967 168.71C15.0902 168.695 15.0842 168.679 15.0787 168.664C15.0731 168.649 15.0679 168.633 15.0631 168.617C15.0583 168.601 15.0539 168.585 15.0499 168.569C15.0459 168.553 15.0422 168.536 15.039 168.52C15.0357 168.504 15.0329 168.488 15.0305 168.471C15.0281 168.455 15.0261 168.439 15.0244 168.422C15.0228 168.406 15.0215 168.389 15.0207 168.372C15.0199 168.356 15.0195 168.339 15.0195 168.323C15.0195 168.307 15.0199 168.29 15.0207 168.273C15.0215 168.256 15.0228 168.24 15.0244 168.224C15.0261 168.207 15.0281 168.191 15.0305 168.175C15.0329 168.158 15.0357 168.141 15.039 168.124C15.0422 168.109 15.0459 168.093 15.0499 168.077C15.0539 168.061 15.0583 168.044 15.0631 168.028C15.0679 168.013 15.0731 167.997 15.0787 167.982C15.0842 167.966 15.0902 167.95 15.0967 167.935C15.103 167.919 15.1097 167.904 15.1168 167.89C15.1239 167.875 15.1313 167.86 15.1391 167.845C15.1469 167.831 15.155 167.817 15.1636 167.802C15.1721 167.788 15.181 167.774 15.1902 167.76C15.1994 167.746 15.2089 167.732 15.2188 167.719C15.2287 167.706 15.2389 167.693 15.2495 167.68C15.2599 167.667 15.2707 167.655 15.2818 167.642C15.2931 167.63 15.3045 167.618 15.3162 167.606C15.3279 167.595 15.3399 167.583 15.3522 167.572C15.3645 167.561 15.377 167.551 15.3899 167.54C15.4026 167.53 15.4157 167.519 15.429 167.509C15.4424 167.499 15.4559 167.489 15.4697 167.48C15.4835 167.471 15.4975 167.463 15.5118 167.454C15.526 167.445 15.5403 167.437 15.5549 167.429C15.5696 167.422 15.5844 167.414 15.5994 167.406C15.6144 167.4 15.6295 167.393 15.6449 167.386C15.6601 167.381 15.6756 167.375 15.6912 167.369C15.7068 167.363 15.7226 167.358 15.7384 167.353C15.7543 167.348 15.7703 167.344 15.7863 167.34C15.8024 167.336 15.8186 167.333 15.8348 167.329C15.8511 167.326 15.8674 167.323 15.8838 167.32C15.9003 167.318 15.9167 167.316 15.9332 167.314C15.9497 167.313 15.9662 167.312 15.9828 167.311C15.9993 167.311 16.0159 167.31 16.0325 167.31L19.4574 167.31C19.474 167.31 19.4906 167.311 19.5072 167.311C19.5237 167.312 19.5401 167.313 19.5567 167.314C19.5732 167.316 19.5896 167.318 19.606 167.32C19.6224 167.323 19.6388 167.326 19.6551 167.329C19.6713 167.333 19.6874 167.336 19.7036 167.34C19.7197 167.344 19.7356 167.348 19.7515 167.353C19.7673 167.358 19.783 167.363 19.7987 167.369C19.8143 167.375 19.8298 167.381 19.8451 167.386C19.8604 167.393 19.8755 167.4 19.8905 167.406C19.9055 167.414 19.9204 167.422 19.9349 167.429C19.9496 167.437 19.964 167.445 19.9782 167.454C19.9924 167.463 20.0064 167.471 20.0203 167.48C20.034 167.489 20.0475 167.499 20.0608 167.509C20.0742 167.519 20.0873 167.53 20.1001 167.54C20.1129 167.551 20.1254 167.561 20.1377 167.572C20.1499 167.583 20.162 167.595 20.1738 167.606C20.1855 167.618 20.1969 167.63 20.208 167.642C20.2191 167.655 20.23 167.667 20.2405 167.68C20.251 167.693 20.2612 167.706 20.271 167.719C20.2809 167.732 20.2905 167.746 20.2997 167.76C20.3089 167.774 20.3178 167.788 20.3263 167.802C20.3348 167.817 20.343 167.831 20.3508 167.845C20.3586 167.86 20.3661 167.875 20.3732 167.89C20.3803 167.904 20.387 167.919 20.3933 167.935C20.3997 167.95 20.4056 167.966 20.4112 167.982C20.4168 167.997 20.422 168.013 20.4269 168.028C20.4317 168.044 20.4361 168.061 20.4401 168.077C20.4441 168.093 20.4477 168.11 20.4509 168.126C20.4542 168.141 20.457 168.158 20.4594 168.175C20.4619 168.191 20.4639 168.207 20.4656 168.224C20.4672 168.24 20.4684 168.256 20.4692 168.273C20.47 168.29 20.4705 168.307 20.4705 168.323C20.4705 168.339 20.47 168.356 20.4692 168.372C20.4684 168.389 20.4672 168.406 20.4656 168.422C20.4639 168.439 20.4619 168.455 20.4594 168.471C20.457 168.488 20.4542 168.504 20.4509 168.52C20.4477 168.536 20.4441 168.553 20.4401 168.569C20.4361 168.585 20.4317 168.601 20.4269 168.617C20.422 168.633 20.4168 168.649 20.4112 168.664C20.4056 168.679 20.3997 168.695 20.3933 168.71C20.387 168.725 20.3803 168.741 20.3732 168.756C20.3661 168.77 20.3586 168.785 20.3508 168.801C20.343 168.815 20.3348 168.829 20.3263 168.844C20.3178 168.858 20.3089 168.872 20.2997 168.886C20.2905 168.899 20.2809 168.912 20.271 168.926C20.2612 168.939 20.251 168.952 20.2405 168.965C20.23 168.978 20.2191 168.991 20.208 169.004C20.1969 169.015 20.1855 169.027 20.1738 169.04C20.162 169.051 20.1499 169.062 20.1377 169.073C20.1254 169.084 20.1129 169.095 20.1001 169.106C20.0873 169.116 20.0742 169.126 20.0608 169.136C20.0475 169.147 20.034 169.156 20.0203 169.165C20.0064 169.174 19.9924 169.183 19.9782 169.192C19.964 169.201 19.9496 169.209 19.9349 169.217C19.9204 169.224 19.9055 169.231 19.8905 169.238C19.8755 169.246 19.8604 169.253 19.8451 169.258C19.8298 169.265 19.8143 169.271 19.7987 169.277C19.783 169.283 19.7673 169.288 19.7515 169.293C19.7356 169.298 19.7197 169.302 19.7036 169.306C19.6874 169.31 19.6713 169.313 19.6551 169.316C19.6388 169.32 19.6224 169.323 19.606 169.324C19.5896 169.327 19.5732 169.329 19.5567 169.33C19.5401 169.332 19.5237 169.334 19.5072 169.335C19.4906 169.335 19.474 169.336 19.4574 169.336Z"></path><path id="路径 2" fill-rule="evenodd" style="fill:#CCCCCC" opacity="1" d="M18.0638 89.0106C17.9632 87.8853 16.9693 87.0546 15.8441 87.1554C15.778 87.1626 15.7124 87.1729 15.6473 87.1863C15.5821 87.1997 15.5178 87.2162 15.4543 87.2357C15.3907 87.2551 15.3282 87.2777 15.2668 87.3031C15.2054 87.3286 15.1453 87.3568 15.0865 87.3879C15.0278 87.4191 14.9707 87.4529 14.9152 87.4895C14.8596 87.526 14.8059 87.5652 14.754 87.6067C14.7022 87.6483 14.6525 87.6923 14.6048 87.7387C14.5571 87.785 14.5118 87.8335 14.4687 87.8841C14.4255 87.9349 14.3851 87.9877 14.3473 88.0426C14.3095 88.0974 14.2746 88.1539 14.2426 88.2123C14.2105 88.2706 14.1815 88.3305 14.1555 88.3918C14.1296 88.4532 14.1068 88.5157 14.0872 88.5793C14.0676 88.643 14.0512 88.7075 14.0382 88.7726C14.0251 88.838 14.0154 88.9037 14.009 88.97C14.0026 89.0364 13.9997 89.1027 14 89.1693C14.0004 89.2359 14.0042 89.3024 14.0113 89.3686C14.0188 89.4349 14.0294 89.5007 14.0432 89.5659C14.057 89.6312 14.0738 89.6957 14.0937 89.7594C14.1137 89.823 14.1366 89.8856 14.1624 89.9472C14.1883 90.0086 14.217 90.0687 14.2486 90.1275C14.2802 90.1863 14.3145 90.2434 14.3516 90.2988C14.3886 90.3544 14.4282 90.408 14.4703 90.4597C14.5125 90.5113 14.557 90.561 14.6038 90.6085C14.6507 90.6559 14.6997 90.7011 14.7509 90.744C14.7947 90.7836 14.8403 90.8211 14.8877 90.8565C14.935 90.8918 14.9839 90.9249 15.0343 90.9557C15.0848 90.9863 15.1366 91.0146 15.1897 91.0405C15.2428 91.0664 15.297 91.0898 15.3523 91.1106C15.4076 91.1313 15.4638 91.1495 15.5208 91.165C15.5779 91.1804 15.6355 91.1932 15.6937 91.2033C15.752 91.2133 15.8105 91.2207 15.8694 91.2252C15.9283 91.2298 15.9873 91.2315 16.0464 91.2305L16.2084 91.2305C17.3334 91.1298 18.1642 90.1358 18.0638 89.0106ZM16.8173 90.6518C16.7811 90.6706 16.7442 90.6882 16.7068 90.7043C16.6693 90.7206 16.6313 90.7352 16.5927 90.7486C16.5542 90.762 16.5152 90.7739 16.4757 90.7844C16.4362 90.7949 16.3964 90.8039 16.3563 90.8113C16.3162 90.819 16.2759 90.825 16.2353 90.8296C16.1947 90.8341 16.1541 90.8372 16.1133 90.8388C16.0725 90.8404 16.0318 90.8404 15.991 90.839C15.9502 90.8375 15.9096 90.8345 15.869 90.83C15.8284 90.8256 15.788 90.8197 15.7478 90.8123C15.7077 90.8049 15.6679 90.7959 15.6284 90.7856C15.589 90.7752 15.5499 90.7634 15.5113 90.7502C15.4727 90.737 15.4347 90.7223 15.3972 90.7063C15.3597 90.6902 15.3228 90.6728 15.2865 90.6541C15.2503 90.6352 15.2148 90.6152 15.1801 90.5938C15.1452 90.5723 15.1113 90.5498 15.0782 90.5259C15.0451 90.5018 15.013 90.4768 14.9818 90.4505C14.9389 90.4171 14.8979 90.3814 14.8588 90.3436C14.8197 90.3057 14.7828 90.2659 14.748 90.224C14.7133 90.1821 14.6808 90.1385 14.6507 90.0932C14.6206 90.0479 14.593 90.0011 14.5678 89.9528C14.5428 89.9046 14.5204 89.8551 14.5006 89.8043C14.4809 89.7536 14.4639 89.702 14.4496 89.6495C14.4354 89.597 14.424 89.5439 14.4155 89.4902C14.407 89.4364 14.4015 89.3823 14.3988 89.328C14.3934 89.2736 14.3907 89.2191 14.3907 89.1644C14.3907 89.1098 14.3934 89.0552 14.3988 89.0008C14.4042 88.9464 14.4123 88.8925 14.4231 88.8388C14.4338 88.7852 14.4472 88.7322 14.4631 88.68C14.4791 88.6277 14.4976 88.5764 14.5186 88.5259C14.5397 88.4755 14.5632 88.4263 14.5891 88.3781C14.615 88.3299 14.6432 88.2831 14.6737 88.2378C14.7042 88.1925 14.7369 88.1489 14.7719 88.1067C14.8054 88.0637 14.8412 88.0227 14.8791 87.9836C14.917 87.9444 14.957 87.9075 14.9991 87.8726C15.041 87.8378 15.0847 87.8053 15.1301 87.7752C15.1756 87.745 15.2225 87.7174 15.2709 87.6923C15.3193 87.6672 15.3689 87.6447 15.4198 87.625C15.4706 87.6053 15.5223 87.5883 15.5749 87.5741C15.6275 87.5598 15.6808 87.5486 15.7347 87.5401C15.7885 87.5316 15.8427 87.5262 15.8972 87.5234L16.0458 87.5234C16.0715 87.5233 16.0972 87.5236 16.1228 87.5246C16.1484 87.5256 16.174 87.527 16.1996 87.5292C16.2252 87.5313 16.2506 87.5342 16.276 87.5375C16.3015 87.5408 16.3268 87.5449 16.352 87.5493C16.3773 87.5539 16.4025 87.5591 16.4274 87.5647C16.4524 87.5705 16.4773 87.5768 16.5021 87.5836C16.5267 87.5905 16.5512 87.598 16.5756 87.606C16.6 87.6139 16.6241 87.6226 16.6481 87.6318C16.6721 87.6408 16.6958 87.6506 16.7193 87.6608C16.7428 87.6711 16.7661 87.6818 16.7891 87.6932C16.8121 87.7046 16.8349 87.7165 16.8573 87.7289C16.8798 87.7413 16.9019 87.7542 16.9238 87.7676C16.9456 87.781 16.9671 87.7949 16.9883 87.8095C17.0095 87.824 17.0303 87.8388 17.0508 87.8542C17.0714 87.8696 17.0915 87.8856 17.1113 87.902C17.1311 87.9182 17.1504 87.9351 17.1693 87.9523C17.1883 87.9696 17.2068 87.9873 17.2249 88.0054C17.2431 88.0236 17.2608 88.0421 17.278 88.0611C17.2954 88.0801 17.3122 88.0995 17.3285 88.1192C17.3449 88.139 17.3609 88.1591 17.3763 88.1795C17.3918 88.2001 17.4067 88.221 17.4211 88.2421C17.4356 88.2633 17.4495 88.2847 17.4629 88.3066C17.4765 88.3285 17.4894 88.3506 17.5018 88.3731C17.5143 88.3955 17.5262 88.4182 17.5375 88.4413C17.5488 88.4641 17.5596 88.4875 17.5698 88.5109C17.5801 88.5344 17.5898 88.5581 17.5991 88.5821C17.6083 88.6062 17.6168 88.6303 17.6248 88.6546C17.6329 88.679 17.6403 88.7036 17.6473 88.7282C17.6542 88.7529 17.6604 88.7778 17.6661 88.8028C17.6719 88.8277 17.677 88.8529 17.6816 88.8782C17.6862 88.9034 17.6901 88.9287 17.6934 88.9542C17.6968 88.9797 17.6996 89.0051 17.7018 89.0306C17.7054 89.0713 17.7076 89.1121 17.7084 89.1529C17.7091 89.1936 17.7083 89.2345 17.706 89.2752C17.7037 89.3159 17.6998 89.3567 17.6944 89.3971C17.6892 89.4375 17.6824 89.4778 17.674 89.5177C17.6658 89.5577 17.656 89.5972 17.6448 89.6365C17.6336 89.6758 17.621 89.7145 17.607 89.7529C17.5929 89.7912 17.5774 89.8289 17.5605 89.8662C17.5437 89.9033 17.5255 89.9398 17.506 89.9757C17.4864 90.0115 17.4655 90.0466 17.4434 90.0808C17.4212 90.1152 17.3979 90.1486 17.3733 90.1811C17.3486 90.2138 17.3228 90.2453 17.2959 90.2759C17.269 90.3066 17.241 90.3362 17.2119 90.3649C17.1827 90.3935 17.1525 90.421 17.1214 90.4473C17.0903 90.4736 17.0582 90.4988 17.0251 90.5229C16.9921 90.5469 16.9582 90.5698 16.9235 90.5912C16.8889 90.6126 16.8535 90.6329 16.8173 90.6518ZM176.387 38.1695C176.247 36.6125 174.873 35.4631 173.317 35.6024C173.224 35.6124 173.134 35.6266 173.043 35.6451C172.953 35.6637 172.865 35.6865 172.777 35.7135C172.689 35.7404 172.603 35.7715 172.518 35.8067C172.433 35.8419 172.35 35.881 172.268 35.9241C172.187 35.9672 172.108 36.014 172.03 36.0646C171.954 36.1151 171.879 36.1692 171.809 36.2268C171.737 36.2844 171.668 36.3453 171.601 36.4095C171.535 36.4735 171.472 36.5406 171.413 36.6108C171.383 36.6459 171.354 36.6817 171.327 36.7181C171.299 36.7546 171.272 36.7919 171.245 36.8298C171.219 36.8676 171.194 36.9062 171.17 36.9454C171.145 36.9846 171.122 37.0243 171.101 37.0647C171.079 37.1051 171.058 37.146 171.037 37.1875C171.017 37.2289 170.999 37.2708 170.98 37.3132C170.961 37.3556 170.945 37.3984 170.929 37.4416C170.914 37.4848 170.898 37.5285 170.885 37.5725C170.872 37.6165 170.859 37.6608 170.847 37.7054C170.837 37.75 170.827 37.7949 170.817 37.8401C170.809 37.8853 170.801 37.9306 170.794 37.9761C170.787 38.0217 170.781 38.0674 170.777 38.1132C170.773 38.1591 170.768 38.205 170.767 38.2509C170.765 38.297 170.764 38.343 170.764 38.389C170.765 38.4351 170.767 38.4811 170.768 38.527C170.771 38.573 170.776 38.6188 170.78 38.6646C170.79 38.7564 170.806 38.8474 170.824 38.9377C170.843 39.028 170.866 39.1172 170.894 39.2053C170.921 39.2935 170.954 39.3801 170.99 39.4651C171.026 39.5502 171.065 39.6334 171.108 39.7146C171.153 39.796 171.2 39.875 171.25 39.9518C171.302 40.0285 171.357 40.1027 171.416 40.1742C171.473 40.2458 171.535 40.3144 171.6 40.3801C171.665 40.4458 171.734 40.5083 171.804 40.5675C171.865 40.6223 171.928 40.6742 171.993 40.7231C172.058 40.7721 172.125 40.8178 172.196 40.8604C172.266 40.9029 172.337 40.9421 172.41 40.978C172.483 41.0137 172.56 41.046 172.636 41.0748C172.712 41.1036 172.79 41.1286 172.869 41.15C172.948 41.1714 173.027 41.1891 173.108 41.2031C173.188 41.217 173.269 41.2272 173.351 41.2335C173.433 41.2397 173.514 41.2422 173.596 41.2408L173.82 41.2408C175.377 41.1018 176.527 39.7266 176.387 38.1695ZM174.663 40.4403C174.639 40.4533 174.613 40.4659 174.587 40.4781C174.561 40.4902 174.535 40.5018 174.509 40.5131C174.483 40.5242 174.458 40.5349 174.432 40.5452C174.406 40.5553 174.38 40.565 174.353 40.5744C174.325 40.5836 174.299 40.5923 174.272 40.6005C174.245 40.6088 174.217 40.6165 174.19 40.6237C174.163 40.631 174.135 40.6378 174.108 40.644C174.081 40.6502 174.052 40.6559 174.024 40.6611C173.997 40.6664 173.968 40.6711 173.941 40.6752C173.914 40.6794 173.885 40.6831 173.858 40.6863C173.83 40.6895 173.801 40.6921 173.773 40.6942C173.745 40.6963 173.717 40.698 173.689 40.6991C173.66 40.7002 173.632 40.7007 173.604 40.7007C173.576 40.7008 173.547 40.7003 173.519 40.6992C173.492 40.6983 173.463 40.6968 173.435 40.6948C173.407 40.6927 173.378 40.6901 173.351 40.687C173.322 40.684 173.294 40.6804 173.266 40.6762C173.239 40.6722 173.21 40.6676 173.183 40.6624C173.155 40.6572 173.128 40.6516 173.101 40.6454C173.073 40.6393 173.045 40.6326 173.017 40.6254C172.99 40.6183 172.964 40.6107 172.937 40.6024C172.909 40.5943 172.883 40.5856 172.856 40.5765C172.829 40.5673 172.803 40.5577 172.776 40.5476C172.75 40.5374 172.724 40.5268 172.698 40.5157C172.672 40.5045 172.646 40.493 172.62 40.481C172.596 40.4689 172.57 40.4564 172.545 40.4434C172.519 40.4304 172.495 40.417 172.471 40.4031C172.446 40.3892 172.422 40.3748 172.397 40.36C172.373 40.3452 172.35 40.33 172.327 40.3144C172.302 40.2986 172.279 40.2825 172.256 40.266C172.233 40.2495 172.21 40.2326 172.188 40.2152C172.167 40.1979 172.144 40.1801 172.122 40.1618C172.094 40.1387 172.065 40.1148 172.036 40.0902C172.007 40.0654 171.98 40.04 171.953 40.0138C171.925 39.9877 171.899 39.9608 171.873 39.9332C171.849 39.9056 171.824 39.8773 171.8 39.8485C171.776 39.8195 171.753 39.7899 171.729 39.7598C171.708 39.7296 171.686 39.6989 171.665 39.6676C171.643 39.6362 171.623 39.6043 171.604 39.5719C171.586 39.5395 171.567 39.5066 171.55 39.4732C171.532 39.4398 171.517 39.406 171.501 39.3718C171.485 39.3375 171.471 39.3029 171.458 39.2679C171.443 39.2328 171.43 39.1974 171.419 39.1617C171.407 39.1259 171.397 39.0899 171.387 39.0536C171.377 39.0173 171.367 38.9807 171.36 38.944C171.353 38.9072 171.345 38.8702 171.34 38.8331C171.334 38.7959 171.329 38.7586 171.325 38.7211C171.321 38.6837 171.318 38.6463 171.317 38.6087C171.309 38.5335 171.305 38.458 171.305 38.3823C171.305 38.3067 171.309 38.2312 171.317 38.1559C171.324 38.0806 171.335 38.0059 171.35 37.9318C171.364 37.8576 171.383 37.7844 171.406 37.7121C171.427 37.6397 171.453 37.5686 171.482 37.4988C171.511 37.429 171.544 37.3608 171.58 37.2942C171.616 37.2276 171.655 37.1629 171.696 37.1001C171.738 37.0374 171.784 36.9769 171.832 36.9187C171.856 36.8889 171.879 36.8599 171.904 36.8315C171.928 36.8031 171.954 36.7754 171.981 36.7483C172.007 36.7213 172.035 36.6949 172.062 36.6693C172.089 36.6437 172.118 36.6189 172.147 36.5948C172.176 36.5707 172.206 36.5475 172.236 36.525C172.266 36.5025 172.296 36.4808 172.328 36.46C172.36 36.4392 172.391 36.4192 172.424 36.4001C172.456 36.381 172.489 36.3627 172.522 36.3454C172.555 36.3281 172.59 36.3116 172.624 36.2961C172.659 36.2806 172.694 36.266 172.728 36.2523C172.764 36.2387 172.799 36.226 172.835 36.2142C172.87 36.2025 172.908 36.1917 172.944 36.1819C172.98 36.172 173.017 36.1632 173.053 36.1554C173.091 36.1475 173.128 36.1407 173.164 36.1348C173.201 36.1289 173.239 36.1241 173.276 36.1202C173.314 36.1164 173.351 36.1135 173.39 36.1117L173.596 36.1117C174.787 36.101 175.786 37.0098 175.886 38.1972C175.889 38.2253 175.891 38.2535 175.892 38.2817C175.894 38.3098 175.895 38.338 175.895 38.3663C175.896 38.3945 175.896 38.4227 175.895 38.4509C175.895 38.4791 175.894 38.5073 175.892 38.5355C175.891 38.5637 175.888 38.5919 175.886 38.62C175.883 38.6481 175.881 38.6761 175.876 38.7041C175.872 38.7322 175.868 38.7601 175.863 38.7879C175.859 38.8157 175.853 38.8434 175.847 38.871C175.842 38.8987 175.836 38.9262 175.829 38.9536C175.822 38.9811 175.814 39.0084 175.807 39.0355C175.8 39.0627 175.791 39.0897 175.783 39.1165C175.774 39.1434 175.765 39.17 175.755 39.1965C175.745 39.223 175.735 39.2493 175.725 39.2755C175.714 39.3016 175.702 39.3275 175.691 39.3532C175.679 39.3789 175.668 39.4044 175.655 39.4296C175.642 39.4549 175.629 39.48 175.616 39.5047C175.603 39.5296 175.588 39.5541 175.574 39.5784C175.56 39.6027 175.545 39.6266 175.529 39.6503C175.514 39.674 175.498 39.6974 175.482 39.7205C175.466 39.7437 175.449 39.7665 175.432 39.789C175.416 39.8116 175.399 39.8338 175.38 39.8557C175.361 39.8775 175.344 39.8991 175.325 39.9204C175.306 39.9416 175.288 39.9624 175.268 39.9828C175.249 40.0034 175.229 40.0235 175.209 40.0433C175.188 40.0631 175.168 40.0826 175.147 40.1016C175.127 40.1205 175.105 40.1392 175.083 40.1574C175.062 40.1757 175.04 40.1935 175.019 40.2109C174.996 40.2284 174.973 40.2454 174.951 40.262C174.928 40.2786 174.905 40.2947 174.881 40.3105C174.858 40.3262 174.835 40.3415 174.81 40.3564C174.786 40.3713 174.761 40.3858 174.737 40.3997C174.712 40.4137 174.688 40.4272 174.663 40.4403ZM29.5646 36.528C29.5502 36.528 29.5358 36.5273 29.5214 36.5259C29.5072 36.5245 29.493 36.5224 29.4788 36.5195C29.4647 36.5168 29.4508 36.5133 29.437 36.5092C29.4233 36.505 29.4098 36.5001 29.3964 36.4946C29.3832 36.4891 29.3701 36.4829 29.3574 36.4761C29.3447 36.4694 29.3325 36.462 29.3204 36.4539C29.3085 36.446 29.297 36.4374 29.2858 36.4283C29.2747 36.4192 29.264 36.4096 29.2538 36.3994C29.2437 36.3892 29.2341 36.3785 29.2249 36.3674C29.2157 36.3563 29.2072 36.3447 29.1991 36.3328C29.1912 36.3208 29.1839 36.3085 29.177 36.2958C29.1702 36.2831 29.164 36.2701 29.1586 36.2568C29.1531 36.2435 29.1482 36.23 29.144 36.2162C29.1399 36.2024 29.1364 36.1885 29.1335 36.1744C29.1306 36.1603 29.1286 36.146 29.1272 36.1317C29.1258 36.1174 29.125 36.103 29.125 36.0886L29.125 33.246L27.1176 35.2536C27.1072 35.2636 27.0962 35.2731 27.0847 35.282C27.0733 35.291 27.0614 35.2994 27.0491 35.3072C27.0369 35.315 27.0244 35.3222 27.0114 35.3287C26.9985 35.3353 26.9852 35.3413 26.9717 35.3466C26.9582 35.3519 26.9444 35.3565 26.9304 35.3605C26.9165 35.3644 26.9024 35.3677 26.8881 35.3703C26.8738 35.3729 26.8594 35.3749 26.8449 35.3761C26.8305 35.3773 26.816 35.3778 26.8015 35.3776C26.787 35.3775 26.7725 35.3766 26.758 35.375C26.7437 35.3734 26.7293 35.3711 26.715 35.3682C26.7008 35.3652 26.6868 35.3616 26.673 35.3572C26.6591 35.3529 26.6455 35.3479 26.6321 35.3423C26.6187 35.3366 26.6056 35.3304 26.5929 35.3235C26.5801 35.3166 26.5677 35.3091 26.5556 35.301C26.5436 35.2929 26.532 35.2842 26.5208 35.275C26.5096 35.2657 26.4988 35.256 26.4885 35.2457C26.4783 35.2355 26.4685 35.2247 26.4592 35.2135C26.45 35.2023 26.4414 35.1907 26.4333 35.1786C26.4252 35.1666 26.4176 35.1542 26.4107 35.1414C26.4038 35.1286 26.3975 35.1156 26.3919 35.1022C26.3863 35.0888 26.3813 35.0752 26.3769 35.0613C26.3726 35.0475 26.3689 35.0334 26.366 35.0192C26.363 35.005 26.3607 34.9907 26.3592 34.9762C26.3576 34.9618 26.3567 34.9473 26.3565 34.9328C26.3563 34.9183 26.3568 34.9038 26.358 34.8893C26.3593 34.8748 26.3612 34.8605 26.3638 34.8462C26.3664 34.8319 26.3697 34.8178 26.3736 34.8038C26.3776 34.7898 26.3823 34.7761 26.3875 34.7626C26.3928 34.7491 26.3988 34.7358 26.4054 34.7229C26.4119 34.7099 26.4191 34.6973 26.427 34.6851C26.4347 34.6728 26.4431 34.661 26.452 34.6495C26.4609 34.6381 26.4704 34.6271 26.4805 34.6166L28.4883 32.609L25.6408 32.609C25.6263 32.609 25.6119 32.6083 25.5975 32.6069C25.5831 32.6055 25.5688 32.6034 25.5546 32.6005C25.5404 32.5977 25.5264 32.5942 25.5126 32.59C25.4988 32.5858 25.4852 32.5809 25.4717 32.5754C25.4584 32.5699 25.4453 32.5637 25.4326 32.5569C25.4198 32.55 25.4075 32.5426 25.3955 32.5346C25.3834 32.5265 25.3718 32.5179 25.3606 32.5088C25.3494 32.4996 25.3387 32.4899 25.3285 32.4797C25.3183 32.4694 25.3085 32.4587 25.2993 32.4476C25.2902 32.4364 25.2816 32.4248 25.2736 32.4127C25.2655 32.4007 25.2581 32.3883 25.2513 32.3756C25.2445 32.3628 25.2383 32.3498 25.2327 32.3364C25.2273 32.323 25.2224 32.3094 25.2182 32.2956C25.214 32.2817 25.2105 32.2677 25.2077 32.2535C25.2048 32.2394 25.2027 32.2251 25.2014 32.2107C25.1999 32.1963 25.1992 32.1818 25.1992 32.1674C25.1992 32.1529 25.1999 32.1385 25.2014 32.1241C25.2027 32.1097 25.2048 32.0954 25.2077 32.0812C25.2105 32.067 25.214 32.053 25.2182 32.0392C25.2224 32.0253 25.2273 32.0117 25.2327 31.9984C25.2383 31.985 25.2445 31.972 25.2513 31.9592C25.2581 31.9464 25.2655 31.934 25.2736 31.922C25.2816 31.91 25.2902 31.8984 25.2993 31.8872C25.3085 31.876 25.3183 31.8653 25.3285 31.8551C25.3387 31.8449 25.3494 31.8352 25.3606 31.826C25.3718 31.8168 25.3834 31.8082 25.3955 31.8002C25.4075 31.7921 25.4198 31.7847 25.4326 31.7779C25.4453 31.7711 25.4584 31.7649 25.4717 31.7594C25.4852 31.7538 25.4988 31.749 25.5126 31.7448C25.5264 31.7406 25.5404 31.737 25.5546 31.7342C25.5688 31.7314 25.5831 31.7293 25.5975 31.7279C25.6119 31.7265 25.6263 31.7258 25.6408 31.7257L28.4883 31.7257L26.4805 29.7421C26.4747 29.7372 26.4691 29.7321 26.4637 29.7269C26.4582 29.7217 26.4529 29.7164 26.4478 29.7109C26.4426 29.7054 26.4376 29.6998 26.4327 29.694C26.4279 29.6882 26.4232 29.6824 26.4186 29.6763C26.4141 29.6703 26.4098 29.6642 26.4055 29.6579C26.4013 29.6517 26.3973 29.6453 26.3934 29.6389C26.3895 29.6324 26.3858 29.6258 26.3824 29.6192C26.3788 29.6125 26.3755 29.6057 26.3723 29.5989C26.3692 29.592 26.3663 29.5851 26.3635 29.5781C26.3607 29.5711 26.3581 29.564 26.3557 29.5569C26.3534 29.5497 26.3511 29.5425 26.3491 29.5353C26.3471 29.528 26.3453 29.5207 26.3437 29.5133C26.342 29.506 26.3406 29.4986 26.3395 29.4911C26.3382 29.4837 26.3372 29.4762 26.3365 29.4687C26.3356 29.4612 26.335 29.4537 26.3346 29.4462C26.3342 29.4387 26.334 29.4311 26.334 29.4236C26.334 29.4161 26.3342 29.4085 26.3346 29.401C26.335 29.3935 26.3356 29.386 26.3365 29.3785C26.3372 29.371 26.3382 29.3635 26.3395 29.3561C26.3406 29.3486 26.342 29.3412 26.3437 29.3339C26.3453 29.3265 26.3471 29.3192 26.3491 29.3119C26.3511 29.3047 26.3534 29.2975 26.3557 29.2903C26.3581 29.2832 26.3607 29.2761 26.3635 29.2691C26.3663 29.2621 26.3692 29.2551 26.3723 29.2483C26.3755 29.2415 26.3788 29.2347 26.3824 29.228C26.3859 29.2214 26.3896 29.2148 26.3934 29.2083C26.3973 29.2019 26.4013 29.1955 26.4055 29.1893C26.4098 29.183 26.4141 29.1769 26.4186 29.1708C26.4232 29.1648 26.4279 29.1589 26.4327 29.1532C26.4376 29.1474 26.4426 29.1418 26.4478 29.1363C26.4529 29.1308 26.4582 29.1255 26.4637 29.1202C26.4691 29.115 26.4747 29.11 26.4805 29.1051C26.5002 29.0821 26.5221 29.0615 26.5462 29.0433C26.5704 29.0251 26.5963 29.0097 26.6238 28.9971C26.6513 28.9845 26.6799 28.9749 26.7094 28.9685C26.739 28.9621 26.769 28.9589 26.7992 28.9589C26.9216 28.9589 27.0376 29.012 27.1176 29.1051L29.125 31.0934L29.125 28.2506C29.1204 28.2293 29.1176 28.2078 29.1161 28.1861C29.1148 28.1643 29.1151 28.1426 29.117 28.1209C29.119 28.0993 29.1224 28.0778 29.1275 28.0567C29.1327 28.0355 29.1393 28.0148 29.1473 27.9946C29.1555 27.9745 29.1652 27.955 29.1761 27.9362C29.1872 27.9175 29.1996 27.8997 29.2132 27.8827C29.2269 27.8658 29.2417 27.85 29.2578 27.8353C29.274 27.8206 29.2909 27.8072 29.3089 27.795C29.327 27.7828 29.3459 27.7721 29.3655 27.7627C29.3852 27.7533 29.4055 27.7455 29.4262 27.7391C29.4471 27.7328 29.4682 27.728 29.4896 27.7248C29.5112 27.7216 29.5329 27.72 29.5547 27.72C29.5765 27.72 29.5981 27.7216 29.6196 27.7248C29.6412 27.7281 29.6623 27.7329 29.683 27.7393C29.7039 27.7456 29.7242 27.7535 29.7437 27.7629C29.7635 27.7723 29.7823 27.7831 29.8003 27.7953C29.8184 27.8074 29.8354 27.8208 29.8515 27.8355C29.8676 27.8502 29.8824 27.866 29.8961 27.8829C29.9099 27.8998 29.9223 27.9176 29.9332 27.9363C29.9443 27.9551 29.954 27.9746 29.962 27.9947C29.9702 28.0149 29.9768 28.0356 29.9819 28.0567C29.987 28.0779 29.9905 28.0993 29.9922 28.121C29.9942 28.1427 29.9945 28.1644 29.9931 28.1861C29.9917 28.2078 29.9888 28.2293 29.9842 28.2506L29.9842 31.0934L32.0114 29.0856C32.0163 29.0799 32.0214 29.0743 32.0266 29.0689C32.0318 29.0634 32.0371 29.0581 32.0426 29.0529C32.0481 29.0478 32.0538 29.0428 32.0596 29.0379C32.0653 29.0331 32.0712 29.0284 32.0771 29.0238C32.0832 29.0193 32.0894 29.0149 32.0955 29.0107C32.1019 29.0065 32.1083 29.0025 32.1147 28.9986C32.1212 28.9948 32.1278 28.9911 32.1344 28.9876C32.1412 28.984 32.1479 28.9807 32.1547 28.9776C32.1616 28.9744 32.1685 28.9715 32.1754 28.9687C32.1824 28.9659 32.1895 28.9633 32.1967 28.9609C32.2039 28.9586 32.2111 28.9563 32.2183 28.9543C32.2256 28.9523 32.2329 28.9505 32.2403 28.9489C32.2476 28.9473 32.255 28.9459 32.2624 28.9447C32.2699 28.9435 32.2774 28.9425 32.2849 28.9417C32.2924 28.9408 32.2999 28.9402 32.3073 28.9398C32.315 28.9394 32.3224 28.9392 32.3299 28.9392C32.3376 28.9392 32.345 28.9394 32.3525 28.9398C32.3601 28.9402 32.3676 28.9408 32.3751 28.9417C32.3826 28.9425 32.3901 28.9435 32.3976 28.9447C32.405 28.9459 32.4124 28.9473 32.4197 28.9489C32.4272 28.9505 32.4344 28.9523 32.4416 28.9543C32.4489 28.9563 32.4561 28.9586 32.4633 28.9609C32.4705 28.9633 32.4776 28.9659 32.4845 28.9687C32.4915 28.9715 32.4984 28.9744 32.5053 28.9776C32.5122 28.9807 32.519 28.984 32.5256 28.9876C32.5322 28.9911 32.5388 28.9948 32.5453 28.9986C32.5518 29.0025 32.5581 29.0065 32.5643 29.0107C32.5706 29.0149 32.5767 29.0193 32.5827 29.0238C32.5888 29.0284 32.5947 29.0331 32.6004 29.0379C32.6062 29.0428 32.6119 29.0478 32.6174 29.0529C32.6229 29.0581 32.6282 29.0634 32.6334 29.0689C32.6386 29.0743 32.6437 29.0799 32.6486 29.0856C32.6544 29.0905 32.6599 29.0956 32.6653 29.1008C32.6708 29.106 32.6761 29.1114 32.6812 29.1168C32.6863 29.1223 32.6914 29.128 32.6963 29.1337C32.7011 29.1395 32.7058 29.1454 32.7104 29.1514C32.715 29.1574 32.7193 29.1636 32.7235 29.1698C32.7276 29.1761 32.7317 29.1824 32.7355 29.1889C32.7394 29.1954 32.7432 29.2019 32.7466 29.2086C32.7501 29.2153 32.7534 29.222 32.7565 29.2289C32.7597 29.2357 32.7627 29.2426 32.7655 29.2497C32.7683 29.2567 32.7708 29.2637 32.7731 29.2709C32.7755 29.278 32.7777 29.2852 32.7797 29.2925C32.7817 29.2998 32.7836 29.3071 32.7852 29.3144C32.7869 29.3218 32.7882 29.3292 32.7894 29.3366C32.7906 29.3441 32.7917 29.3515 32.7924 29.359C32.7932 29.3665 32.794 29.374 32.7942 29.3815C32.7947 29.3891 32.7948 29.3966 32.7948 29.4041C32.7948 29.4117 32.7947 29.4192 32.7942 29.4267C32.794 29.4342 32.7932 29.4417 32.7924 29.4492C32.7917 29.4567 32.7906 29.4642 32.7894 29.4716C32.7882 29.4791 32.7869 29.4865 32.7852 29.4938C32.7836 29.5012 32.7817 29.5085 32.7797 29.5158C32.7777 29.523 32.7755 29.5302 32.7731 29.5374C32.7708 29.5445 32.7683 29.5516 32.7655 29.5586C32.7627 29.5656 32.7597 29.5725 32.7565 29.5794C32.7534 29.5862 32.7501 29.593 32.7466 29.5996C32.7432 29.6063 32.7394 29.6129 32.7355 29.6194C32.7317 29.6258 32.7276 29.6322 32.7235 29.6384C32.7193 29.6447 32.715 29.6508 32.7104 29.6568C32.7058 29.6628 32.7011 29.6687 32.6963 29.6745C32.6914 29.6803 32.6863 29.6859 32.6812 29.6914C32.6761 29.6969 32.6708 29.7022 32.6653 29.7075C32.6599 29.7127 32.6544 29.7177 32.6486 29.7226L30.6406 31.7306L33.4833 31.7306C33.4977 31.7306 33.5121 31.7313 33.5265 31.7327C33.5409 31.7341 33.5553 31.7362 33.5694 31.739C33.5836 31.7419 33.5976 31.7454 33.6114 31.7496C33.6252 31.7538 33.6388 31.7586 33.6522 31.7642C33.6656 31.7697 33.6787 31.7759 33.6914 31.7827C33.7042 31.7895 33.7165 31.7969 33.7285 31.805C33.7406 31.813 33.7521 31.8216 33.7633 31.8308C33.7745 31.8399 33.7852 31.8496 33.7954 31.8599C33.8058 31.8701 33.8154 31.8808 33.8245 31.892C33.8337 31.9032 33.8423 31.9147 33.8504 31.9268C33.8584 31.9388 33.8658 31.9512 33.8725 31.9639C33.8794 31.9767 33.8856 31.9897 33.8911 32.0031C33.8967 32.0164 33.9016 32.03 33.9056 32.0439C33.9099 32.0577 33.9134 32.0717 33.9163 32.0859C33.9191 32.1001 33.9212 32.1144 33.9226 32.1288C33.924 32.1432 33.9247 32.1576 33.9247 32.172C33.9247 32.1865 33.924 32.2009 33.9226 32.2153C33.9212 32.2297 33.9191 32.244 33.9163 32.2581C33.9134 32.2723 33.9099 32.2863 33.9056 32.3002C33.9016 32.314 33.8967 32.3276 33.8911 32.341C33.8856 32.3543 33.8794 32.3674 33.8725 32.3801C33.8658 32.3929 33.8584 32.4053 33.8504 32.4173C33.8423 32.4293 33.8337 32.4409 33.8245 32.4521C33.8154 32.4633 33.8058 32.474 33.7954 32.4842C33.7852 32.4944 33.7745 32.5041 33.7633 32.5133C33.7521 32.5224 33.7406 32.5311 33.7285 32.5391C33.7165 32.5471 33.7042 32.5545 33.6914 32.5614C33.6787 32.5682 33.6656 32.5743 33.6522 32.5799C33.6388 32.5854 33.6252 32.5903 33.6114 32.5945C33.5976 32.5987 33.5836 32.6022 33.5694 32.605C33.5553 32.6078 33.5409 32.6099 33.5265 32.6114C33.5121 32.6128 33.4977 32.6135 33.4833 32.6135L30.6406 32.6135L32.6486 34.6216C32.7624 34.7349 32.8065 34.9009 32.765 35.0563C32.76 35.0754 32.7537 35.094 32.746 35.1121C32.7386 35.1303 32.7299 35.1479 32.72 35.165C32.7102 35.182 32.6994 35.1984 32.6873 35.214C32.6754 35.2296 32.6624 35.2444 32.6485 35.2583C32.6347 35.2722 32.6199 35.2852 32.6042 35.2972C32.5886 35.3092 32.5724 35.3201 32.5553 35.33C32.5383 35.3398 32.5206 35.3485 32.5024 35.3561C32.4843 35.3637 32.4656 35.37 32.4466 35.3751C32.4276 35.3802 32.4083 35.384 32.3888 35.3866C32.3694 35.3891 32.3498 35.3904 32.3299 35.3904C32.3104 35.3903 32.2908 35.389 32.2712 35.3864C32.2517 35.3839 32.2324 35.38 32.2134 35.3749C32.1944 35.3698 32.1757 35.3634 32.1576 35.3559C32.1394 35.3483 32.1217 35.3396 32.1046 35.3298C32.0876 35.3199 32.0714 35.309 32.0557 35.297C32.0401 35.285 32.0253 35.272 32.0114 35.2581L29.9842 33.2459L29.9842 36.0885C30.0325 36.3347 29.7866 36.5279 29.545 36.5279L29.5646 36.5279L29.5646 36.528ZM26.7798 151.373L25.5648 151.373L25.5648 150.158C25.5648 149.956 25.4014 149.793 25.1992 149.793C24.9972 149.793 24.8336 149.956 24.8336 150.158L24.8336 151.373L23.6188 151.373C23.6068 151.373 23.5948 151.374 23.5829 151.375C23.5709 151.376 23.5591 151.378 23.5474 151.38C23.5357 151.383 23.5241 151.386 23.5126 151.389C23.5012 151.393 23.4899 151.397 23.4788 151.401C23.4677 151.406 23.4569 151.411 23.4464 151.417C23.4358 151.422 23.4256 151.428 23.4156 151.435C23.4056 151.442 23.396 151.449 23.3868 151.456C23.3775 151.464 23.3686 151.472 23.3602 151.48C23.3518 151.489 23.3438 151.498 23.3362 151.507C23.3285 151.516 23.3214 151.526 23.3147 151.536C23.3081 151.546 23.302 151.556 23.2963 151.567C23.2907 151.577 23.2855 151.588 23.2809 151.599C23.2763 151.61 23.2723 151.621 23.2688 151.633C23.2654 151.644 23.2625 151.656 23.2602 151.668C23.2578 151.679 23.256 151.691 23.2549 151.703C23.2537 151.715 23.2532 151.727 23.2532 151.739C23.2532 151.751 23.2537 151.763 23.2549 151.775C23.256 151.787 23.2578 151.799 23.2602 151.81C23.2625 151.822 23.2654 151.834 23.2688 151.845C23.2723 151.857 23.2763 151.868 23.2809 151.879C23.2855 151.89 23.2907 151.901 23.2963 151.911C23.302 151.922 23.3081 151.932 23.3147 151.942C23.3214 151.952 23.3285 151.962 23.3362 151.971C23.3438 151.98 23.3518 151.989 23.3602 151.998C23.3686 152.006 23.3775 152.014 23.3868 152.022C23.396 152.029 23.4056 152.036 23.4156 152.043C23.4256 152.05 23.4358 152.056 23.4464 152.061C23.4569 152.067 23.4677 152.072 23.4788 152.077C23.4899 152.081 23.5012 152.085 23.5126 152.089C23.5241 152.092 23.5357 152.095 23.5474 152.098C23.5591 152.1 23.5709 152.102 23.5829 152.103C23.5948 152.104 23.6068 152.105 23.6188 152.105L24.8336 152.105L24.8336 153.32C24.8337 153.331 24.8343 153.343 24.8355 153.355C24.8366 153.367 24.8384 153.379 24.8408 153.39C24.8431 153.402 24.846 153.414 24.8494 153.425C24.8529 153.436 24.8569 153.448 24.8615 153.459C24.8661 153.47 24.8712 153.48 24.8767 153.491C24.8824 153.501 24.8885 153.511 24.8952 153.521C24.9018 153.531 24.9089 153.541 24.9165 153.55C24.9239 153.559 24.9319 153.568 24.9403 153.577C24.9488 153.585 24.9576 153.593 24.9668 153.6C24.976 153.608 24.9856 153.615 24.9955 153.622C25.0053 153.628 25.0156 153.634 25.0261 153.64C25.0366 153.646 25.0473 153.651 25.0583 153.655C25.0694 153.66 25.0806 153.664 25.092 153.667C25.1033 153.671 25.1148 153.674 25.1265 153.676C25.1382 153.678 25.15 153.68 25.1618 153.681C25.1737 153.682 25.1856 153.683 25.1975 153.683L25.2012 153.667C25.2131 153.667 25.225 153.667 25.2369 153.666C25.2488 153.664 25.2606 153.663 25.2723 153.66C25.284 153.658 25.2955 153.655 25.3068 153.652C25.3182 153.648 25.3295 153.644 25.3405 153.64C25.3515 153.635 25.3623 153.63 25.3729 153.625C25.3834 153.619 25.3936 153.613 25.4035 153.606C25.4134 153.6 25.4229 153.592 25.4321 153.585C25.4414 153.577 25.4502 153.569 25.4586 153.561C25.4671 153.552 25.4751 153.544 25.4826 153.535C25.4902 153.525 25.4973 153.516 25.5039 153.506C25.5106 153.496 25.5167 153.486 25.5222 153.475C25.5278 153.465 25.5329 153.454 25.5375 153.443C25.542 153.432 25.546 153.421 25.5494 153.409C25.5529 153.398 25.5557 153.386 25.558 153.375C25.5603 153.363 25.5621 153.351 25.5632 153.339C25.5644 153.327 25.5649 153.315 25.5648 153.303L25.5648 152.105L26.7798 152.105C26.7916 152.105 26.8033 152.104 26.815 152.102C26.8268 152.101 26.8385 152.099 26.85 152.096C26.8615 152.094 26.8729 152.091 26.8841 152.087C26.8953 152.084 26.9063 152.079 26.9172 152.075C26.928 152.07 26.9386 152.065 26.949 152.059C26.9593 152.053 26.9694 152.047 26.979 152.04C26.9888 152.034 26.9982 152.027 27.0073 152.019C27.0163 152.011 27.0249 152.003 27.0331 151.995C27.0414 151.986 27.0492 151.978 27.0566 151.968C27.0641 151.959 27.0711 151.95 27.0775 151.94C27.084 151.93 27.09 151.92 27.0955 151.909C27.1009 151.899 27.1059 151.888 27.1104 151.877C27.1148 151.866 27.1187 151.855 27.1221 151.844C27.1255 151.832 27.1284 151.821 27.1306 151.809C27.1329 151.798 27.1346 151.786 27.1357 151.775C27.1369 151.763 27.1375 151.751 27.1375 151.739C27.1375 151.727 27.1369 151.716 27.1357 151.704C27.1346 151.692 27.1329 151.68 27.1306 151.669C27.1284 151.657 27.1255 151.646 27.1221 151.634C27.1187 151.623 27.1148 151.612 27.1104 151.601C27.1059 151.59 27.1009 151.579 27.0955 151.569C27.09 151.558 27.084 151.548 27.0775 151.538C27.0711 151.528 27.0641 151.519 27.0566 151.51C27.0492 151.501 27.0414 151.492 27.0331 151.483C27.0249 151.475 27.0163 151.467 27.0073 151.459C26.9982 151.452 26.9888 151.445 26.979 151.438C26.9694 151.431 26.9593 151.425 26.949 151.419C26.9386 151.413 26.928 151.408 26.9172 151.404C26.9063 151.399 26.8953 151.395 26.8841 151.391C26.8729 151.387 26.8615 151.384 26.85 151.382C26.8385 151.379 26.8268 151.377 26.815 151.376C26.8033 151.375 26.7916 151.374 26.7798 151.373ZM175.124 145.49C175.124 147.898 173.492 149.793 171.475 149.793C173.498 149.793 175.124 151.72 175.124 154.096C175.124 151.687 176.754 149.793 178.77 149.793C176.748 149.793 175.124 147.867 175.124 145.49Z"></path><path id="路径 3" fill-rule="evenodd" style="fill:#DFEFF7" opacity="1" d="M142.182 40.59L57.9164 40.59C45.9336 40.59 36.2695 50.2541 36.2695 62.2368L36.2695 146.696C36.2695 158.486 45.9336 168.148 57.9164 168.148L142.376 168.148C154.165 168.148 163.829 158.486 163.829 146.502L163.829 62.2368C163.829 50.2541 154.165 40.59 142.182 40.59Z"></path><path id="路径 4" fill-rule="evenodd" style="fill:#C7E6F9" opacity="1" d="M46.991 146.696L46.991 62.2368C46.991 50.2541 56.6549 40.59 68.6379 40.59L57.9164 40.59C45.9336 40.59 36.2695 50.2541 36.2695 62.2368L36.2695 146.696C36.2695 158.486 45.9336 168.148 57.9164 168.148L68.6379 168.148C56.6549 168.148 46.991 158.486 46.991 146.696Z"></path><path id="路径 5" fill-rule="evenodd" style="fill:#7ECAFC" opacity="1" d="M142.379 169.164L57.9196 169.164C45.4249 169.164 35.2598 159.087 35.2598 146.699L35.2598 62.2399C35.2598 56.1738 37.6131 50.4797 41.8864 46.2065C46.1595 41.9334 51.8536 39.58 57.9196 39.58L142.186 39.58C148.252 39.58 153.946 41.9334 158.219 46.2065C162.491 50.4797 164.845 56.1737 164.845 62.2399L164.845 109.271C164.845 109.288 164.844 109.304 164.843 109.321C164.842 109.337 164.841 109.354 164.839 109.371C164.838 109.387 164.836 109.403 164.833 109.42C164.831 109.436 164.829 109.453 164.825 109.469C164.822 109.485 164.818 109.501 164.815 109.517C164.811 109.533 164.806 109.549 164.802 109.565C164.796 109.581 164.791 109.597 164.786 109.612C164.78 109.628 164.774 109.643 164.767 109.659C164.761 109.674 164.755 109.689 164.747 109.704C164.74 109.719 164.733 109.734 164.725 109.749C164.718 109.763 164.71 109.778 164.701 109.792C164.692 109.806 164.683 109.82 164.674 109.834C164.665 109.848 164.655 109.861 164.645 109.875C164.635 109.888 164.625 109.901 164.615 109.914C164.604 109.927 164.593 109.939 164.581 109.951C164.571 109.964 164.56 109.976 164.548 109.987C164.536 109.999 164.524 110.011 164.512 110.022C164.5 110.033 164.487 110.044 164.474 110.054C164.461 110.065 164.448 110.075 164.435 110.085C164.421 110.095 164.408 110.104 164.394 110.113C164.381 110.123 164.367 110.132 164.353 110.14C164.338 110.149 164.324 110.157 164.31 110.164C164.294 110.172 164.279 110.18 164.265 110.187C164.25 110.194 164.234 110.201 164.219 110.207C164.204 110.213 164.188 110.219 164.173 110.225C164.157 110.231 164.142 110.236 164.125 110.241C164.11 110.245 164.094 110.25 164.078 110.254C164.062 110.258 164.045 110.261 164.029 110.265C164.013 110.268 163.996 110.271 163.98 110.273C163.964 110.276 163.947 110.278 163.931 110.279C163.915 110.281 163.898 110.282 163.881 110.283C163.865 110.284 163.848 110.284 163.832 110.284C163.816 110.284 163.799 110.284 163.781 110.283C163.765 110.282 163.749 110.281 163.733 110.279C163.716 110.278 163.699 110.276 163.682 110.273C163.666 110.271 163.65 110.268 163.633 110.265C163.617 110.261 163.601 110.258 163.586 110.254C163.57 110.25 163.553 110.245 163.537 110.241C163.521 110.236 163.506 110.231 163.491 110.225C163.475 110.219 163.459 110.213 163.443 110.207C163.428 110.201 163.413 110.194 163.399 110.187C163.383 110.18 163.369 110.172 163.354 110.164C163.34 110.157 163.325 110.149 163.311 110.14C163.297 110.132 163.283 110.123 163.269 110.113C163.255 110.104 163.241 110.095 163.228 110.085C163.215 110.075 163.202 110.065 163.189 110.054C163.176 110.044 163.164 110.033 163.151 110.022C163.139 110.011 163.127 109.999 163.115 109.987C163.104 109.976 163.092 109.964 163.081 109.951C163.07 109.939 163.06 109.927 163.049 109.914C163.039 109.901 163.028 109.888 163.017 109.875C163.008 109.861 162.998 109.848 162.989 109.834C162.98 109.82 162.971 109.806 162.963 109.792C162.954 109.778 162.946 109.763 162.938 109.749C162.931 109.734 162.923 109.719 162.915 109.704C162.909 109.689 162.902 109.674 162.895 109.659C162.889 109.643 162.884 109.628 162.878 109.612C162.872 109.597 162.867 109.581 162.862 109.565C162.857 109.549 162.853 109.533 162.849 109.517C162.845 109.501 162.841 109.485 162.838 109.469C162.835 109.453 162.832 109.436 162.829 109.42C162.827 109.403 162.825 109.387 162.823 109.371C162.821 109.354 162.82 109.337 162.82 109.321C162.819 109.304 162.819 109.288 162.819 109.271L162.819 62.2399C162.819 50.8625 153.563 41.6062 142.186 41.6062L57.9196 41.6062C46.5421 41.6062 37.286 50.8623 37.286 62.2399L37.286 146.699C37.286 157.97 46.5421 167.138 57.9196 167.138L142.379 167.138C153.649 167.138 162.819 157.883 162.819 146.505L162.819 139.083C162.819 139.066 162.819 139.05 162.82 139.033C162.82 139.016 162.821 139 162.823 138.983C162.825 138.967 162.827 138.951 162.829 138.934C162.832 138.918 162.835 138.901 162.838 138.885C162.841 138.869 162.845 138.853 162.849 138.837C162.853 138.82 162.857 138.804 162.862 138.789C162.867 138.773 162.872 138.757 162.878 138.741C162.884 138.726 162.889 138.71 162.895 138.695C162.902 138.68 162.909 138.665 162.915 138.65C162.923 138.635 162.931 138.62 162.938 138.605C162.946 138.591 162.954 138.576 162.963 138.562C162.971 138.548 162.98 138.534 162.989 138.52C162.998 138.506 163.008 138.493 163.017 138.479C163.028 138.466 163.039 138.453 163.049 138.44C163.06 138.427 163.07 138.415 163.081 138.402C163.092 138.39 163.104 138.378 163.115 138.366C163.127 138.355 163.139 138.343 163.151 138.332C163.164 138.321 163.176 138.31 163.189 138.3C163.202 138.289 163.215 138.279 163.228 138.269C163.241 138.259 163.255 138.25 163.269 138.24C163.283 138.231 163.297 138.222 163.311 138.214C163.325 138.205 163.34 138.197 163.354 138.189C163.369 138.181 163.383 138.174 163.399 138.167C163.413 138.16 163.428 138.153 163.443 138.147C163.459 138.14 163.475 138.135 163.491 138.129C163.506 138.123 163.521 138.118 163.537 138.113C163.553 138.109 163.57 138.104 163.586 138.1C163.601 138.096 163.617 138.092 163.633 138.089C163.65 138.086 163.666 138.083 163.682 138.081C163.699 138.078 163.716 138.076 163.733 138.075C163.749 138.073 163.765 138.072 163.781 138.071C163.799 138.07 163.816 138.07 163.832 138.07C163.848 138.07 163.865 138.07 163.881 138.071C163.898 138.072 163.915 138.073 163.931 138.075C163.947 138.076 163.964 138.078 163.98 138.081C163.996 138.083 164.013 138.086 164.029 138.089C164.045 138.092 164.062 138.096 164.078 138.1C164.094 138.104 164.11 138.109 164.125 138.113C164.142 138.118 164.157 138.123 164.173 138.129C164.188 138.135 164.204 138.14 164.219 138.147C164.234 138.153 164.25 138.16 164.265 138.167C164.279 138.174 164.294 138.181 164.31 138.189C164.324 138.197 164.338 138.205 164.353 138.214C164.367 138.222 164.381 138.231 164.394 138.24C164.408 138.25 164.421 138.259 164.435 138.269C164.448 138.279 164.461 138.289 164.474 138.3C164.487 138.31 164.5 138.321 164.512 138.332C164.524 138.343 164.536 138.355 164.548 138.366C164.56 138.378 164.571 138.39 164.581 138.402C164.593 138.415 164.604 138.427 164.615 138.44C164.625 138.453 164.635 138.466 164.645 138.479C164.655 138.493 164.665 138.506 164.674 138.52C164.683 138.534 164.692 138.548 164.701 138.562C164.71 138.576 164.718 138.591 164.725 138.605C164.733 138.62 164.74 138.635 164.747 138.65C164.755 138.665 164.761 138.68 164.767 138.695C164.774 138.71 164.78 138.726 164.786 138.741C164.791 138.757 164.796 138.773 164.802 138.789C164.806 138.804 164.811 138.82 164.815 138.837C164.818 138.853 164.822 138.869 164.825 138.885C164.829 138.901 164.831 138.918 164.833 138.934C164.836 138.951 164.838 138.967 164.839 138.983C164.841 139 164.842 139.016 164.843 139.033C164.844 139.05 164.845 139.066 164.845 139.083L164.845 146.505C164.845 159 154.767 169.164 142.379 169.164Z"></path><path id="路径 6" fill-rule="evenodd" style="fill:#7ECAFC" opacity="1" d="M163.829 124.011C163.811 124.011 163.794 124.011 163.778 124.01C163.762 124.009 163.746 124.008 163.729 124.006C163.712 124.005 163.695 124.002 163.679 124C163.663 123.998 163.646 123.995 163.63 123.991C163.614 123.988 163.598 123.985 163.583 123.981C163.566 123.977 163.55 123.972 163.534 123.967C163.518 123.963 163.502 123.957 163.486 123.952C163.471 123.946 163.456 123.94 163.44 123.934C163.425 123.927 163.41 123.921 163.396 123.914C163.38 123.907 163.365 123.899 163.351 123.891C163.337 123.884 163.322 123.875 163.308 123.867C163.293 123.858 163.279 123.849 163.266 123.84C163.252 123.831 163.238 123.822 163.224 123.812C163.211 123.802 163.198 123.791 163.185 123.781C163.173 123.77 163.161 123.76 163.148 123.749C163.135 123.738 163.124 123.726 163.112 123.714C163.101 123.703 163.089 123.69 163.078 123.678C163.066 123.666 163.055 123.653 163.044 123.641C163.034 123.628 163.024 123.615 163.014 123.601C163.005 123.588 162.995 123.574 162.985 123.561C162.977 123.547 162.968 123.533 162.96 123.519C162.951 123.505 162.943 123.49 162.935 123.475C162.927 123.461 162.92 123.446 162.912 123.431C162.905 123.416 162.899 123.401 162.892 123.386C162.886 123.37 162.88 123.355 162.875 123.339C162.869 123.324 162.864 123.308 162.859 123.292C162.854 123.276 162.85 123.26 162.846 123.244C162.842 123.228 162.838 123.212 162.834 123.196C162.831 123.179 162.829 123.163 162.826 123.147C162.824 123.13 162.822 123.114 162.82 123.097C162.818 123.081 162.817 123.064 162.816 123.048C162.816 123.031 162.816 123.014 162.816 122.998L162.816 114.51C162.816 114.494 162.816 114.477 162.816 114.46C162.817 114.444 162.818 114.427 162.82 114.411C162.821 114.394 162.823 114.378 162.826 114.361C162.828 114.345 162.83 114.328 162.834 114.312C162.837 114.296 162.841 114.28 162.844 114.263C162.848 114.247 162.853 114.231 162.857 114.215C162.862 114.199 162.867 114.184 162.873 114.168C162.879 114.152 162.885 114.137 162.89 114.121C162.897 114.106 162.904 114.091 162.911 114.076C162.918 114.061 162.926 114.046 162.934 114.031C162.941 114.017 162.949 114.002 162.958 113.988C162.967 113.973 162.975 113.959 162.984 113.946C162.994 113.932 163.003 113.918 163.013 113.905C163.023 113.891 163.033 113.878 163.043 113.865C163.053 113.852 163.065 113.84 163.076 113.828C163.088 113.815 163.099 113.803 163.111 113.791C163.122 113.78 163.134 113.768 163.147 113.757C163.159 113.746 163.171 113.735 163.184 113.724C163.197 113.714 163.209 113.703 163.223 113.693C163.236 113.684 163.25 113.674 163.265 113.665C163.278 113.656 163.292 113.647 163.306 113.638C163.321 113.63 163.335 113.621 163.349 113.613C163.364 113.606 163.379 113.598 163.394 113.591C163.409 113.584 163.425 113.577 163.44 113.571C163.456 113.564 163.471 113.558 163.486 113.553C163.502 113.547 163.517 113.542 163.534 113.537C163.549 113.532 163.565 113.528 163.581 113.524C163.597 113.52 163.614 113.516 163.63 113.513C163.646 113.51 163.663 113.507 163.679 113.504C163.695 113.502 163.712 113.5 163.728 113.498C163.745 113.497 163.762 113.495 163.778 113.494C163.794 113.494 163.811 113.493 163.829 113.493C163.845 113.493 163.861 113.494 163.878 113.494C163.895 113.495 163.912 113.497 163.928 113.498C163.944 113.5 163.961 113.502 163.977 113.504C163.993 113.507 164.009 113.51 164.026 113.513C164.042 113.516 164.058 113.52 164.075 113.524C164.091 113.528 164.107 113.532 164.124 113.537C164.139 113.542 164.154 113.547 164.17 113.553C164.186 113.558 164.202 113.564 164.217 113.571C164.232 113.577 164.247 113.584 164.262 113.591C164.277 113.598 164.292 113.606 164.306 113.613C164.322 113.621 164.336 113.63 164.349 113.638C164.364 113.647 164.378 113.656 164.393 113.665C164.406 113.674 164.42 113.684 164.433 113.694C164.446 113.704 164.459 113.714 164.472 113.724C164.485 113.735 164.498 113.746 164.509 113.757C164.522 113.768 164.534 113.78 164.545 113.791C164.558 113.803 164.569 113.815 164.58 113.828C164.591 113.84 164.602 113.852 164.613 113.865C164.623 113.878 164.633 113.891 164.643 113.905C164.653 113.918 164.662 113.932 164.672 113.946C164.681 113.959 164.69 113.973 164.698 113.988C164.706 114.002 164.715 114.017 164.722 114.031C164.731 114.046 164.738 114.061 164.745 114.076C164.752 114.091 164.759 114.106 164.765 114.121C164.771 114.137 164.777 114.152 164.783 114.168C164.788 114.184 164.794 114.199 164.798 114.215C164.803 114.231 164.807 114.247 164.811 114.263C164.815 114.28 164.819 114.296 164.823 114.312C164.826 114.328 164.828 114.345 164.83 114.361C164.833 114.378 164.835 114.394 164.837 114.411C164.838 114.427 164.839 114.444 164.84 114.46C164.841 114.477 164.842 114.494 164.842 114.51L164.842 122.998C164.842 123.014 164.841 123.031 164.84 123.048C164.839 123.064 164.838 123.081 164.836 123.097C164.835 123.114 164.833 123.13 164.83 123.147C164.828 123.163 164.825 123.179 164.821 123.196C164.819 123.212 164.815 123.228 164.811 123.244C164.807 123.26 164.802 123.276 164.797 123.292C164.792 123.308 164.787 123.324 164.783 123.339C164.777 123.355 164.771 123.37 164.764 123.386C164.757 123.401 164.75 123.416 164.744 123.431C164.737 123.446 164.73 123.461 164.722 123.475C164.714 123.49 164.705 123.505 164.698 123.519C164.689 123.533 164.68 123.547 164.67 123.561C164.661 123.574 164.651 123.588 164.642 123.601C164.632 123.615 164.622 123.628 164.611 123.641C164.601 123.653 164.59 123.666 164.578 123.678C164.568 123.69 164.556 123.703 164.544 123.714C164.532 123.726 164.52 123.738 164.508 123.749C164.496 123.76 164.484 123.77 164.47 123.781C164.458 123.791 164.445 123.802 164.431 123.812C164.418 123.822 164.405 123.831 164.391 123.84C164.377 123.849 164.363 123.858 164.349 123.867C164.335 123.875 164.321 123.884 164.306 123.891C164.291 123.899 164.276 123.907 164.262 123.914C164.246 123.921 164.231 123.927 164.216 123.934C164.2 123.94 164.185 123.946 164.17 123.952C164.154 123.957 164.138 123.963 164.122 123.967C164.107 123.972 164.091 123.977 164.075 123.981C164.058 123.985 164.042 123.988 164.026 123.991C164.009 123.995 163.993 123.998 163.977 124C163.961 124.002 163.944 124.005 163.928 124.006C163.911 124.008 163.894 124.009 163.878 124.01C163.861 124.011 163.845 124.011 163.829 124.011ZM88.4601 73.8689C87.826 73.3279 87.0011 73.03 86.1374 73.03C85.2736 73.03 84.4482 73.3284 83.8116 73.8713L70.4338 85.3364L65.4847 81.0918C64.8506 80.5515 64.026 80.2538 63.1626 80.2538C62.299 80.2538 61.4742 80.5516 60.8407 81.0922C60.1348 81.6941 59.7302 82.5519 59.7305 83.4453C59.7306 84.339 60.1345 85.1952 60.8355 85.7925L68.0767 92.0148C68.7072 92.5726 69.5372 92.88 70.4139 92.88C71.2913 92.88 72.1027 92.5897 72.7698 92.0331L88.46 78.5738C89.165 77.9725 89.5693 77.1149 89.5693 76.2213C89.5693 75.3276 89.1649 74.4702 88.4601 73.8689Z"></path><path id="路径 7" fill-rule="evenodd" style="fill:#C7E6F9" opacity="1" d="M138.818 83.33L97.8032 83.33C95.8271 83.33 94.2197 84.9375 94.2197 86.9135L94.2197 87.3669C94.2197 89.343 95.8272 90.9506 97.8032 90.9506L138.837 90.9506C139.787 90.9506 140.716 90.5594 141.385 89.8769C142.057 89.1919 142.417 88.2978 142.401 87.3585L142.401 86.9135C142.401 84.9375 140.794 83.33 138.818 83.33Z"></path><path id="路径 8" fill-rule="evenodd" style="fill:#FFFFFF" opacity="1" d="M88.4604 94.4093C87.8263 93.8681 87.0014 93.57 86.1374 93.57C85.2733 93.57 84.448 93.8684 83.8116 94.4114L70.4338 105.875L65.485 101.631C64.8506 101.091 64.0257 100.793 63.1626 100.793C62.2987 100.793 61.4741 101.091 60.8414 101.631C60.1357 102.232 59.7306 103.09 59.7305 103.983C59.7302 104.877 60.1339 105.734 60.8355 106.332L68.0791 112.557C68.7096 113.113 69.5388 113.419 70.4139 113.419C71.2305 113.419 72.0423 113.139 72.7 112.63L88.4604 99.1126C89.1656 98.5104 89.5699 97.6523 89.5692 96.7586C89.5686 95.865 89.164 95.0084 88.4604 94.4093Z"></path><path id="路径 9" fill-rule="evenodd" style="fill:#7ECAFC" opacity="1" d="M138.809 103.7L97.7951 103.7C95.819 103.7 94.2116 105.307 94.2116 107.283L94.2116 107.737C94.2116 109.713 95.8191 111.321 97.7951 111.321L138.829 111.321C139.779 111.321 140.708 110.929 141.377 110.247C142.049 109.562 142.409 108.668 142.393 107.728L142.393 107.283C142.393 105.307 140.785 103.7 138.809 103.7ZM88.4591 116.701C87.8253 116.161 87.0008 115.864 86.1374 115.864C85.2742 115.864 84.4489 116.162 83.8116 116.704L70.4338 128.169L65.485 123.925C64.8506 123.385 64.0257 123.087 63.1626 123.087C62.2987 123.087 61.4741 123.385 60.8414 123.925C60.1357 124.526 59.7306 125.383 59.7305 126.277C59.7302 127.171 60.1339 128.028 60.8355 128.625L68.079 134.851C68.7096 135.407 69.539 135.713 70.4139 135.713C71.2895 135.713 72.1004 135.424 72.7698 134.867L88.4601 121.406C89.1649 120.805 89.5693 119.948 89.5693 119.054C89.5693 118.161 89.1647 117.303 88.4591 116.701Z"></path><path id="路径 10" fill-rule="evenodd" style="fill:#C7E6F9" opacity="1" d="M138.818 125.52L97.8032 125.52C95.8271 125.52 94.2197 127.128 94.2197 129.104L94.2197 129.557C94.2197 131.533 95.8272 133.141 97.8032 133.141L138.837 133.141C139.787 133.141 140.716 132.75 141.386 132.067C142.057 131.382 142.417 130.488 142.401 129.549L142.401 129.104C142.401 127.128 140.794 125.52 138.818 125.52Z"></path></g></g><defs><rect id="path_0" x="0" y="0" width="200" height="200" rx="0" ry="0"/></defs></svg>