<svg xmlns="http://www.w3.org/2000/svg" xmlns:xlink="http://www.w3.org/1999/xlink" width="32" height="32" viewBox="0 0 32 32" fill="none"><g opacity="1"  transform="translate(0 0)"><mask id="bg-mask-0" fill="white"><use transform="translate(0 0)" xlink:href="#path_0"></use></mask><g mask="url(#bg-mask-0)" ><path  id="路径 1" style="fill:#1952E7; opacity:0.1;" d="M15.997 28.3367C22.8122 28.3367 28.337 22.8119 28.337 15.9967C28.337 9.18155 22.8122 3.66675 15.997 3.66675C9.18732 3.66675 3.66699 9.18708 3.66699 15.9967C3.66699 22.8064 9.18732 28.3367 15.997 28.3367ZM15.997 30.3367C8.08275 30.3367 1.66699 23.911 1.66699 15.9967C1.66699 8.08251 8.08275 1.66675 15.997 1.66675C23.9168 1.66675 30.337 8.07699 30.337 15.9967C30.337 23.9165 23.9168 30.3367 15.997 30.3367Z"></path><path  id="路径 2" style="fill:#1952E7; opacity:0.1;" d="M10.6259 19.9595L15.2926 15.2928L15.9997 15.9999L15.2926 16.707L10.6259 12.0404Q10.5563 11.9707 10.5015 11.8888Q10.4468 11.8069 10.4091 11.7159Q10.3714 11.6249 10.3522 11.5283Q10.333 11.4317 10.333 11.3333Q10.333 11.2348 10.3522 11.1382Q10.3714 11.0416 10.4091 10.9506Q10.4468 10.8596 10.5015 10.7777Q10.5563 10.6958 10.6259 10.6261Q10.6955 10.5565 10.7774 10.5018Q10.8593 10.4471 10.9503 10.4094Q11.0413 10.3717 11.1379 10.3525Q11.2345 10.3333 11.333 10.3333Q11.4315 10.3333 11.5281 10.3525Q11.6247 10.3717 11.7157 10.4094Q11.8067 10.4471 11.8886 10.5018Q11.9705 10.5565 12.0401 10.6261L16.7068 15.2928C17.0973 15.6833 17.0973 16.3165 16.7068 16.707L12.0401 21.3737Q11.9705 21.4433 11.8886 21.4981Q11.8067 21.5528 11.7157 21.5905Q11.6247 21.6282 11.5281 21.6474Q11.4315 21.6666 11.333 21.6666Q11.2345 21.6666 11.1379 21.6474Q11.0413 21.6282 10.9503 21.5905Q10.8593 21.5528 10.7774 21.4981Q10.6955 21.4433 10.6259 21.3737Q10.5563 21.304 10.5015 21.2222Q10.4468 21.1403 10.4091 21.0493Q10.3714 20.9583 10.3522 20.8617Q10.333 20.7651 10.333 20.6666Q10.333 20.5681 10.3522 20.4715Q10.3714 20.3749 10.4091 20.2839Q10.4468 20.1929 10.5015 20.111Q10.5563 20.0291 10.6259 19.9595Z"></path><path  id="路径 3" style="fill:#1952E7; opacity:0.1;" d="M16.6259 19.9595L21.2926 15.2928L21.9997 15.9999L21.2926 16.707L16.6259 12.0404Q16.5563 11.9707 16.5015 11.8888Q16.4468 11.8069 16.4091 11.7159Q16.3714 11.6249 16.3522 11.5283Q16.333 11.4317 16.333 11.3333Q16.333 11.2348 16.3522 11.1382Q16.3714 11.0416 16.4091 10.9506Q16.4468 10.8596 16.5015 10.7777Q16.5563 10.6958 16.6259 10.6261Q16.6955 10.5565 16.7774 10.5018Q16.8593 10.4471 16.9503 10.4094Q17.0413 10.3717 17.1379 10.3525Q17.2345 10.3333 17.333 10.3333Q17.4315 10.3333 17.5281 10.3525Q17.6247 10.3717 17.7157 10.4094Q17.8067 10.4471 17.8886 10.5018Q17.9705 10.5565 18.0401 10.6261L22.7068 15.2928C23.0973 15.6833 23.0973 16.3165 22.7068 16.707L18.0401 21.3737Q17.9705 21.4433 17.8886 21.4981Q17.8067 21.5528 17.7157 21.5905Q17.6247 21.6282 17.5281 21.6474Q17.4315 21.6666 17.333 21.6666Q17.2345 21.6666 17.1379 21.6474Q17.0413 21.6282 16.9503 21.5905Q16.8593 21.5528 16.7774 21.4981Q16.6955 21.4433 16.6259 21.3737Q16.5563 21.304 16.5015 21.2222Q16.4468 21.1403 16.4091 21.0493Q16.3714 20.9583 16.3522 20.8617Q16.333 20.7651 16.333 20.6666Q16.333 20.5681 16.3522 20.4715Q16.3714 20.3749 16.4091 20.2839Q16.4468 20.1929 16.5015 20.111Q16.5563 20.0291 16.6259 19.9595Z"></path></g></g><defs><rect id="path_0" x="0" y="0" width="32" height="32" rx="0" ry="0"/></defs></svg>