<svg xmlns="http://www.w3.org/2000/svg" xmlns:xlink="http://www.w3.org/1999/xlink" width="48" height="48" viewBox="0 0 48 48" fill="none"><g opacity="1"  transform="translate(0 0)"><mask id="bg-mask-0" fill="white"><use transform="translate(0 0)" xlink:href="#path_0"></use></mask><g mask="url(#bg-mask-0)" ><g opacity="1"  transform="translate(0 0)"><path d="M48 0L48 48L0 48L0 0L48 0ZM25.187 46.5156L25.1638 46.519L25.0218 46.59L24.9838 46.5974L24.9534 46.59L24.8114 46.519C24.7916 46.5128 24.774 46.518 24.7642 46.5298L24.756 46.5516L24.7218 47.4062L24.7318 47.447L24.7538 47.4714L24.961 47.6194L24.9906 47.6272L25.0142 47.6194L25.2214 47.4714L25.2466 47.4394L25.2534 47.4062L25.2192 46.5516C25.2152 46.5314 25.202 46.5186 25.187 46.5156ZM25.7168 46.2906L25.689 46.2946L25.3196 46.4794L25.2998 46.4998L25.2944 46.5222L25.3302 47.3812L25.3398 47.4068L25.3568 47.421L25.7586 47.6064C25.7828 47.6138 25.8044 47.606 25.8156 47.5904L25.8236 47.5624L25.7554 46.333C25.7506 46.3092 25.7348 46.294 25.7168 46.2906ZM24.286 46.2946C24.2664 46.2848 24.2444 46.2906 24.2312 46.3052L24.2198 46.333L24.1516 47.5624C24.1502 47.5854 24.1656 47.6038 24.1852 47.6092L24.2166 47.6064L24.6184 47.421L24.6372 47.4048L24.645 47.3812L24.6808 46.5222L24.6744 46.497L24.6556 46.4794L24.286 46.2946Z"  ></path><path id="路径 2" fill-rule="evenodd" style="fill:#FFFFFF" opacity="1" d="M39.3186 8.43139C41.7362 8.04396 44 9.8888 44 12.3994L44 31.6009C44 34.1117 41.7362 35.9565 39.3186 35.5691C34.8254 34.8489 30.4076 34.4415 26 34.3469L26 37.0709C27.4262 37.1675 28.7592 37.3493 29.8288 37.5275C30.7194 37.6759 31.6082 37.8415 32.4846 38.0599C33.5562 38.3277 34.2082 39.4137 33.9402 40.4853C33.6688 41.5715 32.554 42.1943 31.4838 41.9329C30.719 41.7515 29.9464 41.6023 29.1712 41.4731C27.73 41.2329 25.8488 41.0003 24 41.0003C22.1512 41.0003 20.27 41.2329 18.8288 41.4731C18.0536 41.6023 17.281 41.7515 16.5162 41.9329C15.4462 42.1941 14.3312 41.5713 14.0597 40.4853C13.797 39.4343 14.4714 38.3193 15.5214 38.0583C16.3956 37.8425 17.2834 37.6755 18.1712 37.5275C19.2407 37.3493 20.5738 37.1675 22 37.0709L22 34.3469C17.5923 34.4415 13.1747 34.8489 8.6813 35.5691C6.2638 35.9565 4 34.1117 4 31.6009L4 12.3994C4 9.8888 6.26382 8.04396 8.6813 8.43139C19.0276 10.0895 28.9724 10.0895 39.3186 8.43139Z"></path></g></g></g><defs><rect id="path_0" x="0" y="0" width="48" height="48" rx="0" ry="0"/></defs></svg>