<svg xmlns="http://www.w3.org/2000/svg" xmlns:xlink="http://www.w3.org/1999/xlink" width="88" height="88" viewBox="0 0 88 88" fill="none"><g opacity="1"  transform="translate(0 0)"><mask id="bg-mask-0" fill="white"><use transform="translate(0 0)" xlink:href="#path_0"></use></mask><g mask="url(#bg-mask-0)" ><path id="路径 2" fill-rule="evenodd" fill="url(#linear_0)" opacity="1" d="M49.4075 26.6486C51.4545 27.4062 53.2967 27.4464 54.9458 26.7959C58.7528 25.2922 61.079 25.2081 61.6453 27.2301C61.6494 27.2451 61.6533 27.2603 61.6568 27.2754C61.6602 27.2906 61.6632 27.3059 61.6659 27.3212C61.6686 27.3365 61.6709 27.3519 61.6729 27.3673C61.6748 27.3828 61.6763 27.3983 61.6776 27.4139C61.6787 27.4294 61.6796 27.4449 61.6799 27.4605C61.6803 27.4761 61.6804 27.4916 61.68 27.5071C61.6796 27.5228 61.6788 27.5383 61.6778 27.5539C61.6766 27.5694 61.6751 27.5848 61.6732 27.6003C61.6713 27.6158 61.6691 27.6312 61.6664 27.6465C61.6637 27.6619 61.6607 27.6771 61.6573 27.6923C61.6539 27.7075 61.6501 27.7226 61.646 27.7376C61.6418 27.7526 61.6372 27.7675 61.6324 27.7824C61.6275 27.7971 61.6222 27.8118 61.6167 27.8263C61.611 27.8408 61.605 27.8552 61.5988 27.8694C61.5925 27.8837 61.5858 27.8977 61.5788 27.9117C61.5718 27.9255 61.5644 27.9393 61.5567 27.9528C61.549 27.9663 61.541 27.9797 61.5327 27.9928C61.5242 28.006 61.5156 28.0189 61.5067 28.0317C61.4977 28.0443 61.4884 28.0568 61.4788 28.069C61.4692 28.0813 61.4593 28.0933 61.4491 28.1051C61.4389 28.1168 61.4284 28.1284 61.4176 28.1396C61.4069 28.1509 61.3958 28.1619 61.3845 28.1726C61.3732 28.1833 61.3617 28.1938 61.3499 28.2039C61.3381 28.214 61.326 28.2238 61.3137 28.2334C61.3013 28.2429 61.2888 28.2522 61.2761 28.2611C61.2633 28.27 61.2503 28.2786 61.2372 28.287C61.2239 28.2952 61.2106 28.3032 61.197 28.3108C61.1834 28.3184 61.1697 28.3257 61.1558 28.3327C61.1418 28.3396 61.1277 28.3462 61.1134 28.3524C61.0992 28.3587 61.0847 28.3646 61.0702 28.3702C61.0557 28.3756 61.041 28.3808 61.0262 28.3857C61.0113 28.3904 60.9964 28.3949 60.9814 28.399C60.9664 28.4032 60.9512 28.4069 60.936 28.4103C60.9206 28.4137 60.9053 28.4168 60.89 28.4194C60.8745 28.4221 60.859 28.4243 60.8435 28.4262C60.828 28.4281 60.8125 28.4296 60.7969 28.4308C60.7813 28.432 60.7657 28.4327 60.7501 28.4331C60.7344 28.4335 60.7188 28.4335 60.7032 28.4331C60.6875 28.4327 60.6719 28.432 60.6563 28.4308C60.6407 28.4296 60.6252 28.4281 60.6097 28.4262C60.5941 28.4243 60.5787 28.422 60.5633 28.4193C60.5479 28.4167 60.5325 28.4137 60.5173 28.4103C60.502 28.4068 60.4869 28.4031 60.4718 28.3989C60.4567 28.3947 60.4417 28.3903 60.4269 28.3853C60.412 28.3804 60.3973 28.3752 60.3827 28.3695C60.3681 28.364 60.3536 28.3581 60.3394 28.3517C60.325 28.3454 60.3109 28.3388 60.297 28.3318C60.283 28.3248 60.2692 28.3174 60.2555 28.3097C60.2419 28.3021 60.2284 28.2941 60.2153 28.2858C60.202 28.2774 60.189 28.2687 60.1762 28.2598C60.1633 28.2508 60.1508 28.2416 60.1384 28.232C60.126 28.2224 60.1139 28.2125 60.1021 28.2024C60.0903 28.1923 60.0786 28.1818 60.0672 28.171C60.0558 28.1602 60.0447 28.1492 60.0339 28.138C60.0231 28.1267 60.0126 28.1151 60.0024 28.1034C59.9921 28.0916 59.9821 28.0795 59.9724 28.0673C59.9627 28.0549 59.9533 28.0424 59.9444 28.0297C59.9352 28.0169 59.9265 28.004 59.9181 27.9908C59.9097 27.9777 59.9015 27.9643 59.8938 27.9508C59.886 27.9372 59.8785 27.9234 59.8715 27.9095C59.8643 27.8956 59.8576 27.8815 59.8512 27.8673C59.8447 27.853 59.8386 27.8386 59.833 27.8241C59.8272 27.8095 59.8219 27.7948 59.8169 27.7799C59.8119 27.7652 59.8073 27.7503 59.803 27.7352C59.7169 27.4234 58.4256 27.4712 55.6555 28.5635C52.6214 29.7611 49.2181 29.1394 45.4782 26.7825L43.2686 26.7825C39.5286 29.1394 36.1253 29.7611 33.0911 28.5635C30.3211 27.4712 29.0298 27.4234 28.9417 27.7352C28.9375 27.7502 28.9329 27.7651 28.9278 27.7799C28.9229 27.7947 28.9175 27.8093 28.9118 27.8239C28.9061 27.8384 28.9 27.8528 28.8936 27.867C28.8872 27.8812 28.8804 27.8953 28.8733 27.9092C28.8663 27.9231 28.8589 27.9368 28.8511 27.9504C28.8433 27.9639 28.8352 27.9772 28.8268 27.9904C28.8183 28.0036 28.8096 28.0165 28.8006 28.0292C28.7916 28.042 28.7822 28.0545 28.7725 28.0667C28.7628 28.079 28.7529 28.091 28.7427 28.1028C28.7324 28.1145 28.7219 28.1261 28.7111 28.1373C28.7003 28.1486 28.6892 28.1596 28.6779 28.1703C28.6666 28.181 28.655 28.1915 28.6431 28.2017C28.6312 28.2118 28.6191 28.2217 28.6068 28.2313C28.5945 28.2409 28.5819 28.2501 28.5691 28.2591C28.5563 28.2679 28.5433 28.2766 28.5301 28.285C28.5169 28.2933 28.5035 28.3013 28.49 28.3089C28.4764 28.3165 28.4626 28.3239 28.4486 28.331C28.4347 28.338 28.4206 28.3446 28.4063 28.3509C28.392 28.3573 28.3776 28.3632 28.363 28.3688C28.3485 28.3744 28.3338 28.3796 28.319 28.3845C28.3041 28.3895 28.2892 28.3939 28.2741 28.3981C28.2591 28.4023 28.2439 28.406 28.2287 28.4094C28.2135 28.4129 28.1982 28.416 28.1828 28.4187C28.1674 28.4213 28.152 28.4236 28.1365 28.4256C28.121 28.4275 28.1055 28.429 28.0899 28.4302C28.0743 28.4313 28.0587 28.4321 28.0431 28.4326C28.0275 28.433 28.0119 28.433 27.9963 28.4327C27.9807 28.4323 27.9651 28.4316 27.9496 28.4304C27.934 28.4294 27.9184 28.4278 27.903 28.4259C27.8875 28.4241 27.872 28.4218 27.8566 28.4192C27.8412 28.4166 27.8259 28.4136 27.8107 28.4103C27.7954 28.4068 27.7803 28.4031 27.7652 28.399C27.7502 28.3949 27.7353 28.3904 27.7205 28.3857C27.7057 28.3808 27.691 28.3756 27.6764 28.3702C27.6619 28.3646 27.6475 28.3587 27.6332 28.3524C27.619 28.3462 27.6049 28.3396 27.5909 28.3327C27.577 28.3257 27.5632 28.3184 27.5496 28.3108C27.5361 28.3032 27.5227 28.2952 27.5096 28.287C27.4963 28.2786 27.4834 28.27 27.4706 28.2611C27.4578 28.2522 27.4453 28.2429 27.433 28.2334C27.4207 28.2238 27.4087 28.214 27.3968 28.2039C27.385 28.1938 27.3734 28.1833 27.3621 28.1726C27.3508 28.1619 27.3398 28.1509 27.329 28.1396C27.3183 28.1284 27.3078 28.1168 27.2976 28.1051C27.2874 28.0933 27.2775 28.0813 27.2679 28.069C27.2583 28.0568 27.249 28.0443 27.24 28.0317C27.231 28.0189 27.2224 28.006 27.214 27.9928C27.2057 27.9797 27.1977 27.9663 27.19 27.9528C27.1822 27.9393 27.1749 27.9255 27.1679 27.9117C27.1609 27.8977 27.1542 27.8837 27.1479 27.8694C27.1416 27.8552 27.1356 27.8408 27.1301 27.8263C27.1244 27.8118 27.1192 27.7971 27.1143 27.7824C27.1094 27.7675 27.1049 27.7526 27.1007 27.7376C27.0965 27.7226 27.0928 27.7075 27.0893 27.6923C27.0859 27.6771 27.0829 27.6619 27.0803 27.6465C27.0777 27.6312 27.0754 27.6158 27.0735 27.6003C27.0716 27.5848 27.07 27.5694 27.0689 27.5539C27.0678 27.5383 27.0671 27.5228 27.0667 27.5071C27.0663 27.4916 27.0663 27.4761 27.0667 27.4605C27.0672 27.4449 27.068 27.4294 27.0692 27.4139C27.0703 27.3983 27.0719 27.3828 27.0738 27.3673C27.0757 27.3519 27.078 27.3365 27.0807 27.3212C27.0834 27.3059 27.0865 27.2906 27.09 27.2754C27.0934 27.2603 27.0972 27.2451 27.1014 27.2301C27.6677 25.2081 29.994 25.2922 33.8009 26.7959C35.5781 27.498 37.5811 27.3966 39.8232 26.4592C39.7379 26.3935 39.662 26.3182 39.5956 26.2334L36.5844 22.3558C36.5711 22.3393 36.5584 22.3225 36.5462 22.3054C36.534 22.2883 36.5223 22.2708 36.5111 22.2529C36.4999 22.2351 36.4893 22.2169 36.4792 22.1985C36.469 22.18 36.4595 22.1613 36.4505 22.1422C36.4415 22.1232 36.433 22.1039 36.4251 22.0844C36.4172 22.0649 36.41 22.0451 36.4033 22.0251C36.3965 22.0052 36.3904 21.985 36.385 21.9647C36.3794 21.9444 36.3746 21.9239 36.3703 21.9034C36.366 21.8827 36.3622 21.862 36.3591 21.8411C36.3561 21.8203 36.3536 21.7994 36.3518 21.7784C36.3499 21.7575 36.3486 21.7364 36.3481 21.7154C36.3475 21.6943 36.3475 21.6733 36.3482 21.6523C36.3487 21.6312 36.35 21.6102 36.352 21.5892C36.3538 21.5682 36.3563 21.5473 36.3594 21.5265C36.3625 21.5057 36.3662 21.485 36.3706 21.4644C36.3749 21.4438 36.3798 21.4233 36.3854 21.4031C36.3985 21.3606 36.4137 21.3189 36.4313 21.2781C36.4488 21.2372 36.4684 21.1974 36.4902 21.1586C36.5118 21.1198 36.5355 21.0823 36.5613 21.046C36.5869 21.0098 36.6143 20.9749 36.6438 20.9415C36.6731 20.9082 36.7041 20.8764 36.7368 20.8464C36.7695 20.8162 36.8036 20.7879 36.8393 20.7614C36.875 20.735 36.912 20.7104 36.9504 20.6878C36.9886 20.6653 37.0279 20.6448 37.0684 20.6263C37.1946 20.5652 40.1771 19.1304 44.6823 19.1304C47.4027 19.1304 50.1115 19.6507 52.7267 20.6761C52.7498 20.6842 52.7727 20.693 52.7954 20.7025C52.8181 20.712 52.8405 20.7222 52.8625 20.7329C52.8846 20.7437 52.9063 20.7551 52.9278 20.7671C52.9492 20.7791 52.9702 20.7917 52.991 20.8049C53.0117 20.8181 53.032 20.832 53.0519 20.8464C53.0718 20.8608 53.0913 20.8757 53.1103 20.8912C53.1293 20.9067 53.148 20.9228 53.1661 20.9394C53.1842 20.956 53.2018 20.9731 53.219 20.9907C53.2361 21.0082 53.2527 21.0263 53.2689 21.0449C53.2849 21.0634 53.3004 21.0824 53.3155 21.1018C53.3306 21.1213 53.345 21.1412 53.3589 21.1615C53.3727 21.1817 53.386 21.2024 53.3987 21.2234C53.4113 21.2445 53.4234 21.2659 53.4348 21.2876C53.4463 21.3093 53.4571 21.3314 53.4673 21.3537C53.4775 21.3761 53.487 21.3987 53.4959 21.4216C53.5048 21.4445 53.513 21.4677 53.5206 21.491C53.527 21.5133 53.5329 21.5357 53.538 21.5583C53.543 21.5809 53.5474 21.6037 53.551 21.6266C53.5546 21.6495 53.5573 21.6725 53.5595 21.6956C53.5615 21.7187 53.5628 21.7418 53.5634 21.765C53.564 21.7882 53.5638 21.8113 53.5629 21.8345C53.5619 21.8577 53.5602 21.8808 53.5578 21.9038C53.5553 21.9269 53.5521 21.9498 53.5482 21.9727C53.5442 21.9955 53.5396 22.0182 53.5342 22.0407C53.5287 22.0633 53.5225 22.0856 53.5157 22.1078C53.5088 22.1299 53.5012 22.1518 53.4929 22.1734C53.4845 22.1951 53.4756 22.2164 53.4659 22.2375C53.4562 22.2585 53.4458 22.2792 53.4348 22.2996C53.4236 22.32 53.412 22.34 53.3996 22.3596C53.3872 22.3792 53.3742 22.3984 53.3606 22.4172C53.347 22.4359 53.3328 22.4542 53.318 22.4721C53.3031 22.4899 53.2878 22.5072 53.2719 22.5241L49.9049 26.3004C49.8704 26.3382 49.834 26.374 49.7957 26.4078C49.7573 26.4416 49.7171 26.4732 49.6754 26.5026C49.6336 26.5321 49.5903 26.5592 49.5455 26.5839C49.5007 26.6086 49.4547 26.6308 49.4075 26.6505L49.4075 26.6486Z"></path><path id="路径 3" fill-rule="evenodd" fill="url(#linear_1)" opacity="1" d="M51.1763 30.7655C51.955 31.1443 70.1634 40.1987 66.4616 54.3915C66.4405 54.667 64.9312 65.0433 45.4621 65.0433C45.0604 65.0433 44.6567 65.0376 44.2397 65.0299C44.2282 65.0299 44.2167 65.0204 44.2033 65.0204C25.004 64.919 23.5004 54.6498 23.4448 54.2021C19.7757 40.1872 37.984 31.1347 38.7607 30.754L39.0668 30.6086L45.1789 30.6086C45.1981 30.6086 45.2172 30.6163 45.2363 30.6201L50.8722 30.6201L51.1783 30.7655L51.1763 30.7655ZM49.8219 38.7754L44.8289 43.7684L39.8358 38.7754C39.8195 38.759 39.8027 38.7431 39.7857 38.7275C39.7686 38.712 39.751 38.6969 39.7331 38.6822C39.7153 38.6675 39.6971 38.6533 39.6785 38.6395C39.66 38.6257 39.641 38.6124 39.6219 38.5996C39.6026 38.5867 39.5831 38.5743 39.5633 38.5624C39.5435 38.5505 39.5233 38.5391 39.5029 38.5282C39.4826 38.5173 39.4619 38.5069 39.441 38.497C39.4201 38.4871 39.399 38.4777 39.3776 38.4689C39.3562 38.46 39.3346 38.4517 39.3129 38.4439C39.2911 38.4361 39.2693 38.4288 39.2471 38.4221C39.225 38.4154 39.2027 38.4092 39.1802 38.4035C39.1578 38.3979 39.1352 38.3929 39.1126 38.3884C39.0899 38.3838 39.0671 38.3799 39.0443 38.3764C39.0214 38.373 38.9985 38.3702 38.9755 38.3679C38.9524 38.3657 38.9294 38.364 38.9063 38.3628C38.8831 38.3617 38.8601 38.3611 38.8369 38.361C38.8138 38.361 38.7907 38.3616 38.7676 38.3627C38.7446 38.3639 38.7215 38.3656 38.6985 38.3678C38.6754 38.3701 38.6525 38.3729 38.6296 38.3763C38.6067 38.3796 38.584 38.3836 38.5613 38.3881C38.5386 38.3926 38.5161 38.3976 38.4937 38.4033C38.4712 38.4089 38.4489 38.415 38.4268 38.4217C38.4046 38.4284 38.3827 38.4357 38.3609 38.4434C38.3392 38.4512 38.3175 38.4595 38.2962 38.4684C38.2749 38.4772 38.2537 38.4866 38.2328 38.4964C38.2119 38.5063 38.1912 38.5167 38.1708 38.5275C38.1505 38.5385 38.1303 38.5499 38.1105 38.5617C38.0907 38.5736 38.071 38.586 38.0518 38.5988C38.0326 38.6116 38.0137 38.6249 37.9952 38.6387C37.9766 38.6525 37.9583 38.6667 37.9405 38.6813C37.9226 38.696 37.905 38.7111 37.8879 38.7266C37.8708 38.7422 37.854 38.7581 37.8377 38.7744C37.8213 38.7907 37.8053 38.8075 37.7898 38.8246C37.7742 38.8417 37.7591 38.8592 37.7445 38.8771C37.7298 38.895 37.7156 38.9132 37.7018 38.9318C37.688 38.9503 37.6747 38.9692 37.6618 38.9885C37.6489 39.0077 37.6366 39.0272 37.6247 39.047C37.6128 39.0669 37.6014 39.087 37.5906 39.1074C37.5796 39.1278 37.5692 39.1484 37.5593 39.1693C37.5494 39.1902 37.54 39.2113 37.5312 39.2327C37.5223 39.254 37.514 39.2756 37.5062 39.2973C37.4984 39.3191 37.4911 39.3411 37.4844 39.3632C37.4777 39.3853 37.4716 39.4076 37.4659 39.43C37.4603 39.4524 37.4552 39.475 37.4507 39.4976C37.4461 39.5203 37.4421 39.5431 37.4387 39.566C37.4353 39.5888 37.4325 39.6118 37.4302 39.6348C37.4279 39.6579 37.4263 39.6809 37.4251 39.704C37.4239 39.727 37.4234 39.7502 37.4233 39.7733C37.4233 39.7964 37.4239 39.8196 37.425 39.8426C37.4262 39.8657 37.4279 39.8888 37.4301 39.9118C37.4324 39.9349 37.4352 39.9578 37.4386 39.9806C37.4419 40.0035 37.4458 40.0263 37.4504 40.049C37.4549 40.0716 37.4599 40.0942 37.4656 40.1167C37.4711 40.1391 37.4773 40.1613 37.484 40.1835C37.4908 40.2056 37.4979 40.2276 37.5057 40.2494C37.5135 40.2712 37.5218 40.2927 37.5307 40.314C37.5395 40.3355 37.5489 40.3565 37.5587 40.3774C37.5686 40.3983 37.579 40.419 37.5898 40.4394C37.6008 40.4598 37.6122 40.48 37.624 40.4998C37.6358 40.5196 37.6482 40.5391 37.6611 40.5584C37.674 40.5777 37.6872 40.5966 37.701 40.6152C37.7148 40.6337 37.7289 40.6519 37.7436 40.6698C37.7582 40.6877 37.7734 40.7052 37.7889 40.7223C37.8044 40.7394 37.8204 40.7562 37.8367 40.7726L42.34 45.2778L39.9449 45.2778C39.9227 45.2792 39.9006 45.2811 39.8785 45.2836C39.8563 45.2861 39.8344 45.289 39.8124 45.2925C39.7904 45.296 39.7686 45.3001 39.7469 45.3045C39.7251 45.3091 39.7035 45.3141 39.6819 45.3197C39.6604 45.3252 39.639 45.3313 39.6177 45.3378C39.5965 45.3444 39.5754 45.3514 39.5545 45.359C39.5336 45.3665 39.5129 45.3745 39.4924 45.383C39.4718 45.3915 39.4516 45.4006 39.4314 45.4101C39.4113 45.4195 39.3914 45.4295 39.3718 45.4399C39.3522 45.4503 39.3327 45.4611 39.3136 45.4725C39.2945 45.4838 39.2756 45.4955 39.2571 45.5078C39.2385 45.52 39.2202 45.5327 39.2023 45.5458C39.1842 45.5588 39.1666 45.5723 39.1493 45.5862C39.132 45.6001 39.1149 45.6145 39.0982 45.6292C39.0817 45.6439 39.0653 45.6589 39.0494 45.6744C39.0334 45.6899 39.0178 45.7057 39.0026 45.722C38.9874 45.7382 38.9726 45.7547 38.9582 45.7717C38.9437 45.7885 38.9297 45.8057 38.9161 45.8233C38.9025 45.8409 38.8893 45.8587 38.8765 45.8769C38.8637 45.8951 38.8514 45.9137 38.8394 45.9324C38.8275 45.9512 38.8161 45.9703 38.8051 45.9896C38.7941 46.0088 38.7836 46.0284 38.7734 46.0482C38.7633 46.068 38.7537 46.088 38.7447 46.1083C38.7355 46.1286 38.7268 46.149 38.7187 46.1697C38.7104 46.1904 38.7028 46.2112 38.6956 46.2323C38.6883 46.2533 38.6817 46.2745 38.6755 46.2958C38.6693 46.3172 38.6636 46.3387 38.6584 46.3603C38.6532 46.3819 38.6485 46.4037 38.6444 46.4255C38.6402 46.4473 38.6365 46.4692 38.6335 46.4912C38.6303 46.5132 38.6276 46.5353 38.6256 46.5575C38.6234 46.5796 38.6219 46.6018 38.6209 46.6239C38.6198 46.6462 38.6193 46.6684 38.6193 46.6905C38.6193 46.7128 38.6198 46.735 38.6209 46.7573C38.6219 46.7794 38.6234 46.8016 38.6256 46.8237C38.6276 46.8459 38.6303 46.8679 38.6335 46.89C38.6365 46.9119 38.6402 46.9339 38.6444 46.9557C38.6485 46.9775 38.6532 46.9993 38.6584 47.0209C38.6636 47.0425 38.6693 47.0639 38.6755 47.0853C38.6817 47.1066 38.6883 47.1278 38.6956 47.1489C38.7028 47.1699 38.7104 47.1907 38.7187 47.2115C38.7268 47.2321 38.7355 47.2525 38.7447 47.2728C38.7538 47.2931 38.7634 47.3131 38.7734 47.333C38.7836 47.3528 38.7941 47.3723 38.8051 47.3916C38.8161 47.4109 38.8275 47.43 38.8394 47.4487C38.8514 47.4675 38.8637 47.4859 38.8765 47.5042C38.8893 47.5224 38.9025 47.5403 38.9161 47.5578C38.9297 47.5754 38.9437 47.5926 38.9582 47.6095C38.9726 47.6265 38.9874 47.643 39.0026 47.6592C39.0178 47.6754 39.0334 47.6912 39.0494 47.7067C39.0653 47.7222 39.0817 47.7373 39.0982 47.752C39.1149 47.7667 39.132 47.7811 39.1493 47.795C39.1666 47.8089 39.1842 47.8223 39.2023 47.8354C39.2202 47.8485 39.2386 47.8611 39.2571 47.8733C39.2757 47.8855 39.2945 47.8973 39.3136 47.9087C39.3327 47.92 39.3522 47.9308 39.3718 47.9413C39.3914 47.9517 39.4113 47.9617 39.4314 47.9711C39.4516 47.9806 39.4718 47.9896 39.4924 47.9981C39.5129 48.0066 39.5336 48.0147 39.5545 48.0222C39.5754 48.0297 39.5965 48.0368 39.6177 48.0434C39.639 48.0499 39.6604 48.0559 39.6819 48.0615C39.7035 48.067 39.7251 48.0721 39.7469 48.0766C39.7686 48.0811 39.7904 48.0851 39.8124 48.0886C39.8344 48.0921 39.8563 48.0951 39.8785 48.0975C39.9006 48.0999 39.9227 48.1019 39.9449 48.1033L43.4668 48.1033L43.4668 50.3512L39.9181 50.3512C39.8939 50.3524 39.8698 50.3542 39.8457 50.3565C39.8216 50.3589 39.7975 50.3618 39.7736 50.3653C39.7496 50.3688 39.7257 50.3729 39.7019 50.3776C39.6782 50.3821 39.6546 50.3873 39.631 50.3931C39.6075 50.3989 39.5841 50.4052 39.5609 50.4121C39.5377 50.419 39.5146 50.4263 39.4917 50.4343C39.4689 50.4423 39.4463 50.4508 39.4238 50.4599C39.4013 50.4689 39.379 50.4784 39.357 50.4886C39.335 50.4987 39.3133 50.5093 39.2918 50.5204C39.2702 50.5315 39.249 50.5432 39.2281 50.5554C39.2072 50.5675 39.1865 50.5801 39.1661 50.5932C39.1458 50.6064 39.1258 50.6199 39.106 50.634C39.0863 50.6481 39.0669 50.6627 39.0479 50.6777C39.0289 50.6927 39.0103 50.7081 38.9921 50.724C38.9738 50.7398 38.9558 50.7562 38.9384 50.7729C38.9209 50.7897 38.9037 50.8068 38.8871 50.8243C38.8704 50.8419 38.8542 50.8598 38.8383 50.8781C38.8224 50.8965 38.807 50.9152 38.7921 50.9342C38.7771 50.9533 38.7627 50.9726 38.7486 50.9924C38.7345 51.0122 38.721 51.0323 38.708 51.0526C38.6949 51.073 38.6823 51.0937 38.6702 51.1147C38.6581 51.1357 38.6466 51.1569 38.6354 51.1784C38.6244 51.2 38.6138 51.2218 38.6038 51.2438C38.5937 51.2658 38.5842 51.288 38.5752 51.3105C38.5662 51.333 38.5578 51.3557 38.5499 51.3786C38.542 51.4015 38.5346 51.4246 38.5278 51.4478C38.521 51.471 38.5147 51.4944 38.509 51.518C38.5033 51.5415 38.4981 51.5652 38.4936 51.589C38.489 51.6127 38.485 51.6367 38.4816 51.6606C38.4781 51.6846 38.4753 51.7086 38.4729 51.7327C38.4707 51.7568 38.469 51.781 38.4678 51.8052C38.4667 51.8294 38.466 51.8536 38.466 51.8778C38.466 51.902 38.4667 51.9262 38.4678 51.9503C38.469 51.9746 38.4707 51.9987 38.4729 52.0228C38.4753 52.0469 38.4781 52.0711 38.4816 52.095C38.485 52.1189 38.489 52.1428 38.4936 52.1666C38.4981 52.1903 38.5033 52.214 38.509 52.2376C38.5147 52.2612 38.521 52.2845 38.5278 52.3077C38.5346 52.3309 38.542 52.3541 38.5499 52.3769C38.5578 52.3998 38.5662 52.4225 38.5752 52.445C38.5842 52.4675 38.5937 52.4897 38.6038 52.5118C38.6138 52.5338 38.6244 52.5556 38.6354 52.5772C38.6466 52.5987 38.6581 52.6199 38.6702 52.6409C38.6823 52.6619 38.6949 52.6826 38.708 52.703C38.721 52.7233 38.7345 52.7434 38.7486 52.7632C38.7627 52.7829 38.7771 52.8022 38.7921 52.8214C38.807 52.8405 38.8224 52.8591 38.8383 52.8774C38.8542 52.8958 38.8704 52.9137 38.8871 52.9312C38.9037 52.9488 38.9209 52.9659 38.9384 52.9827C38.9558 52.9994 38.9738 53.0157 38.9921 53.0315C39.0103 53.0474 39.0289 53.0629 39.0479 53.0779C39.0669 53.0929 39.0863 53.1074 39.106 53.1215C39.1258 53.1356 39.1458 53.1492 39.1661 53.1623C39.1865 53.1755 39.2072 53.1881 39.2281 53.2002C39.249 53.2123 39.2702 53.224 39.2918 53.2351C39.3133 53.2462 39.335 53.2568 39.357 53.2669C39.379 53.2771 39.4013 53.2867 39.4238 53.2957C39.4463 53.3048 39.4689 53.3132 39.4917 53.3212C39.5146 53.3292 39.5377 53.3366 39.5609 53.3434C39.5841 53.3503 39.6075 53.3566 39.631 53.3624C39.6546 53.3682 39.6782 53.3734 39.7019 53.378C39.7257 53.3826 39.7496 53.3867 39.7736 53.3902C39.7975 53.3937 39.8216 53.3966 39.8457 53.399C39.8698 53.4014 39.8939 53.4032 39.9181 53.4044L43.4668 53.4044L43.4668 56.4671C43.4668 57.2515 44.0981 57.8809 44.8825 57.8809C44.9056 57.8809 44.9287 57.8804 44.9518 57.8793C44.9749 57.8781 44.998 57.8765 45.021 57.8743C45.044 57.872 45.0669 57.8692 45.0899 57.8659C45.1128 57.8624 45.1355 57.8585 45.1582 57.854C45.1809 57.8495 45.2035 57.8445 45.2259 57.8389C45.2484 57.8332 45.2707 57.8271 45.2928 57.8204C45.3149 57.8137 45.3369 57.8065 45.3587 57.7987C45.3805 57.7909 45.4021 57.7826 45.4235 57.7738C45.4448 57.7649 45.466 57.7556 45.4869 57.7457C45.5078 57.7357 45.5285 57.7253 45.5489 57.7145C45.5693 57.7035 45.5895 57.6922 45.6093 57.6802C45.6291 57.6684 45.6487 57.656 45.6678 57.6431C45.6871 57.6303 45.706 57.6169 45.7246 57.6032C45.7432 57.5894 45.7614 57.5751 45.7793 57.5605C45.7972 57.5458 45.8146 57.5307 45.8318 57.5151C45.8489 57.4996 45.8657 57.4837 45.882 57.4673C45.8984 57.4508 45.9143 57.4341 45.9298 57.4169C45.9453 57.3998 45.9604 57.3822 45.9751 57.3644C45.9897 57.3466 46.0039 57.3283 46.0178 57.3097C46.0315 57.2911 46.0447 57.2722 46.0576 57.2529C46.0704 57.2337 46.0828 57.2141 46.0947 57.1942C46.1065 57.1744 46.1179 57.1542 46.1288 57.1339C46.1396 57.1134 46.15 57.0927 46.1599 57.0718C46.1698 57.0509 46.1791 57.0297 46.1879 57.0083C46.1967 56.9869 46.205 56.9654 46.2127 56.9436C46.2205 56.9218 46.2277 56.8998 46.2344 56.8777C46.241 56.8555 46.2471 56.8332 46.2527 56.8108C46.2583 56.7882 46.2633 56.7656 46.2678 56.743C46.2722 56.7203 46.2761 56.6975 46.2795 56.6746C46.2828 56.6518 46.2856 56.6288 46.2878 56.6058C46.2901 56.5827 46.2917 56.5596 46.2928 56.5365C46.2939 56.5134 46.2943 56.4903 46.2943 56.4671L46.2943 53.4044L49.8104 53.4044C49.8354 53.4044 49.8604 53.4038 49.8854 53.4025C49.9103 53.4014 49.9352 53.3995 49.9601 53.3971C49.9849 53.3946 50.0097 53.3915 50.0344 53.3878C50.0592 53.3841 50.0837 53.3799 50.1083 53.375C50.1328 53.3702 50.1571 53.3647 50.1814 53.3586C50.2056 53.3526 50.2296 53.3459 50.2536 53.3387C50.2775 53.3314 50.3012 53.3235 50.3248 53.3151C50.3483 53.3068 50.3716 53.2978 50.3946 53.2882C50.4177 53.2786 50.4406 53.2685 50.4632 53.2578C50.4858 53.2471 50.5081 53.2359 50.5301 53.2242C50.5521 53.2123 50.5738 53.2 50.5952 53.1872C50.6167 53.1744 50.6378 53.161 50.6586 53.1471C50.6794 53.1332 50.6998 53.1188 50.7198 53.1039C50.7399 53.0891 50.7595 53.0737 50.7789 53.0578C50.7982 53.0419 50.8171 53.0257 50.8357 53.0089C50.8541 52.9922 50.8723 52.9749 50.8899 52.9572C50.9076 52.9395 50.9248 52.9215 50.9416 52.903C50.9583 52.8845 50.9747 52.8656 50.9905 52.8463C51.0064 52.8269 51.0217 52.8072 51.0366 52.7872C51.0515 52.7671 51.0659 52.7467 51.0798 52.7259C51.0937 52.7051 51.107 52.6841 51.1198 52.6626C51.1327 52.6412 51.145 52.6194 51.1568 52.5974C51.1685 52.5754 51.1798 52.553 51.1905 52.5304C51.2012 52.5079 51.2112 52.485 51.2208 52.4619C51.2303 52.4389 51.2394 52.4156 51.2478 52.3921C51.2562 52.3685 51.264 52.3448 51.2713 52.3209C51.2786 52.2969 51.2852 52.2729 51.2913 52.2487C51.2974 52.2245 51.3029 52.2001 51.3077 52.1756C51.3126 52.1511 51.3169 52.1265 51.3205 52.1018C51.3242 52.0771 51.3273 52.0522 51.3297 52.0274C51.3321 52.0025 51.334 51.9776 51.3352 51.9527C51.3364 51.9277 51.337 51.9028 51.337 51.8778C51.337 51.8528 51.3364 51.8279 51.3352 51.8028C51.334 51.7779 51.3321 51.753 51.3297 51.7281C51.3273 51.7033 51.3242 51.6785 51.3205 51.6538C51.3169 51.6291 51.3126 51.6044 51.3077 51.5799C51.3029 51.5554 51.2974 51.5311 51.2913 51.5068C51.2852 51.4826 51.2786 51.4586 51.2713 51.4346C51.264 51.4107 51.2562 51.387 51.2478 51.3634C51.2394 51.3399 51.2303 51.3166 51.2208 51.2936C51.2112 51.2705 51.2012 51.2477 51.1905 51.2251C51.1798 51.2025 51.1685 51.1801 51.1568 51.1582C51.145 51.1361 51.1327 51.1144 51.1198 51.093C51.107 51.0715 51.0937 51.0504 51.0798 51.0297C51.0659 51.0089 51.0515 50.9884 51.0366 50.9683C51.0217 50.9483 51.0064 50.9286 50.9905 50.9093C50.9747 50.89 50.9583 50.8711 50.9416 50.8526C50.9248 50.834 50.9076 50.816 50.8899 50.7983C50.8723 50.7806 50.8541 50.7634 50.8357 50.7467C50.8171 50.7299 50.7982 50.7136 50.7789 50.6977C50.7595 50.6818 50.7399 50.6665 50.7198 50.6516C50.6998 50.6367 50.6794 50.6224 50.6586 50.6085C50.6378 50.5946 50.6167 50.5812 50.5952 50.5684C50.5738 50.5556 50.5521 50.5432 50.5301 50.5314C50.5081 50.5197 50.4858 50.5084 50.4632 50.4977C50.4406 50.4871 50.4177 50.4769 50.3946 50.4673C50.3716 50.4578 50.3483 50.4489 50.3248 50.4404C50.3012 50.432 50.2775 50.4242 50.2536 50.4169C50.2296 50.4097 50.2056 50.4029 50.1814 50.3969C50.1571 50.3908 50.1328 50.3854 50.1083 50.3805C50.0837 50.3756 50.0592 50.3714 50.0344 50.3677C50.0097 50.364 49.9849 50.361 49.9601 50.3586C49.9352 50.3561 49.9103 50.3542 49.8854 50.353C49.8604 50.3518 49.8354 50.3512 49.8104 50.3512L46.2943 50.3512L46.2943 48.1033L49.8391 48.1033C49.8613 48.1019 49.8834 48.0999 49.9056 48.0975C49.9276 48.0951 49.9497 48.0921 49.9717 48.0886C49.9936 48.0851 50.0154 48.0811 50.0372 48.0766C50.059 48.0721 50.0806 48.067 50.1021 48.0615C50.1237 48.0559 50.145 48.0499 50.1662 48.0434C50.1875 48.0368 50.2086 48.0297 50.2295 48.0222C50.2504 48.0147 50.2712 48.0066 50.2917 47.9981C50.3121 47.9896 50.3325 47.9806 50.3526 47.9711C50.3728 47.9617 50.3926 47.9517 50.4122 47.9413C50.4319 47.9308 50.4512 47.92 50.4703 47.9087C50.4895 47.8973 50.5084 47.8855 50.5269 47.8733C50.5455 47.8611 50.5638 47.8485 50.5817 47.8354C50.5996 47.8223 50.6173 47.8089 50.6347 47.795C50.652 47.7811 50.6691 47.7667 50.6857 47.752C50.7024 47.7373 50.7187 47.7222 50.7347 47.7067C50.7507 47.6912 50.7663 47.6754 50.7814 47.6592C50.7967 47.643 50.8115 47.6265 50.8259 47.6095C50.8403 47.5926 50.8543 47.5754 50.8679 47.5578C50.8816 47.5403 50.8948 47.5224 50.9075 47.5042C50.9202 47.4859 50.9326 47.4675 50.9445 47.4487C50.9565 47.43 50.9678 47.4109 50.979 47.3916C50.99 47.3723 51.0005 47.3528 51.0105 47.333C51.0207 47.3131 51.0303 47.2931 51.0394 47.2728C51.0485 47.2525 51.0573 47.2321 51.0654 47.2115C51.0736 47.1907 51.0813 47.1699 51.0885 47.1489C51.0956 47.1278 51.1024 47.1066 51.1085 47.0853C51.1147 47.0639 51.1204 47.0425 51.1256 47.0209C51.1308 46.9993 51.1354 46.9775 51.1397 46.9557C51.1438 46.9339 51.1475 46.9119 51.1506 46.8899C51.1537 46.8679 51.1563 46.8459 51.1584 46.8237C51.1605 46.8016 51.1621 46.7794 51.1632 46.7573C51.1641 46.735 51.1647 46.7128 51.1647 46.6905C51.1647 46.6684 51.1641 46.6462 51.1632 46.6239C51.1621 46.6018 51.1605 46.5795 51.1584 46.5574C51.1563 46.5352 51.1537 46.5132 51.1506 46.4912C51.1475 46.4692 51.1438 46.4473 51.1397 46.4255C51.1354 46.4037 51.1308 46.3819 51.1256 46.3603C51.1204 46.3387 51.1147 46.3171 51.1085 46.2958C51.1024 46.2745 51.0956 46.2533 51.0885 46.2323C51.0813 46.2112 51.0736 46.1904 51.0654 46.1697C51.0573 46.149 51.0485 46.1286 51.0394 46.1083C51.0303 46.088 51.0207 46.068 51.0105 46.0482C51.0005 46.0284 50.99 46.0088 50.979 45.9896C50.9678 45.9703 50.9565 45.9512 50.9445 45.9324C50.9326 45.9137 50.9202 45.8951 50.9075 45.8769C50.8948 45.8587 50.8816 45.8409 50.8679 45.8233C50.8543 45.8057 50.8403 45.7885 50.8259 45.7717C50.8115 45.7547 50.7967 45.7382 50.7814 45.722C50.7663 45.7057 50.7507 45.6899 50.7347 45.6744C50.7187 45.6589 50.7024 45.6439 50.6857 45.6292C50.6691 45.6145 50.652 45.6001 50.6347 45.5862C50.6173 45.5723 50.5996 45.5588 50.5817 45.5458C50.5638 45.5327 50.5455 45.52 50.5269 45.5078C50.5084 45.4955 50.4895 45.4838 50.4703 45.4725C50.4512 45.4611 50.4319 45.4503 50.4122 45.4399C50.3926 45.4295 50.3728 45.4195 50.3526 45.41C50.3325 45.4006 50.3121 45.3915 50.2917 45.383C50.2712 45.3745 50.2504 45.3665 50.2295 45.359C50.2086 45.3514 50.1875 45.3444 50.1662 45.3378C50.145 45.3313 50.1237 45.3252 50.1021 45.3197C50.0806 45.3141 50.059 45.3091 50.0372 45.3045C50.0154 45.3001 49.9936 45.296 49.9717 45.2925C49.9497 45.289 49.9276 45.2861 49.9056 45.2836C49.8834 45.2811 49.8613 45.2792 49.8391 45.2778L47.3196 45.2778L51.823 40.7726C51.8393 40.7562 51.8553 40.7394 51.8708 40.7223C51.8863 40.7052 51.9014 40.6877 51.9161 40.6698C51.9307 40.6519 51.9449 40.6337 51.9587 40.6152C51.9725 40.5966 51.9857 40.5777 51.9986 40.5584C52.0114 40.5391 52.0238 40.5196 52.0357 40.4998C52.0475 40.48 52.0589 40.4598 52.0698 40.4394C52.0807 40.419 52.0911 40.3983 52.101 40.3774C52.1108 40.3565 52.1202 40.3355 52.129 40.314C52.1378 40.2927 52.1462 40.2712 52.154 40.2494C52.1617 40.2276 52.1689 40.2056 52.1757 40.1835C52.1824 40.1613 52.1885 40.1391 52.1941 40.1167C52.1997 40.0942 52.2048 40.0716 52.2093 40.049C52.2138 40.0263 52.2177 40.0035 52.2211 39.9806C52.2245 39.9578 52.2273 39.9348 52.2296 39.9118C52.2318 39.8888 52.2335 39.8657 52.2347 39.8426C52.2358 39.8196 52.2364 39.7964 52.2363 39.7733C52.2363 39.7502 52.2357 39.727 52.2346 39.704C52.2334 39.6809 52.2317 39.6579 52.2295 39.6348C52.2272 39.6118 52.2244 39.5888 52.2209 39.566C52.2175 39.5431 52.2135 39.5203 52.209 39.4976C52.2045 39.475 52.1994 39.4524 52.1938 39.43C52.1881 39.4076 52.1819 39.3853 52.1753 39.3632C52.1686 39.3411 52.1612 39.3191 52.1535 39.2973C52.1457 39.2756 52.1374 39.254 52.1285 39.2327C52.1196 39.2113 52.1103 39.1902 52.1003 39.1693C52.0905 39.1484 52.0801 39.1278 52.0691 39.1074C52.0582 39.087 52.0468 39.0669 52.035 39.047C52.023 39.0272 52.0107 39.0077 51.9978 38.9885C51.985 38.9692 51.9717 38.9503 51.9578 38.9318C51.944 38.9132 51.9299 38.895 51.9152 38.8771C51.9005 38.8592 51.8854 38.8417 51.8699 38.8246C51.8544 38.8075 51.8384 38.7907 51.822 38.7744C51.8057 38.7581 51.7889 38.7422 51.7718 38.7266C51.7546 38.7111 51.7371 38.696 51.7192 38.6813C51.7014 38.6667 51.6831 38.6525 51.6645 38.6387C51.646 38.6249 51.627 38.6116 51.6078 38.5988C51.5886 38.586 51.569 38.5736 51.5492 38.5617C51.5293 38.5499 51.5092 38.5385 51.4888 38.5275C51.4685 38.5167 51.4478 38.5063 51.4269 38.4964C51.406 38.4866 51.3848 38.4772 51.3635 38.4684C51.3421 38.4595 51.3205 38.4512 51.2987 38.4434C51.2769 38.4357 51.2551 38.4284 51.2329 38.4217C51.2108 38.415 51.1885 38.4089 51.166 38.4033C51.1436 38.3976 51.1211 38.3926 51.0984 38.3881C51.0757 38.3836 51.0529 38.3796 51.0301 38.3763C51.0071 38.3729 50.9843 38.3701 50.9612 38.3678C50.9382 38.3656 50.9151 38.3639 50.8921 38.3627C50.869 38.3616 50.8459 38.361 50.8228 38.361C50.7996 38.3611 50.7765 38.3617 50.7534 38.3628C50.7303 38.364 50.7073 38.3657 50.6842 38.3679C50.6612 38.3702 50.6383 38.373 50.6154 38.3764C50.5926 38.3799 50.5697 38.3838 50.5471 38.3884C50.5244 38.3929 50.5019 38.3979 50.4795 38.4035C50.457 38.4092 50.4347 38.4154 50.4126 38.4221C50.3904 38.4288 50.3686 38.4361 50.3468 38.4439C50.325 38.4517 50.3035 38.46 50.2821 38.4689C50.2607 38.4777 50.2395 38.4871 50.2187 38.497C50.1977 38.5069 50.1771 38.5173 50.1567 38.5283C50.1363 38.5391 50.1162 38.5505 50.0965 38.5624C50.0767 38.5743 50.0571 38.5867 50.0378 38.5996C50.0186 38.6124 49.9997 38.6257 49.9812 38.6395C49.9626 38.6533 49.9444 38.6675 49.9266 38.6822C49.9086 38.6969 49.8911 38.712 49.874 38.7275C49.8569 38.7431 49.8402 38.759 49.8239 38.7754L49.8219 38.7754Z"></path></g></g><defs><rect id="path_0" x="0" y="0" width="88" height="88" rx="0" ry="0"/><linearGradient id="linear_0" x1="-0.0005823863340532939%" y1="50%" x2="100.00058238633405%" y2="50%" gradientUnits="objectBoundingBox"><stop offset="0" stop-color="#598BFC" stop-opacity="1" /><stop offset="1" stop-color="#178BFF" stop-opacity="1" /></linearGradient><linearGradient id="linear_1" x1="-0.00045065149075913314%" y1="50%" x2="100.00045065149077%" y2="50%" gradientUnits="objectBoundingBox"><stop offset="0" stop-color="#598BFC" stop-opacity="1" /><stop offset="1" stop-color="#178BFF" stop-opacity="1" /></linearGradient></defs></svg>