<svg xmlns="http://www.w3.org/2000/svg" xmlns:xlink="http://www.w3.org/1999/xlink" width="88" height="88" viewBox="0 0 88 88" fill="none"><g opacity="1"  transform="translate(0 0)"><path id="路径 1" fill-rule="evenodd" fill="url(#linear_0)" opacity="1" d="M25.416 32.0961L43.752 39.6801C44.424 39.9681 45.192 39.9681 45.96 39.6801L63.72 32.2881C66.024 31.3281 66.024 28.1601 63.72 27.2001L46.344 20.1921C45.672 19.9041 45 19.9041 44.328 20.1921L25.512 27.0081C23.112 27.8721 23.112 31.1361 25.416 32.0961ZM62.856 35.4561L48.072 41.7921C46.728 42.3681 45.768 43.7121 45.768 45.2481L45.768 63.9681C45.768 66.6561 48.456 68.48 50.952 67.4239L65.736 61.0881C67.08 60.5121 68.04 59.1681 68.04 57.6321L68.04 39.0081C68.04 36.3201 65.352 34.4001 62.856 35.4561ZM62.088 45.6321L52.968 49.5681C52.488 49.7601 52.008 49.5681 51.816 49.0881C51.624 48.6081 51.816 48.1281 52.296 47.9361L61.416 44.0001C61.896 43.8081 62.376 44.0001 62.568 44.4801C62.76 44.8641 62.568 45.4401 62.088 45.6321ZM23.016 61.0881L38.568 67.7122C40.776 68.6722 43.272 67.04 43.272 64.5441L43.272 45.0561C43.272 43.7121 42.504 42.4641 41.256 41.8881L25.704 35.2641C23.496 34.3041 21 35.9361 21 38.4321L21 57.9201C21 59.2641 21.768 60.5121 23.016 61.0881Z"></path></g><defs><linearGradient id="linear_0" x1="-0.00004152051444913607%" y1="50%" x2="100.00004152051444%" y2="50%" gradientUnits="objectBoundingBox"><stop offset="0" stop-color="#6C6CEA" stop-opacity="1" /><stop offset="1" stop-color="#8368FC" stop-opacity="1" /></linearGradient></defs></svg>