<svg xmlns="http://www.w3.org/2000/svg" xmlns:xlink="http://www.w3.org/1999/xlink" width="88" height="88" viewBox="0 0 88 88" fill="none"><g opacity="1"  transform="translate(0 0)"><path id="路径 2" fill-rule="evenodd" fill="url(#linear_0)" opacity="1" d="M42.5 44L42.5 39.5L45.5 39.5L45.5 44L57.5 44C57.5246 44 57.5491 44.0006 57.5736 44.0018C57.5981 44.003 57.6226 44.0048 57.647 44.0072C57.6715 44.0096 57.6958 44.0126 57.7201 44.0162C57.7444 44.0198 57.7685 44.024 57.7926 44.0288C57.8167 44.0336 57.8406 44.039 57.8644 44.045C57.8883 44.0509 57.9119 44.0575 57.9354 44.0646C57.9589 44.0717 57.9822 44.0794 58.0053 44.0877C58.0284 44.096 58.0513 44.1048 58.074 44.1142C58.0967 44.1236 58.1192 44.1335 58.1413 44.144C58.1635 44.1545 58.1854 44.1655 58.2071 44.1771C58.2287 44.1887 58.2501 44.2008 58.2711 44.2134C58.2922 44.226 58.313 44.2392 58.3333 44.2528C58.3537 44.2664 58.3738 44.2805 58.3935 44.2952C58.4133 44.3098 58.4326 44.3249 58.4516 44.3405C58.4706 44.3561 58.4892 44.3721 58.5073 44.3886C58.5255 44.405 58.5433 44.422 58.5606 44.4394C58.578 44.4567 58.5949 44.4745 58.6114 44.4927C58.6279 44.5108 58.6439 44.5294 58.6595 44.5484C58.6751 44.5674 58.6902 44.5867 58.7048 44.6065C58.7194 44.6262 58.7336 44.6463 58.7472 44.6667C58.7608 44.687 58.774 44.7078 58.7866 44.7289C58.7992 44.7499 58.8113 44.7712 58.8229 44.7929C58.8344 44.8145 58.8455 44.8365 58.856 44.8587C58.8664 44.8808 58.8764 44.9033 58.8858 44.926C58.8952 44.9487 58.904 44.9715 58.9123 44.9946C58.9206 45.0177 58.9283 45.0411 58.9354 45.0646C58.9425 45.0881 58.9491 45.1117 58.955 45.1355C58.961 45.1594 58.9664 45.1833 58.9712 45.2074C58.9759 45.2315 58.9802 45.2556 58.9838 45.2799C58.9874 45.3042 58.9904 45.3285 58.9928 45.353C58.9952 45.3774 58.997 45.4019 58.9982 45.4264C58.9994 45.4509 59 45.4754 59 45.5L59 48.761C58.7549 48.7031 58.5079 48.6548 58.259 48.616C58.0101 48.5772 57.7601 48.5481 57.509 48.5286C57.2579 48.5092 57.0064 48.4994 56.7545 48.4994C56.5026 48.4994 56.2511 48.5091 56 48.5285L56 47L32 47L32 48.5285C31.7489 48.5095 31.4974 48.5001 31.2455 48.5004C30.9936 48.5006 30.7422 48.5105 30.4911 48.53C30.24 48.5494 29.99 48.5784 29.7411 48.617C29.4923 48.6556 29.2452 48.7036 29 48.761L29 45.5C29 45.4754 29.0006 45.4509 29.0018 45.4264C29.003 45.4019 29.0048 45.3774 29.0072 45.353C29.0096 45.3285 29.0126 45.3042 29.0162 45.2799C29.0198 45.2556 29.024 45.2315 29.0288 45.2074C29.0336 45.1833 29.039 45.1594 29.045 45.1355C29.0509 45.1117 29.0575 45.0881 29.0646 45.0646C29.0717 45.0411 29.0794 45.0177 29.0877 44.9946C29.096 44.9715 29.1048 44.9487 29.1142 44.926C29.1236 44.9033 29.1335 44.8808 29.144 44.8587C29.1545 44.8365 29.1656 44.8145 29.1771 44.7929C29.1887 44.7713 29.2008 44.7499 29.2134 44.7289C29.226 44.7078 29.2392 44.687 29.2528 44.6667C29.2664 44.6463 29.2805 44.6262 29.2952 44.6065C29.3098 44.5867 29.3249 44.5674 29.3405 44.5484C29.3561 44.5294 29.3721 44.5108 29.3886 44.4927C29.405 44.4745 29.422 44.4567 29.4394 44.4394C29.4567 44.422 29.4745 44.405 29.4927 44.3886C29.5108 44.3721 29.5294 44.3561 29.5484 44.3405C29.5674 44.3249 29.5867 44.3098 29.6065 44.2952C29.6262 44.2805 29.6463 44.2664 29.6667 44.2528C29.687 44.2392 29.7078 44.226 29.7289 44.2134C29.7499 44.2008 29.7713 44.1887 29.7929 44.1771C29.8145 44.1655 29.8365 44.1545 29.8587 44.144C29.8808 44.1335 29.9033 44.1236 29.926 44.1142C29.9487 44.1048 29.9716 44.096 29.9947 44.0877C30.0178 44.0794 30.0411 44.0717 30.0646 44.0646C30.0881 44.0575 30.1117 44.0509 30.1355 44.045C30.1594 44.039 30.1833 44.0336 30.2074 44.0288C30.2315 44.024 30.2556 44.0198 30.2799 44.0162C30.3042 44.0126 30.3285 44.0096 30.353 44.0072C30.3774 44.0048 30.4019 44.003 30.4264 44.0018C30.4509 44.0006 30.4754 44 30.5 44L42.5 44ZM31.25 50C31.385 50 31.52 50.0033 31.6548 50.0099C31.7897 50.0165 31.9242 50.0265 32.0586 50.0397C32.193 50.053 32.327 50.0695 32.4605 50.0893C32.5941 50.1091 32.7271 50.1322 32.8595 50.1585C32.9919 50.1849 33.1236 50.2145 33.2546 50.2472C33.3856 50.28 33.5157 50.316 33.6448 50.3552C33.7741 50.3945 33.9022 50.4368 34.0294 50.4823C34.1565 50.5278 34.2824 50.5763 34.4071 50.628C34.5319 50.6797 34.6553 50.7344 34.7773 50.7921C34.8994 50.8498 35.0199 50.9105 35.139 50.9742C35.2581 51.0378 35.3755 51.1043 35.4913 51.1737C35.6072 51.2432 35.7212 51.3154 35.8334 51.3904C35.9457 51.4654 36.0561 51.5431 36.1645 51.6235C36.2729 51.704 36.3793 51.787 36.4837 51.8727C36.5881 51.9583 36.6903 52.0465 36.7903 52.1372C36.8904 52.2278 36.9882 52.3209 37.0836 52.4164C37.1791 52.5118 37.2722 52.6096 37.3628 52.7097C37.4535 52.8097 37.5417 52.9119 37.6273 53.0163C37.713 53.1207 37.796 53.2271 37.8764 53.3355C37.9569 53.4439 38.0346 53.5543 38.1096 53.6666C38.1846 53.7788 38.2568 53.8928 38.3262 54.0087C38.3957 54.1245 38.4622 54.2419 38.5258 54.361C38.5895 54.4801 38.6502 54.6006 38.7079 54.7227C38.7656 54.8447 38.8203 54.9681 38.872 55.0929C38.9237 55.2176 38.9722 55.3435 39.0177 55.4706C39.0632 55.5978 39.1055 55.7259 39.1447 55.8552C39.184 55.9843 39.22 56.1144 39.2527 56.2454C39.2855 56.3764 39.3151 56.5081 39.3415 56.6405C39.3678 56.7729 39.3909 56.9059 39.4107 57.0395C39.4305 57.173 39.447 57.307 39.4603 57.4414C39.4735 57.5757 39.4835 57.7103 39.4901 57.8452C39.4967 57.98 39.5 58.115 39.5 58.25C39.5 58.385 39.4967 58.52 39.4901 58.6548C39.4835 58.7897 39.4735 58.9242 39.4603 59.0586C39.447 59.193 39.4305 59.327 39.4107 59.4605C39.3909 59.594 39.3678 59.7271 39.3415 59.8595C39.3151 59.9919 39.2855 60.1236 39.2527 60.2546C39.22 60.3856 39.184 60.5157 39.1448 60.6448C39.1055 60.7741 39.0632 60.9022 39.0177 61.0294C38.9722 61.1564 38.9237 61.2824 38.872 61.4071C38.8203 61.5319 38.7656 61.6553 38.7079 61.7773C38.6502 61.8994 38.5895 62.0199 38.5258 62.139C38.4622 62.2581 38.3957 62.3755 38.3262 62.4913C38.2568 62.6072 38.1846 62.7212 38.1096 62.8334C38.0346 62.9457 37.9569 63.0561 37.8765 63.1645C37.796 63.2729 37.713 63.3793 37.6273 63.4837C37.5417 63.5881 37.4535 63.6903 37.3628 63.7903C37.2722 63.8904 37.1791 63.9882 37.0836 64.0836C36.9882 64.1791 36.8904 64.2722 36.7903 64.3628C36.6903 64.4535 36.5881 64.5417 36.4837 64.6273C36.3793 64.713 36.2729 64.796 36.1645 64.8764C36.0561 64.9569 35.9457 65.0346 35.8334 65.1096C35.7212 65.1846 35.6072 65.2568 35.4913 65.3262C35.3755 65.3957 35.2581 65.4622 35.139 65.5258C35.0199 65.5895 34.8994 65.6502 34.7773 65.7079C34.6553 65.7656 34.5319 65.8203 34.4071 65.872C34.2824 65.9237 34.1565 65.9722 34.0294 66.0177C33.9022 66.0632 33.7741 66.1055 33.6448 66.1447C33.5157 66.184 33.3856 66.22 33.2546 66.2527C33.1236 66.2855 32.9919 66.3151 32.8595 66.3415C32.7271 66.3678 32.5941 66.3909 32.4605 66.4107C32.327 66.4305 32.193 66.447 32.0586 66.4603C31.9242 66.4735 31.7897 66.4835 31.6548 66.4901C31.52 66.4967 31.385 66.5 31.25 66.5C31.115 66.5 30.98 66.4967 30.8452 66.4901C30.7103 66.4835 30.5757 66.4735 30.4414 66.4603C30.307 66.447 30.173 66.4305 30.0395 66.4107C29.9059 66.3909 29.7729 66.3678 29.6405 66.3415C29.5081 66.3151 29.3764 66.2855 29.2454 66.2527C29.1144 66.22 28.9843 66.184 28.8552 66.1448C28.7259 66.1055 28.5978 66.0632 28.4706 66.0177C28.3435 65.9722 28.2176 65.9237 28.0929 65.872C27.9681 65.8203 27.8447 65.7656 27.7227 65.7079C27.6006 65.6502 27.4801 65.5895 27.361 65.5258C27.2419 65.4622 27.1245 65.3957 27.0087 65.3262C26.8928 65.2568 26.7788 65.1846 26.6666 65.1096C26.5543 65.0346 26.4439 64.9569 26.3355 64.8764C26.227 64.796 26.1206 64.713 26.0163 64.6273C25.9119 64.5417 25.8097 64.4535 25.7097 64.3628C25.6096 64.2722 25.5118 64.1791 25.4164 64.0836C25.3209 63.9882 25.2278 63.8904 25.1372 63.7903C25.0465 63.6903 24.9583 63.5881 24.8727 63.4837C24.787 63.3793 24.704 63.2729 24.6235 63.1645C24.5431 63.0561 24.4654 62.9457 24.3904 62.8334C24.3154 62.7212 24.2432 62.6072 24.1737 62.4913C24.1043 62.3755 24.0378 62.2581 23.9741 62.139C23.9105 62.0199 23.8498 61.8994 23.7921 61.7773C23.7344 61.6553 23.6797 61.5319 23.628 61.4071C23.5763 61.2824 23.5277 61.1565 23.4823 61.0294C23.4368 60.9022 23.3944 60.7741 23.3552 60.6448C23.316 60.5157 23.28 60.3856 23.2472 60.2546C23.2144 60.1236 23.1849 59.9919 23.1585 59.8595C23.1322 59.7271 23.1091 59.5941 23.0893 59.4605C23.0695 59.327 23.053 59.193 23.0397 59.0586C23.0265 58.9242 23.0166 58.7897 23.0099 58.6548C23.0033 58.52 23 58.385 23 58.25C23 58.115 23.0033 57.98 23.0099 57.8452C23.0166 57.7103 23.0265 57.5757 23.0397 57.4414C23.053 57.307 23.0695 57.173 23.0893 57.0395C23.1091 56.9059 23.1322 56.7729 23.1585 56.6405C23.1849 56.5081 23.2144 56.3764 23.2472 56.2454C23.28 56.1144 23.316 55.9843 23.3552 55.8552C23.3944 55.7259 23.4368 55.5978 23.4823 55.4706C23.5277 55.3435 23.5763 55.2176 23.628 55.0929C23.6797 54.9681 23.7344 54.8447 23.7921 54.7227C23.8498 54.6006 23.9105 54.4801 23.9741 54.361C24.0378 54.2419 24.1043 54.1245 24.1737 54.0087C24.2432 53.8928 24.3154 53.7788 24.3904 53.6666C24.4654 53.5543 24.5431 53.4439 24.6235 53.3355C24.704 53.2271 24.787 53.1207 24.8727 53.0163C24.9583 52.9119 25.0465 52.8097 25.1372 52.7097C25.2278 52.6096 25.3209 52.5118 25.4164 52.4164C25.5118 52.3209 25.6096 52.2278 25.7097 52.1372C25.8097 52.0465 25.9119 51.9583 26.0163 51.8727C26.1206 51.787 26.227 51.704 26.3355 51.6235C26.4439 51.5431 26.5543 51.4654 26.6666 51.3904C26.7788 51.3154 26.8928 51.2432 27.0087 51.1737C27.1245 51.1043 27.2419 51.0378 27.361 50.9742C27.4801 50.9105 27.6006 50.8498 27.7227 50.7921C27.8447 50.7344 27.9681 50.6797 28.0929 50.628C28.2176 50.5763 28.3435 50.5278 28.4706 50.4823C28.5978 50.4368 28.7259 50.3945 28.8552 50.3552C28.9843 50.316 29.1144 50.28 29.2454 50.2472C29.3764 50.2145 29.5081 50.1849 29.6405 50.1585C29.7729 50.1322 29.9059 50.1091 30.0395 50.0893C30.173 50.0695 30.307 50.053 30.4414 50.0397C30.5757 50.0265 30.7103 50.0165 30.8452 50.0099C30.98 50.0033 31.115 50 31.25 50ZM31.25 53C31.1641 53 31.0782 53.0021 30.9924 53.0063C30.9065 53.0105 30.8209 53.0169 30.7354 53.0253C30.6499 53.0337 30.5646 53.0442 30.4797 53.0568C30.3947 53.0694 30.31 53.0841 30.2258 53.1009C30.1415 53.1176 30.0577 53.1365 29.9743 53.1573C29.891 53.1782 29.8082 53.2011 29.726 53.2261C29.6438 53.251 29.5622 53.278 29.4813 53.3069C29.4005 53.3358 29.3203 53.3667 29.2409 53.3996C29.1615 53.4325 29.083 53.4673 29.0053 53.504C28.9277 53.5408 28.8509 53.5794 28.7752 53.6199C28.6994 53.6604 28.6247 53.7028 28.5509 53.7469C28.4772 53.7911 28.4047 53.837 28.3333 53.8848C28.2618 53.9325 28.1916 53.982 28.1226 54.0332C28.0535 54.0844 27.9859 54.1372 27.9194 54.1917C27.853 54.2462 27.788 54.3023 27.7243 54.36C27.6606 54.4177 27.5984 54.4769 27.5377 54.5377C27.4769 54.5984 27.4177 54.6606 27.36 54.7243C27.3023 54.788 27.2462 54.853 27.1917 54.9194C27.1372 54.9859 27.0844 55.0535 27.0332 55.1226C26.982 55.1916 26.9325 55.2618 26.8848 55.3332C26.837 55.4047 26.7911 55.4772 26.7469 55.5509C26.7027 55.6247 26.6604 55.6994 26.6199 55.7751C26.5794 55.8509 26.5408 55.9277 26.504 56.0053C26.4673 56.083 26.4325 56.1615 26.3996 56.2409C26.3667 56.3203 26.3358 56.4005 26.3069 56.4813C26.278 56.5622 26.251 56.6438 26.2261 56.726C26.2011 56.8082 26.1782 56.891 26.1573 56.9743C26.1364 57.0577 26.1176 57.1415 26.1009 57.2258C26.0841 57.31 26.0694 57.3947 26.0568 57.4797C26.0442 57.5646 26.0337 57.6499 26.0253 57.7354C26.0169 57.8209 26.0105 57.9065 26.0063 57.9924C26.0021 58.0782 26 58.1641 26 58.25C26 58.3359 26.0021 58.4218 26.0063 58.5076C26.0105 58.5935 26.0169 58.6791 26.0253 58.7646C26.0337 58.8501 26.0442 58.9354 26.0568 59.0203C26.0694 59.1053 26.0841 59.1899 26.1009 59.2742C26.1176 59.3585 26.1364 59.4423 26.1573 59.5257C26.1782 59.609 26.2011 59.6918 26.2261 59.774C26.251 59.8562 26.278 59.9378 26.3069 60.0187C26.3358 60.0995 26.3667 60.1797 26.3996 60.2591C26.4325 60.3385 26.4673 60.417 26.504 60.4947C26.5408 60.5723 26.5794 60.6491 26.6199 60.7248C26.6604 60.8006 26.7027 60.8753 26.7469 60.949C26.7911 61.0228 26.837 61.0953 26.8848 61.1667C26.9325 61.2382 26.982 61.3084 27.0332 61.3774C27.0844 61.4464 27.1372 61.5141 27.1917 61.5806C27.2462 61.647 27.3023 61.712 27.36 61.7757C27.4177 61.8394 27.4769 61.9016 27.5377 61.9623C27.5984 62.0231 27.6606 62.0823 27.7243 62.14C27.788 62.1977 27.853 62.2538 27.9194 62.3083C27.9859 62.3628 28.0535 62.4156 28.1226 62.4668C28.1916 62.518 28.2618 62.5675 28.3333 62.6152C28.4047 62.6629 28.4772 62.7089 28.5509 62.7531C28.6247 62.7972 28.6994 62.8396 28.7752 62.8801C28.8509 62.9206 28.9277 62.9592 29.0053 62.9959C29.083 63.0327 29.1615 63.0675 29.2409 63.1003C29.3203 63.1332 29.4005 63.1642 29.4813 63.1931C29.5622 63.222 29.6438 63.249 29.726 63.2739C29.8082 63.2989 29.891 63.3218 29.9743 63.3426C30.0577 63.3635 30.1415 63.3824 30.2258 63.3991C30.31 63.4159 30.3947 63.4306 30.4797 63.4432C30.5646 63.4558 30.6499 63.4663 30.7354 63.4747C30.8209 63.4831 30.9065 63.4894 30.9924 63.4937C31.0782 63.4979 31.1641 63.5 31.25 63.5C31.3359 63.5 31.4218 63.4979 31.5076 63.4937C31.5935 63.4894 31.6791 63.4831 31.7646 63.4747C31.8501 63.4663 31.9354 63.4558 32.0203 63.4432C32.1053 63.4306 32.19 63.4159 32.2742 63.3991C32.3585 63.3824 32.4423 63.3635 32.5257 63.3426C32.609 63.3218 32.6918 63.2989 32.774 63.2739C32.8562 63.249 32.9378 63.222 33.0187 63.1931C33.0995 63.1642 33.1797 63.1332 33.2591 63.1003C33.3385 63.0675 33.417 63.0327 33.4947 62.9959C33.5723 62.9592 33.6491 62.9206 33.7248 62.8801C33.8006 62.8396 33.8753 62.7972 33.949 62.7531C34.0228 62.7089 34.0953 62.6629 34.1667 62.6152C34.2382 62.5675 34.3084 62.518 34.3774 62.4668C34.4465 62.4156 34.5141 62.3628 34.5806 62.3083C34.647 62.2538 34.712 62.1977 34.7757 62.14C34.8394 62.0823 34.9016 62.0231 34.9623 61.9623C35.0231 61.9016 35.0823 61.8394 35.14 61.7757C35.1977 61.712 35.2538 61.647 35.3083 61.5806C35.3628 61.5141 35.4156 61.4464 35.4668 61.3774C35.518 61.3084 35.5675 61.2382 35.6152 61.1667C35.663 61.0953 35.7089 61.0228 35.7531 60.9491C35.7972 60.8753 35.8396 60.8006 35.8801 60.7248C35.9206 60.6491 35.9592 60.5723 35.996 60.4947C36.0327 60.417 36.0675 60.3385 36.1003 60.2591C36.1332 60.1797 36.1642 60.0995 36.1931 60.0187C36.222 59.9378 36.249 59.8562 36.2739 59.774C36.2989 59.6918 36.3218 59.609 36.3426 59.5257C36.3635 59.4423 36.3824 59.3585 36.3991 59.2742C36.4159 59.1899 36.4306 59.1053 36.4432 59.0203C36.4558 58.9354 36.4663 58.8501 36.4747 58.7646C36.4831 58.6791 36.4895 58.5935 36.4937 58.5076C36.4979 58.4218 36.5 58.3359 36.5 58.25C36.5 58.1641 36.4979 58.0782 36.4937 57.9924C36.4895 57.9065 36.4831 57.8209 36.4747 57.7354C36.4663 57.6499 36.4558 57.5646 36.4432 57.4797C36.4306 57.3947 36.4159 57.31 36.3991 57.2258C36.3824 57.1415 36.3635 57.0577 36.3426 56.9743C36.3218 56.891 36.2989 56.8082 36.2739 56.726C36.249 56.6438 36.222 56.5622 36.1931 56.4813C36.1642 56.4005 36.1332 56.3203 36.1003 56.2409C36.0675 56.1615 36.0327 56.083 35.996 56.0053C35.9592 55.9277 35.9206 55.8509 35.8801 55.7751C35.8396 55.6994 35.7972 55.6247 35.7531 55.5509C35.7089 55.4772 35.663 55.4047 35.6152 55.3332C35.5675 55.2618 35.518 55.1916 35.4668 55.1226C35.4156 55.0535 35.3628 54.9859 35.3083 54.9194C35.2538 54.853 35.1977 54.788 35.14 54.7243C35.0823 54.6606 35.0231 54.5984 34.9623 54.5377C34.9016 54.4769 34.8394 54.4177 34.7757 54.36C34.712 54.3023 34.647 54.2462 34.5806 54.1917C34.5141 54.1372 34.4465 54.0844 34.3774 54.0332C34.3084 53.982 34.2382 53.9325 34.1667 53.8848C34.0953 53.837 34.0228 53.7911 33.949 53.7469C33.8753 53.7028 33.8006 53.6604 33.7248 53.6199C33.6491 53.5794 33.5723 53.5408 33.4947 53.504C33.417 53.4673 33.3385 53.4325 33.2591 53.3996C33.1797 53.3667 33.0995 53.3358 33.0187 53.3069C32.9378 53.278 32.8562 53.251 32.774 53.2261C32.6918 53.2011 32.609 53.1782 32.5257 53.1574C32.4423 53.1365 32.3585 53.1176 32.2742 53.1009C32.19 53.0841 32.1053 53.0694 32.0203 53.0568C31.9354 53.0442 31.8501 53.0337 31.7646 53.0253C31.6791 53.0169 31.5935 53.0105 31.5076 53.0063C31.4218 53.0021 31.3359 53 31.25 53ZM56.75 50C56.885 50 57.02 50.0033 57.1548 50.0099C57.2897 50.0165 57.4242 50.0265 57.5586 50.0397C57.693 50.053 57.827 50.0695 57.9605 50.0893C58.0941 50.1091 58.2271 50.1322 58.3595 50.1585C58.4919 50.1849 58.6236 50.2145 58.7546 50.2472C58.8856 50.28 59.0157 50.316 59.1448 50.3552C59.274 50.3945 59.4022 50.4368 59.5293 50.4823C59.6564 50.5278 59.7824 50.5763 59.9071 50.628C60.0319 50.6797 60.1553 50.7344 60.2773 50.7921C60.3994 50.8498 60.5199 50.9105 60.639 50.9742C60.7581 51.0378 60.8755 51.1043 60.9913 51.1737C61.1072 51.2432 61.2212 51.3154 61.3334 51.3904C61.4457 51.4654 61.5561 51.5431 61.6645 51.6235C61.7729 51.704 61.8793 51.787 61.9837 51.8727C62.0881 51.9583 62.1903 52.0465 62.2903 52.1372C62.3904 52.2278 62.4882 52.3209 62.5836 52.4164C62.6791 52.5118 62.7722 52.6096 62.8628 52.7097C62.9535 52.8097 63.0417 52.9119 63.1273 53.0163C63.213 53.1207 63.296 53.2271 63.3764 53.3355C63.4569 53.4439 63.5346 53.5543 63.6096 53.6666C63.6846 53.7788 63.7568 53.8928 63.8262 54.0087C63.8957 54.1245 63.9622 54.2419 64.0258 54.361C64.0895 54.4801 64.1502 54.6006 64.2079 54.7227C64.2656 54.8447 64.3203 54.9681 64.372 55.0929C64.4237 55.2176 64.4722 55.3435 64.5177 55.4706C64.5632 55.5978 64.6055 55.7259 64.6447 55.8552C64.684 55.9843 64.72 56.1144 64.7527 56.2454C64.7855 56.3764 64.8151 56.5081 64.8415 56.6405C64.8678 56.7729 64.8909 56.9059 64.9107 57.0395C64.9305 57.173 64.947 57.307 64.9603 57.4414C64.9735 57.5757 64.9834 57.7103 64.9901 57.8452C64.9967 57.98 65 58.115 65 58.25C65 58.385 64.9967 58.52 64.9901 58.6548C64.9834 58.7897 64.9735 58.9242 64.9603 59.0586C64.947 59.193 64.9305 59.327 64.9107 59.4605C64.8909 59.594 64.8678 59.7271 64.8415 59.8595C64.8151 59.9919 64.7855 60.1236 64.7527 60.2546C64.72 60.3856 64.684 60.5157 64.6447 60.6448C64.6055 60.7741 64.5632 60.9022 64.5177 61.0294C64.4722 61.1564 64.4237 61.2824 64.372 61.4071C64.3203 61.5319 64.2656 61.6553 64.2079 61.7773C64.1502 61.8994 64.0895 62.0199 64.0258 62.139C63.9622 62.2581 63.8957 62.3755 63.8262 62.4913C63.7568 62.6072 63.6846 62.7212 63.6096 62.8334C63.5346 62.9457 63.4569 63.0561 63.3764 63.1645C63.296 63.2729 63.213 63.3793 63.1273 63.4837C63.0417 63.5881 62.9535 63.6903 62.8628 63.7903C62.7722 63.8904 62.6791 63.9882 62.5836 64.0836C62.4882 64.1791 62.3904 64.2722 62.2903 64.3628C62.1903 64.4535 62.0881 64.5417 61.9837 64.6273C61.8793 64.713 61.7729 64.796 61.6645 64.8764C61.5561 64.9569 61.4457 65.0346 61.3334 65.1096C61.2212 65.1846 61.1072 65.2568 60.9913 65.3262C60.8755 65.3957 60.7581 65.4622 60.639 65.5258C60.5199 65.5895 60.3994 65.6502 60.2773 65.7079C60.1553 65.7656 60.0319 65.8203 59.9071 65.872C59.7824 65.9237 59.6564 65.9722 59.5293 66.0177C59.4022 66.0632 59.274 66.1055 59.1448 66.1447C59.0157 66.184 58.8856 66.22 58.7546 66.2527C58.6236 66.2855 58.4919 66.3151 58.3595 66.3415C58.2271 66.3678 58.0941 66.3909 57.9605 66.4107C57.827 66.4305 57.693 66.447 57.5586 66.4603C57.4242 66.4735 57.2897 66.4835 57.1548 66.4901C57.02 66.4967 56.885 66.5 56.75 66.5C56.6149 66.5 56.48 66.4967 56.3452 66.4901C56.2103 66.4835 56.0757 66.4735 55.9414 66.4603C55.807 66.447 55.673 66.4305 55.5394 66.4107C55.4059 66.3909 55.2729 66.3678 55.1405 66.3415C55.0081 66.3151 54.8764 66.2855 54.7454 66.2527C54.6144 66.22 54.4843 66.184 54.3552 66.1448C54.2259 66.1055 54.0978 66.0632 53.9706 66.0177C53.8435 65.9722 53.7176 65.9237 53.5929 65.872C53.4681 65.8203 53.3447 65.7656 53.2227 65.7079C53.1006 65.6502 52.98 65.5895 52.861 65.5258C52.7419 65.4622 52.6245 65.3957 52.5087 65.3262C52.3928 65.2568 52.2788 65.1846 52.1666 65.1096C52.0543 65.0346 51.9439 64.9569 51.8355 64.8764C51.7271 64.796 51.6207 64.713 51.5163 64.6273C51.4119 64.5417 51.3097 64.4535 51.2097 64.3628C51.1096 64.2722 51.0118 64.1791 50.9164 64.0836C50.8209 63.9882 50.7278 63.8904 50.6372 63.7903C50.5465 63.6903 50.4583 63.5881 50.3727 63.4837C50.287 63.3793 50.2039 63.2729 50.1235 63.1645C50.0431 63.0561 49.9654 62.9457 49.8904 62.8334C49.8154 62.7212 49.7432 62.6072 49.6737 62.4913C49.6043 62.3755 49.5378 62.2581 49.4742 62.139C49.4105 62.0199 49.3498 61.8994 49.2921 61.7773C49.2344 61.6553 49.1797 61.5319 49.128 61.4071C49.0763 61.2824 49.0278 61.1565 48.9822 61.0294C48.9368 60.9022 48.8945 60.7741 48.8553 60.6448C48.816 60.5157 48.78 60.3856 48.7473 60.2546C48.7145 60.1236 48.6849 59.9919 48.6585 59.8595C48.6322 59.7271 48.6091 59.5941 48.5893 59.4605C48.5695 59.327 48.553 59.193 48.5397 59.0586C48.5265 58.9242 48.5165 58.7897 48.5099 58.6548C48.5033 58.52 48.5 58.385 48.5 58.25C48.5 58.115 48.5033 57.98 48.5099 57.8452C48.5165 57.7103 48.5265 57.5757 48.5397 57.4414C48.553 57.307 48.5695 57.173 48.5893 57.0395C48.6091 56.9059 48.6322 56.7729 48.6585 56.6405C48.6849 56.5081 48.7145 56.3764 48.7472 56.2454C48.78 56.1144 48.816 55.9843 48.8553 55.8552C48.8945 55.7259 48.9368 55.5978 48.9822 55.4706C49.0278 55.3435 49.0763 55.2176 49.128 55.0929C49.1797 54.9681 49.2344 54.8447 49.2921 54.7227C49.3498 54.6006 49.4105 54.4801 49.4742 54.361C49.5378 54.2419 49.6043 54.1245 49.6737 54.0087C49.7432 53.8928 49.8154 53.7788 49.8904 53.6666C49.9654 53.5543 50.0431 53.4439 50.1235 53.3355C50.2039 53.2271 50.287 53.1207 50.3727 53.0163C50.4583 52.9119 50.5465 52.8097 50.6372 52.7097C50.7278 52.6096 50.8209 52.5118 50.9164 52.4164C51.0118 52.3209 51.1096 52.2278 51.2097 52.1372C51.3097 52.0465 51.4119 51.9583 51.5163 51.8727C51.6207 51.787 51.7271 51.704 51.8355 51.6235C51.9439 51.5431 52.0543 51.4654 52.1666 51.3904C52.2788 51.3154 52.3928 51.2432 52.5087 51.1737C52.6245 51.1043 52.7419 51.0378 52.861 50.9742C52.98 50.9105 53.1006 50.8498 53.2227 50.7921C53.3447 50.7344 53.4681 50.6797 53.5929 50.628C53.7176 50.5763 53.8435 50.5278 53.9706 50.4823C54.0978 50.4368 54.2259 50.3945 54.3552 50.3552C54.4843 50.316 54.6144 50.28 54.7454 50.2472C54.8764 50.2145 55.0081 50.1849 55.1405 50.1585C55.2729 50.1322 55.4059 50.1091 55.5394 50.0893C55.673 50.0695 55.807 50.053 55.9414 50.0397C56.0757 50.0265 56.2103 50.0165 56.3452 50.0099C56.48 50.0033 56.6149 50 56.75 50ZM56.75 53C56.6641 53 56.5782 53.0021 56.4924 53.0063C56.4065 53.0105 56.3209 53.0169 56.2354 53.0253C56.1499 53.0337 56.0646 53.0442 55.9797 53.0568C55.8947 53.0694 55.81 53.0841 55.7258 53.1009C55.6415 53.1176 55.5577 53.1365 55.4743 53.1573C55.391 53.1782 55.3082 53.2011 55.226 53.2261C55.1438 53.251 55.0622 53.278 54.9813 53.3069C54.9005 53.3358 54.8203 53.3667 54.7409 53.3996C54.6615 53.4325 54.583 53.4673 54.5053 53.504C54.4277 53.5408 54.3509 53.5794 54.2752 53.6199C54.1994 53.6604 54.1247 53.7028 54.0509 53.7469C53.9772 53.7911 53.9047 53.837 53.8332 53.8848C53.7618 53.9325 53.6916 53.982 53.6226 54.0332C53.5535 54.0844 53.4859 54.1372 53.4194 54.1917C53.353 54.2462 53.288 54.3023 53.2243 54.36C53.1606 54.4177 53.0984 54.4769 53.0377 54.5377C52.9769 54.5984 52.9177 54.6606 52.86 54.7243C52.8023 54.788 52.7462 54.853 52.6917 54.9194C52.6372 54.9859 52.5844 55.0535 52.5332 55.1226C52.482 55.1916 52.4325 55.2618 52.3848 55.3332C52.337 55.4047 52.2911 55.4772 52.2469 55.5509C52.2027 55.6247 52.1604 55.6994 52.1199 55.7751C52.0794 55.8509 52.0408 55.9277 52.004 56.0053C51.9673 56.083 51.9325 56.1615 51.8996 56.2409C51.8667 56.3203 51.8358 56.4005 51.8069 56.4813C51.778 56.5622 51.751 56.6438 51.7261 56.726C51.7011 56.8082 51.6782 56.891 51.6574 56.9743C51.6365 57.0577 51.6176 57.1415 51.6009 57.2258C51.5841 57.31 51.5694 57.3947 51.5568 57.4797C51.5442 57.5646 51.5337 57.6499 51.5253 57.7354C51.5169 57.8209 51.5105 57.9065 51.5063 57.9924C51.5021 58.0782 51.5 58.1641 51.5 58.25C51.5 58.3359 51.5021 58.4218 51.5063 58.5076C51.5105 58.5935 51.5169 58.6791 51.5253 58.7646C51.5337 58.8501 51.5442 58.9354 51.5568 59.0203C51.5694 59.1053 51.5841 59.1899 51.6009 59.2742C51.6176 59.3585 51.6365 59.4423 51.6573 59.5257C51.6782 59.609 51.7011 59.6918 51.7261 59.774C51.751 59.8562 51.778 59.9378 51.8069 60.0187C51.8358 60.0995 51.8667 60.1797 51.8996 60.2591C51.9325 60.3385 51.9673 60.417 52.004 60.4947C52.0408 60.5723 52.0794 60.6491 52.1199 60.7248C52.1604 60.8006 52.2027 60.8753 52.2469 60.949C52.2911 61.0228 52.337 61.0953 52.3848 61.1667C52.4325 61.2382 52.482 61.3084 52.5332 61.3774C52.5844 61.4464 52.6372 61.5141 52.6917 61.5806C52.7462 61.647 52.8023 61.712 52.86 61.7757C52.9177 61.8394 52.9769 61.9016 53.0377 61.9623C53.0984 62.0231 53.1606 62.0823 53.2243 62.14C53.288 62.1977 53.353 62.2538 53.4194 62.3083C53.4859 62.3628 53.5535 62.4156 53.6226 62.4668C53.6916 62.518 53.7618 62.5675 53.8332 62.6152C53.9047 62.6629 53.9772 62.7089 54.0509 62.7531C54.1247 62.7972 54.1994 62.8396 54.2751 62.8801C54.3509 62.9206 54.4277 62.9592 54.5053 62.9959C54.583 63.0327 54.6615 63.0675 54.7409 63.1003C54.8203 63.1332 54.9005 63.1642 54.9813 63.1931C55.0622 63.222 55.1438 63.249 55.226 63.2739C55.3082 63.2989 55.391 63.3218 55.4743 63.3426C55.5577 63.3635 55.6415 63.3824 55.7258 63.3991C55.81 63.4159 55.8947 63.4306 55.9797 63.4432C56.0646 63.4558 56.1499 63.4663 56.2354 63.4747C56.3209 63.4831 56.4065 63.4894 56.4924 63.4937C56.5782 63.4979 56.6641 63.5 56.75 63.5C56.8359 63.5 56.9218 63.4979 57.0076 63.4937C57.0934 63.4894 57.1791 63.4831 57.2646 63.4747C57.3501 63.4663 57.4354 63.4558 57.5203 63.4432C57.6053 63.4306 57.6899 63.4159 57.7742 63.3991C57.8585 63.3824 57.9423 63.3635 58.0257 63.3426C58.109 63.3218 58.1918 63.2989 58.274 63.2739C58.3562 63.249 58.4378 63.222 58.5187 63.1931C58.5995 63.1642 58.6797 63.1332 58.7591 63.1003C58.8385 63.0675 58.917 63.0327 58.9947 62.9959C59.0723 62.9592 59.1491 62.9206 59.2248 62.8801C59.3006 62.8396 59.3753 62.7972 59.449 62.7531C59.5227 62.7089 59.5953 62.6629 59.6667 62.6152C59.7382 62.5675 59.8084 62.518 59.8774 62.4668C59.9464 62.4156 60.0141 62.3628 60.0806 62.3083C60.147 62.2538 60.212 62.1977 60.2757 62.14C60.3394 62.0823 60.4016 62.0231 60.4623 61.9623C60.5231 61.9016 60.5823 61.8394 60.64 61.7757C60.6977 61.712 60.7538 61.647 60.8083 61.5806C60.8628 61.5141 60.9156 61.4464 60.9668 61.3774C61.018 61.3084 61.0675 61.2382 61.1152 61.1667C61.1629 61.0953 61.2089 61.0228 61.253 60.9491C61.2972 60.8753 61.3396 60.8006 61.3801 60.7248C61.4206 60.6491 61.4592 60.5723 61.4959 60.4947C61.5327 60.417 61.5675 60.3385 61.6003 60.2591C61.6332 60.1797 61.6641 60.0995 61.6931 60.0187C61.722 59.9378 61.749 59.8562 61.7739 59.774C61.7989 59.6918 61.8218 59.609 61.8426 59.5257C61.8635 59.4423 61.8823 59.3585 61.8991 59.2742C61.9159 59.1899 61.9306 59.1053 61.9432 59.0203C61.9558 58.9354 61.9663 58.8501 61.9747 58.7646C61.9831 58.6791 61.9894 58.5935 61.9937 58.5076C61.9979 58.4218 62 58.3359 62 58.25C62 58.1641 61.9979 58.0782 61.9937 57.9924C61.9894 57.9065 61.9831 57.8209 61.9747 57.7354C61.9663 57.6499 61.9558 57.5646 61.9432 57.4797C61.9306 57.3947 61.9159 57.31 61.8991 57.2258C61.8823 57.1415 61.8635 57.0577 61.8426 56.9743C61.8218 56.891 61.7989 56.8082 61.7739 56.726C61.749 56.6438 61.722 56.5622 61.6931 56.4813C61.6641 56.4005 61.6332 56.3203 61.6003 56.2409C61.5675 56.1615 61.5327 56.083 61.4959 56.0053C61.4592 55.9277 61.4206 55.8509 61.3801 55.7751C61.3396 55.6994 61.2972 55.6247 61.253 55.5509C61.2089 55.4772 61.1629 55.4047 61.1152 55.3332C61.0675 55.2618 61.018 55.1916 60.9668 55.1226C60.9156 55.0535 60.8628 54.9859 60.8083 54.9194C60.7538 54.853 60.6977 54.788 60.64 54.7243C60.5823 54.6606 60.5231 54.5984 60.4623 54.5377C60.4016 54.4769 60.3394 54.4177 60.2757 54.36C60.212 54.3023 60.147 54.2462 60.0806 54.1917C60.0141 54.1372 59.9464 54.0844 59.8774 54.0332C59.8084 53.982 59.7382 53.9325 59.6667 53.8848C59.5953 53.837 59.5227 53.7911 59.449 53.7469C59.3753 53.7028 59.3006 53.6604 59.2248 53.6199C59.1491 53.5794 59.0723 53.5408 58.9947 53.504C58.917 53.4673 58.8385 53.4325 58.7591 53.3996C58.6797 53.3667 58.5995 53.3358 58.5187 53.3069C58.4378 53.278 58.3562 53.251 58.274 53.2261C58.1918 53.2011 58.109 53.1782 58.0257 53.1574C57.9423 53.1365 57.8585 53.1176 57.7742 53.1009C57.6899 53.0841 57.6053 53.0694 57.5203 53.0568C57.4354 53.0442 57.3501 53.0337 57.2646 53.0253C57.1791 53.0169 57.0934 53.0105 57.0076 53.0063C56.9218 53.0021 56.8359 53 56.75 53Z"></path><path id="减去顶层" fill-rule="evenodd" fill="url(#linear_1)" opacity="1" d="M54.5 21.5L33.5 21.5Q29 21.5 29 26L29 36.5Q29 41 33.5 41L54.5 41Q59 41 59 36.5L59 26Q59 21.5 54.5 21.5ZM40.0316 30.2698C40.0229 30.2611 40.014 30.2526 40.0049 30.2443C39.9958 30.2361 39.9865 30.228 39.977 30.2203C39.9675 30.2124 39.9579 30.2049 39.948 30.1975C39.9381 30.1902 39.9281 30.1831 39.9179 30.1763C39.9077 30.1695 39.8973 30.1629 39.8868 30.1566C39.8763 30.1502 39.8656 30.1442 39.8548 30.1384C39.844 30.1326 39.833 30.127 39.8219 30.1218C39.8108 30.1165 39.7996 30.1115 39.7882 30.1068C39.7769 30.1021 39.7654 30.0977 39.7539 30.0935C39.7423 30.0894 39.7307 30.0855 39.7189 30.0819C39.7072 30.0783 39.6953 30.0751 39.6834 30.0721C39.6715 30.0691 39.6595 30.0664 39.6475 30.064C39.6354 30.0616 39.6233 30.0595 39.6112 30.0577C39.599 30.0558 39.5869 30.0543 39.5746 30.0531C39.5624 30.0519 39.5501 30.051 39.5379 30.0503C39.5256 30.0498 39.5133 30.0494 39.501 30.0494C39.4888 30.0494 39.4765 30.0497 39.4642 30.0503C39.452 30.0509 39.4397 30.0518 39.4275 30.053C39.4153 30.0542 39.4031 30.0556 39.3909 30.0574C39.3788 30.0592 39.3667 30.0613 39.3546 30.0637C39.3426 30.0661 39.3306 30.0688 39.3187 30.0718C39.3068 30.0747 39.2949 30.078 39.2831 30.0816C39.2714 30.0851 39.2597 30.089 39.2482 30.0931C39.2366 30.0972 39.2251 30.1016 39.2138 30.1063C39.2024 30.111 39.1912 30.116 39.1801 30.1212C39.169 30.1265 39.158 30.132 39.1472 30.1378C39.1363 30.1435 39.1257 30.1496 39.1151 30.1559C39.1046 30.1622 39.0942 30.1687 39.084 30.1756C39.0738 30.1824 39.0637 30.1895 39.0538 30.1968C39.044 30.2041 39.0343 30.2116 39.0248 30.2194C39.0153 30.2272 39.006 30.2352 38.9969 30.2435C38.9878 30.2517 38.9789 30.2601 38.9702 30.2688C38.9615 30.2775 38.953 30.2864 38.9448 30.2955C38.9365 30.3046 38.9285 30.3139 38.9207 30.3234C38.9129 30.3329 38.9053 30.3425 38.898 30.3524C38.8907 30.3622 38.8836 30.3723 38.8767 30.3825C38.8699 30.3927 38.8633 30.4031 38.857 30.4136C38.8507 30.4241 38.8446 30.4348 38.8388 30.4456C38.833 30.4565 38.8275 30.4674 38.8223 30.4785C38.817 30.4897 38.812 30.5009 38.8073 30.5122C38.8026 30.5236 38.7982 30.535 38.794 30.5466C38.7899 30.5582 38.786 30.5698 38.7824 30.5816C38.7789 30.5933 38.7756 30.6051 38.7726 30.617C38.7696 30.6289 38.7669 30.6409 38.7645 30.653C38.7621 30.665 38.76 30.6771 38.7582 30.6893C38.7564 30.7014 38.7549 30.7136 38.7537 30.7258C38.7524 30.738 38.7515 30.7503 38.7509 30.7626Q38.75 30.781 38.75 30.7994C38.75 30.8117 38.7503 30.824 38.7509 30.8362C38.7515 30.8485 38.7524 30.8607 38.7536 30.873Q38.7554 30.8913 38.7581 30.9095C38.7599 30.9217 38.762 30.9338 38.7643 30.9459C38.7668 30.9579 38.7694 30.9699 38.7724 30.9818C38.7754 30.9937 38.7786 31.0055 38.7822 31.0173C38.7858 31.029 38.7896 31.0407 38.7938 31.0523C38.7979 31.0639 38.8023 31.0753 38.807 31.0867C38.8117 31.098 38.8167 31.1092 38.8219 31.1203C38.8272 31.1314 38.8327 31.1424 38.8384 31.1533C38.8442 31.1641 38.8503 31.1748 38.8566 31.1853C38.8629 31.1959 38.8695 31.2062 38.8763 31.2165C38.8831 31.2267 38.8902 31.2367 38.8975 31.2466C38.9048 31.2564 38.9124 31.2661 38.9202 31.2756C38.9279 31.2851 38.9359 31.2944 38.9442 31.3035C38.9524 31.3126 38.9609 31.3215 38.9696 31.3302L42.1525 34.5116C42.1611 34.5203 42.17 34.5287 42.1791 34.5369C42.1882 34.5452 42.1975 34.5532 42.207 34.561C42.2165 34.5687 42.2261 34.5763 42.236 34.5836C42.2459 34.5909 42.2559 34.598 42.2661 34.6048C42.2763 34.6116 42.2867 34.6182 42.2972 34.6245C42.3077 34.6308 42.3184 34.6368 42.3292 34.6426C42.34 34.6484 42.351 34.6539 42.3621 34.6592C42.3732 34.6644 42.3844 34.6694 42.3957 34.6741C42.4071 34.6787 42.4185 34.6832 42.4301 34.6873C42.4417 34.6915 42.4533 34.6953 42.465 34.6989C42.4768 34.7024 42.4886 34.7057 42.5005 34.7087C42.5124 34.7117 42.5244 34.7144 42.5364 34.7167C42.5484 34.7192 42.5605 34.7212 42.5727 34.723C42.5848 34.7248 42.597 34.7263 42.6092 34.7275Q42.6275 34.7294 42.6459 34.7302C42.6581 34.7309 42.6704 34.7312 42.6827 34.7312C42.695 34.7312 42.7072 34.7309 42.7195 34.7302Q42.7379 34.7294 42.7562 34.7275C42.7684 34.7263 42.7806 34.7248 42.7927 34.723C42.8049 34.7212 42.8169 34.7192 42.829 34.7167C42.841 34.7144 42.853 34.7117 42.8649 34.7087C42.8768 34.7057 42.8886 34.7024 42.9004 34.6989C42.9121 34.6953 42.9237 34.6915 42.9353 34.6873C42.9469 34.6832 42.9583 34.6787 42.9696 34.6741C42.981 34.6694 42.9922 34.6644 43.0033 34.6592C43.0144 34.6539 43.0253 34.6484 43.0362 34.6426C43.047 34.6368 43.0576 34.6308 43.0682 34.6245C43.0787 34.6182 43.0891 34.6116 43.0993 34.6048C43.1095 34.598 43.1195 34.5909 43.1294 34.5836C43.1392 34.5763 43.1489 34.5687 43.1584 34.561C43.1679 34.5532 43.1772 34.5452 43.1862 34.5369C43.1953 34.5287 43.2042 34.5203 43.2129 34.5116L48.5152 29.2093C48.5241 29.2007 48.5328 29.1918 48.5413 29.1828C48.5498 29.1737 48.5581 29.1645 48.5661 29.155Q48.5781 29.1408 48.5894 29.1261C48.597 29.1162 48.6043 29.1062 48.6113 29.096C48.6184 29.0857 48.6252 29.0754 48.6317 29.0648C48.6382 29.0543 48.6445 29.0436 48.6505 29.0327C48.6565 29.0218 48.6622 29.0108 48.6677 28.9997C48.6732 28.9885 48.6784 28.9773 48.6833 28.9659C48.6882 28.9545 48.6927 28.943 48.6971 28.9313C48.7014 28.9197 48.7054 28.908 48.7092 28.8961C48.7129 28.8843 48.7164 28.8724 48.7196 28.8604C48.7227 28.8484 48.7256 28.8363 48.7281 28.8242C48.7307 28.812 48.7329 28.7998 48.7348 28.7875C48.7368 28.7753 48.7384 28.763 48.7398 28.7507C48.7411 28.7383 48.7421 28.726 48.7429 28.7136C48.7436 28.7012 48.744 28.6888 48.7441 28.6764C48.7442 28.664 48.744 28.6516 48.7435 28.6392C48.743 28.6268 48.7422 28.6144 48.7411 28.602C48.7399 28.5897 48.7385 28.5774 48.7368 28.5651C48.735 28.5528 48.733 28.5405 48.7307 28.5283C48.7283 28.5161 48.7257 28.504 48.7227 28.492C48.7198 28.4799 48.7166 28.468 48.713 28.4561C48.7095 28.4442 48.7056 28.4324 48.7015 28.4207C48.6974 28.4089 48.693 28.3974 48.6883 28.3859C48.6836 28.3744 48.6786 28.363 48.6733 28.3518Q48.6655 28.3349 48.6567 28.3185C48.6509 28.3075 48.6448 28.2967 48.6385 28.286C48.6321 28.2754 48.6255 28.2649 48.6186 28.2545C48.6117 28.2442 48.6046 28.2341 48.5973 28.2241C48.5899 28.2141 48.5823 28.2043 48.5744 28.1947C48.5666 28.1851 48.5585 28.1757 48.5501 28.1665C48.5418 28.1573 48.5332 28.1483 48.5245 28.1396C48.5157 28.1308 48.5067 28.1222 48.4975 28.1139C48.4883 28.1056 48.4789 28.0975 48.4693 28.0896C48.4597 28.0818 48.4499 28.0742 48.44 28.0668C48.43 28.0594 48.4198 28.0523 48.4095 28.0454C48.3991 28.0385 48.3886 28.0319 48.378 28.0256C48.3674 28.0192 48.3565 28.0131 48.3456 28.0073C48.3346 28.0015 48.3235 27.9959 48.3122 27.9907C48.301 27.9855 48.2896 27.9805 48.2782 27.9757C48.2667 27.9711 48.2551 27.9667 48.2434 27.9625C48.2317 27.9584 48.2198 27.9546 48.208 27.951C48.1961 27.9475 48.1841 27.9442 48.172 27.9413C48.16 27.9384 48.1479 27.9357 48.1357 27.9334C48.1235 27.931 48.1113 27.929 48.099 27.9273C48.0867 27.9255 48.0743 27.9241 48.062 27.923C48.0496 27.9218 48.0373 27.921 48.0249 27.9205C48.0125 27.92 48.0001 27.9198 47.9877 27.9199C47.9753 27.92 47.9628 27.9205 47.9505 27.9212C47.9381 27.9219 47.9257 27.9229 47.9134 27.9243C47.9011 27.9256 47.8887 27.9273 47.8765 27.9292C47.8643 27.9311 47.852 27.9334 47.8399 27.936C47.8278 27.9385 47.8157 27.9414 47.8037 27.9445C47.7917 27.9476 47.7798 27.9511 47.7679 27.9548C47.7561 27.9586 47.7444 27.9626 47.7327 27.9669C47.7211 27.9713 47.7096 27.9759 47.6982 27.9808C47.6868 27.9857 47.6755 27.9909 47.6644 27.9963C47.6532 28.0018 47.6422 28.0075 47.6314 28.0135C47.6205 28.0195 47.6098 28.0258 47.5992 28.0323C47.5887 28.0389 47.5783 28.0457 47.5681 28.0527Q47.5527 28.0633 47.538 28.0746Q47.5232 28.0859 47.509 28.0979C47.4995 28.106 47.4903 28.1142 47.4813 28.1227C47.4722 28.1312 47.4634 28.1399 47.4547 28.1488L42.6819 32.9216L40.0316 30.2698Z"></path></g><defs><linearGradient id="linear_0" x1="0%" y1="50%" x2="100%" y2="50%" gradientUnits="objectBoundingBox"><stop offset="0" stop-color="#FF6D00" stop-opacity="1" /><stop offset="1" stop-color="#F7AD59" stop-opacity="1" /></linearGradient><linearGradient id="linear_1" x1="0%" y1="50%" x2="100%" y2="50%" gradientUnits="objectBoundingBox"><stop offset="0" stop-color="#FF6D00" stop-opacity="1" /><stop offset="1" stop-color="#F7AD59" stop-opacity="1" /></linearGradient></defs></svg>