<svg xmlns="http://www.w3.org/2000/svg" xmlns:xlink="http://www.w3.org/1999/xlink" width="88" height="88" viewBox="0 0 88 88" fill="none"><g opacity="1"  transform="translate(0 0)"><path id="路径 2" fill-rule="evenodd" fill="url(#linear_0)" opacity="1" d="M60.9098 23L27.0903 23C27.0398 23 26.9893 23.0012 26.939 23.0036C26.8886 23.006 26.8383 23.0096 26.7881 23.0144C26.7379 23.0192 26.6878 23.0252 26.6379 23.0324C26.588 23.0396 26.5383 23.0479 26.4888 23.0574C26.4393 23.067 26.3901 23.0777 26.3411 23.0896C26.2922 23.1015 26.2436 23.1146 26.1953 23.1287C26.147 23.143 26.0991 23.1583 26.0515 23.1748C26.004 23.1913 25.9569 23.2089 25.9103 23.2276C25.8637 23.2464 25.8176 23.2662 25.7719 23.2871C25.7263 23.3081 25.6812 23.3301 25.6367 23.3532C25.5921 23.3763 25.5482 23.4004 25.505 23.4255C25.4616 23.4507 25.419 23.4768 25.377 23.5041C25.335 23.5313 25.2937 23.5595 25.2532 23.5886C25.2126 23.6178 25.1728 23.6479 25.1337 23.679C25.0947 23.71 25.0564 23.742 25.019 23.7748C24.9815 23.8077 24.9449 23.8415 24.9092 23.8761C24.8734 23.9107 24.8386 23.9462 24.8046 23.9825C24.7707 24.0187 24.7377 24.0558 24.7055 24.0937C24.6735 24.1316 24.6424 24.1701 24.6122 24.2095C24.5821 24.2488 24.5529 24.2889 24.5248 24.3296C24.4967 24.3703 24.4696 24.4117 24.4436 24.4537C24.4175 24.4957 24.3925 24.5384 24.3686 24.5816C24.3447 24.6248 24.3219 24.6685 24.3002 24.7128C24.2785 24.7571 24.2579 24.8019 24.2385 24.8472C24.2191 24.8924 24.2008 24.9381 24.1837 24.9843C24.1665 25.0304 24.1505 25.077 24.1358 25.1239C24.121 25.1708 24.1073 25.218 24.0949 25.2656C24.0825 25.3131 24.0714 25.3609 24.0614 25.409C24.0513 25.4571 24.0425 25.5054 24.035 25.5539C24.0274 25.6024 24.0211 25.6511 24.0159 25.6999C24.0108 25.7487 24.0069 25.7975 24.0042 25.8465C24.0016 25.8955 24.0002 25.9445 24 25.9936L24 62.0066C24.0002 62.0557 24.0016 62.1047 24.0042 62.1537C24.0069 62.2027 24.0108 62.2515 24.0159 62.3003C24.0211 62.3492 24.0274 62.3978 24.035 62.4463C24.0425 62.4948 24.0513 62.5431 24.0614 62.5911C24.0714 62.6393 24.0825 62.6871 24.0949 62.7346C24.1074 62.7822 24.121 62.8294 24.1358 62.8763C24.1506 62.9232 24.1666 62.9697 24.1837 63.0159C24.2008 63.062 24.2191 63.1077 24.2385 63.153C24.258 63.1982 24.2786 63.243 24.3002 63.2873C24.3219 63.3316 24.3447 63.3754 24.3686 63.4186C24.3925 63.4617 24.4175 63.5044 24.4436 63.5464C24.4696 63.5884 24.4967 63.6298 24.5248 63.6705C24.5529 63.7112 24.5821 63.7513 24.6122 63.7906C24.6424 63.83 24.6735 63.8686 24.7055 63.9065C24.7377 63.9443 24.7707 63.9814 24.8046 64.0176C24.8386 64.0539 24.8734 64.0894 24.9092 64.124C24.9449 64.1586 24.9815 64.1924 25.019 64.2253C25.0564 64.2581 25.0947 64.29 25.1337 64.3211C25.1728 64.3522 25.2126 64.3823 25.2532 64.4115C25.2937 64.4407 25.335 64.4688 25.377 64.496C25.419 64.5232 25.4616 64.5494 25.505 64.5746C25.5482 64.5997 25.5921 64.6238 25.6367 64.6469C25.6812 64.67 25.7263 64.692 25.7719 64.713C25.8176 64.7339 25.8637 64.7537 25.9103 64.7725C25.957 64.7912 26.0041 64.8088 26.0515 64.8253C26.0991 64.8417 26.147 64.8571 26.1953 64.8713C26.2436 64.8856 26.2922 64.8986 26.3411 64.9104C26.3901 64.9223 26.4393 64.9331 26.4888 64.9426C26.5383 64.9522 26.588 64.9606 26.6379 64.9677C26.6878 64.9749 26.7379 64.9809 26.7881 64.9857C26.8383 64.9904 26.8886 64.9941 26.939 64.9965C26.9894 64.9989 27.0398 65.0001 27.0903 65.0001L60.9098 65.0001C60.9602 65.0001 61.0107 64.9989 61.0611 64.9965C61.1115 64.9941 61.1618 64.9904 61.212 64.9857C61.2622 64.9809 61.3123 64.9749 61.3621 64.9677C61.4121 64.9606 61.4618 64.9522 61.5113 64.9426C61.5608 64.9331 61.61 64.9224 61.6589 64.9104C61.7079 64.8986 61.7565 64.8856 61.8048 64.8713C61.8531 64.8571 61.901 64.8417 61.9485 64.8253C61.996 64.8088 62.0431 64.7912 62.0897 64.7725C62.1364 64.7538 62.1826 64.7339 62.2282 64.713C62.2738 64.692 62.3188 64.67 62.3633 64.647C62.4079 64.6239 62.4518 64.5998 62.4951 64.5746C62.5384 64.5494 62.5811 64.5232 62.6231 64.496C62.6651 64.4688 62.7064 64.4407 62.7469 64.4115C62.7875 64.3824 62.8273 64.3523 62.8663 64.3212C62.9054 64.2901 62.9436 64.2582 62.9811 64.2253C63.0186 64.1924 63.0551 64.1586 63.0908 64.124C63.1266 64.0894 63.1615 64.0539 63.1954 64.0176C63.2294 63.9814 63.2624 63.9443 63.2945 63.9065C63.3266 63.8686 63.3577 63.83 63.3878 63.7906C63.418 63.7513 63.4471 63.7113 63.4752 63.6706C63.5034 63.6298 63.5305 63.5884 63.5565 63.5464C63.5826 63.5044 63.6075 63.4618 63.6315 63.4186C63.6554 63.3754 63.6781 63.3316 63.6998 63.2873C63.7215 63.2431 63.7421 63.1983 63.7616 63.153C63.781 63.1078 63.7993 63.0621 63.8164 63.0159C63.8335 62.9697 63.8495 62.9232 63.8643 62.8763C63.8791 62.8294 63.8927 62.7822 63.9051 62.7346C63.9175 62.6871 63.9287 62.6393 63.9387 62.5911C63.9487 62.5431 63.9576 62.4948 63.9651 62.4463C63.9726 62.3978 63.979 62.3492 63.9841 62.3003C63.9893 62.2515 63.9932 62.2027 63.9958 62.1537C63.9985 62.1047 63.9999 62.0557 64.0001 62.0066L64.0001 25.9936C63.9999 25.9445 63.9985 25.8955 63.9958 25.8465C63.9932 25.7975 63.9893 25.7487 63.9841 25.6999C63.979 25.6511 63.9726 25.6024 63.9651 25.5539C63.9576 25.5054 63.9487 25.4571 63.9387 25.409C63.9287 25.3609 63.9175 25.3131 63.9051 25.2656C63.8927 25.218 63.8791 25.1708 63.8643 25.1239C63.8495 25.077 63.8335 25.0304 63.8164 24.9843C63.7993 24.9382 63.781 24.8925 63.7616 24.8472C63.7421 24.8019 63.7215 24.7572 63.6998 24.7128C63.6781 24.6686 63.6554 24.6248 63.6315 24.5816C63.6075 24.5384 63.5826 24.4958 63.5565 24.4538C63.5305 24.4118 63.5034 24.3704 63.4753 24.3297C63.4471 24.2889 63.418 24.2489 63.3879 24.2096C63.3577 24.1702 63.3266 24.1316 63.2945 24.0937C63.2624 24.0559 63.2294 24.0188 63.1954 23.9825C63.1615 23.9463 63.1266 23.9108 63.0909 23.8762C63.0551 23.8416 63.0186 23.8078 62.9811 23.7749C62.9436 23.7421 62.9055 23.7101 62.8664 23.6791C62.8273 23.648 62.7875 23.6179 62.7469 23.5887C62.7064 23.5595 62.6651 23.5314 62.6231 23.5041C62.5811 23.4769 62.5384 23.4508 62.4951 23.4256C62.4518 23.4004 62.408 23.3763 62.3634 23.3533C62.3189 23.3302 62.2738 23.3082 62.2282 23.2872C62.1826 23.2663 62.1364 23.2465 62.0897 23.2277C62.0431 23.209 61.996 23.1914 61.9486 23.1749C61.901 23.1584 61.8531 23.1431 61.8048 23.1288C61.7565 23.1147 61.7079 23.1016 61.6589 23.0897C61.61 23.0779 61.5608 23.0671 61.5113 23.0575C61.4618 23.048 61.4121 23.0396 61.3621 23.0325C61.3123 23.0253 61.2622 23.0193 61.212 23.0145C61.1618 23.0097 61.1115 23.0061 61.0611 23.0037C61.0107 23.0013 60.9602 23.0001 60.9098 23.0001L60.9098 23ZM34.7061 30.4953L53.2245 30.4953C53.2498 30.4953 53.2749 30.4959 53.3001 30.4971C53.3252 30.4983 53.3504 30.5001 53.3754 30.5025C53.4005 30.5049 53.4255 30.5079 53.4504 30.5115C53.4753 30.5151 53.5001 30.5193 53.5248 30.524C53.5496 30.5288 53.5741 30.5342 53.5985 30.5401C53.623 30.5461 53.6472 30.5526 53.6713 30.5597C53.6954 30.5668 53.7193 30.5745 53.7431 30.5828C53.7668 30.591 53.7903 30.5998 53.8136 30.6092C53.8369 30.6186 53.8599 30.6285 53.8827 30.639C53.9054 30.6494 53.9279 30.6604 53.9502 30.672C53.9724 30.6835 53.9943 30.6956 54.0159 30.7082C54.0375 30.7208 54.0587 30.7339 54.0797 30.7475C54.1007 30.7611 54.1213 30.7752 54.1415 30.7898C54.1617 30.8044 54.1816 30.8194 54.2011 30.835C54.2206 30.8506 54.2396 30.8665 54.2583 30.883C54.277 30.8994 54.2952 30.9163 54.313 30.9336C54.3308 30.9509 54.3482 30.9687 54.3651 30.9868C54.382 31.005 54.3984 31.0235 54.4144 31.0425C54.4305 31.0614 54.446 31.0807 54.4609 31.1004C54.4759 31.1201 54.4904 31.1401 54.5044 31.1604C54.5184 31.1808 54.5319 31.2015 54.5448 31.2225C54.5578 31.2436 54.5702 31.2649 54.5821 31.2864C54.594 31.308 54.6053 31.3299 54.616 31.3521C54.6268 31.3742 54.637 31.3966 54.6467 31.4192C54.6563 31.4419 54.6654 31.4647 54.6739 31.4878C54.6824 31.5109 54.6902 31.5341 54.6976 31.5575C54.7049 31.581 54.7116 31.6046 54.7177 31.6283C54.7238 31.6521 54.7294 31.676 54.7343 31.7C54.7391 31.724 54.7435 31.7482 54.7472 31.7724C54.7509 31.7966 54.754 31.8209 54.7564 31.8453C54.7589 31.8696 54.7607 31.8941 54.762 31.9186C54.7632 31.943 54.7638 31.9675 54.7638 31.992C54.7638 32.0166 54.7632 32.041 54.762 32.0655C54.7607 32.0899 54.7589 32.1144 54.7564 32.1388C54.754 32.1631 54.7509 32.1874 54.7472 32.2116C54.7435 32.2358 54.7391 32.26 54.7343 32.2841C54.7294 32.3081 54.7238 32.3319 54.7177 32.3557C54.7116 32.3795 54.7049 32.4031 54.6976 32.4265C54.6902 32.4499 54.6824 32.4732 54.6739 32.4963C54.6654 32.5193 54.6563 32.5422 54.6467 32.5648C54.637 32.5875 54.6268 32.6098 54.616 32.632C54.6053 32.6541 54.594 32.676 54.5821 32.6976C54.5702 32.7192 54.5578 32.7405 54.5448 32.7615C54.5319 32.7825 54.5184 32.8032 54.5044 32.8236C54.4904 32.844 54.4759 32.864 54.4609 32.8836C54.446 32.9033 54.4305 32.9226 54.4144 32.9416C54.3984 32.9605 54.382 32.979 54.3651 32.9972C54.3482 33.0154 54.3308 33.033 54.313 33.0503C54.2952 33.0677 54.277 33.0846 54.2583 33.1011C54.2396 33.1175 54.2206 33.1335 54.2011 33.149C54.1816 33.1646 54.1617 33.1797 54.1415 33.1943C54.1213 33.2088 54.1007 33.2229 54.0797 33.2365C54.0587 33.2501 54.0375 33.2632 54.0159 33.2758C53.9943 33.2885 53.9724 33.3005 53.9502 33.3121C53.9279 33.3236 53.9054 33.3346 53.8827 33.3451C53.8599 33.3556 53.8369 33.3655 53.8136 33.3748C53.7903 33.3842 53.7668 33.393 53.7431 33.4013C53.7193 33.4096 53.6954 33.4172 53.6713 33.4244C53.6472 33.4314 53.623 33.438 53.5985 33.4439C53.5741 33.4499 53.5496 33.4553 53.5248 33.46C53.5001 33.4648 53.4753 33.469 53.4504 33.4726C53.4255 33.4761 53.4005 33.4791 53.3754 33.4816C53.3504 33.484 53.3252 33.4858 53.3001 33.487C53.2749 33.4882 53.2498 33.4888 53.2245 33.4888L34.7061 33.4888C34.6808 33.4888 34.6557 33.4882 34.6305 33.487C34.6053 33.4858 34.5802 33.484 34.5551 33.4816C34.5301 33.4791 34.5051 33.4761 34.4802 33.4726C34.4553 33.469 34.4304 33.4648 34.4057 33.46C34.381 33.4553 34.3565 33.4499 34.332 33.4439C34.3076 33.438 34.2833 33.4314 34.2592 33.4244C34.2351 33.4172 34.2112 33.4096 34.1875 33.4013C34.1637 33.393 34.1403 33.3842 34.117 33.3748C34.0937 33.3655 34.0707 33.3556 34.0479 33.3451C34.0251 33.3346 34.0026 33.3236 33.9804 33.3121C33.9582 33.3005 33.9363 33.2885 33.9147 33.2758C33.8931 33.2632 33.8718 33.2501 33.8508 33.2365C33.8298 33.2229 33.8093 33.2088 33.7891 33.1943C33.7688 33.1797 33.749 33.1646 33.7295 33.149C33.71 33.1335 33.691 33.1175 33.6723 33.1011C33.6536 33.0846 33.6353 33.0677 33.6175 33.0503C33.5997 33.033 33.5824 33.0154 33.5655 32.9972C33.5485 32.979 33.5322 32.9605 33.5161 32.9416C33.5001 32.9226 33.4846 32.9033 33.4696 32.8836C33.4547 32.864 33.4401 32.844 33.4261 32.8236C33.4121 32.8032 33.3987 32.7825 33.3857 32.7615C33.3727 32.7405 33.3603 32.7192 33.3485 32.6976C33.3366 32.676 33.3253 32.6541 33.3145 32.632C33.3037 32.6098 33.2935 32.5875 33.2839 32.5648C33.2742 32.5422 33.2652 32.5193 33.2567 32.4963C33.2482 32.4732 33.2403 32.4499 33.233 32.4265C33.2257 32.4031 33.219 32.3795 33.2129 32.3557C33.2068 32.3319 33.2012 32.3081 33.1963 32.2841C33.1914 32.26 33.1871 32.2358 33.1834 32.2116C33.1796 32.1874 33.1766 32.1631 33.1742 32.1388C33.1717 32.1144 33.1698 32.0899 33.1686 32.0655C33.1673 32.041 33.1667 32.0166 33.1667 31.992C33.1667 31.9675 33.1673 31.943 33.1686 31.9186C33.1698 31.8941 33.1717 31.8696 33.1742 31.8453C33.1766 31.8209 33.1796 31.7966 33.1834 31.7724C33.1871 31.7482 33.1914 31.724 33.1963 31.7C33.2012 31.676 33.2068 31.6521 33.2129 31.6283C33.219 31.6046 33.2257 31.581 33.233 31.5575C33.2403 31.5341 33.2482 31.5109 33.2567 31.4878C33.2652 31.4647 33.2742 31.4419 33.2839 31.4192C33.2935 31.3966 33.3037 31.3742 33.3145 31.3521C33.3253 31.3299 33.3366 31.308 33.3485 31.2864C33.3603 31.2649 33.3727 31.2436 33.3857 31.2225C33.3987 31.2015 33.4121 31.1808 33.4261 31.1604C33.4401 31.1401 33.4547 31.1201 33.4696 31.1004C33.4846 31.0807 33.5001 31.0614 33.5161 31.0425C33.5322 31.0235 33.5485 31.005 33.5655 30.9868C33.5824 30.9687 33.5997 30.9509 33.6175 30.9336C33.6353 30.9163 33.6536 30.8994 33.6723 30.883C33.691 30.8665 33.71 30.8506 33.7295 30.835C33.749 30.8194 33.7688 30.8044 33.7891 30.7898C33.8093 30.7752 33.8298 30.7611 33.8508 30.7475C33.8718 30.7339 33.8931 30.7208 33.9147 30.7082C33.9363 30.6956 33.9582 30.6835 33.9804 30.672C34.0026 30.6604 34.0251 30.6494 34.0479 30.639C34.0707 30.6285 34.0937 30.6186 34.117 30.6092C34.1403 30.5998 34.1637 30.591 34.1875 30.5828C34.2112 30.5745 34.2351 30.5668 34.2592 30.5597C34.2833 30.5526 34.3076 30.5461 34.332 30.5401C34.3565 30.5342 34.381 30.5288 34.4057 30.524C34.4304 30.5193 34.4553 30.5151 34.4802 30.5115C34.5051 30.5079 34.5301 30.5049 34.5551 30.5025C34.5802 30.5001 34.6053 30.4983 34.6305 30.4971C34.6557 30.4959 34.6808 30.4953 34.7061 30.4953ZM34.7061 36.4823L53.2245 36.4823C53.2484 36.4843 53.2722 36.4869 53.296 36.49C53.3198 36.493 53.3435 36.4966 53.3671 36.5008C53.3908 36.505 53.4142 36.5096 53.4376 36.5149C53.461 36.5201 53.4842 36.5258 53.5073 36.5321C53.5304 36.5384 53.5534 36.5451 53.5761 36.5524C53.5989 36.5597 53.6216 36.5675 53.644 36.5758C53.6664 36.5842 53.6885 36.593 53.7106 36.6023C53.7325 36.6116 53.7543 36.6214 53.7758 36.6317C53.7974 36.642 53.8186 36.6527 53.8396 36.664C53.8606 36.6753 53.8813 36.687 53.9018 36.6992C53.9223 36.7114 53.9425 36.724 53.9623 36.7371C53.9821 36.7502 54.0016 36.7637 54.0208 36.7778C54.0401 36.7918 54.0589 36.8062 54.0774 36.821C54.0959 36.8358 54.1141 36.8511 54.1319 36.8667C54.1497 36.8824 54.1671 36.8984 54.1841 36.9149C54.2011 36.9313 54.2177 36.9481 54.2339 36.9654C54.2501 36.9825 54.2659 37.0001 54.2813 37.018C54.2966 37.0359 54.3116 37.0541 54.3261 37.0727C54.3407 37.0913 54.3547 37.1101 54.3683 37.1293C54.3819 37.1485 54.395 37.1681 54.4077 37.1879C54.4204 37.2077 54.4326 37.2278 54.4443 37.2481C54.4561 37.2685 54.4673 37.2891 54.478 37.3099C54.4887 37.3308 54.499 37.3519 54.5087 37.3732C54.5184 37.3945 54.5276 37.416 54.5363 37.4378C54.5451 37.4595 54.5532 37.4815 54.5608 37.5036C54.5685 37.5257 54.5756 37.548 54.5823 37.5703C54.5888 37.5928 54.5948 37.6154 54.6004 37.638C54.6059 37.6608 54.6109 37.6836 54.6153 37.7065C54.6197 37.7294 54.6236 37.7524 54.6269 37.7756C54.6303 37.7986 54.633 37.8218 54.6352 37.8451C54.6375 37.8682 54.6391 37.8915 54.6403 37.9148C54.6414 37.9382 54.642 37.9614 54.642 37.9848C54.642 38.0081 54.6414 38.0313 54.6403 38.0547C54.6391 38.078 54.6375 38.1013 54.6352 38.1244C54.633 38.1477 54.6303 38.1709 54.6269 38.1939C54.6236 38.2171 54.6197 38.2401 54.6153 38.263C54.6109 38.2859 54.6059 38.3087 54.6004 38.3315C54.5948 38.3541 54.5888 38.3767 54.5823 38.3992C54.5756 38.4216 54.5685 38.4438 54.5608 38.4659C54.5532 38.488 54.5451 38.5099 54.5363 38.5317C54.5276 38.5535 54.5184 38.575 54.5087 38.5963C54.499 38.6176 54.4887 38.6387 54.478 38.6596C54.4673 38.6804 54.4561 38.701 54.4443 38.7214C54.4326 38.7417 54.4204 38.7618 54.4077 38.7816C54.395 38.8014 54.3819 38.821 54.3683 38.8402C54.3547 38.8594 54.3407 38.8782 54.3261 38.8968C54.3116 38.9154 54.2966 38.9336 54.2813 38.9515C54.2659 38.9694 54.2501 38.987 54.2339 39.0042C54.2177 39.0214 54.2011 39.0382 54.1841 39.0546C54.1671 39.0711 54.1496 39.0871 54.1318 39.1028C54.114 39.1184 54.0959 39.1337 54.0774 39.1485C54.0589 39.1633 54.0401 39.1777 54.0208 39.1917C54.0016 39.2058 53.9821 39.2193 53.9623 39.2324C53.9425 39.2455 53.9223 39.2581 53.9018 39.2703C53.8813 39.2825 53.8606 39.2942 53.8396 39.3055C53.8186 39.3168 53.7974 39.3275 53.7758 39.3378C53.7543 39.3481 53.7325 39.3579 53.7106 39.3672C53.6885 39.3765 53.6664 39.3853 53.644 39.3937C53.6216 39.402 53.5989 39.4098 53.5761 39.4171C53.5534 39.4244 53.5304 39.4311 53.5073 39.4374C53.4842 39.4437 53.461 39.4494 53.4376 39.4546C53.4142 39.4599 53.3908 39.4645 53.3671 39.4687C53.3435 39.4729 53.3198 39.4765 53.296 39.4795C53.2722 39.4826 53.2484 39.4852 53.2245 39.4872L34.7061 39.4872C34.6794 39.4894 34.6526 39.491 34.6259 39.4919C34.5991 39.4929 34.5724 39.4931 34.5456 39.4926C34.5188 39.4922 34.4921 39.4911 34.4653 39.4893C34.4387 39.4875 34.412 39.485 34.3853 39.4819C34.3588 39.4788 34.3323 39.475 34.3059 39.4705C34.2795 39.466 34.2533 39.4608 34.2272 39.4551C34.201 39.4493 34.1752 39.4428 34.1494 39.4358C34.1236 39.4286 34.098 39.4209 34.0727 39.4125C34.0473 39.4042 34.0222 39.3951 33.9973 39.3855C33.9724 39.3758 33.9479 39.3656 33.9235 39.3547C33.8992 39.3438 33.8752 39.3324 33.8514 39.3202C33.8278 39.3081 33.8044 39.2954 33.7813 39.2821C33.7583 39.2689 33.7356 39.255 33.7133 39.2406C33.691 39.2262 33.6692 39.2112 33.6477 39.1957C33.6261 39.1802 33.605 39.1642 33.5844 39.1475C33.5638 39.1309 33.5436 39.1139 33.5238 39.0963C33.5041 39.0786 33.4848 39.0606 33.466 39.042C33.4472 39.0234 33.429 39.0044 33.4113 38.9849C33.3935 38.9654 33.3763 38.9455 33.3595 38.9252C33.3428 38.9048 33.3267 38.884 33.3111 38.8628C33.2955 38.8417 33.2804 38.8202 33.266 38.7982C33.2516 38.7763 33.2378 38.7541 33.2245 38.7314C33.2113 38.7088 33.1986 38.6859 33.1866 38.6625C33.1745 38.6393 33.1631 38.6158 33.1523 38.5919C33.1416 38.568 33.1314 38.544 33.1219 38.5196C33.1124 38.4953 33.1036 38.4707 33.0953 38.4459C33.0872 38.4211 33.0797 38.3961 33.0728 38.371C33.0659 38.3458 33.0597 38.3204 33.0542 38.295C33.0487 38.2695 33.044 38.2439 33.0398 38.2181C33.0356 38.1924 33.0321 38.1666 33.0294 38.1407C33.0266 38.1148 33.0246 38.0889 33.0231 38.0629C33.0218 38.0369 33.0211 38.0108 33.0211 37.9848C33.0211 37.9587 33.0218 37.9327 33.0231 37.9067C33.0246 37.8807 33.0267 37.8548 33.0294 37.8289C33.0322 37.803 33.0356 37.7772 33.0398 37.7515C33.044 37.7257 33.0487 37.7001 33.0542 37.6746C33.0597 37.6491 33.0659 37.6238 33.0728 37.5986C33.0797 37.5734 33.0872 37.5485 33.0953 37.5237C33.1036 37.4989 33.1124 37.4743 33.1219 37.45C33.1314 37.4256 33.1416 37.4016 33.1523 37.3777C33.1631 37.3538 33.1745 37.3303 33.1866 37.3071C33.1986 37.2837 33.2113 37.2608 33.2245 37.2382C33.2378 37.2155 33.2516 37.1933 33.266 37.1714C33.2804 37.1494 33.2955 37.1279 33.3111 37.1068C33.3267 37.0856 33.3428 37.0648 33.3595 37.0444C33.3763 37.0241 33.3935 37.0042 33.4113 36.9846C33.429 36.9652 33.4472 36.9461 33.466 36.9275C33.4848 36.909 33.5041 36.8909 33.5238 36.8733C33.5436 36.8557 33.5638 36.8387 33.5844 36.822C33.605 36.8054 33.6261 36.7894 33.6477 36.7739C33.6692 36.7583 33.691 36.7433 33.7133 36.729C33.7356 36.7146 33.7583 36.7007 33.7813 36.6874C33.8044 36.6742 33.8278 36.6615 33.8514 36.6494C33.8752 36.6372 33.8992 36.6258 33.9235 36.6149C33.9479 36.604 33.9724 36.5937 33.9973 36.5841C34.0222 36.5745 34.0473 36.5654 34.0727 36.5571C34.098 36.5487 34.1236 36.541 34.1494 36.5338C34.1752 36.5267 34.201 36.5203 34.2272 36.5145C34.2533 36.5087 34.2795 36.5036 34.3059 36.4991C34.3323 36.4946 34.3588 36.4908 34.3853 36.4877C34.412 36.4845 34.4387 36.4821 34.4653 36.4803C34.4921 36.4785 34.5188 36.4774 34.5456 36.477C34.5724 36.4765 34.5991 36.4767 34.6259 36.4777C34.6526 36.4786 34.6794 36.4802 34.7061 36.4824L34.7061 36.4823ZM40.8751 45.4856L34.7061 45.4856C34.6794 45.4879 34.6526 45.4894 34.6259 45.4903C34.5991 45.4913 34.5724 45.4915 34.5456 45.491C34.5188 45.4906 34.4921 45.4895 34.4653 45.4877C34.4387 45.4859 34.412 45.4835 34.3853 45.4803C34.3588 45.4772 34.3323 45.4734 34.3059 45.4689C34.2795 45.4644 34.2533 45.4593 34.2272 45.4535C34.201 45.4477 34.1752 45.4413 34.1494 45.4342C34.1236 45.427 34.098 45.4193 34.0727 45.4109C34.0473 45.4026 34.0222 45.3935 33.9973 45.3839C33.9724 45.3743 33.9479 45.364 33.9235 45.3531C33.8992 45.3422 33.8752 45.3308 33.8514 45.3186C33.8278 45.3065 33.8044 45.2938 33.7813 45.2806C33.7583 45.2673 33.7356 45.2534 33.7133 45.239C33.691 45.2246 33.6692 45.2096 33.6477 45.1941C33.6261 45.1786 33.605 45.1626 33.5844 45.146C33.5638 45.1293 33.5436 45.1123 33.5238 45.0946C33.5041 45.0771 33.4848 45.059 33.466 45.0405C33.4472 45.0219 33.429 45.0028 33.4113 44.9834C33.3935 44.9638 33.3763 44.9439 33.3595 44.9236C33.3428 44.9032 33.3267 44.8824 33.3111 44.8612C33.2955 44.8401 33.2805 44.8185 33.2661 44.7966C33.2517 44.7747 33.2378 44.7524 33.2245 44.7297C33.2113 44.7071 33.1986 44.6842 33.1866 44.6609C33.1745 44.6377 33.1631 44.6142 33.1523 44.5903C33.1416 44.5665 33.1314 44.5424 33.1219 44.5181C33.1124 44.4937 33.1036 44.4691 33.0953 44.4443C33.0872 44.4195 33.0797 44.3946 33.0728 44.3694C33.066 44.3442 33.0598 44.3189 33.0542 44.2934C33.0487 44.2679 33.044 44.2423 33.0398 44.2166C33.0356 44.1908 33.0322 44.1651 33.0294 44.1391C33.0267 44.1132 33.0246 44.0873 33.0231 44.0613C33.0218 44.0353 33.0211 44.0093 33.0211 43.9832C33.0211 43.9572 33.0218 43.9312 33.0231 43.9051C33.0246 43.8791 33.0267 43.8532 33.0294 43.8273C33.0322 43.8014 33.0356 43.7756 33.0398 43.7499C33.044 43.7241 33.0487 43.6985 33.0542 43.673C33.0598 43.6476 33.066 43.6222 33.0728 43.597C33.0797 43.5719 33.0872 43.5469 33.0953 43.5221C33.1036 43.4973 33.1124 43.4727 33.1219 43.4484C33.1314 43.424 33.1416 43.4 33.1523 43.3761C33.1631 43.3523 33.1745 43.3287 33.1866 43.3055C33.1986 43.2822 33.2113 43.2592 33.2245 43.2366C33.2378 43.2139 33.2516 43.1917 33.266 43.1698C33.2804 43.1478 33.2955 43.1263 33.3111 43.1052C33.3267 43.084 33.3428 43.0632 33.3595 43.0428C33.3763 43.0225 33.3935 43.0026 33.4113 42.9831C33.429 42.9636 33.4472 42.9446 33.466 42.926C33.4848 42.9074 33.5041 42.8894 33.5238 42.8717C33.5436 42.8541 33.5638 42.8371 33.5844 42.8205C33.605 42.8038 33.6261 42.7878 33.6477 42.7723C33.6692 42.7568 33.691 42.7418 33.7133 42.7274C33.7356 42.713 33.7583 42.6991 33.7813 42.6859C33.8044 42.6726 33.8278 42.6599 33.8514 42.6478C33.8752 42.6357 33.8992 42.6242 33.9235 42.6133C33.9479 42.6024 33.9724 42.5922 33.9973 42.5825C34.0222 42.5729 34.0473 42.5638 34.0727 42.5555C34.098 42.5471 34.1236 42.5394 34.1494 42.5322C34.1752 42.5252 34.201 42.5187 34.2272 42.5129C34.2533 42.5072 34.2795 42.502 34.3059 42.4975C34.3323 42.493 34.3588 42.4892 34.3853 42.4861C34.412 42.483 34.4387 42.4805 34.4653 42.4787C34.4921 42.4769 34.5188 42.4758 34.5456 42.4754C34.5724 42.475 34.5991 42.4751 34.6259 42.4761C34.6526 42.477 34.6794 42.4786 34.7061 42.4808L40.8635 42.4808C40.8874 42.4828 40.9112 42.4854 40.9349 42.4885C40.9588 42.4916 40.9824 42.4952 41.0061 42.4993C41.0296 42.5035 41.0531 42.5082 41.0765 42.5134C41.0998 42.5186 41.1231 42.5244 41.1462 42.5307C41.1693 42.537 41.1922 42.5437 41.215 42.551C41.2378 42.5583 41.2604 42.5661 41.2828 42.5744C41.3052 42.5828 41.3274 42.5916 41.3493 42.6009C41.3714 42.6102 41.3931 42.6201 41.4146 42.6303C41.4361 42.6406 41.4574 42.6514 41.4784 42.6627C41.4994 42.674 41.5201 42.6857 41.5406 42.6978C41.561 42.7101 41.5811 42.7227 41.601 42.7358C41.6208 42.7489 41.6403 42.7624 41.6595 42.7765C41.6787 42.7904 41.6976 42.8048 41.7161 42.8197C41.7346 42.8345 41.7527 42.8497 41.7705 42.8654C41.7883 42.881 41.8057 42.8971 41.8227 42.9136C41.8397 42.93 41.8563 42.9468 41.8725 42.9639C41.8887 42.9812 41.9045 42.9987 41.9199 43.0166C41.9352 43.0345 41.9502 43.0527 41.9647 43.0713C41.9792 43.0898 41.9932 43.1088 42.0069 43.128C42.0204 43.1472 42.0336 43.1667 42.0463 43.1865C42.059 43.2063 42.0711 43.2263 42.0829 43.2468C42.0946 43.2671 42.1058 43.2877 42.1165 43.3085C42.1273 43.3294 42.1374 43.3505 42.1472 43.3718C42.1569 43.3931 42.1661 43.4146 42.1748 43.4364C42.1835 43.4581 42.1916 43.48 42.1993 43.5021C42.2071 43.5242 42.2141 43.5465 42.2207 43.5689C42.2273 43.5913 42.2334 43.6139 42.2388 43.6366C42.2443 43.6593 42.2493 43.6821 42.2537 43.705C42.2582 43.7279 42.2621 43.7509 42.2654 43.7741C42.2687 43.7971 42.2715 43.8203 42.2737 43.8435C42.276 43.8667 42.2776 43.89 42.2787 43.9133C42.2799 43.9366 42.2804 43.9598 42.2804 43.9832C42.2804 44.0065 42.2799 44.0298 42.2787 44.0531C42.2776 44.0764 42.276 44.0997 42.2737 44.1229C42.2715 44.1461 42.2687 44.1693 42.2654 44.1924C42.2621 44.2155 42.2582 44.2385 42.2537 44.2614C42.2493 44.2843 42.2443 44.3071 42.2388 44.3298C42.2334 44.3525 42.2273 44.3751 42.2207 44.3975C42.2141 44.42 42.2071 44.4422 42.1993 44.4643C42.1916 44.4865 42.1835 44.5083 42.1748 44.53C42.1661 44.5518 42.1569 44.5733 42.1472 44.5946C42.1374 44.6159 42.1273 44.637 42.1165 44.6579C42.1058 44.6788 42.0946 44.6993 42.0829 44.7197C42.0711 44.7401 42.059 44.7601 42.0463 44.7799C42.0336 44.7998 42.0204 44.8192 42.0069 44.8384C41.9932 44.8576 41.9792 44.8766 41.9647 44.8951C41.9502 44.9137 41.9352 44.9319 41.9199 44.9499C41.9045 44.9677 41.8887 44.9853 41.8725 45.0025C41.8563 45.0196 41.8397 45.0364 41.8227 45.0529C41.8057 45.0693 41.7883 45.0854 41.7705 45.101C41.7527 45.1167 41.7346 45.1319 41.7161 45.1467C41.6976 45.1616 41.6787 45.176 41.6595 45.19C41.6403 45.204 41.6208 45.2175 41.601 45.2306C41.5811 45.2437 41.561 45.2564 41.5406 45.2686C41.5201 45.2807 41.4994 45.2924 41.4784 45.3037C41.4574 45.315 41.4361 45.3259 41.4146 45.3361C41.3931 45.3464 41.3714 45.3562 41.3493 45.3656C41.3274 45.3749 41.3052 45.3836 41.2828 45.392C41.2604 45.4004 41.2378 45.4081 41.215 45.4154C41.1922 45.4227 41.1693 45.4295 41.1462 45.4357C41.1231 45.442 41.0998 45.4478 41.0765 45.4531C41.0531 45.4582 41.0296 45.4629 41.0061 45.4671C40.9824 45.4712 40.9588 45.4748 40.9349 45.4779C40.9112 45.481 40.8874 45.4836 40.8635 45.4856L40.8751 45.4856ZM58.0279 50.6287L53.8959 53.5998L55.3658 58.4053C55.3689 58.4167 55.3717 58.4281 55.374 58.4397C55.3763 58.4513 55.3782 58.4629 55.3795 58.4746C55.3809 58.4863 55.3819 58.498 55.3824 58.5098C55.3829 58.5216 55.383 58.5334 55.3827 58.5452C55.3823 58.557 55.3815 58.5688 55.3803 58.5805C55.379 58.5922 55.3774 58.6038 55.3752 58.6154C55.3731 58.6271 55.3705 58.6385 55.3675 58.65C55.3646 58.6614 55.3611 58.6727 55.3573 58.6839C55.3535 58.695 55.3493 58.706 55.3446 58.717C55.3399 58.7278 55.3348 58.7385 55.3294 58.749C55.324 58.7596 55.3181 58.7699 55.3118 58.78C55.3056 58.7901 55.299 58.8 55.292 58.8095C55.285 58.8192 55.2777 58.8286 55.27 58.8377C55.2623 58.8468 55.2543 58.8556 55.246 58.8641C55.2376 58.8727 55.2289 58.8809 55.22 58.8889C55.211 58.8968 55.2018 58.9044 55.1922 58.9117C55.1718 58.9249 55.1504 58.9365 55.1282 58.9466C55.106 58.9566 55.083 58.965 55.0595 58.9716C55.0359 58.9783 55.012 58.9832 54.9877 58.9864C54.9633 58.9896 54.9389 58.9909 54.9144 58.9905C54.8674 58.9885 54.8212 58.9809 54.7762 58.9676C54.7311 58.9542 54.6885 58.9355 54.6483 58.9117L50.4237 56.0419L46.1644 58.8554C46.1437 58.8619 46.1224 58.8651 46.1007 58.8651C46.079 58.8651 46.0578 58.8619 46.037 58.8554L45.8056 58.8554L45.6667 58.7878C45.6576 58.7806 45.6487 58.7731 45.6401 58.7653C45.6315 58.7574 45.6232 58.7493 45.6152 58.7408C45.6072 58.7324 45.5995 58.7237 45.5922 58.7147C45.5848 58.7058 45.5778 58.6966 45.5712 58.6871C45.5645 58.6776 45.5582 58.6679 45.5523 58.658C45.5464 58.6481 45.5409 58.6379 45.5357 58.6277C45.5305 58.6173 45.5257 58.6068 45.5214 58.5962C45.517 58.5855 45.513 58.5748 45.5094 58.5638C45.5058 58.5529 45.5027 58.5419 45.5 58.5307C45.4972 58.5196 45.4948 58.5083 45.493 58.497C45.491 58.4857 45.4895 58.4744 45.4885 58.4629C45.4875 58.4515 45.4869 58.4401 45.4866 58.4286C45.4864 58.4172 45.4867 58.4056 45.4873 58.3942C45.4879 58.3827 45.4891 58.3714 45.4906 58.36C45.4921 58.3486 45.4939 58.3373 45.4963 58.3261C45.4987 58.3148 45.5015 58.3037 45.5047 58.2927L47.021 53.5548L42.8889 50.5274C42.8793 50.5206 42.87 50.5134 42.8609 50.5059C42.8518 50.4984 42.8432 50.4905 42.8347 50.4823C42.8263 50.474 42.8182 50.4655 42.8105 50.4567C42.8028 50.4478 42.7955 50.4387 42.7885 50.4293C42.7815 50.4199 42.7749 50.4103 42.7688 50.4004C42.7626 50.3905 42.7568 50.3803 42.7514 50.37C42.746 50.3596 42.7411 50.3491 42.7366 50.3383C42.7321 50.3275 42.728 50.3167 42.7244 50.3056C42.7207 50.2946 42.7177 50.2834 42.7149 50.2721C42.7122 50.2609 42.71 50.2495 42.7082 50.238C42.7064 50.2266 42.7051 50.215 42.7043 50.2035C42.7035 50.1919 42.7031 50.1803 42.7032 50.1687C42.7033 50.1571 42.7038 50.1456 42.7049 50.134C42.706 50.1225 42.7075 50.111 42.7094 50.0996C42.7115 50.0881 42.7138 50.0768 42.7168 50.0655C42.7197 50.0543 42.7231 50.0432 42.7269 50.0322C42.7307 50.021 42.735 50.01 42.7397 49.9991C42.7444 49.9882 42.7495 49.9775 42.7551 49.9671C42.7607 49.9566 42.7666 49.9464 42.773 49.9363C42.7794 49.9262 42.7861 49.9165 42.7933 49.9069C42.8004 49.8974 42.8079 49.8881 42.8158 49.8791C42.8237 49.8701 42.8318 49.8614 42.8404 49.8531C42.849 49.8447 42.8579 49.8366 42.867 49.829C42.8762 49.8213 42.8857 49.8139 42.8955 49.8069C42.9052 49.7999 42.9152 49.7933 42.9255 49.787C42.9358 49.7807 42.9463 49.7749 42.9571 49.7695C42.9679 49.764 42.9788 49.759 42.99 49.7543C43.0012 49.7497 43.0125 49.7454 43.0239 49.7416C43.0354 49.7379 43.047 49.7345 43.0588 49.7315C43.0706 49.7286 43.0824 49.7261 43.0943 49.724C43.1063 49.722 43.1182 49.7204 43.1304 49.7192C43.1424 49.7181 43.1546 49.7174 43.1667 49.7171L48.3519 49.7171L48.514 49.2557L50.0648 45.0355C50.0687 45.0244 50.073 45.0136 50.0778 45.0028C50.0826 44.9921 50.0878 44.9816 50.0934 44.9713C50.099 44.961 50.105 44.9509 50.1115 44.941C50.1179 44.9311 50.1247 44.9215 50.1319 44.9121C50.139 44.9028 50.1466 44.8937 50.1545 44.8849C50.1624 44.8761 50.1706 44.8677 50.1792 44.8595C50.1878 44.8513 50.1968 44.8436 50.206 44.8361C50.2152 44.8286 50.2247 44.8215 50.2345 44.8147C50.2443 44.8079 50.2543 44.8016 50.2646 44.7955C50.275 44.7896 50.2855 44.784 50.2962 44.7787C50.307 44.7736 50.3179 44.7687 50.329 44.7644C50.3402 44.76 50.3515 44.7561 50.3629 44.7526C50.3744 44.749 50.386 44.7459 50.3977 44.7433C50.4093 44.7406 50.4211 44.7384 50.433 44.7366C50.4449 44.7349 50.4568 44.7336 50.4688 44.7327C50.4807 44.7319 50.4928 44.7315 50.5047 44.7315C50.5166 44.7321 50.5285 44.733 50.5402 44.7343C50.552 44.7357 50.5638 44.7375 50.5754 44.7396C50.5871 44.7418 50.5987 44.7443 50.6102 44.7473C50.6216 44.7503 50.633 44.7537 50.6442 44.7574C50.6555 44.7612 50.6666 44.7653 50.6775 44.7699C50.6884 44.7744 50.6992 44.7793 50.7098 44.7846C50.7203 44.7898 50.7307 44.7955 50.7409 44.8015C50.751 44.8075 50.761 44.8139 50.7706 44.8205C50.7803 44.8272 50.7897 44.8343 50.7989 44.8416C50.8081 44.8489 50.8169 44.8566 50.8255 44.8646C50.8341 44.8726 50.8424 44.8809 50.8504 44.8894C50.8585 44.8979 50.8661 44.9067 50.8734 44.9158C50.8808 44.9249 50.8878 44.9342 50.8944 44.9437C50.9011 44.9533 50.9075 44.9631 50.9134 44.9732C50.9193 44.9832 50.9248 44.9934 50.93 45.0038C50.9353 45.0142 50.94 45.0247 50.9445 45.0355L52.4492 49.2894L52.6113 49.7509L55.1343 49.7509L57.7732 49.8184C57.7851 49.8189 57.797 49.8198 57.8088 49.8213C57.8205 49.8227 57.8323 49.8245 57.844 49.8268C57.8557 49.8291 57.8673 49.8317 57.8787 49.8348C57.8901 49.8379 57.9015 49.8415 57.9126 49.8454C57.9239 49.8493 57.9349 49.8537 57.9458 49.8584C57.9566 49.8632 57.9672 49.8683 57.9777 49.8738C57.9882 49.8794 57.9984 49.8852 58.0084 49.8915C58.0184 49.8978 58.0281 49.9044 58.0376 49.9114C58.0471 49.9184 58.0563 49.9257 58.0653 49.9333C58.0742 49.941 58.0828 49.9489 58.091 49.9573C58.0993 49.9656 58.1073 49.9742 58.115 49.983C58.1226 49.9919 58.1299 50.001 58.1368 50.0104C58.1438 50.0198 58.1504 50.0295 58.1566 50.0394C58.1627 50.0493 58.1685 50.0593 58.1739 50.0696C58.1793 50.0799 58.1844 50.0904 58.1889 50.1011C58.1935 50.1118 58.1977 50.1226 58.2015 50.1336C58.2049 50.1447 58.2078 50.156 58.2104 50.1673C58.213 50.1787 58.215 50.1902 58.2167 50.2017C58.2183 50.2132 58.2194 50.2248 58.2202 50.2364C58.2209 50.248 58.2211 50.2597 58.221 50.2713C58.2207 50.2829 58.22 50.2945 58.2188 50.3061C58.2177 50.3177 58.2161 50.3292 58.214 50.3407C58.212 50.3522 58.2094 50.3635 58.2065 50.3748C58.2035 50.3861 58.2001 50.3972 58.1962 50.4082C58.1924 50.4192 58.1881 50.4301 58.1834 50.4408C58.1786 50.4514 58.1735 50.462 58.1679 50.4723C58.1623 50.4825 58.1564 50.4926 58.15 50.5025C58.1436 50.5123 58.1369 50.5219 58.1298 50.5313C58.1226 50.5407 58.1152 50.5497 58.1073 50.5585C58.0994 50.5672 58.0913 50.5757 58.0827 50.5839C58.0742 50.5921 58.0653 50.5998 58.0562 50.6073C58.0471 50.6148 58.0376 50.622 58.0279 50.6288L58.0279 50.6287Z"></path></g><defs><linearGradient id="linear_0" x1="0.0001249996875049308%" y1="50%" x2="99.9998750003125%" y2="50%" gradientUnits="objectBoundingBox"><stop offset="0" stop-color="#FF6D00" stop-opacity="1" /><stop offset="1" stop-color="#F7AD59" stop-opacity="1" /></linearGradient></defs></svg>