<svg xmlns="http://www.w3.org/2000/svg" xmlns:xlink="http://www.w3.org/1999/xlink" width="88" height="88" viewBox="0 0 88 88" fill="none"><g opacity="1"  transform="translate(0 0)"><path id="路径 29" fill-rule="evenodd" fill="url(#linear_0)" opacity="1" d="M33.6279 67.003ZM53.6579 67.003L53.6579 66.633C53.6579 61.993 49.2079 58.283 43.6379 58.283C38.0779 58.283 33.6279 61.993 33.6279 66.633L33.6279 67.003L53.6579 67.003Z"></path><path id="路径 30" fill-rule="evenodd" fill="url(#linear_1)" opacity="1" d="M54.3979 29.1749C54.3979 23.4249 49.7579 18.7849 44.0079 18.7849C38.2679 18.7849 33.6279 23.4249 33.6279 29.1749C33.6279 34.9149 38.2679 39.5549 44.0079 39.5549C49.7579 39.5549 54.3979 34.9149 54.3979 29.1749ZM30.2888 66.9997L24.1688 66.9997C22.6888 64.9597 21.7588 62.5497 21.7588 60.1397C22.1288 57.5397 29.1788 44.9297 32.1388 43.4497C35.1088 41.9697 37.1488 41.4097 44.0088 41.4097C46.4188 41.4097 48.8288 41.4097 51.2388 41.7797L41.9688 55.4997C35.4788 56.2397 30.2888 61.0697 30.2888 66.6297L30.2888 66.9997ZM57.7297 66.6268C57.7297 60.8768 52.5397 56.0568 45.6797 55.3168L54.2097 42.7068C54.7697 42.8968 55.3197 43.2668 55.8797 43.4468C58.8497 44.9368 65.8897 57.3568 66.2597 60.1368C66.2597 62.5468 65.3397 64.9568 63.8497 66.9968L57.7297 66.9968L57.7297 66.6268Z"></path></g><defs><linearGradient id="linear_0" x1="1261.41838488418%" y1="-8820.539093017578%" x2="1361.4029327177616%" y2="-8820.539093017578%" gradientUnits="objectBoundingBox"><stop offset="0" stop-color="#FF3831" stop-opacity="1" /><stop offset="1" stop-color="#FFA4C2" stop-opacity="1" /></linearGradient><linearGradient id="linear_1" x1="-0.004605705465066115%" y1="50%" x2="100.00460570546508%" y2="50%" gradientUnits="objectBoundingBox"><stop offset="0.0069" stop-color="#FF3831" stop-opacity="1" /><stop offset="1" stop-color="#FFA4C2" stop-opacity="1" /></linearGradient></defs></svg>