<svg xmlns="http://www.w3.org/2000/svg" xmlns:xlink="http://www.w3.org/1999/xlink" width="88" height="88" viewBox="0 0 88 88" fill="none"><g opacity="1"  transform="translate(0 0)"><path id="减去顶层" fill-rule="evenodd" style="fill:#CCCCCC" opacity="1" d="M62.909 49.1901C62.7994 49.1007 62.6825 49.0147 62.569 48.9301C62.4556 48.8455 62.3461 48.7596 62.229 48.6801C62.112 48.6006 61.9894 48.5245 61.869 48.4501C61.7486 48.3758 61.6325 48.3092 61.509 48.2401C61.3856 48.1711 61.2554 48.1038 61.129 48.0401C61.0026 47.9765 60.8781 47.9182 60.749 47.8601C60.62 47.8021 60.4905 47.7425 60.359 47.6901C60.2276 47.6377 60.0926 47.5867 59.959 47.5401C59.8254 47.4935 59.6945 47.4509 59.559 47.4101C59.4236 47.3694 59.2862 47.335 59.149 47.3001C59.0119 47.2653 58.8676 47.229 58.729 47.2001C58.5905 47.1713 58.4587 47.1429 58.319 47.1201C58.1794 47.0973 58.0396 47.0768 57.899 47.0601C57.7585 47.0434 57.6101 47.0306 57.469 47.0201C57.3279 47.0096 57.1904 47.0001 57.049 47.0001L56.629 47.0001C56.4876 47.0001 56.3403 47.0101 56.199 47.0101C56.0577 47.0101 55.9198 47.0361 55.779 47.0501C55.6383 47.0642 55.4991 47.0799 55.359 47.1001C55.219 47.1203 55.0781 47.1438 54.939 47.1701C54.8 47.1964 54.6568 47.2178 54.519 47.2501C54.3813 47.2824 54.2453 47.3219 54.109 47.3601C53.9728 47.3983 53.8435 47.436 53.709 47.4801C53.5746 47.5243 53.4414 47.5702 53.309 47.6201C53.1766 47.6701 53.0392 47.7245 52.909 47.7801C52.7789 47.8358 52.6566 47.8988 52.529 47.9601C52.4015 48.0214 52.2738 48.0834 52.149 48.1501C52.0243 48.2169 51.9008 48.288 51.779 48.3601C51.6573 48.4322 51.5375 48.5028 51.419 48.5801C51.3005 48.6574 51.1841 48.7377 51.069 48.8201C50.954 48.9026 50.8404 48.9928 50.729 49.0801C50.6177 49.1675 50.5064 49.258 50.399 49.3501C50.2916 49.4423 50.1823 49.5334 50.079 49.6301C49.9758 49.7268 49.878 49.829 49.779 49.9301C49.68 50.0312 49.5835 50.1348 49.489 50.2401C49.3945 50.3455 49.2988 50.4508 49.209 50.5601C49.1192 50.6695 49.034 50.777 48.949 50.8901C48.8641 51.0033 48.779 51.1234 48.699 51.2401C48.6191 51.3568 48.5438 51.47 48.469 51.5901C48.3942 51.7102 48.3285 51.8369 48.259 51.9601C48.1895 52.0834 48.1132 52.204 48.049 52.3301C47.9849 52.4562 47.9276 52.5813 47.869 52.7101C47.8105 52.8389 47.7519 52.9688 47.699 53.1001C47.6461 53.2313 47.5962 53.3667 47.549 53.5001C47.502 53.6335 47.4603 53.7648 47.419 53.9001C47.3778 54.0355 47.3444 54.1731 47.309 54.3101C47.2737 54.4471 47.2384 54.5817 47.209 54.7201C47.1797 54.8586 47.1523 55.0005 47.129 55.1401C47.1057 55.2797 47.0862 55.4197 47.069 55.5601C47.0519 55.7006 47.0401 55.8391 47.029 55.9801C47.018 56.1212 46.999 56.2687 46.999 56.4101L46.999 56.8301C46.999 56.9716 47.009 57.1188 47.009 57.2601C47.009 57.4014 47.0255 57.5393 47.039 57.6801C47.0526 57.821 47.0694 57.96 47.089 58.1001C47.1087 58.2403 47.1333 58.381 47.159 58.5201C47.1848 58.6592 47.2173 58.8022 47.249 58.9401C47.2808 59.078 47.3113 59.2137 47.349 59.3501C47.3868 59.4865 47.4254 59.6155 47.469 59.7501C47.5127 59.8847 47.5596 60.0175 47.609 60.1501C47.6585 60.2827 47.7139 60.4198 47.769 60.5501C47.8242 60.6804 47.8783 60.8123 47.939 60.9401C47.9998 61.0679 48.0627 61.1851 48.129 61.3101C48.1954 61.4351 48.2674 61.5681 48.339 61.6901L47.729 62.2101C47.6636 62.2617 47.5966 62.3113 47.529 62.3601C47.4615 62.4089 47.3985 62.4541 47.329 62.5001C47.2596 62.5461 47.1904 62.5971 47.119 62.6401C47.0477 62.6831 46.9721 62.7201 46.899 62.7601C46.826 62.8001 46.7537 62.8432 46.679 62.8801C46.6044 62.9171 46.5251 62.9463 46.449 62.9801C46.3729 63.0139 46.2965 63.0494 46.219 63.0801C46.1416 63.1108 46.0677 63.1427 45.989 63.1701C45.9104 63.1975 45.8288 63.216 45.749 63.2401C45.6693 63.2642 45.5897 63.2894 45.509 63.3101C45.4284 63.3308 45.3405 63.3528 45.259 63.3701C45.1776 63.3875 45.1012 63.4061 45.019 63.4201C44.9369 63.4341 44.8517 63.4396 44.769 63.4501C44.6864 63.4607 44.6021 63.4801 44.519 63.4801C44.4361 63.4801 44.3523 63.4901 44.269 63.4901C44.1858 63.4901 44.1024 63.5001 44.019 63.5001L43.769 63.5001C43.6858 63.5001 43.6121 63.4801 43.529 63.4801C43.446 63.4801 43.3617 63.4703 43.279 63.4601C43.1963 63.4499 43.1112 63.4337 43.029 63.4201C42.9469 63.4065 42.8606 63.3872 42.779 63.3701C42.6975 63.3531 42.6198 63.3405 42.539 63.3201C42.4583 63.2997 42.3789 63.2739 42.299 63.2501C42.2191 63.2263 42.1378 63.1972 42.059 63.1701C41.9803 63.1431 41.9066 63.1204 41.829 63.0901C41.7514 63.0598 41.6753 63.0237 41.599 62.9901C41.5228 62.9566 41.4438 62.9268 41.369 62.8901C41.2942 62.8534 41.2222 62.8098 41.149 62.7701C41.0758 62.7304 41.0006 62.6928 40.929 62.6501C40.8575 62.6073 40.7887 62.5658 40.719 62.5201C40.6494 62.4744 40.5767 62.4287 40.509 62.3801C40.4413 62.3315 40.3746 62.2814 40.309 62.2301L23.599 47.9101C23.5733 47.882 23.5433 47.8495 23.519 47.8201C23.4947 47.7907 23.4718 47.7607 23.449 47.7301C23.4262 47.6995 23.4103 47.6718 23.389 47.6401C23.3678 47.6085 23.3487 47.5728 23.329 47.5401C23.3094 47.5074 23.287 47.4738 23.269 47.4401C23.2511 47.4065 23.2353 47.3746 23.219 47.3401C23.2028 47.3056 23.1835 47.2654 23.169 47.2301C23.1545 47.1948 23.1418 47.1661 23.129 47.1301C23.1163 47.0942 23.1099 47.0567 23.099 47.0201C23.0881 46.9836 23.069 46.9472 23.069 46.9101C23.069 46.8731 23.039 46.8376 23.039 46.8001C23.039 46.7626 23.019 46.7179 23.019 46.6801C23.019 46.6423 23.009 46.6081 23.009 46.5701C23.009 46.5321 22.999 46.4982 22.999 46.4601L22.999 46.2301C22.999 46.192 23.009 46.148 23.009 46.1101C23.009 46.0722 23.029 46.0377 23.029 46.0001C23.029 45.9625 23.049 45.9274 23.049 45.8901C23.049 45.8528 23.079 45.8169 23.079 45.7801C23.079 45.7433 23.0974 45.7065 23.109 45.6701C23.1207 45.6338 23.1356 45.5958 23.149 45.5601C23.1625 45.5244 23.1738 45.4851 23.189 45.4501C23.2042 45.4151 23.2221 45.3843 23.239 45.3501C23.256 45.3159 23.2704 45.2834 23.289 45.2501C23.3077 45.2168 23.3288 45.1824 23.349 45.1501C23.3693 45.1179 23.3872 45.0814 23.409 45.0501C23.4309 45.0189 23.4556 44.9902 23.479 44.9601C23.5024 44.93 23.5241 44.899 23.549 44.8701C23.5739 44.8412 23.6027 44.8178 23.629 44.7901C23.6553 44.7625 23.6814 44.7364 23.709 44.7101C23.7367 44.6838 23.7701 44.655 23.799 44.6301C23.8254 44.6072 23.8516 44.5818 23.879 44.5601C23.9064 44.5384 23.9307 44.5206 23.959 44.5001C23.9873 44.4797 24.0198 44.4594 24.049 44.4401C24.0782 44.4209 24.099 44.3981 24.129 44.3801C24.159 44.3622 24.1983 44.3467 24.229 44.3301C24.2598 44.3135 24.2876 44.3054 24.319 44.2901C24.3505 44.2749 24.3769 44.254 24.409 44.2401C24.4411 44.2263 24.4764 44.2126 24.509 44.2001C24.5417 44.1876 24.5758 44.1811 24.609 44.1701C24.6422 44.1591 24.6754 44.1401 24.709 44.1401C24.7426 44.1401 24.775 44.1101 24.809 44.1101C24.8431 44.1101 24.8747 44.0901 24.909 44.0901C24.9434 44.0901 24.9844 44.0701 25.019 44.0701C25.0536 44.0701 25.0842 44.0601 25.119 44.0601C25.1538 44.0601 25.1941 44.0501 25.229 44.0501L30.259 44.0501L30.259 28.2401C30.259 26.0891 31.906 24.5001 34.099 24.5001L53.919 24.5001C55.9815 24.4416 57.7005 26.0311 57.759 28.0501L57.759 44.0501L62.739 44.0501C64.05 44.1221 65.065 45.2146 64.999 46.5001C64.999 46.5314 64.989 46.5589 64.989 46.5901C64.989 46.6213 64.979 46.6491 64.979 46.6801C64.979 46.7111 64.969 46.7493 64.969 46.7801C64.969 46.8109 64.949 46.8395 64.949 46.8701C64.949 46.9007 64.929 46.9298 64.929 46.9601C64.929 46.9904 64.899 47.0202 64.899 47.0501C64.899 47.0801 64.8794 47.1106 64.869 47.1401C64.8587 47.1696 64.8506 47.201 64.839 47.2301C64.8275 47.2592 64.8118 47.2816 64.799 47.3101C64.7863 47.3387 64.7729 47.3721 64.759 47.4001C64.7451 47.4281 64.7341 47.4526 64.719 47.4801C64.704 47.5076 64.6852 47.5333 64.669 47.5601C64.6529 47.5869 64.6363 47.614 64.619 47.6401C64.6018 47.6663 64.5873 47.6947 64.569 47.7201C64.5507 47.7455 64.5283 47.7654 64.509 47.7901C64.4897 47.8148 64.4693 47.8463 64.449 47.8701L62.909 49.1901ZM42.4999 39.5002L37.9999 39.5002C37.9753 39.5002 37.9508 39.4996 37.9263 39.4984C37.9017 39.4972 37.8773 39.4954 37.8528 39.493C37.8284 39.4906 37.8041 39.4876 37.7798 39.484C37.7555 39.4804 37.7313 39.4762 37.7072 39.4714C37.6832 39.4666 37.6592 39.4613 37.6354 39.4553C37.6116 39.4493 37.5879 39.4428 37.5644 39.4356C37.5409 39.4285 37.5176 39.4208 37.4946 39.4125C37.4714 39.4043 37.4485 39.3955 37.4258 39.386C37.4031 39.3767 37.3807 39.3667 37.3585 39.3562C37.3363 39.3457 37.3144 39.3347 37.2928 39.3231C37.2711 39.3116 37.2498 39.2995 37.2287 39.2868C37.2077 39.2742 37.1869 39.2611 37.1665 39.2474C37.1461 39.2338 37.126 39.2197 37.1063 39.2051C37.0866 39.1904 37.0673 39.1753 37.0482 39.1597C37.0293 39.1442 37.0107 39.1281 36.9925 39.1116Q36.9652 39.087 36.9392 39.0609C36.9218 39.0435 36.9049 39.0258 36.8885 39.0076C36.872 38.9894 36.8559 38.9708 36.8404 38.9518C36.8248 38.9329 36.8097 38.9135 36.795 38.8938C36.7804 38.8741 36.7663 38.854 36.7527 38.8336C36.739 38.8132 36.7259 38.7925 36.7133 38.7714C36.7007 38.7503 36.6886 38.729 36.677 38.7073C36.6654 38.6857 36.6544 38.6638 36.6439 38.6416C36.6334 38.6194 36.6234 38.5969 36.614 38.5743C36.6046 38.5516 36.5958 38.5287 36.5876 38.5055C36.5793 38.4825 36.5716 38.4592 36.5644 38.4356C36.5573 38.4122 36.5508 38.3885 36.5448 38.3647C36.5388 38.3409 36.5335 38.317 36.5287 38.2929C36.5239 38.2688 36.5197 38.2446 36.5161 38.2203C36.5125 38.196 36.5095 38.1717 36.5071 38.1473C36.5047 38.1228 36.5029 38.0984 36.5017 38.0738C36.5005 38.0493 36.4999 38.0248 36.4999 38.0002C36.4999 37.9757 36.5005 37.9511 36.5017 37.9266C36.5029 37.9021 36.5047 37.8776 36.5071 37.8532C36.5095 37.8288 36.5125 37.8044 36.5161 37.7801C36.5197 37.7559 36.5239 37.7317 36.5287 37.7076C36.5335 37.6835 36.5388 37.6596 36.5448 37.6358C36.5508 37.6119 36.5573 37.5883 36.5644 37.5648C36.5716 37.5413 36.5793 37.518 36.5876 37.4949C36.5958 37.4718 36.6046 37.4489 36.614 37.4262C36.6234 37.4035 36.6334 37.3811 36.6439 37.3589C36.6544 37.3367 36.6654 37.3148 36.677 37.2931C36.6886 37.2714 36.7007 37.2501 36.7133 37.2291C36.7259 37.208 36.739 37.1873 36.7527 37.1669C36.7663 37.1465 36.7804 37.1264 36.795 37.1067C36.8097 37.087 36.8248 37.0676 36.8404 37.0486C36.8559 37.0297 36.872 37.0111 36.8885 36.9929C36.9049 36.9747 36.9218 36.9569 36.9392 36.9396Q36.9652 36.9136 36.9925 36.8888C37.0107 36.8723 37.0293 36.8563 37.0482 36.8407C37.0673 36.8251 37.0866 36.81 37.1063 36.7954C37.126 36.7808 37.1461 36.7666 37.1665 36.753C37.1869 36.7394 37.2077 36.7263 37.2287 36.7136C37.2498 36.701 37.2711 36.6889 37.2928 36.6773C37.3144 36.6658 37.3363 36.6547 37.3585 36.6442C37.3807 36.6337 37.4031 36.6238 37.4258 36.6144C37.4485 36.605 37.4714 36.5962 37.4945 36.5879C37.5176 36.5797 37.5409 36.5719 37.5644 36.5648C37.5879 36.5577 37.6116 36.5512 37.6354 36.5452C37.6592 36.5392 37.6832 36.5338 37.7072 36.529C37.7313 36.5243 37.7555 36.5201 37.7798 36.5164C37.8041 36.5129 37.8284 36.5099 37.8528 36.5074C37.8773 36.505 37.9017 36.5033 37.9263 36.502C37.9508 36.5008 37.9753 36.5002 37.9999 36.5002L40.3789 36.5002L36.9394 33.0607C36.9215 33.0434 36.9041 33.0258 36.8871 33.0077C36.8701 32.9895 36.8536 32.971 36.8375 32.9521C36.8215 32.9332 36.806 32.9139 36.7909 32.8942C36.7757 32.8745 36.7611 32.8544 36.747 32.834C36.7329 32.8136 36.7194 32.7928 36.7063 32.7717C36.6932 32.7506 36.6807 32.7292 36.6687 32.7074C36.6567 32.6857 36.6452 32.6637 36.6343 32.6414Q36.6179 32.608 36.6032 32.5738C36.5934 32.551 36.5842 32.5279 36.5756 32.5047C36.5669 32.4814 36.5588 32.458 36.5513 32.4343C36.5438 32.4106 36.5369 32.3868 36.5307 32.3628C36.5243 32.3388 36.5186 32.3146 36.5135 32.2903C36.5084 32.2661 36.5039 32.2417 36.5 32.2172C36.4961 32.1926 36.4928 32.168 36.4902 32.1434C36.4875 32.1187 36.4854 32.094 36.484 32.0692C36.4825 32.0444 36.4817 32.0196 36.4815 31.9948C36.4813 31.97 36.4817 31.9452 36.4827 31.9203C36.4837 31.8956 36.4853 31.8708 36.4876 31.8461C36.4898 31.8214 36.4927 31.7967 36.4962 31.7721C36.4996 31.7476 36.5037 31.7231 36.5084 31.6987C36.5131 31.6743 36.5184 31.6501 36.5242 31.626C36.5301 31.6019 36.5366 31.5779 36.5437 31.5541C36.5507 31.5303 36.5584 31.5067 36.5667 31.4833C36.5749 31.4599 36.5837 31.4367 36.5931 31.4138C36.6025 31.3908 36.6125 31.3681 36.623 31.3456C36.6335 31.3231 36.6446 31.3009 36.6563 31.279C36.6679 31.257 36.6801 31.2354 36.6927 31.2141C36.7055 31.1928 36.7187 31.1718 36.7324 31.1511C36.7462 31.1304 36.7604 31.1101 36.7752 31.0902C36.7899 31.0702 36.8052 31.0506 36.8209 31.0314C36.8366 31.0122 36.8528 30.9934 36.8695 30.975C36.8861 30.9566 36.9032 30.9386 36.9208 30.9211C36.9383 30.9035 36.9563 30.8864 36.9747 30.8698C36.9931 30.8531 37.0119 30.8369 37.0311 30.8212C37.0503 30.8055 37.0699 30.7902 37.0899 30.7755C37.1098 30.7607 37.1301 30.7465 37.1508 30.7327C37.1715 30.719 37.1925 30.7058 37.2138 30.6931C37.2351 30.6804 37.2567 30.6682 37.2786 30.6566C37.3006 30.6449 37.3228 30.6339 37.3453 30.6234C37.3678 30.6128 37.3905 30.6029 37.4135 30.5934C37.4364 30.584 37.4596 30.5752 37.483 30.567C37.5064 30.5587 37.53 30.5511 37.5538 30.544C37.5776 30.5369 37.6016 30.5304 37.6257 30.5245C37.6498 30.5187 37.674 30.5134 37.6984 30.5087C37.7228 30.504 37.7473 30.4999 37.7718 30.4965C37.7964 30.493 37.8211 30.4901 37.8458 30.4879C37.8705 30.4856 37.8953 30.484 37.92 30.483C37.9448 30.482 37.9697 30.4816 37.9945 30.4818C38.0193 30.482 38.0441 30.4828 38.0689 30.4843C38.0937 30.4857 38.1184 30.4878 38.1431 30.4905C38.1677 30.4932 38.1923 30.4964 38.2169 30.5003C38.2414 30.5042 38.2657 30.5087 38.29 30.5138C38.3143 30.5189 38.3385 30.5247 38.3625 30.531C38.3865 30.5372 38.4103 30.5441 38.434 30.5516C38.4576 30.5591 38.4811 30.5672 38.5044 30.5759C38.5276 30.5845 38.5507 30.5937 38.5735 30.6035C38.5963 30.6133 38.6188 30.6237 38.6411 30.6346C38.6634 30.6455 38.6854 30.657 38.7071 30.669C38.7289 30.681 38.7503 30.6935 38.7714 30.7066C38.7925 30.7197 38.8132 30.7332 38.8337 30.7473C38.8541 30.7614 38.8742 30.776 38.8939 30.7912Q38.9234 30.8138 38.9518 30.8379C38.9707 30.8539 38.9892 30.8705 39.0074 30.8875C39.0255 30.9044 39.0431 30.9218 39.0604 30.9397L43.9999 35.8792L48.9394 30.9397C48.9569 30.9228 48.9748 30.9064 48.993 30.8904C49.0113 30.8744 49.0299 30.8588 49.0489 30.8437C49.068 30.8286 49.0873 30.814 49.1071 30.7999C49.1268 30.7857 49.1469 30.7721 49.1672 30.7589C49.1877 30.7457 49.2083 30.733 49.2293 30.7209C49.2503 30.7087 49.2716 30.697 49.2932 30.6859C49.3147 30.6747 49.3366 30.6641 49.3587 30.6541C49.3808 30.644 49.4031 30.6344 49.4256 30.6254C49.4482 30.6164 49.4709 30.608 49.4939 30.6001C49.5169 30.5922 49.54 30.5849 49.5633 30.5781C49.5866 30.5713 49.61 30.5651 49.6337 30.5595C49.6573 30.5539 49.6811 30.5488 49.7049 30.5443C49.7288 30.5399 49.7527 30.536 49.7767 30.5327C49.8008 30.5293 49.8249 30.5266 49.8491 30.5244C49.8733 30.5223 49.8975 30.5208 49.9218 30.5198C49.946 30.5188 49.9703 30.5184 49.9946 30.5186C50.0188 30.5189 50.0431 30.5197 50.0673 30.5211C50.0916 30.5224 50.1158 30.5244 50.1399 30.527C50.1641 30.5295 50.1881 30.5327 50.2121 30.5364C50.2361 30.5402 50.26 30.5445 50.2837 30.5493C50.3076 30.5542 50.3312 30.5597 50.3547 30.5657C50.3782 30.5718 50.4016 30.5784 50.4247 30.5856C50.4479 30.5928 50.471 30.6005 50.4938 30.6088C50.5166 30.6171 50.5392 30.6259 50.5616 30.6353C50.584 30.6447 50.6061 30.6546 50.628 30.6651C50.65 30.6755 50.6716 30.6865 50.693 30.698C50.7143 30.7096 50.7354 30.7216 50.7562 30.7341C50.777 30.7467 50.7974 30.7597 50.8176 30.7732C50.8378 30.7867 50.8576 30.8008 50.877 30.8153C50.8965 30.8298 50.9156 30.8447 50.9344 30.8601C50.9531 30.8755 50.9715 30.8914 50.9895 30.9077C51.0075 30.924 51.025 30.9408 51.0422 30.958C51.0594 30.9751 51.0761 30.9927 51.0924 31.0106C51.1087 31.0286 51.1246 31.047 51.14 31.0658C51.1555 31.0845 51.1704 31.1036 51.1849 31.1231C51.1994 31.1426 51.2134 31.1624 51.2269 31.1825C51.2405 31.2027 51.2535 31.2232 51.266 31.244C51.2786 31.2648 51.2906 31.2858 51.3021 31.3072C51.3136 31.3286 51.3247 31.3502 51.3351 31.3721C51.3456 31.3941 51.3554 31.4162 51.3648 31.4386C51.3742 31.4609 51.3831 31.4836 51.3914 31.5064C51.3997 31.5292 51.4074 31.5522 51.4146 31.5754C51.4218 31.5986 51.4284 31.6219 51.4344 31.6455C51.4404 31.669 51.4459 31.6926 51.4508 31.7164C51.4557 31.7402 51.46 31.7641 51.4637 31.7881C51.4675 31.812 51.4706 31.8361 51.4732 31.8603C51.4757 31.8844 51.4777 31.9086 51.4791 31.9328C51.4805 31.957 51.4813 31.9813 51.4815 32.0056C51.4817 32.0299 51.4813 32.0541 51.4803 32.0784C51.4794 32.1026 51.4778 32.1269 51.4757 32.151C51.4735 32.1752 51.4708 32.1993 51.4675 32.2234C51.4642 32.2474 51.4603 32.2714 51.4558 32.2953C51.4514 32.3191 51.4463 32.3428 51.4406 32.3665C51.435 32.3901 51.4288 32.4136 51.4221 32.4369C51.4153 32.4602 51.408 32.4833 51.4001 32.5063C51.3922 32.5292 51.3837 32.552 51.3747 32.5745C51.3657 32.5971 51.3562 32.6194 51.3461 32.6415C51.336 32.6636 51.3254 32.6854 51.3142 32.707C51.3031 32.7285 51.2915 32.7498 51.2793 32.7708C51.2671 32.7918 51.2545 32.8125 51.2413 32.8329C51.2281 32.8533 51.2145 32.8734 51.2003 32.8931Q51.1791 32.9227 51.1564 32.9512C51.1413 32.9702 51.1258 32.9889 51.1098 33.0071C51.0938 33.0254 51.0773 33.0432 51.0605 33.0607L47.6209 36.5002L50 36.5002C50.0245 36.5002 50.0491 36.5008 50.0735 36.502C50.0981 36.5033 50.1226 36.505 50.147 36.5074C50.1714 36.5099 50.1958 36.5129 50.22 36.5164C50.2443 36.5201 50.2685 36.5243 50.2926 36.529C50.3167 36.5338 50.3406 36.5392 50.3644 36.5452C50.3882 36.5512 50.4119 36.5577 50.4354 36.5648C50.4589 36.5719 50.4822 36.5797 50.5053 36.5879C50.5284 36.5962 50.5513 36.605 50.574 36.6144C50.5967 36.6238 50.6191 36.6337 50.6413 36.6442C50.6635 36.6547 50.6854 36.6658 50.7071 36.6773C50.7287 36.6889 50.7501 36.701 50.7711 36.7136C50.7922 36.7263 50.8129 36.7394 50.8333 36.753C50.8537 36.7666 50.8738 36.7808 50.8935 36.7954C50.9132 36.81 50.9326 36.8251 50.9516 36.8407C50.9706 36.8563 50.9891 36.8723 51.0073 36.8888C51.0255 36.9053 51.0433 36.9222 51.0606 36.9396C51.078 36.9569 51.0949 36.9747 51.1114 36.9929C51.1279 37.0111 51.1439 37.0297 51.1595 37.0486C51.1751 37.0676 51.1902 37.087 51.2048 37.1067C51.2194 37.1264 51.2336 37.1465 51.2472 37.1669C51.2608 37.1873 51.2739 37.208 51.2865 37.2291C51.2992 37.2502 51.3113 37.2715 51.3228 37.2931C51.3344 37.3148 51.3455 37.3367 51.356 37.3589C51.3665 37.3811 51.3764 37.4035 51.3858 37.4262C51.3952 37.4489 51.404 37.4718 51.4123 37.4949C51.4206 37.518 51.4282 37.5413 51.4354 37.5648C51.4425 37.5883 51.4491 37.6119 51.455 37.6358C51.461 37.6596 51.4664 37.6835 51.4711 37.7076C51.4759 37.7317 51.4801 37.7559 51.4837 37.7801C51.4874 37.8044 51.4904 37.8288 51.4927 37.8532C51.4952 37.8776 51.497 37.9021 51.4981 37.9266C51.4994 37.9511 51.5 37.9757 51.5 38.0002C51.5 38.0248 51.4994 38.0493 51.4981 38.0738C51.497 38.0984 51.4952 38.1228 51.4927 38.1473C51.4904 38.1717 51.4874 38.196 51.4837 38.2203C51.4801 38.2446 51.4759 38.2688 51.4711 38.2929C51.4664 38.317 51.461 38.3409 51.455 38.3647C51.4491 38.3885 51.4425 38.4122 51.4354 38.4356C51.4282 38.4592 51.4206 38.4825 51.4123 38.5055C51.404 38.5287 51.3952 38.5516 51.3858 38.5743C51.3764 38.5969 51.3665 38.6194 51.356 38.6416C51.3455 38.6638 51.3344 38.6857 51.3228 38.7073C51.3113 38.729 51.2992 38.7503 51.2865 38.7714C51.2739 38.7925 51.2608 38.8132 51.2472 38.8336C51.2336 38.854 51.2194 38.8741 51.2048 38.8938C51.1902 38.9135 51.1751 38.9329 51.1595 38.9518C51.1439 38.9708 51.1279 38.9894 51.1114 39.0076C51.0949 39.0258 51.078 39.0435 51.0606 39.0609C51.0433 39.0783 51.0255 39.0952 51.0073 39.1116C50.9891 39.1281 50.9706 39.1442 50.9516 39.1597C50.9326 39.1753 50.9132 39.1904 50.8935 39.2051C50.8738 39.2197 50.8537 39.2338 50.8333 39.2474C50.8129 39.2611 50.7922 39.2742 50.7711 39.2868C50.7501 39.2995 50.7287 39.3116 50.7071 39.3231C50.6854 39.3347 50.6635 39.3457 50.6413 39.3562C50.6191 39.3667 50.5967 39.3767 50.574 39.386C50.5513 39.3955 50.5284 39.4043 50.5053 39.4125C50.4822 39.4208 50.4589 39.4285 50.4354 39.4356C50.4119 39.4428 50.3882 39.4493 50.3644 39.4553C50.3406 39.4613 50.3167 39.4666 50.2926 39.4714C50.2685 39.4762 50.2443 39.4804 50.22 39.484C50.1958 39.4876 50.1714 39.4906 50.147 39.493C50.1226 39.4954 50.0981 39.4972 50.0735 39.4984C50.0491 39.4996 50.0245 39.5002 50 39.5002L45.4999 39.5002L45.4999 41.0002L48.4999 41.0002C48.5245 41.0002 48.5491 41.0009 48.5735 41.0021C48.5981 41.0033 48.6226 41.0051 48.647 41.0075C48.6714 41.0099 48.6957 41.0129 48.72 41.0165C48.7443 41.0201 48.7685 41.0243 48.7926 41.0291C48.8167 41.0339 48.8406 41.0392 48.8644 41.0452C48.8882 41.0512 48.9119 41.0577 48.9354 41.0648C48.9589 41.072 48.9822 41.0797 49.0053 41.0879C49.0284 41.0962 49.0513 41.1051 49.074 41.1144C49.0967 41.1238 49.1191 41.1337 49.1413 41.1442C49.1635 41.1547 49.1854 41.1658 49.2071 41.1774C49.2287 41.189 49.25 41.2011 49.2711 41.2137C49.2922 41.2263 49.3129 41.2394 49.3333 41.253C49.3537 41.2667 49.3738 41.2808 49.3935 41.2954C49.4132 41.31 49.4326 41.3252 49.4516 41.3407C49.4705 41.3563 49.4891 41.3723 49.5073 41.3888C49.5255 41.4053 49.5432 41.4223 49.5606 41.4396C49.578 41.457 49.5949 41.4747 49.6114 41.4929C49.6279 41.5111 49.6439 41.5297 49.6595 41.5486C49.6751 41.5677 49.6902 41.587 49.7048 41.6067C49.7194 41.6264 49.7336 41.6465 49.7472 41.6669C49.7608 41.6873 49.7739 41.7081 49.7865 41.7291C49.7992 41.7502 49.8113 41.7715 49.8228 41.7931C49.8344 41.8148 49.8455 41.8367 49.856 41.8589C49.8665 41.8811 49.8764 41.9035 49.8858 41.9262C49.8952 41.9489 49.904 41.9718 49.9123 41.9949C49.9205 42.018 49.9282 42.0413 49.9354 42.0648C49.9425 42.0884 49.9491 42.112 49.955 42.1358C49.961 42.1596 49.9663 42.1836 49.9711 42.2076C49.9759 42.2317 49.9801 42.2559 49.9837 42.2802C49.9873 42.3045 49.9903 42.3288 49.9927 42.3532C49.9952 42.3777 49.997 42.4021 49.9981 42.4267C49.9993 42.4512 50 42.4757 50 42.5003C50 42.5248 49.9993 42.5494 49.9981 42.5738C49.997 42.5984 49.9952 42.6229 49.9927 42.6473C49.9903 42.6717 49.9873 42.6961 49.9837 42.7203C49.9801 42.7446 49.9759 42.7688 49.9711 42.7929C49.9663 42.817 49.961 42.8409 49.955 42.8647C49.9491 42.8885 49.9425 42.9122 49.9354 42.9357C49.9282 42.9592 49.9205 42.9825 49.9123 43.0056C49.904 43.0287 49.8952 43.0516 49.8858 43.0743C49.8764 43.097 49.8665 43.1194 49.856 43.1416C49.8455 43.1638 49.8344 43.1857 49.8228 43.2074C49.8113 43.229 49.7992 43.2504 49.7865 43.2714C49.7739 43.2925 49.7608 43.3132 49.7472 43.3336C49.7336 43.354 49.7194 43.3741 49.7048 43.3938C49.6902 43.4135 49.6751 43.4329 49.6595 43.4519C49.6439 43.4709 49.6279 43.4894 49.6114 43.5076Q49.5867 43.5349 49.5606 43.5609C49.5432 43.5783 49.5255 43.5952 49.5073 43.6117C49.4891 43.6282 49.4705 43.6442 49.4516 43.6598C49.4326 43.6754 49.4132 43.6905 49.3935 43.7051C49.3738 43.7197 49.3537 43.7339 49.3333 43.7475C49.3129 43.7611 49.2922 43.7742 49.2711 43.7868C49.25 43.7995 49.2287 43.8116 49.2071 43.8231C49.1854 43.8348 49.1635 43.8458 49.1413 43.8563C49.1191 43.8668 49.0967 43.8767 49.074 43.8861C49.0513 43.8955 49.0284 43.9043 49.0053 43.9126C48.9822 43.9209 48.9589 43.9286 48.9354 43.9357C48.9119 43.9428 48.8882 43.9494 48.8644 43.9553C48.8406 43.9613 48.8167 43.9667 48.7926 43.9714C48.7685 43.9762 48.7443 43.9804 48.72 43.984C48.6957 43.9877 48.6714 43.9907 48.647 43.993C48.6226 43.9955 48.5981 43.9973 48.5735 43.9984C48.5491 43.9997 48.5245 44.0003 48.4999 44.0003L45.4999 44.0003L45.4999 45.5003C45.4999 45.5248 45.4993 45.5494 45.4981 45.5739C45.4969 45.5984 45.4951 45.6229 45.4927 45.6473C45.4903 45.6718 45.4873 45.6961 45.4837 45.7204C45.4801 45.7446 45.4759 45.7688 45.4711 45.7929C45.4663 45.817 45.461 45.8409 45.455 45.8647C45.449 45.8885 45.4425 45.9122 45.4353 45.9357C45.4282 45.9592 45.4205 45.9825 45.4122 46.0056C45.404 46.0288 45.3952 46.0516 45.3857 46.0743C45.3764 46.097 45.3664 46.1195 45.3559 46.1416C45.3454 46.1638 45.3344 46.1857 45.3228 46.2074C45.3112 46.229 45.2992 46.2504 45.2865 46.2714C45.2739 46.2925 45.2608 46.3132 45.2471 46.3336C45.2335 46.3541 45.2194 46.3741 45.2047 46.3938C45.1901 46.4136 45.175 46.4329 45.1594 46.4519C45.1439 46.4709 45.1278 46.4894 45.1113 46.5076C45.0949 46.5258 45.0779 46.5436 45.0606 46.5609C45.0432 46.5783 45.0254 46.5952 45.0073 46.6117C44.9891 46.6282 44.9705 46.6442 44.9515 46.6598C44.9325 46.6754 44.9132 46.6905 44.8934 46.7051C44.8738 46.7197 44.8537 46.7339 44.8333 46.7475C44.8129 46.7611 44.7921 46.7743 44.7711 46.7869C44.75 46.7995 44.7287 46.8116 44.707 46.8232C44.6854 46.8348 44.6635 46.8458 44.6413 46.8563C44.6191 46.8668 44.5966 46.8767 44.5739 46.8861C44.5513 46.8955 44.5284 46.9043 44.5052 46.9126C44.4822 46.9209 44.4589 46.9286 44.4353 46.9357C44.4118 46.9428 44.3882 46.9494 44.3644 46.9553C44.3405 46.9613 44.3166 46.9667 44.2925 46.9715C44.2685 46.9762 44.2443 46.9805 44.22 46.9841C44.1957 46.9877 44.1714 46.9907 44.147 46.9931C44.1225 46.9955 44.0981 46.9973 44.0735 46.9985C44.049 46.9997 44.0245 47.0003 43.9999 47.0003C43.9753 47.0003 43.9508 46.9997 43.9263 46.9985C43.9018 46.9973 43.8773 46.9955 43.8529 46.9931C43.8285 46.9907 43.8041 46.9877 43.7798 46.9841C43.7555 46.9805 43.7314 46.9762 43.7073 46.9715C43.6832 46.9667 43.6593 46.9613 43.6355 46.9553C43.6116 46.9494 43.588 46.9428 43.5645 46.9357C43.541 46.9286 43.5177 46.9209 43.4945 46.9126C43.4715 46.9043 43.4486 46.8955 43.4259 46.8861C43.4032 46.8767 43.3808 46.8668 43.3586 46.8563C43.3364 46.8458 43.3144 46.8348 43.2928 46.8232C43.2711 46.8116 43.2498 46.7995 43.2288 46.7869C43.2077 46.7743 43.187 46.7611 43.1666 46.7475C43.1462 46.7339 43.1261 46.7197 43.1064 46.7051C43.0867 46.6905 43.0673 46.6754 43.0483 46.6598C43.0294 46.6442 43.0107 46.6282 42.9926 46.6117C42.9744 46.5952 42.9566 46.5783 42.9393 46.5609C42.9219 46.5436 42.905 46.5258 42.8885 46.5076C42.872 46.4894 42.856 46.4709 42.8404 46.4519C42.8248 46.4329 42.8097 46.4136 42.7951 46.3938C42.7804 46.3741 42.7663 46.3541 42.7527 46.3336C42.7391 46.3132 42.7259 46.2925 42.7133 46.2714C42.7007 46.2504 42.6886 46.229 42.677 46.2074C42.6655 46.1857 42.6544 46.1638 42.6439 46.1416C42.6334 46.1195 42.6235 46.097 42.6141 46.0743C42.6047 46.0516 42.5958 46.0288 42.5876 46.0056C42.5793 45.9825 42.5716 45.9592 42.5645 45.9357C42.5574 45.9122 42.5508 45.8885 42.5448 45.8647C42.5389 45.8409 42.5335 45.817 42.5287 45.7929C42.5239 45.7688 42.5198 45.7446 42.5161 45.7204C42.5126 45.6961 42.5096 45.6718 42.5071 45.6473C42.5047 45.6229 42.5029 45.5984 42.5017 45.5739C42.5005 45.5494 42.4999 45.5248 42.4999 45.5003L42.4999 44.0003L39.4999 44.0003C39.4753 44.0003 39.4508 43.9997 39.4263 43.9984C39.4018 43.9973 39.3773 43.9955 39.3528 43.993C39.3284 43.9907 39.3041 43.9877 39.2798 43.984C39.2555 43.9804 39.2313 43.9762 39.2072 43.9714C39.1832 43.9667 39.1592 43.9613 39.1354 43.9553C39.1116 43.9494 39.088 43.9428 39.0645 43.9357C39.041 43.9286 39.0176 43.9209 38.9945 43.9126C38.9714 43.9043 38.9485 43.8955 38.9258 43.8861C38.9032 43.8767 38.8807 43.8668 38.8585 43.8563C38.8363 43.8458 38.8144 43.8348 38.7928 43.8231C38.7711 43.8116 38.7498 43.7995 38.7287 43.7868C38.7077 43.7742 38.6869 43.7611 38.6665 43.7475C38.6461 43.7339 38.6261 43.7197 38.6063 43.7051C38.5866 43.6905 38.5673 43.6754 38.5483 43.6598C38.5293 43.6442 38.5107 43.6282 38.4925 43.6117Q38.4652 43.587 38.4392 43.5609C38.4219 43.5436 38.4049 43.5258 38.3885 43.5076C38.372 43.4894 38.3559 43.4709 38.3404 43.4519C38.3248 43.4329 38.3097 43.4135 38.295 43.3938C38.2804 43.3741 38.2663 43.354 38.2527 43.3336C38.239 43.3132 38.2259 43.2925 38.2133 43.2714C38.2007 43.2504 38.1886 43.229 38.177 43.2074C38.1654 43.1857 38.1544 43.1638 38.1439 43.1416C38.1334 43.1194 38.1234 43.097 38.1141 43.0743C38.1046 43.0516 38.0958 43.0287 38.0876 43.0056C38.0793 42.9825 38.0716 42.9592 38.0645 42.9357C38.0573 42.9122 38.0508 42.8885 38.0448 42.8647C38.0389 42.8409 38.0335 42.817 38.0287 42.7929C38.0239 42.7688 38.0197 42.7446 38.0161 42.7203C38.0125 42.6961 38.0095 42.6717 38.0071 42.6473C38.0047 42.6229 38.0029 42.5984 38.0017 42.5738C38.0005 42.5494 37.9999 42.5248 37.9999 42.5003C37.9999 42.4757 38.0005 42.4512 38.0017 42.4267C38.0029 42.4021 38.0047 42.3777 38.0071 42.3532C38.0095 42.3288 38.0125 42.3045 38.0161 42.2802C38.0197 42.2559 38.0239 42.2317 38.0287 42.2076C38.0335 42.1836 38.0389 42.1596 38.0448 42.1358C38.0508 42.112 38.0573 42.0884 38.0645 42.0648C38.0716 42.0413 38.0793 42.018 38.0876 41.9949C38.0958 41.9718 38.1046 41.9489 38.1141 41.9262C38.1234 41.9035 38.1334 41.8811 38.1439 41.8589C38.1544 41.8367 38.1654 41.8148 38.177 41.7931C38.1886 41.7715 38.2007 41.7502 38.2133 41.7291C38.2259 41.7081 38.239 41.6873 38.2527 41.6669C38.2663 41.6465 38.2804 41.6264 38.295 41.6067C38.3097 41.587 38.3248 41.5677 38.3404 41.5486C38.3559 41.5297 38.372 41.5111 38.3885 41.4929C38.4049 41.4747 38.4219 41.457 38.4392 41.4396Q38.4652 41.4136 38.4925 41.3888C38.5107 41.3723 38.5293 41.3563 38.5483 41.3407C38.5673 41.3252 38.5866 41.31 38.6063 41.2954C38.6261 41.2808 38.6461 41.2667 38.6665 41.253C38.6869 41.2394 38.7077 41.2263 38.7287 41.2137C38.7498 41.2011 38.7711 41.189 38.7928 41.1774C38.8144 41.1658 38.8363 41.1547 38.8585 41.1442C38.8807 41.1337 38.9032 41.1238 38.9258 41.1144C38.9485 41.1051 38.9714 41.0962 38.9945 41.0879C39.0176 41.0797 39.041 41.072 39.0645 41.0648C39.088 41.0577 39.1116 41.0512 39.1354 41.0452C39.1592 41.0392 39.1832 41.0339 39.2072 41.0291C39.2313 41.0243 39.2555 41.0201 39.2798 41.0165C39.3041 41.0129 39.3284 41.0099 39.3528 41.0075C39.3773 41.0051 39.4018 41.0033 39.4263 41.0021C39.4508 41.0009 39.4753 41.0002 39.4999 41.0002L42.4999 41.0002L42.4999 39.5002Z"></path><path id="减去顶层" fill-rule="evenodd" fill="url(#linear_0)" opacity="1" d="M62.909 49.1901C62.7994 49.1007 62.6825 49.0147 62.569 48.9301C62.4556 48.8455 62.3461 48.7596 62.229 48.6801C62.112 48.6006 61.9894 48.5245 61.869 48.4501C61.7486 48.3758 61.6325 48.3092 61.509 48.2401C61.3856 48.1711 61.2554 48.1038 61.129 48.0401C61.0026 47.9765 60.8781 47.9182 60.749 47.8601C60.62 47.8021 60.4905 47.7425 60.359 47.6901C60.2276 47.6377 60.0926 47.5867 59.959 47.5401C59.8254 47.4935 59.6945 47.4509 59.559 47.4101C59.4236 47.3694 59.2862 47.335 59.149 47.3001C59.0119 47.2653 58.8676 47.229 58.729 47.2001C58.5905 47.1713 58.4587 47.1429 58.319 47.1201C58.1794 47.0973 58.0396 47.0768 57.899 47.0601C57.7585 47.0434 57.6101 47.0306 57.469 47.0201C57.3279 47.0096 57.1904 47.0001 57.049 47.0001L56.629 47.0001C56.4876 47.0001 56.3403 47.0101 56.199 47.0101C56.0577 47.0101 55.9198 47.0361 55.779 47.0501C55.6383 47.0642 55.4991 47.0799 55.359 47.1001C55.219 47.1203 55.0781 47.1438 54.939 47.1701C54.8 47.1964 54.6568 47.2178 54.519 47.2501C54.3813 47.2824 54.2453 47.3219 54.109 47.3601C53.9728 47.3983 53.8435 47.436 53.709 47.4801C53.5746 47.5243 53.4414 47.5702 53.309 47.6201C53.1766 47.6701 53.0392 47.7245 52.909 47.7801C52.7789 47.8358 52.6566 47.8988 52.529 47.9601C52.4015 48.0214 52.2738 48.0834 52.149 48.1501C52.0243 48.2169 51.9008 48.288 51.779 48.3601C51.6573 48.4322 51.5375 48.5028 51.419 48.5801C51.3005 48.6574 51.1841 48.7377 51.069 48.8201C50.954 48.9026 50.8404 48.9928 50.729 49.0801C50.6177 49.1675 50.5064 49.258 50.399 49.3501C50.2916 49.4423 50.1823 49.5334 50.079 49.6301C49.9758 49.7268 49.878 49.829 49.779 49.9301C49.68 50.0312 49.5835 50.1348 49.489 50.2401C49.3945 50.3455 49.2988 50.4508 49.209 50.5601C49.1192 50.6695 49.034 50.777 48.949 50.8901C48.8641 51.0033 48.779 51.1234 48.699 51.2401C48.6191 51.3568 48.5438 51.47 48.469 51.5901C48.3942 51.7102 48.3285 51.8369 48.259 51.9601C48.1895 52.0834 48.1132 52.204 48.049 52.3301C47.9849 52.4562 47.9276 52.5813 47.869 52.7101C47.8105 52.8389 47.7519 52.9688 47.699 53.1001C47.6461 53.2313 47.5962 53.3667 47.549 53.5001C47.502 53.6335 47.4603 53.7648 47.419 53.9001C47.3778 54.0355 47.3444 54.1731 47.309 54.3101C47.2737 54.4471 47.2384 54.5817 47.209 54.7201C47.1797 54.8586 47.1523 55.0005 47.129 55.1401C47.1057 55.2797 47.0862 55.4197 47.069 55.5601C47.0519 55.7006 47.0401 55.8391 47.029 55.9801C47.018 56.1212 46.999 56.2687 46.999 56.4101L46.999 56.8301C46.999 56.9716 47.009 57.1188 47.009 57.2601C47.009 57.4014 47.0255 57.5393 47.039 57.6801C47.0526 57.821 47.0694 57.96 47.089 58.1001C47.1087 58.2403 47.1333 58.381 47.159 58.5201C47.1848 58.6592 47.2173 58.8022 47.249 58.9401C47.2808 59.078 47.3113 59.2137 47.349 59.3501C47.3868 59.4865 47.4254 59.6155 47.469 59.7501C47.5127 59.8847 47.5596 60.0175 47.609 60.1501C47.6585 60.2827 47.7139 60.4198 47.769 60.5501C47.8242 60.6804 47.8783 60.8123 47.939 60.9401C47.9998 61.0679 48.0627 61.1851 48.129 61.3101C48.1954 61.4351 48.2674 61.5681 48.339 61.6901L47.729 62.2101C47.6636 62.2617 47.5966 62.3113 47.529 62.3601C47.4615 62.4089 47.3985 62.4541 47.329 62.5001C47.2596 62.5461 47.1904 62.5971 47.119 62.6401C47.0477 62.6831 46.9721 62.7201 46.899 62.7601C46.826 62.8001 46.7537 62.8432 46.679 62.8801C46.6044 62.9171 46.5251 62.9463 46.449 62.9801C46.3729 63.0139 46.2965 63.0494 46.219 63.0801C46.1416 63.1108 46.0677 63.1427 45.989 63.1701C45.9104 63.1975 45.8288 63.216 45.749 63.2401C45.6693 63.2642 45.5897 63.2894 45.509 63.3101C45.4284 63.3308 45.3405 63.3528 45.259 63.3701C45.1776 63.3875 45.1012 63.4061 45.019 63.4201C44.9369 63.4341 44.8517 63.4396 44.769 63.4501C44.6864 63.4607 44.6021 63.4801 44.519 63.4801C44.4361 63.4801 44.3523 63.4901 44.269 63.4901C44.1858 63.4901 44.1024 63.5001 44.019 63.5001L43.769 63.5001C43.6858 63.5001 43.6121 63.4801 43.529 63.4801C43.446 63.4801 43.3617 63.4703 43.279 63.4601C43.1963 63.4499 43.1112 63.4337 43.029 63.4201C42.9469 63.4065 42.8606 63.3872 42.779 63.3701C42.6975 63.3531 42.6198 63.3405 42.539 63.3201C42.4583 63.2997 42.3789 63.2739 42.299 63.2501C42.2191 63.2263 42.1378 63.1972 42.059 63.1701C41.9803 63.1431 41.9066 63.1204 41.829 63.0901C41.7514 63.0598 41.6753 63.0237 41.599 62.9901C41.5228 62.9566 41.4438 62.9268 41.369 62.8901C41.2942 62.8534 41.2222 62.8098 41.149 62.7701C41.0758 62.7304 41.0006 62.6928 40.929 62.6501C40.8575 62.6073 40.7887 62.5658 40.719 62.5201C40.6494 62.4744 40.5767 62.4287 40.509 62.3801C40.4413 62.3315 40.3746 62.2814 40.309 62.2301L23.599 47.9101C23.5733 47.882 23.5433 47.8495 23.519 47.8201C23.4947 47.7907 23.4718 47.7607 23.449 47.7301C23.4262 47.6995 23.4103 47.6718 23.389 47.6401C23.3678 47.6085 23.3487 47.5728 23.329 47.5401C23.3094 47.5074 23.287 47.4738 23.269 47.4401C23.2511 47.4065 23.2353 47.3746 23.219 47.3401C23.2028 47.3056 23.1835 47.2654 23.169 47.2301C23.1545 47.1948 23.1418 47.1661 23.129 47.1301C23.1163 47.0942 23.1099 47.0567 23.099 47.0201C23.0881 46.9836 23.069 46.9472 23.069 46.9101C23.069 46.8731 23.039 46.8376 23.039 46.8001C23.039 46.7626 23.019 46.7179 23.019 46.6801C23.019 46.6423 23.009 46.6081 23.009 46.5701C23.009 46.5321 22.999 46.4982 22.999 46.4601L22.999 46.2301C22.999 46.192 23.009 46.148 23.009 46.1101C23.009 46.0722 23.029 46.0377 23.029 46.0001C23.029 45.9625 23.049 45.9274 23.049 45.8901C23.049 45.8528 23.079 45.8169 23.079 45.7801C23.079 45.7433 23.0974 45.7065 23.109 45.6701C23.1207 45.6338 23.1356 45.5958 23.149 45.5601C23.1625 45.5244 23.1738 45.4851 23.189 45.4501C23.2042 45.4151 23.2221 45.3843 23.239 45.3501C23.256 45.3159 23.2704 45.2834 23.289 45.2501C23.3077 45.2168 23.3288 45.1824 23.349 45.1501C23.3693 45.1179 23.3872 45.0814 23.409 45.0501C23.4309 45.0189 23.4556 44.9902 23.479 44.9601C23.5024 44.93 23.5241 44.899 23.549 44.8701C23.5739 44.8412 23.6027 44.8178 23.629 44.7901C23.6553 44.7625 23.6814 44.7364 23.709 44.7101C23.7367 44.6838 23.7701 44.655 23.799 44.6301C23.8254 44.6072 23.8516 44.5818 23.879 44.5601C23.9064 44.5384 23.9307 44.5206 23.959 44.5001C23.9873 44.4797 24.0198 44.4594 24.049 44.4401C24.0782 44.4209 24.099 44.3981 24.129 44.3801C24.159 44.3622 24.1983 44.3467 24.229 44.3301C24.2598 44.3135 24.2876 44.3054 24.319 44.2901C24.3505 44.2749 24.3769 44.254 24.409 44.2401C24.4411 44.2263 24.4764 44.2126 24.509 44.2001C24.5417 44.1876 24.5758 44.1811 24.609 44.1701C24.6422 44.1591 24.6754 44.1401 24.709 44.1401C24.7426 44.1401 24.775 44.1101 24.809 44.1101C24.8431 44.1101 24.8747 44.0901 24.909 44.0901C24.9434 44.0901 24.9844 44.0701 25.019 44.0701C25.0536 44.0701 25.0842 44.0601 25.119 44.0601C25.1538 44.0601 25.1941 44.0501 25.229 44.0501L30.259 44.0501L30.259 28.2401C30.259 26.0891 31.906 24.5001 34.099 24.5001L53.919 24.5001C55.9815 24.4416 57.7005 26.0311 57.759 28.0501L57.759 44.0501L62.739 44.0501C64.05 44.1221 65.065 45.2146 64.999 46.5001C64.999 46.5314 64.989 46.5589 64.989 46.5901C64.989 46.6213 64.979 46.6491 64.979 46.6801C64.979 46.7111 64.969 46.7493 64.969 46.7801C64.969 46.8109 64.949 46.8395 64.949 46.8701C64.949 46.9007 64.929 46.9298 64.929 46.9601C64.929 46.9904 64.899 47.0202 64.899 47.0501C64.899 47.0801 64.8794 47.1106 64.869 47.1401C64.8587 47.1696 64.8506 47.201 64.839 47.2301C64.8275 47.2592 64.8118 47.2816 64.799 47.3101C64.7863 47.3387 64.7729 47.3721 64.759 47.4001C64.7451 47.4281 64.7341 47.4526 64.719 47.4801C64.704 47.5076 64.6852 47.5333 64.669 47.5601C64.6529 47.5869 64.6363 47.614 64.619 47.6401C64.6018 47.6663 64.5873 47.6947 64.569 47.7201C64.5507 47.7455 64.5283 47.7654 64.509 47.7901C64.4897 47.8148 64.4693 47.8463 64.449 47.8701L62.909 49.1901ZM42.4999 39.5002L37.9999 39.5002C37.9753 39.5002 37.9508 39.4996 37.9263 39.4984C37.9017 39.4972 37.8773 39.4954 37.8528 39.493C37.8284 39.4906 37.8041 39.4876 37.7798 39.484C37.7555 39.4804 37.7313 39.4762 37.7072 39.4714C37.6832 39.4666 37.6592 39.4613 37.6354 39.4553C37.6116 39.4493 37.5879 39.4428 37.5644 39.4356C37.5409 39.4285 37.5176 39.4208 37.4946 39.4125C37.4714 39.4043 37.4485 39.3955 37.4258 39.386C37.4031 39.3767 37.3807 39.3667 37.3585 39.3562C37.3363 39.3457 37.3144 39.3347 37.2928 39.3231C37.2711 39.3116 37.2498 39.2995 37.2287 39.2868C37.2077 39.2742 37.1869 39.2611 37.1665 39.2474C37.1461 39.2338 37.126 39.2197 37.1063 39.2051C37.0866 39.1904 37.0673 39.1753 37.0482 39.1597C37.0293 39.1442 37.0107 39.1281 36.9925 39.1116Q36.9652 39.087 36.9392 39.0609C36.9218 39.0435 36.9049 39.0258 36.8885 39.0076C36.872 38.9894 36.8559 38.9708 36.8404 38.9518C36.8248 38.9329 36.8097 38.9135 36.795 38.8938C36.7804 38.8741 36.7663 38.854 36.7527 38.8336C36.739 38.8132 36.7259 38.7925 36.7133 38.7714C36.7007 38.7503 36.6886 38.729 36.677 38.7073C36.6654 38.6857 36.6544 38.6638 36.6439 38.6416C36.6334 38.6194 36.6234 38.5969 36.614 38.5743C36.6046 38.5516 36.5958 38.5287 36.5876 38.5055C36.5793 38.4825 36.5716 38.4592 36.5644 38.4356C36.5573 38.4122 36.5508 38.3885 36.5448 38.3647C36.5388 38.3409 36.5335 38.317 36.5287 38.2929C36.5239 38.2688 36.5197 38.2446 36.5161 38.2203C36.5125 38.196 36.5095 38.1717 36.5071 38.1473C36.5047 38.1228 36.5029 38.0984 36.5017 38.0738C36.5005 38.0493 36.4999 38.0248 36.4999 38.0002C36.4999 37.9757 36.5005 37.9511 36.5017 37.9266C36.5029 37.9021 36.5047 37.8776 36.5071 37.8532C36.5095 37.8288 36.5125 37.8044 36.5161 37.7801C36.5197 37.7559 36.5239 37.7317 36.5287 37.7076C36.5335 37.6835 36.5388 37.6596 36.5448 37.6358C36.5508 37.6119 36.5573 37.5883 36.5644 37.5648C36.5716 37.5413 36.5793 37.518 36.5876 37.4949C36.5958 37.4718 36.6046 37.4489 36.614 37.4262C36.6234 37.4035 36.6334 37.3811 36.6439 37.3589C36.6544 37.3367 36.6654 37.3148 36.677 37.2931C36.6886 37.2714 36.7007 37.2501 36.7133 37.2291C36.7259 37.208 36.739 37.1873 36.7527 37.1669C36.7663 37.1465 36.7804 37.1264 36.795 37.1067C36.8097 37.087 36.8248 37.0676 36.8404 37.0486C36.8559 37.0297 36.872 37.0111 36.8885 36.9929C36.9049 36.9747 36.9218 36.9569 36.9392 36.9396Q36.9652 36.9136 36.9925 36.8888C37.0107 36.8723 37.0293 36.8563 37.0482 36.8407C37.0673 36.8251 37.0866 36.81 37.1063 36.7954C37.126 36.7808 37.1461 36.7666 37.1665 36.753C37.1869 36.7394 37.2077 36.7263 37.2287 36.7136C37.2498 36.701 37.2711 36.6889 37.2928 36.6773C37.3144 36.6658 37.3363 36.6547 37.3585 36.6442C37.3807 36.6337 37.4031 36.6238 37.4258 36.6144C37.4485 36.605 37.4714 36.5962 37.4945 36.5879C37.5176 36.5797 37.5409 36.5719 37.5644 36.5648C37.5879 36.5577 37.6116 36.5512 37.6354 36.5452C37.6592 36.5392 37.6832 36.5338 37.7072 36.529C37.7313 36.5243 37.7555 36.5201 37.7798 36.5164C37.8041 36.5129 37.8284 36.5099 37.8528 36.5074C37.8773 36.505 37.9017 36.5033 37.9263 36.502C37.9508 36.5008 37.9753 36.5002 37.9999 36.5002L40.3789 36.5002L36.9394 33.0607C36.9215 33.0434 36.9041 33.0258 36.8871 33.0077C36.8701 32.9895 36.8536 32.971 36.8375 32.9521C36.8215 32.9332 36.806 32.9139 36.7909 32.8942C36.7757 32.8745 36.7611 32.8544 36.747 32.834C36.7329 32.8136 36.7194 32.7928 36.7063 32.7717C36.6932 32.7506 36.6807 32.7292 36.6687 32.7074C36.6567 32.6857 36.6452 32.6637 36.6343 32.6414Q36.6179 32.608 36.6032 32.5738C36.5934 32.551 36.5842 32.5279 36.5756 32.5047C36.5669 32.4814 36.5588 32.458 36.5513 32.4343C36.5438 32.4106 36.5369 32.3868 36.5307 32.3628C36.5243 32.3388 36.5186 32.3146 36.5135 32.2903C36.5084 32.2661 36.5039 32.2417 36.5 32.2172C36.4961 32.1926 36.4928 32.168 36.4902 32.1434C36.4875 32.1187 36.4854 32.094 36.484 32.0692C36.4825 32.0444 36.4817 32.0196 36.4815 31.9948C36.4813 31.97 36.4817 31.9452 36.4827 31.9203C36.4837 31.8956 36.4853 31.8708 36.4876 31.8461C36.4898 31.8214 36.4927 31.7967 36.4962 31.7721C36.4996 31.7476 36.5037 31.7231 36.5084 31.6987C36.5131 31.6743 36.5184 31.6501 36.5242 31.626C36.5301 31.6019 36.5366 31.5779 36.5437 31.5541C36.5507 31.5303 36.5584 31.5067 36.5667 31.4833C36.5749 31.4599 36.5837 31.4367 36.5931 31.4138C36.6025 31.3908 36.6125 31.3681 36.623 31.3456C36.6335 31.3231 36.6446 31.3009 36.6563 31.279C36.6679 31.257 36.6801 31.2354 36.6927 31.2141C36.7055 31.1928 36.7187 31.1718 36.7324 31.1511C36.7462 31.1304 36.7604 31.1101 36.7752 31.0902C36.7899 31.0702 36.8052 31.0506 36.8209 31.0314C36.8366 31.0122 36.8528 30.9934 36.8695 30.975C36.8861 30.9566 36.9032 30.9386 36.9208 30.9211C36.9383 30.9035 36.9563 30.8864 36.9747 30.8698C36.9931 30.8531 37.0119 30.8369 37.0311 30.8212C37.0503 30.8055 37.0699 30.7902 37.0899 30.7755C37.1098 30.7607 37.1301 30.7465 37.1508 30.7327C37.1715 30.719 37.1925 30.7058 37.2138 30.6931C37.2351 30.6804 37.2567 30.6682 37.2786 30.6566C37.3006 30.6449 37.3228 30.6339 37.3453 30.6234C37.3678 30.6128 37.3905 30.6029 37.4135 30.5934C37.4364 30.584 37.4596 30.5752 37.483 30.567C37.5064 30.5587 37.53 30.5511 37.5538 30.544C37.5776 30.5369 37.6016 30.5304 37.6257 30.5245C37.6498 30.5187 37.674 30.5134 37.6984 30.5087C37.7228 30.504 37.7473 30.4999 37.7718 30.4965C37.7964 30.493 37.8211 30.4901 37.8458 30.4879C37.8705 30.4856 37.8953 30.484 37.92 30.483C37.9448 30.482 37.9697 30.4816 37.9945 30.4818C38.0193 30.482 38.0441 30.4828 38.0689 30.4843C38.0937 30.4857 38.1184 30.4878 38.1431 30.4905C38.1677 30.4932 38.1923 30.4964 38.2169 30.5003C38.2414 30.5042 38.2657 30.5087 38.29 30.5138C38.3143 30.5189 38.3385 30.5247 38.3625 30.531C38.3865 30.5372 38.4103 30.5441 38.434 30.5516C38.4576 30.5591 38.4811 30.5672 38.5044 30.5759C38.5276 30.5845 38.5507 30.5937 38.5735 30.6035C38.5963 30.6133 38.6188 30.6237 38.6411 30.6346C38.6634 30.6455 38.6854 30.657 38.7071 30.669C38.7289 30.681 38.7503 30.6935 38.7714 30.7066C38.7925 30.7197 38.8132 30.7332 38.8337 30.7473C38.8541 30.7614 38.8742 30.776 38.8939 30.7912Q38.9234 30.8138 38.9518 30.8379C38.9707 30.8539 38.9892 30.8705 39.0074 30.8875C39.0255 30.9044 39.0431 30.9218 39.0604 30.9397L43.9999 35.8792L48.9394 30.9397C48.9569 30.9228 48.9748 30.9064 48.993 30.8904C49.0113 30.8744 49.0299 30.8588 49.0489 30.8437C49.068 30.8286 49.0873 30.814 49.1071 30.7999C49.1268 30.7857 49.1469 30.7721 49.1672 30.7589C49.1877 30.7457 49.2083 30.733 49.2293 30.7209C49.2503 30.7087 49.2716 30.697 49.2932 30.6859C49.3147 30.6747 49.3366 30.6641 49.3587 30.6541C49.3808 30.644 49.4031 30.6344 49.4256 30.6254C49.4482 30.6164 49.4709 30.608 49.4939 30.6001C49.5169 30.5922 49.54 30.5849 49.5633 30.5781C49.5866 30.5713 49.61 30.5651 49.6337 30.5595C49.6573 30.5539 49.6811 30.5488 49.7049 30.5443C49.7288 30.5399 49.7527 30.536 49.7767 30.5327C49.8008 30.5293 49.8249 30.5266 49.8491 30.5244C49.8733 30.5223 49.8975 30.5208 49.9218 30.5198C49.946 30.5188 49.9703 30.5184 49.9946 30.5186C50.0188 30.5189 50.0431 30.5197 50.0673 30.5211C50.0916 30.5224 50.1158 30.5244 50.1399 30.527C50.1641 30.5295 50.1881 30.5327 50.2121 30.5364C50.2361 30.5402 50.26 30.5445 50.2837 30.5493C50.3076 30.5542 50.3312 30.5597 50.3547 30.5657C50.3782 30.5718 50.4016 30.5784 50.4247 30.5856C50.4479 30.5928 50.471 30.6005 50.4938 30.6088C50.5166 30.6171 50.5392 30.6259 50.5616 30.6353C50.584 30.6447 50.6061 30.6546 50.628 30.6651C50.65 30.6755 50.6716 30.6865 50.693 30.698C50.7143 30.7096 50.7354 30.7216 50.7562 30.7341C50.777 30.7467 50.7974 30.7597 50.8176 30.7732C50.8378 30.7867 50.8576 30.8008 50.877 30.8153C50.8965 30.8298 50.9156 30.8447 50.9344 30.8601C50.9531 30.8755 50.9715 30.8914 50.9895 30.9077C51.0075 30.924 51.025 30.9408 51.0422 30.958C51.0594 30.9751 51.0761 30.9927 51.0924 31.0106C51.1087 31.0286 51.1246 31.047 51.14 31.0658C51.1555 31.0845 51.1704 31.1036 51.1849 31.1231C51.1994 31.1426 51.2134 31.1624 51.2269 31.1825C51.2405 31.2027 51.2535 31.2232 51.266 31.244C51.2786 31.2648 51.2906 31.2858 51.3021 31.3072C51.3136 31.3286 51.3247 31.3502 51.3351 31.3721C51.3456 31.3941 51.3554 31.4162 51.3648 31.4386C51.3742 31.4609 51.3831 31.4836 51.3914 31.5064C51.3997 31.5292 51.4074 31.5522 51.4146 31.5754C51.4218 31.5986 51.4284 31.6219 51.4344 31.6455C51.4404 31.669 51.4459 31.6926 51.4508 31.7164C51.4557 31.7402 51.46 31.7641 51.4637 31.7881C51.4675 31.812 51.4706 31.8361 51.4732 31.8603C51.4757 31.8844 51.4777 31.9086 51.4791 31.9328C51.4805 31.957 51.4813 31.9813 51.4815 32.0056C51.4817 32.0299 51.4813 32.0541 51.4803 32.0784C51.4794 32.1026 51.4778 32.1269 51.4757 32.151C51.4735 32.1752 51.4708 32.1993 51.4675 32.2234C51.4642 32.2474 51.4603 32.2714 51.4558 32.2953C51.4514 32.3191 51.4463 32.3428 51.4406 32.3665C51.435 32.3901 51.4288 32.4136 51.4221 32.4369C51.4153 32.4602 51.408 32.4833 51.4001 32.5063C51.3922 32.5292 51.3837 32.552 51.3747 32.5745C51.3657 32.5971 51.3562 32.6194 51.3461 32.6415C51.336 32.6636 51.3254 32.6854 51.3142 32.707C51.3031 32.7285 51.2915 32.7498 51.2793 32.7708C51.2671 32.7918 51.2545 32.8125 51.2413 32.8329C51.2281 32.8533 51.2145 32.8734 51.2003 32.8931Q51.1791 32.9227 51.1564 32.9512C51.1413 32.9702 51.1258 32.9889 51.1098 33.0071C51.0938 33.0254 51.0773 33.0432 51.0605 33.0607L47.6209 36.5002L50 36.5002C50.0245 36.5002 50.0491 36.5008 50.0735 36.502C50.0981 36.5033 50.1226 36.505 50.147 36.5074C50.1714 36.5099 50.1958 36.5129 50.22 36.5164C50.2443 36.5201 50.2685 36.5243 50.2926 36.529C50.3167 36.5338 50.3406 36.5392 50.3644 36.5452C50.3882 36.5512 50.4119 36.5577 50.4354 36.5648C50.4589 36.5719 50.4822 36.5797 50.5053 36.5879C50.5284 36.5962 50.5513 36.605 50.574 36.6144C50.5967 36.6238 50.6191 36.6337 50.6413 36.6442C50.6635 36.6547 50.6854 36.6658 50.7071 36.6773C50.7287 36.6889 50.7501 36.701 50.7711 36.7136C50.7922 36.7263 50.8129 36.7394 50.8333 36.753C50.8537 36.7666 50.8738 36.7808 50.8935 36.7954C50.9132 36.81 50.9326 36.8251 50.9516 36.8407C50.9706 36.8563 50.9891 36.8723 51.0073 36.8888C51.0255 36.9053 51.0433 36.9222 51.0606 36.9396C51.078 36.9569 51.0949 36.9747 51.1114 36.9929C51.1279 37.0111 51.1439 37.0297 51.1595 37.0486C51.1751 37.0676 51.1902 37.087 51.2048 37.1067C51.2194 37.1264 51.2336 37.1465 51.2472 37.1669C51.2608 37.1873 51.2739 37.208 51.2865 37.2291C51.2992 37.2502 51.3113 37.2715 51.3228 37.2931C51.3344 37.3148 51.3455 37.3367 51.356 37.3589C51.3665 37.3811 51.3764 37.4035 51.3858 37.4262C51.3952 37.4489 51.404 37.4718 51.4123 37.4949C51.4206 37.518 51.4282 37.5413 51.4354 37.5648C51.4425 37.5883 51.4491 37.6119 51.455 37.6358C51.461 37.6596 51.4664 37.6835 51.4711 37.7076C51.4759 37.7317 51.4801 37.7559 51.4837 37.7801C51.4874 37.8044 51.4904 37.8288 51.4927 37.8532C51.4952 37.8776 51.497 37.9021 51.4981 37.9266C51.4994 37.9511 51.5 37.9757 51.5 38.0002C51.5 38.0248 51.4994 38.0493 51.4981 38.0738C51.497 38.0984 51.4952 38.1228 51.4927 38.1473C51.4904 38.1717 51.4874 38.196 51.4837 38.2203C51.4801 38.2446 51.4759 38.2688 51.4711 38.2929C51.4664 38.317 51.461 38.3409 51.455 38.3647C51.4491 38.3885 51.4425 38.4122 51.4354 38.4356C51.4282 38.4592 51.4206 38.4825 51.4123 38.5055C51.404 38.5287 51.3952 38.5516 51.3858 38.5743C51.3764 38.5969 51.3665 38.6194 51.356 38.6416C51.3455 38.6638 51.3344 38.6857 51.3228 38.7073C51.3113 38.729 51.2992 38.7503 51.2865 38.7714C51.2739 38.7925 51.2608 38.8132 51.2472 38.8336C51.2336 38.854 51.2194 38.8741 51.2048 38.8938C51.1902 38.9135 51.1751 38.9329 51.1595 38.9518C51.1439 38.9708 51.1279 38.9894 51.1114 39.0076C51.0949 39.0258 51.078 39.0435 51.0606 39.0609C51.0433 39.0783 51.0255 39.0952 51.0073 39.1116C50.9891 39.1281 50.9706 39.1442 50.9516 39.1597C50.9326 39.1753 50.9132 39.1904 50.8935 39.2051C50.8738 39.2197 50.8537 39.2338 50.8333 39.2474C50.8129 39.2611 50.7922 39.2742 50.7711 39.2868C50.7501 39.2995 50.7287 39.3116 50.7071 39.3231C50.6854 39.3347 50.6635 39.3457 50.6413 39.3562C50.6191 39.3667 50.5967 39.3767 50.574 39.386C50.5513 39.3955 50.5284 39.4043 50.5053 39.4125C50.4822 39.4208 50.4589 39.4285 50.4354 39.4356C50.4119 39.4428 50.3882 39.4493 50.3644 39.4553C50.3406 39.4613 50.3167 39.4666 50.2926 39.4714C50.2685 39.4762 50.2443 39.4804 50.22 39.484C50.1958 39.4876 50.1714 39.4906 50.147 39.493C50.1226 39.4954 50.0981 39.4972 50.0735 39.4984C50.0491 39.4996 50.0245 39.5002 50 39.5002L45.4999 39.5002L45.4999 41.0002L48.4999 41.0002C48.5245 41.0002 48.5491 41.0009 48.5735 41.0021C48.5981 41.0033 48.6226 41.0051 48.647 41.0075C48.6714 41.0099 48.6957 41.0129 48.72 41.0165C48.7443 41.0201 48.7685 41.0243 48.7926 41.0291C48.8167 41.0339 48.8406 41.0392 48.8644 41.0452C48.8882 41.0512 48.9119 41.0577 48.9354 41.0648C48.9589 41.072 48.9822 41.0797 49.0053 41.0879C49.0284 41.0962 49.0513 41.1051 49.074 41.1144C49.0967 41.1238 49.1191 41.1337 49.1413 41.1442C49.1635 41.1547 49.1854 41.1658 49.2071 41.1774C49.2287 41.189 49.25 41.2011 49.2711 41.2137C49.2922 41.2263 49.3129 41.2394 49.3333 41.253C49.3537 41.2667 49.3738 41.2808 49.3935 41.2954C49.4132 41.31 49.4326 41.3252 49.4516 41.3407C49.4705 41.3563 49.4891 41.3723 49.5073 41.3888C49.5255 41.4053 49.5432 41.4223 49.5606 41.4396C49.578 41.457 49.5949 41.4747 49.6114 41.4929C49.6279 41.5111 49.6439 41.5297 49.6595 41.5486C49.6751 41.5677 49.6902 41.587 49.7048 41.6067C49.7194 41.6264 49.7336 41.6465 49.7472 41.6669C49.7608 41.6873 49.7739 41.7081 49.7865 41.7291C49.7992 41.7502 49.8113 41.7715 49.8228 41.7931C49.8344 41.8148 49.8455 41.8367 49.856 41.8589C49.8665 41.8811 49.8764 41.9035 49.8858 41.9262C49.8952 41.9489 49.904 41.9718 49.9123 41.9949C49.9205 42.018 49.9282 42.0413 49.9354 42.0648C49.9425 42.0884 49.9491 42.112 49.955 42.1358C49.961 42.1596 49.9663 42.1836 49.9711 42.2076C49.9759 42.2317 49.9801 42.2559 49.9837 42.2802C49.9873 42.3045 49.9903 42.3288 49.9927 42.3532C49.9952 42.3777 49.997 42.4021 49.9981 42.4267C49.9993 42.4512 50 42.4757 50 42.5003C50 42.5248 49.9993 42.5494 49.9981 42.5738C49.997 42.5984 49.9952 42.6229 49.9927 42.6473C49.9903 42.6717 49.9873 42.6961 49.9837 42.7203C49.9801 42.7446 49.9759 42.7688 49.9711 42.7929C49.9663 42.817 49.961 42.8409 49.955 42.8647C49.9491 42.8885 49.9425 42.9122 49.9354 42.9357C49.9282 42.9592 49.9205 42.9825 49.9123 43.0056C49.904 43.0287 49.8952 43.0516 49.8858 43.0743C49.8764 43.097 49.8665 43.1194 49.856 43.1416C49.8455 43.1638 49.8344 43.1857 49.8228 43.2074C49.8113 43.229 49.7992 43.2504 49.7865 43.2714C49.7739 43.2925 49.7608 43.3132 49.7472 43.3336C49.7336 43.354 49.7194 43.3741 49.7048 43.3938C49.6902 43.4135 49.6751 43.4329 49.6595 43.4519C49.6439 43.4709 49.6279 43.4894 49.6114 43.5076Q49.5867 43.5349 49.5606 43.5609C49.5432 43.5783 49.5255 43.5952 49.5073 43.6117C49.4891 43.6282 49.4705 43.6442 49.4516 43.6598C49.4326 43.6754 49.4132 43.6905 49.3935 43.7051C49.3738 43.7197 49.3537 43.7339 49.3333 43.7475C49.3129 43.7611 49.2922 43.7742 49.2711 43.7868C49.25 43.7995 49.2287 43.8116 49.2071 43.8231C49.1854 43.8348 49.1635 43.8458 49.1413 43.8563C49.1191 43.8668 49.0967 43.8767 49.074 43.8861C49.0513 43.8955 49.0284 43.9043 49.0053 43.9126C48.9822 43.9209 48.9589 43.9286 48.9354 43.9357C48.9119 43.9428 48.8882 43.9494 48.8644 43.9553C48.8406 43.9613 48.8167 43.9667 48.7926 43.9714C48.7685 43.9762 48.7443 43.9804 48.72 43.984C48.6957 43.9877 48.6714 43.9907 48.647 43.993C48.6226 43.9955 48.5981 43.9973 48.5735 43.9984C48.5491 43.9997 48.5245 44.0003 48.4999 44.0003L45.4999 44.0003L45.4999 45.5003C45.4999 45.5248 45.4993 45.5494 45.4981 45.5739C45.4969 45.5984 45.4951 45.6229 45.4927 45.6473C45.4903 45.6718 45.4873 45.6961 45.4837 45.7204C45.4801 45.7446 45.4759 45.7688 45.4711 45.7929C45.4663 45.817 45.461 45.8409 45.455 45.8647C45.449 45.8885 45.4425 45.9122 45.4353 45.9357C45.4282 45.9592 45.4205 45.9825 45.4122 46.0056C45.404 46.0288 45.3952 46.0516 45.3857 46.0743C45.3764 46.097 45.3664 46.1195 45.3559 46.1416C45.3454 46.1638 45.3344 46.1857 45.3228 46.2074C45.3112 46.229 45.2992 46.2504 45.2865 46.2714C45.2739 46.2925 45.2608 46.3132 45.2471 46.3336C45.2335 46.3541 45.2194 46.3741 45.2047 46.3938C45.1901 46.4136 45.175 46.4329 45.1594 46.4519C45.1439 46.4709 45.1278 46.4894 45.1113 46.5076C45.0949 46.5258 45.0779 46.5436 45.0606 46.5609C45.0432 46.5783 45.0254 46.5952 45.0073 46.6117C44.9891 46.6282 44.9705 46.6442 44.9515 46.6598C44.9325 46.6754 44.9132 46.6905 44.8934 46.7051C44.8738 46.7197 44.8537 46.7339 44.8333 46.7475C44.8129 46.7611 44.7921 46.7743 44.7711 46.7869C44.75 46.7995 44.7287 46.8116 44.707 46.8232C44.6854 46.8348 44.6635 46.8458 44.6413 46.8563C44.6191 46.8668 44.5966 46.8767 44.5739 46.8861C44.5513 46.8955 44.5284 46.9043 44.5052 46.9126C44.4822 46.9209 44.4589 46.9286 44.4353 46.9357C44.4118 46.9428 44.3882 46.9494 44.3644 46.9553C44.3405 46.9613 44.3166 46.9667 44.2925 46.9715C44.2685 46.9762 44.2443 46.9805 44.22 46.9841C44.1957 46.9877 44.1714 46.9907 44.147 46.9931C44.1225 46.9955 44.0981 46.9973 44.0735 46.9985C44.049 46.9997 44.0245 47.0003 43.9999 47.0003C43.9753 47.0003 43.9508 46.9997 43.9263 46.9985C43.9018 46.9973 43.8773 46.9955 43.8529 46.9931C43.8285 46.9907 43.8041 46.9877 43.7798 46.9841C43.7555 46.9805 43.7314 46.9762 43.7073 46.9715C43.6832 46.9667 43.6593 46.9613 43.6355 46.9553C43.6116 46.9494 43.588 46.9428 43.5645 46.9357C43.541 46.9286 43.5177 46.9209 43.4945 46.9126C43.4715 46.9043 43.4486 46.8955 43.4259 46.8861C43.4032 46.8767 43.3808 46.8668 43.3586 46.8563C43.3364 46.8458 43.3144 46.8348 43.2928 46.8232C43.2711 46.8116 43.2498 46.7995 43.2288 46.7869C43.2077 46.7743 43.187 46.7611 43.1666 46.7475C43.1462 46.7339 43.1261 46.7197 43.1064 46.7051C43.0867 46.6905 43.0673 46.6754 43.0483 46.6598C43.0294 46.6442 43.0107 46.6282 42.9926 46.6117C42.9744 46.5952 42.9566 46.5783 42.9393 46.5609C42.9219 46.5436 42.905 46.5258 42.8885 46.5076C42.872 46.4894 42.856 46.4709 42.8404 46.4519C42.8248 46.4329 42.8097 46.4136 42.7951 46.3938C42.7804 46.3741 42.7663 46.3541 42.7527 46.3336C42.7391 46.3132 42.7259 46.2925 42.7133 46.2714C42.7007 46.2504 42.6886 46.229 42.677 46.2074C42.6655 46.1857 42.6544 46.1638 42.6439 46.1416C42.6334 46.1195 42.6235 46.097 42.6141 46.0743C42.6047 46.0516 42.5958 46.0288 42.5876 46.0056C42.5793 45.9825 42.5716 45.9592 42.5645 45.9357C42.5574 45.9122 42.5508 45.8885 42.5448 45.8647C42.5389 45.8409 42.5335 45.817 42.5287 45.7929C42.5239 45.7688 42.5198 45.7446 42.5161 45.7204C42.5126 45.6961 42.5096 45.6718 42.5071 45.6473C42.5047 45.6229 42.5029 45.5984 42.5017 45.5739C42.5005 45.5494 42.4999 45.5248 42.4999 45.5003L42.4999 44.0003L39.4999 44.0003C39.4753 44.0003 39.4508 43.9997 39.4263 43.9984C39.4018 43.9973 39.3773 43.9955 39.3528 43.993C39.3284 43.9907 39.3041 43.9877 39.2798 43.984C39.2555 43.9804 39.2313 43.9762 39.2072 43.9714C39.1832 43.9667 39.1592 43.9613 39.1354 43.9553C39.1116 43.9494 39.088 43.9428 39.0645 43.9357C39.041 43.9286 39.0176 43.9209 38.9945 43.9126C38.9714 43.9043 38.9485 43.8955 38.9258 43.8861C38.9032 43.8767 38.8807 43.8668 38.8585 43.8563C38.8363 43.8458 38.8144 43.8348 38.7928 43.8231C38.7711 43.8116 38.7498 43.7995 38.7287 43.7868C38.7077 43.7742 38.6869 43.7611 38.6665 43.7475C38.6461 43.7339 38.6261 43.7197 38.6063 43.7051C38.5866 43.6905 38.5673 43.6754 38.5483 43.6598C38.5293 43.6442 38.5107 43.6282 38.4925 43.6117Q38.4652 43.587 38.4392 43.5609C38.4219 43.5436 38.4049 43.5258 38.3885 43.5076C38.372 43.4894 38.3559 43.4709 38.3404 43.4519C38.3248 43.4329 38.3097 43.4135 38.295 43.3938C38.2804 43.3741 38.2663 43.354 38.2527 43.3336C38.239 43.3132 38.2259 43.2925 38.2133 43.2714C38.2007 43.2504 38.1886 43.229 38.177 43.2074C38.1654 43.1857 38.1544 43.1638 38.1439 43.1416C38.1334 43.1194 38.1234 43.097 38.1141 43.0743C38.1046 43.0516 38.0958 43.0287 38.0876 43.0056C38.0793 42.9825 38.0716 42.9592 38.0645 42.9357C38.0573 42.9122 38.0508 42.8885 38.0448 42.8647C38.0389 42.8409 38.0335 42.817 38.0287 42.7929C38.0239 42.7688 38.0197 42.7446 38.0161 42.7203C38.0125 42.6961 38.0095 42.6717 38.0071 42.6473C38.0047 42.6229 38.0029 42.5984 38.0017 42.5738C38.0005 42.5494 37.9999 42.5248 37.9999 42.5003C37.9999 42.4757 38.0005 42.4512 38.0017 42.4267C38.0029 42.4021 38.0047 42.3777 38.0071 42.3532C38.0095 42.3288 38.0125 42.3045 38.0161 42.2802C38.0197 42.2559 38.0239 42.2317 38.0287 42.2076C38.0335 42.1836 38.0389 42.1596 38.0448 42.1358C38.0508 42.112 38.0573 42.0884 38.0645 42.0648C38.0716 42.0413 38.0793 42.018 38.0876 41.9949C38.0958 41.9718 38.1046 41.9489 38.1141 41.9262C38.1234 41.9035 38.1334 41.8811 38.1439 41.8589C38.1544 41.8367 38.1654 41.8148 38.177 41.7931C38.1886 41.7715 38.2007 41.7502 38.2133 41.7291C38.2259 41.7081 38.239 41.6873 38.2527 41.6669C38.2663 41.6465 38.2804 41.6264 38.295 41.6067C38.3097 41.587 38.3248 41.5677 38.3404 41.5486C38.3559 41.5297 38.372 41.5111 38.3885 41.4929C38.4049 41.4747 38.4219 41.457 38.4392 41.4396Q38.4652 41.4136 38.4925 41.3888C38.5107 41.3723 38.5293 41.3563 38.5483 41.3407C38.5673 41.3252 38.5866 41.31 38.6063 41.2954C38.6261 41.2808 38.6461 41.2667 38.6665 41.253C38.6869 41.2394 38.7077 41.2263 38.7287 41.2137C38.7498 41.2011 38.7711 41.189 38.7928 41.1774C38.8144 41.1658 38.8363 41.1547 38.8585 41.1442C38.8807 41.1337 38.9032 41.1238 38.9258 41.1144C38.9485 41.1051 38.9714 41.0962 38.9945 41.0879C39.0176 41.0797 39.041 41.072 39.0645 41.0648C39.088 41.0577 39.1116 41.0512 39.1354 41.0452C39.1592 41.0392 39.1832 41.0339 39.2072 41.0291C39.2313 41.0243 39.2555 41.0201 39.2798 41.0165C39.3041 41.0129 39.3284 41.0099 39.3528 41.0075C39.3773 41.0051 39.4018 41.0033 39.4263 41.0021C39.4508 41.0009 39.4753 41.0002 39.4999 41.0002L42.4999 41.0002L42.4999 39.5002Z"></path><path id="减去顶层" fill-rule="evenodd" style="fill:#CCCCCC" opacity="1" d="M56.75 65C56.615 65 56.48 64.9967 56.3452 64.9901C56.2103 64.9835 56.0757 64.9735 55.9414 64.9603C55.807 64.947 55.673 64.9305 55.5395 64.9107C55.4059 64.8909 55.2729 64.8678 55.1405 64.8415C55.0081 64.8151 54.8764 64.7855 54.7454 64.7527C54.6144 64.72 54.4843 64.684 54.3552 64.6447C54.2259 64.6055 54.0978 64.5632 53.9706 64.5177C53.8435 64.4722 53.7176 64.4237 53.5929 64.372C53.4681 64.3203 53.3447 64.2656 53.2227 64.2079C53.1006 64.1502 52.98 64.0895 52.861 64.0258C52.7419 63.9622 52.6245 63.8957 52.5087 63.8262C52.3928 63.7568 52.2788 63.6846 52.1666 63.6096C52.0543 63.5346 51.9439 63.4569 51.8355 63.3764C51.727 63.296 51.6206 63.213 51.5163 63.1273C51.4119 63.0417 51.3097 62.9535 51.2097 62.8628C51.1096 62.7722 51.0118 62.6791 50.9164 62.5836C50.8209 62.4882 50.7278 62.3904 50.6372 62.2903C50.5465 62.1903 50.4583 62.0881 50.3727 61.9837C50.287 61.8793 50.204 61.7729 50.1235 61.6645C50.0431 61.5561 49.9654 61.4457 49.8904 61.3334C49.8154 61.2212 49.7432 61.1072 49.6738 60.9913C49.6043 60.8755 49.5378 60.7581 49.4742 60.639C49.4105 60.5199 49.3498 60.3994 49.2921 60.2773C49.2344 60.1553 49.1797 60.0319 49.128 59.9071C49.0763 59.7824 49.0278 59.6564 48.9823 59.5293C48.9368 59.4022 48.8945 59.274 48.8553 59.1448C48.816 59.0157 48.78 58.8856 48.7473 58.7546C48.7145 58.6236 48.6849 58.4919 48.6585 58.3595C48.6322 58.2271 48.6091 58.0941 48.5893 57.9605C48.5695 57.827 48.553 57.693 48.5397 57.5586C48.5265 57.4242 48.5166 57.2897 48.5099 57.1548C48.5033 57.02 48.5 56.885 48.5 56.75C48.5 56.615 48.5033 56.48 48.5099 56.3452C48.5166 56.2103 48.5265 56.0757 48.5397 55.9414C48.553 55.807 48.5695 55.673 48.5893 55.5395C48.6091 55.4059 48.6322 55.2729 48.6585 55.1405C48.6849 55.0081 48.7144 54.8764 48.7472 54.7454C48.78 54.6144 48.816 54.4843 48.8553 54.3552C48.8945 54.2259 48.9368 54.0978 48.9823 53.9706C49.0278 53.8435 49.0763 53.7176 49.128 53.5929C49.1797 53.4681 49.2344 53.3447 49.2921 53.2227C49.3498 53.1006 49.4105 52.98 49.4742 52.861C49.5378 52.7419 49.6043 52.6245 49.6738 52.5087C49.7432 52.3928 49.8154 52.2788 49.8904 52.1666C49.9654 52.0543 50.0431 51.9439 50.1235 51.8355C50.204 51.727 50.287 51.6206 50.3727 51.5163C50.4583 51.4119 50.5465 51.3097 50.6372 51.2097C50.7278 51.1096 50.8209 51.0118 50.9164 50.9164C51.0118 50.8209 51.1096 50.7278 51.2097 50.6372C51.3097 50.5465 51.4119 50.4583 51.5163 50.3727C51.6206 50.287 51.727 50.204 51.8355 50.1235C51.9439 50.0431 52.0543 49.9654 52.1666 49.8904C52.2788 49.8154 52.3928 49.7432 52.5087 49.6738C52.6245 49.6043 52.7419 49.5378 52.861 49.4742C52.98 49.4105 53.1006 49.3498 53.2227 49.2921C53.3447 49.2344 53.4681 49.1797 53.5929 49.128C53.7176 49.0763 53.8435 49.0278 53.9706 48.9823C54.0978 48.9368 54.2259 48.8945 54.3552 48.8553C54.4843 48.816 54.6144 48.78 54.7454 48.7473C54.8764 48.7145 55.0081 48.6849 55.1405 48.6585C55.2729 48.6322 55.4059 48.6091 55.5395 48.5893C55.673 48.5695 55.807 48.553 55.9414 48.5397C56.0757 48.5265 56.2103 48.5166 56.3452 48.5099C56.48 48.5033 56.615 48.5 56.75 48.5C56.885 48.5 57.02 48.5033 57.1548 48.5099C57.2897 48.5166 57.4242 48.5265 57.5586 48.5397C57.693 48.553 57.827 48.5695 57.9605 48.5893C58.0941 48.6091 58.2271 48.6322 58.3595 48.6585C58.4919 48.6849 58.6236 48.7144 58.7546 48.7472C58.8856 48.78 59.0157 48.816 59.1448 48.8553C59.274 48.8945 59.4022 48.9368 59.5293 48.9823C59.6564 49.0278 59.7824 49.0763 59.9071 49.128C60.0319 49.1797 60.1553 49.2344 60.2773 49.2921C60.3994 49.3498 60.5199 49.4105 60.639 49.4742C60.7581 49.5378 60.8755 49.6043 60.9913 49.6738C61.1072 49.7432 61.2212 49.8154 61.3334 49.8904C61.4457 49.9654 61.5561 50.0431 61.6645 50.1235C61.7729 50.204 61.8793 50.287 61.9837 50.3727C62.0881 50.4583 62.1903 50.5465 62.2903 50.6372C62.3904 50.7278 62.4882 50.8209 62.5836 50.9164C62.6791 51.0118 62.7722 51.1096 62.8628 51.2097C62.9535 51.3097 63.0417 51.4119 63.1273 51.5163C63.213 51.6206 63.296 51.727 63.3764 51.8355C63.4569 51.9439 63.5346 52.0543 63.6096 52.1666C63.6846 52.2788 63.7568 52.3928 63.8262 52.5087C63.8957 52.6245 63.9622 52.7419 64.0258 52.861C64.0895 52.98 64.1502 53.1006 64.2079 53.2227C64.2656 53.3447 64.3203 53.4681 64.372 53.5929C64.4237 53.7176 64.4722 53.8435 64.5177 53.9706C64.5632 54.0978 64.6055 54.2259 64.6447 54.3552C64.684 54.4843 64.72 54.6144 64.7527 54.7454C64.7855 54.8764 64.8151 55.0081 64.8415 55.1405C64.8678 55.2729 64.8909 55.4059 64.9107 55.5395C64.9305 55.673 64.947 55.807 64.9603 55.9414C64.9735 56.0757 64.9835 56.2103 64.9901 56.3452C64.9967 56.48 65 56.615 65 56.75C65 56.885 64.9967 57.02 64.9901 57.1548C64.9835 57.2897 64.9735 57.4242 64.9603 57.5586C64.947 57.693 64.9305 57.827 64.9107 57.9605C64.8909 58.0941 64.8678 58.2271 64.8415 58.3595C64.8151 58.4919 64.7855 58.6236 64.7527 58.7546C64.72 58.8856 64.684 59.0157 64.6447 59.1448C64.6055 59.274 64.5632 59.4022 64.5177 59.5293C64.4722 59.6564 64.4237 59.7824 64.372 59.9071C64.3203 60.0319 64.2656 60.1553 64.2079 60.2773C64.1502 60.3994 64.0895 60.5199 64.0258 60.639C63.9622 60.7581 63.8957 60.8755 63.8262 60.9913C63.7568 61.1072 63.6846 61.2212 63.6096 61.3334C63.5346 61.4457 63.4569 61.5561 63.3764 61.6645C63.296 61.7729 63.213 61.8793 63.1273 61.9837C63.0417 62.0881 62.9535 62.1903 62.8628 62.2903C62.7722 62.3904 62.6791 62.4882 62.5836 62.5836C62.4882 62.6791 62.3904 62.7722 62.2903 62.8628C62.1903 62.9535 62.0881 63.0417 61.9837 63.1273C61.8793 63.213 61.7729 63.296 61.6645 63.3764C61.5561 63.4569 61.4457 63.5346 61.3334 63.6096C61.2212 63.6846 61.1072 63.7568 60.9913 63.8262C60.8755 63.8957 60.7581 63.9622 60.639 64.0258C60.5199 64.0895 60.3994 64.1502 60.2773 64.2079C60.1553 64.2656 60.0319 64.3203 59.9071 64.372C59.7824 64.4237 59.6564 64.4722 59.5293 64.5177C59.4022 64.5632 59.274 64.6055 59.1448 64.6447C59.0157 64.684 58.8856 64.72 58.7546 64.7527C58.6236 64.7855 58.4919 64.8151 58.3595 64.8415C58.2271 64.8678 58.0941 64.8909 57.9605 64.9107C57.827 64.9305 57.693 64.947 57.5586 64.9603C57.4242 64.9735 57.2897 64.9835 57.1548 64.9901C57.02 64.9967 56.885 65 56.75 65ZM56.1925 58.337L53.5405 55.6866C53.5318 55.6781 53.5229 55.6699 53.5137 55.6619C53.5046 55.6539 53.4953 55.6462 53.4858 55.6386C53.4763 55.6311 53.4666 55.6238 53.4567 55.6167C53.4469 55.6096 53.4369 55.6028 53.4267 55.5962C53.4165 55.5896 53.4061 55.5832 53.3956 55.5772C53.3851 55.5711 53.3745 55.5652 53.3637 55.5596C53.3529 55.5541 53.342 55.5488 53.3309 55.5438C53.3199 55.5387 53.3087 55.534 53.2974 55.5295C53.2862 55.525 53.2748 55.5207 53.2633 55.5168C53.2518 55.5128 53.2403 55.5092 53.2286 55.5058C53.217 55.5024 53.2052 55.4993 53.1934 55.4965C53.1816 55.4936 53.1697 55.4911 53.1578 55.4889C53.1459 55.4867 53.1339 55.4847 53.1219 55.4831C53.1099 55.4814 53.0978 55.48 53.0857 55.479C53.0736 55.4779 53.0615 55.4771 53.0494 55.4766C53.0373 55.4761 53.0251 55.4759 53.013 55.4761C53.0008 55.4762 52.9887 55.4766 52.9766 55.4772C52.9645 55.4779 52.9524 55.4789 52.9403 55.4802C52.9282 55.4815 52.9162 55.4831 52.9042 55.4849C52.8922 55.4868 52.8803 55.489 52.8684 55.4914C52.8565 55.4938 52.8447 55.4966 52.8329 55.4996C52.8212 55.5026 52.8095 55.5059 52.7979 55.5095C52.7863 55.5131 52.7748 55.517 52.7634 55.5211C52.7519 55.5252 52.7407 55.5296 52.7295 55.5343C52.7183 55.5391 52.7072 55.544 52.6962 55.5492C52.6853 55.5545 52.6745 55.56 52.6638 55.5657C52.6531 55.5715 52.6426 55.5775 52.6322 55.5838C52.6218 55.59 52.6115 55.5965 52.6015 55.6033C52.5914 55.6101 52.5815 55.6171 52.5717 55.6243C52.562 55.6316 52.5524 55.6391 52.543 55.6468C52.5337 55.6545 52.5245 55.6624 52.5155 55.6706C52.5065 55.6788 52.4977 55.6871 52.4891 55.6957C52.4805 55.7043 52.4722 55.7131 52.464 55.7221C52.4559 55.731 52.4479 55.7402 52.4403 55.7496C52.4325 55.759 52.425 55.7685 52.4178 55.7783C52.4105 55.788 52.4035 55.7979 52.3968 55.808C52.39 55.818 52.3835 55.8283 52.3773 55.8387C52.371 55.8491 52.365 55.8596 52.3592 55.8703C52.3534 55.881 52.3479 55.8918 52.3427 55.9028C52.3375 55.9137 52.3325 55.9248 52.3278 55.936C52.3231 55.9472 52.3187 55.9585 52.3146 55.9699C52.3104 55.9813 52.3065 55.9928 52.303 56.0044C52.2994 56.016 52.2961 56.0277 52.2931 56.0395C52.29 56.0512 52.2873 56.063 52.2849 56.0749C52.2824 56.0868 52.2803 56.0987 52.2784 56.1107C52.2765 56.1227 52.2749 56.1348 52.2737 56.1468Q52.2717 56.1649 52.2707 56.1831C52.27 56.1952 52.2696 56.2074 52.2695 56.2195C52.2694 56.2317 52.2696 56.2438 52.2701 56.2559C52.2706 56.268 52.2713 56.2802 52.2724 56.2922C52.2735 56.3043 52.2749 56.3164 52.2765 56.3284C52.2782 56.3405 52.2801 56.3524 52.2824 56.3643C52.2846 56.3763 52.2871 56.3881 52.2899 56.4C52.2927 56.4118 52.2958 56.4235 52.2993 56.4352C52.3026 56.4468 52.3063 56.4584 52.3102 56.4699C52.3142 56.4813 52.3184 56.4927 52.3229 56.504C52.3274 56.5153 52.3322 56.5264 52.3372 56.5374C52.3423 56.5485 52.3475 56.5594 52.3531 56.5702C52.3587 56.581 52.3646 56.5916 52.3706 56.6021C52.3767 56.6126 52.383 56.623 52.3896 56.6332C52.3962 56.6434 52.4031 56.6534 52.4102 56.6633C52.4172 56.6731 52.4245 56.6828 52.4321 56.6923C52.4396 56.7018 52.4474 56.7111 52.4554 56.7203C52.4634 56.7294 52.4716 56.7383 52.48 56.7471L55.6615 59.9285C55.6702 59.9372 55.6791 59.9457 55.6882 59.9539C55.6973 59.9621 55.7065 59.9701 55.716 59.9779C55.7255 59.9857 55.7352 59.9932 55.7451 60.0006C55.7549 60.0079 55.7649 60.0149 55.7752 60.0217C55.7854 60.0285 55.7957 60.0351 55.8062 60.0414C55.8168 60.0478 55.8274 60.0538 55.8383 60.0596C55.8491 60.0653 55.86 60.0709 55.8711 60.0761C55.8822 60.0814 55.8934 60.0863 55.9048 60.091C55.9161 60.0957 55.9276 60.1001 55.9391 60.1043C55.9507 60.1084 55.9623 60.1123 55.9741 60.1158C55.9858 60.1194 55.9976 60.1227 56.0095 60.1256C56.0214 60.1286 56.0334 60.1313 56.0454 60.1337C56.0575 60.1361 56.0696 60.1382 56.0817 60.14C56.0938 60.1418 56.106 60.1433 56.1182 60.1445C56.1305 60.1457 56.1427 60.1466 56.1549 60.1472C56.1672 60.1478 56.1795 60.1481 56.1917 60.1481C56.204 60.1481 56.2163 60.1478 56.2285 60.1472C56.2408 60.1466 56.253 60.1457 56.2652 60.1445C56.2775 60.1433 56.2896 60.1418 56.3018 60.14C56.3139 60.1382 56.326 60.1361 56.338 60.1337C56.3501 60.1313 56.362 60.1286 56.3739 60.1256C56.3858 60.1227 56.3977 60.1194 56.4094 60.1158C56.4211 60.1123 56.4328 60.1084 56.4443 60.1043C56.4559 60.1001 56.4674 60.0957 56.4787 60.091C56.49 60.0863 56.5013 60.0814 56.5124 60.0761C56.5234 60.0709 56.5344 60.0653 56.5452 60.0596C56.556 60.0538 56.5667 60.0478 56.5772 60.0414C56.5878 60.0351 56.5981 60.0285 56.6084 60.0217C56.6185 60.0149 56.6286 60.0079 56.6384 60.0006C56.6483 59.9932 56.658 59.9857 56.6675 59.9779Q56.6817 59.9662 56.6953 59.9539C56.7044 59.9457 56.7133 59.9372 56.722 59.9285L62.0259 54.6261C62.0346 54.6174 62.0431 54.6085 62.0513 54.5994C62.0596 54.5903 62.0676 54.5811 62.0754 54.5716C62.0832 54.5621 62.0907 54.5524 62.0981 54.5426C62.1054 54.5327 62.1125 54.5226 62.1193 54.5124C62.1261 54.5022 62.1327 54.4919 62.139 54.4814C62.1453 54.4708 62.1514 54.4601 62.1572 54.4493C62.163 54.4385 62.1685 54.4275 62.1738 54.4164C62.179 54.4053 62.184 54.3941 62.1887 54.3828C62.1934 54.3714 62.1979 54.36 62.202 54.3484C62.2061 54.3369 62.21 54.3252 62.2136 54.3134C62.2172 54.3017 62.2204 54.2899 62.2234 54.278C62.2264 54.2661 62.2291 54.2541 62.2315 54.242C62.2339 54.23 62.236 54.2179 62.2379 54.2057C62.2397 54.1936 62.2412 54.1814 62.2424 54.1692C62.2436 54.157 62.2445 54.1447 62.2451 54.1325C62.2457 54.1202 62.2461 54.1079 62.2461 54.0956C62.2461 54.0833 62.2457 54.0711 62.2452 54.0588C62.2446 54.0465 62.2437 54.0343 62.2425 54.0221C62.2413 54.0099 62.2398 53.9977 62.238 53.9855C62.2362 53.9734 62.2341 53.9613 62.2317 53.9492C62.2293 53.9372 62.2267 53.9252 62.2237 53.9133C62.2207 53.9014 62.2175 53.8896 62.2139 53.8778C62.2104 53.8661 62.2065 53.8544 62.2024 53.8428C62.1983 53.8312 62.1938 53.8198 62.1891 53.8084C62.1844 53.7971 62.1795 53.7859 62.1743 53.7748C62.169 53.7636 62.1635 53.7527 62.1577 53.7418C62.1519 53.731 62.1459 53.7203 62.1396 53.7098C62.1332 53.6992 62.1267 53.6889 62.1199 53.6786C62.113 53.6684 62.106 53.6584 62.0987 53.6485C62.0914 53.6387 62.0838 53.629 62.0761 53.6195C62.0683 53.61 62.0603 53.6007 62.052 53.5915C62.0438 53.5824 62.0353 53.5736 62.0267 53.5649C62.0179 53.5562 62.0091 53.5477 62 53.5395C61.9909 53.5312 61.9816 53.5232 61.9721 53.5154C61.9626 53.5076 61.953 53.5 61.9431 53.4927C61.9332 53.4854 61.9232 53.4783 61.913 53.4714C61.9028 53.4646 61.8924 53.4581 61.8819 53.4517C61.8714 53.4454 61.8607 53.4394 61.8498 53.4336C61.839 53.4278 61.828 53.4222 61.817 53.417C61.8059 53.4117 61.7947 53.4067 61.7833 53.402C61.772 53.3973 61.7605 53.3929 61.749 53.3888C61.7374 53.3846 61.7257 53.3807 61.714 53.3772C61.7022 53.3736 61.6904 53.3703 61.6785 53.3673C61.6666 53.3643 61.6546 53.3616 61.6426 53.3592C61.6305 53.3568 61.6184 53.3547 61.6063 53.3529C61.5941 53.3511 61.5819 53.3496 61.5697 53.3484C61.5575 53.3472 61.5453 53.3463 61.533 53.3456C61.5207 53.345 61.5085 53.3447 61.4962 53.3447C61.4839 53.3447 61.4716 53.345 61.4594 53.3456C61.4471 53.3462 61.4348 53.3471 61.4226 53.3483C61.4104 53.3494 61.3982 53.3509 61.3861 53.3528C61.3739 53.3545 61.3618 53.3566 61.3498 53.359C61.3377 53.3614 61.3257 53.3641 61.3138 53.3671C61.3019 53.37 61.2901 53.3733 61.2784 53.3769C61.2665 53.3804 61.2549 53.3843 61.2433 53.3884C61.2318 53.3925 61.2203 53.3969 61.209 53.4016C61.1976 53.4063 61.1864 53.4113 61.1753 53.4165C61.1642 53.4218 61.1532 53.4273 61.1424 53.4331C61.1315 53.4388 61.1209 53.4449 61.1103 53.4512C61.0998 53.4575 61.0894 53.4641 61.0792 53.4709C61.069 53.4777 61.0589 53.4848 61.0491 53.4921C61.0392 53.4994 61.0295 53.5069 61.02 53.5147C61.0105 53.5225 61.0012 53.5305 60.9921 53.5388C60.983 53.547 60.9741 53.5554 60.9654 53.5641L56.1925 58.337Z"></path><path id="减去顶层" fill-rule="evenodd" fill="url(#linear_1)" opacity="1" d="M56.75 65C56.615 65 56.48 64.9967 56.3452 64.9901C56.2103 64.9835 56.0757 64.9735 55.9414 64.9603C55.807 64.947 55.673 64.9305 55.5395 64.9107C55.4059 64.8909 55.2729 64.8678 55.1405 64.8415C55.0081 64.8151 54.8764 64.7855 54.7454 64.7527C54.6144 64.72 54.4843 64.684 54.3552 64.6447C54.2259 64.6055 54.0978 64.5632 53.9706 64.5177C53.8435 64.4722 53.7176 64.4237 53.5929 64.372C53.4681 64.3203 53.3447 64.2656 53.2227 64.2079C53.1006 64.1502 52.98 64.0895 52.861 64.0258C52.7419 63.9622 52.6245 63.8957 52.5087 63.8262C52.3928 63.7568 52.2788 63.6846 52.1666 63.6096C52.0543 63.5346 51.9439 63.4569 51.8355 63.3764C51.727 63.296 51.6206 63.213 51.5163 63.1273C51.4119 63.0417 51.3097 62.9535 51.2097 62.8628C51.1096 62.7722 51.0118 62.6791 50.9164 62.5836C50.8209 62.4882 50.7278 62.3904 50.6372 62.2903C50.5465 62.1903 50.4583 62.0881 50.3727 61.9837C50.287 61.8793 50.204 61.7729 50.1235 61.6645C50.0431 61.5561 49.9654 61.4457 49.8904 61.3334C49.8154 61.2212 49.7432 61.1072 49.6738 60.9913C49.6043 60.8755 49.5378 60.7581 49.4742 60.639C49.4105 60.5199 49.3498 60.3994 49.2921 60.2773C49.2344 60.1553 49.1797 60.0319 49.128 59.9071C49.0763 59.7824 49.0278 59.6564 48.9823 59.5293C48.9368 59.4022 48.8945 59.274 48.8553 59.1448C48.816 59.0157 48.78 58.8856 48.7473 58.7546C48.7145 58.6236 48.6849 58.4919 48.6585 58.3595C48.6322 58.2271 48.6091 58.0941 48.5893 57.9605C48.5695 57.827 48.553 57.693 48.5397 57.5586C48.5265 57.4242 48.5166 57.2897 48.5099 57.1548C48.5033 57.02 48.5 56.885 48.5 56.75C48.5 56.615 48.5033 56.48 48.5099 56.3452C48.5166 56.2103 48.5265 56.0757 48.5397 55.9414C48.553 55.807 48.5695 55.673 48.5893 55.5395C48.6091 55.4059 48.6322 55.2729 48.6585 55.1405C48.6849 55.0081 48.7144 54.8764 48.7472 54.7454C48.78 54.6144 48.816 54.4843 48.8553 54.3552C48.8945 54.2259 48.9368 54.0978 48.9823 53.9706C49.0278 53.8435 49.0763 53.7176 49.128 53.5929C49.1797 53.4681 49.2344 53.3447 49.2921 53.2227C49.3498 53.1006 49.4105 52.98 49.4742 52.861C49.5378 52.7419 49.6043 52.6245 49.6738 52.5087C49.7432 52.3928 49.8154 52.2788 49.8904 52.1666C49.9654 52.0543 50.0431 51.9439 50.1235 51.8355C50.204 51.727 50.287 51.6206 50.3727 51.5163C50.4583 51.4119 50.5465 51.3097 50.6372 51.2097C50.7278 51.1096 50.8209 51.0118 50.9164 50.9164C51.0118 50.8209 51.1096 50.7278 51.2097 50.6372C51.3097 50.5465 51.4119 50.4583 51.5163 50.3727C51.6206 50.287 51.727 50.204 51.8355 50.1235C51.9439 50.0431 52.0543 49.9654 52.1666 49.8904C52.2788 49.8154 52.3928 49.7432 52.5087 49.6738C52.6245 49.6043 52.7419 49.5378 52.861 49.4742C52.98 49.4105 53.1006 49.3498 53.2227 49.2921C53.3447 49.2344 53.4681 49.1797 53.5929 49.128C53.7176 49.0763 53.8435 49.0278 53.9706 48.9823C54.0978 48.9368 54.2259 48.8945 54.3552 48.8553C54.4843 48.816 54.6144 48.78 54.7454 48.7473C54.8764 48.7145 55.0081 48.6849 55.1405 48.6585C55.2729 48.6322 55.4059 48.6091 55.5395 48.5893C55.673 48.5695 55.807 48.553 55.9414 48.5397C56.0757 48.5265 56.2103 48.5166 56.3452 48.5099C56.48 48.5033 56.615 48.5 56.75 48.5C56.885 48.5 57.02 48.5033 57.1548 48.5099C57.2897 48.5166 57.4242 48.5265 57.5586 48.5397C57.693 48.553 57.827 48.5695 57.9605 48.5893C58.0941 48.6091 58.2271 48.6322 58.3595 48.6585C58.4919 48.6849 58.6236 48.7144 58.7546 48.7472C58.8856 48.78 59.0157 48.816 59.1448 48.8553C59.274 48.8945 59.4022 48.9368 59.5293 48.9823C59.6564 49.0278 59.7824 49.0763 59.9071 49.128C60.0319 49.1797 60.1553 49.2344 60.2773 49.2921C60.3994 49.3498 60.5199 49.4105 60.639 49.4742C60.7581 49.5378 60.8755 49.6043 60.9913 49.6738C61.1072 49.7432 61.2212 49.8154 61.3334 49.8904C61.4457 49.9654 61.5561 50.0431 61.6645 50.1235C61.7729 50.204 61.8793 50.287 61.9837 50.3727C62.0881 50.4583 62.1903 50.5465 62.2903 50.6372C62.3904 50.7278 62.4882 50.8209 62.5836 50.9164C62.6791 51.0118 62.7722 51.1096 62.8628 51.2097C62.9535 51.3097 63.0417 51.4119 63.1273 51.5163C63.213 51.6206 63.296 51.727 63.3764 51.8355C63.4569 51.9439 63.5346 52.0543 63.6096 52.1666C63.6846 52.2788 63.7568 52.3928 63.8262 52.5087C63.8957 52.6245 63.9622 52.7419 64.0258 52.861C64.0895 52.98 64.1502 53.1006 64.2079 53.2227C64.2656 53.3447 64.3203 53.4681 64.372 53.5929C64.4237 53.7176 64.4722 53.8435 64.5177 53.9706C64.5632 54.0978 64.6055 54.2259 64.6447 54.3552C64.684 54.4843 64.72 54.6144 64.7527 54.7454C64.7855 54.8764 64.8151 55.0081 64.8415 55.1405C64.8678 55.2729 64.8909 55.4059 64.9107 55.5395C64.9305 55.673 64.947 55.807 64.9603 55.9414C64.9735 56.0757 64.9835 56.2103 64.9901 56.3452C64.9967 56.48 65 56.615 65 56.75C65 56.885 64.9967 57.02 64.9901 57.1548C64.9835 57.2897 64.9735 57.4242 64.9603 57.5586C64.947 57.693 64.9305 57.827 64.9107 57.9605C64.8909 58.0941 64.8678 58.2271 64.8415 58.3595C64.8151 58.4919 64.7855 58.6236 64.7527 58.7546C64.72 58.8856 64.684 59.0157 64.6447 59.1448C64.6055 59.274 64.5632 59.4022 64.5177 59.5293C64.4722 59.6564 64.4237 59.7824 64.372 59.9071C64.3203 60.0319 64.2656 60.1553 64.2079 60.2773C64.1502 60.3994 64.0895 60.5199 64.0258 60.639C63.9622 60.7581 63.8957 60.8755 63.8262 60.9913C63.7568 61.1072 63.6846 61.2212 63.6096 61.3334C63.5346 61.4457 63.4569 61.5561 63.3764 61.6645C63.296 61.7729 63.213 61.8793 63.1273 61.9837C63.0417 62.0881 62.9535 62.1903 62.8628 62.2903C62.7722 62.3904 62.6791 62.4882 62.5836 62.5836C62.4882 62.6791 62.3904 62.7722 62.2903 62.8628C62.1903 62.9535 62.0881 63.0417 61.9837 63.1273C61.8793 63.213 61.7729 63.296 61.6645 63.3764C61.5561 63.4569 61.4457 63.5346 61.3334 63.6096C61.2212 63.6846 61.1072 63.7568 60.9913 63.8262C60.8755 63.8957 60.7581 63.9622 60.639 64.0258C60.5199 64.0895 60.3994 64.1502 60.2773 64.2079C60.1553 64.2656 60.0319 64.3203 59.9071 64.372C59.7824 64.4237 59.6564 64.4722 59.5293 64.5177C59.4022 64.5632 59.274 64.6055 59.1448 64.6447C59.0157 64.684 58.8856 64.72 58.7546 64.7527C58.6236 64.7855 58.4919 64.8151 58.3595 64.8415C58.2271 64.8678 58.0941 64.8909 57.9605 64.9107C57.827 64.9305 57.693 64.947 57.5586 64.9603C57.4242 64.9735 57.2897 64.9835 57.1548 64.9901C57.02 64.9967 56.885 65 56.75 65ZM56.1925 58.337L53.5405 55.6866C53.5318 55.6781 53.5229 55.6699 53.5137 55.6619C53.5046 55.6539 53.4953 55.6462 53.4858 55.6386C53.4763 55.6311 53.4666 55.6238 53.4567 55.6167C53.4469 55.6096 53.4369 55.6028 53.4267 55.5962C53.4165 55.5896 53.4061 55.5832 53.3956 55.5772C53.3851 55.5711 53.3745 55.5652 53.3637 55.5596C53.3529 55.5541 53.342 55.5488 53.3309 55.5438C53.3199 55.5387 53.3087 55.534 53.2974 55.5295C53.2862 55.525 53.2748 55.5207 53.2633 55.5168C53.2518 55.5128 53.2403 55.5092 53.2286 55.5058C53.217 55.5024 53.2052 55.4993 53.1934 55.4965C53.1816 55.4936 53.1697 55.4911 53.1578 55.4889C53.1459 55.4867 53.1339 55.4847 53.1219 55.4831C53.1099 55.4814 53.0978 55.48 53.0857 55.479C53.0736 55.4779 53.0615 55.4771 53.0494 55.4766C53.0373 55.4761 53.0251 55.4759 53.013 55.4761C53.0008 55.4762 52.9887 55.4766 52.9766 55.4772C52.9645 55.4779 52.9524 55.4789 52.9403 55.4802C52.9282 55.4815 52.9162 55.4831 52.9042 55.4849C52.8922 55.4868 52.8803 55.489 52.8684 55.4914C52.8565 55.4938 52.8447 55.4966 52.8329 55.4996C52.8212 55.5026 52.8095 55.5059 52.7979 55.5095C52.7863 55.5131 52.7748 55.517 52.7634 55.5211C52.7519 55.5252 52.7407 55.5296 52.7295 55.5343C52.7183 55.5391 52.7072 55.544 52.6962 55.5492C52.6853 55.5545 52.6745 55.56 52.6638 55.5657C52.6531 55.5715 52.6426 55.5775 52.6322 55.5838C52.6218 55.59 52.6115 55.5965 52.6015 55.6033C52.5914 55.6101 52.5815 55.6171 52.5717 55.6243C52.562 55.6316 52.5524 55.6391 52.543 55.6468C52.5337 55.6545 52.5245 55.6624 52.5155 55.6706C52.5065 55.6788 52.4977 55.6871 52.4891 55.6957C52.4805 55.7043 52.4722 55.7131 52.464 55.7221C52.4559 55.731 52.4479 55.7402 52.4403 55.7496C52.4325 55.759 52.425 55.7685 52.4178 55.7783C52.4105 55.788 52.4035 55.7979 52.3968 55.808C52.39 55.818 52.3835 55.8283 52.3773 55.8387C52.371 55.8491 52.365 55.8596 52.3592 55.8703C52.3534 55.881 52.3479 55.8918 52.3427 55.9028C52.3375 55.9137 52.3325 55.9248 52.3278 55.936C52.3231 55.9472 52.3187 55.9585 52.3146 55.9699C52.3104 55.9813 52.3065 55.9928 52.303 56.0044C52.2994 56.016 52.2961 56.0277 52.2931 56.0395C52.29 56.0512 52.2873 56.063 52.2849 56.0749C52.2824 56.0868 52.2803 56.0987 52.2784 56.1107C52.2765 56.1227 52.2749 56.1348 52.2737 56.1468Q52.2717 56.1649 52.2707 56.1831C52.27 56.1952 52.2696 56.2074 52.2695 56.2195C52.2694 56.2317 52.2696 56.2438 52.2701 56.2559C52.2706 56.268 52.2713 56.2802 52.2724 56.2922C52.2735 56.3043 52.2749 56.3164 52.2765 56.3284C52.2782 56.3405 52.2801 56.3524 52.2824 56.3643C52.2846 56.3763 52.2871 56.3881 52.2899 56.4C52.2927 56.4118 52.2958 56.4235 52.2993 56.4352C52.3026 56.4468 52.3063 56.4584 52.3102 56.4699C52.3142 56.4813 52.3184 56.4927 52.3229 56.504C52.3274 56.5153 52.3322 56.5264 52.3372 56.5374C52.3423 56.5485 52.3475 56.5594 52.3531 56.5702C52.3587 56.581 52.3646 56.5916 52.3706 56.6021C52.3767 56.6126 52.383 56.623 52.3896 56.6332C52.3962 56.6434 52.4031 56.6534 52.4102 56.6633C52.4172 56.6731 52.4245 56.6828 52.4321 56.6923C52.4396 56.7018 52.4474 56.7111 52.4554 56.7203C52.4634 56.7294 52.4716 56.7383 52.48 56.7471L55.6615 59.9285C55.6702 59.9372 55.6791 59.9457 55.6882 59.9539C55.6973 59.9621 55.7065 59.9701 55.716 59.9779C55.7255 59.9857 55.7352 59.9932 55.7451 60.0006C55.7549 60.0079 55.7649 60.0149 55.7752 60.0217C55.7854 60.0285 55.7957 60.0351 55.8062 60.0414C55.8168 60.0478 55.8274 60.0538 55.8383 60.0596C55.8491 60.0653 55.86 60.0709 55.8711 60.0761C55.8822 60.0814 55.8934 60.0863 55.9048 60.091C55.9161 60.0957 55.9276 60.1001 55.9391 60.1043C55.9507 60.1084 55.9623 60.1123 55.9741 60.1158C55.9858 60.1194 55.9976 60.1227 56.0095 60.1256C56.0214 60.1286 56.0334 60.1313 56.0454 60.1337C56.0575 60.1361 56.0696 60.1382 56.0817 60.14C56.0938 60.1418 56.106 60.1433 56.1182 60.1445C56.1305 60.1457 56.1427 60.1466 56.1549 60.1472C56.1672 60.1478 56.1795 60.1481 56.1917 60.1481C56.204 60.1481 56.2163 60.1478 56.2285 60.1472C56.2408 60.1466 56.253 60.1457 56.2652 60.1445C56.2775 60.1433 56.2896 60.1418 56.3018 60.14C56.3139 60.1382 56.326 60.1361 56.338 60.1337C56.3501 60.1313 56.362 60.1286 56.3739 60.1256C56.3858 60.1227 56.3977 60.1194 56.4094 60.1158C56.4211 60.1123 56.4328 60.1084 56.4443 60.1043C56.4559 60.1001 56.4674 60.0957 56.4787 60.091C56.49 60.0863 56.5013 60.0814 56.5124 60.0761C56.5234 60.0709 56.5344 60.0653 56.5452 60.0596C56.556 60.0538 56.5667 60.0478 56.5772 60.0414C56.5878 60.0351 56.5981 60.0285 56.6084 60.0217C56.6185 60.0149 56.6286 60.0079 56.6384 60.0006C56.6483 59.9932 56.658 59.9857 56.6675 59.9779Q56.6817 59.9662 56.6953 59.9539C56.7044 59.9457 56.7133 59.9372 56.722 59.9285L62.0259 54.6261C62.0346 54.6174 62.0431 54.6085 62.0513 54.5994C62.0596 54.5903 62.0676 54.5811 62.0754 54.5716C62.0832 54.5621 62.0907 54.5524 62.0981 54.5426C62.1054 54.5327 62.1125 54.5226 62.1193 54.5124C62.1261 54.5022 62.1327 54.4919 62.139 54.4814C62.1453 54.4708 62.1514 54.4601 62.1572 54.4493C62.163 54.4385 62.1685 54.4275 62.1738 54.4164C62.179 54.4053 62.184 54.3941 62.1887 54.3828C62.1934 54.3714 62.1979 54.36 62.202 54.3484C62.2061 54.3369 62.21 54.3252 62.2136 54.3134C62.2172 54.3017 62.2204 54.2899 62.2234 54.278C62.2264 54.2661 62.2291 54.2541 62.2315 54.242C62.2339 54.23 62.236 54.2179 62.2379 54.2057C62.2397 54.1936 62.2412 54.1814 62.2424 54.1692C62.2436 54.157 62.2445 54.1447 62.2451 54.1325C62.2457 54.1202 62.2461 54.1079 62.2461 54.0956C62.2461 54.0833 62.2457 54.0711 62.2452 54.0588C62.2446 54.0465 62.2437 54.0343 62.2425 54.0221C62.2413 54.0099 62.2398 53.9977 62.238 53.9855C62.2362 53.9734 62.2341 53.9613 62.2317 53.9492C62.2293 53.9372 62.2267 53.9252 62.2237 53.9133C62.2207 53.9014 62.2175 53.8896 62.2139 53.8778C62.2104 53.8661 62.2065 53.8544 62.2024 53.8428C62.1983 53.8312 62.1938 53.8198 62.1891 53.8084C62.1844 53.7971 62.1795 53.7859 62.1743 53.7748C62.169 53.7636 62.1635 53.7527 62.1577 53.7418C62.1519 53.731 62.1459 53.7203 62.1396 53.7098C62.1332 53.6992 62.1267 53.6889 62.1199 53.6786C62.113 53.6684 62.106 53.6584 62.0987 53.6485C62.0914 53.6387 62.0838 53.629 62.0761 53.6195C62.0683 53.61 62.0603 53.6007 62.052 53.5915C62.0438 53.5824 62.0353 53.5736 62.0267 53.5649C62.0179 53.5562 62.0091 53.5477 62 53.5395C61.9909 53.5312 61.9816 53.5232 61.9721 53.5154C61.9626 53.5076 61.953 53.5 61.9431 53.4927C61.9332 53.4854 61.9232 53.4783 61.913 53.4714C61.9028 53.4646 61.8924 53.4581 61.8819 53.4517C61.8714 53.4454 61.8607 53.4394 61.8498 53.4336C61.839 53.4278 61.828 53.4222 61.817 53.417C61.8059 53.4117 61.7947 53.4067 61.7833 53.402C61.772 53.3973 61.7605 53.3929 61.749 53.3888C61.7374 53.3846 61.7257 53.3807 61.714 53.3772C61.7022 53.3736 61.6904 53.3703 61.6785 53.3673C61.6666 53.3643 61.6546 53.3616 61.6426 53.3592C61.6305 53.3568 61.6184 53.3547 61.6063 53.3529C61.5941 53.3511 61.5819 53.3496 61.5697 53.3484C61.5575 53.3472 61.5453 53.3463 61.533 53.3456C61.5207 53.345 61.5085 53.3447 61.4962 53.3447C61.4839 53.3447 61.4716 53.345 61.4594 53.3456C61.4471 53.3462 61.4348 53.3471 61.4226 53.3483C61.4104 53.3494 61.3982 53.3509 61.3861 53.3528C61.3739 53.3545 61.3618 53.3566 61.3498 53.359C61.3377 53.3614 61.3257 53.3641 61.3138 53.3671C61.3019 53.37 61.2901 53.3733 61.2784 53.3769C61.2665 53.3804 61.2549 53.3843 61.2433 53.3884C61.2318 53.3925 61.2203 53.3969 61.209 53.4016C61.1976 53.4063 61.1864 53.4113 61.1753 53.4165C61.1642 53.4218 61.1532 53.4273 61.1424 53.4331C61.1315 53.4388 61.1209 53.4449 61.1103 53.4512C61.0998 53.4575 61.0894 53.4641 61.0792 53.4709C61.069 53.4777 61.0589 53.4848 61.0491 53.4921C61.0392 53.4994 61.0295 53.5069 61.02 53.5147C61.0105 53.5225 61.0012 53.5305 60.9921 53.5388C60.983 53.547 60.9741 53.5554 60.9654 53.5641L56.1925 58.337Z"></path></g><defs><linearGradient id="linear_0" x1="0.002484801372394448%" y1="50%" x2="99.99751519862761%" y2="50%" gradientUnits="objectBoundingBox"><stop offset="0.0069" stop-color="#FF3831" stop-opacity="1" /><stop offset="1" stop-color="#FFA4C2" stop-opacity="1" /></linearGradient><linearGradient id="linear_1" x1="0%" y1="50%" x2="100%" y2="50%" gradientUnits="objectBoundingBox"><stop offset="0.0069" stop-color="#FF3831" stop-opacity="1" /><stop offset="1" stop-color="#FFA4C2" stop-opacity="1" /></linearGradient></defs></svg>