<svg xmlns="http://www.w3.org/2000/svg" xmlns:xlink="http://www.w3.org/1999/xlink" width="88" height="88" viewBox="0 0 88 88" fill="none"><g opacity="1"  transform="translate(0 0)"><path id="路径 1" fill-rule="evenodd" style="fill:#CCCCCC" opacity="1" d="M48.6992 37.2852L39.2539 37.2852C38.2184 37.2852 37.3789 36.4456 37.3789 35.4102L37.3789 27.6289C37.3789 26.5934 38.2184 25.7539 39.2539 25.7539L48.6992 25.7539C49.7347 25.7539 50.5742 26.5934 50.5742 27.6289L50.5742 35.4102C50.5742 36.4456 49.7347 37.2852 48.6992 37.2852ZM34.2266 62.2461L26.4453 62.2461C25.4098 62.2461 24.5703 61.4066 24.5703 60.3711L24.5703 52.5898C24.5703 51.5544 25.4098 50.7148 26.4453 50.7148L34.2266 50.7148C35.262 50.7148 36.1016 51.5544 36.1016 52.5898L36.1016 60.3711C36.1016 61.4066 35.262 62.2461 34.2266 62.2461ZM47.8906 62.2461L40.1094 62.2461C39.0739 62.2461 38.2344 61.4066 38.2344 60.3711L38.2344 52.5898C38.2344 51.5544 39.0739 50.7148 40.1094 50.7148L47.8906 50.7148C48.9261 50.7148 49.7656 51.5544 49.7656 52.5898L49.7656 60.3711C49.7656 61.4066 48.9261 62.2461 47.8906 62.2461ZM61.5547 62.2461L53.7734 62.2461C52.738 62.2461 51.8984 61.4066 51.8984 60.3711L51.8984 52.5898C51.8984 51.5544 52.738 50.7148 53.7734 50.7148L61.5547 50.7148C62.5902 50.7148 63.4297 51.5544 63.4297 52.5898L63.4297 60.3711C63.4297 61.4066 62.5902 62.2461 61.5547 62.2461Z"></path><path id="路径 1" fill-rule="evenodd" fill="url(#linear_0)" opacity="1" d="M48.6992 37.2852L39.2539 37.2852C38.2184 37.2852 37.3789 36.4456 37.3789 35.4102L37.3789 27.6289C37.3789 26.5934 38.2184 25.7539 39.2539 25.7539L48.6992 25.7539C49.7347 25.7539 50.5742 26.5934 50.5742 27.6289L50.5742 35.4102C50.5742 36.4456 49.7347 37.2852 48.6992 37.2852ZM34.2266 62.2461L26.4453 62.2461C25.4098 62.2461 24.5703 61.4066 24.5703 60.3711L24.5703 52.5898C24.5703 51.5544 25.4098 50.7148 26.4453 50.7148L34.2266 50.7148C35.262 50.7148 36.1016 51.5544 36.1016 52.5898L36.1016 60.3711C36.1016 61.4066 35.262 62.2461 34.2266 62.2461ZM47.8906 62.2461L40.1094 62.2461C39.0739 62.2461 38.2344 61.4066 38.2344 60.3711L38.2344 52.5898C38.2344 51.5544 39.0739 50.7148 40.1094 50.7148L47.8906 50.7148C48.9261 50.7148 49.7656 51.5544 49.7656 52.5898L49.7656 60.3711C49.7656 61.4066 48.9261 62.2461 47.8906 62.2461ZM61.5547 62.2461L53.7734 62.2461C52.738 62.2461 51.8984 61.4066 51.8984 60.3711L51.8984 52.5898C51.8984 51.5544 52.738 50.7148 53.7734 50.7148L61.5547 50.7148C62.5902 50.7148 63.4297 51.5544 63.4297 52.5898L63.4297 60.3711C63.4297 61.4066 62.5902 62.2461 61.5547 62.2461Z"></path><path id="路径 2" fill-rule="evenodd" style="fill:#CCCCCC" opacity="1" d="M45.4766 37.2007L42.4766 37.2007L42.4766 41.9491L31.7891 41.9491C30.1583 41.9491 28.8359 43.2715 28.8359 44.9022L28.8359 52.0741L31.8359 52.0741L31.8359 45.8866C31.8359 45.3687 32.2555 44.9491 32.7734 44.9491L42.4766 44.9491L42.4766 52.0741L45.4766 52.0741L45.4766 44.9491L55.2266 44.9491C55.7445 44.9491 56.1641 45.3687 56.1641 45.8866L56.1641 52.0741L59.1641 52.0741L59.1641 44.9022C59.1641 43.2715 57.8417 41.9491 56.2109 41.9491L45.4766 41.9491L45.4766 37.2007Z"></path><path id="路径 2" fill-rule="evenodd" fill="url(#linear_1)" opacity="1" d="M45.4766 37.2007L42.4766 37.2007L42.4766 41.9491L31.7891 41.9491C30.1583 41.9491 28.8359 43.2715 28.8359 44.9022L28.8359 52.0741L31.8359 52.0741L31.8359 45.8866C31.8359 45.3687 32.2555 44.9491 32.7734 44.9491L42.4766 44.9491L42.4766 52.0741L45.4766 52.0741L45.4766 44.9491L55.2266 44.9491C55.7445 44.9491 56.1641 45.3687 56.1641 45.8866L56.1641 52.0741L59.1641 52.0741L59.1641 44.9022C59.1641 43.2715 57.8417 41.9491 56.2109 41.9491L45.4766 41.9491L45.4766 37.2007Z"></path></g><defs><linearGradient id="linear_0" x1="0.00003216724910024922%" y1="50%" x2="99.9999678327509%" y2="50%" gradientUnits="objectBoundingBox"><stop offset="0.0069" stop-color="#FF3831" stop-opacity="1" /><stop offset="1" stop-color="#FFA4C2" stop-opacity="1" /></linearGradient><linearGradient id="linear_1" x1="0.00012364729855206876%" y1="50%" x2="99.99987635270145%" y2="50%" gradientUnits="objectBoundingBox"><stop offset="0.0069" stop-color="#FF3831" stop-opacity="1" /><stop offset="1" stop-color="#FFA4C2" stop-opacity="1" /></linearGradient></defs></svg>