<svg xmlns="http://www.w3.org/2000/svg" xmlns:xlink="http://www.w3.org/1999/xlink" width="88" height="88" viewBox="0 0 88 88" fill="none"><g opacity="1"  transform="translate(0 0)"><mask id="bg-mask-0" fill="white"><use transform="translate(0 0)" xlink:href="#path_0"></use></mask><g mask="url(#bg-mask-0)" ><path id="减去顶层" fill-rule="evenodd" fill="url(#linear_0)" opacity="1" d="M28.457 64.1667L53.537 64.1667L63.797 53.8967L63.797 22.9567C63.797 22.9088 63.787 22.8645 63.787 22.8167C63.787 22.769 63.767 22.7142 63.767 22.6667C63.767 22.6192 63.747 22.5738 63.747 22.5267C63.747 22.4797 63.7287 22.4333 63.717 22.3867C63.7054 22.3402 63.691 22.2926 63.677 22.2467C63.6631 22.2008 63.6432 22.162 63.627 22.1167C63.6107 22.0715 63.5953 22.0211 63.577 21.9767C63.5586 21.9324 63.5375 21.8902 63.517 21.8467C63.4965 21.8034 63.4796 21.7591 63.457 21.7167C63.4344 21.6744 63.4117 21.6379 63.387 21.5967C63.3623 21.5556 63.3336 21.5066 63.307 21.4667C63.2803 21.4268 63.2556 21.3953 63.227 21.3567C63.1984 21.3182 63.1675 21.2739 63.137 21.2367C63.1066 21.1996 63.0692 21.1623 63.037 21.1267C63.0048 21.0912 62.9709 21.0607 62.937 21.0267C62.903 20.9928 62.8726 20.959 62.837 20.9267C62.8014 20.8945 62.764 20.8672 62.727 20.8367C62.6899 20.8063 62.6556 20.7753 62.617 20.7467C62.5784 20.7182 62.537 20.6834 62.497 20.6567C62.457 20.6301 62.4182 20.6114 62.377 20.5867C62.3358 20.5621 62.2894 20.5394 62.247 20.5167C62.2046 20.4941 62.1604 20.4673 62.117 20.4467C62.0736 20.4262 62.0313 20.4051 61.987 20.3867C61.9426 20.3684 61.9022 20.3529 61.857 20.3367C61.8118 20.3206 61.763 20.3107 61.717 20.2967C61.671 20.2828 61.6236 20.2684 61.577 20.2567C61.5305 20.2451 61.4841 20.2267 61.437 20.2267C61.3899 20.2267 61.3445 20.1967 61.297 20.1967C61.2495 20.1967 61.2048 20.1767 61.157 20.1767C61.1092 20.1767 61.0549 20.1667 61.007 20.1667L28.457 20.1667C28.409 20.1667 28.3648 20.1767 28.317 20.1767C28.2692 20.1767 28.2144 20.1967 28.167 20.1967C28.1195 20.1967 28.0741 20.2267 28.027 20.2267C27.9799 20.2267 27.9336 20.2451 27.887 20.2567C27.8404 20.2684 27.7929 20.2828 27.747 20.2967C27.701 20.3107 27.6622 20.3206 27.617 20.3367C27.5718 20.3529 27.5213 20.3684 27.477 20.3867C27.4326 20.4051 27.3904 20.4262 27.347 20.4467C27.3036 20.4673 27.2593 20.4941 27.217 20.5167C27.1747 20.5394 27.1382 20.5621 27.097 20.5867C27.0558 20.6114 27.0069 20.6301 26.967 20.6567C26.9271 20.6834 26.8956 20.7182 26.857 20.7467C26.8184 20.7753 26.7741 20.8063 26.737 20.8367C26.6999 20.8672 26.6626 20.8945 26.627 20.9267C26.5915 20.959 26.561 20.9928 26.527 21.0267C26.4931 21.0607 26.4592 21.0912 26.427 21.1267C26.3947 21.1623 26.3674 21.1996 26.337 21.2367C26.3065 21.2739 26.2756 21.3182 26.247 21.3567C26.2184 21.3953 26.1837 21.4268 26.157 21.4667C26.1304 21.5066 26.1117 21.5556 26.087 21.5967C26.0623 21.6379 26.0396 21.6744 26.017 21.7167C25.9944 21.7591 25.9675 21.8034 25.947 21.8467C25.9265 21.8902 25.9054 21.9324 25.887 21.9767C25.8686 22.0211 25.8531 22.0715 25.837 22.1167C25.8208 22.162 25.811 22.2008 25.797 22.2467C25.7831 22.2926 25.7686 22.3402 25.757 22.3867C25.7453 22.4333 25.727 22.4797 25.727 22.5267C25.727 22.5738 25.697 22.6192 25.697 22.6667C25.697 22.7142 25.677 22.769 25.677 22.8167C25.677 22.8645 25.667 22.9088 25.667 22.9567L25.667 61.3767C25.667 61.4247 25.677 61.469 25.677 61.5167C25.677 61.5645 25.697 61.6192 25.697 61.6667C25.697 61.7143 25.727 61.7597 25.727 61.8067C25.727 61.8538 25.7453 61.9002 25.757 61.9467C25.7686 61.9933 25.7831 62.0408 25.797 62.0867C25.811 62.1327 25.8208 62.1816 25.837 62.2267C25.8531 62.272 25.8686 62.3123 25.887 62.3567C25.9054 62.4011 25.9265 62.4433 25.947 62.4867C25.9675 62.5301 25.9944 62.5744 26.017 62.6167C26.0396 62.6591 26.0623 62.7056 26.087 62.7467C26.1117 62.7879 26.1304 62.8268 26.157 62.8667C26.1837 62.9066 26.2184 62.9382 26.247 62.9767C26.2756 63.0153 26.3065 63.0597 26.337 63.0967C26.3674 63.1339 26.3947 63.1712 26.427 63.2067C26.4592 63.2423 26.4931 63.2728 26.527 63.3067C26.561 63.3407 26.5915 63.3745 26.627 63.4067C26.6626 63.439 26.6999 63.4662 26.737 63.4967C26.7741 63.5272 26.8184 63.5581 26.857 63.5867C26.8956 63.6154 26.9271 63.65 26.967 63.6767C27.0069 63.7035 27.0558 63.7221 27.097 63.7467C27.1382 63.7714 27.1747 63.7941 27.217 63.8167C27.2593 63.8394 27.3036 63.8662 27.347 63.8867C27.3904 63.9073 27.4326 63.9284 27.477 63.9467C27.5213 63.9651 27.5718 63.9806 27.617 63.9967C27.6622 64.013 27.701 64.0228 27.747 64.0367C27.7929 64.0507 27.8404 64.0651 27.887 64.0768C27.9336 64.0883 27.9799 64.1068 28.027 64.1068C28.0741 64.1068 28.1195 64.1367 28.167 64.1367C28.2144 64.1367 28.2692 64.1568 28.317 64.1568C28.3648 64.1568 28.409 64.1667 28.457 64.1667ZM49.5007 25.6667L33.0003 25.6667C31.7781 25.6667 31.167 26.2779 31.167 27.5001C31.167 28.7223 31.7781 29.3334 33.0003 29.3334L49.5007 29.3334Q51.334 29.3334 51.334 27.5001C51.334 26.2779 50.7229 25.6667 49.5007 25.6667ZM42.1667 33L33.0003 33C31.7781 33 31.167 33.6111 31.167 34.8333C31.167 36.0555 31.7781 36.6666 33.0003 36.6666L42.1667 36.6666C43.3889 36.6666 44 36.0555 44 34.8333Q44 33.9167 43.5417 33.4584Q43.0834 33 42.1667 33ZM51.6674 37.6843L55.8162 41.8331L57.8898 39.7578C57.907 39.741 57.9237 39.7237 57.94 39.706C57.9564 39.6883 57.9723 39.6702 57.9877 39.6517C58.003 39.6333 58.018 39.6144 58.0325 39.5952C58.047 39.576 58.061 39.5565 58.0745 39.5366C58.088 39.5167 58.1011 39.4964 58.1136 39.4758C58.126 39.4553 58.138 39.4345 58.1496 39.4134C58.161 39.3922 58.1719 39.3707 58.1823 39.3491C58.1927 39.3274 58.2026 39.3054 58.212 39.2832C58.2212 39.2611 58.23 39.2387 58.2383 39.216C58.2464 39.1934 58.2541 39.1706 58.2611 39.1476C58.2682 39.1246 58.2747 39.1014 58.2806 39.0781C58.2865 39.0548 58.2919 39.0314 58.2966 39.0078C58.3013 38.9842 58.3055 38.9605 58.3091 38.9367C58.3127 38.9129 58.3157 38.889 58.318 38.8651Q58.3216 38.8291 58.3234 38.7931C58.3246 38.7691 58.3252 38.7451 58.3252 38.721C58.3252 38.697 58.3246 38.6729 58.3234 38.6488C58.3222 38.6248 58.3204 38.6009 58.318 38.5769C58.3157 38.553 58.3127 38.5291 58.3091 38.5053C58.3055 38.4815 58.3013 38.4578 58.2966 38.4343C58.2919 38.4106 58.2865 38.3872 58.2806 38.3639C58.2747 38.3406 58.2682 38.3174 58.2611 38.2944C58.2541 38.2714 58.2464 38.2486 58.2383 38.2259C58.23 38.2033 58.2212 38.1809 58.212 38.1587C58.2026 38.1366 58.1927 38.1146 58.1823 38.0929C58.1719 38.0713 58.161 38.0499 58.1496 38.0287C58.138 38.0075 58.126 37.9867 58.1136 37.9661C58.1011 37.9456 58.088 37.9254 58.0745 37.9055C58.061 37.8855 58.047 37.866 58.0325 37.8468C58.018 37.8275 58.003 37.8087 57.9877 37.7902C57.9723 37.7718 57.9564 37.7537 57.94 37.736C57.9237 37.7184 57.907 37.7011 57.8898 37.6843L55.8181 35.6107C55.8012 35.5935 55.7839 35.5767 55.7663 35.5604C55.7486 35.544 55.7306 35.5281 55.7121 35.5126C55.6936 35.4972 55.6747 35.4822 55.6555 35.4677C55.6363 35.4532 55.6167 35.4392 55.5968 35.4256C55.5769 35.4121 55.5566 35.399 55.5361 35.3864C55.5155 35.374 55.4947 35.362 55.4734 35.3504C55.4523 35.3389 55.4309 35.3279 55.4092 35.3175C55.3874 35.3071 55.3655 35.2972 55.3432 35.2879C55.3211 35.2785 55.2986 35.2698 55.2759 35.2616C55.2533 35.2533 55.2305 35.2457 55.2075 35.2385C55.1845 35.2315 55.1613 35.225 55.1379 35.219C55.1146 35.2131 55.0912 35.2078 55.0675 35.2031C55.0439 35.1983 55.0202 35.1941 54.9964 35.1905C54.9726 35.187 54.9486 35.184 54.9246 35.1816C54.9007 35.1792 54.8767 35.1774 54.8526 35.1762C54.8286 35.1749 54.8045 35.1743 54.7804 35.1743C54.7563 35.1743 54.7322 35.1749 54.7082 35.1762C54.6842 35.1774 54.6601 35.1792 54.6361 35.1816C54.6122 35.184 54.5883 35.187 54.5645 35.1905C54.5407 35.1941 54.5169 35.1983 54.4933 35.2031C54.4697 35.2078 54.4462 35.2131 54.4229 35.219C54.3995 35.225 54.3763 35.2315 54.3533 35.2386C54.3303 35.2457 54.3074 35.2533 54.2848 35.2616C54.2622 35.2698 54.2398 35.2785 54.2176 35.2879C54.1954 35.2972 54.1734 35.3071 54.1517 35.3175C54.13 35.3279 54.1086 35.3389 54.0873 35.3504C54.0662 35.362 54.0453 35.374 54.0248 35.3864C54.0042 35.399 53.9839 35.4121 53.964 35.4256C53.9442 35.4392 53.9246 35.4532 53.9053 35.4677C53.8862 35.4822 53.8672 35.4972 53.8488 35.5126C53.8303 35.5281 53.8122 35.544 53.7945 35.5604C53.7768 35.5767 53.7596 35.5935 53.7427 35.6107L51.6674 37.6824L51.6674 37.6843ZM50.6316 38.7201L34.8555 54.4961L35.0755 58.4268L39.0044 58.645L54.7786 42.8689L50.6316 38.7219L50.6316 38.7201Z"></path><path id="路径 4" fill-rule="evenodd" style="fill:#96D8FF" opacity="1" d="M53.5332 64.1666L63.7999 53.8999L57.1999 53.8999C57.1399 53.8999 57.08 53.9014 57.02 53.9043C56.96 53.9073 56.9002 53.9117 56.8405 53.9176C56.7808 53.9234 56.7213 53.9308 56.6619 53.9396C56.6025 53.9484 56.5434 53.9586 56.4846 53.9704C56.4257 53.9821 56.3672 53.9952 56.309 54.0098C56.2508 54.0244 56.193 54.0404 56.1356 54.0578C56.0781 54.0752 56.0211 54.094 55.9646 54.1142C55.9081 54.1345 55.8522 54.1561 55.7967 54.179C55.7413 54.202 55.6865 54.2263 55.6322 54.252C55.578 54.2776 55.5244 54.3046 55.4714 54.3329C55.4185 54.3612 55.3663 54.3907 55.3149 54.4215C55.2634 54.4524 55.2127 54.4845 55.1628 54.5179C55.1129 54.5512 55.0639 54.5857 55.0156 54.6214C54.9674 54.6572 54.9202 54.6941 54.8738 54.7322C54.8274 54.7702 54.782 54.8094 54.7375 54.8498C54.6931 54.89 54.6496 54.9314 54.6072 54.9739C54.5647 55.0163 54.5233 55.0598 54.4831 55.1042C54.4428 55.1487 54.4036 55.1941 54.3655 55.2404C54.3275 55.2868 54.2906 55.3341 54.2548 55.3823C54.2191 55.4306 54.1845 55.4796 54.1512 55.5294C54.1178 55.5794 54.0858 55.63 54.0549 55.6816C54.024 55.733 53.9945 55.7852 53.9662 55.8381C53.9379 55.891 53.911 55.9446 53.8853 55.9988C53.8596 56.0531 53.8353 56.108 53.8123 56.1634C53.7894 56.2189 53.7678 56.2748 53.7475 56.3313C53.7274 56.3878 53.7086 56.4448 53.6912 56.5022C53.6737 56.5596 53.6577 56.6175 53.6431 56.6757C53.6285 56.7339 53.6154 56.7924 53.6037 56.8513C53.592 56.9101 53.5817 56.9692 53.5729 57.0285C53.5641 57.0879 53.5567 57.1475 53.5509 57.2072C53.545 57.2669 53.5406 57.3267 53.5377 57.3866C53.5347 57.4466 53.5332 57.5066 53.5332 57.5666L53.5332 64.1666Z"></path></g></g><defs><rect id="path_0" x="0" y="0" width="88" height="88" rx="0" ry="0"/><linearGradient id="linear_0" x1="0.00015366837135516987%" y1="50%" x2="99.99984633162865%" y2="50%" gradientUnits="objectBoundingBox"><stop offset="0" stop-color="#598BFC" stop-opacity="1" /><stop offset="1" stop-color="#178BFF" stop-opacity="1" /></linearGradient></defs></svg>