<svg xmlns="http://www.w3.org/2000/svg" xmlns:xlink="http://www.w3.org/1999/xlink" width="88" height="88" viewBox="0 0 88 88" fill="none"><g opacity="1"  transform="translate(0 0)"><g opacity="1"  transform="translate(20 20)"><mask id="bg-mask-0" fill="white"><use transform="translate(0 0)" xlink:href="#path_0"></use></mask><g mask="url(#bg-mask-0)" ><path id="减去顶层" fill-rule="evenodd" fill="url(#linear_0)" opacity="1" d="M37.5 4L10.5 4C8.85 4 7.5 5.38462 7.5 7.07692L7.5 10.1538L10.5 10.1538C12.15 10.1538 13.5 11.5385 13.5 13.2308C13.5 14.9231 12.15 16.3077 10.5 16.3077L7.5 16.3077L7.5 20.9231L10.5 20.9231C12.15 20.9231 13.5 22.3077 13.5 24C13.5 25.6923 12.15 27.0769 10.5 27.0769L7.5 27.0769L7.5 31.6923L10.5 31.6923C12.15 31.6923 13.5 33.0769 13.5 34.7692C13.5 36.4615 12.15 37.8462 10.5 37.8462L7.5 37.8462L7.5 40.9231C7.5 42.6154 8.85 44 10.5 44L37.5 44C39.15 44 40.5 42.6154 40.5 40.9231L40.5 7.07692C40.5 5.38462 39.15 4 37.5 4ZM24.0185 25.0185L19.5184 25.0185C19.4939 25.0185 19.4694 25.0179 19.4448 25.0167C19.4203 25.0155 19.3958 25.0137 19.3714 25.0113C19.347 25.0089 19.3226 25.0059 19.2984 25.0023C19.2741 24.9987 19.2499 24.9944 19.2258 24.9897C19.2017 24.9849 19.1778 24.9795 19.154 24.9735C19.1302 24.9676 19.1065 24.961 19.083 24.9539C19.0595 24.9468 19.0362 24.9391 19.0131 24.9308C18.99 24.9225 18.9671 24.9137 18.9444 24.9043C18.9217 24.8949 18.8993 24.885 18.8771 24.8745C18.8549 24.864 18.833 24.853 18.8113 24.8414C18.7897 24.8298 18.7683 24.8177 18.7473 24.8051C18.7262 24.7925 18.7055 24.7793 18.6851 24.7657C18.6647 24.7521 18.6446 24.7379 18.6249 24.7233C18.6052 24.7087 18.5858 24.6936 18.5668 24.678C18.5479 24.6624 18.5293 24.6464 18.5111 24.6299Q18.4838 24.6052 18.4578 24.5791C18.4404 24.5618 18.4235 24.544 18.407 24.5258C18.3905 24.5076 18.3745 24.4891 18.3589 24.4701C18.3433 24.4511 18.3282 24.4318 18.3136 24.412C18.299 24.3923 18.2849 24.3723 18.2712 24.3518C18.2576 24.3314 18.2445 24.3107 18.2319 24.2896C18.2192 24.2686 18.2071 24.2473 18.1956 24.2256C18.184 24.2039 18.1729 24.1821 18.1624 24.1598C18.1519 24.1377 18.142 24.1152 18.1326 24.0925C18.1232 24.0698 18.1144 24.047 18.1061 24.0238C18.0979 24.0007 18.0902 23.9774 18.083 23.9539C18.0759 23.9304 18.0694 23.9068 18.0634 23.8829C18.0574 23.8591 18.052 23.8352 18.0473 23.8111C18.0425 23.787 18.0383 23.7628 18.0347 23.7386C18.0311 23.7143 18.0281 23.69 18.0257 23.6655C18.0232 23.6411 18.0214 23.6166 18.0203 23.5921C18.019 23.5676 18.0184 23.543 18.0184 23.5185C18.0184 23.4939 18.019 23.4694 18.0203 23.4449C18.0214 23.4204 18.0232 23.3959 18.0257 23.3714C18.0281 23.3471 18.0311 23.3227 18.0347 23.2984C18.0383 23.2741 18.0425 23.2499 18.0473 23.2258C18.052 23.2018 18.0574 23.1778 18.0634 23.154C18.0694 23.1302 18.0759 23.1066 18.083 23.0831C18.0902 23.0596 18.0979 23.0363 18.1061 23.0132C18.1144 22.9901 18.1232 22.9671 18.1326 22.9444C18.142 22.9218 18.1519 22.8994 18.1624 22.8771C18.1729 22.855 18.184 22.833 18.1956 22.8114C18.2071 22.7897 18.2192 22.7684 18.2319 22.7473C18.2445 22.7263 18.2576 22.7056 18.2712 22.6851C18.2849 22.6647 18.299 22.6447 18.3136 22.6249C18.3282 22.6053 18.3433 22.5859 18.3589 22.5669C18.3745 22.5479 18.3905 22.5293 18.407 22.5111C18.4235 22.4929 18.4404 22.4752 18.4578 22.4578Q18.4838 22.4318 18.5111 22.4071C18.5293 22.3906 18.5479 22.3745 18.5668 22.359C18.5858 22.3434 18.6052 22.3283 18.6249 22.3136C18.6446 22.299 18.6647 22.2849 18.6851 22.2713C18.7055 22.2577 18.7262 22.2446 18.7473 22.2319C18.7684 22.2193 18.7897 22.2072 18.8113 22.1956C18.833 22.184 18.8549 22.173 18.8771 22.1625C18.8993 22.152 18.9217 22.142 18.9444 22.1327C18.9671 22.1233 18.99 22.1144 19.0131 22.1062C19.0362 22.0979 19.0595 22.0902 19.083 22.0831C19.1065 22.0759 19.1302 22.0694 19.154 22.0634C19.1778 22.0575 19.2017 22.0521 19.2258 22.0473C19.2499 22.0425 19.2741 22.0383 19.2984 22.0347C19.3226 22.0311 19.347 22.0281 19.3714 22.0257C19.3958 22.0233 19.4203 22.0215 19.4448 22.0203C19.4694 22.0191 19.4939 22.0185 19.5184 22.0185L21.8975 22.0185L18.4579 18.579C18.4401 18.5617 18.4227 18.544 18.4057 18.5259C18.3887 18.5078 18.3722 18.4893 18.3561 18.4704C18.3401 18.4515 18.3245 18.4321 18.3094 18.4125C18.2943 18.3927 18.2797 18.3727 18.2656 18.3523C18.2515 18.3318 18.2379 18.3111 18.2249 18.29C18.2118 18.2689 18.1992 18.2474 18.1872 18.2257C18.1752 18.204 18.1638 18.182 18.1529 18.1597Q18.1365 18.1263 18.1218 18.0921C18.112 18.0692 18.1028 18.0462 18.0941 18.023C18.0855 17.9997 18.0774 17.9762 18.0699 17.9526C18.0624 17.9289 18.0555 17.9051 18.0492 17.8811C18.0429 17.857 18.0372 17.8329 18.0321 17.8086C18.027 17.7843 18.0225 17.7599 18.0186 17.7354C18.0147 17.7109 18.0114 17.6863 18.0087 17.6616C18.0061 17.637 18.004 17.6122 18.0025 17.5874C18.0011 17.5627 18.0003 17.5379 18.0001 17.5131C17.9998 17.4882 18.0002 17.4634 18.0013 17.4386C18.0023 17.4138 18.0039 17.3891 18.0062 17.3644C18.0084 17.3396 18.0113 17.315 18.0147 17.2904C18.0182 17.2658 18.0223 17.2414 18.027 17.217C18.0317 17.1926 18.0369 17.1684 18.0428 17.1442C18.0487 17.1201 18.0552 17.0962 18.0623 17.0724C18.0693 17.0486 18.077 17.025 18.0852 17.0016C18.0935 16.9782 18.1023 16.955 18.1117 16.932C18.1211 16.9091 18.1311 16.8863 18.1416 16.8638C18.1521 16.8414 18.1632 16.8192 18.1749 16.7972C18.1865 16.7753 18.1986 16.7537 18.2113 16.7323C18.224 16.711 18.2373 16.69 18.251 16.6694C18.2647 16.6487 18.279 16.6284 18.2937 16.6085C18.3085 16.5885 18.3237 16.5689 18.3395 16.5497C18.3552 16.5305 18.3714 16.5117 18.388 16.4933C18.4047 16.4749 18.4218 16.4569 18.4394 16.4394C18.4569 16.4218 18.4749 16.4047 18.4933 16.388C18.5117 16.3714 18.5305 16.3552 18.5497 16.3395C18.5689 16.3237 18.5885 16.3085 18.6085 16.2937C18.6284 16.279 18.6487 16.2647 18.6694 16.251C18.69 16.2373 18.711 16.224 18.7323 16.2113C18.7537 16.1986 18.7753 16.1865 18.7972 16.1749C18.8192 16.1632 18.8414 16.1521 18.8638 16.1416Q18.8976 16.1258 18.932 16.1117C18.955 16.1023 18.9782 16.0935 19.0016 16.0852C19.025 16.077 19.0486 16.0693 19.0724 16.0623C19.0962 16.0552 19.1201 16.0487 19.1442 16.0428C19.1684 16.0369 19.1926 16.0317 19.217 16.027C19.2414 16.0223 19.2658 16.0182 19.2904 16.0147C19.315 16.0113 19.3396 16.0084 19.3644 16.0062C19.3891 16.0039 19.4138 16.0023 19.4386 16.0013C19.4634 16.0002 19.4882 15.9998 19.5131 16.0001C19.5379 16.0003 19.5627 16.0011 19.5874 16.0025C19.6122 16.004 19.637 16.0061 19.6616 16.0087C19.6863 16.0114 19.7109 16.0147 19.7354 16.0186C19.7599 16.0225 19.7843 16.027 19.8086 16.0321C19.8329 16.0372 19.857 16.0429 19.8811 16.0492C19.9051 16.0555 19.9289 16.0624 19.9526 16.0699C19.9762 16.0774 19.9997 16.0855 20.023 16.0941C20.0462 16.1028 20.0692 16.112 20.0921 16.1218C20.1149 16.1316 20.1374 16.1419 20.1597 16.1529C20.182 16.1638 20.204 16.1752 20.2257 16.1872C20.2474 16.1992 20.2689 16.2118 20.29 16.2249C20.3111 16.2379 20.3318 16.2515 20.3523 16.2656C20.3727 16.2797 20.3927 16.2943 20.4125 16.3094C20.4321 16.3245 20.4515 16.3401 20.4704 16.3561C20.4893 16.3722 20.5078 16.3887 20.5259 16.4057C20.544 16.4227 20.5617 16.4401 20.579 16.4579L25.5185 21.3975L30.458 16.4579C30.4755 16.4411 30.4934 16.4246 30.5116 16.4086C30.5299 16.3926 30.5485 16.3771 30.5675 16.362C30.5866 16.3469 30.6059 16.3323 30.6256 16.3182C30.6454 16.304 30.6654 16.2903 30.6858 16.2771C30.7062 16.264 30.7269 16.2513 30.7479 16.2391C30.7689 16.2269 30.7902 16.2153 30.8117 16.2042C30.8333 16.193 30.8552 16.1824 30.8772 16.1723C30.8994 16.1622 30.9217 16.1527 30.9442 16.1437C30.9668 16.1347 30.9895 16.1262 31.0125 16.1184C31.0354 16.1105 31.0585 16.1031 31.0818 16.0963C31.1052 16.0896 31.1286 16.0834 31.1522 16.0778C31.1759 16.0721 31.1996 16.0671 31.2235 16.0626C31.2474 16.0581 31.2713 16.0542 31.2953 16.0509C31.3194 16.0476 31.3435 16.0449 31.3677 16.0427C31.3919 16.0406 31.4161 16.039 31.4403 16.0381C31.4646 16.0371 31.4889 16.0367 31.5131 16.0369C31.5374 16.0371 31.5617 16.0379 31.5859 16.0393C31.6102 16.0407 31.6344 16.0427 31.6585 16.0452C31.6826 16.0478 31.7067 16.051 31.7307 16.0547C31.7547 16.0584 31.7785 16.0627 31.8023 16.0676C31.8261 16.0725 31.8498 16.078 31.8733 16.084C31.8968 16.09 31.9202 16.0967 31.9433 16.1038C31.9665 16.111 31.9895 16.1188 32.0124 16.127C32.0352 16.1353 32.0578 16.1442 32.0801 16.1536C32.1026 16.1629 32.1247 16.1729 32.1466 16.1833C32.1686 16.1938 32.1902 16.2048 32.2115 16.2163C32.2329 16.2278 32.254 16.2399 32.2748 16.2524C32.2956 16.2649 32.316 16.278 32.3362 16.2915C32.3563 16.305 32.3762 16.319 32.3956 16.3335C32.4151 16.348 32.4342 16.363 32.4529 16.3784Q32.4811 16.4015 32.5081 16.426C32.5261 16.4423 32.5436 16.459 32.5608 16.4762C32.578 16.4934 32.5947 16.5109 32.611 16.5289C32.6273 16.5469 32.6432 16.5653 32.6586 16.584C32.6741 16.6028 32.689 16.6219 32.7034 16.6414C32.718 16.6608 32.732 16.6806 32.7455 16.7008C32.759 16.721 32.7721 16.7414 32.7846 16.7622C32.7971 16.783 32.8092 16.8041 32.8207 16.8255C32.8322 16.8469 32.8432 16.8685 32.8536 16.8904C32.8641 16.9123 32.874 16.9345 32.8834 16.9568C32.8928 16.9792 32.9017 17.0018 32.9099 17.0247C32.9182 17.0475 32.926 17.0705 32.9331 17.0937C32.9404 17.1168 32.947 17.1402 32.953 17.1637C32.959 17.1872 32.9645 17.2109 32.9694 17.2347C32.9742 17.2584 32.9786 17.2823 32.9823 17.3063C32.9861 17.3303 32.9892 17.3544 32.9917 17.3785C32.9943 17.4026 32.9963 17.4268 32.9976 17.4511C32.999 17.4753 32.9999 17.4996 33.0001 17.5238C33.0003 17.5481 32.9999 17.5724 32.9989 17.5966C32.998 17.6209 32.9964 17.6451 32.9943 17.6693C32.9921 17.6935 32.9894 17.7176 32.9861 17.7417C32.9828 17.7657 32.9789 17.7896 32.9744 17.8135C32.9699 17.8374 32.9649 17.8611 32.9592 17.8847C32.9536 17.9084 32.9474 17.9318 32.9406 17.9551C32.9339 17.9784 32.9265 18.0016 32.9187 18.0246C32.9108 18.0475 32.9023 18.0702 32.8933 18.0928C32.8843 18.1153 32.8748 18.1377 32.8647 18.1597C32.8546 18.1818 32.844 18.2037 32.8328 18.2252C32.8217 18.2468 32.81 18.2681 32.7979 18.2891C32.7857 18.3101 32.7731 18.3308 32.7598 18.3512C32.7467 18.3716 32.733 18.3916 32.7189 18.4114C32.7047 18.4311 32.6901 18.4505 32.675 18.4695C32.6599 18.4885 32.6444 18.5071 32.6284 18.5254C32.6124 18.5436 32.5959 18.5615 32.579 18.579L29.1395 22.0185L31.5185 22.0185C31.5431 22.0185 31.5677 22.0191 31.5921 22.0203C31.6167 22.0215 31.6412 22.0233 31.6656 22.0257C31.69 22.0281 31.7143 22.0311 31.7386 22.0347C31.7629 22.0383 31.7871 22.0425 31.8112 22.0473C31.8353 22.0521 31.8592 22.0575 31.883 22.0634C31.9068 22.0694 31.9305 22.0759 31.954 22.0831C31.9775 22.0902 32.0008 22.0979 32.0238 22.1062C32.047 22.1144 32.0699 22.1233 32.0926 22.1327C32.1153 22.142 32.1377 22.152 32.1599 22.1625C32.1821 22.173 32.204 22.184 32.2256 22.1956C32.2473 22.2072 32.2686 22.2193 32.2897 22.2319C32.3108 22.2446 32.3315 22.2577 32.3519 22.2713C32.3723 22.2849 32.3924 22.299 32.4121 22.3136C32.4318 22.3283 32.4512 22.3434 32.4701 22.359C32.4891 22.3745 32.5077 22.3906 32.5259 22.4071C32.5441 22.4236 32.5618 22.4405 32.5792 22.4578C32.5966 22.4752 32.6135 22.4929 32.6299 22.5111C32.6464 22.5293 32.6625 22.5479 32.678 22.5669C32.6936 22.5859 32.7087 22.6053 32.7234 22.6249C32.738 22.6447 32.7522 22.6647 32.7657 22.6851C32.7794 22.7056 32.7925 22.7263 32.8051 22.7473C32.8178 22.7684 32.8299 22.7898 32.8414 22.8114C32.853 22.833 32.864 22.855 32.8745 22.8771C32.885 22.8994 32.895 22.9218 32.9044 22.9444C32.9138 22.9671 32.9226 22.9901 32.9308 23.0131C32.9391 23.0363 32.9468 23.0596 32.9539 23.0831C32.9611 23.1066 32.9676 23.1302 32.9736 23.154C32.9796 23.1778 32.9849 23.2018 32.9897 23.2258C32.9945 23.2499 32.9987 23.2741 33.0023 23.2984C33.0059 23.3227 33.0089 23.3471 33.0113 23.3714C33.0138 23.3959 33.0155 23.4204 33.0167 23.4449C33.0179 23.4694 33.0185 23.4939 33.0185 23.5185C33.0185 23.543 33.0179 23.5676 33.0167 23.5921C33.0155 23.6166 33.0138 23.6411 33.0113 23.6655C33.0089 23.69 33.0059 23.7143 33.0023 23.7386C32.9987 23.7628 32.9945 23.787 32.9897 23.8111C32.9849 23.8352 32.9796 23.8591 32.9736 23.8829C32.9676 23.9068 32.9611 23.9304 32.9539 23.9539C32.9468 23.9774 32.9391 24.0007 32.9308 24.0238C32.9226 24.047 32.9138 24.0698 32.9044 24.0925C32.895 24.1152 32.885 24.1377 32.8745 24.1598C32.864 24.1821 32.853 24.2039 32.8414 24.2256C32.8299 24.2473 32.8178 24.2686 32.8051 24.2896C32.7925 24.3107 32.7794 24.3314 32.7657 24.3518C32.7522 24.3723 32.738 24.3923 32.7234 24.412C32.7087 24.4318 32.6936 24.4511 32.678 24.4701C32.6625 24.4891 32.6464 24.5076 32.6299 24.5258C32.6135 24.544 32.5966 24.5618 32.5792 24.5791C32.5618 24.5965 32.5441 24.6134 32.5259 24.6299C32.5077 24.6464 32.4891 24.6624 32.4701 24.678C32.4512 24.6936 32.4318 24.7087 32.4121 24.7233C32.3924 24.7379 32.3723 24.7521 32.3519 24.7657C32.3315 24.7793 32.3108 24.7925 32.2897 24.8051C32.2686 24.8177 32.2473 24.8298 32.2256 24.8414C32.204 24.853 32.1821 24.864 32.1599 24.8745C32.1377 24.885 32.1153 24.8949 32.0926 24.9043C32.0699 24.9137 32.047 24.9225 32.0238 24.9308C32.0008 24.9391 31.9775 24.9468 31.954 24.9539C31.9305 24.961 31.9068 24.9676 31.883 24.9735C31.8592 24.9795 31.8353 24.9849 31.8112 24.9897C31.7871 24.9944 31.7629 24.9987 31.7386 25.0023C31.7143 25.0059 31.69 25.0089 31.6656 25.0113C31.6412 25.0137 31.6167 25.0155 31.5921 25.0167C31.5677 25.0179 31.5431 25.0185 31.5185 25.0185L27.0185 25.0185L27.0185 26.5185L30.0185 26.5185C30.0431 26.5185 30.0676 26.5191 30.0921 26.5203C30.1167 26.5216 30.1411 26.5233 30.1656 26.5257C30.19 26.5282 30.2143 26.5312 30.2386 26.5347C30.2629 26.5384 30.2871 26.5426 30.3112 26.5473C30.3353 26.5521 30.3592 26.5575 30.383 26.5635C30.4068 26.5695 30.4305 26.576 30.4539 26.5831C30.4775 26.5902 30.5008 26.598 30.5238 26.6062C30.547 26.6145 30.5699 26.6233 30.5926 26.6327C30.6152 26.6421 30.6377 26.652 30.6599 26.6625C30.6821 26.673 30.704 26.6841 30.7256 26.6957C30.7473 26.7072 30.7686 26.7193 30.7897 26.7319C30.8108 26.7446 30.8315 26.7577 30.8519 26.7713C30.8723 26.7849 30.8924 26.7991 30.9121 26.8137C30.9318 26.8283 30.9512 26.8434 30.9701 26.859C30.9891 26.8746 31.0077 26.8906 31.0259 26.9071C31.0441 26.9236 31.0618 26.9405 31.0792 26.9579C31.0966 26.9752 31.1135 26.993 31.1299 27.0112C31.1464 27.0294 31.1625 27.048 31.178 27.0669C31.1936 27.0859 31.2087 27.1053 31.2234 27.125C31.238 27.1447 31.2521 27.1648 31.2657 27.1852C31.2794 27.2056 31.2925 27.2263 31.3051 27.2474C31.3178 27.2684 31.3299 27.2897 31.3414 27.3114C31.353 27.3331 31.364 27.355 31.3745 27.3772C31.385 27.3994 31.395 27.4218 31.4043 27.4445C31.4138 27.4672 31.4226 27.4901 31.4308 27.5132C31.4391 27.5363 31.4468 27.5596 31.4539 27.5831C31.4611 27.6066 31.4676 27.6303 31.4736 27.6541C31.4796 27.6779 31.4849 27.7018 31.4897 27.7259C31.4945 27.75 31.4987 27.7742 31.5023 27.7984C31.5059 27.8227 31.5089 27.8471 31.5113 27.8715C31.5138 27.8959 31.5155 27.9204 31.5167 27.9449C31.5179 27.9694 31.5185 27.994 31.5185 28.0185C31.5185 28.0431 31.5179 28.0676 31.5167 28.0921C31.5155 28.1167 31.5138 28.1411 31.5113 28.1656C31.5089 28.19 31.5059 28.2143 31.5023 28.2386C31.4987 28.2629 31.4945 28.2871 31.4897 28.3112C31.4849 28.3353 31.4796 28.3592 31.4736 28.383C31.4676 28.4068 31.4611 28.4305 31.4539 28.4539C31.4468 28.4775 31.4391 28.5008 31.4308 28.5238C31.4226 28.547 31.4138 28.5699 31.4043 28.5926C31.395 28.6152 31.385 28.6377 31.3745 28.6599C31.364 28.6821 31.353 28.704 31.3414 28.7256C31.3299 28.7473 31.3178 28.7686 31.3051 28.7897C31.2925 28.8108 31.2794 28.8315 31.2657 28.8519C31.2521 28.8723 31.238 28.8924 31.2234 28.9121C31.2087 28.9318 31.1936 28.9512 31.178 28.9701C31.1625 28.9891 31.1464 29.0077 31.1299 29.0259Q31.1053 29.0532 31.0792 29.0792C31.0618 29.0966 31.0441 29.1135 31.0259 29.1299C31.0077 29.1464 30.9891 29.1625 30.9701 29.178C30.9512 29.1936 30.9318 29.2087 30.9121 29.2234C30.8924 29.238 30.8723 29.2521 30.8519 29.2657C30.8315 29.2794 30.8108 29.2925 30.7897 29.3051C30.7686 29.3178 30.7473 29.3299 30.7256 29.3414C30.704 29.353 30.6821 29.364 30.6599 29.3745C30.6377 29.385 30.6152 29.395 30.5926 29.4043C30.5699 29.4138 30.547 29.4226 30.5238 29.4308C30.5008 29.4391 30.4775 29.4468 30.4539 29.4539C30.4305 29.4611 30.4068 29.4676 30.383 29.4736C30.3592 29.4796 30.3353 29.4849 30.3112 29.4897C30.2871 29.4945 30.2629 29.4987 30.2386 29.5023C30.2143 29.5059 30.19 29.5089 30.1656 29.5113C30.1411 29.5138 30.1167 29.5155 30.0921 29.5167C30.0676 29.5179 30.0431 29.5185 30.0185 29.5185L27.0185 29.5185L27.0185 31.0185C27.0185 31.0431 27.0179 31.0677 27.0167 31.0921C27.0155 31.1167 27.0137 31.1412 27.0113 31.1656C27.0089 31.19 27.0059 31.2143 27.0023 31.2386C26.9987 31.2629 26.9944 31.2871 26.9897 31.3112C26.9849 31.3353 26.9795 31.3592 26.9735 31.383C26.9676 31.4068 26.961 31.4305 26.9539 31.454C26.9468 31.4775 26.9391 31.5008 26.9308 31.5239C26.9225 31.547 26.9137 31.5699 26.9043 31.5926C26.8949 31.6153 26.885 31.6377 26.8745 31.6599C26.864 31.6821 26.853 31.704 26.8414 31.7257C26.8298 31.7473 26.8177 31.7686 26.8051 31.7897C26.7925 31.8108 26.7793 31.8315 26.7657 31.8519C26.7521 31.8723 26.7379 31.8924 26.7233 31.9121C26.7087 31.9318 26.6936 31.9512 26.678 31.9702C26.6624 31.9891 26.6464 32.0077 26.6299 32.0259C26.6134 32.0441 26.5965 32.0619 26.5791 32.0792C26.5618 32.0966 26.544 32.1135 26.5258 32.13C26.5076 32.1465 26.4891 32.1625 26.4701 32.1781C26.4511 32.1937 26.4318 32.2088 26.412 32.2234C26.3923 32.238 26.3723 32.2522 26.3518 32.2658C26.3314 32.2794 26.3107 32.2925 26.2896 32.3051C26.2686 32.3178 26.2473 32.3299 26.2256 32.3414C26.2039 32.353 26.1821 32.3641 26.1598 32.3746C26.1377 32.3851 26.1152 32.395 26.0925 32.4044C26.0698 32.4138 26.047 32.4226 26.0238 32.4309C26.0007 32.4391 25.9774 32.4468 25.9539 32.454C25.9304 32.4611 25.9068 32.4677 25.8829 32.4736C25.8591 32.4796 25.8352 32.4849 25.8111 32.4897C25.787 32.4945 25.7628 32.4987 25.7386 32.5023C25.7143 32.5059 25.69 32.5089 25.6655 32.5113C25.6411 32.5138 25.6166 32.5156 25.5921 32.5167C25.5676 32.5179 25.543 32.5186 25.5185 32.5186C25.4939 32.5186 25.4694 32.5179 25.4449 32.5167C25.4204 32.5156 25.3959 32.5138 25.3714 32.5113C25.3471 32.5089 25.3227 32.5059 25.2984 32.5023C25.2741 32.4987 25.2499 32.4945 25.2258 32.4897C25.2018 32.4849 25.1778 32.4796 25.154 32.4736C25.1302 32.4677 25.1066 32.4611 25.0831 32.454C25.0596 32.4468 25.0363 32.4391 25.0131 32.4309C24.9901 32.4226 24.9671 32.4138 24.9444 32.4044C24.9218 32.395 24.8994 32.3851 24.8771 32.3746C24.855 32.3641 24.833 32.353 24.8114 32.3414C24.7897 32.3299 24.7684 32.3178 24.7473 32.3051C24.7263 32.2925 24.7056 32.2794 24.6851 32.2658C24.6647 32.2522 24.6447 32.238 24.6249 32.2234C24.6053 32.2088 24.5859 32.1937 24.5669 32.1781C24.5479 32.1625 24.5293 32.1465 24.5111 32.13C24.4929 32.1135 24.4752 32.0966 24.4578 32.0792C24.4405 32.0619 24.4236 32.0441 24.4071 32.0259C24.3906 32.0077 24.3745 31.9891 24.359 31.9702C24.3434 31.9512 24.3283 31.9318 24.3136 31.9121C24.299 31.8924 24.2849 31.8723 24.2713 31.8519C24.2576 31.8315 24.2445 31.8108 24.2319 31.7897C24.2193 31.7686 24.2072 31.7473 24.1956 31.7257C24.184 31.704 24.173 31.6821 24.1625 31.6599C24.152 31.6377 24.142 31.6153 24.1327 31.5926C24.1233 31.5699 24.1144 31.547 24.1062 31.5239C24.0979 31.5008 24.0902 31.4775 24.0831 31.454C24.0759 31.4305 24.0694 31.4068 24.0634 31.383C24.0575 31.3592 24.0521 31.3353 24.0473 31.3112C24.0425 31.2871 24.0383 31.2629 24.0347 31.2386C24.0311 31.2143 24.0281 31.19 24.0257 31.1656C24.0233 31.1412 24.0215 31.1167 24.0203 31.0921C24.0191 31.0677 24.0185 31.0431 24.0185 31.0185L24.0185 29.5185L21.0185 29.5185C20.9939 29.5185 20.9694 29.5179 20.9449 29.5167C20.9203 29.5155 20.8958 29.5138 20.8714 29.5113C20.847 29.5089 20.8227 29.5059 20.7984 29.5023C20.7741 29.4987 20.7499 29.4945 20.7258 29.4897C20.7018 29.4849 20.6778 29.4796 20.654 29.4736C20.6302 29.4676 20.6065 29.4611 20.583 29.4539C20.5595 29.4468 20.5362 29.4391 20.5131 29.4308C20.49 29.4226 20.4671 29.4138 20.4444 29.4043C20.4217 29.395 20.3993 29.385 20.3771 29.3745C20.3549 29.364 20.333 29.353 20.3113 29.3414C20.2897 29.3299 20.2684 29.3178 20.2473 29.3051C20.2262 29.2925 20.2055 29.2794 20.1851 29.2657C20.1647 29.2521 20.1446 29.238 20.1249 29.2234C20.1052 29.2087 20.0858 29.1936 20.0668 29.178C20.0479 29.1625 20.0293 29.1464 20.0111 29.1299Q19.9838 29.1053 19.9578 29.0792C19.9404 29.0618 19.9235 29.0441 19.907 29.0259C19.8905 29.0077 19.8745 28.9891 19.8589 28.9701C19.8434 28.9512 19.8282 28.9318 19.8136 28.9121C19.799 28.8924 19.7849 28.8723 19.7712 28.8519C19.7576 28.8315 19.7445 28.8108 19.7319 28.7897C19.7192 28.7686 19.7071 28.7473 19.6956 28.7256C19.684 28.704 19.6729 28.6821 19.6624 28.6599C19.6519 28.6377 19.642 28.6152 19.6326 28.5926C19.6232 28.5699 19.6144 28.547 19.6061 28.5238C19.5979 28.5008 19.5902 28.4775 19.583 28.4539C19.5759 28.4305 19.5694 28.4068 19.5634 28.383C19.5574 28.3592 19.5521 28.3353 19.5473 28.3112C19.5425 28.2871 19.5383 28.2629 19.5347 28.2386C19.5311 28.2143 19.5281 28.19 19.5257 28.1656C19.5233 28.1411 19.5215 28.1167 19.5203 28.0921C19.5191 28.0676 19.5184 28.0431 19.5184 28.0185C19.5184 27.994 19.5191 27.9694 19.5203 27.9449C19.5215 27.9204 19.5233 27.8959 19.5257 27.8715C19.5281 27.8471 19.5311 27.8227 19.5347 27.7984C19.5383 27.7742 19.5425 27.75 19.5473 27.7259C19.5521 27.7018 19.5574 27.6779 19.5634 27.6541C19.5694 27.6303 19.5759 27.6066 19.583 27.5831C19.5902 27.5596 19.5979 27.5363 19.6061 27.5132C19.6144 27.4901 19.6232 27.4672 19.6326 27.4445C19.642 27.4218 19.6519 27.3994 19.6624 27.3772C19.6729 27.355 19.684 27.3331 19.6956 27.3114C19.7071 27.2897 19.7192 27.2684 19.7319 27.2474C19.7445 27.2263 19.7576 27.2056 19.7712 27.1852C19.7849 27.1648 19.799 27.1447 19.8136 27.125C19.8282 27.1053 19.8434 27.0859 19.8589 27.0669C19.8745 27.048 19.8905 27.0294 19.907 27.0112C19.9235 26.993 19.9404 26.9752 19.9578 26.9579Q19.9838 26.9319 20.0111 26.9071C20.0293 26.8906 20.0479 26.8746 20.0668 26.859C20.0858 26.8434 20.1052 26.8283 20.1249 26.8137C20.1446 26.7991 20.1647 26.7849 20.1851 26.7713C20.2055 26.7577 20.2262 26.7445 20.2473 26.7319C20.2683 26.7193 20.2897 26.7072 20.3113 26.6957C20.333 26.6841 20.3549 26.673 20.3771 26.6625C20.3993 26.652 20.4217 26.6421 20.4444 26.6327C20.4671 26.6233 20.49 26.6145 20.5131 26.6062C20.5362 26.598 20.5595 26.5902 20.583 26.5831C20.6065 26.576 20.6302 26.5695 20.654 26.5635C20.6778 26.5575 20.7018 26.5521 20.7258 26.5473C20.7499 26.5426 20.7741 26.5384 20.7984 26.5347C20.8227 26.5312 20.847 26.5282 20.8714 26.5257C20.8958 26.5233 20.9203 26.5216 20.9449 26.5203C20.9694 26.5191 20.9939 26.5185 21.0185 26.5185L24.0185 26.5185L24.0185 25.0185Z"></path><path id="路径 3" fill-rule="evenodd" fill="url(#linear_1)" opacity="1" d="M10.5 15L4.5 15C3.675 15 3 14.325 3 13.5C3 12.675 3.675 12 4.5 12L10.5 12C11.325 12 12 12.675 12 13.5C12 14.325 11.325 15 10.5 15ZM10.5 25.5L4.5 25.5C3.675 25.5 3 24.825 3 24C3 23.175 3.675 22.5 4.5 22.5L10.5 22.5C11.325 22.5 12 23.175 12 24C12 24.825 11.325 25.5 10.5 25.5ZM10.5 36L4.5 36C3.675 36 3 35.325 3 34.5C3 33.675 3.675 33 4.5 33L10.5 33C11.325 33 12 33.675 12 34.5C12 35.325 11.325 36 10.5 36Z"></path></g></g></g><defs><rect id="path_0" x="0" y="0" width="48" height="48" rx="0" ry="0"/><linearGradient id="linear_0" x1="0%" y1="50%" x2="100%" y2="50%" gradientUnits="objectBoundingBox"><stop offset="0" stop-color="#6C6CEA" stop-opacity="1" /><stop offset="1" stop-color="#8368FC" stop-opacity="1" /></linearGradient><linearGradient id="linear_1" x1="0%" y1="50%" x2="100%" y2="50%" gradientUnits="objectBoundingBox"><stop offset="0" stop-color="#6C6CEA" stop-opacity="0.6" /><stop offset="1" stop-color="#8368FC" stop-opacity="0.6" /></linearGradient></defs></svg>