<svg xmlns="http://www.w3.org/2000/svg" xmlns:xlink="http://www.w3.org/1999/xlink" width="88" height="88" viewBox="0 0 88 88" fill="none"><g opacity="1"  transform="translate(0 0)"><g opacity="1"  transform="translate(22 22)"><path id="路径 2" fill-rule="evenodd" fill="url(#linear_0)" opacity="1" d="M22 30.7148L2.31 14.6948C1.9 14.3548 1.3 14.3748 0.92 14.7548C0.33 15.3348 0 16.1348 0 16.9748L0 40.8649C0 42.5949 1.4 43.9949 3.12 43.9949L40.88 43.9949C42.6 43.9949 44 42.5949 44 40.8649L44 16.9748C44 16.1048 43.65 15.3148 43.08 14.7548C42.7 14.3748 42.1 14.3548 41.69 14.6948L41.69 14.6948L22 30.7148Z"></path><path id="减去顶层" fill-rule="evenodd" fill="url(#linear_1)" opacity="1" d="M8.38033 0.0002C6.76033 0.0002 5.44033 1.3202 5.44033 2.96019L5.44033 11.6302C5.44033 12.0602 5.63033 12.4702 5.97033 12.7402L21.6103 25.4701C21.9303 25.7401 22.4003 25.7401 22.7203 25.4701L38.0303 13.0102C38.3703 12.7402 38.5603 12.3302 38.5603 11.9002L38.5603 2.95019C38.5603 1.3202 37.2403 0.0002 35.6203 0.0002L8.38033 0.0002ZM16.5941 7.21741C15.3485 7.21741 14.7333 6.59995 14.7333 5.36502C14.7333 4.11466 15.3485 3.49719 16.5941 3.49719L27.4048 3.49719C28.6504 3.49719 29.2655 4.11466 29.2655 5.36502C29.2655 6.59995 28.6504 7.21741 27.4048 7.21741L16.5941 7.21741ZM16.5941 13.8146C15.3485 13.8146 14.7333 13.1971 14.7333 11.9622C14.7333 10.7118 15.3485 10.0943 16.5941 10.0943L27.4048 10.0943C28.6504 10.0943 29.2655 10.7118 29.2655 11.9622C29.2655 13.1971 28.6504 13.8146 27.4048 13.8146L16.5941 13.8146Z"></path></g></g><defs><linearGradient id="linear_0" x1="-0.0003121115944602273%" y1="50%" x2="100.00031211159445%" y2="50%" gradientUnits="objectBoundingBox"><stop offset="0" stop-color="#598BFC" stop-opacity="1" /><stop offset="1" stop-color="#178BFF" stop-opacity="1" /></linearGradient><linearGradient id="linear_1" x1="0.00033065162422403325%" y1="50%" x2="99.99966934837578%" y2="50%" gradientUnits="objectBoundingBox"><stop offset="0" stop-color="#598BFC" stop-opacity="1" /><stop offset="1" stop-color="#178BFF" stop-opacity="1" /></linearGradient></defs></svg>