<svg xmlns="http://www.w3.org/2000/svg" xmlns:xlink="http://www.w3.org/1999/xlink" width="48" height="47.9998779296875" viewBox="0 0 48 47.9998779296875" fill="none"><g opacity="1"  transform="translate(0 0)"><g opacity="1"  transform="translate(0 0)"><path d="M48 0L48 48L0 48L0 0L48 0ZM25.188 46.516L25.164 46.52L25.022 46.59L24.982 46.598L24.954 46.59L24.812 46.518C24.792 46.512 24.774 46.518 24.764 46.53L24.756 46.55L24.722 47.406L24.732 47.446L24.752 47.472L24.96 47.62L24.99 47.628L25.014 47.62L25.222 47.472L25.246 47.44L25.254 47.406L25.22 46.552C25.216 46.532 25.202 46.518 25.188 46.516ZM25.716 46.29L25.688 46.294L25.32 46.48L25.3 46.5L25.294 46.522L25.33 47.382L25.34 47.406L25.356 47.422L25.758 47.606C25.782 47.614 25.804 47.606 25.816 47.59L25.824 47.562L25.756 46.334C25.75 46.31 25.736 46.294 25.716 46.29ZM24.286 46.294C24.265 46.2844 24.247 46.2884 24.232 46.306L24.22 46.334L24.152 47.562C24.152 47.586 24.166 47.602 24.186 47.61L24.216 47.606L24.618 47.42L24.638 47.404L24.644 47.382L24.68 46.522L24.674 46.498L24.654 46.478L24.286 46.294Z"  ></path><path id="路径 2" fill-rule="evenodd" style="fill:#FFFFFF" opacity="1" d="M24 44C35.046 44 44 35.046 44 24C44 12.954 35.046 4 24 4C12.954 4 4 12.954 4 24C4 35.046 12.954 44 24 44ZM34.33 14.53C34.1306 14.3307 33.92 14.1444 33.6978 13.9711C33.4756 13.7977 33.2438 13.6386 33.002 13.4938C32.7602 13.349 32.5104 13.2195 32.2528 13.1054C31.995 12.9913 31.7314 12.8934 31.4616 12.8117C31.192 12.73 30.9184 12.6652 30.6406 12.6172C30.3628 12.5692 30.0832 12.5383 29.8018 12.5247C29.5204 12.5111 29.239 12.5147 28.958 12.5357C28.677 12.5567 28.3984 12.5948 28.122 12.65L27.886 12.698C27.6804 12.7391 27.477 12.789 27.2758 12.8475C27.0744 12.9061 26.876 12.9732 26.6806 13.0489C26.485 13.1245 26.293 13.2084 26.1048 13.3005C25.9166 13.3926 25.7326 13.4926 25.5528 13.6005C25.373 13.7084 25.1982 13.8238 25.0284 13.9468C24.8586 14.0697 24.6944 14.1997 24.5358 14.3367C24.3772 14.4737 24.2246 14.6173 24.0784 14.7675C23.932 14.9176 23.7924 15.0737 23.6596 15.2358C23.5267 15.3979 23.4009 15.5655 23.2824 15.7384C23.1639 15.9113 23.053 16.089 22.9498 16.2714C22.8465 16.4539 22.7512 16.6404 22.664 16.831C22.5768 17.0216 22.4979 17.2156 22.4274 17.413C22.3567 17.6104 22.2947 17.8105 22.2414 18.0132C22.1881 18.216 22.1435 18.4206 22.1076 18.6271C22.0717 18.8337 22.0449 19.0414 22.027 19.2503C22.009 19.4591 22 19.6684 22 19.878L22 28.122C22.0001 28.3126 21.984 28.5018 21.9516 28.6896C21.9191 28.8774 21.8707 29.0612 21.8066 29.2406C21.7426 29.42 21.6637 29.5928 21.5698 29.7586C21.4759 29.9246 21.3686 30.0812 21.2478 30.2286C21.127 30.376 20.9945 30.512 20.8502 30.6366C20.7061 30.7612 20.5523 30.8726 20.3888 30.9708C20.2253 31.0688 20.0547 31.1522 19.877 31.221C19.6992 31.2896 19.5169 31.3426 19.33 31.38L19.094 31.426C19.0072 31.4432 18.9197 31.4564 18.8316 31.4654C18.7436 31.4746 18.6553 31.4796 18.5668 31.4806C18.4782 31.4816 18.3899 31.4784 18.3016 31.4712C18.2134 31.464 18.1257 31.4528 18.0385 31.4374C17.9513 31.4222 17.865 31.403 17.7795 31.3796C17.6941 31.3562 17.61 31.329 17.5271 31.298C17.4442 31.267 17.3629 31.2322 17.2832 31.1936C17.2035 31.155 17.1258 31.1128 17.05 31.067C16.9742 31.0212 16.9007 30.9722 16.8294 30.9196C16.7582 30.867 16.6895 30.8114 16.6234 30.7524C16.5573 30.6934 16.4941 30.6316 16.4337 30.567C16.3733 30.5022 16.316 30.4348 16.2619 30.3648C16.2077 30.2948 16.1569 30.2224 16.1095 30.1476C16.062 30.073 16.0181 29.9962 15.9777 29.9174C15.9373 29.8386 15.9007 29.7582 15.8678 29.676C15.8348 29.5938 15.8057 29.5102 15.7805 29.4254C15.7553 29.3404 15.7341 29.2546 15.7168 29.1678C15.6995 29.081 15.6863 28.9936 15.6771 28.9054C15.6679 28.8174 15.6627 28.7292 15.6617 28.6406C15.6607 28.552 15.6637 28.4636 15.6708 28.3754C15.6779 28.2872 15.6891 28.1994 15.7044 28.1122C15.7196 28.025 15.7388 27.9388 15.762 27.8534C15.7852 27.768 15.8123 27.6838 15.8433 27.6008C15.8743 27.5178 15.9091 27.4366 15.9476 27.3568C15.9861 27.277 16.0282 27.1992 16.0739 27.1234C16.1196 27.0476 16.1686 26.9742 16.2211 26.9028C16.2736 26.8314 16.3293 26.7628 16.3881 26.6966C16.447 26.6304 16.5087 26.5672 16.5734 26.5068C16.6381 26.4462 16.7055 26.389 16.7755 26.3348C16.8454 26.2806 16.9178 26.2296 16.9925 26.1822C17.0672 26.1346 17.1439 26.0906 17.2226 26.0502C17.3014 26.0098 17.3819 25.973 17.464 25.94L17.672 25.856C17.7939 25.8072 17.9099 25.747 18.02 25.6754C18.1301 25.6038 18.2321 25.5222 18.3261 25.4304C18.4201 25.3386 18.5042 25.2386 18.5785 25.1302C18.6528 25.022 18.7158 24.9074 18.7675 24.7868C18.8192 24.666 18.8586 24.5414 18.8858 24.413C18.913 24.2844 18.9274 24.1546 18.929 24.0232C18.9306 23.8919 18.9193 23.7617 18.8953 23.6326C18.8712 23.5034 18.8348 23.3779 18.786 23.256C18.7372 23.1341 18.677 23.0181 18.6054 22.908C18.5337 22.7979 18.452 22.6959 18.3603 22.602C18.2686 22.508 18.1685 22.4239 18.0602 22.3496C17.9519 22.2753 17.8374 22.2123 17.7167 22.1606C17.596 22.1089 17.4714 22.0694 17.3429 22.0422C17.2144 22.015 17.0845 22.0006 16.9532 21.999C16.8219 21.9974 16.6917 22.0087 16.5626 22.0328C16.4335 22.0568 16.3079 22.0932 16.186 22.142L15.978 22.226C11.396 24.06 10.18 29.98 13.67 33.47C13.8693 33.6694 14.08 33.8556 14.3022 34.029C14.5244 34.2024 14.7563 34.3614 14.9981 34.5062C15.2398 34.651 15.4896 34.7804 15.7472 34.8946C16.0049 35.0088 16.2686 35.1066 16.5383 35.1882C16.808 35.27 17.0817 35.3348 17.3594 35.3828C17.6371 35.4308 17.9167 35.4616 18.1982 35.4752C18.4797 35.489 18.7609 35.4854 19.0419 35.4644C19.323 35.4434 19.6017 35.4052 19.878 35.35L20.114 35.302C20.3196 35.261 20.523 35.211 20.7242 35.1524C20.9255 35.0938 21.1239 35.0268 21.3194 34.9512C21.515 34.8754 21.7069 34.7916 21.8952 34.6996C22.0835 34.6074 22.2675 34.5074 22.4472 34.3994C22.6269 34.2916 22.8017 34.1762 22.9716 34.0532C23.1413 33.9302 23.3055 33.8002 23.4642 33.6632C23.6229 33.5262 23.7753 33.3828 23.9216 33.2326C24.068 33.0824 24.2076 32.9264 24.3404 32.7642C24.4734 32.602 24.599 32.4346 24.7176 32.2616C24.8362 32.0886 24.947 31.911 25.0502 31.7286C25.1536 31.5462 25.2488 31.3596 25.336 31.169C25.4232 30.9784 25.502 30.7844 25.5726 30.587C25.6432 30.3896 25.7052 30.1894 25.7586 29.9868C25.812 29.784 25.8566 29.5794 25.8924 29.3728C25.9282 29.1662 25.9552 28.9586 25.973 28.7498C25.991 28.5408 26 28.3316 26 28.122L26 19.88C25.9998 19.6894 26.016 19.5002 26.0484 19.3124C26.081 19.1246 26.1292 18.9409 26.1934 18.7614C26.2574 18.5819 26.3364 18.4092 26.4302 18.2433C26.524 18.0774 26.6314 17.9208 26.7522 17.7733C26.873 17.6259 27.0056 17.4899 27.1498 17.3653C27.294 17.2407 27.4478 17.1294 27.6112 17.0313C27.7746 16.9332 27.9452 16.8498 28.123 16.7811C28.3008 16.7123 28.483 16.6593 28.67 16.622L28.906 16.576C28.9928 16.5588 29.0802 16.5456 29.1684 16.5365C29.2564 16.5274 29.3446 16.5223 29.4332 16.5214C29.5218 16.5204 29.6102 16.5235 29.6984 16.5307C29.7866 16.538 29.8744 16.5492 29.9616 16.5645C30.0488 16.5798 30.135 16.5991 30.2204 16.6224C30.3058 16.6457 30.39 16.6729 30.473 16.7039C30.5558 16.735 30.637 16.7698 30.7168 16.8084C30.7966 16.847 30.8742 16.8891 30.95 16.9349C31.0258 16.9807 31.0992 17.0298 31.1706 17.0824C31.2418 17.1349 31.3104 17.1907 31.3766 17.2496C31.4428 17.3085 31.506 17.3703 31.5662 17.435C31.6266 17.4998 31.6838 17.5672 31.738 17.6372C31.7922 17.7072 31.8432 17.7796 31.8906 17.8544C31.938 17.9291 31.982 18.0059 32.0222 18.0846C32.0626 18.1634 32.0992 18.2439 32.1322 18.3261C32.1652 18.4083 32.1942 18.4918 32.2194 18.5767C32.2446 18.6615 32.2658 18.7474 32.2832 18.8342C32.3006 18.921 32.3138 19.0085 32.323 19.0965C32.3322 19.1846 32.3372 19.2729 32.3382 19.3614C32.3392 19.4499 32.3362 19.5383 32.3292 19.6265C32.322 19.7148 32.3108 19.8025 32.2956 19.8897C32.2804 19.977 32.2612 20.0633 32.238 20.1486C32.2148 20.2341 32.1876 20.3183 32.1566 20.4012C32.1256 20.4841 32.091 20.5655 32.0524 20.6452C32.0138 20.7249 31.9718 20.8027 31.9262 20.8786C31.8804 20.9543 31.8314 21.0279 31.7788 21.0992C31.7264 21.1705 31.6708 21.2393 31.6118 21.3054C31.553 21.3715 31.4912 21.4348 31.4266 21.4952C31.362 21.5557 31.2946 21.6131 31.2246 21.6672C31.1546 21.7215 31.0822 21.7723 31.0076 21.8198C30.9328 21.8674 30.856 21.9114 30.7774 21.9518C30.6986 21.9922 30.6182 22.0289 30.536 22.062L30.328 22.146C30.206 22.1948 30.09 22.255 29.98 22.3266C29.8698 22.3982 29.7678 22.4799 29.674 22.5716C29.58 22.6633 29.4958 22.7634 29.4216 22.8718C29.3474 22.9801 29.2844 23.0945 29.2326 23.2152C29.1808 23.336 29.1414 23.4606 29.1142 23.589C29.087 23.7175 29.0726 23.8475 29.071 23.9788C29.0694 24.1102 29.0806 24.2404 29.1048 24.3694C29.1288 24.4984 29.1652 24.624 29.214 24.746C29.2628 24.8678 29.323 24.9838 29.3946 25.094C29.4662 25.2042 29.5478 25.3062 29.6396 25.4C29.7314 25.494 29.8314 25.5782 29.9398 25.6524C30.048 25.7266 30.1626 25.7896 30.2832 25.8414C30.404 25.8932 30.5286 25.9326 30.657 25.9598C30.7856 25.987 30.9154 26.0014 31.0468 26.003C31.1782 26.0046 31.3084 25.9934 31.4374 25.9692C31.5664 25.9452 31.692 25.9088 31.814 25.86L32.022 25.776C36.604 23.942 37.82 18.022 34.33 14.532L34.33 14.53Z"></path></g></g></svg>