<svg xmlns="http://www.w3.org/2000/svg" xmlns:xlink="http://www.w3.org/1999/xlink" width="88" height="88" viewBox="0 0 88 88" fill="none"><g opacity="1"  transform="translate(0 0)"><path id="减去顶层" fill-rule="evenodd" fill="url(#linear_0)" opacity="1" d="M56.932 25.7646L62.2361 31.0687C62.2882 31.1207 62.3389 31.1741 62.3884 31.2286C62.4378 31.2832 62.4859 31.3389 62.5326 31.3959C62.5793 31.4528 62.6246 31.5108 62.6684 31.57C62.7123 31.6291 62.7547 31.6893 62.7956 31.7505C62.8365 31.8118 62.8759 31.874 62.9137 31.9371C62.9515 32.0003 62.9878 32.0644 63.0225 32.1293C63.0573 32.1942 63.0903 32.26 63.1218 32.3266C63.1533 32.3931 63.1831 32.4604 63.2113 32.5285C63.2395 32.5965 63.2659 32.6652 63.2907 32.7345C63.3155 32.8038 63.3386 32.8737 63.36 32.9442C63.3813 33.0147 63.401 33.0856 63.4189 33.157C63.4368 33.2284 63.4529 33.3003 63.4673 33.3725C63.4816 33.4447 63.4942 33.5173 63.505 33.5901C63.5158 33.6629 63.5248 33.7359 63.5321 33.8093C63.5392 33.8825 63.5447 33.9559 63.5483 34.0295C63.5519 34.103 63.5537 34.1766 63.5537 34.2503C63.5537 34.3239 63.5519 34.3975 63.5483 34.471C63.5447 34.5446 63.5392 34.618 63.5321 34.6912C63.5248 34.7645 63.5158 34.8376 63.505 34.9104C63.4942 34.9832 63.4816 35.0558 63.4673 35.128C63.4529 35.2002 63.4368 35.2721 63.4189 35.3435C63.401 35.4149 63.3813 35.4858 63.36 35.5563C63.3386 35.6268 63.3155 35.6967 63.2907 35.766C63.2659 35.8353 63.2395 35.904 63.2113 35.972C63.1831 36.0401 63.1533 36.1074 63.1218 36.1739C63.0903 36.2405 63.0573 36.3062 63.0225 36.3712C62.9878 36.4361 62.9515 36.5002 62.9137 36.5634C62.8759 36.6265 62.8365 36.6887 62.7956 36.7499C62.7547 36.8111 62.7123 36.8713 62.6685 36.9305C62.6246 36.9896 62.5793 37.0477 62.5326 37.1046C62.4859 37.1615 62.4378 37.2173 62.3884 37.2718C62.3389 37.3264 62.2882 37.3797 62.2361 37.4318L56.932 42.7359C56.8799 42.788 56.8266 42.8387 56.7721 42.8882C56.7175 42.9376 56.6618 42.9857 56.6048 43.0324C56.5479 43.0791 56.4898 43.1243 56.4307 43.1682C56.3716 43.2121 56.3114 43.2545 56.2502 43.2954C56.1889 43.3362 56.1267 43.3756 56.0636 43.4135C56.0004 43.4513 55.9363 43.4876 55.8714 43.5223C55.8065 43.557 55.7407 43.5901 55.6742 43.6216C55.6076 43.6531 55.5403 43.6829 55.4723 43.711C55.4042 43.7392 55.3355 43.7657 55.2662 43.7905C55.1969 43.8153 55.127 43.8384 55.0565 43.8597C54.9861 43.8811 54.9151 43.9007 54.8437 43.9187C54.7723 43.9366 54.7005 43.9527 54.6282 43.967C54.556 43.9814 54.4835 43.994 54.4106 44.0048C54.3378 44.0156 54.2647 44.0246 54.1915 44.0318C54.1182 44.039 54.0448 44.0444 53.9713 44.048C53.8977 44.0516 53.8241 44.0535 53.7505 44.0535C53.6768 44.0535 53.6032 44.0516 53.5297 44.048C53.4561 44.0444 53.3827 44.039 53.3095 44.0318C53.2362 44.0246 53.1631 44.0156 53.0903 44.0048C53.0175 43.994 52.945 43.9814 52.8727 43.967C52.8005 43.9527 52.7287 43.9366 52.6572 43.9187C52.5858 43.9007 52.5149 43.8811 52.4444 43.8597C52.374 43.8384 52.3041 43.8153 52.2347 43.7905C52.1654 43.7657 52.0967 43.7392 52.0287 43.711C51.9607 43.6829 51.8933 43.6531 51.8268 43.6216C51.7602 43.5901 51.6944 43.557 51.6295 43.5223C51.5646 43.4876 51.5005 43.4513 51.4374 43.4135C51.3742 43.3756 51.312 43.3363 51.2508 43.2954Q51.1589 43.234 51.0702 43.1683C51.0111 43.1244 50.9531 43.0791 50.8961 43.0324C50.8391 42.9857 50.7834 42.9376 50.7288 42.8882C50.6743 42.8387 50.621 42.788 50.5689 42.7359L45.2648 37.4318C45.2127 37.3797 45.162 37.3264 45.1126 37.2718C45.0631 37.2173 45.015 37.1615 44.9683 37.1046C44.9216 37.0477 44.8764 36.9896 44.8325 36.9305C44.7886 36.8713 44.7463 36.8111 44.7053 36.7499C44.6645 36.6887 44.6251 36.6265 44.5872 36.5634C44.5494 36.5002 44.5131 36.4361 44.4784 36.3712C44.4437 36.3062 44.4106 36.2405 44.3791 36.1739C44.3477 36.1074 44.3178 36.0401 44.2896 35.972C44.2615 35.904 44.235 35.8353 44.2102 35.766C44.1854 35.6967 44.1623 35.6268 44.141 35.5563C44.1196 35.4858 44.0999 35.4149 44.082 35.3435C44.0642 35.2721 44.048 35.2002 44.0337 35.128C44.0193 35.0558 44.0067 34.9832 43.9959 34.9104C43.9851 34.8376 43.9761 34.7645 43.9689 34.6912C43.9617 34.618 43.9563 34.5446 43.9527 34.471C43.9491 34.3975 43.9473 34.3239 43.9473 34.2503Q43.9473 34.1398 43.9527 34.0295C43.9563 33.9559 43.9617 33.8825 43.9689 33.8093C43.9761 33.7359 43.9851 33.6629 43.9959 33.5901C44.0067 33.5173 44.0193 33.4447 44.0337 33.3725C44.048 33.3003 44.0642 33.2284 44.082 33.157C44.0999 33.0856 44.1196 33.0147 44.141 32.9442C44.1623 32.8737 44.1854 32.8038 44.2102 32.7345C44.235 32.6652 44.2615 32.5965 44.2896 32.5285C44.3178 32.4604 44.3477 32.3931 44.3791 32.3266C44.4106 32.26 44.4437 32.1942 44.4784 32.1293C44.5131 32.0644 44.5494 32.0003 44.5872 31.9371Q44.644 31.8424 44.7053 31.7505C44.7463 31.6893 44.7886 31.6291 44.8325 31.57C44.8764 31.5108 44.9216 31.4528 44.9683 31.3959C45.015 31.3389 45.0631 31.2832 45.1126 31.2286C45.162 31.1741 45.2127 31.1207 45.2648 31.0687L50.5689 25.7646C50.621 25.7125 50.6743 25.6618 50.7288 25.6123C50.7834 25.5629 50.8391 25.5148 50.8961 25.4681C50.9531 25.4214 51.0111 25.3761 51.0702 25.3323C51.1294 25.2884 51.1895 25.246 51.2508 25.2051C51.312 25.1642 51.3742 25.1249 51.4374 25.087C51.5005 25.0492 51.5646 25.0129 51.6295 24.9782C51.6944 24.9435 51.7602 24.9104 51.8268 24.8789C51.8933 24.8474 51.9607 24.8176 52.0287 24.7894C52.0967 24.7613 52.1654 24.7348 52.2347 24.71C52.3041 24.6852 52.374 24.6621 52.4444 24.6407C52.5149 24.6193 52.5858 24.5997 52.6572 24.5818C52.7287 24.5639 52.8005 24.5478 52.8727 24.5335C52.945 24.5191 53.0175 24.5065 53.0903 24.4957C53.1631 24.4849 53.2362 24.4759 53.3095 24.4687C53.3827 24.4615 53.4561 24.4561 53.5297 24.4524Q53.64 24.447 53.7505 24.447C53.8241 24.447 53.8977 24.4488 53.9713 24.4524C54.0448 24.4561 54.1182 24.4615 54.1915 24.4687C54.2647 24.4759 54.3378 24.4849 54.4106 24.4957C54.4835 24.5065 54.556 24.5191 54.6282 24.5335C54.7005 24.5478 54.7723 24.5639 54.8437 24.5818C54.9151 24.5997 54.9861 24.6193 55.0565 24.6407C55.127 24.6621 55.1969 24.6852 55.2662 24.71C55.3355 24.7348 55.4042 24.7613 55.4723 24.7894C55.5403 24.8176 55.6076 24.8474 55.6742 24.8789C55.7407 24.9104 55.8065 24.9435 55.8714 24.9782C55.9363 25.0129 56.0004 25.0492 56.0636 25.087Q56.1583 25.1438 56.2502 25.2051C56.3114 25.246 56.3716 25.2884 56.4307 25.3323C56.4898 25.3761 56.5479 25.4214 56.6048 25.4681C56.6618 25.5148 56.7175 25.5629 56.7721 25.6123C56.8266 25.6618 56.8799 25.7125 56.932 25.7646ZM54.3757 36.5001L56.0002 36.5001C56.0125 36.5001 56.0248 36.5004 56.037 36.501C56.0493 36.5016 56.0615 36.5026 56.0737 36.5038C56.086 36.505 56.0982 36.5065 56.1103 36.5083C56.1224 36.5101 56.1345 36.5121 56.1465 36.5145C56.1586 36.5169 56.1706 36.5196 56.1825 36.5226C56.1944 36.5256 56.2062 36.5289 56.2179 36.5324C56.2297 36.536 56.2413 36.5398 56.2529 36.544C56.2645 36.5481 56.2759 36.5526 56.2873 36.5572C56.2986 36.5619 56.3098 36.5669 56.3209 36.5721C56.332 36.5774 56.3429 36.5829 56.3538 36.5887C56.3646 36.5945 56.3753 36.6005 56.3858 36.6068C56.3963 36.6132 56.4067 36.6197 56.4169 36.6265Q56.4322 36.6368 56.447 36.6478C56.4569 36.6551 56.4666 36.6626 56.476 36.6704C56.4855 36.6782 56.4948 36.6862 56.5039 36.6945C56.513 36.7027 56.5219 36.7111 56.5306 36.7198C56.5393 36.7285 56.5477 36.7374 56.556 36.7465C56.5642 36.7556 56.5722 36.7649 56.58 36.7744C56.5878 36.7838 56.5953 36.7935 56.6026 36.8034C56.61 36.8132 56.617 36.8233 56.6238 36.8335C56.6307 36.8437 56.6372 36.854 56.6436 36.8646C56.6499 36.8751 56.6559 36.8858 56.6617 36.8966C56.6675 36.9075 56.673 36.9184 56.6783 36.9295C56.6835 36.9406 56.6885 36.9518 56.6932 36.9632C56.6979 36.9745 56.7023 36.9859 56.7064 36.9975C56.7106 37.0091 56.7144 37.0207 56.718 37.0324C56.7215 37.0442 56.7248 37.056 56.7278 37.0679C56.7308 37.0798 56.7335 37.0918 56.7359 37.1039C56.7383 37.1159 56.7403 37.128 56.7421 37.1401Q56.7448 37.1583 56.7467 37.1767C56.7478 37.1889 56.7488 37.2011 56.7494 37.2134C56.75 37.2256 56.7503 37.2379 56.7503 37.2502C56.7503 37.2625 56.75 37.2747 56.7494 37.287C56.7488 37.2992 56.7478 37.3114 56.7467 37.3237Q56.7448 37.342 56.7421 37.3602C56.7403 37.3724 56.7383 37.3844 56.7359 37.3965C56.7335 37.4085 56.7308 37.4205 56.7278 37.4324C56.7248 37.4443 56.7215 37.4562 56.718 37.4679C56.7144 37.4796 56.7106 37.4913 56.7064 37.5028C56.7023 37.5144 56.6979 37.5259 56.6932 37.5372C56.6885 37.5485 56.6835 37.5598 56.6783 37.5709C56.673 37.582 56.6675 37.5929 56.6617 37.6037C56.6559 37.6146 56.6499 37.6252 56.6436 37.6358C56.6372 37.6463 56.6307 37.6566 56.6238 37.6669C56.617 37.6771 56.61 37.6871 56.6026 37.697C56.5953 37.7069 56.5878 37.7165 56.58 37.726C56.5722 37.7355 56.5642 37.7448 56.556 37.7539C56.5477 37.763 56.5393 37.7719 56.5306 37.7805C56.5219 37.7892 56.513 37.7977 56.5039 37.8059C56.4948 37.8142 56.4855 37.8222 56.476 37.83C56.4666 37.8377 56.4569 37.8453 56.447 37.8526C56.4372 37.8599 56.4271 37.867 56.4169 37.8738C56.4067 37.8806 56.3963 37.8872 56.3858 37.8935C56.3753 37.8998 56.3646 37.9059 56.3538 37.9117C56.3429 37.9174 56.332 37.923 56.3209 37.9282C56.3098 37.9335 56.2986 37.9384 56.2873 37.9431C56.2759 37.9478 56.2645 37.9522 56.2529 37.9564C56.2413 37.9605 56.2297 37.9643 56.218 37.9679C56.2062 37.9715 56.1944 37.9748 56.1825 37.9777C56.1706 37.9807 56.1586 37.9834 56.1465 37.9858C56.1345 37.9882 56.1224 37.9903 56.1103 37.9921C56.0982 37.9939 56.086 37.9954 56.0737 37.9966C56.0615 37.9978 56.0493 37.9987 56.037 37.9993C56.0248 37.9999 56.0125 38.0002 56.0002 38.0002L54.3757 38.0002L54.3757 38.8747C54.3757 38.885 54.3755 38.8952 54.375 38.9055C54.3745 38.9157 54.3737 38.9259 54.3727 38.9362C54.3718 38.9463 54.3705 38.9565 54.369 38.9667C54.3675 38.9768 54.3658 38.9869 54.3638 38.997C54.3619 39.007 54.3596 39.017 54.3571 39.027C54.3547 39.0369 54.352 39.0468 54.349 39.0566C54.3461 39.0664 54.3429 39.0761 54.3394 39.0858C54.336 39.0954 54.3323 39.105 54.3284 39.1145C54.3245 39.124 54.3204 39.1334 54.316 39.1426C54.3116 39.1519 54.307 39.1611 54.3022 39.1701C54.2974 39.1792 54.2923 39.1881 54.2871 39.1969C54.2818 39.2057 54.2763 39.2143 54.2707 39.2229C54.265 39.2314 54.2591 39.2398 54.253 39.248C54.2469 39.2562 54.2406 39.2643 54.2341 39.2723C54.2276 39.2802 54.2209 39.288 54.2141 39.2956C54.2072 39.3032 54.2001 39.3106 54.1929 39.3178C54.1856 39.3251 54.1782 39.3322 54.1706 39.3391C54.1631 39.346 54.1553 39.3527 54.1474 39.3592C54.1395 39.3657 54.1314 39.372 54.1232 39.3781C54.1149 39.3842 54.1066 39.3901 54.0981 39.3958C54.0895 39.4015 54.0809 39.407 54.0721 39.4123C54.0633 39.4176 54.0544 39.4226 54.0453 39.4275C54.0363 39.4323 54.0271 39.4369 54.0179 39.4413C54.0086 39.4457 53.9993 39.4498 53.9898 39.4538C53.9803 39.4577 53.9708 39.4614 53.9611 39.4648C53.9515 39.4683 53.9417 39.4715 53.9319 39.4745C53.9221 39.4774 53.9122 39.4802 53.9023 39.4827C53.8924 39.4852 53.8824 39.4874 53.8723 39.4894C53.8623 39.4915 53.8522 39.4932 53.842 39.4947C53.8319 39.4962 53.8217 39.4975 53.8115 39.4985C53.8013 39.4995 53.7911 39.5002 53.7809 39.5007C53.7706 39.5013 53.7604 39.5015 53.7501 39.5015C53.7399 39.5015 53.7296 39.5013 53.7194 39.5007C53.7092 39.5002 53.6989 39.4995 53.6887 39.4985C53.6785 39.4975 53.6684 39.4962 53.6582 39.4947C53.6481 39.4932 53.638 39.4915 53.6279 39.4894C53.6179 39.4874 53.6079 39.4852 53.598 39.4827C53.588 39.4802 53.5782 39.4774 53.5683 39.4745C53.5585 39.4715 53.5488 39.4683 53.5391 39.4648C53.5295 39.4614 53.5199 39.4577 53.5104 39.4538C53.501 39.4498 53.4916 39.4457 53.4824 39.4413C53.4731 39.4369 53.464 39.4323 53.4549 39.4275C53.4459 39.4226 53.437 39.4176 53.4282 39.4123C53.4194 39.407 53.4107 39.4015 53.4022 39.3958C53.3937 39.3901 53.3853 39.3842 53.3771 39.3781C53.3689 39.372 53.3608 39.3657 53.3529 39.3592C53.345 39.3527 53.3372 39.346 53.3296 39.3391C53.322 39.3322 53.3146 39.3251 53.3074 39.3178C53.3001 39.3106 53.2931 39.3032 53.2862 39.2956C53.2794 39.288 53.2727 39.2802 53.2662 39.2723C53.2597 39.2643 53.2534 39.2562 53.2473 39.248C53.2412 39.2398 53.2353 39.2314 53.2296 39.2229C53.2239 39.2143 53.2185 39.2057 53.2132 39.1969C53.208 39.1881 53.2029 39.1792 53.1981 39.1701C53.1932 39.1611 53.1887 39.1519 53.1843 39.1426C53.1799 39.1334 53.1758 39.124 53.1719 39.1145C53.1679 39.105 53.1643 39.0954 53.1608 39.0858C53.1574 39.0761 53.1542 39.0664 53.1512 39.0566C53.1483 39.0468 53.1456 39.0369 53.1431 39.027C53.1406 39.017 53.1384 39.007 53.1364 38.997C53.1344 38.9869 53.1327 38.9768 53.1312 38.9667C53.1297 38.9565 53.1285 38.9463 53.1275 38.9362C53.1265 38.9259 53.1258 38.9157 53.1253 38.9055C53.1248 38.8952 53.1246 38.885 53.1246 38.8747L53.1246 38.0002L51.5 38.0002C51.4878 38.0002 51.4755 37.9999 51.4632 37.9993C51.451 37.9987 51.4387 37.9978 51.4265 37.9966C51.4143 37.9954 51.4021 37.9939 51.39 37.9921C51.3778 37.9903 51.3658 37.9882 51.3537 37.9858C51.3417 37.9834 51.3297 37.9807 51.3178 37.9778C51.3059 37.9748 51.294 37.9715 51.2823 37.9679C51.2706 37.9643 51.2589 37.9605 51.2474 37.9564C51.2358 37.9522 51.2243 37.9478 51.213 37.9431C51.2017 37.9384 51.1904 37.9335 51.1793 37.9282C51.1683 37.923 51.1573 37.9174 51.1465 37.9117C51.1356 37.9059 51.125 37.8998 51.1144 37.8935C51.1039 37.8872 51.0935 37.8806 51.0833 37.8738C51.0731 37.867 51.0631 37.8599 51.0532 37.8526C51.0434 37.8453 51.0337 37.8377 51.0242 37.83C51.0147 37.8222 51.0054 37.8142 50.9963 37.8059C50.9872 37.7977 50.9784 37.7892 50.9697 37.7805C50.961 37.7719 50.9526 37.763 50.9443 37.7539C50.9361 37.7448 50.928 37.7355 50.9203 37.726C50.9125 37.7165 50.9049 37.7069 50.8976 37.697C50.8903 37.6871 50.8832 37.6771 50.8764 37.6669C50.8696 37.6566 50.863 37.6463 50.8567 37.6358C50.8504 37.6252 50.8443 37.6146 50.8386 37.6037C50.8328 37.5929 50.8273 37.582 50.822 37.5709C50.8167 37.5598 50.8118 37.5485 50.8071 37.5372C50.8024 37.5259 50.798 37.5144 50.7938 37.5028C50.7897 37.4913 50.7859 37.4796 50.7823 37.4679C50.7787 37.4562 50.7755 37.4443 50.7725 37.4324C50.7695 37.4205 50.7668 37.4085 50.7644 37.3965C50.762 37.3844 50.7599 37.3724 50.7581 37.3602C50.7563 37.3481 50.7548 37.3359 50.7536 37.3237C50.7524 37.3114 50.7515 37.2992 50.7509 37.287C50.7503 37.2747 50.75 37.2625 50.75 37.2502C50.75 37.2379 50.7503 37.2256 50.7509 37.2134C50.7515 37.2011 50.7524 37.1889 50.7536 37.1767C50.7548 37.1644 50.7563 37.1523 50.7581 37.1401C50.7599 37.128 50.762 37.1159 50.7644 37.1039C50.7668 37.0918 50.7695 37.0798 50.7725 37.0679C50.7755 37.056 50.7787 37.0442 50.7823 37.0324C50.7859 37.0207 50.7897 37.0091 50.7938 36.9975C50.798 36.9859 50.8024 36.9745 50.8071 36.9632C50.8118 36.9518 50.8167 36.9406 50.822 36.9295C50.8273 36.9184 50.8328 36.9075 50.8386 36.8966C50.8443 36.8858 50.8504 36.8751 50.8567 36.8646C50.863 36.854 50.8696 36.8437 50.8764 36.8335C50.8832 36.8233 50.8903 36.8132 50.8976 36.8034C50.9049 36.7935 50.9125 36.7838 50.9203 36.7744C50.928 36.7649 50.9361 36.7556 50.9443 36.7465C50.9526 36.7374 50.961 36.7285 50.9697 36.7198C50.9784 36.7111 50.9872 36.7027 50.9963 36.6945C51.0054 36.6862 51.0147 36.6782 51.0242 36.6704C51.0337 36.6626 51.0434 36.6551 51.0532 36.6478Q51.068 36.6368 51.0833 36.6265C51.0935 36.6197 51.1039 36.6132 51.1144 36.6068C51.125 36.6005 51.1356 36.5945 51.1465 36.5887C51.1573 36.5829 51.1683 36.5774 51.1793 36.5721C51.1904 36.5669 51.2017 36.5619 51.213 36.5572C51.2243 36.5526 51.2358 36.5481 51.2474 36.544C51.2589 36.5398 51.2706 36.536 51.2823 36.5324C51.294 36.5289 51.3059 36.5256 51.3178 36.5226C51.3297 36.5196 51.3417 36.5169 51.3537 36.5145C51.3658 36.5121 51.3778 36.5101 51.39 36.5083C51.4021 36.5065 51.4143 36.505 51.4265 36.5038C51.4387 36.5026 51.451 36.5016 51.4632 36.501C51.4755 36.5004 51.4878 36.5001 51.5 36.5001L53.1246 36.5001L53.1246 35.7501L50.75 35.7501C50.7377 35.7501 50.7254 35.7498 50.7132 35.7492C50.701 35.7486 50.6887 35.7477 50.6765 35.7465C50.6643 35.7453 50.6521 35.7438 50.6399 35.742C50.6278 35.7402 50.6157 35.7381 50.6037 35.7357C50.5916 35.7333 50.5796 35.7306 50.5677 35.7277C50.5558 35.7247 50.544 35.7214 50.5323 35.7178C50.5205 35.7142 50.5089 35.7104 50.4973 35.7063C50.4858 35.7021 50.4743 35.6977 50.463 35.693C50.4516 35.6883 50.4404 35.6834 50.4293 35.6781C50.4182 35.6729 50.4073 35.6673 50.3965 35.6616C50.3856 35.6558 50.3749 35.6497 50.3644 35.6434C50.3539 35.6371 50.3435 35.6305 50.3333 35.6237C50.3231 35.6169 50.3131 35.6098 50.3032 35.6025C50.2933 35.5952 50.2837 35.5876 50.2742 35.5799C50.2647 35.5721 50.2554 35.5641 50.2463 35.5558C50.2372 35.5476 50.2283 35.5391 50.2196 35.5304C50.211 35.5218 50.2025 35.5129 50.1943 35.5038C50.186 35.4947 50.178 35.4854 50.1702 35.4759C50.1624 35.4664 50.1549 35.4568 50.1476 35.4469C50.1403 35.437 50.1332 35.427 50.1263 35.4168C50.1195 35.4065 50.113 35.3962 50.1067 35.3857C50.1003 35.3752 50.0943 35.3645 50.0885 35.3536C50.0827 35.3428 50.0772 35.3319 50.072 35.3208C50.0667 35.3097 50.0617 35.2985 50.0571 35.2871C50.0524 35.2758 50.048 35.2643 50.0438 35.2527C50.0397 35.2412 50.0358 35.2295 50.0323 35.2178C50.0287 35.2061 50.0254 35.1942 50.0224 35.1823C50.0195 35.1704 50.0168 35.1584 50.0144 35.1464C50.012 35.1343 50.0099 35.1223 50.0081 35.1101C50.0063 35.098 50.0048 35.0858 50.0036 35.0736Q50.0018 35.0553 50.0009 35.0369C50.0003 35.0246 50 35.0124 50 35.0001C50 34.9878 50.0003 34.9755 50.0009 34.9633C50.0015 34.951 50.0024 34.9388 50.0036 34.9266C50.0048 34.9144 50.0063 34.9022 50.0081 34.89C50.0099 34.8779 50.012 34.8658 50.0144 34.8538C50.0168 34.8417 50.0195 34.8297 50.0224 34.8178C50.0254 34.8059 50.0287 34.7941 50.0323 34.7823C50.0358 34.7706 50.0397 34.759 50.0438 34.7474C50.048 34.7358 50.0524 34.7244 50.0571 34.7131C50.0617 34.7017 50.0667 34.6905 50.072 34.6794C50.0772 34.6683 50.0827 34.6573 50.0885 34.6465C50.0943 34.6357 50.1003 34.625 50.1067 34.6145C50.113 34.6039 50.1195 34.5936 50.1263 34.5834Q50.1366 34.5681 50.1476 34.5533C50.1549 34.5434 50.1624 34.5337 50.1702 34.5243C50.178 34.5148 50.186 34.5055 50.1943 34.4964C50.2025 34.4873 50.211 34.4784 50.2196 34.4697C50.2283 34.4611 50.2372 34.4526 50.2463 34.4444C50.2554 34.4361 50.2647 34.4281 50.2742 34.4203C50.2837 34.4125 50.2933 34.405 50.3032 34.3977C50.3131 34.3904 50.3231 34.3833 50.3333 34.3764C50.3435 34.3696 50.3539 34.3631 50.3644 34.3567C50.3749 34.3504 50.3856 34.3444 50.3965 34.3386C50.4073 34.3328 50.4182 34.3273 50.4293 34.3221C50.4404 34.3168 50.4516 34.3118 50.463 34.3071C50.4743 34.3025 50.4858 34.298 50.4973 34.2939C50.5089 34.2897 50.5205 34.2859 50.5323 34.2823C50.544 34.2788 50.5558 34.2755 50.5677 34.2725C50.5796 34.2695 50.5916 34.2668 50.6037 34.2644C50.6157 34.2621 50.6278 34.26 50.6399 34.2582C50.6521 34.2564 50.6643 34.2549 50.6765 34.2537C50.6887 34.2525 50.701 34.2516 50.7132 34.2509C50.7254 34.2503 50.7377 34.25 50.75 34.25L52.4391 34.25L50.219 32.0299C50.2103 32.0213 50.2019 32.0124 50.1937 32.0032C50.1854 31.9941 50.1774 31.9848 50.1697 31.9753C50.1619 31.9658 50.1543 31.9562 50.1471 31.9463C50.1398 31.9364 50.1327 31.9264 50.1259 31.9161C50.1191 31.9059 50.1126 31.8955 50.1063 31.885C50.1 31.8745 50.094 31.8638 50.0882 31.8529C50.0824 31.8421 50.077 31.8312 50.0717 31.8201C50.0665 31.809 50.0615 31.7977 50.0569 31.7864C50.0522 31.775 50.0478 31.7636 50.0437 31.752C50.0395 31.7405 50.0357 31.7288 50.0322 31.717C50.0286 31.7053 50.0254 31.6935 50.0224 31.6816C50.0195 31.6697 50.0168 31.6577 50.0144 31.6457C50.012 31.6336 50.01 31.6215 50.0082 31.6094C50.0064 31.5972 50.0049 31.5851 50.0037 31.5729C50.0025 31.5606 50.0016 31.5484 50.001 31.5361C50.0005 31.5239 50.0002 31.5116 50.0002 31.4993C50.0002 31.4871 50.0005 31.4748 50.0011 31.4625C50.0018 31.4503 50.0027 31.4381 50.0039 31.4258C50.0051 31.4136 50.0066 31.4015 50.0085 31.3893C50.0103 31.3772 50.0124 31.3651 50.0148 31.353C50.0172 31.341 50.0199 31.329 50.0229 31.3171C50.0259 31.3053 50.0292 31.2934 50.0327 31.2817C50.0363 31.2699 50.0402 31.2583 50.0443 31.2468C50.0485 31.2352 50.0529 31.2238 50.0576 31.2124C50.0623 31.2011 50.0673 31.1899 50.0725 31.1788C50.0778 31.1677 50.0833 31.1568 50.0891 31.1459C50.0949 31.1351 50.101 31.1245 50.1073 31.1139C50.1136 31.1034 50.1202 31.093 50.127 31.0828C50.1338 31.0727 50.1409 31.0626 50.1482 31.0528C50.1555 31.0429 50.1631 31.0332 50.1709 31.0238C50.1787 31.0143 50.1867 31.005 50.195 30.9959C50.2032 30.9868 50.2117 30.978 50.2204 30.9693C50.229 30.9606 50.2379 30.9522 50.2471 30.9439C50.2561 30.9357 50.2654 30.9277 50.2749 30.9199C50.2844 30.9121 50.2941 30.9046 50.304 30.8973C50.3138 30.89 50.3238 30.8829 50.3341 30.8761C50.3443 30.8693 50.3547 30.8627 50.3652 30.8564Q50.381 30.847 50.3972 30.8383C50.408 30.8325 50.419 30.827 50.4301 30.8218C50.4412 30.8165 50.4524 30.8116 50.4637 30.8069C50.4751 30.8022 50.4865 30.7978 50.4981 30.7937C50.5096 30.7895 50.5213 30.7857 50.5331 30.7821C50.5448 30.7786 50.5566 30.7753 50.5685 30.7723C50.5804 30.7693 50.5924 30.7666 50.6044 30.7642C50.6165 30.7618 50.6286 30.7598 50.6407 30.7579C50.6528 30.7562 50.665 30.7547 50.6772 30.7535C50.6894 30.7523 50.7017 30.7514 50.7139 30.7508C50.7262 30.7502 50.7385 30.7499 50.7507 30.7499C50.763 30.7499 50.7753 30.7502 50.7875 30.7508C50.7998 30.7514 50.812 30.7523 50.8242 30.7535C50.8364 30.7547 50.8486 30.7562 50.8608 30.758C50.8729 30.7598 50.885 30.7619 50.897 30.7643C50.909 30.7667 50.921 30.7694 50.9329 30.7723C50.9448 30.7753 50.9566 30.7786 50.9684 30.7821C50.9802 30.7857 50.9918 30.7896 51.0034 30.7937C51.0149 30.7978 51.0263 30.8022 51.0377 30.8069C51.049 30.8116 51.0602 30.8166 51.0713 30.8218C51.0824 30.8271 51.0934 30.8326 51.1042 30.8384C51.115 30.8442 51.1257 30.8502 51.1363 30.8565C51.1468 30.8628 51.1572 30.8694 51.1673 30.8762C51.1776 30.883 51.1876 30.8901 51.1974 30.8974C51.2073 30.9047 51.217 30.9122 51.2265 30.92C51.236 30.9278 51.2453 30.9358 51.2543 30.944C51.2634 30.9523 51.2723 30.9607 51.281 30.9694L53.7501 33.44L56.2192 30.9694C56.2279 30.9607 56.2368 30.9522 56.2459 30.944C56.255 30.9357 56.2643 30.9277 56.2738 30.9199C56.2833 30.9121 56.2929 30.9046 56.3028 30.8972C56.3127 30.8899 56.3227 30.8828 56.3329 30.876C56.3431 30.8692 56.3534 30.8626 56.364 30.8563C56.3745 30.8499 56.3852 30.8439 56.396 30.8381C56.4068 30.8323 56.4178 30.8268 56.4289 30.8215C56.44 30.8163 56.4512 30.8113 56.4626 30.8066C56.4739 30.8018 56.4854 30.7974 56.4969 30.7933C56.5085 30.7891 56.5201 30.7853 56.5319 30.7817C56.5437 30.7781 56.5555 30.7748 56.5674 30.7719C56.5793 30.7689 56.5913 30.7662 56.6033 30.7638C56.6154 30.7613 56.6275 30.7592 56.6396 30.7574C56.6518 30.7556 56.664 30.7541 56.6762 30.7529C56.6884 30.7517 56.7007 30.7508 56.7129 30.7502Q56.7313 30.7492 56.7497 30.7492C56.762 30.7492 56.7743 30.7495 56.7865 30.7501C56.7988 30.7507 56.8111 30.7516 56.8233 30.7528C56.8355 30.754 56.8477 30.7555 56.8599 30.7573Q56.8781 30.76 56.8961 30.7635C56.9082 30.7659 56.9201 30.7686 56.9321 30.7716C56.944 30.7746 56.9558 30.7778 56.9676 30.7814C56.9793 30.7849 56.991 30.7888 57.0026 30.7929C57.0142 30.797 57.0256 30.8014 57.037 30.8061C57.0483 30.8108 57.0595 30.8158 57.0706 30.821C57.0817 30.8263 57.0927 30.8318 57.1036 30.8376C57.1144 30.8434 57.125 30.8494 57.1356 30.8557C57.1461 30.862 57.1565 30.8686 57.1668 30.8754C57.177 30.8822 57.187 30.8893 57.1969 30.8966C57.2067 30.9039 57.2164 30.9115 57.2259 30.9192C57.2354 30.927 57.2447 30.935 57.2539 30.9433C57.263 30.9515 57.2719 30.96 57.2805 30.9687C57.2892 30.9773 57.2977 30.9862 57.3059 30.9953C57.3142 31.0044 57.3222 31.0137 57.33 31.0232C57.3378 31.0327 57.3454 31.0423 57.3527 31.0522C57.36 31.0621 57.3671 31.0721 57.374 31.0823C57.3808 31.0925 57.3873 31.1029 57.3936 31.1134C57.4 31.1239 57.4061 31.1346 57.4118 31.1454C57.4176 31.1563 57.4232 31.1672 57.4284 31.1783C57.4337 31.1894 57.4387 31.2006 57.4434 31.212C57.4481 31.2233 57.4525 31.2348 57.4566 31.2464C57.4608 31.2579 57.4647 31.2696 57.4682 31.2813C57.4718 31.2931 57.4751 31.3049 57.4781 31.3168C57.4811 31.3287 57.4838 31.3407 57.4862 31.3528C57.4886 31.3648 57.4907 31.3769 57.4925 31.389C57.4943 31.4012 57.4958 31.4134 57.4971 31.4256C57.4982 31.4378 57.4992 31.4501 57.4998 31.4623C57.5004 31.4746 57.5007 31.4869 57.5007 31.4992C57.5007 31.5114 57.5004 31.5237 57.4998 31.536C57.4992 31.5482 57.4983 31.5605 57.4972 31.5727C57.496 31.5849 57.4945 31.5971 57.4927 31.6093C57.4909 31.6214 57.4888 31.6335 57.4864 31.6456C57.484 31.6576 57.4813 31.6696 57.4784 31.6815C57.4754 31.6934 57.4721 31.7052 57.4686 31.717C57.465 31.7288 57.4612 31.7404 57.457 31.752C57.4529 31.7636 57.4485 31.775 57.4438 31.7864C57.4391 31.7977 57.4341 31.8089 57.4289 31.82C57.4236 31.8312 57.4181 31.8421 57.4124 31.853C57.4066 31.8638 57.4005 31.8745 57.3942 31.8851C57.3879 31.8956 57.3813 31.906 57.3745 31.9162C57.3677 31.9264 57.3606 31.9364 57.3533 31.9463C57.346 31.9562 57.3385 31.9658 57.3307 31.9753C57.3229 31.9848 57.3149 31.9941 57.3066 32.0033C57.2984 32.0124 57.29 32.0213 57.2813 32.0299L55.0612 34.25L56.7503 34.25C56.7625 34.25 56.7748 34.2503 56.7871 34.2509C56.7993 34.2516 56.8115 34.2525 56.8238 34.2537C56.836 34.2549 56.8482 34.2564 56.8603 34.2582C56.8725 34.26 56.8845 34.2621 56.8966 34.2644C56.9086 34.2668 56.9206 34.2695 56.9325 34.2725C56.9444 34.2755 56.9562 34.2788 56.968 34.2823C56.9797 34.2859 56.9913 34.2897 57.0029 34.2939C57.0145 34.298 57.0259 34.3025 57.0373 34.3071C57.0486 34.3118 57.0598 34.3168 57.0709 34.3221C57.0821 34.3273 57.093 34.3328 57.1038 34.3386C57.1146 34.3444 57.1253 34.3504 57.1358 34.3567C57.1464 34.3631 57.1567 34.3696 57.167 34.3764Q57.1823 34.3867 57.197 34.3977C57.2069 34.405 57.2166 34.4125 57.2261 34.4203C57.2356 34.4281 57.2449 34.4361 57.254 34.4444C57.2631 34.4526 57.272 34.4611 57.2806 34.4697C57.2893 34.4784 57.2977 34.4873 57.306 34.4964C57.3142 34.5055 57.3223 34.5148 57.33 34.5243C57.3378 34.5337 57.3454 34.5434 57.3527 34.5533C57.36 34.5631 57.3671 34.5732 57.3739 34.5834C57.3807 34.5936 57.3873 34.6039 57.3936 34.6145C57.3999 34.625 57.406 34.6357 57.4117 34.6465C57.4175 34.6573 57.423 34.6683 57.4283 34.6794C57.4335 34.6905 57.4385 34.7017 57.4432 34.7131C57.4479 34.7244 57.4523 34.7358 57.4565 34.7474C57.4606 34.759 57.4644 34.7706 57.468 34.7823C57.4716 34.7941 57.4748 34.8059 57.4778 34.8178C57.4808 34.8297 57.4835 34.8417 57.4859 34.8538C57.4883 34.8658 57.4904 34.8779 57.4922 34.89C57.494 34.9022 57.4955 34.9144 57.4967 34.9266C57.4979 34.9388 57.4988 34.951 57.4994 34.9633C57.5 34.9755 57.5003 34.9878 57.5003 35.0001C57.5003 35.0124 57.5 35.0246 57.4994 35.0369C57.4988 35.0491 57.4979 35.0614 57.4967 35.0736C57.4955 35.0858 57.494 35.098 57.4922 35.1101C57.4904 35.1223 57.4882 35.1343 57.4859 35.1464C57.4835 35.1584 57.4808 35.1704 57.4778 35.1823C57.4748 35.1942 57.4716 35.2061 57.468 35.2178C57.4644 35.2295 57.4606 35.2412 57.4565 35.2527C57.4523 35.2643 57.4479 35.2758 57.4432 35.2871C57.4385 35.2985 57.4335 35.3097 57.4283 35.3208C57.423 35.3319 57.4175 35.3428 57.4117 35.3536C57.4059 35.3645 57.3999 35.3752 57.3936 35.3857C57.3873 35.3962 57.3807 35.4065 57.3739 35.4168C57.3671 35.427 57.36 35.437 57.3527 35.4469C57.3454 35.4568 57.3378 35.4664 57.33 35.4759C57.3223 35.4854 57.3142 35.4947 57.306 35.5038C57.2977 35.5129 57.2893 35.5218 57.2806 35.5304C57.272 35.5391 57.2631 35.5476 57.254 35.5558C57.2449 35.5641 57.2356 35.5721 57.2261 35.5799C57.2166 35.5876 57.2069 35.5952 57.197 35.6025C57.1872 35.6098 57.1772 35.6169 57.167 35.6237C57.1567 35.6305 57.1464 35.6371 57.1359 35.6434C57.1253 35.6497 57.1146 35.6558 57.1038 35.6616C57.093 35.6673 57.0821 35.6729 57.0709 35.6781C57.0598 35.6834 57.0486 35.6883 57.0373 35.693C57.0259 35.6977 57.0145 35.7021 57.0029 35.7063C56.9913 35.7104 56.9797 35.7142 56.968 35.7178C56.9562 35.7214 56.9444 35.7247 56.9325 35.7277C56.9206 35.7306 56.9086 35.7333 56.8966 35.7357C56.8845 35.7381 56.8725 35.7402 56.8603 35.742C56.8482 35.7438 56.836 35.7453 56.8238 35.7465C56.8115 35.7477 56.7993 35.7486 56.7871 35.7492C56.7748 35.7498 56.7625 35.7501 56.7503 35.7501L54.3757 35.7501L54.3757 36.5001Z"></path><path id="路径 3" fill-rule="evenodd" fill="url(#linear_1)" opacity="1" d="M29 26L36.5 26C36.5736 26 36.6473 26.0018 36.7208 26.0054C36.7944 26.009 36.8678 26.0144 36.9411 26.0217C37.0144 26.0289 37.0874 26.0379 37.1603 26.0487C37.2331 26.0595 37.3057 26.0721 37.3779 26.0865C37.4502 26.1008 37.522 26.117 37.5934 26.1349C37.6648 26.1528 37.7358 26.1724 37.8063 26.1938C37.8767 26.2152 37.9467 26.2383 38.016 26.2631C38.0853 26.2879 38.154 26.3144 38.2221 26.3426C38.2901 26.3707 38.3574 26.4005 38.424 26.432C38.4906 26.4635 38.5564 26.4967 38.6213 26.5314C38.6862 26.5661 38.7503 26.6024 38.8135 26.6402C38.8766 26.6781 38.9388 26.7175 39.0001 26.7584C39.0613 26.7993 39.1215 26.8417 39.1806 26.8856C39.2398 26.9294 39.2978 26.9747 39.3548 27.0215C39.4117 27.0682 39.4674 27.1163 39.522 27.1657C39.5766 27.2152 39.6299 27.2659 39.682 27.318C39.734 27.3701 39.7848 27.4234 39.8343 27.478C39.8837 27.5326 39.9318 27.5883 39.9785 27.6452C40.0253 27.7022 40.0706 27.7602 40.1144 27.8194C40.1583 27.8785 40.2007 27.9387 40.2416 27.9999C40.2825 28.0612 40.3219 28.1234 40.3598 28.1865C40.3977 28.2497 40.4339 28.3138 40.4686 28.3787C40.5034 28.4437 40.5365 28.5094 40.568 28.576C40.5994 28.6426 40.6293 28.7099 40.6574 28.7779C40.6856 28.846 40.7121 28.9147 40.7369 28.984C40.7617 29.0533 40.7848 29.1232 40.8062 29.1937C40.8276 29.2642 40.8472 29.3352 40.8651 29.4066C40.883 29.478 40.8992 29.5499 40.9135 29.6221C40.9279 29.6943 40.9405 29.7669 40.9513 29.8397C40.9621 29.9126 40.9711 29.9856 40.9783 30.0589C40.9856 30.1322 40.991 30.2056 40.9946 30.2792C40.9982 30.3527 41 30.4263 41 30.5L41 38C41 38.0736 40.9982 38.1473 40.9946 38.2208C40.991 38.2944 40.9856 38.3678 40.9783 38.4411C40.9711 38.5144 40.9621 38.5874 40.9513 38.6603C40.9405 38.7331 40.9279 38.8057 40.9135 38.8779C40.8992 38.9502 40.883 39.022 40.8651 39.0934C40.8472 39.1648 40.8276 39.2358 40.8062 39.3063C40.7848 39.3767 40.7617 39.4467 40.7369 39.516C40.7121 39.5853 40.6856 39.654 40.6574 39.7221C40.6293 39.7901 40.5994 39.8574 40.568 39.924C40.5365 39.9906 40.5034 40.0564 40.4686 40.1213C40.4339 40.1862 40.3977 40.2503 40.3598 40.3135C40.3219 40.3766 40.2825 40.4388 40.2416 40.5001C40.2007 40.5613 40.1583 40.6215 40.1144 40.6806C40.0706 40.7398 40.0253 40.7978 39.9785 40.8548C39.9318 40.9117 39.8837 40.9675 39.8343 41.022C39.7848 41.0766 39.734 41.1299 39.682 41.182C39.6299 41.234 39.5766 41.2848 39.522 41.3343C39.4674 41.3837 39.4117 41.4318 39.3548 41.4785C39.2978 41.5253 39.2398 41.5706 39.1806 41.6144C39.1215 41.6583 39.0613 41.7007 39.0001 41.7416C38.9388 41.7825 38.8766 41.8219 38.8135 41.8598C38.7503 41.8977 38.6862 41.9339 38.6213 41.9686C38.5564 42.0034 38.4906 42.0365 38.424 42.068C38.3574 42.0994 38.2901 42.1293 38.2221 42.1574C38.154 42.1856 38.0853 42.2121 38.016 42.2369C37.9467 42.2617 37.8767 42.2848 37.8063 42.3062C37.7358 42.3276 37.6648 42.3472 37.5934 42.3651C37.522 42.383 37.4502 42.3992 37.3779 42.4135C37.3057 42.4279 37.2331 42.4405 37.1603 42.4513C37.0874 42.4621 37.0144 42.4711 36.9411 42.4783C36.8678 42.4856 36.7944 42.491 36.7208 42.4946C36.6473 42.4982 36.5736 42.5 36.5 42.5L29 42.5C28.9263 42.5 28.8528 42.4982 28.7792 42.4946C28.7057 42.491 28.6322 42.4856 28.5589 42.4783C28.4856 42.4711 28.4126 42.4621 28.3397 42.4513C28.2669 42.4405 28.1943 42.4279 28.1221 42.4135C28.0499 42.3992 27.978 42.383 27.9066 42.3651C27.8352 42.3472 27.7642 42.3276 27.6937 42.3062C27.6232 42.2848 27.5533 42.2617 27.484 42.2369C27.4147 42.2121 27.346 42.1856 27.2779 42.1574C27.2099 42.1293 27.1426 42.0994 27.076 42.068C27.0094 42.0365 26.9437 42.0034 26.8787 41.9686C26.8138 41.9339 26.7497 41.8976 26.6865 41.8598C26.6234 41.8219 26.5612 41.7825 26.4999 41.7416C26.4387 41.7007 26.3785 41.6583 26.3194 41.6144C26.2602 41.5706 26.2022 41.5253 26.1452 41.4785C26.0883 41.4318 26.0326 41.3837 25.978 41.3343C25.9234 41.2848 25.8701 41.234 25.818 41.182C25.7659 41.1299 25.7152 41.0766 25.6657 41.022C25.6163 40.9674 25.5682 40.9117 25.5215 40.8548C25.4747 40.7978 25.4294 40.7398 25.3856 40.6806C25.3417 40.6215 25.2993 40.5613 25.2584 40.5001C25.2175 40.4388 25.1781 40.3766 25.1402 40.3135C25.1023 40.2503 25.0661 40.1862 25.0314 40.1213C24.9967 40.0564 24.9635 39.9906 24.932 39.924C24.9005 39.8574 24.8707 39.7901 24.8426 39.7221C24.8144 39.654 24.7879 39.5853 24.7631 39.516C24.7382 39.4467 24.7152 39.3767 24.6938 39.3063C24.6724 39.2358 24.6528 39.1648 24.6349 39.0934C24.617 39.022 24.6008 38.9502 24.5865 38.8779C24.5721 38.8057 24.5595 38.7331 24.5487 38.6603C24.5379 38.5874 24.5289 38.5144 24.5217 38.4411C24.5145 38.3678 24.509 38.2944 24.5054 38.2208C24.5018 38.1473 24.5 38.0736 24.5 38L24.5 30.5C24.5 30.4263 24.5018 30.3528 24.5054 30.2792C24.509 30.2057 24.5145 30.1322 24.5217 30.0589C24.5289 29.9856 24.5379 29.9126 24.5487 29.8397C24.5595 29.7669 24.5721 29.6943 24.5865 29.6221C24.6008 29.5499 24.617 29.478 24.6349 29.4066C24.6528 29.3352 24.6724 29.2642 24.6938 29.1937C24.7152 29.1233 24.7382 29.0534 24.7631 28.984C24.7879 28.9147 24.8144 28.846 24.8426 28.7779C24.8707 28.7099 24.9005 28.6426 24.932 28.576C24.9635 28.5094 24.9967 28.4437 25.0314 28.3787C25.0661 28.3138 25.1023 28.2497 25.1402 28.1865C25.1781 28.1234 25.2175 28.0612 25.2584 27.9999C25.2993 27.9387 25.3417 27.8785 25.3856 27.8194C25.4294 27.7602 25.4747 27.7022 25.5215 27.6452C25.5682 27.5883 25.6163 27.5326 25.6657 27.478C25.7152 27.4234 25.7659 27.3701 25.818 27.318C25.8701 27.2659 25.9234 27.2152 25.978 27.1657C26.0326 27.1163 26.0883 27.0682 26.1452 27.0215C26.2022 26.9747 26.2602 26.9294 26.3194 26.8856C26.3785 26.8417 26.4387 26.7993 26.4999 26.7584C26.5612 26.7175 26.6234 26.6781 26.6865 26.6402C26.7497 26.6024 26.8138 26.5661 26.8787 26.5314C26.9437 26.4967 27.0094 26.4635 27.076 26.432C27.1426 26.4005 27.2099 26.3707 27.2779 26.3426C27.346 26.3144 27.4147 26.2879 27.484 26.2631C27.5533 26.2383 27.6232 26.2152 27.6937 26.1938C27.7642 26.1724 27.8352 26.1528 27.9066 26.1349C27.978 26.117 28.0499 26.1008 28.1221 26.0865C28.1943 26.0721 28.2669 26.0595 28.3397 26.0487C28.4126 26.0379 28.4856 26.0289 28.5589 26.0217C28.6322 26.0144 28.7057 26.009 28.7792 26.0054C28.8528 26.0018 28.9263 26 29 26ZM29 47L36.5 47C36.5736 47 36.6473 47.0018 36.7208 47.0054C36.7944 47.009 36.8678 47.0144 36.9411 47.0217C37.0144 47.0289 37.0874 47.0379 37.1603 47.0487C37.2331 47.0595 37.3057 47.0721 37.3779 47.0865C37.4502 47.1008 37.522 47.117 37.5934 47.1349C37.6648 47.1528 37.7358 47.1724 37.8063 47.1938C37.8767 47.2152 37.9467 47.2383 38.016 47.2631C38.0853 47.2879 38.154 47.3144 38.2221 47.3426C38.2901 47.3707 38.3574 47.4005 38.424 47.432C38.4906 47.4635 38.5564 47.4966 38.6213 47.5314C38.6862 47.5661 38.7503 47.6024 38.8135 47.6402C38.8766 47.6781 38.9388 47.7175 39.0001 47.7584C39.0613 47.7993 39.1215 47.8417 39.1806 47.8856C39.2398 47.9294 39.2978 47.9747 39.3548 48.0215C39.4117 48.0682 39.4674 48.1163 39.522 48.1657C39.5766 48.2152 39.6299 48.266 39.682 48.318C39.734 48.3701 39.7848 48.4234 39.8343 48.478C39.8837 48.5326 39.9318 48.5883 39.9785 48.6452C40.0253 48.7022 40.0706 48.7602 40.1144 48.8194C40.1583 48.8785 40.2007 48.9387 40.2416 48.9999C40.2825 49.0612 40.3219 49.1234 40.3598 49.1865C40.3977 49.2497 40.4339 49.3138 40.4686 49.3787C40.5034 49.4436 40.5365 49.5094 40.568 49.576C40.5994 49.6426 40.6293 49.7099 40.6574 49.7779C40.6856 49.846 40.7121 49.9147 40.7369 49.984C40.7617 50.0533 40.7848 50.1233 40.8062 50.1937C40.8276 50.2642 40.8472 50.3352 40.8651 50.4066C40.883 50.478 40.8992 50.5498 40.9135 50.6221C40.9279 50.6943 40.9405 50.7669 40.9513 50.8397C40.9621 50.9126 40.9711 50.9856 40.9783 51.0589C40.9856 51.1322 40.991 51.2056 40.9946 51.2792C40.9982 51.3527 41 51.4264 41 51.5L41 59C41 59.0736 40.9982 59.1473 40.9946 59.2208C40.991 59.2944 40.9856 59.3678 40.9783 59.4411C40.9711 59.5144 40.9621 59.5874 40.9513 59.6603C40.9405 59.7331 40.9279 59.8057 40.9135 59.8779C40.8992 59.9502 40.883 60.022 40.8651 60.0934C40.8472 60.1648 40.8276 60.2358 40.8062 60.3063C40.7848 60.3768 40.7617 60.4467 40.7369 60.516C40.7121 60.5853 40.6856 60.654 40.6574 60.7221C40.6293 60.7901 40.5994 60.8574 40.568 60.924C40.5365 60.9906 40.5034 61.0564 40.4686 61.1213C40.4339 61.1862 40.3977 61.2503 40.3598 61.3135C40.3219 61.3766 40.2825 61.4388 40.2416 61.5001C40.2007 61.5613 40.1583 61.6215 40.1144 61.6806C40.0706 61.7398 40.0253 61.7978 39.9785 61.8548C39.9318 61.9117 39.8837 61.9675 39.8343 62.022C39.7848 62.0766 39.734 62.1299 39.682 62.182C39.6299 62.234 39.5766 62.2848 39.522 62.3343C39.4674 62.3837 39.4117 62.4318 39.3548 62.4785C39.2978 62.5253 39.2398 62.5706 39.1806 62.6144C39.1215 62.6583 39.0613 62.7007 39.0001 62.7416C38.9388 62.7825 38.8766 62.8219 38.8135 62.8598C38.7503 62.8977 38.6862 62.9339 38.6213 62.9686C38.5564 63.0034 38.4906 63.0364 38.424 63.068C38.3574 63.0994 38.2901 63.1293 38.2221 63.1574C38.154 63.1856 38.0853 63.2121 38.016 63.2369C37.9467 63.2617 37.8767 63.2848 37.8063 63.3062C37.7358 63.3276 37.6648 63.3472 37.5934 63.3651C37.522 63.383 37.4502 63.3992 37.3779 63.4135C37.3057 63.4279 37.2331 63.4405 37.1603 63.4513C37.0874 63.4621 37.0144 63.4711 36.9411 63.4783C36.8678 63.4856 36.7944 63.4909 36.7208 63.4946C36.6473 63.4982 36.5736 63.5 36.5 63.5L29 63.5C28.9263 63.5 28.8528 63.4982 28.7792 63.4946C28.7057 63.4909 28.6322 63.4856 28.5589 63.4783C28.4856 63.4711 28.4126 63.4621 28.3397 63.4513C28.2669 63.4405 28.1943 63.4279 28.1221 63.4135C28.0499 63.3992 27.978 63.383 27.9066 63.3651C27.8352 63.3472 27.7642 63.3276 27.6937 63.3062C27.6232 63.2848 27.5533 63.2617 27.484 63.2369C27.4147 63.2121 27.346 63.1856 27.2779 63.1574C27.2099 63.1293 27.1426 63.0994 27.076 63.068C27.0094 63.0364 26.9437 63.0034 26.8787 62.9686C26.8138 62.9339 26.7497 62.8976 26.6865 62.8598C26.6234 62.8219 26.5612 62.7825 26.4999 62.7416C26.4387 62.7007 26.3785 62.6583 26.3194 62.6144C26.2602 62.5706 26.2022 62.5253 26.1452 62.4785C26.0883 62.4318 26.0326 62.3837 25.978 62.3343C25.9234 62.2848 25.8701 62.234 25.818 62.182C25.7659 62.1299 25.7152 62.0766 25.6657 62.022C25.6163 61.9675 25.5682 61.9117 25.5215 61.8548C25.4747 61.7978 25.4294 61.7398 25.3856 61.6806C25.3417 61.6215 25.2993 61.5613 25.2584 61.5001C25.2175 61.4388 25.1781 61.3766 25.1402 61.3135C25.1023 61.2503 25.0661 61.1862 25.0314 61.1213C24.9967 61.0564 24.9635 60.9906 24.932 60.924C24.9005 60.8574 24.8707 60.7901 24.8426 60.7221C24.8144 60.654 24.7879 60.5853 24.7631 60.516C24.7382 60.4467 24.7152 60.3767 24.6938 60.3063C24.6724 60.2358 24.6528 60.1648 24.6349 60.0934C24.617 60.022 24.6008 59.9502 24.5865 59.8779C24.5721 59.8057 24.5595 59.7331 24.5487 59.6603C24.5379 59.5874 24.5289 59.5144 24.5217 59.4411C24.5145 59.3678 24.509 59.2943 24.5054 59.2208C24.5018 59.1472 24.5 59.0736 24.5 59L24.5 51.5C24.5 51.4264 24.5018 51.3527 24.5054 51.2792C24.509 51.2056 24.5145 51.1322 24.5217 51.0589C24.5289 50.9856 24.5379 50.9126 24.5487 50.8397C24.5595 50.7669 24.5721 50.6943 24.5865 50.6221C24.6008 50.5498 24.617 50.478 24.6349 50.4066C24.6528 50.3352 24.6724 50.2642 24.6938 50.1937C24.7152 50.1232 24.7382 50.0533 24.7631 49.984C24.7879 49.9147 24.8144 49.846 24.8426 49.7779C24.8707 49.7099 24.9005 49.6426 24.932 49.576C24.9635 49.5094 24.9967 49.4436 25.0314 49.3787C25.0661 49.3137 25.1023 49.2497 25.1402 49.1865C25.1781 49.1234 25.2175 49.0612 25.2584 48.9999C25.2993 48.9387 25.3417 48.8785 25.3856 48.8194C25.4294 48.7602 25.4747 48.7022 25.5215 48.6452C25.5682 48.5883 25.6163 48.5325 25.6657 48.478C25.7152 48.4234 25.7659 48.3701 25.818 48.318C25.8701 48.266 25.9234 48.2152 25.978 48.1657C26.0326 48.1163 26.0883 48.0682 26.1452 48.0215C26.2022 47.9747 26.2602 47.9294 26.3194 47.8856C26.3785 47.8417 26.4387 47.7993 26.4999 47.7584C26.5612 47.7175 26.6234 47.6781 26.6865 47.6402C26.7497 47.6024 26.8138 47.5661 26.8787 47.5314C26.9437 47.4966 27.0094 47.4635 27.076 47.432C27.1426 47.4005 27.2099 47.3707 27.2779 47.3426C27.346 47.3144 27.4147 47.2879 27.484 47.2631C27.5533 47.2383 27.6232 47.2152 27.6937 47.1938C27.7642 47.1724 27.8352 47.1528 27.9066 47.1349C27.978 47.117 28.0499 47.1008 28.1221 47.0865C28.1943 47.0721 28.2669 47.0595 28.3397 47.0487C28.4126 47.0379 28.4856 47.0289 28.5589 47.0217C28.6322 47.0144 28.7057 47.009 28.7792 47.0054C28.8528 47.0018 28.9263 47 29 47ZM50 47L57.5 47C57.5736 47 57.6472 47.0018 57.7208 47.0054C57.7943 47.009 57.8678 47.0144 57.9411 47.0217C58.0144 47.0289 58.0874 47.0379 58.1603 47.0487C58.2331 47.0595 58.3057 47.0721 58.3779 47.0865C58.4502 47.1008 58.522 47.117 58.5934 47.1349C58.6648 47.1528 58.7358 47.1724 58.8063 47.1938C58.8767 47.2152 58.9467 47.2383 59.016 47.2631C59.0853 47.2879 59.154 47.3143 59.222 47.3425C59.2901 47.3707 59.3574 47.4005 59.424 47.432C59.4906 47.4635 59.5564 47.4966 59.6213 47.5314C59.6862 47.5661 59.7503 47.6023 59.8135 47.6402C59.8766 47.6781 59.9388 47.7175 60.0001 47.7584C60.0613 47.7993 60.1215 47.8417 60.1806 47.8856C60.2398 47.9294 60.2978 47.9747 60.3548 48.0215C60.4117 48.0682 60.4674 48.1163 60.522 48.1657C60.5766 48.2152 60.6299 48.266 60.682 48.318C60.734 48.3701 60.7848 48.4234 60.8343 48.478C60.8837 48.5325 60.9318 48.5883 60.9785 48.6452C61.0253 48.7022 61.0706 48.7602 61.1144 48.8194C61.1583 48.8785 61.2007 48.9387 61.2416 48.9999C61.2825 49.0612 61.3219 49.1234 61.3598 49.1865C61.3976 49.2497 61.4339 49.3137 61.4686 49.3787C61.5034 49.4436 61.5364 49.5094 61.568 49.576C61.5994 49.6426 61.6293 49.7099 61.6574 49.7779C61.6856 49.846 61.7121 49.9147 61.7369 49.984C61.7617 50.0533 61.7848 50.1232 61.8062 50.1937C61.8276 50.2642 61.8472 50.3352 61.8651 50.4066C61.883 50.478 61.8992 50.5498 61.9135 50.6221C61.9279 50.6943 61.9405 50.7669 61.9513 50.8397C61.9621 50.9126 61.9711 50.9856 61.9783 51.0589C61.9856 51.1322 61.9909 51.2056 61.9946 51.2792C61.9982 51.3527 62 51.4264 62 51.5L62 59C62 59.0736 61.9982 59.1473 61.9946 59.2208C61.9909 59.2944 61.9856 59.3678 61.9783 59.4411C61.9711 59.5144 61.9621 59.5874 61.9513 59.6603C61.9405 59.7331 61.9279 59.8057 61.9135 59.8779C61.8991 59.9502 61.883 60.022 61.8651 60.0934C61.8472 60.1648 61.8276 60.2358 61.8062 60.3063C61.7848 60.3767 61.7617 60.4467 61.7369 60.516C61.7121 60.5853 61.6856 60.654 61.6574 60.7221C61.6293 60.7901 61.5994 60.8574 61.568 60.924C61.5364 60.9906 61.5034 61.0564 61.4686 61.1213C61.4339 61.1862 61.3976 61.2503 61.3598 61.3135C61.3219 61.3766 61.2825 61.4388 61.2416 61.5001C61.2007 61.5613 61.1583 61.6215 61.1144 61.6806C61.0706 61.7398 61.0253 61.7978 60.9785 61.8548C60.9318 61.9117 60.8837 61.9674 60.8343 62.022C60.7848 62.0766 60.734 62.1299 60.682 62.182C60.6299 62.234 60.5766 62.2848 60.522 62.3343C60.4674 62.3837 60.4117 62.4318 60.3548 62.4785C60.2978 62.5253 60.2398 62.5706 60.1806 62.6144C60.1215 62.6583 60.0613 62.7007 60.0001 62.7416C59.9388 62.7825 59.8766 62.8219 59.8135 62.8598C59.7503 62.8976 59.6862 62.9339 59.6213 62.9686C59.5564 63.0034 59.4906 63.0364 59.424 63.068C59.3574 63.0994 59.2901 63.1293 59.222 63.1574C59.154 63.1856 59.0853 63.2121 59.016 63.2369C58.9467 63.2617 58.8767 63.2848 58.8063 63.3062C58.7358 63.3276 58.6648 63.3472 58.5934 63.3651C58.522 63.383 58.4502 63.3992 58.3779 63.4135C58.3057 63.4279 58.2331 63.4405 58.1603 63.4513C58.0874 63.4621 58.0144 63.4711 57.9411 63.4783C57.8678 63.4856 57.7943 63.4909 57.7208 63.4946C57.6472 63.4982 57.5736 63.5 57.5 63.5L50 63.5C49.9264 63.5 49.8528 63.4982 49.7792 63.4946C49.7057 63.4909 49.6322 63.4856 49.5589 63.4783C49.4856 63.4711 49.4126 63.4621 49.3397 63.4513C49.2669 63.4405 49.1943 63.4279 49.1221 63.4135C49.0498 63.3992 48.978 63.383 48.9066 63.3651C48.8352 63.3472 48.7642 63.3276 48.6937 63.3062C48.6232 63.2848 48.5533 63.2617 48.484 63.2369C48.4147 63.2121 48.346 63.1856 48.2779 63.1574C48.2099 63.1293 48.1426 63.0994 48.076 63.068C48.0094 63.0364 47.9436 63.0034 47.8787 62.9686C47.8137 62.9339 47.7497 62.8976 47.6865 62.8598C47.6234 62.8219 47.5612 62.7825 47.4999 62.7416C47.4387 62.7007 47.3785 62.6583 47.3194 62.6144C47.2602 62.5706 47.2022 62.5253 47.1452 62.4785C47.0883 62.4318 47.0325 62.3837 46.978 62.3343C46.9234 62.2848 46.8701 62.234 46.818 62.182C46.766 62.1299 46.7152 62.0766 46.6657 62.022C46.6163 61.9675 46.5682 61.9117 46.5215 61.8548C46.4747 61.7978 46.4294 61.7398 46.3856 61.6806C46.3417 61.6215 46.2993 61.5613 46.2584 61.5001C46.2175 61.4388 46.1781 61.3766 46.1402 61.3135C46.1023 61.2503 46.0661 61.1862 46.0314 61.1213C45.9966 61.0564 45.9635 60.9906 45.932 60.924C45.9005 60.8574 45.8707 60.7901 45.8425 60.7221C45.8143 60.654 45.7879 60.5853 45.7631 60.516C45.7383 60.4467 45.7152 60.3767 45.6938 60.3063C45.6724 60.2358 45.6528 60.1648 45.6349 60.0934C45.617 60.022 45.6008 59.9502 45.5865 59.8779C45.5721 59.8057 45.5595 59.7331 45.5487 59.6603C45.5379 59.5874 45.5289 59.5144 45.5217 59.4411C45.5144 59.3678 45.509 59.2943 45.5054 59.2208C45.5018 59.1472 45.5 59.0736 45.5 59L45.5 51.5C45.5 51.4264 45.5018 51.3527 45.5054 51.2792C45.509 51.2056 45.5144 51.1322 45.5217 51.0589C45.5289 50.9856 45.5379 50.9126 45.5487 50.8397C45.5595 50.7669 45.5721 50.6943 45.5865 50.6221C45.6008 50.5498 45.617 50.478 45.6349 50.4066C45.6528 50.3352 45.6724 50.2642 45.6938 50.1937C45.7152 50.1232 45.7383 50.0533 45.7631 49.984C45.7879 49.9147 45.8144 49.846 45.8426 49.7779C45.8707 49.7099 45.9005 49.6426 45.932 49.576C45.9635 49.5094 45.9966 49.4436 46.0314 49.3787C46.0661 49.3137 46.1024 49.2497 46.1402 49.1865C46.1781 49.1234 46.2175 49.0612 46.2584 48.9999C46.2993 48.9387 46.3417 48.8785 46.3856 48.8194C46.4294 48.7602 46.4747 48.7022 46.5215 48.6452C46.5682 48.5883 46.6163 48.5325 46.6657 48.478C46.7152 48.4234 46.766 48.3701 46.818 48.318C46.8701 48.266 46.9234 48.2152 46.978 48.1657C47.0325 48.1163 47.0883 48.0682 47.1452 48.0215C47.2022 47.9747 47.2602 47.9294 47.3194 47.8856C47.3785 47.8417 47.4387 47.7993 47.4999 47.7584C47.5612 47.7175 47.6234 47.6781 47.6865 47.6402C47.7497 47.6024 47.8137 47.5661 47.8787 47.5314C47.9436 47.4966 48.0094 47.4635 48.076 47.432C48.1426 47.4005 48.2099 47.3707 48.2779 47.3426C48.346 47.3144 48.4147 47.2879 48.484 47.2631C48.5533 47.2383 48.6232 47.2152 48.6937 47.1938C48.7642 47.1724 48.8352 47.1528 48.9066 47.1349C48.978 47.117 49.0498 47.1008 49.1221 47.0865C49.1943 47.0721 49.2669 47.0595 49.3397 47.0487C49.4126 47.0379 49.4856 47.0289 49.5589 47.0217C49.6322 47.0144 49.7057 47.009 49.7792 47.0054C49.8528 47.0018 49.9264 47 50 47Z"></path></g><defs><linearGradient id="linear_0" x1="-0.00011555537987413235%" y1="50%" x2="100.00011555537986%" y2="50%" gradientUnits="objectBoundingBox"><stop offset="0" stop-color="#6C6CEA" stop-opacity="1" /><stop offset="1" stop-color="#8368FC" stop-opacity="1" /></linearGradient><linearGradient id="linear_1" x1="0%" y1="50%" x2="100%" y2="50%" gradientUnits="objectBoundingBox"><stop offset="0" stop-color="#6C6CEA" stop-opacity="1" /><stop offset="1" stop-color="#8368FC" stop-opacity="1" /></linearGradient></defs></svg>