<svg xmlns="http://www.w3.org/2000/svg" xmlns:xlink="http://www.w3.org/1999/xlink" width="88" height="88" viewBox="0 0 88 88" fill="none"><g opacity="1"  transform="translate(0 0)"><g opacity="1"  transform="translate(22 20)"><path id="路径 2" fill-rule="evenodd" fill="url(#linear_0)" opacity="1" d="M0.0917969 30.4318L0.0917969 40.6317C0.0917969 41.7117 0.631797 42.2517 1.7218 42.2517L11.4518 42.2517C12.5418 42.2517 13.0818 41.7117 13.0818 40.6317L13.0818 30.4318C13.0818 29.3518 12.5418 28.8118 11.4518 28.8118L1.7218 28.8118C0.631797 28.8118 0.0917969 29.3518 0.0917969 30.4318Z"></path><path id="路径 3" fill-rule="evenodd" fill="url(#linear_1)" opacity="1" d="M15.5049 24.2105L15.5049 40.2705C15.5049 41.5905 16.1649 42.2505 17.4949 42.2505L26.5049 42.2505C27.8349 42.2505 28.4949 41.5905 28.4949 40.2705L28.4949 24.2105C28.4949 22.8905 27.8349 22.2305 26.5049 22.2305L17.4949 22.2305C16.1649 22.2305 15.5049 22.8905 15.5049 24.2105Z"></path><path id="路径 4" fill-rule="evenodd" fill="url(#linear_2)" opacity="1" d="M30.9199 15.9462L30.9199 39.8862C30.9199 41.4662 31.7199 42.2562 33.3099 42.2562L41.5199 42.2562C43.1199 42.2562 43.9099 41.4662 43.9099 39.8862L43.9099 15.9462C43.9099 14.3662 43.1199 13.5762 41.5199 13.5762L33.3099 13.5762C31.7199 13.5762 30.9199 14.3662 30.9199 15.9462Z"></path><path id="路径 5" fill-rule="evenodd" fill="url(#linear_3)" opacity="1" d="M0 46.1891C0 47.3991 0.61 47.9991 1.82 47.9991L42.18 47.9991C43.39 47.9991 44 47.3991 44 46.1891C44 44.9791 43.39 44.3792 42.18 44.3792L1.82 44.3792C0.61 44.3792 0 44.9791 0 46.1891Z"></path><path id="路径 7" fill-rule="evenodd" fill="url(#linear_4)" opacity="0.5" d="M2.23016 18.7701C2.55016 18.7701 2.86016 18.6901 3.14016 18.5301L18.9502 9.56003L22.3302 14.32C23.0302 15.3 24.3502 15.54 25.3502 14.88L42.7802 3.32001C43.6202 2.76001 43.8402 1.64 43.2802 0.810002C42.7202 -0.0300001 41.5902 -0.250001 40.7502 0.310001L24.5002 11.09L21.1702 6.41002C20.5202 5.49002 19.2602 5.21001 18.2802 5.77002L1.33016 15.38C0.450156 15.88 0.150156 16.99 0.650156 17.8501C0.990157 18.4401 1.60016 18.7701 2.24016 18.7701L2.23016 18.7701Z"></path></g></g><defs><linearGradient id="linear_0" x1="-0.0027696538809943144%" y1="50%" x2="100.00276965388099%" y2="50%" gradientUnits="objectBoundingBox"><stop offset="0" stop-color="#FF6D00" stop-opacity="1" /><stop offset="1" stop-color="#F7AD59" stop-opacity="1" /></linearGradient><linearGradient id="linear_1" x1="-0.0027815867975289083%" y1="50%" x2="100.00278158679751%" y2="50%" gradientUnits="objectBoundingBox"><stop offset="0" stop-color="#FF6D00" stop-opacity="1" /><stop offset="1" stop-color="#F7AD59" stop-opacity="1" /></linearGradient><linearGradient id="linear_2" x1="-0.0027815867975289083%" y1="50%" x2="100.00278158679751%" y2="50%" gradientUnits="objectBoundingBox"><stop offset="0" stop-color="#FF6D00" stop-opacity="1" /><stop offset="1" stop-color="#F7AD59" stop-opacity="1" /></linearGradient><linearGradient id="linear_3" x1="0.00013871626420454547%" y1="50%" x2="99.9998612837358%" y2="50%" gradientUnits="objectBoundingBox"><stop offset="0" stop-color="#FF6D00" stop-opacity="1" /><stop offset="1" stop-color="#F7AD59" stop-opacity="1" /></linearGradient><linearGradient id="linear_4" x1="0.0009408872601111176%" y1="50%" x2="99.99905911273989%" y2="50%" gradientUnits="objectBoundingBox"><stop offset="0" stop-color="#FF6D00" stop-opacity="1" /><stop offset="1" stop-color="#F7AD59" stop-opacity="1" /></linearGradient></defs></svg>