<svg xmlns="http://www.w3.org/2000/svg" xmlns:xlink="http://www.w3.org/1999/xlink" width="88" height="88" viewBox="0 0 88 88" fill="none"><g opacity="1"  transform="translate(0 0)"><path id="减去顶层" fill-rule="evenodd" fill="url(#linear_0)" opacity="1" d="M57.5 47.108C57.3385 47.072 57.1755 47.0449 57.011 47.0269Q56.7643 46.9998 56.516 47L52.4555 47C52.415 47 52.3745 47.0006 52.3341 47.0016C52.2936 47.0027 52.2532 47.0044 52.2128 47.0065C52.1724 47.0087 52.1321 47.0114 52.0917 47.0147C52.0513 47.018 52.0111 47.0218 51.9709 47.0262C51.9306 47.0305 51.8904 47.0354 51.8503 47.0408C51.8103 47.0463 51.7702 47.0523 51.7303 47.0588C51.6904 47.0653 51.6505 47.0723 51.6108 47.0799C51.571 47.0875 51.5314 47.0957 51.4918 47.1043C51.4523 47.113 51.4129 47.1222 51.3736 47.1319C51.3343 47.1416 51.2952 47.1519 51.2562 47.1627C51.2172 47.1735 51.1783 47.1848 51.1396 47.1966C51.1009 47.2085 51.0624 47.2208 51.024 47.2337C50.9856 47.2465 50.9475 47.2599 50.9095 47.2738C50.8715 47.2877 50.8336 47.3021 50.796 47.3171C50.7584 47.332 50.721 47.3474 50.6838 47.3633C50.6466 47.3793 50.6096 47.3957 50.5729 47.4126C50.5361 47.4295 50.4996 47.447 50.4633 47.4649C50.427 47.4828 50.3909 47.5012 50.3552 47.5201C50.3194 47.539 50.2838 47.5583 50.2486 47.5782C50.2133 47.598 50.1783 47.6183 50.1436 47.6391C50.1088 47.6599 50.0744 47.6812 50.0403 47.7029C50.0061 47.7246 49.9723 47.7468 49.9387 47.7694C49.9052 47.792 49.872 47.8151 49.839 47.8386C49.8061 47.8622 49.7735 47.8861 49.7412 47.9105C49.7089 47.935 49.677 47.9598 49.6454 47.985C49.6138 48.0103 49.5825 48.036 49.5516 48.0621C49.5207 48.0882 49.4901 48.1147 49.4599 48.1417C49.4297 48.1686 49.3999 48.196 49.3704 48.2237C49.3409 48.2515 49.3119 48.2796 49.2831 48.3081C49.2545 48.3366 49.2261 48.3655 49.1982 48.3948C49.1703 48.4241 49.1428 48.4538 49.1157 48.4838C49.0885 48.5139 49.0618 48.5443 49.0355 48.575L48.92 48.71L45.6125 48.71C43.88 48.71 42.5 50.144 42.5 51.8855L42.5 60.5L26 60.5C25.9509 60.5 25.9018 60.4988 25.8528 60.4964C25.8037 60.494 25.7548 60.4904 25.706 60.4856C25.6571 60.4807 25.6084 60.4747 25.5598 60.4675C25.5112 60.4603 25.4629 60.452 25.4147 60.4423C25.3666 60.4328 25.3187 60.422 25.271 60.4101C25.2234 60.3981 25.1761 60.3851 25.1292 60.3708C25.0822 60.3566 25.0355 60.3412 24.9893 60.3246C24.9431 60.3081 24.8973 60.2904 24.8519 60.2716C24.8066 60.2528 24.7617 60.233 24.7173 60.212C24.6729 60.191 24.6291 60.1689 24.5858 60.1458C24.5425 60.1226 24.4998 60.0984 24.4577 60.0732C24.4156 60.0479 24.3741 60.0217 24.3333 59.9944C24.2925 59.9671 24.2523 59.9389 24.2129 59.9096C24.1735 59.8804 24.1348 59.8502 24.0968 59.819C24.0589 59.7879 24.0217 59.7558 23.9853 59.7229C23.9489 59.6899 23.9134 59.6561 23.8787 59.6213C23.844 59.5866 23.8101 59.5511 23.7771 59.5147C23.7442 59.4783 23.7121 59.4411 23.681 59.4032C23.6498 59.3652 23.6196 59.3265 23.5904 59.2871C23.5611 59.2477 23.5329 59.2075 23.5056 59.1667C23.4783 59.1259 23.4521 59.0844 23.4268 59.0423C23.4016 59.0002 23.3774 58.9575 23.3542 58.9142C23.3311 58.8709 23.309 58.827 23.288 58.7826C23.267 58.7383 23.2471 58.6934 23.2284 58.6481C23.2096 58.6027 23.1919 58.5569 23.1754 58.5107C23.1588 58.4645 23.1434 58.4179 23.1292 58.3708C23.1149 58.3239 23.1018 58.2766 23.0899 58.229C23.078 58.1813 23.0672 58.1334 23.0576 58.0853C23.0481 58.0371 23.0397 57.9888 23.0325 57.9402C23.0253 57.8916 23.0193 57.8429 23.0144 57.794C23.0096 57.7452 23.006 57.6963 23.0036 57.6472C23.0012 57.5982 23 57.5491 23 57.5L23 29C23 28.9509 23.0012 28.9018 23.0036 28.8528C23.006 28.8037 23.0096 28.7548 23.0144 28.706C23.0193 28.6571 23.0253 28.6084 23.0325 28.5598C23.0397 28.5112 23.0481 28.4629 23.0576 28.4147C23.0672 28.3666 23.078 28.3187 23.0899 28.271C23.1018 28.2234 23.1149 28.1761 23.1292 28.1292C23.1434 28.0822 23.1588 28.0355 23.1754 27.9893C23.1919 27.9431 23.2096 27.8973 23.2284 27.8519C23.2472 27.8066 23.267 27.7617 23.288 27.7173C23.309 27.6729 23.3311 27.6291 23.3542 27.5858C23.3774 27.5425 23.4016 27.4998 23.4268 27.4577C23.4521 27.4156 23.4783 27.3741 23.5056 27.3333C23.5329 27.2925 23.5611 27.2523 23.5904 27.2129C23.6196 27.1735 23.6498 27.1348 23.681 27.0968C23.7121 27.0589 23.7442 27.0217 23.7771 26.9853C23.8101 26.9489 23.844 26.9134 23.8787 26.8787C23.9134 26.844 23.9489 26.8101 23.9853 26.7771C24.0217 26.7442 24.0589 26.7121 24.0968 26.681C24.1348 26.6498 24.1735 26.6196 24.2129 26.5904Q24.2721 26.5465 24.3333 26.5056C24.3741 26.4783 24.4156 26.452 24.4577 26.4268C24.4998 26.4016 24.5425 26.3774 24.5858 26.3542C24.6291 26.3311 24.6729 26.309 24.7173 26.288C24.7617 26.267 24.8066 26.2472 24.8519 26.2284C24.8973 26.2096 24.9431 26.1919 24.9893 26.1754C25.0355 26.1588 25.0822 26.1434 25.1292 26.1292C25.1761 26.1149 25.2234 26.1018 25.271 26.0899C25.3187 26.078 25.3666 26.0672 25.4147 26.0577C25.4629 26.0481 25.5112 26.0397 25.5598 26.0325C25.6084 26.0253 25.6571 26.0192 25.706 26.0144C25.7548 26.0096 25.8037 26.006 25.8528 26.0036C25.9018 26.0012 25.9509 26 26 26L54.5 26C54.5491 26 54.5982 26.0012 54.6472 26.0036C54.6963 26.006 54.7452 26.0096 54.794 26.0144C54.8429 26.0192 54.8916 26.0253 54.9402 26.0325C54.9888 26.0397 55.0371 26.0481 55.0853 26.0577C55.1334 26.0672 55.1813 26.078 55.229 26.0899C55.2766 26.1018 55.3239 26.1149 55.3708 26.1292C55.4179 26.1434 55.4645 26.1588 55.5107 26.1754C55.5569 26.1919 55.6027 26.2096 55.6481 26.2284C55.6934 26.2472 55.7383 26.267 55.7826 26.288C55.827 26.309 55.8709 26.3311 55.9142 26.3542C55.9575 26.3774 56.0002 26.4016 56.0423 26.4268C56.0844 26.452 56.1259 26.4783 56.1667 26.5056C56.2075 26.5329 56.2477 26.5611 56.2871 26.5904C56.3265 26.6196 56.3652 26.6498 56.4032 26.681C56.4411 26.7121 56.4783 26.7442 56.5147 26.7771C56.5511 26.8101 56.5866 26.844 56.6213 26.8787C56.6561 26.9134 56.6899 26.9489 56.7229 26.9853Q56.7723 27.0399 56.819 27.0968C56.8502 27.1348 56.8804 27.1735 56.9096 27.2129C56.9389 27.2523 56.9671 27.2925 56.9944 27.3333C57.0217 27.3741 57.0479 27.4156 57.0732 27.4577C57.0984 27.4998 57.1226 27.5425 57.1458 27.5858C57.1689 27.6291 57.191 27.6729 57.212 27.7173C57.233 27.7617 57.2528 27.8066 57.2716 27.8519C57.2904 27.8973 57.3081 27.9431 57.3246 27.9893C57.3412 28.0355 57.3566 28.0822 57.3708 28.1292C57.3851 28.1761 57.3981 28.2234 57.4101 28.271C57.422 28.3187 57.4328 28.3666 57.4423 28.4147C57.452 28.4629 57.4603 28.5112 57.4675 28.5598C57.4747 28.6084 57.4807 28.6571 57.4856 28.706C57.4904 28.7548 57.494 28.8037 57.4964 28.8528C57.4988 28.9018 57.5 28.9509 57.5 29L57.5 47.108ZM29 37L40 37C41.1 37 42 36.1 42 35L42 33C42 31.9 41.1 31 40 31L29 31C27.9 31 27 31.9 27 33L27 35C27 36.1 27.9 37 29 37ZM49 37L51 37C52.1 37 53 36.1 53 35L53 33C53 31.9 52.1 31 51 31L49 31C47.9 31 47 31.9 47 33L47 35C47 36.1 47.9 37 49 37ZM27 45C27 45.55 27.45 46 28 46L30 46C30.55 46 31 45.55 31 45L31 43C31 42.45 30.55 42 30 42L28 42C27.45 42 27 42.45 27 43L27 45ZM35 46L48 46C48.55 46 49 45.55 49 45L49 43C49 42.45 48.55 42 48 42L35 42C34.45 42 34 42.45 34 43L34 45C34 45.55 34.45 46 35 46Z"></path><path id="减去顶层" fill-rule="evenodd" fill="url(#linear_1)" opacity="1" d="M59.3786 50.21L58.7637 49.514C58.7461 49.4941 58.7284 49.4745 58.7103 49.4552C58.6923 49.4358 58.674 49.4167 58.6554 49.3978C58.6369 49.3789 58.6181 49.3603 58.5991 49.3419C58.5801 49.3235 58.5608 49.3054 58.5412 49.2875C58.5217 49.2697 58.502 49.252 58.482 49.2347C58.462 49.2174 58.4418 49.2003 58.4214 49.1835C58.4009 49.1666 58.3803 49.1501 58.3594 49.1338C58.3386 49.1175 58.3175 49.1015 58.2962 49.0858C58.2749 49.0701 58.2534 49.0547 58.2317 49.0396C58.21 49.0244 58.188 49.0096 58.166 48.995C58.1439 48.9805 58.1216 48.9662 58.0991 48.9522C58.0766 48.9382 58.054 48.9246 58.0312 48.9112C58.0083 48.8978 57.9853 48.8847 57.9621 48.872C57.9389 48.8592 57.9156 48.8468 57.8921 48.8346Q57.8568 48.8164 57.8211 48.7992C57.7972 48.7876 57.7733 48.7764 57.7492 48.7655C57.725 48.7546 57.7008 48.7441 57.6764 48.7339C57.6519 48.7236 57.6274 48.7137 57.6028 48.7041C57.5781 48.6945 57.5533 48.6852 57.5284 48.6763C57.5035 48.6674 57.4785 48.6587 57.4533 48.6505C57.4282 48.6422 57.403 48.6342 57.3776 48.6267C57.3522 48.619 57.3268 48.6117 57.3013 48.6048C57.2757 48.5979 57.2501 48.5913 57.2244 48.585C57.1987 48.5788 57.1729 48.5729 57.147 48.5673C57.1211 48.5617 57.0952 48.5565 57.0692 48.5516C57.0432 48.5467 57.0171 48.5422 56.991 48.538C56.9649 48.5338 56.9387 48.5299 56.9125 48.5264C56.8863 48.5229 56.86 48.5197 56.8337 48.517C56.8073 48.5142 56.781 48.5117 56.7546 48.5096C56.7282 48.5075 56.7018 48.5057 56.6754 48.5043C56.649 48.5029 56.6225 48.5018 56.5961 48.5011C56.5696 48.5004 56.5432 48.5 56.5167 48.5L52.4563 48.5C52.4293 48.5 52.4023 48.5004 52.3754 48.5011C52.3484 48.5018 52.3214 48.5029 52.2945 48.5044C52.2675 48.5058 52.2406 48.5076 52.2138 48.5098C52.1869 48.512 52.16 48.5145 52.1332 48.5174C52.1064 48.5203 52.0796 48.5236 52.0528 48.5272C52.0261 48.5309 51.9995 48.5348 51.9728 48.5392C51.9462 48.5435 51.9196 48.5482 51.8932 48.5533C51.8667 48.5584 51.8402 48.5638 51.8138 48.5696C51.7875 48.5753 51.7612 48.5815 51.735 48.5879C51.7088 48.5944 51.6828 48.6013 51.6568 48.6085C51.6307 48.6157 51.6049 48.6232 51.579 48.6311C51.5532 48.6389 51.5275 48.6472 51.502 48.6558C51.4764 48.6644 51.451 48.6733 51.4256 48.6825C51.4003 48.6918 51.375 48.7014 51.35 48.7114C51.3249 48.7213 51.3 48.7316 51.2752 48.7422C51.2504 48.7528 51.2258 48.7638 51.2012 48.7751C51.1767 48.7863 51.1524 48.7979 51.1282 48.8099C51.104 48.8219 51.0799 48.8341 51.0561 48.8467C51.0322 48.8593 51.0085 48.8722 50.9851 48.8854C50.9615 48.8987 50.9382 48.9122 50.915 48.9261C50.8919 48.9399 50.869 48.9541 50.8462 48.9686C50.8234 48.9831 50.8008 48.9978 50.7785 49.0129C50.7561 49.028 50.734 49.0434 50.712 49.0591C50.69 49.0748 50.6683 49.0907 50.6468 49.107C50.6253 49.1233 50.604 49.1398 50.5829 49.1567C50.5618 49.1735 50.541 49.1907 50.5204 49.2081C50.4998 49.2255 50.4794 49.2432 50.4593 49.2611C50.4392 49.2791 50.4192 49.2973 50.3996 49.3158C50.38 49.3343 50.3606 49.353 50.3414 49.372C50.3223 49.3911 50.3034 49.4104 50.2848 49.4299C50.2662 49.4494 50.2478 49.4692 50.2298 49.4892C50.2117 49.5092 50.1939 49.5295 50.1763 49.55L49.6124 50.21L45.6134 50.21C44.7225 50.21 44.001 50.9599 44.001 51.8854L44.001 61.8257C43.9995 62.7497 44.721 63.4997 45.6119 63.4997L63.3866 63.4997C64.279 63.4997 64.999 62.7497 64.999 61.8257L64.999 51.8854C64.999 50.9599 64.2775 50.21 63.3866 50.21L59.3786 50.21ZM44.75 52.25C44.75 52.2746 44.7506 52.2991 44.7518 52.3236C44.753 52.3481 44.7548 52.3726 44.7572 52.397C44.7596 52.4215 44.7626 52.4458 44.7662 52.4701Q44.7716 52.5065 44.7788 52.5426C44.7836 52.5667 44.789 52.5906 44.7949 52.6145C44.8009 52.6383 44.8074 52.6619 44.8146 52.6854C44.8217 52.7089 44.8294 52.7322 44.8377 52.7553C44.8459 52.7784 44.8548 52.8013 44.8642 52.824C44.8735 52.8467 44.8835 52.8692 44.894 52.8913C44.9045 52.9135 44.9155 52.9355 44.9271 52.9571C44.9387 52.9787 44.9508 53.0001 44.9634 53.0211C44.976 53.0422 44.9892 53.0629 45.0028 53.0833C45.0164 53.1037 45.0305 53.1238 45.0451 53.1435C45.0598 53.1633 45.0749 53.1826 45.0905 53.2016C45.106 53.2206 45.1221 53.2392 45.1386 53.2573C45.155 53.2755 45.172 53.2933 45.1893 53.3106C45.2067 53.328 45.2244 53.3449 45.2426 53.3614C45.2608 53.3779 45.2794 53.3939 45.2984 53.4095C45.3174 53.4251 45.3367 53.4402 45.3564 53.4548C45.3762 53.4695 45.3962 53.4836 45.4166 53.4972C45.437 53.5108 45.4578 53.524 45.4788 53.5366C45.4999 53.5492 45.5212 53.5613 45.5429 53.5729C45.5645 53.5844 45.5864 53.5955 45.6086 53.606C45.6308 53.6165 45.6533 53.6264 45.6759 53.6358C45.6986 53.6452 45.7215 53.654 45.7446 53.6623C45.7677 53.6706 45.7911 53.6783 45.8146 53.6854C45.8381 53.6925 45.8617 53.6991 45.8855 53.705C45.9093 53.711 45.9333 53.7164 45.9573 53.7212C45.9814 53.726 46.0056 53.7302 46.0299 53.7338C46.0542 53.7374 46.0785 53.7404 46.1029 53.7428C46.1274 53.7452 46.1519 53.747 46.1764 53.7482C46.2009 53.7494 46.2254 53.75 46.25 53.75C46.2745 53.75 46.2991 53.7494 46.3236 53.7482C46.3481 53.747 46.3726 53.7452 46.397 53.7428C46.4214 53.7404 46.4458 53.7374 46.4701 53.7338C46.4943 53.7302 46.5185 53.726 46.5426 53.7212C46.5667 53.7164 46.5906 53.711 46.6144 53.705C46.6382 53.6991 46.6619 53.6925 46.6854 53.6854C46.7089 53.6783 46.7322 53.6706 46.7553 53.6623C46.7784 53.654 46.8013 53.6452 46.824 53.6358C46.8467 53.6264 46.8691 53.6165 46.8913 53.606C46.9135 53.5955 46.9354 53.5844 46.9571 53.5729C46.9787 53.5613 47.0001 53.5492 47.0211 53.5366C47.0422 53.524 47.0629 53.5108 47.0833 53.4972C47.1037 53.4836 47.1238 53.4695 47.1435 53.4548C47.1632 53.4402 47.1826 53.4251 47.2016 53.4095C47.2206 53.3939 47.2391 53.3779 47.2573 53.3614C47.2755 53.3449 47.2933 53.328 47.3106 53.3106C47.328 53.2933 47.3449 53.2755 47.3614 53.2573C47.3779 53.2392 47.3939 53.2206 47.4095 53.2016C47.4251 53.1826 47.4402 53.1633 47.4548 53.1435C47.4694 53.1238 47.4836 53.1037 47.4972 53.0833C47.5108 53.0629 47.5239 53.0422 47.5366 53.0211C47.5492 53.0001 47.5613 52.9787 47.5728 52.9571C47.5844 52.9355 47.5955 52.9135 47.606 52.8913C47.6164 52.8692 47.6264 52.8467 47.6358 52.824C47.6452 52.8013 47.654 52.7784 47.6623 52.7553C47.6706 52.7322 47.6783 52.7089 47.6854 52.6854C47.6925 52.6619 47.6991 52.6383 47.705 52.6145C47.711 52.5906 47.7164 52.5667 47.7211 52.5426C47.7259 52.5185 47.7301 52.4944 47.7338 52.4701C47.7374 52.4458 47.7404 52.4215 47.7428 52.397C47.7452 52.3726 47.747 52.3481 47.7481 52.3236C47.7494 52.2991 47.75 52.2746 47.75 52.25C47.75 52.2254 47.7494 52.2009 47.7481 52.1764C47.747 52.1519 47.7452 52.1274 47.7428 52.103C47.7404 52.0785 47.7374 52.0542 47.7338 52.0299C47.7301 52.0056 47.7259 51.9815 47.7211 51.9574C47.7164 51.9333 47.711 51.9094 47.705 51.8855C47.6991 51.8617 47.6925 51.8381 47.6854 51.8146C47.6783 51.7911 47.6706 51.7678 47.6623 51.7446C47.654 51.7215 47.6452 51.6987 47.6358 51.676C47.6264 51.6533 47.6164 51.6308 47.606 51.6087C47.5955 51.5865 47.5844 51.5645 47.5728 51.5429C47.5613 51.5212 47.5492 51.4999 47.5366 51.4789C47.5239 51.4578 47.5108 51.4371 47.4972 51.4167C47.4836 51.3963 47.4694 51.3762 47.4548 51.3565C47.4402 51.3368 47.4251 51.3174 47.4095 51.2984C47.3939 51.2794 47.3779 51.2608 47.3614 51.2427C47.3449 51.2245 47.328 51.2067 47.3106 51.1894C47.2933 51.172 47.2755 51.1551 47.2573 51.1386C47.2391 51.1221 47.2206 51.1061 47.2016 51.0905C47.1826 51.0749 47.1632 51.0598 47.1435 51.0452C47.1238 51.0305 47.1037 51.0164 47.0833 51.0028C47.0629 50.9892 47.0422 50.976 47.0211 50.9634C47.0001 50.9508 46.9787 50.9387 46.9571 50.9271C46.9354 50.9155 46.9135 50.9045 46.8913 50.894C46.8691 50.8835 46.8467 50.8736 46.824 50.8642C46.8013 50.8548 46.7784 50.846 46.7553 50.8377C46.7322 50.8294 46.7089 50.8217 46.6854 50.8146C46.6619 50.8075 46.6382 50.8009 46.6144 50.795C46.5906 50.789 46.5667 50.7836 46.5426 50.7788C46.5185 50.774 46.4943 50.7698 46.4701 50.7662C46.4458 50.7626 46.4214 50.7596 46.397 50.7572C46.3726 50.7548 46.3481 50.753 46.3236 50.7518C46.2991 50.7506 46.2745 50.75 46.25 50.75C46.2254 50.75 46.2009 50.7506 46.1764 50.7518C46.1519 50.753 46.1274 50.7548 46.1029 50.7572C46.0785 50.7596 46.0542 50.7626 46.0299 50.7662C46.0056 50.7698 45.9814 50.774 45.9573 50.7788C45.9333 50.7836 45.9093 50.789 45.8855 50.795C45.8617 50.8009 45.8381 50.8075 45.8146 50.8146C45.7911 50.8217 45.7677 50.8294 45.7446 50.8377C45.7215 50.846 45.6986 50.8548 45.6759 50.8642C45.6533 50.8736 45.6308 50.8835 45.6086 50.894C45.5864 50.9045 45.5645 50.9155 45.5429 50.9271C45.5212 50.9387 45.4999 50.9508 45.4788 50.9634C45.4578 50.976 45.437 50.9892 45.4166 51.0028C45.3962 51.0164 45.3762 51.0305 45.3564 51.0452C45.3367 51.0598 45.3174 51.0749 45.2984 51.0905C45.2794 51.1061 45.2608 51.1221 45.2426 51.1386C45.2244 51.1551 45.2067 51.172 45.1893 51.1894C45.172 51.2067 45.155 51.2245 45.1386 51.2427C45.1221 51.2608 45.106 51.2794 45.0905 51.2984C45.0749 51.3174 45.0598 51.3368 45.0451 51.3565C45.0305 51.3762 45.0164 51.3963 45.0028 51.4167C44.9892 51.4371 44.976 51.4578 44.9634 51.4789C44.9508 51.4999 44.9387 51.5212 44.9271 51.5429C44.9155 51.5645 44.9045 51.5865 44.894 51.6087C44.8835 51.6308 44.8735 51.6533 44.8642 51.676C44.8548 51.6987 44.8459 51.7215 44.8377 51.7446C44.8294 51.7678 44.8217 51.7911 44.8146 51.8146C44.8074 51.8381 44.8009 51.8617 44.7949 51.8855C44.789 51.9094 44.7836 51.9333 44.7788 51.9574C44.774 51.9815 44.7698 52.0056 44.7662 52.0299C44.7626 52.0542 44.7596 52.0786 44.7572 52.103C44.7548 52.1274 44.753 52.1519 44.7518 52.1764C44.7506 52.2009 44.75 52.2254 44.75 52.25ZM54.4996 61.8902C51.6556 61.8902 49.3487 59.5397 49.3487 56.6403C49.3487 53.7408 51.6556 51.3904 54.4996 51.3904C57.3435 51.3904 59.6504 53.7408 59.6504 56.6403C59.6504 59.5397 57.3435 61.8902 54.4996 61.8902ZM54.4996 53.7498C54.4505 53.7498 54.4014 53.751 54.3524 53.7535C54.3033 53.7559 54.2544 53.7595 54.2055 53.7643C54.1566 53.7691 54.1079 53.7751 54.0594 53.7823C54.0108 53.7895 53.9624 53.7979 53.9143 53.8075C53.8661 53.8171 53.8182 53.8278 53.7706 53.8397C53.723 53.8517 53.6757 53.8648 53.6287 53.879C53.5817 53.8933 53.5351 53.9087 53.4889 53.9252C53.4427 53.9417 53.3969 53.9594 53.3515 53.9782C53.3062 53.997 53.2613 54.0169 53.2169 54.0379C53.1725 54.0589 53.1287 54.0809 53.0854 54.1041C53.0421 54.1272 52.9994 54.1514 52.9573 54.1766C52.9152 54.2019 52.8737 54.2281 52.8329 54.2554C52.792 54.2827 52.7519 54.311 52.7125 54.3402C52.6731 54.3695 52.6344 54.3997 52.5964 54.4308C52.5585 54.4619 52.5213 54.494 52.4849 54.527C52.4485 54.5599 52.413 54.5938 52.3783 54.6285C52.3436 54.6632 52.3097 54.6988 52.2767 54.7351C52.2438 54.7715 52.2117 54.8087 52.1806 54.8466C52.1494 54.8846 52.1193 54.9233 52.09 54.9627C52.0608 55.0021 52.0325 55.0423 52.0052 55.0831C51.9779 55.1239 51.9517 55.1654 51.9264 55.2075C51.9012 55.2496 51.877 55.2923 51.8539 55.3356C51.8307 55.3789 51.8086 55.4227 51.7877 55.4671C51.7667 55.5115 51.7468 55.5564 51.728 55.6017C51.7092 55.6471 51.6915 55.6929 51.675 55.7391C51.6584 55.7853 51.6431 55.832 51.6288 55.879C51.6146 55.9259 51.6015 55.9732 51.5895 56.0208C51.5776 56.0685 51.5668 56.1164 51.5573 56.1645C51.5477 56.2126 51.5393 56.261 51.5321 56.3096C51.5249 56.3581 51.5189 56.4068 51.5141 56.4557C51.5093 56.5046 51.5056 56.5536 51.5032 56.6026C51.5008 56.6516 51.4996 56.7007 51.4996 56.7498C51.4996 56.7989 51.5008 56.8479 51.5032 56.897C51.5056 56.946 51.5093 56.995 51.5141 57.0438C51.5189 57.0927 51.5249 57.1414 51.5321 57.19C51.5393 57.2385 51.5477 57.2869 51.5573 57.335C51.5668 57.3832 51.5776 57.4311 51.5895 57.4787C51.6015 57.5263 51.6146 57.5736 51.6288 57.6206C51.6431 57.6676 51.6584 57.7142 51.675 57.7604C51.6915 57.8066 51.7092 57.8524 51.728 57.8978C51.7468 57.9431 51.7667 57.988 51.7877 58.0324C51.8086 58.0768 51.8307 58.1206 51.8539 58.1639C51.877 58.2072 51.9012 58.2499 51.9264 58.2921C51.9517 58.3342 51.9779 58.3756 52.0052 58.4164C52.0325 58.4572 52.0608 58.4974 52.09 58.5368C52.1193 58.5763 52.1494 58.615 52.1806 58.6529C52.2117 58.6909 52.2438 58.728 52.2767 58.7644C52.3097 58.8008 52.3436 58.8363 52.3783 58.8711C52.413 58.9058 52.4485 58.9396 52.4849 58.9726C52.5213 59.0055 52.5585 59.0376 52.5964 59.0688C52.6344 59.0999 52.6731 59.1301 52.7125 59.1593C52.7519 59.1886 52.792 59.2168 52.8329 59.2441C52.8737 59.2714 52.9152 59.2977 52.9573 59.3229C52.9994 59.3481 53.0421 59.3723 53.0854 59.3955C53.1287 59.4186 53.1725 59.4407 53.2169 59.4617C53.2613 59.4827 53.3062 59.5025 53.3515 59.5213Q53.4196 59.5495 53.4889 59.5743C53.5351 59.5909 53.5817 59.6063 53.6287 59.6205C53.6757 59.6348 53.723 59.6478 53.7706 59.6598C53.8182 59.6718 53.8661 59.6825 53.9143 59.692C53.9624 59.7017 54.0108 59.71 54.0594 59.7172C54.1079 59.7244 54.1566 59.7304 54.2055 59.7353C54.2544 59.7401 54.3033 59.7437 54.3524 59.7461C54.4014 59.7485 54.4505 59.7497 54.4996 59.7497C54.5486 59.7497 54.5977 59.7485 54.6467 59.7461C54.6958 59.7437 54.7448 59.7401 54.7936 59.7353C54.8425 59.7304 54.8912 59.7244 54.9398 59.7172C54.9883 59.71 55.0367 59.7017 55.0848 59.692C55.133 59.6825 55.1809 59.6718 55.2285 59.6598C55.2761 59.6478 55.3234 59.6348 55.3704 59.6205C55.4174 59.6063 55.464 59.5909 55.5102 59.5743Q55.5795 59.5495 55.6476 59.5213C55.6929 59.5025 55.7378 59.4827 55.7822 59.4617C55.8266 59.4407 55.8704 59.4186 55.9137 59.3955C55.957 59.3723 55.9997 59.3481 56.0418 59.3229C56.0839 59.2977 56.1254 59.2714 56.1662 59.2441C56.207 59.2168 56.2472 59.1886 56.2866 59.1593C56.326 59.1301 56.3648 59.0999 56.4027 59.0688C56.4407 59.0376 56.4778 59.0055 56.5142 58.9726C56.5506 58.9396 56.5861 58.9058 56.6208 58.8711C56.6556 58.8363 56.6894 58.8008 56.7224 58.7644C56.7553 58.728 56.7874 58.6909 56.8186 58.6529C56.8497 58.615 56.8799 58.5763 56.9091 58.5368C56.9384 58.4974 56.9666 58.4572 56.9939 58.4164C57.0212 58.3756 57.0474 58.3342 57.0727 58.292C57.0979 58.2499 57.1221 58.2072 57.1453 58.1639C57.1684 58.1206 57.1904 58.0768 57.2114 58.0324C57.2324 57.988 57.2523 57.9431 57.2711 57.8978C57.2899 57.8524 57.3076 57.8066 57.3241 57.7604C57.3407 57.7142 57.356 57.6676 57.3703 57.6206C57.3846 57.5736 57.3976 57.5263 57.4096 57.4787C57.4215 57.4311 57.4323 57.3832 57.4418 57.335C57.4514 57.2869 57.4598 57.2385 57.467 57.19C57.4742 57.1414 57.4802 57.0927 57.485 57.0438C57.4899 56.995 57.4935 56.946 57.4959 56.897C57.4983 56.8479 57.4995 56.7989 57.4995 56.7498C57.4995 56.7007 57.4983 56.6516 57.4959 56.6026C57.4935 56.5536 57.4899 56.5046 57.485 56.4557C57.4802 56.4068 57.4742 56.3581 57.467 56.3096C57.4598 56.261 57.4514 56.2126 57.4418 56.1645C57.4323 56.1164 57.4215 56.0685 57.4096 56.0208C57.3976 55.9732 57.3846 55.9259 57.3703 55.879C57.356 55.832 57.3407 55.7853 57.3241 55.7391C57.3076 55.6929 57.2899 55.6471 57.2711 55.6017C57.2523 55.5564 57.2324 55.5115 57.2114 55.4671C57.1904 55.4227 57.1684 55.3789 57.1453 55.3356C57.1221 55.2923 57.0979 55.2496 57.0727 55.2075C57.0474 55.1654 57.0212 55.1239 56.9939 55.0831C56.9666 55.0423 56.9384 55.0021 56.9091 54.9627C56.8799 54.9233 56.8497 54.8846 56.8186 54.8466C56.7874 54.8087 56.7553 54.7715 56.7224 54.7351C56.6894 54.6988 56.6556 54.6632 56.6208 54.6285C56.5861 54.5938 56.5506 54.5599 56.5142 54.527C56.4778 54.494 56.4407 54.4619 56.4027 54.4308C56.3648 54.3997 56.326 54.3695 56.2866 54.3402C56.2472 54.311 56.207 54.2827 56.1662 54.2554C56.1254 54.2281 56.0839 54.2019 56.0418 54.1766C55.9997 54.1514 55.957 54.1272 55.9137 54.1041C55.8704 54.0809 55.8266 54.0589 55.7822 54.0379C55.7378 54.0169 55.6929 53.997 55.6476 53.9782C55.6022 53.9594 55.5564 53.9417 55.5102 53.9252C55.464 53.9087 55.4174 53.8933 55.3704 53.879C55.3234 53.8648 55.2761 53.8517 55.2285 53.8397C55.1809 53.8278 55.133 53.8171 55.0848 53.8075C55.0367 53.7979 54.9883 53.7895 54.9398 53.7823C54.8912 53.7751 54.8425 53.7691 54.7936 53.7643C54.7448 53.7595 54.6958 53.7559 54.6467 53.7535C54.5977 53.751 54.5486 53.7498 54.4996 53.7498Z"></path></g><defs><linearGradient id="linear_0" x1="0%" y1="50%" x2="100%" y2="50%" gradientUnits="objectBoundingBox"><stop offset="0" stop-color="#598BFC" stop-opacity="1" /><stop offset="1" stop-color="#178BFF" stop-opacity="1" /></linearGradient><linearGradient id="linear_1" x1="-0.00010605855753662241%" y1="50%" x2="100.00010605855753%" y2="50%" gradientUnits="objectBoundingBox"><stop offset="0" stop-color="#598BFC" stop-opacity="1" /><stop offset="1" stop-color="#178BFF" stop-opacity="1" /></linearGradient></defs></svg>