<svg xmlns="http://www.w3.org/2000/svg" xmlns:xlink="http://www.w3.org/1999/xlink" width="88" height="88" viewBox="0 0 88 88" fill="none"><g opacity="1"  transform="translate(0 0)"><path id="减去顶层" fill-rule="evenodd" fill="url(#linear_0)" opacity="1" d="M45.0998 24.17C45.0998 23.5231 44.5746 23 43.9298 23C43.285 23 42.7598 23.5231 42.7598 24.17L42.7598 27.84L45.0998 27.84L45.0998 24.17ZM58.3498 31.48L60.6498 29.17C61.1077 28.7106 61.1077 27.9694 60.6498 27.51C60.1919 27.0506 59.4477 27.0506 58.9898 27.51L56.6998 29.82L58.3498 31.48ZM29.6398 31.92L31.2898 30.27L28.9898 27.96C28.5319 27.5006 27.7877 27.5006 27.3298 27.96C26.8719 28.4194 26.8719 29.1606 27.3298 29.62L29.6398 31.92ZM30.5798 56.83C30.5798 57.4769 31.105 58 31.7498 58L56.3998 58C57.0446 58 57.5698 57.4769 57.5698 56.83L57.5698 43.09C57.5698 39.4759 56.171 36.0647 53.6198 33.51C51.0686 30.9553 47.6723 29.55 44.0698 29.55C40.4672 29.55 37.0763 30.9506 34.5298 33.51C31.9832 36.0647 30.5798 39.4759 30.5798 43.09L30.5798 56.83ZM38.9064 41.3775C38.5286 40.8559 37.7986 40.735 37.2769 41.1127C36.7504 41.4992 36.6295 42.2293 37.0073 42.751L40.8189 48.0093C41.0504 48.3385 41.4384 48.525 41.8421 48.4926C44.0025 47.4986 46.7029 45.9663 47.5971 45.6985L50.9613 50.5224C51.2794 51.0915 51.985 51.2787 52.5541 50.9607C52.7499 50.8503 52.9024 50.6939 53.0068 50.5003C53.1871 50.1658 53.1961 49.7275 52.9923 49.3678L48.9223 43.3454C48.9044 43.3148 48.8866 43.2833 48.8686 43.2515C48.6725 42.9047 48.4536 42.5176 47.889 42.7543C46.9955 42.9998 42.3406 45.3759 42.006 45.4909L38.9064 41.3775Z"></path><path id="矩形 1" fill-rule="evenodd" fill="url(#linear_1)" opacity="1" d="M27 66L61 66C62.1 66 63 65.1 63 64L63 64C63 62.9 62.1 62 61 62L27 62C25.9 62 25 62.9 25 64L25 64C25 65.1 25.9 66 27 66Z"></path></g><defs><linearGradient id="linear_0" x1="0.010071500300674751%" y1="50%" x2="99.98992849969932%" y2="50%" gradientUnits="objectBoundingBox"><stop offset="0" stop-color="#6C6CEA" stop-opacity="1" /><stop offset="1" stop-color="#8368FC" stop-opacity="1" /></linearGradient><linearGradient id="linear_1" x1="0%" y1="50%" x2="100%" y2="50%" gradientUnits="objectBoundingBox"><stop offset="0" stop-color="#6C6CEA" stop-opacity="1" /><stop offset="1" stop-color="#8368FC" stop-opacity="1" /></linearGradient></defs></svg>