<svg xmlns="http://www.w3.org/2000/svg" xmlns:xlink="http://www.w3.org/1999/xlink" width="88" height="88" viewBox="0 0 88 88" fill="none"><g opacity="1"  transform="translate(0 0)"><g opacity="1"  transform="translate(22 19)"><path id="路径 4" fill-rule="evenodd" fill="url(#linear_0)" opacity="1" d="M13.7149 0L20.8929 0C22.9438 0 23.9692 1.00472 23.9692 3.01416C23.9692 5.0236 22.9438 6.02832 20.8929 6.02832L13.7149 6.02832C11.6641 6.02832 10.6387 5.0236 10.6387 3.01416C10.6387 1.00472 11.6641 0 13.7149 0Z"></path><path id="路径 5" fill-rule="evenodd" fill="url(#linear_1)" opacity="1" d="M31.9188 28.4713C32.1452 28.4713 32.3791 28.4765 32.6049 28.4908C32.8309 28.5051 33.0566 28.5205 33.2811 28.5493C33.5056 28.578 33.7252 28.6133 33.9473 28.6565C34.1694 28.6996 34.3849 28.7552 34.6036 28.8123L34.6036 8.00175C34.6036 7.93393 34.6036 7.86486 34.6036 7.79715C34.6036 7.72944 34.5837 7.65997 34.5837 7.59255C34.5837 7.52507 34.5742 7.45499 34.5638 7.38795C34.5535 7.32091 34.5376 7.25957 34.524 7.1931C34.5104 7.12667 34.4912 7.05425 34.4743 6.9885C34.4573 6.92275 34.4449 6.85845 34.4246 6.79364C34.4044 6.72878 34.3784 6.66258 34.355 6.59878C34.3316 6.53499 34.312 6.47624 34.2854 6.41367C34.2588 6.35104 34.2256 6.28979 34.1959 6.22856C34.1663 6.16733 34.1391 6.10323 34.1064 6.04345C34.0737 5.98367 34.0426 5.92618 34.007 5.86808C33.9713 5.80997 33.9261 5.74908 33.8877 5.69271C33.8491 5.63638 33.8096 5.5815 33.7683 5.52708C33.7271 5.47266 33.683 5.42361 33.6391 5.37119C33.5951 5.31878 33.5563 5.26554 33.5098 5.21531C33.4633 5.16513 33.4096 5.11712 33.3606 5.06917C33.3117 5.02122 33.2628 4.97832 33.2115 4.93277C33.1603 4.88722 33.1158 4.8394 33.0623 4.79637C33.0088 4.75333 32.9488 4.71013 32.8933 4.66971C32.8378 4.6293 32.7818 4.59053 32.7243 4.5528C32.6668 4.51512 32.6046 4.48057 32.5453 4.44563C32.486 4.41074 32.4273 4.38024 32.3663 4.3482C32.3053 4.31616 32.2498 4.2798 32.1873 4.25077C32.1248 4.22169 32.0623 4.1989 31.9984 4.17283C31.9345 4.14682 31.8646 4.11783 31.7995 4.09489C31.7344 4.07195 31.6669 4.05625 31.6006 4.03643C31.5344 4.01662 31.4688 3.99461 31.4018 3.97797C31.3347 3.9614 31.2707 3.94266 31.2029 3.92926C31.1351 3.91592 31.0625 3.91019 30.9941 3.90003C30.9256 3.88993 30.8641 3.8708 30.7952 3.8708C30.7264 3.8708 30.6555 3.86106 30.5864 3.86106C30.5173 3.86106 30.4468 3.85132 30.3776 3.85132L26.2709 3.85132C26.2709 3.91886 26.2609 3.9886 26.2609 4.05592C26.2609 4.12329 26.251 4.18368 26.251 4.25077C26.251 4.31781 26.2325 4.38878 26.2212 4.45537C26.2098 4.52196 26.196 4.58425 26.1814 4.65023C26.1668 4.7162 26.1495 4.78958 26.1317 4.85483C26.1138 4.92002 26.0931 4.98538 26.072 5.04968C26.0509 5.11392 26.0266 5.17156 26.0024 5.23479C25.9782 5.29798 25.9502 5.35789 25.9229 5.41991C25.8955 5.48192 25.8736 5.5444 25.8433 5.60502C25.813 5.66564 25.7772 5.73102 25.7439 5.79013C25.7106 5.84924 25.6706 5.90801 25.6345 5.9655C25.5984 6.023 25.5641 6.07543 25.5251 6.13113C25.4862 6.18678 25.4475 6.24295 25.4058 6.29676C25.3642 6.35057 25.3208 6.4009 25.2765 6.45264C25.2322 6.50439 25.1841 6.55896 25.1373 6.60853C25.0906 6.65815 25.0472 6.70739 24.9981 6.75467C24.949 6.802 24.9004 6.84613 24.849 6.89107C24.7975 6.936 24.7434 6.97525 24.6899 7.01772C24.6363 7.0602 24.5765 7.10453 24.5208 7.14438C24.4652 7.18423 24.4093 7.22412 24.3518 7.26129C24.2943 7.29847 24.242 7.33403 24.1827 7.36847C24.1235 7.4029 24.0547 7.43435 23.9938 7.46589C23.9329 7.49748 23.8773 7.52494 23.8148 7.55358C23.7524 7.58221 23.6896 7.61558 23.6259 7.64126C23.5622 7.66694 23.492 7.68686 23.427 7.70946C23.3621 7.73207 23.3041 7.75813 23.2381 7.77766C23.1721 7.79715 23.1061 7.80997 23.0392 7.82638C22.9724 7.84273 22.898 7.86192 22.8304 7.87509C22.7628 7.88826 22.6997 7.89433 22.6315 7.90432C22.5634 7.91426 22.4914 7.93355 22.4227 7.93355C22.3541 7.93355 22.2926 7.95303 22.2239 7.95303C22.1551 7.95303 22.084 7.95303 22.015 7.95303L12.5985 7.95303C12.5295 7.95303 12.4585 7.95303 12.3897 7.95303C12.3209 7.95303 12.2495 7.93355 12.1809 7.93355C12.1122 7.93355 12.0502 7.91431 11.982 7.90432C11.9138 7.89438 11.8408 7.88826 11.7732 7.87509C11.7056 7.86192 11.6412 7.84273 11.5743 7.82638C11.5074 7.80997 11.4414 7.79715 11.3754 7.77766C11.3094 7.75818 11.2415 7.73207 11.1766 7.70946C11.1116 7.68686 11.0514 7.66694 10.9876 7.64126C10.9239 7.61558 10.8612 7.58221 10.7987 7.55358C10.7362 7.52494 10.6707 7.49748 10.6098 7.46589C10.5489 7.43435 10.4901 7.4029 10.4308 7.36847C10.3715 7.33408 10.3093 7.29847 10.2518 7.26129C10.1943 7.22406 10.1384 7.18423 10.0828 7.14438C10.0271 7.10453 9.97725 7.06989 9.92367 7.02747C9.8701 6.98499 9.81602 6.936 9.76458 6.89107C9.71305 6.84613 9.66456 6.802 9.61542 6.75467C9.56629 6.70734 9.51301 6.65809 9.46627 6.60853C9.41953 6.5589 9.37141 6.50439 9.32706 6.45264C9.2828 6.4009 9.24944 6.35057 9.20774 6.29676C9.16612 6.24301 9.11752 6.18683 9.07847 6.13113C9.03951 6.07543 9.00524 6.023 8.96909 5.9655C8.93295 5.90801 8.90298 5.84924 8.86966 5.79013C8.83633 5.73102 8.80056 5.6657 8.77022 5.60502C8.73989 5.5444 8.70807 5.49167 8.68073 5.42965C8.65338 5.36769 8.62536 5.29803 8.60118 5.23479C8.57691 5.17156 8.56263 5.11392 8.54152 5.04968C8.52044 4.98538 8.49974 4.92007 8.48186 4.85483C8.46397 4.78963 8.44684 4.7162 8.43214 4.65023C8.4175 4.58419 8.40376 4.52196 8.39237 4.45537C8.38097 4.38878 8.36253 4.31787 8.36253 4.25077C8.36253 4.18373 8.34265 4.12329 8.34265 4.05592C8.34265 3.98855 8.3327 3.91886 8.3327 3.85132L4.23596 3.85132C4.16674 3.85132 4.09625 3.86106 4.02714 3.86106C3.95804 3.86106 3.88714 3.8708 3.81833 3.8708C3.74945 3.8708 3.67793 3.88993 3.60951 3.90003C3.54109 3.91019 3.47843 3.91592 3.41064 3.92926C3.34279 3.94266 3.26893 3.9614 3.20183 3.97797C3.13472 3.99461 3.0691 4.01662 3.00296 4.03643C2.93676 4.05625 2.8692 4.07195 2.80408 4.09489C2.73897 4.11783 2.67901 4.14682 2.61516 4.17283C2.55124 4.1989 2.48872 4.22169 2.42623 4.25077C2.36368 4.2798 2.29825 4.31616 2.2373 4.3482C2.17629 4.38024 2.11762 4.41074 2.05832 4.44563C1.99901 4.48057 1.93687 4.51512 1.87933 4.5528C1.82185 4.59053 1.76584 4.6293 1.71029 4.66971C1.65475 4.71013 1.60469 4.75333 1.5512 4.79637C1.4977 4.8394 1.44331 4.88722 1.3921 4.93277C1.34083 4.97832 1.29188 5.02122 1.24295 5.06917C1.19401 5.11712 1.15022 5.16513 1.10374 5.21531C1.05725 5.26554 1.00845 5.31878 0.964525 5.37119C0.920603 5.42361 0.876508 5.47266 0.835259 5.52708C0.794014 5.5815 0.754391 5.63638 0.715936 5.69271C0.677427 5.74908 0.642218 5.80997 0.606557 5.86808C0.570953 5.92618 0.539823 5.98367 0.507122 6.04345C0.474423 6.10323 0.43731 6.16733 0.407686 6.22856C0.378007 6.28979 0.354742 6.35104 0.328138 6.41367C0.30159 6.47624 0.272001 6.53499 0.248589 6.59878C0.225173 6.66258 0.209153 6.72878 0.188928 6.79364C0.168704 6.85845 0.146243 6.92275 0.129266 6.9885C0.112347 7.05425 0.0932188 7.12667 0.0795485 7.1931C0.0659333 7.25957 0.0600864 7.32091 0.0497178 7.38795C0.0394066 7.45499 0.0198871 7.52507 0.0198871 7.59255C0.0198871 7.65997 0.00994356 7.72944 0.00994356 7.79715C0.00994356 7.86486 0 7.93393 0 8.00175L0 38.6428C0 38.7106 0.00994356 38.7798 0.00994356 38.8474C0.00994356 38.9151 0.0198871 38.9749 0.0198871 39.0423C0.0198871 39.1097 0.0393492 39.1798 0.0497178 39.2469C0.0600864 39.3139 0.0658758 39.3851 0.0795485 39.4515C0.0932215 39.5179 0.112232 39.5806 0.129266 39.6463C0.146243 39.712 0.168704 39.7764 0.188928 39.8412C0.209208 39.906 0.225176 39.9723 0.248589 40.036C0.272061 40.0998 0.301533 40.1586 0.328138 40.2211C0.35474 40.2837 0.378007 40.3451 0.407686 40.4063C0.437368 40.4675 0.474423 40.5317 0.507122 40.5914C0.539821 40.6511 0.570896 40.7087 0.606557 40.7667C0.642219 40.8249 0.677482 40.8859 0.715936 40.9421C0.754445 40.9985 0.794015 41.0534 0.835259 41.1077C0.876508 41.1622 0.920603 41.2113 0.964525 41.2636C1.00845 41.316 1.05725 41.3694 1.10374 41.4195C1.15022 41.4697 1.19401 41.5178 1.24295 41.5657C1.29188 41.6135 1.34089 41.6662 1.3921 41.7118C1.44337 41.7573 1.49776 41.7955 1.5512 41.8385C1.60469 41.8814 1.65475 41.9247 1.71029 41.9651C1.76584 42.0055 1.83179 42.0443 1.88928 42.082C1.94676 42.1197 1.99901 42.1543 2.05832 42.1892C2.11762 42.224 2.17635 42.2546 2.2373 42.2866C2.29825 42.3186 2.36374 42.355 2.42623 42.384C2.48872 42.4131 2.5513 42.436 2.61516 42.462C2.67901 42.488 2.73903 42.5171 2.80408 42.5399C2.8692 42.5629 2.93682 42.5786 3.00296 42.5984C3.0691 42.6182 3.13477 42.6403 3.20183 42.6568C3.26888 42.6734 3.34285 42.6922 3.41064 42.7056C3.47849 42.7189 3.54115 42.7247 3.60951 42.7348C3.67787 42.7449 3.74951 42.764 3.81833 42.764C3.88714 42.764 3.95804 42.7738 4.02714 42.7738C4.09619 42.7738 4.1668 42.7835 4.23596 42.7835L22.4426 42.7835C22.355 42.5908 22.2692 42.3966 22.194 42.1989C22.1188 42.0013 22.0477 41.7967 21.9852 41.5949C21.9227 41.393 21.8657 41.1961 21.8162 40.9908C21.7666 40.7855 21.7234 40.5752 21.6869 40.3673C21.6504 40.1594 21.6206 39.9535 21.5974 39.7438C21.5742 39.534 21.5477 39.3212 21.5477 39.1105C21.5477 38.8997 21.5378 38.6881 21.5378 38.4772C21.5378 38.2663 21.5607 38.0542 21.5775 37.8439C21.5944 37.6336 21.617 37.4293 21.6471 37.2204C21.6773 37.0115 21.7131 36.8035 21.7565 36.5968C21.7998 36.3902 21.8494 36.1867 21.9057 35.983C21.9621 35.7794 22.0255 35.5788 22.0946 35.379C22.1638 35.1792 22.2317 34.9798 22.3134 34.7847C22.395 34.5895 22.4879 34.3899 22.5818 34.2001C22.6757 34.0103 22.7743 33.8285 22.8801 33.6448C22.9859 33.461 23.101 33.2761 23.2182 33.0992C23.3355 32.9223 23.4579 32.7523 23.5861 32.5828C23.7144 32.4133 23.8452 32.2473 23.9839 32.0859C24.1226 31.9246 24.2628 31.7708 24.4114 31.6183C24.5601 31.4656 24.7207 31.3134 24.8788 31.1701C25.0369 31.0268 25.1992 30.8943 25.366 30.7609C25.5329 30.6275 25.6981 30.4941 25.8731 30.3712C26.0481 30.2482 26.2277 30.1325 26.4101 30.0205C26.5925 29.9084 26.7777 29.7997 26.9669 29.6989C27.1561 29.5982 27.3485 29.5054 27.5437 29.4164C27.7389 29.3274 27.9398 29.2498 28.1403 29.1728C28.3407 29.0959 28.5418 29.0231 28.7468 28.9585C28.9518 28.8939 29.1547 28.8351 29.3633 28.7831C29.572 28.7311 29.7882 28.686 29.9997 28.6467C30.2113 28.6075 30.4225 28.5755 30.6361 28.5493C30.8497 28.523 31.0675 28.504 31.2824 28.4908C31.4974 28.4777 31.7134 28.4713 31.9288 28.4713L31.9188 28.4713ZM6.83123 14.4807L27.7724 14.4807C27.7933 14.4807 27.8111 14.4904 27.832 14.4904C27.853 14.4904 27.8808 14.4904 27.9016 14.4904C27.9226 14.4904 27.9405 14.5002 27.9613 14.5002C27.9821 14.5002 28.0004 14.5099 28.021 14.5099C28.0415 14.5099 28.0602 14.5197 28.0806 14.5197C28.101 14.5197 28.1202 14.5392 28.1403 14.5392C28.1604 14.5392 28.1802 14.5586 28.1999 14.5586C28.2197 14.5586 28.2402 14.5781 28.2596 14.5781C28.279 14.5781 28.3003 14.6074 28.3193 14.6074C28.3382 14.6074 28.3604 14.6366 28.3789 14.6366C28.3975 14.6366 28.4107 14.6553 28.4286 14.6658C28.4467 14.6764 28.4709 14.6836 28.4883 14.695C28.5058 14.7064 28.5212 14.7217 28.538 14.734C28.5549 14.7462 28.5715 14.7599 28.5877 14.773C28.604 14.786 28.622 14.7981 28.6375 14.812C28.653 14.8258 28.6624 14.8364 28.6772 14.8509C28.692 14.8655 28.7029 14.8844 28.717 14.8996C28.7311 14.9148 28.7535 14.9324 28.7667 14.9484C28.7801 14.9643 28.7841 14.9806 28.7966 14.9971C28.809 15.0136 28.8246 15.0287 28.8363 15.0458C28.848 15.0629 28.8653 15.0769 28.8761 15.0945C28.8869 15.1122 28.9059 15.1348 28.9059 15.153C28.9059 15.1711 28.9258 15.1831 28.9258 15.2017C28.9258 15.2202 28.9557 15.2411 28.9557 15.2601C28.9557 15.2791 28.9755 15.2992 28.9755 15.3186C28.9755 15.3379 28.9954 15.3574 28.9954 15.377C28.9954 15.3967 29.0153 15.4156 29.0153 15.4355C29.0153 15.4554 29.0253 15.4738 29.0253 15.494C29.0253 15.5141 29.0352 15.5321 29.0352 15.5524C29.0352 15.5728 29.0451 15.6001 29.0451 15.6206C29.0451 15.641 29.0551 15.6586 29.0551 15.6791C29.0551 15.6996 29.0551 15.717 29.0551 15.7375C29.0551 15.758 29.0551 15.7852 29.0551 15.8057C29.0551 15.8262 29.0451 15.8437 29.0451 15.8642C29.0451 15.8847 29.0352 15.9023 29.0352 15.9226C29.0352 15.943 29.0253 15.9609 29.0253 15.9811C29.0253 16.0013 29.0153 16.0293 29.0153 16.0493C29.0153 16.0692 28.9954 16.0881 28.9954 16.1077C28.9954 16.1274 28.9755 16.1469 28.9755 16.1662C28.9755 16.1855 28.9557 16.2057 28.9557 16.2247C28.9557 16.2437 28.9258 16.2548 28.9258 16.2734C28.9258 16.292 28.9059 16.3137 28.9059 16.3318C28.9059 16.35 28.8869 16.3726 28.8761 16.3903C28.8653 16.4079 28.848 16.4219 28.8363 16.439C28.8246 16.4562 28.809 16.4712 28.7966 16.4877C28.7841 16.5042 28.7801 16.5205 28.7667 16.5364C28.7535 16.5523 28.7311 16.57 28.717 16.5851C28.7029 16.6004 28.692 16.6095 28.6772 16.6241C28.6624 16.6386 28.653 16.659 28.6375 16.6728C28.622 16.6866 28.604 16.6988 28.5877 16.7118C28.5715 16.7249 28.5549 16.7385 28.538 16.7508C28.5212 16.763 28.5058 16.7685 28.4883 16.78C28.4709 16.7915 28.4467 16.8084 28.4286 16.819C28.4107 16.8295 28.3975 16.8482 28.3789 16.8482C28.3604 16.8482 28.3382 16.8774 28.3193 16.8774C28.3003 16.8774 28.279 16.8969 28.2596 16.8969C28.2402 16.8969 28.2197 16.9261 28.1999 16.9261C28.1802 16.9261 28.1604 16.9456 28.1403 16.9456C28.1202 16.9456 28.101 16.9554 28.0806 16.9554C28.0602 16.9554 28.0415 16.9749 28.021 16.9749C28.0004 16.9749 27.9821 16.9846 27.9613 16.9846C27.9405 16.9846 27.9226 16.9943 27.9016 16.9943C27.8808 16.9943 27.853 16.9943 27.832 16.9943C27.8111 16.9943 27.7933 16.9943 27.7724 16.9943L6.83123 16.9943C6.81027 16.9943 6.79253 16.9943 6.77157 16.9943C6.7506 16.9943 6.73275 16.9943 6.7119 16.9943C6.69099 16.9943 6.67298 16.9846 6.65224 16.9846C6.6315 16.9846 6.60321 16.9749 6.58264 16.9749C6.56202 16.9749 6.54331 16.9554 6.52298 16.9554C6.50264 16.9554 6.48337 16.9456 6.46331 16.9456C6.44321 16.9456 6.42337 16.9261 6.40365 16.9261C6.38389 16.9261 6.36336 16.8969 6.34399 16.8969C6.32462 16.8969 6.3033 16.8774 6.28433 16.8774C6.26536 16.8774 6.25313 16.8482 6.23461 16.8482C6.2161 16.8482 6.19296 16.8295 6.17495 16.819C6.15701 16.8084 6.14273 16.7915 6.12523 16.78C6.1078 16.7685 6.09232 16.763 6.07552 16.7508C6.05866 16.7385 6.04203 16.7249 6.0258 16.7118C6.00956 16.6987 5.99157 16.6866 5.97608 16.6728C5.96053 16.659 5.94123 16.6386 5.92636 16.6241C5.91155 16.6095 5.90066 16.6004 5.88659 16.5851C5.87246 16.57 5.86009 16.5523 5.84681 16.5364C5.83348 16.5205 5.81952 16.5042 5.80704 16.4877C5.7945 16.4712 5.77889 16.4562 5.76727 16.439C5.75558 16.4219 5.7482 16.408 5.73743 16.3903C5.72667 16.3727 5.7076 16.35 5.7076 16.3318C5.7076 16.3137 5.67777 16.292 5.67777 16.2734C5.67777 16.2548 5.64794 16.2437 5.64794 16.2247C5.64794 16.2057 5.62806 16.1855 5.62806 16.1662C5.62806 16.1469 5.60817 16.1274 5.60817 16.1077C5.60817 16.0881 5.58828 16.0692 5.58828 16.0493C5.58828 16.0293 5.57834 16.0013 5.57834 15.9811C5.57834 15.9609 5.56839 15.943 5.56839 15.9226C5.56839 15.9023 5.55845 15.8847 5.55845 15.8642C5.55845 15.8437 5.55845 15.8262 5.55845 15.8057C5.55845 15.7852 5.55845 15.758 5.55845 15.7375C5.55845 15.717 5.55845 15.6996 5.55845 15.6791C5.55845 15.6586 5.55845 15.641 5.55845 15.6206C5.55845 15.6001 5.56839 15.5728 5.56839 15.5524C5.56839 15.5321 5.57834 15.5141 5.57834 15.494C5.57834 15.4738 5.58828 15.4554 5.58828 15.4355C5.58828 15.4156 5.60817 15.3967 5.60817 15.377C5.60817 15.3574 5.62806 15.3379 5.62806 15.3186C5.62806 15.2992 5.64794 15.2791 5.64794 15.2601C5.64794 15.2411 5.67777 15.2202 5.67777 15.2017C5.67777 15.1831 5.7076 15.1711 5.7076 15.153C5.7076 15.1348 5.72667 15.1122 5.73743 15.0945C5.7482 15.0769 5.75558 15.0629 5.76727 15.0458C5.77889 15.0287 5.7945 15.0136 5.80704 14.9971C5.81952 14.9806 5.83348 14.9643 5.84681 14.9484C5.86009 14.9324 5.87246 14.9148 5.88659 14.8996C5.90066 14.8844 5.91155 14.8655 5.92636 14.8509C5.94123 14.8364 5.96053 14.8258 5.97608 14.812C5.99157 14.7981 6.00956 14.786 6.0258 14.773C6.04203 14.7599 6.05866 14.7462 6.07552 14.734C6.09232 14.7217 6.1078 14.7064 6.12523 14.695C6.14273 14.6836 6.15701 14.6764 6.17495 14.6658C6.19296 14.6553 6.2161 14.6366 6.23461 14.6366C6.25313 14.6366 6.26536 14.6074 6.28433 14.6074C6.30324 14.6074 6.32457 14.5781 6.34399 14.5781C6.36336 14.5781 6.38389 14.5586 6.40365 14.5586C6.42337 14.5586 6.44321 14.5392 6.46331 14.5392C6.48337 14.5392 6.50264 14.5197 6.52298 14.5197C6.54331 14.5197 6.56202 14.5099 6.58264 14.5099C6.60321 14.5099 6.6315 14.5002 6.65224 14.5002C6.67298 14.5002 6.69099 14.4904 6.7119 14.4904C6.73275 14.4904 6.7506 14.4904 6.77157 14.4904C6.79253 14.4904 6.81027 14.4807 6.83123 14.4807ZM5.55845 23.3077C5.55845 23.289 5.55845 23.2775 5.55845 23.259C5.55845 23.2404 5.55845 23.219 5.55845 23.2005C5.55845 23.1819 5.56839 23.1605 5.56839 23.142C5.56839 23.1236 5.57834 23.1116 5.57834 23.0933C5.57834 23.0751 5.58828 23.053 5.58828 23.0349C5.58828 23.0169 5.60817 23.004 5.60817 22.9862C5.60817 22.9683 5.61811 22.9452 5.61811 22.9277C5.61811 22.9102 5.64794 22.8961 5.64794 22.879C5.64794 22.8617 5.66783 22.8374 5.66783 22.8205C5.66783 22.8037 5.68772 22.7882 5.68772 22.7718C5.68772 22.7554 5.71755 22.7391 5.71755 22.7231C5.71755 22.7071 5.73678 22.6996 5.74738 22.6841C5.75791 22.6686 5.77581 22.6504 5.78715 22.6354C5.79849 22.6204 5.80491 22.6011 5.81698 22.5867C5.82901 22.5723 5.84394 22.5615 5.85676 22.5477C5.86952 22.5339 5.88309 22.5219 5.89653 22.5088C5.90992 22.4955 5.92218 22.4823 5.93631 22.4698C5.95038 22.4573 5.96138 22.4426 5.97608 22.4308C5.99072 22.419 6.01053 22.4127 6.0258 22.4016C6.04107 22.3905 6.05968 22.373 6.07552 22.3626C6.0913 22.3523 6.09899 22.3334 6.11529 22.3334C6.13159 22.3334 6.14826 22.3042 6.16501 22.3042C6.18176 22.3042 6.20747 22.2847 6.22467 22.2847C6.24182 22.2847 6.25684 22.2554 6.27439 22.2554C6.29199 22.2554 6.30622 22.236 6.3241 22.236C6.34199 22.236 6.36559 22.2262 6.38377 22.2262C6.40194 22.2262 6.41503 22.2067 6.43348 22.2067C6.45188 22.2067 6.47452 22.197 6.49315 22.197C6.51183 22.197 6.52406 22.1872 6.54286 22.1872C6.56166 22.1872 6.58361 22.1775 6.60252 22.1775C6.62144 22.1775 6.64322 22.1775 6.66219 22.1775C6.68116 22.1775 6.69287 22.1678 6.7119 22.1678L23.7154 22.1678C23.7344 22.1678 23.7461 22.1775 23.7651 22.1775C23.7841 22.1775 23.8059 22.1775 23.8248 22.1775C23.8437 22.1775 23.8656 22.1872 23.8844 22.1872C23.9032 22.1872 23.9154 22.197 23.9342 22.197C23.9528 22.197 23.9754 22.2067 23.9938 22.2067C24.0123 22.2067 24.0253 22.2262 24.0435 22.2262C24.0617 22.2262 24.0853 22.236 24.1032 22.236C24.1211 22.236 24.1354 22.2554 24.1529 22.2554C24.1705 22.2554 24.1954 22.2847 24.2126 22.2847C24.2297 22.2847 24.2455 22.3042 24.2623 22.3042C24.279 22.3042 24.2957 22.3334 24.312 22.3334C24.3283 22.3334 24.336 22.3523 24.3518 22.3626C24.3676 22.373 24.3863 22.3905 24.4015 22.4016C24.4168 22.4127 24.4365 22.419 24.4512 22.4308C24.4659 22.4426 24.4769 22.4573 24.491 22.4698C24.5051 22.4823 24.5173 22.4956 24.5308 22.5088C24.5442 22.522 24.5578 22.5339 24.5705 22.5477C24.5833 22.5615 24.5983 22.5723 24.6103 22.5867C24.6224 22.6011 24.6288 22.6204 24.6401 22.6354C24.6515 22.6504 24.6694 22.6686 24.6799 22.6841C24.6905 22.6996 24.7097 22.7071 24.7097 22.7231C24.7097 22.7391 24.7396 22.7554 24.7396 22.7718C24.7396 22.7882 24.7595 22.8037 24.7595 22.8205C24.7595 22.8374 24.7794 22.8617 24.7794 22.879C24.7794 22.8961 24.8092 22.9102 24.8092 22.9277C24.8092 22.9452 24.8191 22.9683 24.8191 22.9862C24.8191 23.004 24.839 23.0169 24.839 23.0349C24.839 23.053 24.849 23.0751 24.849 23.0933C24.849 23.1116 24.8589 23.1236 24.8589 23.142C24.8589 23.1605 24.8688 23.1819 24.8688 23.2005C24.8688 23.219 24.8688 23.2404 24.8688 23.259C24.8688 23.2775 24.8688 23.289 24.8688 23.3077L24.8688 23.5415C24.8688 23.5602 24.8688 23.5814 24.8688 23.6C24.8688 23.6185 24.8688 23.6399 24.8688 23.6584C24.8688 23.6769 24.8589 23.6984 24.8589 23.7169C24.8589 23.7352 24.849 23.7473 24.849 23.7656C24.849 23.7839 24.839 23.806 24.839 23.824C24.839 23.842 24.8191 23.8549 24.8191 23.8727C24.8191 23.8906 24.8092 23.9137 24.8092 23.9312C24.8092 23.9487 24.7794 23.9628 24.7794 23.9799C24.7794 23.9971 24.7595 24.0118 24.7595 24.0286C24.7595 24.0455 24.7396 24.0609 24.7396 24.0773C24.7396 24.0938 24.7097 24.1101 24.7097 24.1261C24.7097 24.1421 24.6904 24.1593 24.6799 24.1748C24.6693 24.1903 24.6515 24.2086 24.6401 24.2235C24.6288 24.2385 24.6224 24.2481 24.6103 24.2625C24.5983 24.2769 24.5833 24.2974 24.5705 24.3112C24.5578 24.325 24.5442 24.337 24.5308 24.3501C24.5173 24.3633 24.5051 24.3766 24.491 24.3891C24.4769 24.4016 24.4659 24.4163 24.4512 24.4281C24.4365 24.4399 24.4168 24.4462 24.4015 24.4573C24.3862 24.4685 24.3676 24.4762 24.3518 24.4865C24.336 24.4968 24.3283 24.5255 24.312 24.5255C24.2957 24.5255 24.279 24.545 24.2623 24.545C24.2455 24.545 24.2198 24.5742 24.2026 24.5742C24.1855 24.5742 24.1704 24.5937 24.1529 24.5937C24.1354 24.5937 24.1211 24.6132 24.1032 24.6132C24.0853 24.6132 24.0617 24.6327 24.0435 24.6327C24.0253 24.6327 24.0122 24.6522 23.9938 24.6522C23.9754 24.6522 23.9528 24.6619 23.9342 24.6619C23.9155 24.6619 23.9031 24.6717 23.8844 24.6717C23.8656 24.6717 23.8437 24.6814 23.8248 24.6814C23.8059 24.6814 23.7841 24.6814 23.7651 24.6814C23.7461 24.6814 23.7344 24.6814 23.7154 24.6814L6.7119 24.6814C6.69287 24.6814 6.68116 24.6814 6.66219 24.6814C6.64322 24.6814 6.62144 24.6814 6.60252 24.6814C6.58361 24.6814 6.5616 24.6717 6.54286 24.6717C6.52406 24.6717 6.51177 24.6619 6.49315 24.6619C6.47452 24.6619 6.45194 24.6522 6.43348 24.6522C6.41509 24.6522 6.40194 24.6327 6.38377 24.6327C6.36559 24.6327 6.34199 24.6132 6.3241 24.6132C6.30622 24.6132 6.29193 24.5937 6.27439 24.5937C6.25684 24.5937 6.24187 24.5742 6.22467 24.5742C6.20752 24.5742 6.18176 24.545 6.16501 24.545C6.14826 24.545 6.13159 24.5255 6.11529 24.5255C6.09899 24.5255 6.0913 24.4968 6.07552 24.4865C6.05968 24.4762 6.04101 24.4685 6.0258 24.4573C6.01053 24.4463 5.99078 24.4399 5.97608 24.4281C5.96138 24.4163 5.95038 24.4016 5.93631 24.3891C5.92223 24.3766 5.90997 24.3633 5.89653 24.3501C5.88309 24.337 5.86952 24.325 5.85676 24.3112C5.844 24.2974 5.82906 24.2769 5.81698 24.2625C5.80496 24.2481 5.79849 24.2384 5.78715 24.2235C5.77581 24.2085 5.75797 24.1903 5.74738 24.1748C5.73684 24.1593 5.71755 24.1421 5.71755 24.1261C5.71755 24.1101 5.68772 24.0938 5.68772 24.0773C5.68772 24.0609 5.66783 24.0455 5.66783 24.0286C5.66783 24.0118 5.64794 23.9971 5.64794 23.9799C5.64794 23.9628 5.62806 23.9487 5.62806 23.9312C5.62806 23.9137 5.60817 23.8906 5.60817 23.8727C5.60817 23.8549 5.58828 23.842 5.58828 23.824C5.58828 23.806 5.57834 23.7838 5.57834 23.7656C5.57834 23.7473 5.56839 23.7353 5.56839 23.7169C5.56839 23.6984 5.55845 23.6769 5.55845 23.6584C5.55845 23.6399 5.55845 23.6185 5.55845 23.6C5.55845 23.5814 5.55845 23.5602 5.55845 23.5415L5.55845 23.3077ZM17.9481 31.1798C17.9481 31.1994 17.9481 31.2189 17.9481 31.2383C17.9481 31.2577 17.9481 31.2773 17.9481 31.2968C17.9481 31.3161 17.9382 31.336 17.9382 31.3552C17.9382 31.3744 17.9282 31.3946 17.9282 31.4137C17.9282 31.4328 17.9183 31.4532 17.9183 31.4721C17.9183 31.491 17.8984 31.512 17.8984 31.5306C17.8984 31.5493 17.8785 31.561 17.8785 31.5793C17.8785 31.5976 17.8586 31.6198 17.8586 31.6378C17.8586 31.6558 17.8387 31.6689 17.8387 31.6865C17.8387 31.7041 17.8089 31.7278 17.8089 31.7449C17.8089 31.7621 17.7893 31.777 17.7791 31.7936C17.7688 31.8103 17.7603 31.8262 17.7493 31.8424C17.7382 31.8585 17.7214 31.8754 17.7095 31.8911C17.6976 31.9067 17.6922 31.9248 17.6797 31.9398C17.6671 31.9548 17.6533 31.9643 17.6399 31.9788C17.6265 31.9932 17.6043 32.0137 17.5902 32.0275C17.5761 32.0413 17.5652 32.0534 17.5504 32.0664C17.5357 32.0796 17.526 32.0931 17.5106 32.1054C17.4953 32.1177 17.4769 32.123 17.4609 32.1346C17.4449 32.1463 17.4277 32.1628 17.4112 32.1736C17.3947 32.1844 17.3785 32.1928 17.3615 32.2028C17.3445 32.2128 17.3293 32.2321 17.3117 32.2321C17.2942 32.2321 17.27 32.2613 17.2521 32.2613C17.2341 32.2613 17.2207 32.2808 17.2024 32.2808C17.184 32.2808 17.1614 32.3003 17.1427 32.3003C17.124 32.3003 17.112 32.3197 17.093 32.3197C17.074 32.3197 17.0525 32.3392 17.0333 32.3392C17.014 32.3392 16.9931 32.349 16.9737 32.349C16.9542 32.349 16.9336 32.3587 16.914 32.3587C16.8943 32.3587 16.8741 32.3685 16.8543 32.3685C16.8345 32.3685 16.8145 32.3685 16.7947 32.3685C16.7748 32.3685 16.7549 32.3685 16.735 32.3685L6.77157 32.3685C6.75168 32.3685 6.73173 32.3685 6.7119 32.3685C6.69208 32.3685 6.67201 32.3685 6.65224 32.3685C6.63248 32.3685 6.61224 32.3587 6.59258 32.3587C6.57299 32.3587 6.5524 32.349 6.53292 32.349C6.51344 32.349 6.49251 32.3392 6.47326 32.3392C6.45401 32.3392 6.43257 32.3197 6.4136 32.3197C6.39457 32.3197 6.38257 32.3003 6.36388 32.3003C6.34519 32.3003 6.3225 32.2808 6.30422 32.2808C6.28587 32.2808 6.27244 32.2613 6.2545 32.2613C6.23656 32.2613 6.21233 32.2321 6.19484 32.2321C6.1773 32.2321 6.1621 32.2128 6.14512 32.2028C6.12809 32.1928 6.11192 32.1844 6.0954 32.1736C6.07889 32.1628 6.06158 32.1463 6.04569 32.1346C6.02973 32.123 6.01135 32.1178 5.99597 32.1054C5.98065 32.0931 5.97089 32.0795 5.95619 32.0664C5.9415 32.0534 5.92055 32.0413 5.90648 32.0275C5.89246 32.0136 5.88003 31.9932 5.8667 31.9788C5.85331 31.9643 5.83951 31.9548 5.82693 31.9398C5.81434 31.9248 5.80895 31.9067 5.7971 31.8911C5.78524 31.8754 5.76832 31.8585 5.75732 31.8424C5.74627 31.8262 5.73775 31.8103 5.72749 31.7936C5.7173 31.777 5.69766 31.7621 5.69766 31.7449C5.69766 31.7278 5.66783 31.7041 5.66783 31.6865C5.66783 31.6689 5.64794 31.6558 5.64794 31.6378C5.64794 31.6198 5.62806 31.5976 5.62806 31.5793C5.62806 31.561 5.60817 31.5492 5.60817 31.5306C5.60817 31.5119 5.58828 31.491 5.58828 31.4721C5.58828 31.4533 5.57834 31.4328 5.57834 31.4137C5.57834 31.3946 5.56839 31.3744 5.56839 31.3552C5.56839 31.336 5.55845 31.3161 5.55845 31.2968C5.55845 31.2774 5.55845 31.2577 5.55845 31.2383C5.55845 31.2189 5.55845 31.1994 5.55845 31.1798L5.55845 31.0532C5.55845 31.0337 5.55845 31.0142 5.55845 30.9947C5.55845 30.9753 5.55845 30.9556 5.55845 30.9363C5.55845 30.9169 5.56839 30.8971 5.56839 30.8778C5.56839 30.8586 5.57834 30.8384 5.57834 30.8194C5.57834 30.8003 5.58828 30.7797 5.58828 30.7609C5.58828 30.7421 5.60817 30.7211 5.60817 30.7024C5.60817 30.6839 5.62806 30.6721 5.62806 30.6537C5.62806 30.6354 5.64794 30.6133 5.64794 30.5953C5.64794 30.5773 5.66783 30.5641 5.66783 30.5466C5.66783 30.529 5.69766 30.5053 5.69766 30.4881C5.69766 30.4709 5.7173 30.4561 5.72749 30.4394C5.73775 30.4227 5.74627 30.4068 5.75732 30.3907C5.76832 30.3745 5.78524 30.3576 5.7971 30.342C5.80895 30.3264 5.81434 30.3083 5.82693 30.2932C5.83951 30.2783 5.85331 30.2688 5.8667 30.2543C5.88003 30.2399 5.89246 30.2291 5.90648 30.2153C5.92055 30.2015 5.9415 30.1797 5.95619 30.1666C5.97089 30.1535 5.98065 30.1497 5.99597 30.1374C6.01135 30.125 6.02979 30.11 6.04569 30.0984C6.06164 30.0868 6.07889 30.0702 6.0954 30.0594C6.11192 30.0486 6.12809 30.0402 6.14512 30.0302C6.1621 30.0201 6.1773 30.001 6.19484 30.001C6.21233 30.001 6.23656 29.9717 6.2545 29.9717C6.27244 29.9717 6.28587 29.9523 6.30422 29.9523C6.3225 29.9523 6.34519 29.9328 6.36388 29.9328C6.38257 29.9328 6.39457 29.9133 6.4136 29.9133C6.43257 29.9133 6.45401 29.8938 6.47326 29.8938C6.49251 29.8938 6.51344 29.8841 6.53292 29.8841C6.5524 29.8841 6.57299 29.8743 6.59258 29.8743C6.61224 29.8743 6.63248 29.8646 6.65224 29.8646C6.67201 29.8646 6.69208 29.8646 6.7119 29.8646C6.73173 29.8646 6.75168 29.8646 6.77157 29.8646L16.735 29.8646C16.7549 29.8646 16.7748 29.8646 16.7947 29.8646C16.8145 29.8646 16.8345 29.8646 16.8543 29.8646C16.8741 29.8646 16.8944 29.8743 16.914 29.8743C16.9337 29.8743 16.9542 29.8841 16.9737 29.8841C16.9931 29.8841 17.014 29.8938 17.0333 29.8938C17.0525 29.8938 17.074 29.9133 17.093 29.9133C17.112 29.9133 17.124 29.9328 17.1427 29.9328C17.1614 29.9328 17.184 29.9523 17.2024 29.9523C17.2207 29.9523 17.2341 29.9717 17.2521 29.9717C17.27 29.9717 17.2942 30.001 17.3117 30.001C17.3293 30.001 17.3445 30.0202 17.3615 30.0302C17.3785 30.0402 17.3947 30.0486 17.4112 30.0594C17.4277 30.0702 17.4449 30.0868 17.4609 30.0984C17.4769 30.11 17.4953 30.1153 17.5106 30.1276C17.526 30.1399 17.5357 30.1534 17.5504 30.1666C17.5652 30.1797 17.5761 30.2015 17.5902 30.2153C17.6043 30.229 17.6265 30.2398 17.6399 30.2543C17.6533 30.2687 17.6671 30.2782 17.6797 30.2932C17.6922 30.3082 17.6976 30.3263 17.7095 30.342C17.7214 30.3576 17.7382 30.3745 17.7493 30.3907C17.7603 30.4068 17.7688 30.4227 17.7791 30.4394C17.7893 30.4561 17.8089 30.4709 17.8089 30.4881C17.8089 30.5053 17.8387 30.529 17.8387 30.5466C17.8387 30.5641 17.8586 30.5773 17.8586 30.5953C17.8586 30.6133 17.8785 30.6354 17.8785 30.6537C17.8785 30.6721 17.8984 30.6838 17.8984 30.7024C17.8984 30.721 17.9183 30.7421 17.9183 30.7609C17.9183 30.7798 17.9282 30.8003 17.9282 30.8194C17.9282 30.8384 17.9382 30.8586 17.9382 30.8778C17.9382 30.8971 17.9481 30.9169 17.9481 30.9363C17.9481 30.9556 17.9481 30.9752 17.9481 30.9947C17.9481 31.0142 17.9481 31.0337 17.9481 31.0532L17.9481 31.1798Z"></path><path id="减去顶层" fill-rule="evenodd" fill="url(#linear_2)" opacity="1" d="M34.0626 30.5147C33.8999 30.5147 33.7293 30.5249 33.5668 30.5249C33.4042 30.5249 33.2431 30.5498 33.0812 30.5654C32.9193 30.581 32.7566 30.5926 32.5957 30.616C32.4347 30.6394 32.28 30.6659 32.1204 30.697C31.9608 30.728 31.8031 30.7695 31.6452 30.8083C31.4874 30.847 31.3257 30.8835 31.17 30.9298C31.0143 30.976 30.8583 31.0279 30.7051 31.0816C30.5519 31.1353 30.4009 31.1927 30.2505 31.2537C30.1002 31.3147 29.9534 31.3779 29.8063 31.446C29.6592 31.5142 29.5159 31.5935 29.3724 31.6687C29.2289 31.7439 29.0885 31.8196 28.9488 31.9015C28.8093 31.9835 28.6709 32.066 28.5356 32.1546C28.4003 32.2432 28.2634 32.3329 28.1327 32.4279C28.002 32.5229 27.8762 32.6203 27.7505 32.7214C27.6247 32.8226 27.4992 32.9282 27.3785 33.0352C27.258 33.1423 27.1424 33.2565 27.0273 33.3692C26.9122 33.482 26.7956 33.5953 26.6864 33.7134C26.5771 33.8316 26.4693 33.9546 26.3661 34.0778C26.2629 34.201 26.1635 34.3242 26.0665 34.4523C25.9696 34.5804 25.878 34.7145 25.7876 34.8471C25.6972 34.9797 25.613 35.1152 25.5293 35.252C25.4457 35.3888 25.3684 35.5264 25.2917 35.667C25.215 35.8076 25.134 35.948 25.0644 36.0921C24.9949 36.2363 24.9305 36.3801 24.8681 36.5274C24.8059 36.6748 24.7473 36.8227 24.6925 36.9728C24.6377 37.1229 24.5848 37.2757 24.5375 37.4283C24.4903 37.5809 24.4531 37.7393 24.4136 37.8939C24.374 38.0486 24.3317 38.2031 24.2999 38.3595C24.2682 38.5159 24.2412 38.6674 24.2173 38.8252C24.1934 38.9829 24.1816 39.1423 24.1656 39.3009C24.1497 39.4596 24.1243 39.6174 24.1243 39.7767C24.1243 39.9359 24.114 40.1031 24.114 40.2625C24.114 40.422 24.1243 40.579 24.1243 40.7383C24.1243 40.8976 24.1497 41.0554 24.1656 41.214C24.1816 41.3727 24.1934 41.5321 24.2173 41.6898C24.2412 41.8475 24.2682 41.999 24.2999 42.1554C24.3317 42.3118 24.374 42.4664 24.4136 42.621C24.4531 42.7757 24.4903 42.9341 24.5375 43.0867C24.5848 43.2392 24.6377 43.392 24.6925 43.5422C24.7473 43.6922 24.8059 43.8402 24.8681 43.9876C24.9305 44.1348 24.9949 44.2787 25.0644 44.4228C25.134 44.567 25.215 44.7073 25.2917 44.8479C25.3684 44.9885 25.4457 45.1262 25.5293 45.263C25.613 45.3998 25.6972 45.5353 25.7876 45.6679C25.878 45.8004 25.9696 45.9346 26.0665 46.0626C26.1635 46.1908 26.2629 46.3139 26.3661 46.4372C26.4693 46.5604 26.5771 46.6833 26.6864 46.8016C26.7957 46.9197 26.9122 47.033 27.0273 47.1457C27.1424 47.2585 27.258 47.3727 27.3785 47.4798C27.4992 47.5868 27.6247 47.6924 27.7505 47.7935C27.8762 47.8947 28.002 47.9921 28.1327 48.0871C28.2634 48.1821 28.4003 48.2718 28.5356 48.3604C28.6709 48.4489 28.8093 48.5314 28.9488 48.6134C29.0885 48.6954 29.2289 48.7711 29.3724 48.8463C29.5159 48.9214 29.6592 49.0008 29.8063 49.069C29.9534 49.1371 30.1002 49.2003 30.2505 49.2613C30.4009 49.3223 30.5519 49.3797 30.7051 49.4334C30.8583 49.487 31.0143 49.5389 31.17 49.5852C31.3257 49.6315 31.4874 49.668 31.6452 49.7067C31.8031 49.7455 31.9608 49.787 32.1204 49.818C32.28 49.8491 32.4347 49.8756 32.5957 49.899C32.7566 49.9224 32.9193 49.9339 33.0812 49.9496C33.2431 49.9652 33.4042 49.9901 33.5668 49.9901C33.7293 49.9901 33.8999 50.0002 34.0626 50.0002C34.2254 50.0002 34.3856 49.9901 34.5482 49.9901C34.7108 49.9901 34.8718 49.9652 35.0338 49.9496C35.1957 49.9339 35.3583 49.9224 35.5193 49.899C35.6803 49.8756 35.835 49.8491 35.9945 49.818C36.1542 49.787 36.3119 49.7455 36.4698 49.7067C36.6276 49.668 36.7893 49.6315 36.945 49.5852C37.1007 49.5389 37.2566 49.487 37.4099 49.4334C37.563 49.3797 37.7141 49.3223 37.8644 49.2613C38.0148 49.2003 38.1615 49.1371 38.3087 49.069C38.4558 49.0008 38.5991 48.9214 38.7426 48.8463C38.8861 48.7711 39.0266 48.6954 39.1661 48.6134C39.3058 48.5314 39.4441 48.4489 39.5794 48.3604C39.7147 48.2718 39.8516 48.1821 39.9823 48.0871C40.113 47.9921 40.2387 47.8947 40.3645 47.7935C40.4903 47.6924 40.6158 47.5868 40.7364 47.4798C40.857 47.3727 40.9726 47.2585 41.0877 47.1457C41.2027 47.033 41.3193 46.9197 41.4286 46.8016C41.5379 46.6833 41.6456 46.5604 41.7488 46.4372C41.8521 46.3139 41.9515 46.1908 42.0484 46.0626C42.1454 45.9346 42.2369 45.8004 42.3274 45.6679C42.4178 45.5353 42.5019 45.3998 42.5857 45.263C42.6693 45.1262 42.7466 44.9886 42.8233 44.8479C42.9 44.7074 42.9809 44.567 43.0505 44.4228C43.1201 44.2787 43.1846 44.1349 43.2468 43.9876C43.3092 43.8403 43.3677 43.6922 43.4225 43.5422C43.4772 43.392 43.5302 43.2392 43.5774 43.0867C43.6246 42.9341 43.6618 42.7757 43.7014 42.621C43.7409 42.4664 43.7833 42.3118 43.815 42.1554C43.8467 41.999 43.8738 41.8475 43.8977 41.6898C43.9216 41.5321 43.9334 41.3727 43.9493 41.214C43.9652 41.0554 43.9907 40.8976 43.9907 40.7383C43.9907 40.579 44.001 40.422 44.001 40.2625C44.001 40.1031 43.9907 39.9359 43.9907 39.7767C43.9907 39.6174 43.9652 39.4596 43.9493 39.3009C43.9334 39.1423 43.9216 38.9829 43.8977 38.8252C43.8738 38.6674 43.8467 38.5159 43.815 38.3595C43.7833 38.2031 43.7409 38.0486 43.7014 37.8939C43.6618 37.7393 43.6246 37.5809 43.5774 37.4283C43.5302 37.2757 43.4772 37.1229 43.4225 36.9728C43.3677 36.8227 43.3092 36.6748 43.2468 36.5274C43.1846 36.3801 43.1201 36.2363 43.0505 36.0921C42.9809 35.948 42.9 35.8076 42.8233 35.667C42.7466 35.5264 42.6693 35.3888 42.5857 35.252C42.5019 35.1152 42.4178 34.9797 42.3274 34.8471C42.2369 34.7145 42.1454 34.5804 42.0484 34.4523C41.9515 34.3242 41.8521 34.201 41.7488 34.0778C41.6456 33.9546 41.5379 33.8316 41.4286 33.7134C41.3193 33.5953 41.2027 33.482 41.0877 33.3692C40.9726 33.2565 40.857 33.1423 40.7364 33.0352C40.6158 32.9282 40.4903 32.8226 40.3645 32.7214C40.2387 32.6203 40.113 32.5229 39.9823 32.4279C39.8516 32.3329 39.7147 32.2432 39.5794 32.1546C39.4441 32.066 39.3058 31.9835 39.1661 31.9015C39.0266 31.8196 38.8861 31.7439 38.7426 31.6687C38.5991 31.5935 38.4558 31.5142 38.3087 31.446C38.1615 31.3779 38.0148 31.3147 37.8644 31.2537C37.7141 31.1927 37.563 31.1353 37.4099 31.0816C37.2566 31.0279 37.1007 30.976 36.945 30.9298C36.7893 30.8835 36.6276 30.847 36.4698 30.8083C36.3119 30.7695 36.1542 30.728 35.9945 30.697C35.835 30.6659 35.6803 30.6394 35.5193 30.616C35.3583 30.5926 35.1957 30.581 35.0338 30.5654C34.8718 30.5498 34.7108 30.5249 34.5482 30.5249L34.0626 30.5147ZM34.1104 35.3861C35.5999 35.3861 36.8078 36.6252 36.8078 38.1541C36.8078 39.015 36.4248 39.7845 35.824 40.2918C35.7287 40.3435 35.6417 40.4088 35.5655 40.4843L35.5324 40.5066L35.535 40.5156C35.5288 40.5221 35.5225 40.5284 35.5165 40.5351C35.5104 40.5417 35.5044 40.5484 35.4986 40.5552C35.4927 40.5621 35.487 40.5691 35.4813 40.5761C35.4756 40.583 35.4703 40.5898 35.4647 40.5969C35.4592 40.604 35.4535 40.6112 35.4482 40.6185C35.4428 40.6257 35.4375 40.6333 35.4323 40.6407C35.4271 40.6481 35.4221 40.6554 35.417 40.663C35.412 40.6705 35.4066 40.6782 35.4018 40.6859C35.3969 40.6935 35.3925 40.7011 35.3878 40.7088C35.3832 40.7166 35.3784 40.7246 35.3739 40.7325C35.3694 40.7403 35.365 40.7481 35.3607 40.7561C35.3564 40.7641 35.3522 40.7723 35.3481 40.7804C35.344 40.7885 35.3401 40.7965 35.3361 40.8047C35.3322 40.8129 35.328 40.8214 35.3242 40.8297C35.3205 40.838 35.3172 40.8464 35.3136 40.8548C35.3101 40.8632 35.3064 40.8713 35.303 40.8798C35.2996 40.8883 35.2969 40.8969 35.2937 40.9055C35.2906 40.9141 35.2874 40.9226 35.2844 40.9312C35.2815 40.9399 35.2786 40.9489 35.2758 40.9576C35.2731 40.9663 35.2704 40.9745 35.2679 40.9833C35.2653 40.9921 35.2629 41.0009 35.2606 41.0097C35.2582 41.0186 35.2561 41.0279 35.2539 41.0368C35.2518 41.0457 35.2492 41.0543 35.2473 41.0633C35.2454 41.0722 35.2437 41.0814 35.242 41.0904C35.2403 41.0994 35.2389 41.1084 35.2374 41.1175C35.2359 41.1265 35.2347 41.1355 35.2334 41.1446C35.2321 41.1536 35.2305 41.1626 35.2294 41.1717C35.2283 41.1808 35.2276 41.1903 35.2268 41.1995C35.2259 41.2086 35.2241 41.2174 35.2241 41.2266C35.2241 41.2357 35.2228 41.2452 35.2228 41.2544C35.2228 41.2635 35.2215 41.2723 35.2215 41.2815L35.2215 41.3093C35.2215 41.877 35.6279 42.3497 36.1661 42.4518L36.1727 42.472L38.4465 42.472C38.7684 42.472 39.0292 42.7458 39.0292 43.0828L39.0292 45.1288L29.0857 45.1288L29.0857 43.0835C29.0857 42.7456 29.3464 42.472 29.6684 42.472L31.6796 42.472C32.3529 42.472 32.8993 41.9268 32.8993 41.2544C32.8993 40.8087 32.6589 40.4183 32.3014 40.2064L32.3458 40.2481L32.2682 40.1765C32.2515 40.1605 32.2349 40.1442 32.2185 40.1278C32.2022 40.1114 32.1861 40.0946 32.1701 40.0778C32.1542 40.061 32.1386 40.0436 32.1231 40.0264C32.1076 40.0091 32.0924 39.9919 32.0773 39.9742C32.0623 39.9566 32.0469 39.9388 32.0323 39.9207C32.0176 39.9026 32.0034 39.8843 31.9892 39.8658C31.975 39.8474 31.9611 39.8284 31.9474 39.8095C31.9337 39.7907 31.9202 39.7718 31.907 39.7525C31.8937 39.7333 31.8806 39.7138 31.8679 39.6942C31.8551 39.6746 31.8424 39.655 31.8301 39.6351C31.8178 39.6152 31.8061 39.5949 31.7943 39.5746C31.7825 39.5544 31.7711 39.534 31.7598 39.5135C31.7485 39.4929 31.7374 39.4725 31.7267 39.4516C31.7159 39.4308 31.7051 39.4095 31.6948 39.3884C31.6846 39.3672 31.6747 39.3459 31.665 39.3244C31.6553 39.303 31.6457 39.2815 31.6365 39.2598C31.6273 39.2381 31.6186 39.2164 31.61 39.1945C31.6014 39.1726 31.5929 39.1506 31.5848 39.1285C31.5767 39.1063 31.5691 39.0841 31.5616 39.0618C31.5541 39.0394 31.5467 39.0169 31.5397 38.9943C31.5327 38.9718 31.5262 38.949 31.5198 38.9262C31.5134 38.9035 31.5071 38.8804 31.5013 38.8574C31.4954 38.8345 31.49 38.8117 31.4847 38.7886C31.4794 38.7656 31.4742 38.7423 31.4695 38.7191C31.4648 38.6959 31.4603 38.673 31.4562 38.6496C31.4521 38.6263 31.4485 38.6029 31.4449 38.5794C31.4414 38.556 31.438 38.5328 31.435 38.5093C31.432 38.4857 31.4294 38.462 31.427 38.4384C31.4247 38.4148 31.4229 38.3911 31.4211 38.3675C31.4193 38.3438 31.4176 38.3203 31.4164 38.2966C31.4152 38.2729 31.4138 38.2494 31.4138 38.2257C31.4138 38.202 31.4131 38.1779 31.4131 38.1541C31.4131 36.6252 32.6203 35.3861 34.1098 35.3861L34.1104 35.3861Z"></path></g></g><defs><linearGradient id="linear_0" x1="-0.00002014588255998604%" y1="50%" x2="100.00002014588256%" y2="50%" gradientUnits="objectBoundingBox"><stop offset="0" stop-color="#FF6D00" stop-opacity="1" /><stop offset="1" stop-color="#F7AD59" stop-opacity="1" /></linearGradient><linearGradient id="linear_1" x1="0.0000337245889880481%" y1="50%" x2="99.99996627541101%" y2="50%" gradientUnits="objectBoundingBox"><stop offset="0" stop-color="#FF6D00" stop-opacity="1" /><stop offset="1" stop-color="#F7AD59" stop-opacity="1" /></linearGradient><linearGradient id="linear_2" x1="-0.00006015432506938696%" y1="50%" x2="100.00006015432507%" y2="50%" gradientUnits="objectBoundingBox"><stop offset="0" stop-color="#FF6D00" stop-opacity="1" /><stop offset="1" stop-color="#F7AD59" stop-opacity="1" /></linearGradient></defs></svg>