<svg xmlns="http://www.w3.org/2000/svg" xmlns:xlink="http://www.w3.org/1999/xlink" width="88" height="88" viewBox="0 0 88 88" fill="none"><g opacity="1"  transform="translate(0 0)"><path id="路径 3" fill-rule="evenodd" style="fill:#CCCCCC" opacity="1" d="M63.58 58L26.0798 58C24.8418 58 23.8301 58.99 23.8301 60.2C23.8301 61.41 24.8418 62.4 26.0798 62.4L33.3932 62.4L31.0303 65.48C31.0083 65.5087 30.9869 65.5378 30.9664 65.5676C30.9458 65.5973 30.926 65.6275 30.9069 65.6582C30.8878 65.6889 30.8696 65.7201 30.852 65.7517C30.8345 65.7834 30.8178 65.8155 30.802 65.848C30.786 65.8805 30.7709 65.9133 30.7567 65.9466C30.7424 65.9798 30.729 66.0134 30.7164 66.0473C30.7038 66.0812 30.6921 66.1155 30.6812 66.15C30.6703 66.1845 30.6604 66.2192 30.6512 66.2543C30.6421 66.2893 30.6339 66.3245 30.6265 66.3599C30.6191 66.3954 30.6126 66.431 30.607 66.4667C30.6014 66.5025 30.5967 66.5383 30.5929 66.5743C30.5891 66.6103 30.5862 66.6464 30.5842 66.6826C30.5822 66.7188 30.5811 66.7549 30.581 66.7911C30.5808 66.8272 30.5815 66.8634 30.5831 66.8996C30.5847 66.9358 30.5873 66.972 30.5907 67.008C30.5941 67.044 30.5984 67.0799 30.6036 67.1157C30.6089 67.1516 30.615 67.1872 30.622 67.2227C30.629 67.2582 30.6369 67.2934 30.6457 67.3286C30.6545 67.3637 30.6641 67.3986 30.6746 67.4333C30.6851 67.4679 30.6965 67.5022 30.7088 67.5362C30.721 67.5703 30.734 67.604 30.748 67.6375C30.7619 67.6708 30.7766 67.7038 30.7922 67.7365C30.8078 67.7691 30.8242 67.8013 30.8413 67.8332C30.8585 67.865 30.8765 67.8964 30.8952 67.9273C30.914 67.9583 30.9335 67.9887 30.9537 68.0186C30.974 68.0486 30.9951 68.078 31.0168 68.1068C31.0386 68.1357 31.061 68.164 31.0841 68.1918C31.1073 68.2195 31.1311 68.2466 31.1557 68.2731C31.1801 68.2997 31.2053 68.3256 31.2312 68.3509C31.2569 68.3762 31.2834 68.4008 31.3104 68.4247C31.3375 68.4487 31.3651 68.4719 31.3933 68.4945C31.4215 68.517 31.4502 68.5389 31.4796 68.56C31.8849 68.857 32.3597 69 32.829 69C33.512 69 34.1876 68.6956 34.6295 68.12L39.0176 62.4L50.6424 62.4L55.0304 68.12C55.4723 68.6956 56.148 69 56.8309 69C57.3002 69 57.775 68.857 58.1804 68.56C58.2097 68.5389 58.2384 68.517 58.2666 68.4945C58.2947 68.4719 58.3224 68.4487 58.3494 68.4247C58.3765 68.4008 58.4029 68.3762 58.4287 68.3509C58.4546 68.3256 58.4797 68.2997 58.5042 68.2731C58.5288 68.2466 58.5526 68.2195 58.5758 68.1918C58.599 68.164 58.6214 68.1357 58.6431 68.1068C58.6649 68.078 58.6858 68.0486 58.7061 68.0186C58.7264 67.9887 58.7459 67.9583 58.7647 67.9273C58.7834 67.8964 58.8013 67.865 58.8185 67.8332C58.8357 67.8013 58.8521 67.7691 58.8676 67.7365C58.8832 67.7038 58.898 67.6708 58.9119 67.6375C58.9259 67.604 58.9389 67.5703 58.9511 67.5362C58.9633 67.5022 58.9747 67.4679 58.9853 67.4333C58.9958 67.3986 59.0054 67.3637 59.0142 67.3286C59.023 67.2935 59.0309 67.2582 59.0379 67.2227C59.0448 67.1872 59.051 67.1516 59.0562 67.1157C59.0614 67.0799 59.0657 67.044 59.0692 67.008C59.0727 66.972 59.0751 66.9358 59.0768 66.8996C59.0784 66.8634 59.0791 66.8272 59.0789 66.7911C59.0787 66.7549 59.0776 66.7188 59.0757 66.6826C59.0737 66.6464 59.0708 66.6104 59.0669 66.5744C59.0632 66.5384 59.0584 66.5025 59.0529 66.4667C59.0473 66.431 59.0408 66.3954 59.0335 66.3599C59.026 66.3245 59.0178 66.2893 59.0086 66.2543C58.9995 66.2192 58.9895 66.1845 58.9787 66.15C58.9678 66.1155 58.9561 66.0812 58.9435 66.0473C58.9309 66.0134 58.9175 65.9798 58.9032 65.9466C58.8889 65.9133 58.8738 65.8805 58.858 65.848C58.8421 65.8155 58.8254 65.7834 58.8078 65.7517C58.7903 65.7201 58.772 65.6889 58.753 65.6582C58.7339 65.6275 58.7141 65.5973 58.6935 65.5676C58.6729 65.5378 58.6516 65.5087 58.6296 65.48L56.2666 62.4L63.58 62.4C64.8181 62.4 65.8298 61.41 65.8298 60.2C65.8298 58.99 64.8181 58 63.58 58Z"></path><path id="路径 3" fill-rule="evenodd" fill="url(#linear_0)" opacity="1" d="M63.58 58L26.0798 58C24.8418 58 23.8301 58.99 23.8301 60.2C23.8301 61.41 24.8418 62.4 26.0798 62.4L33.3932 62.4L31.0303 65.48C31.0083 65.5087 30.9869 65.5378 30.9664 65.5676C30.9458 65.5973 30.926 65.6275 30.9069 65.6582C30.8878 65.6889 30.8696 65.7201 30.852 65.7517C30.8345 65.7834 30.8178 65.8155 30.802 65.848C30.786 65.8805 30.7709 65.9133 30.7567 65.9466C30.7424 65.9798 30.729 66.0134 30.7164 66.0473C30.7038 66.0812 30.6921 66.1155 30.6812 66.15C30.6703 66.1845 30.6604 66.2192 30.6512 66.2543C30.6421 66.2893 30.6339 66.3245 30.6265 66.3599C30.6191 66.3954 30.6126 66.431 30.607 66.4667C30.6014 66.5025 30.5967 66.5383 30.5929 66.5743C30.5891 66.6103 30.5862 66.6464 30.5842 66.6826C30.5822 66.7188 30.5811 66.7549 30.581 66.7911C30.5808 66.8272 30.5815 66.8634 30.5831 66.8996C30.5847 66.9358 30.5873 66.972 30.5907 67.008C30.5941 67.044 30.5984 67.0799 30.6036 67.1157C30.6089 67.1516 30.615 67.1872 30.622 67.2227C30.629 67.2582 30.6369 67.2934 30.6457 67.3286C30.6545 67.3637 30.6641 67.3986 30.6746 67.4333C30.6851 67.4679 30.6965 67.5022 30.7088 67.5362C30.721 67.5703 30.734 67.604 30.748 67.6375C30.7619 67.6708 30.7766 67.7038 30.7922 67.7365C30.8078 67.7691 30.8242 67.8013 30.8413 67.8332C30.8585 67.865 30.8765 67.8964 30.8952 67.9273C30.914 67.9583 30.9335 67.9887 30.9537 68.0186C30.974 68.0486 30.9951 68.078 31.0168 68.1068C31.0386 68.1357 31.061 68.164 31.0841 68.1918C31.1073 68.2195 31.1311 68.2466 31.1557 68.2731C31.1801 68.2997 31.2053 68.3256 31.2312 68.3509C31.2569 68.3762 31.2834 68.4008 31.3104 68.4247C31.3375 68.4487 31.3651 68.4719 31.3933 68.4945C31.4215 68.517 31.4502 68.5389 31.4796 68.56C31.8849 68.857 32.3597 69 32.829 69C33.512 69 34.1876 68.6956 34.6295 68.12L39.0176 62.4L50.6424 62.4L55.0304 68.12C55.4723 68.6956 56.148 69 56.8309 69C57.3002 69 57.775 68.857 58.1804 68.56C58.2097 68.5389 58.2384 68.517 58.2666 68.4945C58.2947 68.4719 58.3224 68.4487 58.3494 68.4247C58.3765 68.4008 58.4029 68.3762 58.4287 68.3509C58.4546 68.3256 58.4797 68.2997 58.5042 68.2731C58.5288 68.2466 58.5526 68.2195 58.5758 68.1918C58.599 68.164 58.6214 68.1357 58.6431 68.1068C58.6649 68.078 58.6858 68.0486 58.7061 68.0186C58.7264 67.9887 58.7459 67.9583 58.7647 67.9273C58.7834 67.8964 58.8013 67.865 58.8185 67.8332C58.8357 67.8013 58.8521 67.7691 58.8676 67.7365C58.8832 67.7038 58.898 67.6708 58.9119 67.6375C58.9259 67.604 58.9389 67.5703 58.9511 67.5362C58.9633 67.5022 58.9747 67.4679 58.9853 67.4333C58.9958 67.3986 59.0054 67.3637 59.0142 67.3286C59.023 67.2935 59.0309 67.2582 59.0379 67.2227C59.0448 67.1872 59.051 67.1516 59.0562 67.1157C59.0614 67.0799 59.0657 67.044 59.0692 67.008C59.0727 66.972 59.0751 66.9358 59.0768 66.8996C59.0784 66.8634 59.0791 66.8272 59.0789 66.7911C59.0787 66.7549 59.0776 66.7188 59.0757 66.6826C59.0737 66.6464 59.0708 66.6104 59.0669 66.5744C59.0632 66.5384 59.0584 66.5025 59.0529 66.4667C59.0473 66.431 59.0408 66.3954 59.0335 66.3599C59.026 66.3245 59.0178 66.2893 59.0086 66.2543C58.9995 66.2192 58.9895 66.1845 58.9787 66.15C58.9678 66.1155 58.9561 66.0812 58.9435 66.0473C58.9309 66.0134 58.9175 65.9798 58.9032 65.9466C58.8889 65.9133 58.8738 65.8805 58.858 65.848C58.8421 65.8155 58.8254 65.7834 58.8078 65.7517C58.7903 65.7201 58.772 65.6889 58.753 65.6582C58.7339 65.6275 58.7141 65.5973 58.6935 65.5676C58.6729 65.5378 58.6516 65.5087 58.6296 65.48L56.2666 62.4L63.58 62.4C64.8181 62.4 65.8298 61.41 65.8298 60.2C65.8298 58.99 64.8181 58 63.58 58Z"></path><path id="减去顶层" fill-rule="evenodd" style="fill:#CCCCCC" opacity="1" d="M23.833 49C23.833 52.3 26.5332 55 29.833 55L59.833 55C63.1327 55 65.833 52.3 65.833 49L65.833 28C65.833 24.7 63.1327 22 59.833 22L29.833 22C26.5332 22 23.833 24.7 23.833 28L23.833 49ZM45.5856 44.9165C45.5369 44.9167 45.4882 44.9146 45.4397 44.9102C45.3911 44.9058 45.3429 44.8991 45.2949 44.8901C45.2471 44.8811 45.1997 44.87 45.1527 44.8565C45.1059 44.843 45.0598 44.8273 45.0144 44.8095C44.969 44.7916 44.9245 44.7717 44.8811 44.7496C44.8376 44.7275 44.7952 44.7034 44.7539 44.6773C44.7127 44.6513 44.6728 44.6233 44.6342 44.5933C44.5956 44.5635 44.5584 44.5319 44.5228 44.4985L39.5705 39.8033L34.6182 44.4966C34.6003 44.5133 34.5821 44.5295 34.5634 44.5452C34.5448 44.5609 34.5259 44.5763 34.5065 44.5912C34.4872 44.6061 34.4675 44.6205 34.4474 44.6344C34.4274 44.6484 34.4071 44.6619 34.3865 44.6749C34.3658 44.6879 34.3449 44.7004 34.3237 44.7125Q34.2918 44.7305 34.2592 44.747C34.2375 44.7581 34.2155 44.7686 34.1932 44.7785C34.171 44.7885 34.1485 44.798 34.1258 44.8069C34.1031 44.8158 34.0802 44.8243 34.0571 44.8321C34.0341 44.8399 34.0108 44.8472 33.9874 44.854C33.964 44.8608 33.9404 44.8671 33.9167 44.8726C33.893 44.8783 33.8691 44.8835 33.8452 44.888C33.8213 44.8926 33.7972 44.8965 33.7731 44.9C33.749 44.9033 33.7248 44.9062 33.7005 44.9085C33.6763 44.9108 33.652 44.9125 33.6276 44.9136C33.6032 44.9147 33.5789 44.9154 33.5545 44.9154C33.5301 44.9154 33.5058 44.9147 33.4815 44.9136C33.4571 44.9125 33.4328 44.9108 33.4086 44.9085C33.3843 44.9062 33.3601 44.9033 33.336 44.9C33.3118 44.8965 33.2878 44.8926 33.2638 44.888C33.2399 44.8835 33.2161 44.8783 33.1923 44.8726C33.1686 44.8671 33.1451 44.8608 33.1216 44.854C33.0982 44.8472 33.075 44.8399 33.0519 44.8321C33.0288 44.8243 33.0059 44.8158 32.9832 44.8069C32.9606 44.798 32.9381 44.7885 32.9159 44.7785C32.8936 44.7686 32.8716 44.7581 32.8499 44.747C32.8281 44.736 32.8066 44.7245 32.7854 44.7125C32.7642 44.7004 32.7432 44.6879 32.7226 44.6749C32.7019 44.6619 32.6816 44.6484 32.6615 44.6344C32.6416 44.6205 32.6219 44.6061 32.6026 44.5912C32.5832 44.5763 32.5642 44.5609 32.5456 44.5452C32.527 44.5295 32.5087 44.5133 32.4909 44.4966C32.4736 44.4806 32.4567 44.4642 32.4403 44.4473C32.4238 44.4305 32.4078 44.4132 32.3923 44.3955C32.3767 44.3779 32.3616 44.3598 32.347 44.3413C32.3324 44.3228 32.3182 44.304 32.3046 44.2848C32.291 44.2657 32.2778 44.2461 32.2651 44.2262C32.2525 44.2064 32.2404 44.1862 32.2288 44.1656C32.2172 44.1451 32.2061 44.1243 32.1955 44.1032C32.1851 44.0822 32.1751 44.0608 32.1656 44.0392C32.1562 44.0177 32.1473 43.9958 32.139 43.9737C32.1307 43.9517 32.123 43.9293 32.1158 43.9069C32.1086 43.8845 32.1021 43.8618 32.096 43.839C32.09 43.8162 32.0846 43.7933 32.0798 43.7702C32.075 43.747 32.0707 43.7238 32.0672 43.7006C32.0635 43.6773 32.0605 43.6539 32.0581 43.6304C32.0556 43.607 32.0538 43.5835 32.0526 43.5599C32.0514 43.5363 32.0508 43.5128 32.0508 43.4892C32.0508 43.4656 32.0514 43.4421 32.0526 43.4185C32.0538 43.395 32.0556 43.3714 32.0581 43.3479C32.0605 43.3245 32.0635 43.3011 32.0672 43.2778C32.0707 43.2545 32.075 43.2313 32.0798 43.2082C32.0846 43.1851 32.09 43.1622 32.096 43.1394C32.1021 43.1166 32.1086 43.0939 32.1158 43.0715C32.123 43.0491 32.1307 43.0268 32.139 43.0047C32.1473 42.9826 32.1562 42.9607 32.1656 42.9391C32.1751 42.9176 32.1851 42.8962 32.1955 42.8751C32.2061 42.8541 32.2172 42.8333 32.2288 42.8127C32.2404 42.7922 32.2525 42.772 32.2651 42.7522C32.2778 42.7323 32.291 42.7127 32.3046 42.6935C32.3182 42.6744 32.3324 42.6556 32.347 42.6371C32.3616 42.6186 32.3767 42.6005 32.3923 42.5829C32.4078 42.5652 32.4238 42.5479 32.4403 42.531C32.4567 42.5142 32.4736 42.4978 32.4909 42.4818L38.5077 36.7801C38.5256 36.7636 38.5438 36.7474 38.5624 36.7317C38.5811 36.7159 38.6001 36.7006 38.6195 36.6858C38.6387 36.6709 38.6584 36.6565 38.6784 36.6426C38.6984 36.6286 38.7187 36.6152 38.7394 36.6022C38.76 36.5892 38.7809 36.5767 38.8021 36.5647C38.8233 36.5527 38.8448 36.5412 38.8666 36.5302C38.8883 36.5192 38.9103 36.5088 38.9325 36.4988C38.9547 36.4888 38.9772 36.4794 38.9998 36.4705C39.0225 36.4616 39.0454 36.4532 39.0684 36.4453C39.0915 36.4375 39.1147 36.4302 39.1381 36.4235C39.1615 36.4167 39.185 36.4105 39.2087 36.4049C39.2324 36.3992 39.2562 36.3941 39.2802 36.3896C39.3041 36.385 39.3281 36.3811 39.3522 36.3777C39.3763 36.3743 39.4005 36.3714 39.4247 36.3691C39.4489 36.3669 39.4732 36.3652 39.4975 36.364C39.5218 36.3629 39.5462 36.3623 39.5705 36.3623C39.5949 36.3623 39.6192 36.3629 39.6435 36.364C39.6678 36.3652 39.6921 36.3669 39.7164 36.3691C39.7406 36.3714 39.7647 36.3743 39.7889 36.3777C39.813 36.3811 39.837 36.385 39.8609 36.3896C39.8848 36.3941 39.9087 36.3992 39.9323 36.4049C39.956 36.4105 39.9796 36.4167 40.003 36.4235C40.0264 36.4302 40.0496 36.4375 40.0726 36.4453C40.0957 36.4532 40.1185 36.4616 40.1412 36.4705C40.1638 36.4794 40.1863 36.4888 40.2086 36.4988C40.2308 36.5088 40.2527 36.5192 40.2745 36.5302C40.2962 36.5412 40.3177 36.5527 40.3389 36.5647C40.3602 36.5767 40.3811 36.5892 40.4017 36.6022C40.4223 36.6152 40.4426 36.6286 40.4626 36.6426C40.4826 36.6565 40.5023 36.6709 40.5216 36.6858C40.5409 36.7006 40.5599 36.7159 40.5786 36.7317C40.5972 36.7474 40.6154 36.7636 40.6333 36.7801L45.5856 41.4735L55.0483 32.5012C55.0662 32.4846 55.0844 32.4684 55.1031 32.4526C55.1217 32.4368 55.1407 32.4215 55.16 32.4067C55.1793 32.3918 55.199 32.3773 55.2191 32.3633C55.2391 32.3494 55.2595 32.3359 55.2801 32.3229C55.3007 32.3099 55.3216 32.2973 55.3428 32.2853C55.3641 32.2733 55.3856 32.2618 55.4073 32.2508C55.4291 32.2398 55.4511 32.2293 55.4734 32.2193C55.4956 32.2093 55.5181 32.1998 55.5407 32.191C55.5634 32.182 55.5864 32.1736 55.6094 32.1657C55.6325 32.1578 55.6558 32.1505 55.6791 32.1438C55.7025 32.137 55.7261 32.1308 55.7499 32.1251C55.7736 32.1195 55.7974 32.1144 55.8213 32.1098C55.8453 32.1053 55.8693 32.1013 55.8934 32.0979C55.9175 32.0944 55.9418 32.0916 55.9661 32.0894C55.9903 32.0871 56.0146 32.0854 56.0389 32.0842C56.0633 32.0831 56.0876 32.0825 56.112 32.0825C56.1364 32.0825 56.1607 32.0831 56.1851 32.0842C56.2094 32.0854 56.2337 32.0871 56.258 32.0894C56.2823 32.0916 56.3065 32.0944 56.3306 32.0979C56.3547 32.1013 56.3787 32.1053 56.4027 32.1098C56.4267 32.1144 56.4505 32.1195 56.4742 32.1251C56.4979 32.1308 56.5215 32.137 56.5449 32.1438C56.5682 32.1505 56.5915 32.1578 56.6146 32.1657C56.6377 32.1736 56.6606 32.182 56.6833 32.191C56.706 32.1998 56.7284 32.2093 56.7507 32.2193C56.7729 32.2293 56.7949 32.2398 56.8167 32.2508C56.8385 32.2618 56.86 32.2734 56.8812 32.2854C56.9024 32.2974 56.9233 32.3099 56.9439 32.3229C56.9646 32.3359 56.9849 32.3494 57.005 32.3633C57.025 32.3773 57.0447 32.3918 57.064 32.4067C57.0833 32.4215 57.1023 32.4368 57.1209 32.4526C57.1395 32.4684 57.1578 32.4846 57.1757 32.5012C57.193 32.5172 57.2099 32.5336 57.2264 32.5504C57.2429 32.5673 57.2589 32.5846 57.2745 32.6023C57.2901 32.62 57.3052 32.6381 57.3198 32.6566C57.3344 32.675 57.3486 32.6939 57.3623 32.7131C57.376 32.7323 57.3892 32.7518 57.4019 32.7717C57.4145 32.7916 57.4267 32.8119 57.4383 32.8324C57.4499 32.8529 57.461 32.8737 57.4716 32.8948C57.4821 32.9159 57.4921 32.9373 57.5016 32.9589C57.5111 32.9805 57.52 33.0024 57.5283 33.0245C57.5366 33.0466 57.5444 33.0689 57.5516 33.0913C57.5588 33.1138 57.5654 33.1365 57.5714 33.1593C57.5774 33.1821 57.5827 33.2051 57.5876 33.2282C57.5925 33.2514 57.5967 33.2746 57.6003 33.2979C57.604 33.3212 57.607 33.3446 57.6095 33.3681C57.6118 33.3916 57.6136 33.4151 57.6149 33.4388C57.6161 33.4623 57.6167 33.4859 57.6167 33.5096C57.6167 33.5332 57.6161 33.5568 57.6149 33.5804C57.6136 33.6039 57.6118 33.6274 57.6095 33.6509C57.607 33.6744 57.604 33.6978 57.6004 33.7211C57.5967 33.7445 57.5925 33.7677 57.5876 33.7908C57.5827 33.814 57.5774 33.837 57.5714 33.8598C57.5654 33.8826 57.5588 33.9053 57.5516 33.9277C57.5444 33.9502 57.5366 33.9725 57.5283 33.9946C57.52 34.0167 57.5111 34.0386 57.5016 34.0602C57.4921 34.0818 57.4821 34.1031 57.4716 34.1243C57.461 34.1454 57.4499 34.1661 57.4383 34.1867C57.4267 34.2072 57.4145 34.2275 57.4019 34.2473C57.3892 34.2672 57.376 34.2868 57.3623 34.306C57.3486 34.3252 57.3344 34.344 57.3198 34.3625C57.3052 34.381 57.2901 34.3991 57.2745 34.4168C57.2589 34.4345 57.2429 34.4518 57.2264 34.4686C57.2099 34.4855 57.193 34.5019 57.1757 34.5179L46.6484 44.4985C46.6128 44.5319 46.5756 44.5635 46.537 44.5933C46.4984 44.6233 46.4585 44.6513 46.4173 44.6773C46.376 44.7034 46.3336 44.7275 46.2902 44.7496C46.2466 44.7717 46.2022 44.7916 46.1568 44.8095C46.1114 44.8274 46.0653 44.843 46.0184 44.8565C45.9716 44.87 45.9241 44.8811 45.8762 44.8901C45.8284 44.8991 45.7801 44.9058 45.7316 44.9102C45.683 44.9146 45.6343 44.9167 45.5856 44.9165Z"></path><path id="减去顶层" fill-rule="evenodd" fill="url(#linear_1)" opacity="1" d="M23.833 49C23.833 52.3 26.5332 55 29.833 55L59.833 55C63.1327 55 65.833 52.3 65.833 49L65.833 28C65.833 24.7 63.1327 22 59.833 22L29.833 22C26.5332 22 23.833 24.7 23.833 28L23.833 49ZM45.5856 44.9165C45.5369 44.9167 45.4882 44.9146 45.4397 44.9102C45.3911 44.9058 45.3429 44.8991 45.2949 44.8901C45.2471 44.8811 45.1997 44.87 45.1527 44.8565C45.1059 44.843 45.0598 44.8273 45.0144 44.8095C44.969 44.7916 44.9245 44.7717 44.8811 44.7496C44.8376 44.7275 44.7952 44.7034 44.7539 44.6773C44.7127 44.6513 44.6728 44.6233 44.6342 44.5933C44.5956 44.5635 44.5584 44.5319 44.5228 44.4985L39.5705 39.8033L34.6182 44.4966C34.6003 44.5133 34.5821 44.5295 34.5634 44.5452C34.5448 44.5609 34.5259 44.5763 34.5065 44.5912C34.4872 44.6061 34.4675 44.6205 34.4474 44.6344C34.4274 44.6484 34.4071 44.6619 34.3865 44.6749C34.3658 44.6879 34.3449 44.7004 34.3237 44.7125Q34.2918 44.7305 34.2592 44.747C34.2375 44.7581 34.2155 44.7686 34.1932 44.7785C34.171 44.7885 34.1485 44.798 34.1258 44.8069C34.1031 44.8158 34.0802 44.8243 34.0571 44.8321C34.0341 44.8399 34.0108 44.8472 33.9874 44.854C33.964 44.8608 33.9404 44.8671 33.9167 44.8726C33.893 44.8783 33.8691 44.8835 33.8452 44.888C33.8213 44.8926 33.7972 44.8965 33.7731 44.9C33.749 44.9033 33.7248 44.9062 33.7005 44.9085C33.6763 44.9108 33.652 44.9125 33.6276 44.9136C33.6032 44.9147 33.5789 44.9154 33.5545 44.9154C33.5301 44.9154 33.5058 44.9147 33.4815 44.9136C33.4571 44.9125 33.4328 44.9108 33.4086 44.9085C33.3843 44.9062 33.3601 44.9033 33.336 44.9C33.3118 44.8965 33.2878 44.8926 33.2638 44.888C33.2399 44.8835 33.2161 44.8783 33.1923 44.8726C33.1686 44.8671 33.1451 44.8608 33.1216 44.854C33.0982 44.8472 33.075 44.8399 33.0519 44.8321C33.0288 44.8243 33.0059 44.8158 32.9832 44.8069C32.9606 44.798 32.9381 44.7885 32.9159 44.7785C32.8936 44.7686 32.8716 44.7581 32.8499 44.747C32.8281 44.736 32.8066 44.7245 32.7854 44.7125C32.7642 44.7004 32.7432 44.6879 32.7226 44.6749C32.7019 44.6619 32.6816 44.6484 32.6615 44.6344C32.6416 44.6205 32.6219 44.6061 32.6026 44.5912C32.5832 44.5763 32.5642 44.5609 32.5456 44.5452C32.527 44.5295 32.5087 44.5133 32.4909 44.4966C32.4736 44.4806 32.4567 44.4642 32.4403 44.4473C32.4238 44.4305 32.4078 44.4132 32.3923 44.3955C32.3767 44.3779 32.3616 44.3598 32.347 44.3413C32.3324 44.3228 32.3182 44.304 32.3046 44.2848C32.291 44.2657 32.2778 44.2461 32.2651 44.2262C32.2525 44.2064 32.2404 44.1862 32.2288 44.1656C32.2172 44.1451 32.2061 44.1243 32.1955 44.1032C32.1851 44.0822 32.1751 44.0608 32.1656 44.0392C32.1562 44.0177 32.1473 43.9958 32.139 43.9737C32.1307 43.9517 32.123 43.9293 32.1158 43.9069C32.1086 43.8845 32.1021 43.8618 32.096 43.839C32.09 43.8162 32.0846 43.7933 32.0798 43.7702C32.075 43.747 32.0707 43.7238 32.0672 43.7006C32.0635 43.6773 32.0605 43.6539 32.0581 43.6304C32.0556 43.607 32.0538 43.5835 32.0526 43.5599C32.0514 43.5363 32.0508 43.5128 32.0508 43.4892C32.0508 43.4656 32.0514 43.4421 32.0526 43.4185C32.0538 43.395 32.0556 43.3714 32.0581 43.3479C32.0605 43.3245 32.0635 43.3011 32.0672 43.2778C32.0707 43.2545 32.075 43.2313 32.0798 43.2082C32.0846 43.1851 32.09 43.1622 32.096 43.1394C32.1021 43.1166 32.1086 43.0939 32.1158 43.0715C32.123 43.0491 32.1307 43.0268 32.139 43.0047C32.1473 42.9826 32.1562 42.9607 32.1656 42.9391C32.1751 42.9176 32.1851 42.8962 32.1955 42.8751C32.2061 42.8541 32.2172 42.8333 32.2288 42.8127C32.2404 42.7922 32.2525 42.772 32.2651 42.7522C32.2778 42.7323 32.291 42.7127 32.3046 42.6935C32.3182 42.6744 32.3324 42.6556 32.347 42.6371C32.3616 42.6186 32.3767 42.6005 32.3923 42.5829C32.4078 42.5652 32.4238 42.5479 32.4403 42.531C32.4567 42.5142 32.4736 42.4978 32.4909 42.4818L38.5077 36.7801C38.5256 36.7636 38.5438 36.7474 38.5624 36.7317C38.5811 36.7159 38.6001 36.7006 38.6195 36.6858C38.6387 36.6709 38.6584 36.6565 38.6784 36.6426C38.6984 36.6286 38.7187 36.6152 38.7394 36.6022C38.76 36.5892 38.7809 36.5767 38.8021 36.5647C38.8233 36.5527 38.8448 36.5412 38.8666 36.5302C38.8883 36.5192 38.9103 36.5088 38.9325 36.4988C38.9547 36.4888 38.9772 36.4794 38.9998 36.4705C39.0225 36.4616 39.0454 36.4532 39.0684 36.4453C39.0915 36.4375 39.1147 36.4302 39.1381 36.4235C39.1615 36.4167 39.185 36.4105 39.2087 36.4049C39.2324 36.3992 39.2562 36.3941 39.2802 36.3896C39.3041 36.385 39.3281 36.3811 39.3522 36.3777C39.3763 36.3743 39.4005 36.3714 39.4247 36.3691C39.4489 36.3669 39.4732 36.3652 39.4975 36.364C39.5218 36.3629 39.5462 36.3623 39.5705 36.3623C39.5949 36.3623 39.6192 36.3629 39.6435 36.364C39.6678 36.3652 39.6921 36.3669 39.7164 36.3691C39.7406 36.3714 39.7647 36.3743 39.7889 36.3777C39.813 36.3811 39.837 36.385 39.8609 36.3896C39.8848 36.3941 39.9087 36.3992 39.9323 36.4049C39.956 36.4105 39.9796 36.4167 40.003 36.4235C40.0264 36.4302 40.0496 36.4375 40.0726 36.4453C40.0957 36.4532 40.1185 36.4616 40.1412 36.4705C40.1638 36.4794 40.1863 36.4888 40.2086 36.4988C40.2308 36.5088 40.2527 36.5192 40.2745 36.5302C40.2962 36.5412 40.3177 36.5527 40.3389 36.5647C40.3602 36.5767 40.3811 36.5892 40.4017 36.6022C40.4223 36.6152 40.4426 36.6286 40.4626 36.6426C40.4826 36.6565 40.5023 36.6709 40.5216 36.6858C40.5409 36.7006 40.5599 36.7159 40.5786 36.7317C40.5972 36.7474 40.6154 36.7636 40.6333 36.7801L45.5856 41.4735L55.0483 32.5012C55.0662 32.4846 55.0844 32.4684 55.1031 32.4526C55.1217 32.4368 55.1407 32.4215 55.16 32.4067C55.1793 32.3918 55.199 32.3773 55.2191 32.3633C55.2391 32.3494 55.2595 32.3359 55.2801 32.3229C55.3007 32.3099 55.3216 32.2973 55.3428 32.2853C55.3641 32.2733 55.3856 32.2618 55.4073 32.2508C55.4291 32.2398 55.4511 32.2293 55.4734 32.2193C55.4956 32.2093 55.5181 32.1998 55.5407 32.191C55.5634 32.182 55.5864 32.1736 55.6094 32.1657C55.6325 32.1578 55.6558 32.1505 55.6791 32.1438C55.7025 32.137 55.7261 32.1308 55.7499 32.1251C55.7736 32.1195 55.7974 32.1144 55.8213 32.1098C55.8453 32.1053 55.8693 32.1013 55.8934 32.0979C55.9175 32.0944 55.9418 32.0916 55.9661 32.0894C55.9903 32.0871 56.0146 32.0854 56.0389 32.0842C56.0633 32.0831 56.0876 32.0825 56.112 32.0825C56.1364 32.0825 56.1607 32.0831 56.1851 32.0842C56.2094 32.0854 56.2337 32.0871 56.258 32.0894C56.2823 32.0916 56.3065 32.0944 56.3306 32.0979C56.3547 32.1013 56.3787 32.1053 56.4027 32.1098C56.4267 32.1144 56.4505 32.1195 56.4742 32.1251C56.4979 32.1308 56.5215 32.137 56.5449 32.1438C56.5682 32.1505 56.5915 32.1578 56.6146 32.1657C56.6377 32.1736 56.6606 32.182 56.6833 32.191C56.706 32.1998 56.7284 32.2093 56.7507 32.2193C56.7729 32.2293 56.7949 32.2398 56.8167 32.2508C56.8385 32.2618 56.86 32.2734 56.8812 32.2854C56.9024 32.2974 56.9233 32.3099 56.9439 32.3229C56.9646 32.3359 56.9849 32.3494 57.005 32.3633C57.025 32.3773 57.0447 32.3918 57.064 32.4067C57.0833 32.4215 57.1023 32.4368 57.1209 32.4526C57.1395 32.4684 57.1578 32.4846 57.1757 32.5012C57.193 32.5172 57.2099 32.5336 57.2264 32.5504C57.2429 32.5673 57.2589 32.5846 57.2745 32.6023C57.2901 32.62 57.3052 32.6381 57.3198 32.6566C57.3344 32.675 57.3486 32.6939 57.3623 32.7131C57.376 32.7323 57.3892 32.7518 57.4019 32.7717C57.4145 32.7916 57.4267 32.8119 57.4383 32.8324C57.4499 32.8529 57.461 32.8737 57.4716 32.8948C57.4821 32.9159 57.4921 32.9373 57.5016 32.9589C57.5111 32.9805 57.52 33.0024 57.5283 33.0245C57.5366 33.0466 57.5444 33.0689 57.5516 33.0913C57.5588 33.1138 57.5654 33.1365 57.5714 33.1593C57.5774 33.1821 57.5827 33.2051 57.5876 33.2282C57.5925 33.2514 57.5967 33.2746 57.6003 33.2979C57.604 33.3212 57.607 33.3446 57.6095 33.3681C57.6118 33.3916 57.6136 33.4151 57.6149 33.4388C57.6161 33.4623 57.6167 33.4859 57.6167 33.5096C57.6167 33.5332 57.6161 33.5568 57.6149 33.5804C57.6136 33.6039 57.6118 33.6274 57.6095 33.6509C57.607 33.6744 57.604 33.6978 57.6004 33.7211C57.5967 33.7445 57.5925 33.7677 57.5876 33.7908C57.5827 33.814 57.5774 33.837 57.5714 33.8598C57.5654 33.8826 57.5588 33.9053 57.5516 33.9277C57.5444 33.9502 57.5366 33.9725 57.5283 33.9946C57.52 34.0167 57.5111 34.0386 57.5016 34.0602C57.4921 34.0818 57.4821 34.1031 57.4716 34.1243C57.461 34.1454 57.4499 34.1661 57.4383 34.1867C57.4267 34.2072 57.4145 34.2275 57.4019 34.2473C57.3892 34.2672 57.376 34.2868 57.3623 34.306C57.3486 34.3252 57.3344 34.344 57.3198 34.3625C57.3052 34.381 57.2901 34.3991 57.2745 34.4168C57.2589 34.4345 57.2429 34.4518 57.2264 34.4686C57.2099 34.4855 57.193 34.5019 57.1757 34.5179L46.6484 44.4985C46.6128 44.5319 46.5756 44.5635 46.537 44.5933C46.4984 44.6233 46.4585 44.6513 46.4173 44.6773C46.376 44.7034 46.3336 44.7275 46.2902 44.7496C46.2466 44.7717 46.2022 44.7916 46.1568 44.8095C46.1114 44.8274 46.0653 44.843 46.0184 44.8565C45.9716 44.87 45.9241 44.8811 45.8762 44.8901C45.8284 44.8991 45.7801 44.9058 45.7316 44.9102C45.683 44.9146 45.6343 44.9167 45.5856 44.9165Z"></path></g><defs><linearGradient id="linear_0" x1="-0.0003571454081764252%" y1="50%" x2="100.00035714540817%" y2="50%" gradientUnits="objectBoundingBox"><stop offset="0.0069" stop-color="#FF3831" stop-opacity="1" /><stop offset="1" stop-color="#FFA4C2" stop-opacity="1" /></linearGradient><linearGradient id="linear_1" x1="0%" y1="50%" x2="100%" y2="50%" gradientUnits="objectBoundingBox"><stop offset="0.0069" stop-color="#FF3831" stop-opacity="1" /><stop offset="1" stop-color="#FFA4C2" stop-opacity="1" /></linearGradient></defs></svg>