<svg xmlns="http://www.w3.org/2000/svg" xmlns:xlink="http://www.w3.org/1999/xlink" width="36" height="36" viewBox="0 0 36 36" fill="none"><g opacity="1"  transform="translate(0 0)"><mask id="bg-mask-0" fill="white"><use transform="translate(0 0)" xlink:href="#path_0"></use></mask><g mask="url(#bg-mask-0)" ><path id="路径 1" fill-rule="evenodd" fill="url(#linear_0)" opacity="1" d="M5.87997 26.1001L31.32 26.1001L34.56 30.5401C35.7599 32.2201 35.1 33.6001 33 33.6001L3.89997 33.6001C1.85998 33.6001 1.19998 32.2801 2.39998 30.6001L5.87997 26.1001Z"></path><path id="路径 2" fill-rule="evenodd" style="fill:#DAE9FF" opacity="1" d="M10.194 5L24.5603 5C26.4157 5 27.9 6.63171 27.9 8.67133L27.9 26.3287C27.9 28.3683 26.4157 30 24.5603 30L10.194 30C8.33859 30 6.85425 28.3683 6.85425 26.3287L6.85425 8.67133C6.85425 6.63171 8.33859 5 10.194 5Z"></path><path id="路径 3" fill-rule="evenodd" fill="url(#linear_1)" opacity="1" d="M9.23978 5L23.659 5C25.5145 5 26.9988 6.63171 26.9988 8.67133L26.9988 26.3287C26.9988 28.3683 25.5145 30 23.659 30L9.23978 30C7.38437 30 5.90002 28.3683 5.90002 26.3287L5.90002 8.67133C5.90002 6.63171 7.38437 5 9.23978 5Z"></path><path id="路径 4" fill-rule="evenodd" fill="url(#linear_2)" opacity="1" d="M33.6601 31.2L33.0601 30.6C33.7801 29.64 34.2001 28.44 34.2001 27.12C34.2001 23.88 31.5601 21.24 28.2601 21.24C24.9601 21.24 22.3201 23.88 22.3201 27.12C22.3201 30.36 24.9601 33 28.2601 33C29.5801 33 30.4201 32.7 31.4401 31.98L32.1001 32.58C32.4601 32.94 33.1801 32.94 33.4801 32.58C33.8401 32.28 34.0201 31.68 33.6601 31.2Z"></path><path id="路径 5" fill-rule="evenodd" fill="url(#linear_3)" opacity="1" d="M32.76 30.8399L31.98 30.0599C32.7 29.0999 33.12 27.9 33.12 26.5799C33.12 23.3399 30.48 20.7 27.18 20.7C23.88 20.7 21.24 23.3399 21.24 26.5799C21.24 29.82 23.88 32.4599 27.18 32.4599C28.5 32.4599 29.7 31.9799 30.66 31.3199L31.44 32.0999C31.8 32.4599 32.34 32.4599 32.7 32.0999C33.06 31.7399 33.06 31.1999 32.76 30.8399Z"></path><path id="路径 5" fill-rule="evenodd" fill="url(#linear_4)" opacity="1" d="M32.76 30.8399L31.98 30.0599C32.7 29.0999 33.12 27.9 33.12 26.5799C33.12 23.3399 30.48 20.7 27.18 20.7C23.88 20.7 21.24 23.3399 21.24 26.5799C21.24 29.82 23.88 32.4599 27.18 32.4599C28.5 32.4599 29.7 31.9799 30.66 31.3199L31.44 32.0999C31.8 32.4599 32.34 32.4599 32.7 32.0999C33.06 31.7399 33.06 31.1999 32.76 30.8399Z"></path><path id="路径 6" fill-rule="evenodd" style="fill:#FFFFFF" opacity="1" d="M23.46 26.5199C23.46 26.5797 23.4614 26.6396 23.4644 26.6995C23.4674 26.7593 23.4719 26.819 23.4779 26.8786C23.4838 26.9382 23.4913 26.9976 23.5002 27.0569C23.5091 27.1161 23.5196 27.1752 23.5314 27.2339C23.5433 27.2926 23.5567 27.351 23.5714 27.4092C23.5862 27.4673 23.6025 27.525 23.6201 27.5823C23.6378 27.6396 23.6569 27.6965 23.6774 27.7529C23.6979 27.8093 23.7198 27.8651 23.7431 27.9205C23.7664 27.9758 23.7911 28.0306 23.8171 28.0847C23.8431 28.1389 23.8705 28.1923 23.8992 28.2452C23.9279 28.298 23.9579 28.3501 23.9892 28.4015C24.0205 28.4528 24.053 28.5034 24.0869 28.5532C24.1207 28.6031 24.1557 28.652 24.192 28.7001C24.2283 28.7483 24.2657 28.7954 24.3043 28.8417C24.343 28.888 24.3827 28.9334 24.4236 28.9778C24.4645 29.0222 24.5065 29.0655 24.5495 29.1079C24.5926 29.1502 24.6366 29.1915 24.6817 29.2317C24.7269 29.272 24.773 29.3111 24.82 29.3491C24.8671 29.3871 24.9151 29.4239 24.9639 29.4596C25.0128 29.4953 25.0626 29.5297 25.1132 29.563C25.1638 29.5963 25.2153 29.6284 25.2675 29.6592C25.3197 29.6899 25.3727 29.7194 25.4264 29.7477C25.48 29.7759 25.5344 29.8028 25.5894 29.8285C25.6445 29.8541 25.7001 29.8784 25.7564 29.9013C25.8126 29.9242 25.8694 29.9457 25.9267 29.9659C25.984 29.9861 26.0418 30.0049 26.1001 30.0222C26.1584 30.0396 26.217 30.0556 26.276 30.0702C26.3351 30.0847 26.3945 30.0978 26.4542 30.1095C26.5139 30.1212 26.5739 30.1314 26.6341 30.1402C26.6943 30.149 26.7547 30.1564 26.8153 30.1622C26.8759 30.1681 26.9366 30.1725 26.9974 30.1755C27.0582 30.1784 27.1191 30.1799 27.1799 30.1799C27.2408 30.1799 27.3017 30.1784 27.3625 30.1755C27.4233 30.1725 27.484 30.1681 27.5446 30.1622C27.6052 30.1564 27.6656 30.149 27.7258 30.1402C27.786 30.1314 27.8459 30.1212 27.9057 30.1095C27.9654 30.0978 28.0248 30.0847 28.0838 30.0702C28.1429 30.0556 28.2016 30.0396 28.2598 30.0222C28.3181 30.0049 28.3759 29.9861 28.4332 29.9659C28.4905 29.9457 28.5473 29.9242 28.6035 29.9013C28.6598 29.8783 28.7154 29.8541 28.7705 29.8285C28.8255 29.8028 28.8799 29.7759 28.9335 29.7477C28.9872 29.7194 29.0402 29.6899 29.0924 29.6592C29.1446 29.6284 29.1961 29.5963 29.2467 29.563C29.2973 29.5297 29.347 29.4953 29.396 29.4596C29.4449 29.4239 29.4928 29.3871 29.5399 29.3491C29.587 29.3111 29.633 29.272 29.6782 29.2317C29.7233 29.1915 29.7673 29.1502 29.8104 29.1079C29.8534 29.0655 29.8954 29.0222 29.9363 28.9778C29.9772 28.9334 30.0169 28.888 30.0556 28.8417C30.0942 28.7954 30.1316 28.7483 30.1679 28.7001C30.2041 28.652 30.2392 28.6031 30.273 28.5532C30.3069 28.5034 30.3394 28.4528 30.3707 28.4015C30.402 28.3501 30.432 28.298 30.4607 28.2452C30.4894 28.1923 30.5167 28.1389 30.5428 28.0847C30.5688 28.0306 30.5935 27.9758 30.6168 27.9205C30.6401 27.8651 30.662 27.8093 30.6825 27.7529C30.703 27.6965 30.7221 27.6396 30.7398 27.5823C30.7575 27.525 30.7737 27.4673 30.7885 27.4092C30.8033 27.351 30.8166 27.2926 30.8285 27.2339C30.8403 27.1752 30.8508 27.1161 30.8597 27.0569C30.8686 26.9976 30.8761 26.9382 30.882 26.8786C30.888 26.819 30.8925 26.7593 30.8955 26.6995C30.8985 26.6396 30.8999 26.5797 30.8999 26.5199C30.8999 26.46 30.8985 26.4001 30.8955 26.3403C30.8925 26.2805 30.888 26.2207 30.882 26.1611C30.8761 26.1015 30.8686 26.0421 30.8597 25.9828C30.8508 25.9236 30.8403 25.8646 30.8285 25.8058C30.8166 25.7471 30.8033 25.6887 30.7885 25.6306C30.7737 25.5725 30.7575 25.5147 30.7398 25.4574C30.7221 25.4001 30.703 25.3432 30.6825 25.2868C30.662 25.2304 30.6401 25.1746 30.6168 25.1192C30.5935 25.0639 30.5688 25.0092 30.5428 24.955C30.5167 24.9009 30.4894 24.8474 30.4607 24.7945C30.432 24.7417 30.402 24.6896 30.3707 24.6382C30.3394 24.5869 30.3069 24.5363 30.273 24.4865C30.2392 24.4367 30.2041 24.3877 30.1679 24.3396C30.1316 24.2915 30.0942 24.2443 30.0556 24.198C30.0169 24.1517 29.9772 24.1063 29.9363 24.062C29.8954 24.0176 29.8534 23.9742 29.8104 23.9318C29.7673 23.8895 29.7233 23.8482 29.6782 23.808C29.633 23.7677 29.587 23.7286 29.5399 23.6906C29.4928 23.6527 29.4449 23.6158 29.396 23.5801C29.347 23.5444 29.2973 23.51 29.2467 23.4767C29.1961 23.4434 29.1446 23.4114 29.0924 23.3806C29.0402 23.3498 28.9872 23.3203 28.9335 23.292C28.8799 23.2638 28.8255 23.2369 28.7705 23.2113C28.7154 23.1857 28.6598 23.1614 28.6035 23.1385C28.5473 23.1156 28.4905 23.094 28.4332 23.0738C28.3759 23.0536 28.3181 23.0349 28.2598 23.0175C28.2016 23.0001 28.1429 22.9841 28.0839 22.9696C28.0248 22.955 27.9654 22.9419 27.9057 22.9302C27.8459 22.9185 27.786 22.9083 27.7258 22.8995C27.6656 22.8907 27.6052 22.8834 27.5446 22.8775C27.484 22.8716 27.4233 22.8672 27.3625 22.8643C27.3017 22.8613 27.2408 22.8599 27.1799 22.8599C27.1191 22.8599 27.0582 22.8613 26.9974 22.8643C26.9366 22.8672 26.8759 22.8716 26.8153 22.8775C26.7547 22.8834 26.6943 22.8907 26.6341 22.8995C26.5739 22.9083 26.5139 22.9185 26.4542 22.9302C26.3945 22.9419 26.3351 22.955 26.276 22.9696C26.217 22.9841 26.1584 23.0001 26.1001 23.0175C26.0418 23.0349 25.984 23.0536 25.9267 23.0738C25.8694 23.094 25.8126 23.1156 25.7564 23.1385C25.7001 23.1614 25.6445 23.1857 25.5894 23.2113C25.5344 23.2369 25.48 23.2638 25.4264 23.292C25.3727 23.3203 25.3197 23.3498 25.2675 23.3806C25.2153 23.4114 25.1638 23.4434 25.1132 23.4767C25.0626 23.51 25.0128 23.5444 24.9639 23.5801C24.9151 23.6158 24.8671 23.6527 24.82 23.6906C24.773 23.7286 24.7269 23.7677 24.6817 23.808C24.6366 23.8482 24.5926 23.8895 24.5495 23.9318C24.5065 23.9742 24.4645 24.0176 24.4236 24.062C24.3827 24.1063 24.343 24.1517 24.3043 24.198C24.2657 24.2443 24.2283 24.2915 24.192 24.3396C24.1558 24.3877 24.1207 24.4367 24.0869 24.4865C24.053 24.5363 24.0205 24.5869 23.9892 24.6382C23.9579 24.6896 23.9279 24.7417 23.8992 24.7945C23.8705 24.8474 23.8431 24.9009 23.8171 24.955C23.7911 25.0092 23.7664 25.0639 23.7431 25.1192C23.7198 25.1746 23.6979 25.2304 23.6774 25.2868C23.6569 25.3432 23.6378 25.4001 23.6201 25.4574C23.6025 25.5147 23.5862 25.5725 23.5714 25.6306C23.5567 25.6887 23.5433 25.7471 23.5314 25.8058C23.5196 25.8646 23.5091 25.9236 23.5002 25.9828C23.4913 26.0421 23.4838 26.1015 23.4779 26.1611C23.4719 26.2207 23.4674 26.2805 23.4644 26.3403C23.4614 26.4001 23.46 26.46 23.46 26.5199Z"></path><path id="路径 7" fill-rule="evenodd" style="fill:#DB344E" opacity="0.3" d="M29.2799 27.78L29.1599 27.78C28.8599 27.72 28.6799 27.42 28.7399 27.1199C28.7999 26.88 28.8599 26.7 28.8599 26.46C28.8599 26.0399 28.7399 25.6799 28.4999 25.3199C28.3199 25.08 28.3799 24.72 28.6199 24.54C28.8599 24.36 29.2199 24.4199 29.3999 24.66C29.7599 25.2 29.9999 25.8 29.9999 26.3999C29.9999 26.7599 29.9399 27.06 29.8799 27.2999C29.7599 27.6 29.5199 27.78 29.2799 27.78Z"></path><path id="路径 7" fill-rule="evenodd" fill="url(#linear_5)" opacity="1" d="M29.2799 27.78L29.1599 27.78C28.8599 27.72 28.6799 27.42 28.7399 27.1199C28.7999 26.88 28.8599 26.7 28.8599 26.46C28.8599 26.0399 28.7399 25.6799 28.4999 25.3199C28.3199 25.08 28.3799 24.72 28.6199 24.54C28.8599 24.36 29.2199 24.4199 29.3999 24.66C29.7599 25.2 29.9999 25.8 29.9999 26.3999C29.9999 26.7599 29.9399 27.06 29.8799 27.2999C29.7599 27.6 29.5199 27.78 29.2799 27.78Z"></path><path id="路径 8" fill-rule="evenodd" style="fill:#FFFFFF" opacity="0.5" d="M22.2277 12.6602L11.5723 12.6602C11.0952 12.6602 10.6711 13.0801 10.6711 13.6201C10.6711 14.1601 11.0422 14.5801 11.5723 14.5801L22.2277 14.5801C22.7049 14.5801 23.129 14.1601 23.129 13.6201C23.129 13.0801 22.7049 12.6602 22.2277 12.6602Z"></path><path id="路径 9" fill-rule="evenodd" style="fill:#FFFFFF" opacity="1" d="M21.6977 12.1201L11.0953 12.1201C10.6182 12.1201 10.1941 12.5401 10.1941 13.0801C10.1941 13.6201 10.5652 14.0401 11.0953 14.0401L21.6977 14.0401C22.1748 14.0401 22.5989 13.6201 22.5989 13.0801C22.5459 12.5401 22.1748 12.1201 21.6977 12.1201Z"></path><path id="路径 10" fill-rule="evenodd" style="fill:#FFFFFF" opacity="0.5" d="M22.1748 18.54L11.5723 18.54C11.0952 18.54 10.6711 18.9601 10.6711 19.5001C10.6711 20.0401 11.0422 20.46 11.5723 20.46L22.1748 20.46C22.6519 20.46 23.076 20.0401 23.076 19.5001C23.0229 19.02 22.6519 18.54 22.1748 18.54Z"></path><path id="路径 11" fill-rule="evenodd" style="fill:#FFFFFF" opacity="1" d="M21.6977 18.0601L11.0953 18.0601C10.6182 18.0601 10.1941 18.48 10.1941 19.02C10.1941 19.56 10.5652 19.98 11.0953 19.98L21.6977 19.98C22.1748 19.98 22.5989 19.56 22.5989 19.02C22.5459 18.48 22.1748 18.0601 21.6977 18.0601Z"></path><path id="路径 13" fill-rule="evenodd" style="fill:#000000" opacity="0.2" d="M22.5 7.42075C22.8 7.06075 23 6.58074 23 6.04074L23 5.98074C23 5.62074 22.92 5.29073 22.78 5.00073L13.21 5.01073C13.08 5.30073 13 5.63074 13 5.98074C13 7.06075 13.74 7.96075 14.63 7.96075L21.37 7.96075C21.81 7.96075 22.21 7.78075 22.5 7.42075Z"></path><path id="路径 13" fill-rule="evenodd" fill="url(#linear_6)" opacity="1" d="M20.3663 6.96L13.6337 6.96C12.7426 6.96 12 6.05999 12 4.97999C12 3.89999 12.7426 3 13.6337 3L20.3663 3C21.2574 3 22 3.89999 22 4.97999L22 5.04C22 5.58 21.802 6.05999 21.505 6.41999C21.208 6.78 20.8119 6.96 20.3663 6.96Z"></path><path id="路径 14" fill-rule="evenodd" style="fill:#DB344E" opacity="0.3" d="M27.54 24.84C27.84 24.84 28.08 24.6 28.08 24.3C28.08 24 27.84 23.76 27.54 23.76C27.24 23.76 27 24 27 24.3C27 24.6 27.24 24.84 27.54 24.84Z"></path><path id="路径 14" fill-rule="evenodd" fill="url(#linear_7)" opacity="1" d="M27.54 24.84C27.84 24.84 28.08 24.6 28.08 24.3C28.08 24 27.84 23.76 27.54 23.76C27.24 23.76 27 24 27 24.3C27 24.6 27.24 24.84 27.54 24.84Z"></path></g></g><defs><rect id="path_0" x="0" y="0" width="36" height="36" rx="0" ry="0"/><linearGradient id="linear_0" x1="29.119012883582506%" y1="5.169204491319128%" x2="83.9230021359134%" y2="62.989477019684955%" gradientUnits="objectBoundingBox"><stop offset="0" stop-color="#E8F8FA" stop-opacity="0.9" /><stop offset="1" stop-color="#BADEF7" stop-opacity="1" /></linearGradient><linearGradient id="linear_1" x1="80.9195028496567%" y1="13.935026372865188%" x2="20.63266260686523%" y2="92.94617590615914%" gradientUnits="objectBoundingBox"><stop offset="0" stop-color="#57DDFF" stop-opacity="1" /><stop offset="1" stop-color="#1692F7" stop-opacity="1" /></linearGradient><linearGradient id="linear_2" x1="39.92799586029567%" y1="17.244%" x2="88.1790156919948%" y2="85.071%" gradientUnits="objectBoundingBox"><stop offset="0" stop-color="#FAD7EA" stop-opacity="0.18" /><stop offset="1" stop-color="#D9BFCA" stop-opacity="0.2" /></linearGradient><linearGradient id="linear_3" x1="35.651016183457926%" y1="38.03640723644769%" x2="100.00006247562507%" y2="100.00013980735723%" gradientUnits="objectBoundingBox"><stop offset="0" stop-color="#FAEDF2" stop-opacity="0.96" /><stop offset="1" stop-color="#FCCFDD" stop-opacity="1" /></linearGradient><linearGradient id="linear_4" x1="80.92105008014981%" y1="13.935019482155228%" x2="20.633018068205587%" y2="92.94612994534626%" gradientUnits="objectBoundingBox"><stop offset="0" stop-color="#FF57A5" stop-opacity="1" /><stop offset="1" stop-color="#FC2828" stop-opacity="1" /></linearGradient><linearGradient id="linear_5" x1="80.92011876881139%" y1="13.935%" x2="20.633836943058636%" y2="92.946%" gradientUnits="objectBoundingBox"><stop offset="0" stop-color="#FF57A5" stop-opacity="1" /><stop offset="1" stop-color="#FC2828" stop-opacity="1" /></linearGradient><linearGradient id="linear_6" x1="29.11900000000001%" y1="5.169204491319129%" x2="83.92300000000003%" y2="62.98947701968497%" gradientUnits="objectBoundingBox"><stop offset="0" stop-color="#E8F8FA" stop-opacity="0.9" /><stop offset="1" stop-color="#BADEF7" stop-opacity="1" /></linearGradient><linearGradient id="linear_7" x1="80.92148929172096%" y1="13.935%" x2="20.63253529866532%" y2="92.946%" gradientUnits="objectBoundingBox"><stop offset="0" stop-color="#FF57A5" stop-opacity="1" /><stop offset="1" stop-color="#FC2828" stop-opacity="1" /></linearGradient></defs></svg>