<svg xmlns="http://www.w3.org/2000/svg" xmlns:xlink="http://www.w3.org/1999/xlink" width="60" height="60" viewBox="0 0 60 60" fill="none"><g opacity="1"  transform="translate(0 0)"><mask id="bg-mask-0" fill="white"><use transform="translate(0 0)" xlink:href="#path_0"></use></mask><g mask="url(#bg-mask-0)" ><path id="路径 1" fill-rule="evenodd" fill="url(#linear_0)" opacity="1" d="M49.8 10L15 11C12.8 11 11 12.8 11 15L11 38.7C11 41 12.8 42.8 14.9 42.8L28 42.8L29.3 46L31.2 47C32.2 47.5 33.6 47.3 34.4 46.5L37.9 42.8L51 42.8C53.2 42.8 54.9 41 54.9 38.7L54.9 15C55 12.8 51.9 10 49.8 10Z"></path><path id="路径 2" fill-rule="evenodd" fill="url(#linear_1)" opacity="1" d="M48.1002 10L11.9001 10C9.80012 10 8.00012 11.9 8.00012 14.2L8.00012 38.5C8.00012 40.8 9.80012 42.7 11.9001 42.7L25.0002 42.7L28.6002 46.5C29.4001 47.3 30.6001 47.3 31.4001 46.5L35.0001 42.7L48.1002 42.7C50.3001 42.7 52.0002 40.8 52.0002 38.5L52.0002 14.2C52.0002 11.9 50.2002 10 48.1002 10Z"></path><g opacity="1"  transform="translate(16.666748046875 11.66668701171875)"><mask id="bg-mask-1" fill="white"><use transform="translate(0 0)" xlink:href="#path_1"></use></mask><g mask="url(#bg-mask-1)" ><path id="路径 1" fill-rule="evenodd" fill="url(#linear_2)" opacity="1" d="M16.5934 17.674L18.6715 15.5959L25.7965 22.7209L23.7184 24.799L16.5934 17.674Z"></path><path id="路径 2" fill-rule="evenodd" fill="url(#linear_3)" opacity="1" d="M27.182 24.9969L25.7966 26.3823C25.4008 26.7782 24.807 26.7782 24.4112 26.3823L19.3643 21.3355C18.9685 20.9396 18.9685 20.3459 19.3643 19.9501L20.7497 18.5646C21.1455 18.1688 21.7393 18.1688 22.1351 18.5646L27.182 23.6115C27.5778 24.0073 27.5778 24.6011 27.182 24.9969ZM10.557 15.0021L15.9008 9.65839L20.3539 14.1115L15.0101 19.4553L10.557 15.0021Z"></path><path id="路径 4" fill-rule="evenodd" fill="url(#linear_4)" opacity="1" d="M15.01 20.8405L14.1194 21.7311C13.7235 22.127 13.1298 22.127 12.734 21.7311L7.98395 16.9811C7.68708 16.6843 7.68708 16.0905 8.08291 15.6947L8.97354 14.8041C9.36937 14.4082 9.96312 14.4082 10.359 14.8041L15.109 19.5541C15.4058 19.8509 15.4058 20.5436 15.01 20.8405ZM22.6298 13.2207L21.7392 14.1114C21.3433 14.5072 20.7496 14.5072 20.3537 14.1114L15.6037 9.36135C15.2079 8.96552 15.2079 8.37177 15.6037 7.97593L16.5933 7.18427C16.9892 6.78843 17.5829 6.78843 17.9787 7.18427L22.7287 11.9343C23.0256 12.3301 23.0256 12.9239 22.6298 13.2207Z"></path><path id="路径 6" fill-rule="evenodd" fill="url(#linear_5)" opacity="1" d="M16.5933 24.9968L6.99438 24.9968L6.99438 24.502C6.99438 24.0072 7.39022 23.7103 7.78605 23.7103L15.8017 23.7103C16.2965 23.7103 16.5933 24.1062 16.5933 24.502L16.5933 24.9968Z"></path><path id="路径 7" fill-rule="evenodd" fill="url(#linear_6)" opacity="1" d="M17.0882 26.5805L6.49967 26.5805C6.00488 26.5805 5.70801 26.1846 5.70801 25.7888C5.70801 25.294 6.10384 24.9971 6.49967 24.9971L17.0882 24.9971C17.583 24.9971 17.8799 25.393 17.8799 25.7888C17.8799 26.1846 17.4841 26.5805 17.0882 26.5805Z"></path></g></g><g opacity="1"  transform="translate(14.166748046875 10.83331298828125)"><mask id="bg-mask-2" fill="white"><use transform="translate(0 0)" xlink:href="#path_2"></use></mask><g mask="url(#bg-mask-2)" ><path id="路径 1" fill-rule="evenodd" style="fill:#FFFFFF" opacity="1" d="M16.5934 17.674L18.6715 15.5959L25.7965 22.7209L23.7184 24.799L16.5934 17.674Z"></path><path id="路径 2" fill-rule="evenodd" style="fill:#FFFFFF" opacity="1" d="M27.182 24.997L25.7966 26.3824C25.4008 26.7782 24.807 26.7782 24.4112 26.3824L19.3643 21.3355C18.9685 20.9397 18.9685 20.346 19.3643 19.9501L20.7497 18.5647C21.1455 18.1689 21.7393 18.1689 22.1351 18.5647L27.182 23.6116C27.5778 24.0074 27.5778 24.6012 27.182 24.997ZM10.557 15.0022L15.9008 9.65845L20.3539 14.1116L15.0101 19.4553L10.557 15.0022Z"></path><path id="路径 4" fill-rule="evenodd" style="fill:#FFFFFF" opacity="1" d="M15.0101 20.8405L14.1195 21.7311C13.7237 22.127 13.1299 22.127 12.7341 21.7311L7.98408 16.9811C7.6872 16.6843 7.6872 16.0905 8.08304 15.6947L8.97366 14.8041C9.36949 14.4082 9.96324 14.4082 10.3591 14.8041L15.1091 19.5541C15.406 19.8509 15.406 20.5436 15.0101 20.8405ZM22.6299 13.2207L21.7393 14.1114C21.3435 14.5072 20.7497 14.5072 20.3539 14.1114L15.6039 9.36135C15.208 8.96552 15.208 8.37177 15.6039 7.97593L16.5935 7.18427C16.9893 6.78843 17.583 6.78843 17.9789 7.18427L22.7289 11.9343C23.0257 12.3301 23.0257 12.9239 22.6299 13.2207Z"></path><path id="路径 6" fill-rule="evenodd" style="fill:#FFFFFF" opacity="1" d="M16.5933 24.9968L6.99438 24.9968L6.99438 24.502C6.99438 24.0072 7.39022 23.7103 7.78605 23.7103L15.8017 23.7103C16.2965 23.7103 16.5933 24.1062 16.5933 24.502L16.5933 24.9968Z"></path><path id="路径 7" fill-rule="evenodd" style="fill:#FFFFFF" opacity="1" d="M17.0882 26.5805L6.49967 26.5805C6.00488 26.5805 5.70801 26.1847 5.70801 25.7889C5.70801 25.2941 6.10384 24.9972 6.49967 24.9972L17.0882 24.9972C17.583 24.9972 17.8799 25.393 17.8799 25.7889C17.8799 26.1847 17.4841 26.5805 17.0882 26.5805Z"></path></g></g><path id="路径 5" fill-rule="evenodd" fill="url(#linear_7)" opacity="1" d="M9.00012 53.9999C9.00012 54.0326 9.01619 54.0672 9.03346 54.0999C9.05072 54.1326 9.06563 54.1673 9.10012 54.1999C9.13461 54.2324 9.18182 54.2675 9.23346 54.2999C9.28506 54.3323 9.34812 54.3511 9.41679 54.3832C9.48542 54.4153 9.56461 54.4515 9.65012 54.4832C9.73559 54.5149 9.83131 54.5519 9.93346 54.5832C10.0356 54.6145 10.1316 54.6357 10.2501 54.6665C10.3687 54.6974 10.4988 54.7363 10.6335 54.7665C10.7681 54.7968 10.9163 54.8203 11.0668 54.8499C11.2172 54.8795 11.3676 54.921 11.5335 54.9499C11.6993 54.9788 11.8859 55.0051 12.0668 55.0332C12.2477 55.0613 12.4213 55.0894 12.6168 55.1165C12.8123 55.1438 13.0239 55.1569 13.2335 55.1832C13.4431 55.2095 13.6603 55.2412 13.8835 55.2665C14.1067 55.2919 14.3305 55.3257 14.5668 55.3499C14.8031 55.3741 15.0513 55.3934 15.3001 55.4165C15.549 55.4397 15.8061 55.4612 16.0668 55.4832C16.3275 55.5052 16.5948 55.5291 16.8668 55.5499C17.1388 55.5707 17.4175 55.5804 17.7001 55.5999C17.9827 55.6194 18.2576 55.6483 18.5501 55.6665C18.8427 55.6847 19.1483 55.6997 19.4501 55.7165C19.7519 55.7334 20.0565 55.7665 20.3668 55.7665C20.6771 55.7665 20.982 55.7999 21.3001 55.7999C21.6182 55.7999 21.9417 55.8499 22.2668 55.8499C22.5919 55.8499 22.9188 55.8832 23.2501 55.8832C23.5814 55.8832 23.9301 55.9165 24.2668 55.9165C24.6035 55.9165 24.9422 55.9332 25.2835 55.9332C25.6248 55.9332 25.9551 55.9665 26.3001 55.9665C26.6453 55.9665 27.0021 55.9832 27.3501 55.9832C27.6982 55.9832 28.0499 55.9832 28.4001 55.9832C28.7503 55.9832 29.0987 55.9999 29.4501 55.9999C29.8016 55.9999 30.1483 55.9999 30.5001 55.9999C30.852 55.9999 31.1987 55.9999 31.5501 55.9999C31.9016 55.9999 32.25 55.9832 32.6001 55.9832C32.9503 55.9832 33.302 55.9832 33.6501 55.9832C33.9982 55.9832 34.3551 55.9665 34.7001 55.9665C35.0453 55.9665 35.3755 55.9332 35.7168 55.9332C36.0581 55.9332 36.3968 55.9165 36.7335 55.9165C37.0702 55.9165 37.4189 55.8832 37.7501 55.8832C38.0815 55.8832 38.4084 55.8499 38.7335 55.8499C39.0586 55.8499 39.3821 55.7999 39.7001 55.7999C40.0183 55.7999 40.3231 55.7665 40.6335 55.7665C40.9438 55.7665 41.2483 55.7334 41.5502 55.7165C41.852 55.6997 42.1576 55.6847 42.4502 55.6665C42.7427 55.6483 43.0176 55.6194 43.3002 55.5999C43.5828 55.5804 43.8615 55.5707 44.1335 55.5499C44.4055 55.5291 44.6727 55.5052 44.9335 55.4832C45.1942 55.4612 45.4514 55.4397 45.7002 55.4165C45.949 55.3934 46.1972 55.3741 46.4335 55.3499C46.6698 55.3257 46.8936 55.2919 47.1168 55.2665C47.34 55.2412 47.5572 55.2095 47.7668 55.1832C47.9764 55.1569 48.188 55.1438 48.3835 55.1165C48.579 55.0894 48.7526 55.0613 48.9335 55.0332C49.1144 55.0051 49.3009 54.9788 49.4668 54.9499C49.6327 54.921 49.7831 54.8795 49.9335 54.8499C50.0839 54.8203 50.2321 54.7968 50.3668 54.7665C50.5015 54.7363 50.6316 54.6974 50.7502 54.6665C50.8687 54.6357 50.9647 54.6145 51.0668 54.5832C51.169 54.5519 51.2647 54.5149 51.3502 54.4832C51.4357 54.4515 51.5149 54.4153 51.5835 54.3832C51.6521 54.3511 51.7152 54.3323 51.7668 54.2999C51.8185 54.2675 51.8657 54.2324 51.9002 54.1999C51.9347 54.1673 51.9495 54.1326 51.9668 54.0999C51.9841 54.0672 52.0002 54.0326 52.0002 53.9999C52.0002 53.9671 51.9841 53.9326 51.9668 53.8999C51.9495 53.8672 51.9347 53.8325 51.9002 53.7999C51.8657 53.7673 51.8185 53.7323 51.7668 53.6999C51.7152 53.6675 51.6521 53.6487 51.5835 53.6165C51.5149 53.5844 51.4357 53.5483 51.3502 53.5165C51.2647 53.4848 51.169 53.4478 51.0668 53.4165C50.9647 53.3852 50.8687 53.364 50.7502 53.3332C50.6316 53.3024 50.5015 53.2634 50.3668 53.2332C50.2322 53.2029 50.0839 53.1795 49.9335 53.1499C49.7831 53.1203 49.6327 53.0787 49.4668 53.0499C49.3009 53.021 49.1144 52.9946 48.9335 52.9665C48.7526 52.9385 48.579 52.9104 48.3835 52.8832C48.188 52.856 47.9764 52.8428 47.7668 52.8165C47.5572 52.7903 47.34 52.7585 47.1168 52.7332C46.8936 52.7079 46.6698 52.6741 46.4335 52.6499C46.1972 52.6257 45.949 52.6064 45.7002 52.5832C45.4514 52.56 45.1942 52.5385 44.9335 52.5165C44.6727 52.4946 44.4055 52.4706 44.1335 52.4499C43.8615 52.4291 43.5828 52.4194 43.3002 52.3999C43.0176 52.3804 42.7427 52.3514 42.4502 52.3332C42.1576 52.315 41.852 52.3 41.5502 52.2832C41.2483 52.2664 40.9438 52.2332 40.6335 52.2332C40.3231 52.2332 40.0182 52.1999 39.7001 52.1999C39.382 52.1999 39.0586 52.1499 38.7335 52.1499C38.4084 52.1499 38.0815 52.1165 37.7501 52.1165C37.4189 52.1165 37.0702 52.0832 36.7335 52.0832C36.3968 52.0832 36.0581 52.0665 35.7168 52.0665C35.3755 52.0665 35.0453 52.0332 34.7001 52.0332C34.3551 52.0332 33.9982 52.0165 33.6501 52.0165C33.302 52.0165 32.9503 52.0165 32.6001 52.0165C32.25 52.0165 31.9016 51.9999 31.5501 51.9999C31.1987 51.9999 30.852 51.9999 30.5001 51.9999C30.1483 51.9999 29.8016 51.9999 29.4501 51.9999C29.0987 51.9999 28.7503 52.0165 28.4001 52.0165C28.0499 52.0165 27.6982 52.0165 27.3501 52.0165C27.0021 52.0165 26.6453 52.0332 26.3001 52.0332C25.9551 52.0332 25.6248 52.0665 25.2835 52.0665C24.9422 52.0665 24.6035 52.0832 24.2668 52.0832C23.9301 52.0832 23.5814 52.1165 23.2501 52.1165C22.9188 52.1165 22.5919 52.1499 22.2668 52.1499C21.9417 52.1499 21.6182 52.1999 21.3001 52.1999C20.982 52.1999 20.6771 52.2332 20.3668 52.2332C20.0565 52.2332 19.7519 52.2664 19.4501 52.2832C19.1483 52.3 18.8427 52.315 18.5501 52.3332C18.2576 52.3514 17.9827 52.3804 17.7001 52.3999C17.4175 52.4194 17.1388 52.4291 16.8668 52.4499C16.5948 52.4706 16.3275 52.4946 16.0668 52.5165C15.8061 52.5385 15.549 52.5601 15.3001 52.5832C15.0513 52.6064 14.8031 52.6257 14.5668 52.6499C14.3305 52.6741 14.1067 52.7079 13.8835 52.7332C13.6603 52.7585 13.4431 52.7903 13.2335 52.8165C13.0239 52.8428 12.8123 52.856 12.6168 52.8832C12.4213 52.9104 12.2477 52.9385 12.0668 52.9665C11.8859 52.9946 11.6993 53.021 11.5335 53.0499C11.3676 53.0787 11.2172 53.1203 11.0668 53.1499C10.9163 53.1795 10.7681 53.2029 10.6335 53.2332C10.4988 53.2634 10.3687 53.3024 10.2501 53.3332C10.1316 53.364 10.0356 53.3852 9.93346 53.4165C9.83131 53.4478 9.73559 53.4848 9.65012 53.5165C9.56461 53.5483 9.48542 53.5844 9.41679 53.6165C9.34812 53.6487 9.28506 53.6675 9.23346 53.6999C9.18182 53.7323 9.13461 53.7673 9.10012 53.7999C9.06563 53.8325 9.05072 53.8672 9.03346 53.8999C9.01619 53.9326 9.00012 53.9671 9.00012 53.9999Z"></path><path id="路径 6" fill-rule="evenodd" fill="url(#linear_8)" opacity="1" d="M48.9667 17.8378C48.9667 17.9115 48.9685 17.9851 48.9721 18.0586C48.9757 18.1322 48.9811 18.2056 48.9883 18.2789C48.9955 18.3522 49.0045 18.4253 49.0154 18.4981C49.0261 18.5709 49.0387 18.6435 49.0531 18.7157C49.0675 18.788 49.0836 18.8598 49.1015 18.9312C49.1194 19.0027 49.139 19.0736 49.1604 19.1441C49.1818 19.2146 49.2049 19.2845 49.2297 19.3538C49.2545 19.4231 49.281 19.4919 49.3092 19.5599C49.3374 19.6279 49.3672 19.6953 49.3987 19.7618C49.4302 19.8284 49.4633 19.8941 49.498 19.9591C49.5327 20.0241 49.569 20.0881 49.6069 20.1513C49.6447 20.2145 49.6841 20.2766 49.7251 20.3379C49.766 20.3991 49.8083 20.4593 49.8522 20.5184C49.8961 20.5776 49.9414 20.6357 49.9881 20.6926C50.0348 20.7495 50.0829 20.8053 50.1324 20.8598C50.1819 20.9144 50.2326 20.9677 50.2847 21.0198C50.3368 21.0719 50.3901 21.1227 50.4446 21.1721C50.4992 21.2216 50.555 21.2697 50.6119 21.3164C50.6688 21.3631 50.7269 21.4084 50.786 21.4522C50.8451 21.4961 50.9053 21.5385 50.9666 21.5795C51.0278 21.6204 51.09 21.6597 51.1532 21.6976C51.2164 21.7354 51.2804 21.7717 51.3453 21.8064C51.4103 21.8412 51.4761 21.8743 51.5426 21.9058C51.6092 21.9372 51.6765 21.9671 51.7445 21.9953C51.8126 22.0235 51.8813 22.05 51.9507 22.0747C52.02 22.0995 52.0899 22.1227 52.1604 22.1441C52.2309 22.1654 52.3018 22.1851 52.3733 22.2029C52.4447 22.2208 52.5165 22.237 52.5888 22.2513C52.661 22.2657 52.7335 22.2783 52.8064 22.2891C52.8792 22.2999 52.9523 22.3089 53.0256 22.3162C53.0989 22.3234 53.1723 22.3288 53.2458 22.3324C53.3194 22.336 53.393 22.3378 53.4667 22.3378C53.5403 22.3378 53.6139 22.336 53.6875 22.3324C53.761 22.3288 53.8344 22.3234 53.9077 22.3162C53.981 22.3089 54.0541 22.2999 54.127 22.2891C54.1998 22.2783 54.2723 22.2657 54.3446 22.2513C54.4168 22.237 54.4886 22.2208 54.5601 22.2029C54.6315 22.1851 54.7025 22.1654 54.773 22.1441C54.8435 22.1227 54.9134 22.0995 54.9827 22.0747C55.052 22.05 55.1207 22.0235 55.1887 21.9953C55.2568 21.9671 55.324 21.9372 55.3907 21.9058C55.4572 21.8743 55.523 21.8412 55.5879 21.8064C55.6529 21.7717 55.717 21.7354 55.7801 21.6976C55.8433 21.6597 55.9055 21.6204 55.9667 21.5795C56.0279 21.5385 56.0882 21.4961 56.1473 21.4522C56.2065 21.4084 56.2645 21.3631 56.3214 21.3164C56.3783 21.2697 56.4341 21.2216 56.4886 21.1721C56.5432 21.1227 56.5965 21.0719 56.6486 21.0198C56.7007 20.9677 56.7515 20.9144 56.801 20.8598C56.8504 20.8053 56.8985 20.7495 56.9452 20.6926C56.9919 20.6357 57.0372 20.5776 57.0811 20.5184C57.125 20.4593 57.1673 20.3991 57.2083 20.3379C57.2492 20.2766 57.2886 20.2145 57.3264 20.1513C57.3643 20.0881 57.4007 20.0241 57.4354 19.9591C57.4702 19.8941 57.5032 19.8284 57.5344 19.7618C57.5661 19.6953 57.596 19.6279 57.6241 19.5599C57.6522 19.4919 57.6787 19.4231 57.7038 19.3538C57.7284 19.2845 57.7514 19.2146 57.7729 19.1441C57.7944 19.0736 57.8141 19.0027 57.8321 18.9312C57.8497 18.8598 57.8657 18.788 57.8801 18.7157C57.8946 18.6435 57.9073 18.5709 57.9182 18.4981C57.9288 18.4253 57.9377 18.3522 57.9452 18.2789C57.9522 18.2056 57.9575 18.1322 57.961 18.0586C57.9649 17.9851 57.9669 17.9115 57.9669 17.8378C57.9669 17.7642 57.9649 17.6905 57.961 17.617C57.9575 17.5434 57.9522 17.47 57.9452 17.3967C57.9377 17.3235 57.9288 17.2504 57.9182 17.1775C57.9073 17.1047 57.8946 17.0321 57.8801 16.9599C57.8657 16.8877 57.8497 16.8159 57.8321 16.7444C57.8141 16.673 57.7944 16.602 57.7729 16.5315C57.7514 16.4611 57.7284 16.3912 57.7038 16.3218C57.6787 16.2524 57.6522 16.1838 57.6241 16.1158C57.596 16.0477 57.5661 15.9804 57.5344 15.9138C57.5032 15.8472 57.4702 15.7815 57.4354 15.7165C57.4007 15.6516 57.3643 15.5875 57.3264 15.5244C57.2886 15.4612 57.2492 15.399 57.2083 15.3378C57.1673 15.2765 57.125 15.2163 57.0811 15.1572C57.0372 15.098 56.9919 15.04 56.9452 14.983C56.8985 14.9261 56.8504 14.8704 56.801 14.8158C56.7515 14.7612 56.7007 14.7079 56.6486 14.6558C56.5965 14.6038 56.5432 14.553 56.4886 14.5036C56.4341 14.4541 56.3783 14.406 56.3214 14.3592C56.2645 14.3125 56.2065 14.2672 56.1473 14.2234C56.0882 14.1795 56.0279 14.1371 55.9667 14.0962C55.9055 14.0553 55.8433 14.0159 55.7801 13.978C55.717 13.9402 55.6529 13.9039 55.5879 13.8692C55.523 13.8344 55.4572 13.8013 55.3907 13.7698C55.3241 13.7384 55.2568 13.7085 55.1887 13.6804C55.1207 13.6522 55.052 13.6257 54.9827 13.6009C54.9134 13.5761 54.8435 13.553 54.773 13.5316C54.7025 13.5102 54.6315 13.4905 54.5601 13.4727C54.4886 13.4548 54.4168 13.4386 54.3446 13.4243C54.2723 13.4099 54.1998 13.3973 54.127 13.3865C54.0541 13.3757 53.981 13.3667 53.9077 13.3595C53.8344 13.3523 53.761 13.3469 53.6875 13.3432C53.6139 13.3396 53.5403 13.3378 53.4667 13.3378C53.393 13.3378 53.3194 13.3396 53.2458 13.3432C53.1723 13.3469 53.0989 13.3523 53.0256 13.3595C52.9523 13.3667 52.8792 13.3757 52.8064 13.3865C52.7335 13.3973 52.661 13.4099 52.5888 13.4243C52.5165 13.4386 52.4447 13.4548 52.3733 13.4727C52.3018 13.4905 52.2309 13.5102 52.1604 13.5316C52.0899 13.553 52.02 13.5761 51.9507 13.6009C51.8813 13.6257 51.8126 13.6522 51.7445 13.6804C51.6765 13.7085 51.6092 13.7384 51.5426 13.7698C51.4761 13.8013 51.4103 13.8344 51.3453 13.8692C51.2804 13.9039 51.2164 13.9402 51.1532 13.978C51.09 14.0159 51.0278 14.0553 50.9666 14.0962C50.9053 14.1371 50.8451 14.1795 50.786 14.2234C50.7269 14.2672 50.6688 14.3125 50.6119 14.3592C50.555 14.406 50.4992 14.4541 50.4446 14.5036C50.3901 14.553 50.3368 14.6038 50.2847 14.6558C50.2326 14.7079 50.1819 14.7612 50.1324 14.8158C50.0829 14.8704 50.0348 14.9261 49.9881 14.983C49.9414 15.04 49.8961 15.098 49.8522 15.1572C49.8083 15.2163 49.766 15.2765 49.7251 15.3378C49.6841 15.399 49.6447 15.4612 49.6069 15.5244C49.569 15.5875 49.5327 15.6516 49.498 15.7165C49.4633 15.7815 49.4302 15.8472 49.3987 15.9138C49.3672 15.9804 49.3374 16.0477 49.3092 16.1158C49.281 16.1838 49.2545 16.2524 49.2297 16.3218C49.2049 16.3912 49.1818 16.4611 49.1604 16.5315C49.139 16.602 49.1194 16.673 49.1015 16.7444C49.0836 16.8159 49.0675 16.8877 49.0531 16.9599C49.0387 17.0321 49.0261 17.1047 49.0154 17.1775C49.0045 17.2504 48.9955 17.3235 48.9884 17.3967C48.9811 17.47 48.9757 17.5434 48.9721 17.617C48.9685 17.6905 48.9667 17.7642 48.9667 17.8378Z"></path><path id="路径 7" fill-rule="evenodd" fill="url(#linear_9)" opacity="1" d="M46.6667 17.8377C46.6667 17.9113 46.6686 17.9849 46.6722 18.0585C46.6758 18.132 46.6812 18.2055 46.6884 18.2787C46.6957 18.3521 46.7047 18.4252 46.7155 18.498C46.7263 18.5708 46.7389 18.6434 46.7532 18.7156C46.7676 18.7878 46.7837 18.8597 46.8016 18.9311C46.8195 19.0025 46.8392 19.0735 46.8605 19.144C46.8819 19.2145 46.905 19.2844 46.9298 19.3537C46.9546 19.423 46.9811 19.4918 47.0093 19.5598C47.0375 19.6278 47.0673 19.6951 47.0988 19.7617C47.1303 19.8283 47.1634 19.894 47.1981 19.959C47.2328 20.024 47.2691 20.088 47.307 20.1512C47.3449 20.2143 47.3842 20.2765 47.4251 20.3377C47.4661 20.399 47.5085 20.4592 47.5523 20.5183C47.5962 20.5775 47.6415 20.6356 47.6882 20.6925C47.7349 20.7494 47.783 20.8051 47.8325 20.8597C47.8819 20.9142 47.9327 20.9676 47.9848 21.0196C48.0369 21.0717 48.0902 21.1225 48.1448 21.172C48.1993 21.2214 48.2551 21.2695 48.312 21.3162C48.3689 21.3629 48.427 21.4082 48.4861 21.4521C48.5453 21.496 48.6055 21.5384 48.6667 21.5793C48.7279 21.6202 48.7901 21.6596 48.8533 21.6975C48.9165 21.7353 48.9805 21.7716 49.0455 21.8063C49.1104 21.8411 49.1762 21.8742 49.2428 21.9056C49.3093 21.9371 49.3766 21.967 49.4447 21.9952C49.5127 22.0234 49.5814 22.0498 49.6508 22.0746C49.7201 22.0994 49.79 22.1226 49.8605 22.1439C49.931 22.1653 50.0019 22.185 50.0733 22.2028C50.1448 22.2207 50.2166 22.2369 50.2888 22.2512C50.3611 22.2656 50.4336 22.2782 50.5065 22.289C50.5793 22.2998 50.6524 22.3088 50.7257 22.316C50.799 22.3232 50.8724 22.3287 50.946 22.3323C51.0195 22.3359 51.0931 22.3377 51.1667 22.3377C51.2404 22.3377 51.314 22.3359 51.3876 22.3323C51.4611 22.3287 51.5346 22.3232 51.6078 22.316C51.6811 22.3088 51.7542 22.2998 51.827 22.289C51.8999 22.2782 51.9724 22.2656 52.0447 22.2512C52.1169 22.2369 52.1887 22.2207 52.2602 22.2028C52.3316 22.185 52.4026 22.1653 52.473 22.1439C52.5435 22.1226 52.6134 22.0994 52.6827 22.0746C52.7521 22.0498 52.8208 22.0234 52.8888 21.9952C52.9568 21.967 53.0242 21.9371 53.0907 21.9056C53.1574 21.8742 53.2231 21.8411 53.2881 21.8063C53.353 21.7716 53.417 21.7353 53.4802 21.6975C53.5434 21.6596 53.6056 21.6202 53.6668 21.5793C53.7281 21.5384 53.7883 21.496 53.8474 21.4521C53.9065 21.4082 53.9646 21.3629 54.0216 21.3162C54.0784 21.2695 54.1342 21.2214 54.1888 21.172C54.2433 21.1225 54.2966 21.0717 54.3487 21.0196C54.4008 20.9676 54.4516 20.9142 54.501 20.8597C54.5505 20.8051 54.5986 20.7494 54.6453 20.6925C54.692 20.6356 54.7373 20.5775 54.7812 20.5183C54.8251 20.4592 54.8675 20.399 54.9084 20.3377C54.9493 20.2765 54.9887 20.2143 55.0266 20.1512C55.0644 20.088 55.1007 20.024 55.1354 19.959C55.1702 19.894 55.2033 19.8283 55.2347 19.7617C55.2662 19.6951 55.296 19.6278 55.3242 19.5598C55.3524 19.4918 55.3789 19.423 55.4037 19.3537C55.4285 19.2844 55.4516 19.2145 55.473 19.144C55.4944 19.0735 55.5141 19.0025 55.5319 18.9311C55.5498 18.8597 55.566 18.7878 55.5803 18.7156C55.5947 18.6434 55.6072 18.5708 55.6181 18.498C55.6289 18.4252 55.6379 18.3521 55.6451 18.2787C55.6523 18.2055 55.6577 18.132 55.6614 18.0585C55.6649 17.9849 55.6667 17.9113 55.6667 17.8377C55.6668 17.764 55.6651 17.6903 55.6616 17.6168C55.658 17.5432 55.6527 17.4697 55.6455 17.3963C55.6383 17.323 55.6294 17.2498 55.6186 17.1769C55.6079 17.1041 55.5954 17.0315 55.5811 16.9592C55.5667 16.8869 55.5507 16.815 55.5328 16.7435C55.5149 16.672 55.4954 16.601 55.474 16.5304C55.4527 16.4599 55.4297 16.3899 55.4049 16.3205C55.3801 16.2511 55.3537 16.1824 55.3255 16.1143C55.2973 16.0462 55.2675 15.9788 55.2361 15.9121C55.2046 15.8455 55.1716 15.7797 55.1368 15.7147C55.1021 15.6497 55.0659 15.5856 55.0281 15.5223C54.9902 15.4591 54.9509 15.3968 54.9099 15.3355C54.869 15.2742 54.8266 15.214 54.7827 15.1548C54.7389 15.0955 54.6936 15.0374 54.6469 14.9804C54.6002 14.9234 54.5521 14.8676 54.5026 14.813C54.4532 14.7584 54.4024 14.705 54.3503 14.6528C54.2982 14.6007 54.2449 14.5499 54.1903 14.5004C54.1358 14.4509 54.08 14.4027 54.023 14.356C53.9661 14.3092 53.9081 14.2639 53.8489 14.22C53.7897 14.176 53.7295 14.1335 53.6682 14.0926C53.607 14.0516 53.5448 14.0122 53.4816 13.9743C53.4183 13.9364 53.3543 13.9001 53.2893 13.8653C53.2243 13.8305 53.1585 13.7974 53.0919 13.7659C53.0253 13.7343 52.958 13.7045 52.8899 13.6763C52.8218 13.6481 52.7531 13.6215 52.6837 13.5967C52.6143 13.5718 52.5443 13.5487 52.4739 13.5273C52.4034 13.5059 52.3324 13.4862 52.2609 13.4683C52.1894 13.4504 52.1175 13.4342 52.0452 13.4199C51.973 13.4055 51.9004 13.3929 51.8275 13.3821C51.7546 13.3712 51.6815 13.3622 51.6081 13.355C51.5348 13.3478 51.4613 13.3423 51.3877 13.3387C51.3141 13.3351 51.2405 13.3333 51.1667 13.3333C51.0931 13.3333 51.0194 13.3351 50.9459 13.3387C50.8723 13.3423 50.7988 13.3478 50.7254 13.355C50.6521 13.3622 50.579 13.3712 50.5061 13.3821C50.4332 13.3929 50.3606 13.4055 50.2883 13.4199C50.216 13.4342 50.1442 13.4504 50.0727 13.4683C50.0012 13.4862 49.9302 13.5059 49.8597 13.5273C49.7892 13.5487 49.7192 13.5718 49.6499 13.5967C49.5805 13.6215 49.5118 13.6481 49.4437 13.6763C49.3756 13.7045 49.3083 13.7343 49.2416 13.7659C49.175 13.7974 49.1093 13.8305 49.0443 13.8653C48.9793 13.9001 48.9152 13.9364 48.852 13.9743C48.7888 14.0122 48.7266 14.0516 48.6653 14.0926C48.6041 14.1335 48.5439 14.176 48.4847 14.22C48.4255 14.2639 48.3675 14.3092 48.3105 14.356C48.2536 14.4027 48.1978 14.4509 48.1433 14.5004C48.0887 14.5499 48.0353 14.6007 47.9832 14.6528C47.9312 14.705 47.8804 14.7584 47.8309 14.813C47.7815 14.8676 47.7334 14.9234 47.6867 14.9804C47.64 15.0374 47.5947 15.0955 47.5508 15.1548C47.5069 15.214 47.4646 15.2742 47.4237 15.3355C47.3828 15.3968 47.3434 15.4591 47.3055 15.5223C47.2677 15.5856 47.2314 15.6497 47.1967 15.7147C47.162 15.7797 47.129 15.8455 47.0975 15.9121C47.066 15.9788 47.0362 16.0462 47.0081 16.1143C46.9799 16.1824 46.9534 16.2511 46.9287 16.3205C46.9039 16.3899 46.8808 16.4599 46.8595 16.5304C46.8382 16.601 46.8186 16.672 46.8008 16.7435C46.7829 16.815 46.7668 16.8869 46.7525 16.9592C46.7382 17.0315 46.7257 17.1041 46.7149 17.1769C46.7042 17.2498 46.6952 17.323 46.688 17.3963C46.6809 17.4697 46.6755 17.5432 46.672 17.6168C46.6685 17.6903 46.6667 17.764 46.6667 17.8377Z"></path><path id="路径 7" fill-rule="evenodd" fill="url(#linear_10)" opacity="1" d="M46.6667 17.8377C46.6667 17.9113 46.6686 17.9849 46.6722 18.0585C46.6758 18.132 46.6812 18.2055 46.6884 18.2787C46.6957 18.3521 46.7047 18.4252 46.7155 18.498C46.7263 18.5708 46.7389 18.6434 46.7532 18.7156C46.7676 18.7878 46.7837 18.8597 46.8016 18.9311C46.8195 19.0025 46.8392 19.0735 46.8605 19.144C46.8819 19.2145 46.905 19.2844 46.9298 19.3537C46.9546 19.423 46.9811 19.4918 47.0093 19.5598C47.0375 19.6278 47.0673 19.6951 47.0988 19.7617C47.1303 19.8283 47.1634 19.894 47.1981 19.959C47.2328 20.024 47.2691 20.088 47.307 20.1512C47.3449 20.2143 47.3842 20.2765 47.4251 20.3377C47.4661 20.399 47.5085 20.4592 47.5523 20.5183C47.5962 20.5775 47.6415 20.6356 47.6882 20.6925C47.7349 20.7494 47.783 20.8051 47.8325 20.8597C47.8819 20.9142 47.9327 20.9676 47.9848 21.0196C48.0369 21.0717 48.0902 21.1225 48.1448 21.172C48.1993 21.2214 48.2551 21.2695 48.312 21.3162C48.3689 21.3629 48.427 21.4082 48.4861 21.4521C48.5453 21.496 48.6055 21.5384 48.6667 21.5793C48.7279 21.6202 48.7901 21.6596 48.8533 21.6975C48.9165 21.7353 48.9805 21.7716 49.0455 21.8063C49.1104 21.8411 49.1762 21.8742 49.2428 21.9056C49.3093 21.9371 49.3766 21.967 49.4447 21.9952C49.5127 22.0234 49.5814 22.0498 49.6508 22.0746C49.7201 22.0994 49.79 22.1226 49.8605 22.1439C49.931 22.1653 50.0019 22.185 50.0733 22.2028C50.1448 22.2207 50.2166 22.2369 50.2888 22.2512C50.3611 22.2656 50.4336 22.2782 50.5065 22.289C50.5793 22.2998 50.6524 22.3088 50.7257 22.316C50.799 22.3232 50.8724 22.3287 50.946 22.3323C51.0195 22.3359 51.0931 22.3377 51.1667 22.3377C51.2404 22.3377 51.314 22.3359 51.3876 22.3323C51.4611 22.3287 51.5346 22.3232 51.6078 22.316C51.6811 22.3088 51.7542 22.2998 51.827 22.289C51.8999 22.2782 51.9724 22.2656 52.0447 22.2512C52.1169 22.2369 52.1887 22.2207 52.2602 22.2028C52.3316 22.185 52.4026 22.1653 52.473 22.1439C52.5435 22.1226 52.6134 22.0994 52.6827 22.0746C52.7521 22.0498 52.8208 22.0234 52.8888 21.9952C52.9568 21.967 53.0242 21.9371 53.0907 21.9056C53.1574 21.8742 53.2231 21.8411 53.2881 21.8063C53.353 21.7716 53.417 21.7353 53.4802 21.6975C53.5434 21.6596 53.6056 21.6202 53.6668 21.5793C53.7281 21.5384 53.7883 21.496 53.8474 21.4521C53.9065 21.4082 53.9646 21.3629 54.0216 21.3162C54.0784 21.2695 54.1342 21.2214 54.1888 21.172C54.2433 21.1225 54.2966 21.0717 54.3487 21.0196C54.4008 20.9676 54.4516 20.9142 54.501 20.8597C54.5505 20.8051 54.5986 20.7494 54.6453 20.6925C54.692 20.6356 54.7373 20.5775 54.7812 20.5183C54.8251 20.4592 54.8675 20.399 54.9084 20.3377C54.9493 20.2765 54.9887 20.2143 55.0266 20.1512C55.0644 20.088 55.1007 20.024 55.1354 19.959C55.1702 19.894 55.2033 19.8283 55.2347 19.7617C55.2662 19.6951 55.296 19.6278 55.3242 19.5598C55.3524 19.4918 55.3789 19.423 55.4037 19.3537C55.4285 19.2844 55.4516 19.2145 55.473 19.144C55.4944 19.0735 55.5141 19.0025 55.5319 18.9311C55.5498 18.8597 55.566 18.7878 55.5803 18.7156C55.5947 18.6434 55.6072 18.5708 55.6181 18.498C55.6289 18.4252 55.6379 18.3521 55.6451 18.2787C55.6523 18.2055 55.6577 18.132 55.6614 18.0585C55.6649 17.9849 55.6667 17.9113 55.6667 17.8377C55.6668 17.764 55.6651 17.6903 55.6616 17.6168C55.658 17.5432 55.6527 17.4697 55.6455 17.3963C55.6383 17.323 55.6294 17.2498 55.6186 17.1769C55.6079 17.1041 55.5954 17.0315 55.5811 16.9592C55.5667 16.8869 55.5507 16.815 55.5328 16.7435C55.5149 16.672 55.4954 16.601 55.474 16.5304C55.4527 16.4599 55.4297 16.3899 55.4049 16.3205C55.3801 16.2511 55.3537 16.1824 55.3255 16.1143C55.2973 16.0462 55.2675 15.9788 55.2361 15.9121C55.2046 15.8455 55.1716 15.7797 55.1368 15.7147C55.1021 15.6497 55.0659 15.5856 55.0281 15.5223C54.9902 15.4591 54.9509 15.3968 54.9099 15.3355C54.869 15.2742 54.8266 15.214 54.7827 15.1548C54.7389 15.0955 54.6936 15.0374 54.6469 14.9804C54.6002 14.9234 54.5521 14.8676 54.5026 14.813C54.4532 14.7584 54.4024 14.705 54.3503 14.6528C54.2982 14.6007 54.2449 14.5499 54.1903 14.5004C54.1358 14.4509 54.08 14.4027 54.023 14.356C53.9661 14.3092 53.9081 14.2639 53.8489 14.22C53.7897 14.176 53.7295 14.1335 53.6682 14.0926C53.607 14.0516 53.5448 14.0122 53.4816 13.9743C53.4183 13.9364 53.3543 13.9001 53.2893 13.8653C53.2243 13.8305 53.1585 13.7974 53.0919 13.7659C53.0253 13.7343 52.958 13.7045 52.8899 13.6763C52.8218 13.6481 52.7531 13.6215 52.6837 13.5967C52.6143 13.5718 52.5443 13.5487 52.4739 13.5273C52.4034 13.5059 52.3324 13.4862 52.2609 13.4683C52.1894 13.4504 52.1175 13.4342 52.0452 13.4199C51.973 13.4055 51.9004 13.3929 51.8275 13.3821C51.7546 13.3712 51.6815 13.3622 51.6081 13.355C51.5348 13.3478 51.4613 13.3423 51.3877 13.3387C51.3141 13.3351 51.2405 13.3333 51.1667 13.3333C51.0931 13.3333 51.0194 13.3351 50.9459 13.3387C50.8723 13.3423 50.7988 13.3478 50.7254 13.355C50.6521 13.3622 50.579 13.3712 50.5061 13.3821C50.4332 13.3929 50.3606 13.4055 50.2883 13.4199C50.216 13.4342 50.1442 13.4504 50.0727 13.4683C50.0012 13.4862 49.9302 13.5059 49.8597 13.5273C49.7892 13.5487 49.7192 13.5718 49.6499 13.5967C49.5805 13.6215 49.5118 13.6481 49.4437 13.6763C49.3756 13.7045 49.3083 13.7343 49.2416 13.7659C49.175 13.7974 49.1093 13.8305 49.0443 13.8653C48.9793 13.9001 48.9152 13.9364 48.852 13.9743C48.7888 14.0122 48.7266 14.0516 48.6653 14.0926C48.6041 14.1335 48.5439 14.176 48.4847 14.22C48.4255 14.2639 48.3675 14.3092 48.3105 14.356C48.2536 14.4027 48.1978 14.4509 48.1433 14.5004C48.0887 14.5499 48.0353 14.6007 47.9832 14.6528C47.9312 14.705 47.8804 14.7584 47.8309 14.813C47.7815 14.8676 47.7334 14.9234 47.6867 14.9804C47.64 15.0374 47.5947 15.0955 47.5508 15.1548C47.5069 15.214 47.4646 15.2742 47.4237 15.3355C47.3828 15.3968 47.3434 15.4591 47.3055 15.5223C47.2677 15.5856 47.2314 15.6497 47.1967 15.7147C47.162 15.7797 47.129 15.8455 47.0975 15.9121C47.066 15.9788 47.0362 16.0462 47.0081 16.1143C46.9799 16.1824 46.9534 16.2511 46.9287 16.3205C46.9039 16.3899 46.8808 16.4599 46.8595 16.5304C46.8382 16.601 46.8186 16.672 46.8008 16.7435C46.7829 16.815 46.7668 16.8869 46.7525 16.9592C46.7382 17.0315 46.7257 17.1041 46.7149 17.1769C46.7042 17.2498 46.6952 17.323 46.688 17.3963C46.6809 17.4697 46.6755 17.5432 46.672 17.6168C46.6685 17.6903 46.6667 17.764 46.6667 17.8377Z"></path></g></g><defs><rect id="path_0" x="0" y="0" width="60" height="60" rx="0" ry="0"/><linearGradient id="linear_0" x1="29.119012132922457%" y1="5.169204491319128%" x2="83.92300335542674%" y2="62.989477019684955%" gradientUnits="objectBoundingBox"><stop offset="0" stop-color="#E8F8FA" stop-opacity="0.9" /><stop offset="1" stop-color="#BADEF7" stop-opacity="1" /></linearGradient><linearGradient id="linear_1" x1="80.91948344079233%" y1="13.935026372865188%" x2="20.63268104140058%" y2="92.94617590615914%" gradientUnits="objectBoundingBox"><stop offset="0" stop-color="#57DDFF" stop-opacity="1" /><stop offset="1" stop-color="#1692F7" stop-opacity="1" /></linearGradient><rect id="path_1" x="0" y="0" width="31.6666259765625" height="31.6666259765625" rx="0" ry="0"/><linearGradient id="linear_2" x1="29.118947670218876%" y1="5.169204491319128%" x2="83.92310808076464%" y2="62.989477019684955%" gradientUnits="objectBoundingBox"><stop offset="0" stop-color="#E8F8FA" stop-opacity="0.9" /><stop offset="1" stop-color="#BADEF7" stop-opacity="1" /></linearGradient><linearGradient id="linear_3" x1="29.118973543779774%" y1="5.169204491319128%" x2="83.9230660468868%" y2="62.989477019684955%" gradientUnits="objectBoundingBox"><stop offset="0" stop-color="#E8F8FA" stop-opacity="0.9" /><stop offset="1" stop-color="#BADEF7" stop-opacity="1" /></linearGradient><linearGradient id="linear_4" x1="29.119051900506467%" y1="5.169204491319128%" x2="83.922938749485%" y2="62.989477019684955%" gradientUnits="objectBoundingBox"><stop offset="0" stop-color="#E8F8FA" stop-opacity="0.9" /><stop offset="1" stop-color="#BADEF7" stop-opacity="1" /></linearGradient><linearGradient id="linear_5" x1="29.118832489430513%" y1="5.169204491319128%" x2="83.92329520209698%" y2="62.989477019684955%" gradientUnits="objectBoundingBox"><stop offset="0" stop-color="#E8F8FA" stop-opacity="0.9" /><stop offset="1" stop-color="#BADEF7" stop-opacity="1" /></linearGradient><linearGradient id="linear_6" x1="29.119030125587468%" y1="5.169204491319128%" x2="83.9229741247582%" y2="62.989477019684955%" gradientUnits="objectBoundingBox"><stop offset="0" stop-color="#E8F8FA" stop-opacity="0.9" /><stop offset="1" stop-color="#BADEF7" stop-opacity="1" /></linearGradient><rect id="path_2" x="0" y="0" width="31.6666259765625" height="31.6666259765625" rx="0" ry="0"/><linearGradient id="linear_7" x1="29.11904324123331%" y1="5.169204491319128%" x2="83.92295281723669%" y2="62.989477019684955%" gradientUnits="objectBoundingBox"><stop offset="0" stop-color="#E8F8FA" stop-opacity="0.9" /><stop offset="1" stop-color="#BADEF7" stop-opacity="1" /></linearGradient><linearGradient id="linear_8" x1="39.92808721004116%" y1="17.244%" x2="88.17866942095297%" y2="85.071%" gradientUnits="objectBoundingBox"><stop offset="0" stop-color="#FAD7EA" stop-opacity="0.18" /><stop offset="1" stop-color="#D9BFCA" stop-opacity="0.2" /></linearGradient><linearGradient id="linear_9" x1="35.65102282650291%" y1="38.03640723644769%" x2="100.00003932745871%" y2="100.00013980735723%" gradientUnits="objectBoundingBox"><stop offset="0" stop-color="#FAEDF2" stop-opacity="0.96" /><stop offset="1" stop-color="#FCCFDD" stop-opacity="1" /></linearGradient><linearGradient id="linear_10" x1="80.92103576485549%" y1="13.935019482155228%" x2="20.633031664024255%" y2="92.94612994534626%" gradientUnits="objectBoundingBox"><stop offset="0" stop-color="#FF57A5" stop-opacity="1" /><stop offset="1" stop-color="#FC2828" stop-opacity="1" /></linearGradient></defs></svg>