<svg xmlns="http://www.w3.org/2000/svg" xmlns:xlink="http://www.w3.org/1999/xlink" width="36" height="36" viewBox="0 0 36 36" fill="none"><g opacity="1"  transform="translate(0 0)"><mask id="bg-mask-0" fill="white"><use transform="translate(0 0)" xlink:href="#path_0"></use></mask><g mask="url(#bg-mask-0)" ><path id="路径 1" fill-rule="evenodd" fill="url(#linear_0)" opacity="1" d="M5.87997 26.1L31.32 26.1L34.56 30.54C35.7599 32.22 35.1 33.6 33 33.6L3.89997 33.6C1.85998 33.6 1.19998 32.28 2.39998 30.6L5.87997 26.1Z"></path><path id="路径 2" fill-rule="evenodd" style="fill:#DAE9FF" opacity="1" d="M10.1941 5L24.5603 5C26.4157 5 27.9001 6.63171 27.9001 8.67133L27.9001 26.3287C27.9001 28.3683 26.4157 30 24.5603 30L10.1941 30C8.33866 30 6.85431 28.3683 6.85431 26.3287L6.85431 8.67133C6.85431 6.63171 8.33866 5 10.1941 5Z"></path><path id="路径 3" fill-rule="evenodd" fill="url(#linear_1)" opacity="1" d="M9.23978 5L23.659 5C25.5145 5 26.9988 6.63171 26.9988 8.67133L26.9988 26.3287C26.9988 28.3683 25.5145 30 23.659 30L9.23978 30C7.38437 30 5.90002 28.3683 5.90002 26.3287L5.90002 8.67133C5.90002 6.63171 7.38437 5 9.23978 5Z"></path><path id="路径 4" fill-rule="evenodd" fill="url(#linear_2)" opacity="1" d="M33.66 31.2L33.06 30.6C33.78 29.64 34.2 28.44 34.2 27.12C34.2 23.88 31.56 21.24 28.26 21.24C24.96 21.24 22.32 23.88 22.32 27.12C22.32 30.36 24.96 33 28.26 33C29.58 33 30.42 32.7 31.44 31.98L32.1 32.58C32.46 32.94 33.18 32.94 33.48 32.58C33.84 32.28 34.02 31.68 33.66 31.2Z"></path><path id="路径 5" fill-rule="evenodd" fill="url(#linear_3)" opacity="1" d="M32.76 30.8399L31.98 30.0599C32.7 29.0999 33.12 27.9 33.12 26.5799C33.12 23.3399 30.48 20.7 27.18 20.7C23.88 20.7 21.24 23.3399 21.24 26.5799C21.24 29.82 23.88 32.4599 27.18 32.4599C28.5 32.4599 29.7 31.9799 30.66 31.3199L31.44 32.0999C31.8 32.4599 32.34 32.4599 32.7 32.0999C33.06 31.7399 33.06 31.1999 32.76 30.8399Z"></path><path id="路径 5" fill-rule="evenodd" fill="url(#linear_4)" opacity="1" d="M32.76 30.8399L31.98 30.0599C32.7 29.0999 33.12 27.9 33.12 26.5799C33.12 23.3399 30.48 20.7 27.18 20.7C23.88 20.7 21.24 23.3399 21.24 26.5799C21.24 29.82 23.88 32.4599 27.18 32.4599C28.5 32.4599 29.7 31.9799 30.66 31.3199L31.44 32.0999C31.8 32.4599 32.34 32.4599 32.7 32.0999C33.06 31.7399 33.06 31.1999 32.76 30.8399Z"></path><path id="路径 6" fill-rule="evenodd" style="fill:#FFFFFF" opacity="1" d="M23.46 26.52C23.46 26.5799 23.4615 26.6397 23.4645 26.6996C23.4675 26.7594 23.472 26.8191 23.4779 26.8787C23.4839 26.9383 23.4913 26.9978 23.5003 27.057C23.5092 27.1162 23.5196 27.1753 23.5315 27.234C23.5434 27.2928 23.5567 27.3512 23.5715 27.4093C23.5863 27.4674 23.6025 27.5251 23.6202 27.5824C23.6379 27.6398 23.657 27.6966 23.6775 27.753C23.698 27.8094 23.7199 27.8653 23.7432 27.9206C23.7665 27.976 23.7911 28.0307 23.8172 28.0848C23.8432 28.139 23.8706 28.1924 23.8993 28.2453C23.928 28.2981 23.958 28.3502 23.9893 28.4016C24.0206 28.453 24.0531 28.5035 24.0869 28.5534C24.1207 28.6032 24.1558 28.6521 24.1921 28.7002C24.2283 28.7484 24.2658 28.7956 24.3044 28.8419C24.343 28.8882 24.3828 28.9335 24.4237 28.9779C24.4646 29.0223 24.5065 29.0656 24.5496 29.108C24.5926 29.1504 24.6367 29.1916 24.6818 29.2318C24.7269 29.2721 24.773 29.3112 24.8201 29.3492C24.8671 29.3872 24.9151 29.424 24.964 29.4597C25.0129 29.4954 25.0627 29.5299 25.1133 29.5632C25.1639 29.5965 25.2153 29.6285 25.2675 29.6593C25.3198 29.6901 25.3727 29.7196 25.4264 29.7478C25.4801 29.776 25.5345 29.803 25.5895 29.8286C25.6445 29.8542 25.7002 29.8785 25.7564 29.9014C25.8127 29.9243 25.8695 29.9459 25.9268 29.966C25.9841 29.9862 26.0419 30.005 26.1002 30.0224C26.1584 30.0398 26.2171 30.0557 26.2761 30.0703C26.3352 30.0848 26.3946 30.098 26.4543 30.1097C26.514 30.1213 26.5739 30.1316 26.6342 30.1404C26.6944 30.1491 26.7548 30.1565 26.8154 30.1624C26.876 30.1682 26.9367 30.1726 26.9975 30.1756C27.0583 30.1785 27.1191 30.18 27.18 30.18C27.2409 30.18 27.3018 30.1785 27.3625 30.1756C27.4233 30.1726 27.484 30.1682 27.5446 30.1624C27.6052 30.1565 27.6656 30.1491 27.7258 30.1404C27.7861 30.1316 27.846 30.1213 27.9057 30.1097C27.9655 30.098 28.0249 30.0848 28.0839 30.0703C28.1429 30.0557 28.2016 30.0398 28.2599 30.0224C28.3181 30.005 28.3759 29.9862 28.4332 29.966C28.4906 29.9458 28.5473 29.9243 28.6036 29.9014C28.6598 29.8784 28.7155 29.8542 28.7705 29.8286C28.8255 29.803 28.8799 29.776 28.9336 29.7478C28.9873 29.7196 29.0403 29.6901 29.0925 29.6593C29.1447 29.6285 29.1961 29.5965 29.2467 29.5632C29.2973 29.5299 29.3471 29.4954 29.396 29.4597C29.4449 29.424 29.4929 29.3872 29.5399 29.3492C29.587 29.3112 29.6331 29.2721 29.6782 29.2318C29.7233 29.1916 29.7674 29.1504 29.8104 29.108C29.8535 29.0656 29.8954 29.0223 29.9363 28.9779C29.9772 28.9335 30.017 28.8882 30.0556 28.8419C30.0943 28.7956 30.1317 28.7484 30.1679 28.7002C30.2042 28.6521 30.2392 28.6032 30.2731 28.5534C30.3069 28.5035 30.3395 28.453 30.3708 28.4016C30.402 28.3502 30.432 28.2981 30.4608 28.2453C30.4894 28.1924 30.5168 28.139 30.5428 28.0848C30.5689 28.0307 30.5935 27.976 30.6168 27.9206C30.6402 27.8653 30.6621 27.8094 30.6826 27.753C30.7031 27.6966 30.7221 27.6398 30.7398 27.5824C30.7575 27.5251 30.7737 27.4674 30.7885 27.4093C30.8033 27.3512 30.8166 27.2928 30.8285 27.234C30.8404 27.1753 30.8508 27.1162 30.8597 27.057C30.8687 26.9978 30.8761 26.9383 30.8821 26.8787C30.888 26.8191 30.8925 26.7594 30.8955 26.6996C30.8985 26.6397 30.9 26.5799 30.9 26.52C30.9 26.4601 30.8985 26.4002 30.8955 26.3404C30.8925 26.2806 30.888 26.2209 30.8821 26.1612C30.8761 26.1016 30.8687 26.0422 30.8597 25.983C30.8508 25.9237 30.8404 25.8647 30.8285 25.8059C30.8166 25.7472 30.8033 25.6888 30.7885 25.6307C30.7737 25.5726 30.7575 25.5149 30.7398 25.4575C30.7221 25.4002 30.7031 25.3434 30.6826 25.287C30.6621 25.2306 30.6402 25.1747 30.6168 25.1194C30.5935 25.064 30.5689 25.0093 30.5428 24.9551C30.5168 24.901 30.4894 24.8475 30.4608 24.7947C30.432 24.7418 30.402 24.6897 30.3708 24.6384C30.3395 24.587 30.3069 24.5364 30.2731 24.4866C30.2392 24.4368 30.2042 24.3878 30.1679 24.3397C30.1317 24.2916 30.0943 24.2444 30.0556 24.1981C30.017 24.1518 29.9772 24.1065 29.9363 24.0621C29.8954 24.0177 29.8535 23.9743 29.8104 23.932C29.7674 23.8896 29.7233 23.8483 29.6782 23.8081C29.6331 23.7679 29.587 23.7288 29.5399 23.6908C29.4929 23.6528 29.4449 23.6159 29.396 23.5802C29.3471 23.5446 29.2973 23.5101 29.2467 23.4768C29.1961 23.4435 29.1447 23.4115 29.0925 23.3807C29.0403 23.3499 28.9873 23.3204 28.9336 23.2922C28.8799 23.2639 28.8255 23.237 28.7705 23.2114C28.7155 23.1858 28.6598 23.1615 28.6036 23.1386C28.5473 23.1157 28.4906 23.0941 28.4332 23.0739C28.3759 23.0538 28.3181 23.035 28.2599 23.0176C28.2016 23.0002 28.1429 22.9842 28.0839 22.9697C28.0249 22.9551 27.9655 22.942 27.9057 22.9303C27.846 22.9186 27.7861 22.9084 27.7258 22.8996C27.6656 22.8908 27.6052 22.8835 27.5446 22.8776C27.484 22.8717 27.4233 22.8673 27.3625 22.8644C27.3018 22.8615 27.2409 22.86 27.18 22.86C27.1191 22.86 27.0583 22.8615 26.9975 22.8644C26.9367 22.8673 26.876 22.8717 26.8154 22.8776C26.7548 22.8835 26.6944 22.8908 26.6342 22.8996C26.5739 22.9084 26.514 22.9186 26.4543 22.9303C26.3946 22.942 26.3352 22.9551 26.2761 22.9697C26.2171 22.9842 26.1584 23.0002 26.1002 23.0176C26.0419 23.035 25.9841 23.0538 25.9268 23.0739C25.8695 23.0941 25.8127 23.1157 25.7564 23.1386C25.7002 23.1615 25.6445 23.1858 25.5895 23.2114C25.5345 23.237 25.4801 23.2639 25.4264 23.2922C25.3727 23.3204 25.3198 23.3499 25.2675 23.3807C25.2153 23.4115 25.1639 23.4435 25.1133 23.4768C25.0627 23.5101 25.0129 23.5446 24.964 23.5802C24.9151 23.6159 24.8671 23.6528 24.8201 23.6908C24.773 23.7288 24.7269 23.7679 24.6818 23.8081C24.6367 23.8483 24.5926 23.8896 24.5496 23.932C24.5065 23.9743 24.4646 24.0177 24.4237 24.0621C24.3828 24.1065 24.343 24.1518 24.3044 24.1981C24.2658 24.2444 24.2283 24.2916 24.1921 24.3397C24.1558 24.3878 24.1208 24.4368 24.0869 24.4866C24.0531 24.5364 24.0206 24.587 23.9893 24.6384C23.958 24.6897 23.928 24.7418 23.8993 24.7947C23.8706 24.8475 23.8432 24.901 23.8172 24.9551C23.7911 25.0093 23.7665 25.064 23.7432 25.1194C23.7199 25.1747 23.698 25.2306 23.6775 25.287C23.657 25.3434 23.6379 25.4002 23.6202 25.4575C23.6025 25.5149 23.5863 25.5726 23.5715 25.6307C23.5567 25.6888 23.5434 25.7472 23.5315 25.8059C23.5196 25.8647 23.5092 25.9237 23.5003 25.983C23.4913 26.0422 23.4839 26.1016 23.4779 26.1612C23.472 26.2209 23.4675 26.2806 23.4645 26.3404C23.4615 26.4002 23.46 26.4601 23.46 26.52Z"></path><path id="路径 7" fill-rule="evenodd" style="fill:#DB344E" opacity="0.3" d="M29.28 27.78L29.16 27.78C28.86 27.72 28.68 27.42 28.74 27.1199C28.8 26.88 28.86 26.7 28.86 26.46C28.86 26.0399 28.74 25.6799 28.5 25.3199C28.32 25.08 28.38 24.72 28.62 24.54C28.86 24.36 29.22 24.4199 29.4 24.66C29.76 25.2 30 25.8 30 26.3999C30 26.7599 29.94 27.06 29.88 27.2999C29.76 27.6 29.52 27.78 29.28 27.78Z"></path><path id="路径 7" fill-rule="evenodd" fill="url(#linear_5)" opacity="1" d="M29.28 27.78L29.16 27.78C28.86 27.72 28.68 27.42 28.74 27.1199C28.8 26.88 28.86 26.7 28.86 26.46C28.86 26.0399 28.74 25.6799 28.5 25.3199C28.32 25.08 28.38 24.72 28.62 24.54C28.86 24.36 29.22 24.4199 29.4 24.66C29.76 25.2 30 25.8 30 26.3999C30 26.7599 29.94 27.06 29.88 27.2999C29.76 27.6 29.52 27.78 29.28 27.78Z"></path><path id="路径 8" fill-rule="evenodd" style="fill:#FFFFFF" opacity="0.5" d="M22.2277 12.66L11.5723 12.66C11.0952 12.66 10.6711 13.08 10.6711 13.62C10.6711 14.16 11.0422 14.58 11.5723 14.58L22.2277 14.58C22.7049 14.58 23.129 14.16 23.129 13.62C23.129 13.08 22.7049 12.66 22.2277 12.66Z"></path><path id="路径 9" fill-rule="evenodd" style="fill:#FFFFFF" opacity="1" d="M21.6976 12.12L11.0952 12.12C10.6181 12.12 10.194 12.54 10.194 13.08C10.194 13.62 10.5651 14.04 11.0952 14.04L21.6976 14.04C22.1748 14.04 22.5988 13.62 22.5988 13.08C22.5458 12.54 22.1748 12.12 21.6976 12.12Z"></path><path id="路径 10" fill-rule="evenodd" style="fill:#FFFFFF" opacity="0.5" d="M22.1748 18.54L11.5723 18.54C11.0952 18.54 10.6711 18.9601 10.6711 19.5001C10.6711 20.0401 11.0422 20.46 11.5723 20.46L22.1748 20.46C22.6519 20.46 23.076 20.0401 23.076 19.5001C23.0229 19.02 22.6519 18.54 22.1748 18.54Z"></path><path id="路径 11" fill-rule="evenodd" style="fill:#FFFFFF" opacity="1" d="M21.6976 18.0601L11.0952 18.0601C10.6181 18.0601 10.194 18.48 10.194 19.02C10.194 19.56 10.5651 19.98 11.0952 19.98L21.6976 19.98C22.1748 19.98 22.5988 19.56 22.5988 19.02C22.5458 18.48 22.1748 18.0601 21.6976 18.0601Z"></path><path id="路径 13" fill-rule="evenodd" style="fill:#000000" opacity="0.2" d="M22.5 7.42075C22.8 7.06075 23 6.58074 23 6.04074L23 5.98074C23 5.62074 22.92 5.29073 22.78 5.00073L13.21 5.01073C13.08 5.30073 13 5.63074 13 5.98074C13 7.06075 13.74 7.96075 14.63 7.96075L21.37 7.96075C21.81 7.96075 22.21 7.78075 22.5 7.42075Z"></path><path id="路径 13" fill-rule="evenodd" fill="url(#linear_6)" opacity="1" d="M20.3663 6.96L13.6337 6.96C12.7426 6.96 12 6.05999 12 4.97999C12 3.89999 12.7426 3 13.6337 3L20.3663 3C21.2574 3 22 3.89999 22 4.97999L22 5.04C22 5.58 21.802 6.05999 21.505 6.41999C21.208 6.78 20.8119 6.96 20.3663 6.96Z"></path><path id="路径 14" fill-rule="evenodd" style="fill:#DB344E" opacity="0.3" d="M27.54 24.84C27.84 24.84 28.08 24.6 28.08 24.3C28.08 24 27.84 23.76 27.54 23.76C27.24 23.76 27 24 27 24.3C27 24.6 27.24 24.84 27.54 24.84Z"></path><path id="路径 14" fill-rule="evenodd" fill="url(#linear_7)" opacity="1" d="M27.54 24.84C27.84 24.84 28.08 24.6 28.08 24.3C28.08 24 27.84 23.76 27.54 23.76C27.24 23.76 27 24 27 24.3C27 24.6 27.24 24.84 27.54 24.84Z"></path></g></g><defs><rect id="path_0" x="0" y="0" width="36" height="36" rx="0" ry="0"/><linearGradient id="linear_0" x1="29.119012883582506%" y1="5.169204491319128%" x2="83.9230021359134%" y2="62.989477019684955%" gradientUnits="objectBoundingBox"><stop offset="0" stop-color="#E8F8FA" stop-opacity="0.9" /><stop offset="1" stop-color="#BADEF7" stop-opacity="1" /></linearGradient><linearGradient id="linear_1" x1="80.9195028496567%" y1="13.935026372865188%" x2="20.63266260686523%" y2="92.94617590615914%" gradientUnits="objectBoundingBox"><stop offset="0" stop-color="#57DDFF" stop-opacity="1" /><stop offset="1" stop-color="#1692F7" stop-opacity="1" /></linearGradient><linearGradient id="linear_2" x1="39.92799586029567%" y1="17.244%" x2="88.1790156919948%" y2="85.071%" gradientUnits="objectBoundingBox"><stop offset="0" stop-color="#FAD7EA" stop-opacity="0.18" /><stop offset="1" stop-color="#D9BFCA" stop-opacity="0.2" /></linearGradient><linearGradient id="linear_3" x1="35.651016183457926%" y1="38.03640723644769%" x2="100.00006247562507%" y2="100.00013980735723%" gradientUnits="objectBoundingBox"><stop offset="0" stop-color="#FAEDF2" stop-opacity="0.96" /><stop offset="1" stop-color="#FCCFDD" stop-opacity="1" /></linearGradient><linearGradient id="linear_4" x1="80.92105008014981%" y1="13.935019482155228%" x2="20.633018068205587%" y2="92.94612994534626%" gradientUnits="objectBoundingBox"><stop offset="0" stop-color="#FF57A5" stop-opacity="1" /><stop offset="1" stop-color="#FC2828" stop-opacity="1" /></linearGradient><linearGradient id="linear_5" x1="80.92011876881145%" y1="13.935%" x2="20.63383694305857%" y2="92.946%" gradientUnits="objectBoundingBox"><stop offset="0" stop-color="#FF57A5" stop-opacity="1" /><stop offset="1" stop-color="#FC2828" stop-opacity="1" /></linearGradient><linearGradient id="linear_6" x1="29.11900000000001%" y1="5.169204491319129%" x2="83.92300000000003%" y2="62.98947701968497%" gradientUnits="objectBoundingBox"><stop offset="0" stop-color="#E8F8FA" stop-opacity="0.9" /><stop offset="1" stop-color="#BADEF7" stop-opacity="1" /></linearGradient><linearGradient id="linear_7" x1="80.92148929172096%" y1="13.935%" x2="20.63253529866532%" y2="92.946%" gradientUnits="objectBoundingBox"><stop offset="0" stop-color="#FF57A5" stop-opacity="1" /><stop offset="1" stop-color="#FC2828" stop-opacity="1" /></linearGradient></defs></svg>