<svg xmlns="http://www.w3.org/2000/svg" xmlns:xlink="http://www.w3.org/1999/xlink" width="60" height="60" viewBox="0 0 60 60" fill="none"><g opacity="1"  transform="translate(0 0)"><mask id="bg-mask-0" fill="white"><use transform="translate(0 0)" xlink:href="#path_0"></use></mask><g mask="url(#bg-mask-0)" ><path id="路径 1" fill-rule="evenodd" fill="url(#linear_0)" opacity="1" d="M9.79995 43.0002L49.5 43.0002L54.7 49.4002C56.5 51.7002 55.7 53.5002 52.7 53.5002L6.19995 53.5002C3.29997 53.5002 2.49997 51.7002 4.29997 49.5002L9.79995 43.0002ZM25.5 9.30017C28.1 9.30017 28.9 11.0002 28.9 12.2002L28.9 26.0002C28.9 27.2002 27.4 28.5002 26.1 28.5002L11.7 28.5002C10.4 28.5002 9.39999 27.2002 9.39999 26.0002L9.39999 11.5002C9.39999 10.3002 10.4 9.30017 11.7 9.30017L25.5 9.30017Z"></path><path id="路径 2" fill-rule="evenodd" fill="url(#linear_1)" opacity="1" d="M47.1001 30.6999C49.8001 30.6999 50.6001 32.4999 50.6001 33.5999L50.6001 47.3999C50.6001 48.4999 49.7001 49.4999 48.5 49.4999L34.7001 49.4999C33.6001 49.4999 32.6001 48.5999 32.6001 47.3999L32.6001 33.5999C32.6001 32.4999 33.5 31.4999 34.7001 31.4999L47.1001 30.6999ZM25.7001 30.6999C28.7 30.9999 29.3 32.4999 29.3 33.5999L29.3 47.3999C29.3 48.4999 28.4 49.4999 27.2001 49.4999L13.4 49.4999C12.3001 49.4999 11.3 48.5999 11.3 47.3999L11.3 33.5999C11.3 32.4999 12.2 31.4999 13.4 31.4999L25.7001 30.6999Z"></path><path id="路径 3" fill-rule="evenodd" fill="url(#linear_2)" opacity="1" d="M25.3001 9.30017C26.4 9.30017 27.4001 10.2002 27.4001 11.4002L27.4001 25.2002C27.4001 26.3002 26.5001 27.3002 25.3001 27.3002L11.4 27.3002C10.3001 27.3002 9.30005 26.4002 9.30005 25.2002L9.30005 11.4002C9.30005 10.3002 10.2 9.30017 11.4 9.30017L25.3001 9.30017ZM46.5 30.5002C47.6 30.5002 48.6001 31.4002 48.6001 32.6002L48.6001 46.4002C48.6001 47.5002 47.7001 48.5002 46.5 48.5002L32.7001 48.5002C31.6001 48.5002 30.6 47.6002 30.6 46.4002L30.6 32.6002C30.6 31.5002 31.5 30.5002 32.7001 30.5002L46.5 30.5002ZM25.3001 30.5002C26.4 30.5002 27.4001 31.4002 27.4001 32.6002L27.4001 46.4002C27.4001 47.5002 26.5001 48.5002 25.3001 48.5002L11.4 48.5002C10.3001 48.5002 9.30005 47.6002 9.30005 46.4002L9.30005 32.6002C9.30005 31.5002 10.2 30.5002 11.4 30.5002L25.3001 30.5002Z"></path><path id="路径 4" fill-rule="evenodd" fill="url(#linear_3)" opacity="1" d="M52.7 13.1L41.3 7.09999C40.3 6.49999 37.1 6.90001 36.6001 7.99999L31.3001 21.1C30.8 22.1 31.1 23.4 32.2001 24L43 30.2C45.5 31.2 47 30.1 47.5 29.1L53.7 17.3C54.3 16.2 54.3 13.9 52.7 13.1Z"></path><path id="路径 5" fill-rule="evenodd" fill="url(#linear_4)" opacity="1" d="M50.9 13.7001L38.6 7.20011C37.6 6.70013 36.3 7.10009 35.8 8.10011L29.3 20.4001C28.8 21.4002 29.2001 22.7001 30.2 23.2002L42.5 29.7002C43.5 30.2001 44.8 29.8002 45.3 28.8002L51.8 16.5001C52.3 15.5001 51.9 14.3001 50.9 13.7001Z"></path><path id="路径 5" fill-rule="evenodd" fill="url(#linear_5)" opacity="1" d="M50.9 13.7001L38.6 7.20011C37.6 6.70013 36.3 7.10009 35.8 8.10011L29.3 20.4001C28.8 21.4002 29.2001 22.7001 30.2 23.2002L42.5 29.7002C43.5 30.2001 44.8 29.8002 45.3 28.8002L51.8 16.5001C52.3 15.5001 51.9 14.3001 50.9 13.7001Z"></path></g></g><defs><rect id="path_0" x="0" y="0" width="60" height="60" rx="0" ry="0"/><linearGradient id="linear_0" x1="29.11900073075373%" y1="5.169204491319128%" x2="83.9230218792538%" y2="62.989477019684955%" gradientUnits="objectBoundingBox"><stop offset="0" stop-color="#E8F8FA" stop-opacity="0.9" /><stop offset="1" stop-color="#BADEF7" stop-opacity="1" /></linearGradient><linearGradient id="linear_1" x1="29.119064010971307%" y1="5.169204491319128%" x2="83.92291907496853%" y2="62.989477019684955%" gradientUnits="objectBoundingBox"><stop offset="0" stop-color="#E8F8FA" stop-opacity="0.9" /><stop offset="1" stop-color="#BADEF7" stop-opacity="1" /></linearGradient><linearGradient id="linear_2" x1="80.91949071629647%" y1="13.935026372865188%" x2="20.63267413112827%" y2="92.94617590615914%" gradientUnits="objectBoundingBox"><stop offset="0" stop-color="#57DDFF" stop-opacity="1" /><stop offset="1" stop-color="#1692F7" stop-opacity="1" /></linearGradient><linearGradient id="linear_3" x1="39.927976576439534%" y1="17.244%" x2="88.17908878952693%" y2="85.071%" gradientUnits="objectBoundingBox"><stop offset="0" stop-color="#FAD7EA" stop-opacity="0.18" /><stop offset="1" stop-color="#D9BFCA" stop-opacity="0.2" /></linearGradient><linearGradient id="linear_4" x1="35.6509864933991%" y1="38.03640723644769%" x2="100.00016593276287%" y2="100.00013980735723%" gradientUnits="objectBoundingBox"><stop offset="0" stop-color="#FAEDF2" stop-opacity="0.96" /><stop offset="1" stop-color="#FCCFDD" stop-opacity="1" /></linearGradient><linearGradient id="linear_5" x1="80.92111406013662%" y1="13.935019482155228%" x2="20.63295730380359%" y2="92.94612994534626%" gradientUnits="objectBoundingBox"><stop offset="0" stop-color="#FF57A5" stop-opacity="1" /><stop offset="1" stop-color="#FC2828" stop-opacity="1" /></linearGradient></defs></svg>