<svg xmlns="http://www.w3.org/2000/svg" xmlns:xlink="http://www.w3.org/1999/xlink" width="36" height="36" viewBox="0 0 36 36" fill="none"><g opacity="1"  transform="translate(0 0)"><mask id="bg-mask-0" fill="white"><use transform="translate(0 0)" xlink:href="#path_0"></use></mask><g mask="url(#bg-mask-0)" ><path id="路径 1" fill-rule="evenodd" fill="url(#linear_0)" opacity="1" d="M6.48001 22.8L29.16 22.8L33.3 28.2C34.8 30.1201 34.02 31.7401 31.56 31.7401L4.32001 31.7401C1.86001 31.7401 1.08001 30.1201 2.52001 28.2L6.48001 22.8Z"></path><path id="路径 2" fill-rule="evenodd" fill="url(#linear_1)" opacity="1" d="M5.52002 9.29998C5.52002 7.8 6.72004 6.59998 8.22002 6.59998L27.96 6.59998C29.46 6.59998 30.78 7.8 31.02 9.24C31.02 9.24 31.26 10.68 31.26 11.4L31.26 21.3C31.26 22.8 30.06 24 28.56 24L8.22002 24C6.72004 24 5.52002 22.8 5.52002 21.3L5.52002 9.29998Z"></path><path id="路径 3" fill-rule="evenodd" fill="url(#linear_2)" opacity="1" d="M6.90001 6.59998L26.58 6.59998C28.08 6.59998 29.28 7.8 29.28 9.29998L29.28 21.36C29.28 22.86 28.08 24.06 26.58 24.06L6.90001 24.06C5.4 24 4.20001 22.8 4.20001 21.3L4.20001 9.29998C4.20001 7.8 5.4 6.59998 6.90001 6.59998Z"></path><path id="路径 4" fill-rule="evenodd" fill="url(#linear_3)" opacity="1" d="M8.39997 12.06C8.87999 11.34 10.08 10.8 11.04 10.74C11.04 10.74 15.12 10.62 17.46 10.62L18.3 10.62C19.26 10.74 19.98 11.64 19.98 12.6L19.98 12.36C19.98 13.32 19.14 14.1 18.18 14.1L10.38 14.1C9.41999 14.1 8.51999 13.32 8.39997 12.36L8.39997 12.06ZM8.51999 16.38C8.99998 15.78 9.95999 15.3 10.68 15.3L23.34 15.3C24.06 15.3 24.78 15.9 24.9 16.62L24.96 16.98C25.14 17.88 24.48 18.66 23.58 18.66L10.38 18.66C9.47997 18.66 8.51999 17.94 8.27998 17.04L8.21997 16.74L8.51999 16.38Z"></path><path id="路径 5" fill-rule="evenodd" style="fill:#FFFFFF" opacity="1" d="M9.47995 10.62L17.34 10.62C18.06 10.62 18.66 11.22 18.66 11.94C18.66 12.66 18.06 13.26 17.34 13.26L9.47995 13.26C8.75995 13.26 8.15997 12.66 8.15997 11.94C8.15997 11.22 8.75995 10.62 9.47995 10.62ZM9.47995 15.3L22.6199 15.3C23.34 15.3 23.94 15.9 23.94 16.62C23.94 17.34 23.34 17.94 22.6199 17.94L9.47995 17.94C8.75995 17.94 8.15997 17.34 8.15997 16.62C8.15997 15.9 8.75995 15.3 9.47995 15.3Z"></path><path id="路径 6" fill-rule="evenodd" fill="url(#linear_4)" opacity="1" d="M27.06 30.48C31.02 30.48 34.26 27.2999 34.26 23.3399C34.26 19.3799 31.08 16.2 27.06 16.2C23.04 16.2 20.4 19.3799 20.4 23.3399C20.4 27.2999 23.1 30.48 27.06 30.48Z"></path><path id="路径 7" fill-rule="evenodd" fill="url(#linear_5)" opacity="1" d="M18.6 23.22C18.5999 23.3349 18.6027 23.4498 18.6083 23.5645C18.614 23.6793 18.6224 23.7939 18.6337 23.9083C18.645 24.0227 18.6592 24.1367 18.6761 24.2504C18.6931 24.3641 18.7129 24.4773 18.7354 24.59C18.758 24.7027 18.7833 24.8148 18.8114 24.9263C18.8395 25.0378 18.8704 25.1485 18.904 25.2585C18.9376 25.3686 18.9739 25.4776 19.0129 25.5859C19.0519 25.6941 19.0936 25.8013 19.1379 25.9075C19.1822 26.0137 19.2291 26.1187 19.2787 26.2226C19.3282 26.3265 19.3802 26.4292 19.4348 26.5305C19.4894 26.6319 19.5465 26.7319 19.6061 26.8305C19.6656 26.9291 19.7276 27.0261 19.7919 27.1217C19.8563 27.2173 19.923 27.3113 19.992 27.4036C20.061 27.4959 20.1323 27.5865 20.2058 27.6754C20.2793 27.7642 20.355 27.8512 20.4328 27.9364C20.5106 28.0216 20.5905 28.1048 20.6724 28.1861C20.7544 28.2674 20.8383 28.3466 20.9241 28.4238C21.01 28.501 21.0977 28.5761 21.1873 28.649C21.2769 28.7219 21.3682 28.7926 21.4613 28.8611C21.5544 28.9296 21.6491 28.9957 21.7454 29.0596C21.8418 29.1235 21.9397 29.1849 22.0391 29.244C22.1385 29.3031 22.2393 29.3598 22.3415 29.414C22.4437 29.4682 22.5472 29.5198 22.652 29.569C22.7568 29.6181 22.8627 29.6647 22.9698 29.7087C23.0768 29.7527 23.1849 29.7941 23.2941 29.8328C23.4032 29.8715 23.5132 29.9076 23.6241 29.9409C23.735 29.9743 23.8467 30.005 23.9591 30.0329C24.0716 30.0608 24.1846 30.086 24.2983 30.1084C24.412 30.1309 24.5262 30.1505 24.6408 30.1674C24.7554 30.1843 24.8704 30.1983 24.9858 30.2096C25.1011 30.2209 25.2167 30.2293 25.3325 30.235C25.4482 30.2406 25.564 30.2434 25.68 30.2434C25.7959 30.2434 25.9117 30.2406 26.0275 30.235C26.1432 30.2293 26.2588 30.2209 26.3741 30.2096C26.4895 30.1983 26.6045 30.1843 26.7191 30.1674C26.8338 30.1505 26.948 30.1309 27.0616 30.1084C27.1753 30.086 27.2884 30.0608 27.4008 30.0329C27.5132 30.005 27.6249 29.9743 27.7358 29.9409C27.8467 29.9076 27.9567 29.8715 28.0659 29.8328C28.175 29.7941 28.2831 29.7527 28.3901 29.7087C28.4972 29.6647 28.6032 29.6181 28.7079 29.569C28.8127 29.5198 28.9162 29.4682 29.0184 29.414C29.1206 29.3598 29.2214 29.3031 29.3208 29.244C29.4202 29.1849 29.5181 29.1235 29.6145 29.0596C29.7108 28.9957 29.8056 28.9296 29.8986 28.8611C29.9917 28.7926 30.0831 28.7219 30.1726 28.649C30.2622 28.5761 30.3499 28.501 30.4358 28.4238C30.5217 28.3466 30.6056 28.2674 30.6875 28.1861C30.7695 28.1048 30.8493 28.0216 30.9271 27.9364C31.0049 27.8512 31.0806 27.7642 31.1541 27.6754C31.2276 27.5865 31.2989 27.4959 31.3679 27.4036C31.4369 27.3113 31.5036 27.2173 31.568 27.1217C31.6323 27.0261 31.6943 26.9291 31.7539 26.8305C31.8134 26.7319 31.8705 26.6319 31.9251 26.5305C31.9797 26.4292 32.0317 26.3265 32.0813 26.2226C32.1308 26.1187 32.1777 26.0137 32.222 25.9075C32.2663 25.8013 32.308 25.6941 32.347 25.5859C32.386 25.4776 32.4223 25.3686 32.4559 25.2585C32.4895 25.1485 32.5204 25.0378 32.5485 24.9263C32.5766 24.8148 32.602 24.7027 32.6245 24.59C32.6471 24.4773 32.6668 24.3641 32.6838 24.2504C32.7008 24.1367 32.7149 24.0227 32.7262 23.9083C32.7375 23.7939 32.746 23.6793 32.7516 23.5645C32.7572 23.4498 32.76 23.3349 32.76 23.22C32.76 23.1051 32.7572 22.9902 32.7516 22.8754C32.746 22.7606 32.7375 22.646 32.7262 22.5317C32.7149 22.4173 32.7008 22.3032 32.6838 22.1896C32.6668 22.0759 32.6471 21.9627 32.6245 21.85C32.6019 21.7372 32.5766 21.6251 32.5485 21.5136C32.5204 21.4022 32.4895 21.2914 32.4559 21.1814C32.4223 21.0714 32.386 20.9623 32.347 20.8541C32.308 20.7459 32.2663 20.6387 32.222 20.5325C32.1777 20.4263 32.1308 20.3212 32.0813 20.2174C32.0317 20.1134 31.9797 20.0108 31.9251 19.9094C31.8705 19.8081 31.8134 19.7081 31.7539 19.6095C31.6943 19.5109 31.6323 19.4138 31.568 19.3182C31.5036 19.2227 31.4369 19.1287 31.3679 19.0364C31.2989 18.9441 31.2276 18.8535 31.1541 18.7646C31.0806 18.6757 31.0049 18.5887 30.9271 18.5036C30.8493 18.4184 30.7695 18.3352 30.6875 18.2539C30.6056 18.1726 30.5217 18.0934 30.4358 18.0162C30.3499 17.9389 30.2622 17.8639 30.1726 17.791C30.0831 17.718 29.9917 17.6473 29.8986 17.5789C29.8056 17.5104 29.7108 17.4442 29.6145 17.3804C29.5181 17.3165 29.4202 17.255 29.3208 17.1959C29.2214 17.1368 29.1206 17.0802 29.0184 17.026C28.9162 16.9718 28.8127 16.9201 28.7079 16.871C28.6032 16.8218 28.4972 16.7753 28.3901 16.7313C28.2831 16.6873 28.175 16.6459 28.0659 16.6072C27.9567 16.5684 27.8467 16.5324 27.7358 16.499C27.6249 16.4656 27.5132 16.435 27.4008 16.407C27.2884 16.3791 27.1753 16.354 27.0616 16.3315C26.948 16.3091 26.8338 16.2895 26.7191 16.2726C26.6045 16.2557 26.4895 16.2416 26.3741 16.2304C26.2588 16.2191 26.1432 16.2107 26.0275 16.205C25.9117 16.1994 25.7959 16.1965 25.68 16.1965C25.564 16.1965 25.4482 16.1994 25.3325 16.205C25.2167 16.2107 25.1011 16.2191 24.9858 16.2304C24.8704 16.2416 24.7554 16.2557 24.6408 16.2726C24.5262 16.2895 24.412 16.3091 24.2983 16.3315C24.1846 16.354 24.0716 16.3791 23.9591 16.407C23.8467 16.435 23.735 16.4656 23.6241 16.499C23.5132 16.5324 23.4032 16.5684 23.2941 16.6072C23.1849 16.6459 23.0768 16.6873 22.9698 16.7313C22.8627 16.7753 22.7567 16.8218 22.652 16.871C22.5472 16.9201 22.4437 16.9718 22.3415 17.026C22.2393 17.0802 22.1385 17.1368 22.0391 17.1959C21.9397 17.255 21.8418 17.3165 21.7454 17.3804C21.6491 17.4442 21.5544 17.5104 21.4613 17.5789C21.3682 17.6473 21.2769 17.718 21.1873 17.791C21.0977 17.8639 21.01 17.9389 20.9241 18.0162C20.8383 18.0934 20.7544 18.1726 20.6724 18.2539C20.5905 18.3352 20.5106 18.4184 20.4328 18.5036C20.355 18.5887 20.2793 18.6757 20.2058 18.7646C20.1323 18.8535 20.061 18.9441 19.992 19.0364C19.923 19.1287 19.8563 19.2227 19.7919 19.3182C19.7276 19.4138 19.6656 19.5109 19.6061 19.6095C19.5465 19.7081 19.4894 19.8081 19.4348 19.9094C19.3802 20.0108 19.3282 20.1134 19.2787 20.2174C19.2291 20.3212 19.1822 20.4263 19.1379 20.5325C19.0936 20.6387 19.0519 20.7459 19.0129 20.8541C18.9739 20.9623 18.9376 21.0714 18.904 21.1814C18.8704 21.2914 18.8395 21.4022 18.8114 21.5136C18.7833 21.6251 18.758 21.7372 18.7354 21.8499C18.7129 21.9627 18.6931 22.0759 18.6761 22.1896C18.6592 22.3032 18.645 22.4173 18.6337 22.5317C18.6224 22.646 18.614 22.7606 18.6083 22.8754C18.6027 22.9902 18.5999 23.1051 18.6 23.22Z"></path><path id="路径 7" fill-rule="evenodd" fill="url(#linear_6)" opacity="1" d="M18.6 23.22C18.5999 23.3349 18.6027 23.4498 18.6083 23.5645C18.614 23.6793 18.6224 23.7939 18.6337 23.9083C18.645 24.0227 18.6592 24.1367 18.6761 24.2504C18.6931 24.3641 18.7129 24.4773 18.7354 24.59C18.758 24.7027 18.7833 24.8148 18.8114 24.9263C18.8395 25.0378 18.8704 25.1485 18.904 25.2585C18.9376 25.3686 18.9739 25.4776 19.0129 25.5859C19.0519 25.6941 19.0936 25.8013 19.1379 25.9075C19.1822 26.0137 19.2291 26.1187 19.2787 26.2226C19.3282 26.3265 19.3802 26.4292 19.4348 26.5305C19.4894 26.6319 19.5465 26.7319 19.6061 26.8305C19.6656 26.9291 19.7276 27.0261 19.7919 27.1217C19.8563 27.2173 19.923 27.3113 19.992 27.4036C20.061 27.4959 20.1323 27.5865 20.2058 27.6754C20.2793 27.7642 20.355 27.8512 20.4328 27.9364C20.5106 28.0216 20.5905 28.1048 20.6724 28.1861C20.7544 28.2674 20.8383 28.3466 20.9241 28.4238C21.01 28.501 21.0977 28.5761 21.1873 28.649C21.2769 28.7219 21.3682 28.7926 21.4613 28.8611C21.5544 28.9296 21.6491 28.9957 21.7454 29.0596C21.8418 29.1235 21.9397 29.1849 22.0391 29.244C22.1385 29.3031 22.2393 29.3598 22.3415 29.414C22.4437 29.4682 22.5472 29.5198 22.652 29.569C22.7568 29.6181 22.8627 29.6647 22.9698 29.7087C23.0768 29.7527 23.1849 29.7941 23.2941 29.8328C23.4032 29.8715 23.5132 29.9076 23.6241 29.9409C23.735 29.9743 23.8467 30.005 23.9591 30.0329C24.0716 30.0608 24.1846 30.086 24.2983 30.1084C24.412 30.1309 24.5262 30.1505 24.6408 30.1674C24.7554 30.1843 24.8704 30.1983 24.9858 30.2096C25.1011 30.2209 25.2167 30.2293 25.3325 30.235C25.4482 30.2406 25.564 30.2434 25.68 30.2434C25.7959 30.2434 25.9117 30.2406 26.0275 30.235C26.1432 30.2293 26.2588 30.2209 26.3741 30.2096C26.4895 30.1983 26.6045 30.1843 26.7191 30.1674C26.8338 30.1505 26.948 30.1309 27.0616 30.1084C27.1753 30.086 27.2884 30.0608 27.4008 30.0329C27.5132 30.005 27.6249 29.9743 27.7358 29.9409C27.8467 29.9076 27.9567 29.8715 28.0659 29.8328C28.175 29.7941 28.2831 29.7527 28.3901 29.7087C28.4972 29.6647 28.6032 29.6181 28.7079 29.569C28.8127 29.5198 28.9162 29.4682 29.0184 29.414C29.1206 29.3598 29.2214 29.3031 29.3208 29.244C29.4202 29.1849 29.5181 29.1235 29.6145 29.0596C29.7108 28.9957 29.8056 28.9296 29.8986 28.8611C29.9917 28.7926 30.0831 28.7219 30.1726 28.649C30.2622 28.5761 30.3499 28.501 30.4358 28.4238C30.5217 28.3466 30.6056 28.2674 30.6875 28.1861C30.7695 28.1048 30.8493 28.0216 30.9271 27.9364C31.0049 27.8512 31.0806 27.7642 31.1541 27.6754C31.2276 27.5865 31.2989 27.4959 31.3679 27.4036C31.4369 27.3113 31.5036 27.2173 31.568 27.1217C31.6323 27.0261 31.6943 26.9291 31.7539 26.8305C31.8134 26.7319 31.8705 26.6319 31.9251 26.5305C31.9797 26.4292 32.0317 26.3265 32.0813 26.2226C32.1308 26.1187 32.1777 26.0137 32.222 25.9075C32.2663 25.8013 32.308 25.6941 32.347 25.5859C32.386 25.4776 32.4223 25.3686 32.4559 25.2585C32.4895 25.1485 32.5204 25.0378 32.5485 24.9263C32.5766 24.8148 32.602 24.7027 32.6245 24.59C32.6471 24.4773 32.6668 24.3641 32.6838 24.2504C32.7008 24.1367 32.7149 24.0227 32.7262 23.9083C32.7375 23.7939 32.746 23.6793 32.7516 23.5645C32.7572 23.4498 32.76 23.3349 32.76 23.22C32.76 23.1051 32.7572 22.9902 32.7516 22.8754C32.746 22.7606 32.7375 22.646 32.7262 22.5317C32.7149 22.4173 32.7008 22.3032 32.6838 22.1896C32.6668 22.0759 32.6471 21.9627 32.6245 21.85C32.6019 21.7372 32.5766 21.6251 32.5485 21.5136C32.5204 21.4022 32.4895 21.2914 32.4559 21.1814C32.4223 21.0714 32.386 20.9623 32.347 20.8541C32.308 20.7459 32.2663 20.6387 32.222 20.5325C32.1777 20.4263 32.1308 20.3212 32.0813 20.2174C32.0317 20.1134 31.9797 20.0108 31.9251 19.9094C31.8705 19.8081 31.8134 19.7081 31.7539 19.6095C31.6943 19.5109 31.6323 19.4138 31.568 19.3182C31.5036 19.2227 31.4369 19.1287 31.3679 19.0364C31.2989 18.9441 31.2276 18.8535 31.1541 18.7646C31.0806 18.6757 31.0049 18.5887 30.9271 18.5036C30.8493 18.4184 30.7695 18.3352 30.6875 18.2539C30.6056 18.1726 30.5217 18.0934 30.4358 18.0162C30.3499 17.9389 30.2622 17.8639 30.1726 17.791C30.0831 17.718 29.9917 17.6473 29.8986 17.5789C29.8056 17.5104 29.7108 17.4442 29.6145 17.3804C29.5181 17.3165 29.4202 17.255 29.3208 17.1959C29.2214 17.1368 29.1206 17.0802 29.0184 17.026C28.9162 16.9718 28.8127 16.9201 28.7079 16.871C28.6032 16.8218 28.4972 16.7753 28.3901 16.7313C28.2831 16.6873 28.175 16.6459 28.0659 16.6072C27.9567 16.5684 27.8467 16.5324 27.7358 16.499C27.6249 16.4656 27.5132 16.435 27.4008 16.407C27.2884 16.3791 27.1753 16.354 27.0616 16.3315C26.948 16.3091 26.8338 16.2895 26.7191 16.2726C26.6045 16.2557 26.4895 16.2416 26.3741 16.2304C26.2588 16.2191 26.1432 16.2107 26.0275 16.205C25.9117 16.1994 25.7959 16.1965 25.68 16.1965C25.564 16.1965 25.4482 16.1994 25.3325 16.205C25.2167 16.2107 25.1011 16.2191 24.9858 16.2304C24.8704 16.2416 24.7554 16.2557 24.6408 16.2726C24.5262 16.2895 24.412 16.3091 24.2983 16.3315C24.1846 16.354 24.0716 16.3791 23.9591 16.407C23.8467 16.435 23.735 16.4656 23.6241 16.499C23.5132 16.5324 23.4032 16.5684 23.2941 16.6072C23.1849 16.6459 23.0768 16.6873 22.9698 16.7313C22.8627 16.7753 22.7567 16.8218 22.652 16.871C22.5472 16.9201 22.4437 16.9718 22.3415 17.026C22.2393 17.0802 22.1385 17.1368 22.0391 17.1959C21.9397 17.255 21.8418 17.3165 21.7454 17.3804C21.6491 17.4442 21.5544 17.5104 21.4613 17.5789C21.3682 17.6473 21.2769 17.718 21.1873 17.791C21.0977 17.8639 21.01 17.9389 20.9241 18.0162C20.8383 18.0934 20.7544 18.1726 20.6724 18.2539C20.5905 18.3352 20.5106 18.4184 20.4328 18.5036C20.355 18.5887 20.2793 18.6757 20.2058 18.7646C20.1323 18.8535 20.061 18.9441 19.992 19.0364C19.923 19.1287 19.8563 19.2227 19.7919 19.3182C19.7276 19.4138 19.6656 19.5109 19.6061 19.6095C19.5465 19.7081 19.4894 19.8081 19.4348 19.9094C19.3802 20.0108 19.3282 20.1134 19.2787 20.2174C19.2291 20.3212 19.1822 20.4263 19.1379 20.5325C19.0936 20.6387 19.0519 20.7459 19.0129 20.8541C18.9739 20.9623 18.9376 21.0714 18.904 21.1814C18.8704 21.2914 18.8395 21.4022 18.8114 21.5136C18.7833 21.6251 18.758 21.7372 18.7354 21.8499C18.7129 21.9627 18.6931 22.0759 18.6761 22.1896C18.6592 22.3032 18.645 22.4173 18.6337 22.5317C18.6224 22.646 18.614 22.7606 18.6083 22.8754C18.6027 22.9902 18.5999 23.1051 18.6 23.22Z"></path><path id="路径 8" fill-rule="evenodd" fill="url(#linear_7)" opacity="1" d="M23.04 24.5999L25.14 24.5999L25.14 23.58L23.04 23.58C22.44 23.58 22.2 23.22 22.2 22.86C22.2 22.4999 22.5 22.2599 23.04 22.2599L24.54 22.2599C24.54 22.2599 23.4 20.6999 23.04 20.0999C22.68 19.32 24.24 19.0199 24.66 19.68C25.08 20.4 25.98 21.7799 25.98 21.7799C25.98 21.7799 26.7 20.22 27.18 19.4399C27.6 18.7199 29.16 19.5599 28.68 20.3399C28.26 20.9999 27.42 22.2599 27.42 22.2599L28.92 22.2599C29.52 22.2599 29.7 22.4399 29.7 22.86C29.7 23.28 29.52 23.58 28.92 23.58L26.82 23.58L26.82 24.5999L28.92 24.5999C29.52 24.5999 29.76 24.7799 29.76 25.2C29.76 25.56 29.46 25.8599 28.92 25.8599L26.82 25.8599L26.82 25.98C26.82 26.82 26.52 27.24 25.98 27.24L25.38 27.24C25.08 27.24 25.14 26.52 25.14 25.98L25.14 25.8599L23.04 25.8599C22.44 25.8599 22.2 25.56 22.2 25.2C22.2 24.84 22.5 24.5999 23.04 24.5999Z"></path><path id="路径 9" fill-rule="evenodd" style="fill:#FFFFFF" opacity="1" d="M22.44 24.5999L24.54 24.5999L24.54 23.58L22.44 23.58C21.84 23.58 21.6 23.22 21.6 22.86C21.6 22.4999 21.9 22.2599 22.44 22.2599L23.94 22.2599C23.94 22.2599 23.16 21.0599 22.8 20.4C22.44 19.6199 23.64 19.0199 24.06 19.6199C24.48 20.3399 25.38 21.7199 25.38 21.7199C25.38 21.7199 26.34 20.22 26.82 19.4399C27.24 18.7199 28.5 19.5599 28.08 20.3399C27.66 20.9999 26.82 22.2599 26.82 22.2599L28.32 22.2599C28.92 22.2599 29.16 22.4399 29.16 22.86C29.16 23.28 28.86 23.58 28.32 23.58L26.22 23.58L26.22 24.5999L28.32 24.5999C28.92 24.5999 29.16 24.7799 29.16 25.2C29.16 25.56 28.86 25.8599 28.32 25.8599L26.22 25.8599L26.22 25.98C26.22 26.82 25.92 27.24 25.38 27.24C24.84 27.24 24.54 26.82 24.54 25.98L24.54 25.8599L22.44 25.8599C21.84 25.8599 21.6 25.56 21.6 25.2C21.6 24.7799 21.9 24.5999 22.44 24.5999Z"></path></g></g><defs><rect id="path_0" x="0" y="0" width="36" height="36" rx="0" ry="0"/><linearGradient id="linear_0" x1="29.1190236042404%" y1="5.169204491319128%" x2="83.9229847192607%" y2="62.989477019684955%" gradientUnits="objectBoundingBox"><stop offset="0" stop-color="#E8F8FA" stop-opacity="0.9" /><stop offset="1" stop-color="#BADEF7" stop-opacity="1" /></linearGradient><linearGradient id="linear_1" x1="29.118996090528864%" y1="5.169204491319128%" x2="83.92302941770767%" y2="62.989477019684955%" gradientUnits="objectBoundingBox"><stop offset="0" stop-color="#E8F8FA" stop-opacity="0.9" /><stop offset="1" stop-color="#BADEF7" stop-opacity="1" /></linearGradient><linearGradient id="linear_2" x1="80.91957305539668%" y1="13.935026372865188%" x2="20.632595925467964%" y2="92.94617590615914%" gradientUnits="objectBoundingBox"><stop offset="0" stop-color="#57DDFF" stop-opacity="1" /><stop offset="1" stop-color="#1692F7" stop-opacity="1" /></linearGradient><linearGradient id="linear_3" x1="39.92801688355883%" y1="17.244%" x2="88.17893600105317%" y2="85.071%" gradientUnits="objectBoundingBox"><stop offset="0" stop-color="#D7F2FA" stop-opacity="0.18" /><stop offset="1" stop-color="#BFCDD9" stop-opacity="0.2" /></linearGradient><linearGradient id="linear_4" x1="39.92801064495401%" y1="17.244%" x2="88.17895964915618%" y2="85.071%" gradientUnits="objectBoundingBox"><stop offset="0" stop-color="#FAD7EA" stop-opacity="0.18" /><stop offset="1" stop-color="#D9BFCA" stop-opacity="0.2" /></linearGradient><linearGradient id="linear_5" x1="35.650984168846%" y1="38.03640723644769%" x2="100.00017403283476%" y2="100.00013980735723%" gradientUnits="objectBoundingBox"><stop offset="0" stop-color="#FAEDF2" stop-opacity="0.96" /><stop offset="1" stop-color="#FCCFDD" stop-opacity="1" /></linearGradient><linearGradient id="linear_6" x1="80.92111906938496%" y1="13.935019482155228%" x2="20.632952546316226%" y2="92.94612994534626%" gradientUnits="objectBoundingBox"><stop offset="0" stop-color="#FF57A5" stop-opacity="1" /><stop offset="1" stop-color="#FC2828" stop-opacity="1" /></linearGradient><linearGradient id="linear_7" x1="39.92800325262484%" y1="17.244%" x2="88.17898767057548%" y2="85.071%" gradientUnits="objectBoundingBox"><stop offset="0" stop-color="#FAD7EA" stop-opacity="0.18" /><stop offset="1" stop-color="#D9BFCA" stop-opacity="0.2" /></linearGradient></defs></svg>