<svg xmlns="http://www.w3.org/2000/svg" xmlns:xlink="http://www.w3.org/1999/xlink" width="36" height="36" viewBox="0 0 36 36" fill="none"><g opacity="1"  transform="translate(0 0)"><mask id="bg-mask-0" fill="white"><use transform="translate(0 0)" xlink:href="#path_0"></use></mask><g mask="url(#bg-mask-0)" ><path id="路径 1" fill-rule="evenodd" fill="url(#linear_0)" opacity="1" d="M1.79999 31.4401C1.79999 31.4578 1.80363 31.4755 1.8109 31.4931C1.81818 31.5108 1.82908 31.5284 1.84361 31.546C1.85815 31.5636 1.87629 31.5811 1.89805 31.5986C1.9198 31.6161 1.94515 31.6335 1.97407 31.6508C2.003 31.6681 2.03548 31.6854 2.0715 31.7025C2.10753 31.7197 2.14707 31.7367 2.19011 31.7536C2.23315 31.7705 2.27965 31.7873 2.3296 31.804C2.37955 31.8206 2.4329 31.8371 2.48964 31.8534C2.54638 31.8697 2.60645 31.8859 2.66984 31.9019C2.73324 31.9178 2.79988 31.9336 2.86978 31.9492C2.93968 31.9648 3.01274 31.9802 3.08897 31.9954C3.1652 32.0105 3.2445 32.0254 3.32687 32.0401C3.40925 32.0548 3.4946 32.0693 3.58294 32.0835C3.67125 32.0977 3.76244 32.1116 3.85652 32.1253C3.95058 32.1389 4.0474 32.1523 4.14698 32.1654C4.24655 32.1785 4.34876 32.1913 4.45362 32.2038C4.55845 32.2163 4.6658 32.2285 4.77565 32.2403C4.88552 32.2522 4.99777 32.2638 5.11237 32.275C5.22701 32.2862 5.34388 32.2971 5.46295 32.3076C5.58203 32.3181 5.70321 32.3283 5.8265 32.3381C5.9498 32.3479 6.07506 32.3574 6.20222 32.3665C6.32938 32.3755 6.45837 32.3843 6.58915 32.3926C6.71989 32.4009 6.85229 32.4089 6.98634 32.4164C7.12039 32.424 7.25589 32.4311 7.39289 32.4379C7.52986 32.4447 7.66816 32.451 7.80777 32.457C7.94737 32.463 8.08811 32.4685 8.23 32.4736C8.37189 32.4787 8.51476 32.4835 8.65859 32.4878C8.80241 32.4921 8.94704 32.4959 9.09248 32.4994C9.23789 32.5028 9.38393 32.5058 9.5306 32.5084C9.67727 32.511 9.8244 32.5132 9.97195 32.5149C10.1195 32.5166 10.2673 32.5179 10.4154 32.5188C10.5635 32.5197 10.7117 32.5201 10.86 32.5201C11.0083 32.5201 11.1564 32.5197 11.3046 32.5188C11.4526 32.5179 11.6005 32.5166 11.748 32.5149C11.8956 32.5132 12.0427 32.511 12.1894 32.5084C12.336 32.5058 12.4821 32.5028 12.6275 32.4994C12.773 32.4959 12.9176 32.4921 13.0614 32.4878C13.2052 32.4835 13.3481 32.4787 13.49 32.4736C13.6319 32.4685 13.7726 32.463 13.9122 32.457C14.0518 32.451 14.1901 32.4447 14.3271 32.4379C14.4641 32.4311 14.5996 32.424 14.7336 32.4164C14.8677 32.4089 15.0001 32.4009 15.1309 32.3926C15.2616 32.3843 15.3906 32.3755 15.5177 32.3665C15.6449 32.3574 15.7702 32.3479 15.8935 32.3381C16.0168 32.3283 16.1379 32.3181 16.257 32.3076C16.3761 32.2971 16.493 32.2862 16.6076 32.275C16.7222 32.2638 16.8345 32.2522 16.9443 32.2403C17.0542 32.2285 17.1615 32.2163 17.2664 32.2038C17.3712 32.1913 17.4734 32.1785 17.573 32.1654C17.6726 32.1523 17.7694 32.1389 17.8635 32.1253C17.9575 32.1116 18.0487 32.0977 18.1371 32.0835C18.2254 32.0693 18.3107 32.0548 18.3931 32.0401C18.4755 32.0254 18.5548 32.0105 18.631 31.9954C18.7072 31.9802 18.7803 31.9648 18.8502 31.9492C18.9201 31.9336 18.9868 31.9178 19.0501 31.9019C19.1135 31.8859 19.1736 31.8697 19.2304 31.8534C19.2871 31.8371 19.3404 31.8206 19.3904 31.804C19.4403 31.7873 19.4868 31.7705 19.5299 31.7536C19.5729 31.7367 19.6124 31.7197 19.6485 31.7025C19.6845 31.6854 19.717 31.6681 19.7459 31.6508C19.7749 31.6335 19.8002 31.6161 19.8219 31.5986C19.8437 31.5811 19.8618 31.5636 19.8763 31.546C19.8909 31.5284 19.9018 31.5108 19.9091 31.4931C19.9164 31.4755 19.92 31.4578 19.92 31.4401C19.92 31.4224 19.9164 31.4048 19.9091 31.3871C19.9018 31.3695 19.8909 31.3519 19.8763 31.3343C19.8618 31.3167 19.8437 31.2991 19.8219 31.2817C19.8002 31.2642 19.7749 31.2468 19.7459 31.2294C19.717 31.2121 19.6845 31.1948 19.6485 31.1777C19.6124 31.1605 19.5729 31.1435 19.5299 31.1266C19.4868 31.1097 19.4403 31.0929 19.3904 31.0763C19.3404 31.0596 19.2871 31.0431 19.2304 31.0268C19.1736 31.0105 19.1135 30.9943 19.0501 30.9784C18.9868 30.9624 18.9201 30.9466 18.8502 30.931C18.7803 30.9154 18.7072 30.9 18.631 30.8849C18.5548 30.8697 18.4755 30.8548 18.3931 30.8401C18.3107 30.8254 18.2254 30.811 18.1371 30.7967C18.0487 30.7826 17.9575 30.7686 17.8635 30.755C17.7694 30.7413 17.6726 30.7279 17.573 30.7148C17.4734 30.7017 17.3712 30.6889 17.2664 30.6764C17.1615 30.6639 17.0542 30.6518 16.9443 30.6399C16.8345 30.628 16.7222 30.6165 16.6076 30.6053C16.493 30.5941 16.3761 30.5832 16.257 30.5727C16.1379 30.5621 16.0168 30.552 15.8935 30.5421C15.7702 30.5323 15.6449 30.5229 15.5177 30.5138C15.3906 30.5047 15.2616 30.496 15.1309 30.4877C15.0001 30.4793 14.8677 30.4714 14.7336 30.4638C14.5996 30.4562 14.4641 30.4491 14.3271 30.4423C14.1901 30.4356 14.0518 30.4292 13.9122 30.4232C13.7726 30.4173 13.6319 30.4118 13.49 30.4066C13.3481 30.4015 13.2052 30.3968 13.0614 30.3925C12.9176 30.3882 12.773 30.3843 12.6275 30.3809C12.4821 30.3774 12.336 30.3744 12.1894 30.3718C12.0427 30.3692 11.8956 30.367 11.748 30.3653C11.6005 30.3636 11.4526 30.3623 11.3046 30.3614C11.1564 30.3605 11.0083 30.3601 10.86 30.3601C10.7117 30.3601 10.5635 30.3605 10.4154 30.3614C10.2673 30.3623 10.1195 30.3636 9.97195 30.3653C9.8244 30.367 9.67727 30.3692 9.5306 30.3718C9.38393 30.3744 9.23789 30.3774 9.09248 30.3809C8.94704 30.3843 8.80241 30.3882 8.65859 30.3925C8.51476 30.3968 8.37189 30.4015 8.23 30.4066C8.08811 30.4118 7.94737 30.4173 7.80777 30.4232C7.66816 30.4292 7.52986 30.4356 7.39289 30.4423C7.25589 30.4491 7.12039 30.4562 6.98634 30.4638C6.85229 30.4714 6.71989 30.4793 6.58915 30.4877C6.45837 30.496 6.32938 30.5047 6.20222 30.5138C6.07506 30.5229 5.94983 30.5323 5.82654 30.5421C5.70325 30.552 5.58203 30.5621 5.46295 30.5727C5.34388 30.5832 5.22701 30.594 5.11237 30.6053C4.99777 30.6165 4.88552 30.628 4.77565 30.6399C4.6658 30.6518 4.55845 30.6639 4.45362 30.6764C4.34876 30.6889 4.24655 30.7017 4.14698 30.7148C4.0474 30.7279 3.95058 30.7413 3.85652 30.755C3.76244 30.7686 3.67125 30.7826 3.58294 30.7967C3.4946 30.811 3.40925 30.8254 3.32687 30.8401C3.2445 30.8548 3.1652 30.8697 3.08897 30.8849C3.01274 30.9 2.93968 30.9154 2.86978 30.931C2.79989 30.9466 2.73324 30.9624 2.66984 30.9784C2.60645 30.9943 2.54638 31.0105 2.48964 31.0268C2.4329 31.0431 2.37955 31.0596 2.3296 31.0763C2.27965 31.0929 2.23315 31.1097 2.19011 31.1266C2.14707 31.1435 2.10753 31.1605 2.07151 31.1777C2.03548 31.1948 2.003 31.2121 1.97407 31.2294C1.94515 31.2468 1.91981 31.2642 1.89805 31.2817C1.87629 31.2991 1.85815 31.3167 1.84361 31.3343C1.82908 31.3519 1.81818 31.3695 1.8109 31.3871C1.80363 31.4048 1.79999 31.4224 1.79999 31.4401Z"></path><path id="路径 2" fill-rule="evenodd" fill="url(#linear_1)" opacity="1" d="M20.46 32.82C20.46 32.8328 20.462 32.8456 20.4661 32.8583C20.4702 32.8711 20.4762 32.8838 20.4843 32.8965C20.4924 32.9092 20.5025 32.9219 20.5146 32.9345C20.5267 32.9471 20.5408 32.9597 20.5569 32.9722C20.573 32.9847 20.591 32.9972 20.6111 33.0096C20.6311 33.022 20.6531 33.0342 20.677 33.0465C20.701 33.0587 20.7269 33.0708 20.7546 33.0828C20.7824 33.0948 20.8121 33.1067 20.8437 33.1185C20.8753 33.1303 20.9087 33.142 20.9439 33.1535C20.9792 33.1651 21.0163 33.1765 21.0551 33.1877C21.094 33.199 21.1347 33.2101 21.1771 33.221C21.2195 33.232 21.2636 33.2428 21.3094 33.2534C21.3553 33.264 21.4027 33.2744 21.4519 33.2847C21.501 33.2949 21.5517 33.305 21.604 33.3149C21.6564 33.3247 21.7102 33.3344 21.7656 33.3438C21.821 33.3533 21.8779 33.3626 21.9362 33.3716C21.9945 33.3806 22.0543 33.3894 22.1154 33.398C22.1765 33.4066 22.2389 33.4149 22.3027 33.423C22.3665 33.4311 22.4315 33.4389 22.4977 33.4465C22.5639 33.4541 22.6314 33.4615 22.7 33.4686C22.7685 33.4757 22.8382 33.4825 22.9089 33.4891C22.9797 33.4956 23.0514 33.5019 23.1242 33.5079C23.1969 33.5139 23.2706 33.5197 23.3452 33.5251C23.4197 33.5306 23.4951 33.5358 23.5713 33.5406C23.6475 33.5455 23.7244 33.5501 23.8021 33.5544C23.8798 33.5587 23.9581 33.5628 24.037 33.5665C24.1159 33.5702 24.1954 33.5736 24.2754 33.5766C24.3554 33.5798 24.4359 33.5826 24.5168 33.5851C24.5977 33.5875 24.6789 33.5897 24.7605 33.5916C24.8421 33.5935 24.924 33.595 25.006 33.5963C25.0881 33.5975 25.1704 33.5985 25.2527 33.5991C25.3351 33.5997 25.4175 33.6 25.5 33.6C25.5825 33.6 25.665 33.5997 25.7473 33.5991C25.8297 33.5985 25.9119 33.5975 25.994 33.5963C26.0761 33.595 26.158 33.5935 26.2396 33.5916C26.3212 33.5897 26.4024 33.5875 26.4833 33.5851C26.5642 33.5826 26.6446 33.5798 26.7247 33.5766C26.8047 33.5736 26.8841 33.5702 26.9631 33.5665C27.042 33.5628 27.1203 33.5587 27.198 33.5544C27.2756 33.5501 27.3525 33.5455 27.4288 33.5406C27.5049 33.5358 27.5803 33.5306 27.6549 33.5251C27.7295 33.5197 27.8031 33.514 27.8759 33.508C27.9486 33.5019 28.0203 33.4956 28.0911 33.4891C28.1619 33.4825 28.2315 33.4757 28.3001 33.4686C28.3687 33.4615 28.4361 33.4542 28.5024 33.4465C28.5686 33.4389 28.6336 33.4311 28.6974 33.423C28.7611 33.4149 28.8236 33.4066 28.8847 33.398C28.9458 33.3894 29.0055 33.3806 29.0638 33.3716C29.1222 33.3626 29.1791 33.3533 29.2344 33.3438C29.2898 33.3344 29.3437 33.3247 29.396 33.3149C29.4484 33.305 29.4991 33.2949 29.5482 33.2847C29.5973 33.2744 29.6448 33.264 29.6906 33.2534C29.7365 33.2428 29.7806 33.232 29.823 33.221C29.8654 33.2101 29.906 33.199 29.9449 33.1877C29.9838 33.1765 30.0209 33.1651 30.0561 33.1535C30.0914 33.142 30.1248 33.1303 30.1564 33.1185C30.1879 33.1067 30.2176 33.0948 30.2454 33.0828C30.2732 33.0708 30.2991 33.0587 30.323 33.0465C30.3469 33.0342 30.369 33.022 30.389 33.0096C30.409 32.9972 30.4271 32.9847 30.4432 32.9722C30.4593 32.9597 30.4734 32.9471 30.4855 32.9345C30.4976 32.9219 30.5077 32.9092 30.5158 32.8965C30.5239 32.8838 30.5299 32.8711 30.534 32.8583C30.538 32.8456 30.54 32.8328 30.54 32.82C30.54 32.8073 30.538 32.7945 30.534 32.7818C30.5299 32.769 30.5239 32.7563 30.5158 32.7436C30.5077 32.7309 30.4976 32.7182 30.4855 32.7056C30.4734 32.693 30.4593 32.6804 30.4432 32.6679C30.4271 32.6553 30.409 32.6429 30.389 32.6305C30.369 32.6181 30.3469 32.6058 30.323 32.5936C30.2991 32.5814 30.2732 32.5693 30.2454 32.5573C30.2176 32.5452 30.1879 32.5333 30.1564 32.5215C30.1248 32.5098 30.0914 32.4981 30.0561 32.4866C30.0209 32.475 29.9838 32.4636 29.9449 32.4524C29.906 32.4411 29.8654 32.43 29.823 32.419C29.7806 32.4081 29.7365 32.3973 29.6906 32.3867C29.6448 32.3761 29.5973 32.3656 29.5482 32.3554C29.4991 32.3451 29.4484 32.3351 29.396 32.3252C29.3437 32.3154 29.2898 32.3057 29.2344 32.2962C29.1791 32.2868 29.1222 32.2775 29.0638 32.2685C29.0055 32.2595 28.9458 32.2507 28.8847 32.2421C28.8236 32.2335 28.7611 32.2252 28.6974 32.2171C28.6336 32.209 28.5686 32.2011 28.5024 32.1935C28.4361 32.1859 28.3687 32.1786 28.3001 32.1715C28.2315 32.1644 28.1619 32.1576 28.0911 32.151C28.0203 32.1444 27.9486 32.1381 27.8759 32.1321C27.8031 32.1261 27.7295 32.1204 27.6549 32.1149C27.5804 32.1095 27.5049 32.1043 27.4288 32.0994C27.3525 32.0945 27.2756 32.0899 27.198 32.0856C27.1203 32.0813 27.042 32.0773 26.9631 32.0736C26.8842 32.0699 26.8047 32.0665 26.7247 32.0634C26.6446 32.0603 26.5642 32.0575 26.4833 32.055C26.4024 32.0525 26.3212 32.0504 26.2396 32.0485C26.158 32.0466 26.0761 32.045 25.994 32.0438C25.9119 32.0425 25.8297 32.0416 25.7473 32.041C25.665 32.0404 25.5825 32.04 25.5 32.04C25.4175 32.04 25.3351 32.0404 25.2527 32.041C25.1704 32.0416 25.0881 32.0425 25.006 32.0438C24.924 32.045 24.8421 32.0466 24.7605 32.0485C24.6789 32.0504 24.5977 32.0525 24.5168 32.055C24.4359 32.0575 24.3554 32.0603 24.2754 32.0634C24.1954 32.0665 24.1159 32.0699 24.037 32.0736C23.9581 32.0773 23.8798 32.0813 23.8021 32.0856C23.7244 32.0899 23.6475 32.0945 23.5713 32.0994C23.4951 32.1043 23.4197 32.1095 23.3452 32.1149C23.2706 32.1204 23.1969 32.1261 23.1242 32.1321C23.0514 32.1381 22.9797 32.1444 22.909 32.151C22.8382 32.1576 22.7685 32.1644 22.7 32.1715C22.6314 32.1786 22.564 32.1859 22.4977 32.1935C22.4315 32.2011 22.3665 32.209 22.3027 32.2171C22.2389 32.2252 22.1765 32.2335 22.1154 32.2421C22.0543 32.2507 21.9945 32.2595 21.9362 32.2685C21.8779 32.2775 21.821 32.2868 21.7657 32.2962C21.7102 32.3057 21.6564 32.3154 21.6041 32.3252C21.5517 32.3351 21.501 32.3451 21.4519 32.3554C21.4027 32.3656 21.3553 32.3761 21.3094 32.3867C21.2636 32.3973 21.2195 32.4081 21.1771 32.419C21.1347 32.43 21.094 32.4411 21.0551 32.4524C21.0163 32.4636 20.9792 32.475 20.9439 32.4866C20.9087 32.4981 20.8753 32.5098 20.8437 32.5215C20.8121 32.5333 20.7824 32.5452 20.7547 32.5573C20.7269 32.5693 20.701 32.5814 20.677 32.5936C20.6531 32.6058 20.6311 32.6181 20.6111 32.6305C20.591 32.6429 20.573 32.6553 20.5569 32.6679C20.5408 32.6804 20.5267 32.693 20.5146 32.7056C20.5025 32.7182 20.4924 32.7309 20.4843 32.7436C20.4762 32.7563 20.4702 32.769 20.4661 32.7818C20.462 32.7945 20.46 32.8073 20.46 32.82Z"></path><path id="路径 3" fill-rule="evenodd" style="fill:#000000" opacity="1" d="M19.98 14.52L7.08 14.52C6.65999 14.52 6.29999 14.82 6.29999 15.18C6.29999 15.54 6.65999 15.84 7.08 15.84L19.98 15.84C20.4 15.84 20.76 15.54 20.76 15.18C20.76 14.82 20.4 14.52 19.98 14.52Z"></path><path id="路径 4" fill-rule="evenodd" fill="url(#linear_2)" opacity="1" d="M32.88 16.8601L20.22 17.2201C19.44 17.2201 18.78 17.8801 18.78 18.6601L18.78 27.0601C18.78 27.8401 19.44 28.5001 20.22 28.5001L24.96 28.5001L25.08 29.5801L26.28 30.1201C26.52 30.2401 26.94 30.1801 27.12 29.9401L28.56 28.5001L32.64 28.5001C33.42 28.5001 34.44 27.8401 34.44 27.0601L34.44 18.6601C34.5 17.8801 33.66 16.8601 32.88 16.8601Z"></path><path id="路径 5" fill-rule="evenodd" fill="url(#linear_3)" opacity="1" d="M31.8 16.8601L18.66 16.8601C17.88 16.8601 17.22 17.5201 17.22 18.3001L17.22 26.5801C17.22 27.3601 17.88 28.0201 18.66 28.0201L23.4 28.0201L24.84 29.4601C25.02 29.6401 25.38 29.6401 25.56 29.4601L27 28.0201L31.8 28.0201C32.58 28.0201 33.24 27.3601 33.24 26.5801L33.24 18.3001C33.18 17.5201 32.58 16.8601 31.8 16.8601Z"></path><path id="路径 5" fill-rule="evenodd" fill="url(#linear_4)" opacity="1" d="M31.8 16.8601L18.66 16.8601C17.88 16.8601 17.22 17.5201 17.22 18.3001L17.22 26.5801C17.22 27.3601 17.88 28.0201 18.66 28.0201L23.4 28.0201L24.84 29.4601C25.02 29.6401 25.38 29.6401 25.56 29.4601L27 28.0201L31.8 28.0201C32.58 28.0201 33.24 27.3601 33.24 26.5801L33.24 18.3001C33.18 17.5201 32.58 16.8601 31.8 16.8601Z"></path><path id="路径 6" fill-rule="evenodd" fill="url(#linear_5)" opacity="1" d="M23.76 6.6001L5.63999 7.08012C4.49998 7.08012 3.59998 7.98012 3.59998 9.1201L3.59998 21.0001C3.59998 22.1401 4.49998 23.0401 5.63999 23.0401L12.48 23.0401L13.14 24.6601L14.1 25.1401C14.64 25.3801 15.36 25.2601 15.78 24.8401L17.58 22.9801L24.42 22.9801C25.56 22.9801 26.46 22.0801 26.46 20.9401L26.46 9.1201C26.46 7.98012 24.9 6.6001 23.76 6.6001Z"></path><path id="路径 7" fill-rule="evenodd" style="fill:#3889FF" opacity="1" d="M22.62 6.6001L3.84 6.6001C2.69999 6.6001 1.79999 7.5001 1.79999 8.64011L1.79999 20.5201C1.79999 21.6601 2.69999 22.5601 3.84 22.5601L10.68 22.5601L12.48 24.4201C12.9 24.8401 13.56 24.8401 13.98 24.4201L15.78 22.5601L22.62 22.5601C23.76 22.5601 24.66 21.6601 24.66 20.5201L24.66 8.64011C24.66 7.5001 23.76 6.6001 22.62 6.6001Z"></path><g opacity="1"  transform="translate(4.49578857421875 10.99560546875)"><path id="路径 9" fill-rule="evenodd" fill="url(#linear_6)" opacity="1" d="M2.12129 2.83162L4.22846 4.96707C4.65274 5.39135 4.65853 5.95121 4.24261 6.36714C3.82665 6.7831 3.25267 6.79142 2.82839 6.36714L0.707079 4.24583C0.282832 3.82158 0.291126 3.24757 0.707079 2.83162C1.12301 2.41569 1.73945 2.44978 2.12129 2.83162Z"></path><path id="路径 9" fill-rule="evenodd" fill="url(#linear_7)" opacity="1" d="M7.0713 2.12141L11.2991 6.3793C11.7234 6.80357 11.7292 7.36343 11.3133 7.77935C10.8973 8.19531 10.3233 8.20363 9.89905 7.77936L5.65709 3.53562C5.23284 3.11137 5.24114 2.53737 5.65709 2.12141C6.07302 1.70548 6.68946 1.73957 7.0713 2.12141Z"></path><path id="路径 9" fill-rule="evenodd" fill="url(#linear_8)" opacity="1" d="M7.07714 3.54158L4.24871 6.37C3.82444 6.79427 3.25043 6.78593 2.8345 6.37C2.41855 5.95405 2.41023 5.38006 2.8345 4.95579L5.66292 2.12737C6.08717 1.70312 6.66118 1.71141 7.07714 2.12737C7.49306 2.5433 7.45897 3.15974 7.07714 3.54158Z"></path><path id="路径 9" fill-rule="evenodd" fill="url(#linear_9)" opacity="1" d="M16.9771 2.12141L11.3208 7.77735C10.8965 8.20162 10.3225 8.19328 9.90659 7.77735C9.49064 7.3614 9.48232 6.78741 9.90659 6.36314L15.5629 0.7072C15.9871 0.282952 16.5611 0.291247 16.9771 0.7072C17.393 1.12313 17.3589 1.73958 16.9771 2.12141Z"></path></g><path id="路径 9" fill-rule="evenodd" style="fill:#FFFFFF" opacity="1" d="M6.12129 12.8275L8.22846 14.9629C8.65274 15.3872 8.65853 15.9471 8.24261 16.363C7.82665 16.7789 7.25267 16.7873 6.82839 16.363L4.70708 14.2417C4.28283 13.8174 4.29113 13.2434 4.70708 12.8275C5.12301 12.4115 5.73945 12.4456 6.12129 12.8275Z"></path><path id="路径 9" fill-rule="evenodd" style="fill:#FFFFFF" opacity="1" d="M11.0709 12.1202L15.2987 16.3781C15.723 16.8023 15.7288 17.3622 15.3129 17.7781C14.8969 18.1941 14.323 18.2024 13.8987 17.7781L9.65672 13.5344C9.23248 13.1102 9.24077 12.5361 9.65672 12.1202C10.0727 11.7043 10.6891 11.7384 11.0709 12.1202Z"></path><path id="路径 9" fill-rule="evenodd" style="fill:#FFFFFF" opacity="1" d="M11.071 13.5345L8.24261 16.3629C7.81834 16.7872 7.24433 16.7788 6.8284 16.3629C6.41245 15.947 6.40413 15.373 6.8284 14.9487L9.65682 12.1203C10.0811 11.696 10.6551 11.7043 11.071 12.1203C11.487 12.5362 11.4529 13.1527 11.071 13.5345Z"></path><path id="路径 9" fill-rule="evenodd" style="fill:#FFFFFF" opacity="1" d="M20.97 12.1214L15.3137 17.7773C14.8894 18.2016 14.3154 18.1933 13.8995 17.7773C13.4835 17.3614 13.4752 16.7874 13.8995 16.3631L19.5557 10.7072C19.98 10.283 20.554 10.2912 20.97 10.7072C21.3859 11.1231 21.3518 11.7396 20.97 12.1214Z"></path><path id="路径 10" fill-rule="evenodd" fill="url(#linear_10)" opacity="1" d="M28.8 6.3001C28.8 6.34428 28.8011 6.38843 28.8033 6.43257C28.8054 6.4767 28.8087 6.52076 28.813 6.56475C28.8173 6.60872 28.8227 6.65256 28.8292 6.69627C28.8357 6.73998 28.8433 6.78351 28.8519 6.82684C28.8605 6.87018 28.8702 6.91328 28.8809 6.95615C28.8917 6.99901 28.9034 7.04159 28.9163 7.08387C28.9291 7.12616 28.9429 7.16811 28.9578 7.2097C28.9727 7.25129 28.9886 7.29252 29.0055 7.33334C29.0224 7.37416 29.0403 7.41455 29.0592 7.45449C29.0781 7.49446 29.098 7.53391 29.1188 7.57286C29.1396 7.61185 29.1614 7.65027 29.1841 7.68817C29.2068 7.72607 29.2305 7.76341 29.255 7.80015C29.2796 7.83688 29.305 7.87299 29.3313 7.9085C29.3577 7.94397 29.3848 7.97881 29.4129 8.01295C29.4409 8.04712 29.4697 8.08059 29.4994 8.11332C29.5291 8.14605 29.5595 8.17804 29.5908 8.20929C29.622 8.24055 29.654 8.27099 29.6868 8.30066C29.7195 8.33034 29.753 8.3592 29.7871 8.38722C29.8213 8.41524 29.8561 8.44241 29.8916 8.46875C29.9271 8.49508 29.9632 8.5205 29.9999 8.54507C30.0367 8.56961 30.074 8.59324 30.1119 8.61598C30.1498 8.63869 30.1882 8.66045 30.2272 8.6813C30.2662 8.70211 30.3056 8.72198 30.3456 8.74086C30.3855 8.75974 30.4259 8.77766 30.4667 8.79457C30.5076 8.81148 30.5488 8.82738 30.5904 8.84228C30.632 8.85715 30.6739 8.871 30.7162 8.88384C30.7585 8.89667 30.8011 8.90845 30.8439 8.91917C30.8868 8.92989 30.9299 8.93959 30.9732 8.94821C31.0166 8.95682 31.0601 8.96438 31.1038 8.97088C31.1475 8.97735 31.1914 8.98277 31.2353 8.98709C31.2793 8.99141 31.3234 8.99468 31.3675 8.99683C31.4117 8.99901 31.4558 9.0001 31.5 9.0001C31.5442 9.0001 31.5883 8.99901 31.6325 8.99683C31.6766 8.99468 31.7207 8.99141 31.7646 8.98709C31.8086 8.98277 31.8525 8.97735 31.8962 8.97088C31.9399 8.96438 31.9834 8.95682 32.0267 8.94821C32.0701 8.93959 32.1132 8.92989 32.156 8.91917C32.1989 8.90845 32.2415 8.89667 32.2838 8.88384C32.3261 8.871 32.368 8.85715 32.4096 8.84228C32.4512 8.82738 32.4924 8.81148 32.5332 8.79457C32.574 8.77766 32.6144 8.75974 32.6544 8.74086C32.6944 8.72198 32.7338 8.70211 32.7728 8.6813C32.8117 8.66045 32.8502 8.63869 32.8881 8.61598C32.926 8.59324 32.9633 8.56961 33 8.54507C33.0368 8.5205 33.0729 8.49508 33.1084 8.46875C33.1439 8.44241 33.1787 8.41524 33.2128 8.38722C33.247 8.3592 33.2805 8.33034 33.3132 8.30066C33.3459 8.27099 33.3779 8.24055 33.4092 8.20929C33.4404 8.17804 33.4709 8.14605 33.5006 8.11332C33.5302 8.08059 33.5591 8.04712 33.5871 8.01295C33.6151 7.97881 33.6423 7.94397 33.6686 7.9085C33.695 7.87299 33.7204 7.83688 33.745 7.80015C33.7695 7.76341 33.7931 7.72607 33.8158 7.68817C33.8386 7.65027 33.8603 7.61185 33.8812 7.57286C33.902 7.53391 33.9219 7.49446 33.9407 7.45449C33.9596 7.41455 33.9776 7.37416 33.9945 7.33334C34.0114 7.29252 34.0273 7.25129 34.0421 7.2097C34.057 7.16811 34.0709 7.12616 34.0837 7.08387C34.0966 7.04159 34.1083 6.99901 34.1191 6.95615C34.1298 6.91328 34.1395 6.87018 34.1481 6.82684C34.1567 6.78351 34.1643 6.73998 34.1708 6.69627C34.1772 6.65256 34.1827 6.60872 34.187 6.56475C34.1913 6.52076 34.1946 6.4767 34.1968 6.43257C34.1989 6.38843 34.2 6.34428 34.2 6.3001C34.2 6.25592 34.1989 6.21176 34.1968 6.16763C34.1946 6.1235 34.1913 6.07943 34.187 6.03544C34.1827 5.99147 34.1772 5.94763 34.1708 5.90392C34.1643 5.86021 34.1567 5.81669 34.1481 5.77335C34.1395 5.73001 34.1298 5.68691 34.1191 5.64405C34.1083 5.60118 34.0966 5.55861 34.0837 5.51632C34.0709 5.47404 34.057 5.4321 34.0422 5.3905C34.0273 5.3489 34.0114 5.30768 33.9945 5.26686C33.9776 5.22603 33.9596 5.18564 33.9407 5.14571C33.9219 5.10575 33.902 5.06629 33.8812 5.02734C33.8603 4.98836 33.8386 4.94992 33.8159 4.91202C33.7931 4.87413 33.7695 4.8368 33.745 4.80005C33.7204 4.76332 33.695 4.72721 33.6686 4.6917C33.6423 4.65622 33.6151 4.6214 33.5871 4.58725C33.5591 4.55308 33.5302 4.51962 33.5006 4.48688C33.4709 4.45414 33.4404 4.42215 33.4092 4.3909C33.3779 4.35966 33.3459 4.3292 33.3132 4.29953C33.2805 4.26986 33.247 4.24101 33.2128 4.21298C33.1787 4.18495 33.1439 4.15777 33.1084 4.13145C33.0729 4.10513 33.0368 4.07969 33 4.05513C32.9633 4.03059 32.926 4.00695 32.8881 3.98421C32.8502 3.9615 32.8117 3.93973 32.7728 3.91889C32.7338 3.89808 32.6944 3.87823 32.6544 3.85934C32.6144 3.84045 32.574 3.82254 32.5332 3.80562C32.4924 3.78872 32.4512 3.77282 32.4096 3.75791C32.368 3.74303 32.3261 3.72918 32.2838 3.71636C32.2415 3.70354 32.1989 3.69176 32.156 3.68103C32.1132 3.67027 32.0701 3.66059 32.0267 3.65199C31.9834 3.64336 31.9399 3.6358 31.8962 3.62931C31.8525 3.62284 31.8086 3.61744 31.7646 3.61311C31.7207 3.60877 31.6766 3.60552 31.6325 3.60337C31.5883 3.60119 31.5442 3.6001 31.5 3.6001C31.4558 3.6001 31.4117 3.60119 31.3675 3.60337C31.3234 3.60552 31.2793 3.60877 31.2353 3.61311C31.1914 3.61744 31.1475 3.62284 31.1038 3.62931C31.0601 3.6358 31.0166 3.64336 30.9732 3.65199C30.9299 3.66059 30.8868 3.67027 30.8439 3.68103C30.8011 3.69176 30.7585 3.70354 30.7162 3.71636C30.6739 3.72918 30.632 3.74303 30.5904 3.75791C30.5488 3.77282 30.5076 3.78872 30.4667 3.80562C30.4259 3.82254 30.3855 3.84045 30.3456 3.85934C30.3056 3.87823 30.2662 3.89808 30.2272 3.91889C30.1882 3.93973 30.1498 3.9615 30.1119 3.98421C30.074 4.00695 30.0367 4.03059 29.9999 4.05513C29.9632 4.07969 29.9271 4.10513 29.8916 4.13145C29.8561 4.15777 29.8213 4.18495 29.7871 4.21298C29.753 4.24101 29.7195 4.26986 29.6868 4.29953C29.654 4.3292 29.622 4.35966 29.5908 4.3909C29.5595 4.42215 29.5291 4.45414 29.4994 4.48688C29.4697 4.51962 29.4409 4.55308 29.4129 4.58725C29.3848 4.6214 29.3577 4.65622 29.3313 4.6917C29.305 4.72721 29.2796 4.76332 29.255 4.80005C29.2305 4.8368 29.2068 4.87413 29.1841 4.91202C29.1614 4.94992 29.1396 4.98836 29.1188 5.02734C29.098 5.06629 29.0781 5.10575 29.0592 5.14571C29.0403 5.18564 29.0224 5.22603 29.0055 5.26686C28.9886 5.30768 28.9727 5.3489 28.9578 5.3905C28.9429 5.4321 28.9291 5.47404 28.9163 5.51632C28.9034 5.55861 28.8917 5.60118 28.8809 5.64405C28.8702 5.68691 28.8605 5.73001 28.8519 5.77335C28.8433 5.81669 28.8357 5.86021 28.8292 5.90392C28.8227 5.94763 28.8173 5.99147 28.813 6.03544C28.8087 6.07943 28.8054 6.1235 28.8033 6.16763C28.8011 6.21176 28.8 6.25592 28.8 6.3001Z"></path><path id="路径 11" fill-rule="evenodd" fill="url(#linear_11)" opacity="1" d="M27.6 6.3001C27.6 6.34428 27.6011 6.38843 27.6032 6.43257C27.6054 6.4767 27.6086 6.52076 27.613 6.56475C27.6173 6.60872 27.6227 6.65256 27.6292 6.69627C27.6357 6.73998 27.6432 6.78351 27.6518 6.82684C27.6605 6.87018 27.6701 6.91328 27.6809 6.95615C27.6916 6.99901 27.7034 7.04159 27.7162 7.08387C27.7291 7.12616 27.7429 7.16811 27.7578 7.2097C27.7727 7.25129 27.7886 7.29252 27.8055 7.33334C27.8224 7.37416 27.8403 7.41455 27.8592 7.45449C27.8781 7.49446 27.8979 7.53391 27.9188 7.57286C27.9396 7.61185 27.9614 7.65027 27.9841 7.68817C28.0068 7.72607 28.0304 7.76341 28.055 7.80015C28.0795 7.83688 28.105 7.87299 28.1313 7.9085C28.1576 7.94397 28.1848 7.97881 28.2128 8.01295C28.2408 8.04712 28.2697 8.08059 28.2994 8.11332C28.3291 8.14605 28.3595 8.17804 28.3908 8.20929C28.422 8.24055 28.454 8.27099 28.4868 8.30066C28.5195 8.33034 28.5529 8.3592 28.5871 8.38722C28.6213 8.41524 28.6561 8.44241 28.6916 8.46875C28.7271 8.49508 28.7632 8.5205 28.7999 8.54507C28.8367 8.56961 28.874 8.59324 28.9119 8.61598C28.9498 8.63869 28.9882 8.66045 29.0272 8.6813C29.0662 8.70211 29.1056 8.72198 29.1455 8.74086C29.1855 8.75974 29.2259 8.77766 29.2667 8.79457C29.3075 8.81148 29.3487 8.82738 29.3903 8.84228C29.432 8.85715 29.4739 8.871 29.5162 8.88384C29.5585 8.89667 29.6011 8.90845 29.6439 8.91917C29.6868 8.92989 29.7299 8.93959 29.7732 8.94821C29.8166 8.95682 29.8601 8.96438 29.9038 8.97088C29.9475 8.97735 29.9914 8.98277 30.0353 8.98709C30.0793 8.99141 30.1233 8.99468 30.1675 8.99683C30.2116 8.99901 30.2558 9.0001 30.3 9.0001C30.3442 9.0001 30.3883 8.99901 30.4324 8.99683C30.4766 8.99468 30.5206 8.99141 30.5646 8.98709C30.6086 8.98277 30.6524 8.97735 30.6962 8.97088C30.7398 8.96438 30.7834 8.95682 30.8267 8.94821C30.8701 8.93959 30.9131 8.92989 30.956 8.91917C30.9989 8.90845 31.0414 8.89667 31.0837 8.88384C31.126 8.871 31.168 8.85715 31.2096 8.84228C31.2512 8.82738 31.2924 8.81148 31.3332 8.79457C31.374 8.77766 31.4144 8.75974 31.4544 8.74086C31.4943 8.72198 31.5337 8.70211 31.5727 8.6813C31.6117 8.66045 31.6502 8.63869 31.688 8.61598C31.7259 8.59324 31.7632 8.56961 31.8 8.54507C31.8367 8.5205 31.8729 8.49508 31.9083 8.46875C31.9438 8.44241 31.9787 8.41524 32.0128 8.38722C32.047 8.3592 32.0804 8.33034 32.1132 8.30066C32.1459 8.27099 32.1779 8.24055 32.2091 8.20929C32.2404 8.17804 32.2708 8.14605 32.3005 8.11332C32.3302 8.08059 32.3591 8.04712 32.3871 8.01295C32.4151 7.97881 32.4423 7.94397 32.4686 7.9085C32.495 7.87299 32.5204 7.83688 32.5449 7.80015C32.5695 7.76341 32.5931 7.72607 32.6158 7.68817C32.6385 7.65027 32.6603 7.61185 32.6811 7.57286C32.702 7.53391 32.7219 7.49446 32.7407 7.45449C32.7596 7.41455 32.7775 7.37416 32.7944 7.33334C32.8113 7.29252 32.8273 7.25129 32.8421 7.2097C32.857 7.16811 32.8709 7.12616 32.8837 7.08387C32.8965 7.04159 32.9083 6.99901 32.919 6.95615C32.9298 6.91328 32.9395 6.87018 32.9481 6.82684C32.9567 6.78351 32.9643 6.73998 32.9707 6.69627C32.9772 6.65256 32.9826 6.60872 32.987 6.56475C32.9913 6.52076 32.9946 6.4767 32.9967 6.43257C32.9989 6.38843 33 6.34428 33 6.3001C33 6.25592 32.9989 6.21176 32.9967 6.16763C32.9946 6.1235 32.9913 6.07943 32.987 6.03544C32.9826 5.99147 32.9772 5.94763 32.9707 5.90392C32.9643 5.86021 32.9567 5.81669 32.9481 5.77335C32.9395 5.73001 32.9298 5.68691 32.919 5.64405C32.9083 5.60118 32.8965 5.55861 32.8837 5.51632C32.8709 5.47404 32.857 5.4321 32.8421 5.3905C32.8273 5.3489 32.8113 5.30768 32.7944 5.26686C32.7775 5.22603 32.7596 5.18564 32.7407 5.14571C32.7219 5.10575 32.702 5.06629 32.6811 5.02734C32.6603 4.98836 32.6385 4.94992 32.6158 4.91202C32.5931 4.87413 32.5695 4.8368 32.5449 4.80005C32.5204 4.76332 32.495 4.72721 32.4686 4.6917C32.4423 4.65622 32.4151 4.6214 32.3871 4.58725C32.3591 4.55308 32.3302 4.51962 32.3005 4.48688C32.2708 4.45414 32.2404 4.42215 32.2091 4.3909C32.1779 4.35966 32.1459 4.3292 32.1132 4.29953C32.0804 4.26986 32.047 4.24101 32.0128 4.21298C31.9787 4.18495 31.9438 4.15777 31.9083 4.13145C31.8729 4.10513 31.8367 4.07969 31.8 4.05513C31.7632 4.03059 31.7259 4.00695 31.688 3.98421C31.6502 3.9615 31.6117 3.93973 31.5727 3.91889C31.5337 3.89808 31.4943 3.87823 31.4544 3.85934C31.4144 3.84045 31.374 3.82254 31.3332 3.80562C31.2924 3.78872 31.2512 3.77282 31.2096 3.75791C31.168 3.74303 31.126 3.72918 31.0837 3.71636C31.0414 3.70354 30.9989 3.69176 30.956 3.68103C30.9131 3.67027 30.8701 3.66059 30.8267 3.65199C30.7834 3.64336 30.7398 3.6358 30.6962 3.62931C30.6524 3.62284 30.6086 3.61744 30.5646 3.61311C30.5206 3.60877 30.4766 3.60552 30.4324 3.60337C30.3883 3.60119 30.3442 3.6001 30.3 3.6001C30.2558 3.6001 30.2116 3.60119 30.1675 3.60337C30.1233 3.60552 30.0793 3.60877 30.0353 3.61311C29.9914 3.61744 29.9475 3.62284 29.9038 3.62931C29.8601 3.6358 29.8166 3.64336 29.7732 3.65199C29.7299 3.66059 29.6868 3.67027 29.6439 3.68103C29.6011 3.69176 29.5585 3.70354 29.5162 3.71636C29.4739 3.72918 29.432 3.74303 29.3903 3.75791C29.3487 3.77282 29.3075 3.78872 29.2667 3.80562C29.2259 3.82254 29.1855 3.84045 29.1455 3.85934C29.1056 3.87823 29.0662 3.89808 29.0272 3.91889C28.9882 3.93973 28.9498 3.9615 28.9119 3.98421C28.874 4.00695 28.8367 4.03059 28.7999 4.05513C28.7632 4.07969 28.7271 4.10513 28.6916 4.13145C28.6561 4.15777 28.6213 4.18495 28.5871 4.21298C28.5529 4.24101 28.5195 4.26986 28.4868 4.29953C28.454 4.3292 28.422 4.35966 28.3908 4.3909C28.3595 4.42215 28.3291 4.45414 28.2994 4.48688C28.2697 4.51962 28.2408 4.55308 28.2128 4.58725C28.1848 4.6214 28.1576 4.65622 28.1313 4.6917C28.105 4.72721 28.0795 4.76332 28.055 4.80005C28.0304 4.8368 28.0068 4.87413 27.9841 4.91202C27.9614 4.94992 27.9396 4.98836 27.9188 5.02734C27.8979 5.06629 27.8781 5.10575 27.8592 5.14571C27.8403 5.18564 27.8224 5.22603 27.8055 5.26686C27.7886 5.30768 27.7727 5.3489 27.7578 5.3905C27.7429 5.4321 27.7291 5.47404 27.7162 5.51632C27.7034 5.55861 27.6916 5.60118 27.6809 5.64405C27.6701 5.68691 27.6605 5.73001 27.6518 5.77335C27.6432 5.81669 27.6357 5.86021 27.6292 5.90392C27.6227 5.94763 27.6173 5.99147 27.613 6.03544C27.6086 6.07943 27.6054 6.1235 27.6032 6.16763C27.6011 6.21176 27.6 6.25592 27.6 6.3001Z"></path><path id="路径 11" fill-rule="evenodd" fill="url(#linear_12)" opacity="1" d="M27.6 6.3001C27.6 6.34428 27.6011 6.38843 27.6032 6.43257C27.6054 6.4767 27.6086 6.52076 27.613 6.56475C27.6173 6.60872 27.6227 6.65256 27.6292 6.69627C27.6357 6.73998 27.6432 6.78351 27.6518 6.82684C27.6605 6.87018 27.6701 6.91328 27.6809 6.95615C27.6916 6.99901 27.7034 7.04159 27.7162 7.08387C27.7291 7.12616 27.7429 7.16811 27.7578 7.2097C27.7727 7.25129 27.7886 7.29252 27.8055 7.33334C27.8224 7.37416 27.8403 7.41455 27.8592 7.45449C27.8781 7.49446 27.8979 7.53391 27.9188 7.57286C27.9396 7.61185 27.9614 7.65027 27.9841 7.68817C28.0068 7.72607 28.0304 7.76341 28.055 7.80015C28.0795 7.83688 28.105 7.87299 28.1313 7.9085C28.1576 7.94397 28.1848 7.97881 28.2128 8.01295C28.2408 8.04712 28.2697 8.08059 28.2994 8.11332C28.3291 8.14605 28.3595 8.17804 28.3908 8.20929C28.422 8.24055 28.454 8.27099 28.4868 8.30066C28.5195 8.33034 28.5529 8.3592 28.5871 8.38722C28.6213 8.41524 28.6561 8.44241 28.6916 8.46875C28.7271 8.49508 28.7632 8.5205 28.7999 8.54507C28.8367 8.56961 28.874 8.59324 28.9119 8.61598C28.9498 8.63869 28.9882 8.66045 29.0272 8.6813C29.0662 8.70211 29.1056 8.72198 29.1455 8.74086C29.1855 8.75974 29.2259 8.77766 29.2667 8.79457C29.3075 8.81148 29.3487 8.82738 29.3903 8.84228C29.432 8.85715 29.4739 8.871 29.5162 8.88384C29.5585 8.89667 29.6011 8.90845 29.6439 8.91917C29.6868 8.92989 29.7299 8.93959 29.7732 8.94821C29.8166 8.95682 29.8601 8.96438 29.9038 8.97088C29.9475 8.97735 29.9914 8.98277 30.0353 8.98709C30.0793 8.99141 30.1233 8.99468 30.1675 8.99683C30.2116 8.99901 30.2558 9.0001 30.3 9.0001C30.3442 9.0001 30.3883 8.99901 30.4324 8.99683C30.4766 8.99468 30.5206 8.99141 30.5646 8.98709C30.6086 8.98277 30.6524 8.97735 30.6962 8.97088C30.7398 8.96438 30.7834 8.95682 30.8267 8.94821C30.8701 8.93959 30.9131 8.92989 30.956 8.91917C30.9989 8.90845 31.0414 8.89667 31.0837 8.88384C31.126 8.871 31.168 8.85715 31.2096 8.84228C31.2512 8.82738 31.2924 8.81148 31.3332 8.79457C31.374 8.77766 31.4144 8.75974 31.4544 8.74086C31.4943 8.72198 31.5337 8.70211 31.5727 8.6813C31.6117 8.66045 31.6502 8.63869 31.688 8.61598C31.7259 8.59324 31.7632 8.56961 31.8 8.54507C31.8367 8.5205 31.8729 8.49508 31.9083 8.46875C31.9438 8.44241 31.9787 8.41524 32.0128 8.38722C32.047 8.3592 32.0804 8.33034 32.1132 8.30066C32.1459 8.27099 32.1779 8.24055 32.2091 8.20929C32.2404 8.17804 32.2708 8.14605 32.3005 8.11332C32.3302 8.08059 32.3591 8.04712 32.3871 8.01295C32.4151 7.97881 32.4423 7.94397 32.4686 7.9085C32.495 7.87299 32.5204 7.83688 32.5449 7.80015C32.5695 7.76341 32.5931 7.72607 32.6158 7.68817C32.6385 7.65027 32.6603 7.61185 32.6811 7.57286C32.702 7.53391 32.7219 7.49446 32.7407 7.45449C32.7596 7.41455 32.7775 7.37416 32.7944 7.33334C32.8113 7.29252 32.8273 7.25129 32.8421 7.2097C32.857 7.16811 32.8709 7.12616 32.8837 7.08387C32.8965 7.04159 32.9083 6.99901 32.919 6.95615C32.9298 6.91328 32.9395 6.87018 32.9481 6.82684C32.9567 6.78351 32.9643 6.73998 32.9707 6.69627C32.9772 6.65256 32.9826 6.60872 32.987 6.56475C32.9913 6.52076 32.9946 6.4767 32.9967 6.43257C32.9989 6.38843 33 6.34428 33 6.3001C33 6.25592 32.9989 6.21176 32.9967 6.16763C32.9946 6.1235 32.9913 6.07943 32.987 6.03544C32.9826 5.99147 32.9772 5.94763 32.9707 5.90392C32.9643 5.86021 32.9567 5.81669 32.9481 5.77335C32.9395 5.73001 32.9298 5.68691 32.919 5.64405C32.9083 5.60118 32.8965 5.55861 32.8837 5.51632C32.8709 5.47404 32.857 5.4321 32.8421 5.3905C32.8273 5.3489 32.8113 5.30768 32.7944 5.26686C32.7775 5.22603 32.7596 5.18564 32.7407 5.14571C32.7219 5.10575 32.702 5.06629 32.6811 5.02734C32.6603 4.98836 32.6385 4.94992 32.6158 4.91202C32.5931 4.87413 32.5695 4.8368 32.5449 4.80005C32.5204 4.76332 32.495 4.72721 32.4686 4.6917C32.4423 4.65622 32.4151 4.6214 32.3871 4.58725C32.3591 4.55308 32.3302 4.51962 32.3005 4.48688C32.2708 4.45414 32.2404 4.42215 32.2091 4.3909C32.1779 4.35966 32.1459 4.3292 32.1132 4.29953C32.0804 4.26986 32.047 4.24101 32.0128 4.21298C31.9787 4.18495 31.9438 4.15777 31.9083 4.13145C31.8729 4.10513 31.8367 4.07969 31.8 4.05513C31.7632 4.03059 31.7259 4.00695 31.688 3.98421C31.6502 3.9615 31.6117 3.93973 31.5727 3.91889C31.5337 3.89808 31.4943 3.87823 31.4544 3.85934C31.4144 3.84045 31.374 3.82254 31.3332 3.80562C31.2924 3.78872 31.2512 3.77282 31.2096 3.75791C31.168 3.74303 31.126 3.72918 31.0837 3.71636C31.0414 3.70354 30.9989 3.69176 30.956 3.68103C30.9131 3.67027 30.8701 3.66059 30.8267 3.65199C30.7834 3.64336 30.7398 3.6358 30.6962 3.62931C30.6524 3.62284 30.6086 3.61744 30.5646 3.61311C30.5206 3.60877 30.4766 3.60552 30.4324 3.60337C30.3883 3.60119 30.3442 3.6001 30.3 3.6001C30.2558 3.6001 30.2116 3.60119 30.1675 3.60337C30.1233 3.60552 30.0793 3.60877 30.0353 3.61311C29.9914 3.61744 29.9475 3.62284 29.9038 3.62931C29.8601 3.6358 29.8166 3.64336 29.7732 3.65199C29.7299 3.66059 29.6868 3.67027 29.6439 3.68103C29.6011 3.69176 29.5585 3.70354 29.5162 3.71636C29.4739 3.72918 29.432 3.74303 29.3903 3.75791C29.3487 3.77282 29.3075 3.78872 29.2667 3.80562C29.2259 3.82254 29.1855 3.84045 29.1455 3.85934C29.1056 3.87823 29.0662 3.89808 29.0272 3.91889C28.9882 3.93973 28.9498 3.9615 28.9119 3.98421C28.874 4.00695 28.8367 4.03059 28.7999 4.05513C28.7632 4.07969 28.7271 4.10513 28.6916 4.13145C28.6561 4.15777 28.6213 4.18495 28.5871 4.21298C28.5529 4.24101 28.5195 4.26986 28.4868 4.29953C28.454 4.3292 28.422 4.35966 28.3908 4.3909C28.3595 4.42215 28.3291 4.45414 28.2994 4.48688C28.2697 4.51962 28.2408 4.55308 28.2128 4.58725C28.1848 4.6214 28.1576 4.65622 28.1313 4.6917C28.105 4.72721 28.0795 4.76332 28.055 4.80005C28.0304 4.8368 28.0068 4.87413 27.9841 4.91202C27.9614 4.94992 27.9396 4.98836 27.9188 5.02734C27.8979 5.06629 27.8781 5.10575 27.8592 5.14571C27.8403 5.18564 27.8224 5.22603 27.8055 5.26686C27.7886 5.30768 27.7727 5.3489 27.7578 5.3905C27.7429 5.4321 27.7291 5.47404 27.7162 5.51632C27.7034 5.55861 27.6916 5.60118 27.6809 5.64405C27.6701 5.68691 27.6605 5.73001 27.6518 5.77335C27.6432 5.81669 27.6357 5.86021 27.6292 5.90392C27.6227 5.94763 27.6173 5.99147 27.613 6.03544C27.6086 6.07943 27.6054 6.1235 27.6032 6.16763C27.6011 6.21176 27.6 6.25592 27.6 6.3001Z"></path></g></g><defs><rect id="path_0" x="0" y="0" width="36" height="36" rx="0" ry="0"/><linearGradient id="linear_0" x1="29.1190215434809%" y1="5.169204491319128%" x2="83.92298806714595%" y2="62.989477019684955%" gradientUnits="objectBoundingBox"><stop offset="0" stop-color="#E8F8FA" stop-opacity="0.9" /><stop offset="1" stop-color="#BADEF7" stop-opacity="1" /></linearGradient><linearGradient id="linear_1" x1="29.118968990863063%" y1="5.169204491319128%" x2="83.92307344350087%" y2="62.989477019684955%" gradientUnits="objectBoundingBox"><stop offset="0" stop-color="#E8F8FA" stop-opacity="0.9" /><stop offset="1" stop-color="#BADEF7" stop-opacity="1" /></linearGradient><linearGradient id="linear_2" x1="39.92800748278954%" y1="17.244%" x2="88.17897163568091%" y2="85.071%" gradientUnits="objectBoundingBox"><stop offset="0" stop-color="#FAD7EA" stop-opacity="0.18" /><stop offset="1" stop-color="#D9BFCA" stop-opacity="0.2" /></linearGradient><linearGradient id="linear_3" x1="35.65099868947602%" y1="38.03640723644769%" x2="100.00012343465876%" y2="100.00013980735723%" gradientUnits="objectBoundingBox"><stop offset="0" stop-color="#FAEDF2" stop-opacity="0.96" /><stop offset="1" stop-color="#FCCFDD" stop-opacity="1" /></linearGradient><linearGradient id="linear_4" x1="80.92108777844939%" y1="13.935019482155228%" x2="20.6329822645935%" y2="92.94612994534626%" gradientUnits="objectBoundingBox"><stop offset="0" stop-color="#FF57A5" stop-opacity="1" /><stop offset="1" stop-color="#FC2828" stop-opacity="1" /></linearGradient><linearGradient id="linear_5" x1="29.119036041814734%" y1="5.169204491319128%" x2="83.92296451332608%" y2="62.989477019684955%" gradientUnits="objectBoundingBox"><stop offset="0" stop-color="#E8F8FA" stop-opacity="0.9" /><stop offset="1" stop-color="#BADEF7" stop-opacity="1" /></linearGradient><linearGradient id="linear_6" x1="2.7877448353171044" y1="2.1600619370739294" x2="3.9076571091135" y2="4.915378482664793" gradientUnits="userSpaceOnUse"><stop offset="0" stop-color="#E8F8FA" stop-opacity="0.9" /><stop offset="1" stop-color="#BADEF7" stop-opacity="1" /></linearGradient><linearGradient id="linear_7" x1="8.795308309345" y1="1.00708302138624" x2="11.077396082910202" y2="4.925599362319624" gradientUnits="userSpaceOnUse"><stop offset="0" stop-color="#E8F8FA" stop-opacity="0.9" /><stop offset="1" stop-color="#BADEF7" stop-opacity="1" /></linearGradient><linearGradient id="linear_8" x1="7.0393185823913695" y1="2.560381156892671" x2="3.8964791548617805" y2="4.067816312627792" gradientUnits="userSpaceOnUse"><stop offset="0" stop-color="#E8F8FA" stop-opacity="0.9" /><stop offset="1" stop-color="#BADEF7" stop-opacity="1" /></linearGradient><linearGradient id="linear_9" x1="16.70142738758302" y1="0.5499688733725658" x2="12.00879104077185" y2="3.606994295006766" gradientUnits="userSpaceOnUse"><stop offset="0" stop-color="#E8F8FA" stop-opacity="0.9" /><stop offset="1" stop-color="#BADEF7" stop-opacity="1" /></linearGradient><linearGradient id="linear_10" x1="39.92795446325233%" y1="17.244%" x2="88.17917261194297%" y2="85.071%" gradientUnits="objectBoundingBox"><stop offset="0" stop-color="#FAD7EA" stop-opacity="0.18" /><stop offset="1" stop-color="#D9BFCA" stop-opacity="0.2" /></linearGradient><linearGradient id="linear_11" x1="35.65095130994168%" y1="38.03640723644769%" x2="100.0002885320418%" y2="100.00013980735723%" gradientUnits="objectBoundingBox"><stop offset="0" stop-color="#FAEDF2" stop-opacity="0.96" /><stop offset="1" stop-color="#FCCFDD" stop-opacity="1" /></linearGradient><linearGradient id="linear_12" x1="80.92118987801076%" y1="13.935019482155228%" x2="20.63288529647738%" y2="92.94612994534626%" gradientUnits="objectBoundingBox"><stop offset="0" stop-color="#FF57A5" stop-opacity="1" /><stop offset="1" stop-color="#FC2828" stop-opacity="1" /></linearGradient></defs></svg>