<svg xmlns="http://www.w3.org/2000/svg" xmlns:xlink="http://www.w3.org/1999/xlink" width="36" height="36" viewBox="0 0 36 36" fill="none"><g opacity="1"  transform="translate(0 0)"><mask id="bg-mask-0" fill="white"><use transform="translate(0 0)" xlink:href="#path_0"></use></mask><g mask="url(#bg-mask-0)" ><path id="路径 1" fill-rule="evenodd" fill="url(#linear_0)" opacity="1" d="M5.87997 25.8001L29.7 25.8001L32.82 29.6401C33.9 31.0201 33.42 32.1001 31.62 32.1001L3.71997 32.1001C1.97998 32.1001 1.49998 31.0201 2.57998 29.7001L5.87997 25.8001ZM15.3 5.58008C16.86 5.58008 17.34 6.60007 17.34 7.32007L17.34 15.6001C17.34 16.3201 16.44 17.1001 15.66 17.1001L7.01998 17.1001C6.23997 17.1001 5.63999 16.3201 5.63999 15.6001L5.63999 6.90009C5.63999 6.18009 6.23997 5.58008 7.01998 5.58008L15.3 5.58008Z"></path><path id="路径 2" fill-rule="evenodd" fill="url(#linear_1)" opacity="1" d="M28.26 18.4199C29.88 18.4199 30.36 19.4999 30.36 20.1599L30.36 28.4399C30.36 29.0999 29.82 29.6999 29.1 29.6999L20.82 29.6999C20.16 29.6999 19.56 29.1599 19.56 28.4399L19.56 20.1599C19.56 19.4999 20.1 18.8999 20.82 18.8999L28.26 18.4199ZM15.42 18.4199C17.22 18.5999 17.58 19.4999 17.58 20.1599L17.58 28.4399C17.58 29.0999 17.04 29.6999 16.32 29.6999L8.04003 29.6999C7.38004 29.6999 6.78003 29.1599 6.78003 28.4399L6.78003 20.1599C6.78003 19.4999 7.32003 18.8999 8.04003 18.8999L15.42 18.4199Z"></path><path id="路径 3" fill-rule="evenodd" fill="url(#linear_2)" opacity="1" d="M15.18 5.58008C15.84 5.58008 16.44 6.12008 16.44 6.84008L16.44 15.1201C16.44 15.7801 15.9 16.3801 15.18 16.3801L6.84002 16.3801C6.18003 16.3801 5.58002 15.8401 5.58002 15.1201L5.58002 6.84008C5.58002 6.18009 6.12002 5.58008 6.84002 5.58008L15.18 5.58008ZM27.9 18.3001C28.56 18.3001 29.16 18.8401 29.16 19.5601L29.16 27.8401C29.16 28.5001 28.62 29.1001 27.9 29.1001L19.62 29.1001C18.96 29.1001 18.36 28.5601 18.36 27.8401L18.36 19.5601C18.36 18.9001 18.9 18.3001 19.62 18.3001L27.9 18.3001ZM15.18 18.3001C15.84 18.3001 16.44 18.8401 16.44 19.5601L16.44 27.8401C16.44 28.5001 15.9 29.1001 15.18 29.1001L6.84002 29.1001C6.18003 29.1001 5.58002 28.5601 5.58002 27.8401L5.58002 19.5601C5.58002 18.9001 6.12002 18.3001 6.84002 18.3001L15.18 18.3001Z"></path><path id="路径 4" fill-rule="evenodd" fill="url(#linear_3)" opacity="1" d="M31.62 7.85998L24.78 4.25999C24.18 3.89999 22.26 4.14 21.96 4.79999L18.78 12.66C18.48 13.26 18.66 14.04 19.32 14.4L25.8 18.12C27.3 18.72 28.2 18.06 28.5 17.46L32.22 10.38C32.58 9.71999 32.58 8.34 31.62 7.85998Z"></path><path id="路径 5" fill-rule="evenodd" fill="url(#linear_4)" opacity="1" d="M30.54 8.22007L23.16 4.32007C22.56 4.02008 21.78 4.26006 21.48 4.86007L17.58 12.2401C17.28 12.8401 17.52 13.6201 18.12 13.9201L25.5 17.8201C26.1 18.1201 26.88 17.8801 27.18 17.2801L31.08 9.90008C31.38 9.30007 31.14 8.58007 30.54 8.22007Z"></path><path id="路径 5" fill-rule="evenodd" fill="url(#linear_5)" opacity="1" d="M30.54 8.22007L23.16 4.32007C22.56 4.02008 21.78 4.26006 21.48 4.86007L17.58 12.2401C17.28 12.8401 17.52 13.6201 18.12 13.9201L25.5 17.8201C26.1 18.1201 26.88 17.8801 27.18 17.2801L31.08 9.90008C31.38 9.30007 31.14 8.58007 30.54 8.22007Z"></path></g></g><defs><rect id="path_0" x="0" y="0" width="36" height="36" rx="0" ry="0"/><linearGradient id="linear_0" x1="29.119026364699714%" y1="5.169204491319128%" x2="83.92298023465149%" y2="62.989477019684955%" gradientUnits="objectBoundingBox"><stop offset="0" stop-color="#E8F8FA" stop-opacity="0.9" /><stop offset="1" stop-color="#BADEF7" stop-opacity="1" /></linearGradient><linearGradient id="linear_1" x1="29.118962693023455%" y1="5.169204491319128%" x2="83.92308367489586%" y2="62.989477019684955%" gradientUnits="objectBoundingBox"><stop offset="0" stop-color="#E8F8FA" stop-opacity="0.9" /><stop offset="1" stop-color="#BADEF7" stop-opacity="1" /></linearGradient><linearGradient id="linear_2" x1="80.91958829255013%" y1="13.935026372865188%" x2="20.63258145322279%" y2="92.94617590615914%" gradientUnits="objectBoundingBox"><stop offset="0" stop-color="#57DDFF" stop-opacity="1" /><stop offset="1" stop-color="#1692F7" stop-opacity="1" /></linearGradient><linearGradient id="linear_3" x1="39.92801886384187%" y1="17.244%" x2="88.17892849457719%" y2="85.071%" gradientUnits="objectBoundingBox"><stop offset="0" stop-color="#FAD7EA" stop-opacity="0.18" /><stop offset="1" stop-color="#D9BFCA" stop-opacity="0.2" /></linearGradient><linearGradient id="linear_4" x1="35.651023286775434%" y1="38.03640723644769%" x2="100.00003772360611%" y2="100.00013980735723%" gradientUnits="objectBoundingBox"><stop offset="0" stop-color="#FAEDF2" stop-opacity="0.96" /><stop offset="1" stop-color="#FCCFDD" stop-opacity="1" /></linearGradient><linearGradient id="linear_5" x1="80.92103477300057%" y1="13.935019482155228%" x2="20.633032606029285%" y2="92.94612994534626%" gradientUnits="objectBoundingBox"><stop offset="0" stop-color="#FF57A5" stop-opacity="1" /><stop offset="1" stop-color="#FC2828" stop-opacity="1" /></linearGradient></defs></svg>