<svg xmlns="http://www.w3.org/2000/svg" xmlns:xlink="http://www.w3.org/1999/xlink" width="36" height="36" viewBox="0 0 36 36" fill="none"><g opacity="1"  transform="translate(0 0)"><mask id="bg-mask-0" fill="white"><use transform="translate(0 0)" xlink:href="#path_0"></use></mask><g mask="url(#bg-mask-0)" ><path id="路径 1" fill-rule="evenodd" fill="url(#linear_0)" opacity="1" d="M5.28003 25.5L30.72 25.5L33.96 29.94C35.1601 31.62 34.5 33 32.4 33L3.30001 33C1.26 33 0.600006 31.68 1.80001 30L5.28003 25.5Z"></path><path id="路径 2" fill-rule="evenodd" fill="url(#linear_1)" opacity="1" d="M8.21994 4.02002L24.48 4.02002C26.5799 4.02002 28.26 5.7 28.26 7.80002L28.26 25.98C28.26 28.08 26.5799 29.76 24.48 29.76L8.21994 29.76C6.11995 29.76 4.43994 28.08 4.43994 25.98L4.43994 7.80002C4.43994 5.7 6.11995 4.02002 8.21994 4.02002Z"></path><path id="路径 3" fill-rule="evenodd" fill="url(#linear_2)" opacity="1" d="M7.13999 4L23.4 4C25.5 4 27.18 5.67998 27.18 7.78L27.18 25.96C27.18 28.06 25.5 29.74 23.4 29.74L7.13999 29.74C5.03999 29.74 3.35999 28.06 3.35999 25.96L3.35999 7.78C3.35999 5.67998 5.03999 4 7.13999 4Z"></path><path id="拼合图形" fill-rule="evenodd" fill="url(#linear_3)" opacity="1" d="M20.7187 15.7022L15.9887 20.7322C15.6316 21.0893 14.9702 21.1733 14.5587 20.7822L11.1287 17.5222C10.7373 17.1502 10.6767 16.5136 11.0487 16.1222C11.4207 15.7308 12.0139 15.7188 12.4487 16.1322L15.1587 18.7022L19.2887 14.3522C19.6608 13.9608 20.3373 13.8602 20.7287 14.2322C21.0788 14.6477 21.0907 15.3108 20.7187 15.7022Z"></path><path id="拼合图形" fill-rule="evenodd" style="fill:#FFFFFF" opacity="1" d="M20.3318 15.1299L15.6018 20.1599C15.2446 20.5171 14.5833 20.601 14.1718 20.2099L10.7418 16.9499C10.3504 16.5779 10.2898 15.9413 10.6618 15.5499C11.0338 15.1585 11.6269 15.1466 12.0618 15.5599L14.7718 18.1299L18.9018 13.7799C19.2738 13.3885 19.9504 13.2879 20.3418 13.6599C20.6919 14.0754 20.7038 14.7385 20.3318 15.1299Z"></path><path id="路径 8" fill-rule="evenodd" style="fill:#000000" opacity="0.2" d="M11.88 7.20003C10.74 7.20003 9.83997 6.48001 9.83997 5.64002L9.83997 5.58002C9.83997 4.74003 10.74 4.02002 11.88 4.02002L22.7 4.02002C22.7 5.58011 22.28 6.14002 21.8 6.50002C21.32 6.86002 20.7 7.20003 20.16 7.20003L11.88 7.20003Z"></path><path id="路径 9" fill-rule="evenodd" fill="url(#linear_4)" opacity="1" d="M19.5 6.36002L11.34 6.36002C10.26 6.36002 9.36001 5.46003 9.36001 4.38003C9.3 3.30002 10.2 2.40002 11.34 2.40002L19.5 2.40002C20.58 2.40002 21.48 3.30002 21.48 4.38003L21.48 4.44001C21.48 4.98001 21.24 5.46003 20.88 5.82003C20.52 6.18002 20.04 6.36002 19.5 6.36002Z"></path><path id="路径 10" fill-rule="evenodd" fill="url(#linear_5)" opacity="1" d="M21.3 24.78C21.3 24.8851 21.3027 24.9901 21.3079 25.095C21.3131 25.2 21.3209 25.3047 21.3312 25.4093C21.3416 25.5138 21.3546 25.6181 21.3702 25.722C21.3857 25.8259 21.4039 25.9294 21.4245 26.0324C21.4452 26.1355 21.4685 26.238 21.4942 26.3399C21.52 26.4418 21.5483 26.5431 21.579 26.6436C21.6098 26.7442 21.6431 26.8439 21.6788 26.9428C21.7146 27.0418 21.7527 27.1397 21.7933 27.2368C21.8339 27.3339 21.8768 27.4299 21.9222 27.5249C21.9675 27.6199 22.0152 27.7137 22.0652 27.8064C22.1152 27.899 22.1674 27.9904 22.222 28.0805C22.2765 28.1706 22.3332 28.2594 22.3921 28.3468C22.451 28.4341 22.5121 28.52 22.5752 28.6044C22.6384 28.6888 22.7037 28.7716 22.7709 28.8528C22.8382 28.934 22.9075 29.0135 22.9787 29.0914C23.0499 29.1693 23.123 29.2453 23.198 29.3196C23.273 29.3939 23.3498 29.4663 23.4283 29.5369C23.5069 29.6075 23.5872 29.676 23.6692 29.7427C23.7511 29.8094 23.8347 29.874 23.9199 29.9366C24.0051 29.9992 24.0918 30.0596 24.1799 30.118C24.2681 30.1764 24.3577 30.2326 24.4486 30.2866C24.5396 30.3406 24.6319 30.3924 24.7254 30.4419C24.8189 30.4915 24.9136 30.5387 25.0095 30.5836C25.1054 30.6285 25.2023 30.6711 25.3002 30.7113C25.3982 30.7515 25.4971 30.7893 25.597 30.8247C25.6968 30.8601 25.7975 30.893 25.899 30.9235C26.0005 30.954 26.1026 30.9821 26.2055 31.0076C26.3084 31.0331 26.4118 31.0561 26.5159 31.0766C26.6199 31.0971 26.7243 31.1151 26.8292 31.1305C26.9341 31.1459 27.0393 31.1588 27.1449 31.1691C27.2504 31.1794 27.3561 31.1871 27.4621 31.1923C27.568 31.1974 27.674 31.2 27.78 31.2C27.8861 31.2 27.9921 31.1974 28.098 31.1923C28.2039 31.1871 28.3096 31.1794 28.4152 31.1691C28.5207 31.1588 28.6259 31.1459 28.7309 31.1305C28.8358 31.1151 28.9402 31.0971 29.0442 31.0766C29.1482 31.0561 29.2517 31.0331 29.3546 31.0076C29.4574 30.9821 29.5596 30.954 29.6611 30.9235C29.7626 30.893 29.8632 30.8601 29.9631 30.8247C30.0629 30.7893 30.1618 30.7515 30.2598 30.7113C30.3578 30.6711 30.4547 30.6285 30.5506 30.5836C30.6465 30.5387 30.7412 30.4915 30.8347 30.4419C30.9282 30.3924 31.0205 30.3406 31.1114 30.2866C31.2024 30.2326 31.2919 30.1764 31.3801 30.118C31.4683 30.0596 31.555 29.9992 31.6402 29.9366C31.7254 29.874 31.8089 29.8094 31.8909 29.7427C31.9729 29.676 32.0532 29.6075 32.1317 29.5369C32.2103 29.4663 32.2871 29.3939 32.3621 29.3196C32.4371 29.2453 32.5102 29.1693 32.5814 29.0914C32.6526 29.0135 32.7219 28.934 32.7891 28.8528C32.8564 28.7716 32.9217 28.6888 32.9848 28.6044C33.048 28.52 33.109 28.4341 33.168 28.3468C33.2269 28.2594 33.2836 28.1706 33.3381 28.0805C33.3926 27.9904 33.4449 27.899 33.4949 27.8064C33.5449 27.7137 33.5925 27.6199 33.6379 27.5249C33.6832 27.4299 33.7262 27.3339 33.7668 27.2368C33.8074 27.1397 33.8455 27.0418 33.8812 26.9428C33.917 26.8439 33.9502 26.7442 33.981 26.6436C34.0118 26.5431 34.0401 26.4418 34.0658 26.3399C34.0916 26.238 34.1148 26.1355 34.1355 26.0324C34.1562 25.9294 34.1743 25.8259 34.1899 25.722C34.2055 25.6181 34.2185 25.5138 34.2288 25.4093C34.2392 25.3047 34.247 25.2 34.2522 25.095C34.2574 24.9901 34.26 24.8851 34.26 24.78C34.26 24.6749 34.2574 24.5699 34.2522 24.465C34.247 24.36 34.2392 24.2553 34.2288 24.1507C34.2185 24.0462 34.2055 23.9419 34.1899 23.838C34.1743 23.734 34.1562 23.6305 34.1355 23.5275C34.1148 23.4245 34.0916 23.322 34.0658 23.2201C34.0401 23.1181 34.0118 23.0169 33.981 22.9163C33.9502 22.8158 33.917 22.7161 33.8812 22.6172C33.8455 22.5182 33.8074 22.4202 33.7668 22.3231C33.7262 22.2261 33.6832 22.1301 33.6379 22.0351C33.5925 21.9401 33.5449 21.8463 33.4949 21.7536C33.4449 21.6609 33.3926 21.5696 33.3381 21.4794C33.2836 21.3893 33.2269 21.3006 33.168 21.2132C33.109 21.1259 33.048 21.04 32.9848 20.9556C32.9217 20.8712 32.8564 20.7884 32.7891 20.7072C32.7219 20.626 32.6526 20.5464 32.5814 20.4686C32.5102 20.3907 32.4371 20.3147 32.3621 20.2404C32.2871 20.1661 32.2103 20.0936 32.1317 20.0231C32.0532 19.9525 31.9729 19.8839 31.8909 19.8172C31.8089 19.7506 31.7254 19.686 31.6402 19.6234C31.555 19.5608 31.4683 19.5003 31.3801 19.442C31.2919 19.3836 31.2024 19.3274 31.1114 19.2734C31.0205 19.2194 30.9282 19.1676 30.8347 19.1181C30.7412 19.0685 30.6464 19.0213 30.5506 18.9764C30.4547 18.9314 30.3578 18.8889 30.2598 18.8487C30.1618 18.8085 30.0629 18.7707 29.9631 18.7353C29.8632 18.6999 29.7626 18.6669 29.6611 18.6364C29.5596 18.6059 29.4574 18.5779 29.3546 18.5524C29.2517 18.5268 29.1482 18.5038 29.0442 18.4833C28.9402 18.4628 28.8358 18.4449 28.7309 18.4295C28.6259 18.4141 28.5207 18.4012 28.4152 18.3909C28.3096 18.3806 28.2039 18.3729 28.098 18.3677C27.9921 18.3626 27.8861 18.36 27.78 18.36C27.674 18.36 27.568 18.3626 27.4621 18.3677C27.3561 18.3729 27.2504 18.3806 27.1449 18.3909C27.0393 18.4012 26.9341 18.4141 26.8292 18.4295C26.7243 18.4449 26.6199 18.4628 26.5159 18.4833C26.4118 18.5038 26.3084 18.5268 26.2055 18.5524C26.1026 18.5779 26.0005 18.6059 25.899 18.6364C25.7975 18.6669 25.6968 18.6999 25.597 18.7353C25.4971 18.7707 25.3982 18.8085 25.3002 18.8487C25.2023 18.8889 25.1054 18.9314 25.0095 18.9764C24.9136 19.0213 24.8189 19.0685 24.7254 19.1181C24.6319 19.1676 24.5396 19.2194 24.4486 19.2734C24.3577 19.3274 24.2681 19.3836 24.1799 19.442C24.0918 19.5003 24.0051 19.5608 23.9199 19.6234C23.8347 19.686 23.7511 19.7506 23.6692 19.8172C23.5872 19.8839 23.5069 19.9525 23.4283 20.0231C23.3498 20.0936 23.273 20.1661 23.198 20.2404C23.123 20.3147 23.0499 20.3907 22.9787 20.4686C22.9075 20.5464 22.8382 20.626 22.7709 20.7072C22.7037 20.7884 22.6384 20.8712 22.5752 20.9556C22.5121 21.04 22.451 21.1259 22.3921 21.2132C22.3332 21.3006 22.2765 21.3893 22.222 21.4794C22.1674 21.5696 22.1152 21.6609 22.0652 21.7536C22.0152 21.8463 21.9675 21.9401 21.9222 22.0351C21.8768 22.1301 21.8339 22.2261 21.7933 22.3231C21.7527 22.4202 21.7146 22.5182 21.6788 22.6172C21.6431 22.7161 21.6098 22.8158 21.579 22.9163C21.5483 23.0169 21.52 23.1181 21.4942 23.2201C21.4685 23.322 21.4452 23.4245 21.4245 23.5275C21.4039 23.6305 21.3857 23.734 21.3702 23.838C21.3546 23.9419 21.3416 24.0462 21.3312 24.1507C21.3209 24.2553 21.3131 24.36 21.3079 24.465C21.3027 24.5699 21.3 24.6749 21.3 24.78Z"></path><path id="路径 11" fill-rule="evenodd" fill="url(#linear_6)" opacity="1" d="M20.22 24.78C20.22 24.8851 20.2226 24.9901 20.2278 25.095C20.233 25.2 20.2408 25.3047 20.2512 25.4093C20.2616 25.5138 20.2745 25.6181 20.2901 25.722C20.3056 25.8259 20.3238 25.9294 20.3445 26.0324C20.3652 26.1355 20.3884 26.238 20.4141 26.3399C20.4399 26.4418 20.4682 26.5431 20.499 26.6436C20.5298 26.7442 20.563 26.8439 20.5987 26.9428C20.6345 27.0418 20.6726 27.1397 20.7132 27.2368C20.7538 27.3339 20.7968 27.4299 20.8421 27.5249C20.8874 27.6199 20.9351 27.7137 20.9851 27.8064C21.0351 27.899 21.0874 27.9904 21.1419 28.0805C21.1964 28.1706 21.2531 28.2594 21.312 28.3468C21.371 28.4341 21.432 28.52 21.4952 28.6044C21.5583 28.6888 21.6236 28.7716 21.6908 28.8528C21.7581 28.934 21.8274 29.0135 21.8986 29.0914C21.9698 29.1693 22.0429 29.2453 22.1179 29.3196C22.1929 29.3939 22.2697 29.4663 22.3483 29.5369C22.4268 29.6075 22.5071 29.676 22.5891 29.7427C22.6711 29.8094 22.7546 29.874 22.8398 29.9366C22.925 29.9992 23.0117 30.0596 23.0999 30.118C23.188 30.1764 23.2776 30.2326 23.3686 30.2866C23.4595 30.3406 23.5518 30.3924 23.6453 30.4419C23.7388 30.4915 23.8335 30.5387 23.9294 30.5836C24.0253 30.6285 24.1222 30.6711 24.2202 30.7113C24.3181 30.7515 24.4171 30.7893 24.5169 30.8247C24.6168 30.8601 24.7174 30.893 24.8189 30.9235C24.9204 30.954 25.0226 30.9821 25.1255 31.0076C25.2283 31.0331 25.3318 31.0561 25.4358 31.0766C25.5398 31.0971 25.6442 31.1151 25.7491 31.1305C25.854 31.1459 25.9593 31.1588 26.0648 31.1691C26.1703 31.1794 26.2761 31.1871 26.382 31.1923C26.4879 31.1974 26.5939 31.2 26.7 31.2C26.806 31.2 26.912 31.1974 27.0179 31.1923C27.1238 31.1871 27.2296 31.1794 27.3351 31.1691C27.4406 31.1588 27.5459 31.1459 27.6508 31.1305C27.7557 31.1151 27.8601 31.0971 27.9642 31.0766C28.0682 31.0561 28.1716 31.0331 28.2745 31.0076C28.3773 30.9821 28.4795 30.954 28.581 30.9235C28.6825 30.893 28.7832 30.8601 28.883 30.8247C28.9828 30.7893 29.0818 30.7515 29.1798 30.7113C29.2777 30.6711 29.3747 30.6285 29.4705 30.5836C29.5664 30.5387 29.6611 30.4915 29.7546 30.4419C29.8481 30.3924 29.9404 30.3406 30.0313 30.2866C30.1223 30.2326 30.2119 30.1764 30.3 30.118C30.3882 30.0596 30.4749 29.9992 30.5601 29.9366C30.6453 29.874 30.7288 29.8094 30.8108 29.7427C30.8928 29.676 30.9731 29.6075 31.0516 29.5369C31.1302 29.4663 31.207 29.3939 31.282 29.3196C31.357 29.2453 31.4301 29.1693 31.5013 29.0914C31.5725 29.0135 31.6418 28.934 31.7091 28.8528C31.7763 28.7716 31.8416 28.6888 31.9047 28.6044C31.9679 28.52 32.029 28.4341 32.0879 28.3468C32.1468 28.2594 32.2035 28.1706 32.258 28.0805C32.3126 27.9904 32.3648 27.899 32.4148 27.8064C32.4648 27.7137 32.5125 27.6199 32.5578 27.5249C32.6031 27.4299 32.6461 27.3339 32.6867 27.2368C32.7273 27.1397 32.7654 27.0418 32.8012 26.9428C32.8369 26.8439 32.8701 26.7442 32.9009 26.6436C32.9317 26.5431 32.96 26.4418 32.9858 26.3399C33.0115 26.238 33.0347 26.1355 33.0555 26.0324C33.0762 25.9294 33.0943 25.8259 33.1098 25.722C33.1254 25.6181 33.1384 25.5138 33.1488 25.4093C33.1592 25.3047 33.167 25.2 33.1722 25.095C33.1774 24.9901 33.18 24.8851 33.18 24.78C33.18 24.6749 33.1774 24.5699 33.1722 24.465C33.167 24.36 33.1592 24.2553 33.1488 24.1507C33.1384 24.0462 33.1254 23.9419 33.1098 23.838C33.0943 23.734 33.0762 23.6305 33.0555 23.5275C33.0347 23.4245 33.0115 23.322 32.9858 23.2201C32.96 23.1181 32.9317 23.0169 32.9009 22.9163C32.8701 22.8158 32.8369 22.7161 32.8012 22.6172C32.7654 22.5182 32.7273 22.4202 32.6867 22.3231C32.6461 22.2261 32.6031 22.1301 32.5578 22.0351C32.5125 21.9401 32.4648 21.8463 32.4148 21.7536C32.3648 21.6609 32.3126 21.5696 32.258 21.4794C32.2035 21.3893 32.1468 21.3006 32.0879 21.2132C32.029 21.1259 31.9679 21.04 31.9047 20.9556C31.8416 20.8712 31.7763 20.7884 31.7091 20.7072C31.6418 20.626 31.5725 20.5464 31.5013 20.4686C31.4301 20.3907 31.357 20.3147 31.282 20.2404C31.207 20.1661 31.1302 20.0936 31.0516 20.0231C30.9731 19.9525 30.8928 19.8839 30.8108 19.8172C30.7288 19.7506 30.6453 19.686 30.5601 19.6234C30.4749 19.5608 30.3882 19.5003 30.3 19.442C30.2119 19.3836 30.1223 19.3274 30.0313 19.2734C29.9404 19.2194 29.8481 19.1676 29.7546 19.1181C29.6611 19.0685 29.5664 19.0213 29.4705 18.9764C29.3747 18.9314 29.2777 18.8889 29.1798 18.8487C29.0818 18.8085 28.9828 18.7707 28.883 18.7353C28.7832 18.6999 28.6825 18.6669 28.581 18.6364C28.4795 18.6059 28.3773 18.5779 28.2745 18.5524C28.1716 18.5268 28.0682 18.5038 27.9642 18.4833C27.8601 18.4628 27.7557 18.4449 27.6508 18.4295C27.5459 18.4141 27.4406 18.4012 27.3351 18.3909C27.2296 18.3806 27.1238 18.3729 27.0179 18.3677C26.912 18.3626 26.806 18.36 26.7 18.36C26.5939 18.36 26.4879 18.3626 26.382 18.3677C26.2761 18.3729 26.1703 18.3806 26.0648 18.3909C25.9593 18.4012 25.854 18.4141 25.7491 18.4295C25.6442 18.4449 25.5398 18.4628 25.4358 18.4833C25.3318 18.5038 25.2283 18.5268 25.1254 18.5524C25.0226 18.5779 24.9204 18.6059 24.8189 18.6364C24.7174 18.6669 24.6168 18.6999 24.5169 18.7353C24.4171 18.7707 24.3181 18.8085 24.2202 18.8487C24.1222 18.8889 24.0253 18.9314 23.9294 18.9764C23.8335 19.0213 23.7388 19.0685 23.6453 19.1181C23.5518 19.1676 23.4595 19.2194 23.3686 19.2734C23.2776 19.3274 23.188 19.3836 23.0999 19.442C23.0117 19.5003 22.925 19.5608 22.8398 19.6234C22.7546 19.686 22.6711 19.7506 22.5891 19.8172C22.5071 19.8839 22.4268 19.9525 22.3483 20.0231C22.2697 20.0936 22.1929 20.1661 22.1179 20.2404C22.0429 20.3147 21.9698 20.3907 21.8986 20.4686C21.8274 20.5464 21.7581 20.626 21.6908 20.7072C21.6236 20.7884 21.5583 20.8712 21.4952 20.9556C21.432 21.04 21.371 21.1259 21.312 21.2132C21.2531 21.3006 21.1964 21.3893 21.1419 21.4794C21.0874 21.5696 21.0351 21.6609 20.9851 21.7536C20.9351 21.8463 20.8874 21.9401 20.8421 22.0351C20.7968 22.1301 20.7538 22.2261 20.7132 22.3231C20.6726 22.4202 20.6345 22.5182 20.5987 22.6172C20.563 22.7161 20.5298 22.8158 20.499 22.9163C20.4682 23.0169 20.4399 23.1181 20.4141 23.2201C20.3884 23.322 20.3652 23.4245 20.3445 23.5275C20.3238 23.6305 20.3057 23.734 20.2901 23.838C20.2745 23.9419 20.2616 24.0462 20.2512 24.1507C20.2408 24.2553 20.233 24.36 20.2278 24.465C20.2226 24.5699 20.22 24.6749 20.22 24.78Z"></path><path id="路径 11" fill-rule="evenodd" fill="url(#linear_7)" opacity="1" d="M20.22 24.78C20.22 24.8851 20.2226 24.9901 20.2278 25.095C20.233 25.2 20.2408 25.3047 20.2512 25.4093C20.2616 25.5138 20.2745 25.6181 20.2901 25.722C20.3056 25.8259 20.3238 25.9294 20.3445 26.0324C20.3652 26.1355 20.3884 26.238 20.4141 26.3399C20.4399 26.4418 20.4682 26.5431 20.499 26.6436C20.5298 26.7442 20.563 26.8439 20.5987 26.9428C20.6345 27.0418 20.6726 27.1397 20.7132 27.2368C20.7538 27.3339 20.7968 27.4299 20.8421 27.5249C20.8874 27.6199 20.9351 27.7137 20.9851 27.8064C21.0351 27.899 21.0874 27.9904 21.1419 28.0805C21.1964 28.1706 21.2531 28.2594 21.312 28.3468C21.371 28.4341 21.432 28.52 21.4952 28.6044C21.5583 28.6888 21.6236 28.7716 21.6908 28.8528C21.7581 28.934 21.8274 29.0135 21.8986 29.0914C21.9698 29.1693 22.0429 29.2453 22.1179 29.3196C22.1929 29.3939 22.2697 29.4663 22.3483 29.5369C22.4268 29.6075 22.5071 29.676 22.5891 29.7427C22.6711 29.8094 22.7546 29.874 22.8398 29.9366C22.925 29.9992 23.0117 30.0596 23.0999 30.118C23.188 30.1764 23.2776 30.2326 23.3686 30.2866C23.4595 30.3406 23.5518 30.3924 23.6453 30.4419C23.7388 30.4915 23.8335 30.5387 23.9294 30.5836C24.0253 30.6285 24.1222 30.6711 24.2202 30.7113C24.3181 30.7515 24.4171 30.7893 24.5169 30.8247C24.6168 30.8601 24.7174 30.893 24.8189 30.9235C24.9204 30.954 25.0226 30.9821 25.1255 31.0076C25.2283 31.0331 25.3318 31.0561 25.4358 31.0766C25.5398 31.0971 25.6442 31.1151 25.7491 31.1305C25.854 31.1459 25.9593 31.1588 26.0648 31.1691C26.1703 31.1794 26.2761 31.1871 26.382 31.1923C26.4879 31.1974 26.5939 31.2 26.7 31.2C26.806 31.2 26.912 31.1974 27.0179 31.1923C27.1238 31.1871 27.2296 31.1794 27.3351 31.1691C27.4406 31.1588 27.5459 31.1459 27.6508 31.1305C27.7557 31.1151 27.8601 31.0971 27.9642 31.0766C28.0682 31.0561 28.1716 31.0331 28.2745 31.0076C28.3773 30.9821 28.4795 30.954 28.581 30.9235C28.6825 30.893 28.7832 30.8601 28.883 30.8247C28.9828 30.7893 29.0818 30.7515 29.1798 30.7113C29.2777 30.6711 29.3747 30.6285 29.4705 30.5836C29.5664 30.5387 29.6611 30.4915 29.7546 30.4419C29.8481 30.3924 29.9404 30.3406 30.0313 30.2866C30.1223 30.2326 30.2119 30.1764 30.3 30.118C30.3882 30.0596 30.4749 29.9992 30.5601 29.9366C30.6453 29.874 30.7288 29.8094 30.8108 29.7427C30.8928 29.676 30.9731 29.6075 31.0516 29.5369C31.1302 29.4663 31.207 29.3939 31.282 29.3196C31.357 29.2453 31.4301 29.1693 31.5013 29.0914C31.5725 29.0135 31.6418 28.934 31.7091 28.8528C31.7763 28.7716 31.8416 28.6888 31.9047 28.6044C31.9679 28.52 32.029 28.4341 32.0879 28.3468C32.1468 28.2594 32.2035 28.1706 32.258 28.0805C32.3126 27.9904 32.3648 27.899 32.4148 27.8064C32.4648 27.7137 32.5125 27.6199 32.5578 27.5249C32.6031 27.4299 32.6461 27.3339 32.6867 27.2368C32.7273 27.1397 32.7654 27.0418 32.8012 26.9428C32.8369 26.8439 32.8701 26.7442 32.9009 26.6436C32.9317 26.5431 32.96 26.4418 32.9858 26.3399C33.0115 26.238 33.0347 26.1355 33.0555 26.0324C33.0762 25.9294 33.0943 25.8259 33.1098 25.722C33.1254 25.6181 33.1384 25.5138 33.1488 25.4093C33.1592 25.3047 33.167 25.2 33.1722 25.095C33.1774 24.9901 33.18 24.8851 33.18 24.78C33.18 24.6749 33.1774 24.5699 33.1722 24.465C33.167 24.36 33.1592 24.2553 33.1488 24.1507C33.1384 24.0462 33.1254 23.9419 33.1098 23.838C33.0943 23.734 33.0762 23.6305 33.0555 23.5275C33.0347 23.4245 33.0115 23.322 32.9858 23.2201C32.96 23.1181 32.9317 23.0169 32.9009 22.9163C32.8701 22.8158 32.8369 22.7161 32.8012 22.6172C32.7654 22.5182 32.7273 22.4202 32.6867 22.3231C32.6461 22.2261 32.6031 22.1301 32.5578 22.0351C32.5125 21.9401 32.4648 21.8463 32.4148 21.7536C32.3648 21.6609 32.3126 21.5696 32.258 21.4794C32.2035 21.3893 32.1468 21.3006 32.0879 21.2132C32.029 21.1259 31.9679 21.04 31.9047 20.9556C31.8416 20.8712 31.7763 20.7884 31.7091 20.7072C31.6418 20.626 31.5725 20.5464 31.5013 20.4686C31.4301 20.3907 31.357 20.3147 31.282 20.2404C31.207 20.1661 31.1302 20.0936 31.0516 20.0231C30.9731 19.9525 30.8928 19.8839 30.8108 19.8172C30.7288 19.7506 30.6453 19.686 30.5601 19.6234C30.4749 19.5608 30.3882 19.5003 30.3 19.442C30.2119 19.3836 30.1223 19.3274 30.0313 19.2734C29.9404 19.2194 29.8481 19.1676 29.7546 19.1181C29.6611 19.0685 29.5664 19.0213 29.4705 18.9764C29.3747 18.9314 29.2777 18.8889 29.1798 18.8487C29.0818 18.8085 28.9828 18.7707 28.883 18.7353C28.7832 18.6999 28.6825 18.6669 28.581 18.6364C28.4795 18.6059 28.3773 18.5779 28.2745 18.5524C28.1716 18.5268 28.0682 18.5038 27.9642 18.4833C27.8601 18.4628 27.7557 18.4449 27.6508 18.4295C27.5459 18.4141 27.4406 18.4012 27.3351 18.3909C27.2296 18.3806 27.1238 18.3729 27.0179 18.3677C26.912 18.3626 26.806 18.36 26.7 18.36C26.5939 18.36 26.4879 18.3626 26.382 18.3677C26.2761 18.3729 26.1703 18.3806 26.0648 18.3909C25.9593 18.4012 25.854 18.4141 25.7491 18.4295C25.6442 18.4449 25.5398 18.4628 25.4358 18.4833C25.3318 18.5038 25.2283 18.5268 25.1254 18.5524C25.0226 18.5779 24.9204 18.6059 24.8189 18.6364C24.7174 18.6669 24.6168 18.6999 24.5169 18.7353C24.4171 18.7707 24.3181 18.8085 24.2202 18.8487C24.1222 18.8889 24.0253 18.9314 23.9294 18.9764C23.8335 19.0213 23.7388 19.0685 23.6453 19.1181C23.5518 19.1676 23.4595 19.2194 23.3686 19.2734C23.2776 19.3274 23.188 19.3836 23.0999 19.442C23.0117 19.5003 22.925 19.5608 22.8398 19.6234C22.7546 19.686 22.6711 19.7506 22.5891 19.8172C22.5071 19.8839 22.4268 19.9525 22.3483 20.0231C22.2697 20.0936 22.1929 20.1661 22.1179 20.2404C22.0429 20.3147 21.9698 20.3907 21.8986 20.4686C21.8274 20.5464 21.7581 20.626 21.6908 20.7072C21.6236 20.7884 21.5583 20.8712 21.4952 20.9556C21.432 21.04 21.371 21.1259 21.312 21.2132C21.2531 21.3006 21.1964 21.3893 21.1419 21.4794C21.0874 21.5696 21.0351 21.6609 20.9851 21.7536C20.9351 21.8463 20.8874 21.9401 20.8421 22.0351C20.7968 22.1301 20.7538 22.2261 20.7132 22.3231C20.6726 22.4202 20.6345 22.5182 20.5987 22.6172C20.563 22.7161 20.5298 22.8158 20.499 22.9163C20.4682 23.0169 20.4399 23.1181 20.4141 23.2201C20.3884 23.322 20.3652 23.4245 20.3445 23.5275C20.3238 23.6305 20.3057 23.734 20.2901 23.838C20.2745 23.9419 20.2616 24.0462 20.2512 24.1507C20.2408 24.2553 20.233 24.36 20.2278 24.465C20.2226 24.5699 20.22 24.6749 20.22 24.78Z"></path><path id="路径 12" fill-rule="evenodd" fill="url(#linear_8)" opacity="1" d="M24.3 26.52L26.4 26.52L26.4 25.5L24.3 25.5C23.7 25.5 23.4601 25.14 23.4601 24.78C23.4601 24.42 23.76 24.18 24.3 24.18L25.8001 24.18C25.8001 24.18 24.66 22.62 24.3 22.02C23.94 21.24 25.5 20.94 25.92 21.6C26.3401 22.32 27.24 23.7 27.24 23.7C27.24 23.7 27.96 22.14 28.44 21.36C28.86 20.64 30.42 21.48 29.94 22.26C29.52 22.92 28.68 24.18 28.68 24.18L30.18 24.18C30.78 24.18 30.96 24.36 30.96 24.78C30.96 25.2 30.78 25.5 30.18 25.5L28.08 25.5L28.08 26.52L30.18 26.52C30.78 26.52 31.02 26.7 31.02 27.12C31.02 27.48 30.72 27.78 30.18 27.78L28.08 27.78L28.08 27.9C28.08 28.74 27.78 29.16 27.24 29.16L26.64 29.16C26.3401 29.16 26.4 28.44 26.4 27.9L26.4 27.78L24.3 27.78C23.7 27.78 23.4601 27.48 23.4601 27.12C23.4 26.7 23.7 26.52 24.3 26.52Z"></path><path id="路径 13" fill-rule="evenodd" style="fill:#FFFFFF" opacity="1" d="M23.76 25.92L25.86 25.92L25.86 24.9L23.76 24.9C23.16 24.9 22.92 24.54 22.92 24.18C22.92 23.82 23.22 23.58 23.76 23.58L25.26 23.58L24.12 21.72C23.76 20.94 24.96 20.34 25.38 20.94C25.8 21.66 26.7 23.04 26.7 23.04C26.7 23.04 27.66 21.54 28.14 20.76C28.56 20.04 29.82 20.88 29.4 21.66C28.98 22.32 28.14 23.58 28.14 23.58L29.64 23.58C30.24 23.58 30.48 23.76 30.48 24.18C30.48 24.6 30.18 24.9 29.64 24.9L27.54 24.9L27.54 25.92L29.64 25.92C30.24 25.92 30.48 26.1 30.48 26.52C30.48 26.88 30.18 27.18 29.64 27.18L27.54 27.18L27.54 27.3C27.54 28.14 27.24 28.56 26.7 28.56C26.16 28.56 25.86 28.14 25.86 27.3L25.86 27.18L23.76 27.18C23.16 27.18 22.92 26.88 22.92 26.52C22.86 26.1 23.16 25.92 23.76 25.92Z"></path></g></g><defs><rect id="path_0" x="0" y="0" width="36" height="36" rx="0" ry="0"/><linearGradient id="linear_0" x1="29.118975615823377%" y1="5.169204491319128%" x2="83.92306268066953%" y2="62.989477019684955%" gradientUnits="objectBoundingBox"><stop offset="0" stop-color="#E8F8FA" stop-opacity="0.9" /><stop offset="1" stop-color="#BADEF7" stop-opacity="1" /></linearGradient><linearGradient id="linear_1" x1="29.11899706499738%" y1="5.169204491319128%" x2="83.92302783459778%" y2="62.989477019684955%" gradientUnits="objectBoundingBox"><stop offset="0" stop-color="#E8F8FA" stop-opacity="0.9" /><stop offset="1" stop-color="#BADEF7" stop-opacity="1" /></linearGradient><linearGradient id="linear_2" x1="80.91945695811759%" y1="13.935026372865188%" x2="20.632706194639567%" y2="92.94617590615914%" gradientUnits="objectBoundingBox"><stop offset="0" stop-color="#57DDFF" stop-opacity="1" /><stop offset="1" stop-color="#1692F7" stop-opacity="1" /></linearGradient><linearGradient id="linear_3" x1="39.92800319587529%" y1="17.244%" x2="88.17898788569074%" y2="85.071%" gradientUnits="objectBoundingBox"><stop offset="0" stop-color="#D7F2FA" stop-opacity="0.18" /><stop offset="1" stop-color="#BFCDD9" stop-opacity="0.2" /></linearGradient><linearGradient id="linear_4" x1="29.11904410057963%" y1="5.169204491319128%" x2="83.92295142115293%" y2="62.989477019684955%" gradientUnits="objectBoundingBox"><stop offset="0" stop-color="#E8F8FA" stop-opacity="0.9" /><stop offset="1" stop-color="#BADEF7" stop-opacity="1" /></linearGradient><linearGradient id="linear_5" x1="39.92803035783179%" y1="17.244%" x2="88.17888492537135%" y2="85.071%" gradientUnits="objectBoundingBox"><stop offset="0" stop-color="#FAD7EA" stop-opacity="0.18" /><stop offset="1" stop-color="#D9BFCA" stop-opacity="0.2" /></linearGradient><linearGradient id="linear_6" x1="35.651059432468756%" y1="38.03640723644769%" x2="99.99991177134724%" y2="100.00013980735723%" gradientUnits="objectBoundingBox"><stop offset="0" stop-color="#FAEDF2" stop-opacity="0.96" /><stop offset="1" stop-color="#FCCFDD" stop-opacity="1" /></linearGradient><linearGradient id="linear_7" x1="80.92095688157582%" y1="13.935019482155228%" x2="20.63310658269107%" y2="92.94612994534626%" gradientUnits="objectBoundingBox"><stop offset="0" stop-color="#FF57A5" stop-opacity="1" /><stop offset="1" stop-color="#FC2828" stop-opacity="1" /></linearGradient><linearGradient id="linear_8" x1="39.92793790192511%" y1="17.244%" x2="88.17923538943617%" y2="85.071%" gradientUnits="objectBoundingBox"><stop offset="0" stop-color="#FAD7EA" stop-opacity="0.18" /><stop offset="1" stop-color="#D9BFCA" stop-opacity="0.2" /></linearGradient></defs></svg>