<svg xmlns="http://www.w3.org/2000/svg" xmlns:xlink="http://www.w3.org/1999/xlink" width="68" height="68" viewBox="0 0 68 68" fill="none"><g opacity="1"  transform="translate(0 0)"><mask id="mask-0" fill="white"><path d="M0 68L68 68L68 0L0 0L0 68Z"  ></path></mask><path d="M0 68L68 68L68 0L0 0L0 68Z"  ></path><g mask="url(#mask-0)"><path id="shadow" fill-rule="evenodd" style="fill:#A0D1F2" d="M33.966 63.4383L33.966 63.4383C47.1059 63.4383 57.7659 52.7783 57.7659 39.6383L57.7659 39.6383C57.7659 26.4984 47.1059 15.8384 33.966 15.8384L33.966 15.8384C20.826 15.8384 10.166 26.4984 10.166 39.6383L10.166 39.6383C10.166 52.7783 20.826 63.4383 33.966 63.4383Z"></path></g><g mask="url(#mask-0)"><path id="BG" fill-rule="evenodd" fill="url(#linear_0)" d="M26.5199 51.2266ZM50.3199 27.4267ZM2.71997 27.4267ZM26.5199 3.62671ZM26.5199 3.62671C13.3799 3.62671 2.71997 14.2867 2.71997 27.4267C2.71997 40.5666 13.3799 51.2266 26.5199 51.2266C39.6599 51.2266 50.3199 40.5666 50.3199 27.4267C50.3199 14.2867 39.6599 3.62671 26.5199 3.62671Z"></path></g><g mask="url(#mask-0)"><path id="glass" fill-rule="evenodd" fill="url(#linear_1)" d="M40.8 56.6666L40.8 56.6666C53.9399 56.6666 64.5999 46.0066 64.5999 32.8666L64.5999 32.8666C64.5999 19.7266 53.9399 9.06665 40.8 9.06665L40.8 9.06665C27.66 9.06665 17 19.7266 17 32.8666L17 32.8666C17 46.0066 27.66 56.6666 40.8 56.6666Z"></path></g><g mask="url(#mask-0)"><path id="路径 1" fill-rule="evenodd" fill="url(#linear_2)" d="M40.8 19.2667C33.2896 19.2667 27.2 25.3561 27.2 32.8667C27.2 40.3772 33.2894 46.4667 40.8 46.4667C48.3105 46.4667 54.4 40.3772 54.4 32.8667C54.4 25.3563 48.3105 19.2667 40.8 19.2667ZM41.9401 40.4079L41.9401 42.9533L39.4887 42.9533L39.4887 40.6119C37.8336 40.5338 36.2254 40.0652 35.2886 39.5499L36.0218 36.6611C37.0524 37.2233 38.5207 37.7536 40.129 37.7536C41.5654 37.7536 42.5181 37.1915 42.5181 36.2236C42.5181 35.2868 41.721 34.6937 39.8786 34.0691C37.2398 33.1791 35.4291 31.946 35.4291 29.5415C35.4291 27.3399 36.9586 25.6381 39.5975 25.1385L39.5975 22.7959L42.0183 22.7959L42.0183 24.9662C43.6422 25.013 44.7658 25.3874 45.6245 25.7777L44.8913 28.5725C44.2667 28.2758 43.1114 27.6987 41.3315 27.6987C39.7233 27.6987 39.2076 28.417 39.2076 29.104C39.2076 29.9003 40.066 30.4466 42.2053 31.1961C45.1407 32.2423 46.3125 33.6012 46.3125 35.8496C46.3125 38.0512 44.7818 39.9407 41.9401 40.409L41.9401 40.4079Z"></path></g></g><defs><filter id="filter_3" x="-6.8" y="-6.8" width="61.20009765625" height="61.20009765625" filterUnits="userSpaceOnUse" color-interpolation-filters="sRGB"><feFlood flood-opacity="0" result="BackgroundImageFix"/>
          <feBlend mode="normal" in="SourceGraphic" in2="BackgroundImageFix" result="shape"/>
          <feGaussianBlur stdDeviation="3.4" result="effect1_foregroundBlur" /></filter><linearGradient id="linear_0" x1="41.237749831669106" y1="10.259796103143724" x2="12.541120990299017" y2="47.869180554895976" gradientUnits="userSpaceOnUse"><stop offset="0" stop-color="#57DDFF" stop-opacity="1" /><stop offset="1" stop-color="#1692F7" stop-opacity="1" /></linearGradient><filter id="filter_4" x="0" y="0" width="60.51990000000001" height="62.55993333333333" filterUnits="userSpaceOnUse" color-interpolation-filters="sRGB"><feFlood flood-opacity="0" result="feFloodId"/>
        <feColorMatrix in="SourceAlpha" type="matrix" values="0 0 0 0 0 0 0 0 0 0 0 0 0 0 0 0 0 0 127 0" result="hardAlpha"/>
        
        <feOffset dx="1.1333333333333333" dy="2.2666666666666666"/>
        <feGaussianBlur stdDeviation="2.2666666666666666"/>
         <feComposite in2="hardAlpha" operator="out"/>
        <feColorMatrix type="matrix" values="0 0 0 0 0.5372549019607843 0 0 0 0 0.7647058823529411 0 0 0 0 0.9607843137254902 0 0 0 0.69 0"/>
        <feBlend mode="normal" in2="BackgroundImageFix" result="dropShadow_1"/>
        
        <feColorMatrix in="SourceAlpha" type="matrix" values="0 0 0 0 0 0 0 0 0 0 0 0 0 0 0 0 0 0 127 0" result="hardAlpha"/>
        
        <feOffset dx="0.22666666666666666" dy="0.22666666666666666"/>
        <feGaussianBlur stdDeviation="0.11333333333333333"/>
         <feComposite in2="hardAlpha" operator="out"/>
        <feColorMatrix type="matrix" values="0 0 0 0 0 0 0 0 0 0 0 0 0 0 0 0 0 0 0.25 0"/>
        <feBlend mode="normal" in2="dropShadow_1" result="dropShadow_2"/>
        <feBlend mode="normal" in="SourceGraphic" in2="dropShadow_3" result="shape"/>
          <feBlend mode="normal" in="SourceGraphic" in2="BackgroundImageFix" result="shape"/> 
          <feColorMatrix in="SourceAlpha" type="matrix" values="0 0 0 0 0 0 0 0 0 0 0 0 0 0 0 0 0 0 127 0" result="hardAlpha"/>
          
          <feOffset dx="0.22666666666666666" dy="0.22666666666666666"/>
          <feGaussianBlur stdDeviation="0.11333333333333333"/>
          <feComposite in2="hardAlpha" operator="arithmetic" k2="-1" k3="1"/>
          <feColorMatrix type="matrix" values="0 0 0 0 1 0 0 0 0 1 0 0 0 0 1 0 0 0 1 0"/>
          <feBlend mode="normal" in2="shape" result="innerShadow_0" />
          </filter><linearGradient id="linear_1" x1="39.927958176514025%" y1="17.244%" x2="88.17915853642484%" y2="85.071%" gradientUnits="objectBoundingBox"><stop offset="0" stop-color="#D7F2FA" stop-opacity="0.18" /><stop offset="1" stop-color="#BFCDD9" stop-opacity="0.2" /></linearGradient><filter id="filter_5" x="0" y="0" width="78.1999" height="61.199933333333334" filterUnits="userSpaceOnUse" color-interpolation-filters="sRGB"><feFlood flood-opacity="0" result="feFloodId"/>
        <feColorMatrix in="SourceAlpha" type="matrix" values="0 0 0 0 0 0 0 0 0 0 0 0 0 0 0 0 0 0 127 0" result="hardAlpha"/>
        
        <feOffset dx="0.22666666666666666" dy="0.33999999999999997"/>
        
         <feComposite in2="hardAlpha" operator="out"/>
        <feColorMatrix type="matrix" values="0 0 0 0 0.4666666666666667 0 0 0 0 0.6980392156862745 0 0 0 0 0.8313725490196079 0 0 0 0.49 0"/>
        <feBlend mode="normal" in2="BackgroundImageFix" result="dropShadow_1"/>
        
        <feColorMatrix in="SourceAlpha" type="matrix" values="0 0 0 0 0 0 0 0 0 0 0 0 0 0 0 0 0 0 127 0" result="hardAlpha"/>
        <feMorphology radius="-4.533333333333333" operator="dilate" in="SourceAlpha"/>
        <feOffset dx="-9.066666666666666" dy="0"/>
        <feGaussianBlur stdDeviation="3.4"/>
         <feComposite in2="hardAlpha" operator="out"/>
        <feColorMatrix type="matrix" values="0 0 0 0 0.10196078431372549 0 0 0 0 0.788235294117647 0 0 0 0 1 0 0 0 0.87 0"/>
        <feBlend mode="normal" in2="dropShadow_1" result="dropShadow_2"/>
        <feBlend mode="normal" in="SourceGraphic" in2="dropShadow_3" result="shape"/>
          <feBlend mode="normal" in="SourceGraphic" in2="BackgroundImageFix" result="shape"/> 
          <feColorMatrix in="SourceAlpha" type="matrix" values="0 0 0 0 0 0 0 0 0 0 0 0 0 0 0 0 0 0 127 0" result="hardAlpha"/>
          
          <feOffset dx="0.11333333333333333" dy="0.22666666666666666"/>
          <feGaussianBlur stdDeviation="0.11333333333333333"/>
          <feComposite in2="hardAlpha" operator="arithmetic" k2="-1" k3="1"/>
          <feColorMatrix type="matrix" values="0 0 0 0 0.9294117647058824 0 0 0 0 0.8941176470588236 0 0 0 0 0.8941176470588236 0 0 0 0.59 0"/>
          <feBlend mode="normal" in2="shape" result="innerShadow_0" />
          </filter><filter id="filter_6" x="-6.8" y="-6.8" width="61.20009765625" height="61.20009765625" filterUnits="userSpaceOnUse" color-interpolation-filters="sRGB"><feFlood flood-opacity="0" result="BackgroundImageFix"/>
          <feGaussianBlur in="BackgroundImage" stdDeviation="3.4"/>
          <feComposite in2="SourceAlpha" operator="in" result="effect1_backgroundBlur"/>
          <feBlend mode="normal" in="SourceGraphic" in2="effect1_backgroundBlur" result="shape"/></filter><linearGradient id="linear_2" x1="29.119041877495476%" y1="5.169204491319128%" x2="83.92295503274887%" y2="62.989477019684955%" gradientUnits="objectBoundingBox"><stop offset="0" stop-color="#E8F8FA" stop-opacity="0.9" /><stop offset="1" stop-color="#BADEF7" stop-opacity="1" /></linearGradient><filter id="filter_7" x="0" y="0" width="64.6" height="57.80003333333333" filterUnits="userSpaceOnUse" color-interpolation-filters="sRGB"><feFlood flood-opacity="0" result="feFloodId"/>
        <feColorMatrix in="SourceAlpha" type="matrix" values="0 0 0 0 0 0 0 0 0 0 0 0 0 0 0 0 0 0 127 0" result="hardAlpha"/>
        
        <feOffset dx="1.1333333333333333" dy="2.2666666666666666"/>
        <feGaussianBlur stdDeviation="2.2666666666666666"/>
         <feComposite in2="hardAlpha" operator="out"/>
        <feColorMatrix type="matrix" values="0 0 0 0 0.5372549019607843 0 0 0 0 0.7647058823529411 0 0 0 0 0.9607843137254902 0 0 0 0.69 0"/>
        <feBlend mode="normal" in2="BackgroundImageFix" result="dropShadow_1"/>
        
        <feColorMatrix in="SourceAlpha" type="matrix" values="0 0 0 0 0 0 0 0 0 0 0 0 0 0 0 0 0 0 127 0" result="hardAlpha"/>
        
        <feOffset dx="0.22666666666666666" dy="0.22666666666666666"/>
        <feGaussianBlur stdDeviation="0.11333333333333333"/>
         <feComposite in2="hardAlpha" operator="out"/>
        <feColorMatrix type="matrix" values="0 0 0 0 0 0 0 0 0 0 0 0 0 0 0 0 0 0 0.25 0"/>
        <feBlend mode="normal" in2="dropShadow_1" result="dropShadow_2"/>
        <feBlend mode="normal" in="SourceGraphic" in2="dropShadow_3" result="shape"/>
          <feBlend mode="normal" in="SourceGraphic" in2="BackgroundImageFix" result="shape"/> 
          <feColorMatrix in="SourceAlpha" type="matrix" values="0 0 0 0 0 0 0 0 0 0 0 0 0 0 0 0 0 0 127 0" result="hardAlpha"/>
          
          <feOffset dx="0.22666666666666666" dy="0.22666666666666666"/>
          <feGaussianBlur stdDeviation="0.11333333333333333"/>
          <feComposite in2="hardAlpha" operator="arithmetic" k2="-1" k3="1"/>
          <feColorMatrix type="matrix" values="0 0 0 0 1 0 0 0 0 1 0 0 0 0 1 0 0 0 1 0"/>
          <feBlend mode="normal" in2="shape" result="innerShadow_0" />
          </filter></defs></svg>