<svg xmlns="http://www.w3.org/2000/svg" xmlns:xlink="http://www.w3.org/1999/xlink" width="36" height="36" viewBox="0 0 36 36" fill="none"><g opacity="1"  transform="translate(0 0)"><mask id="bg-mask-0" fill="white"><use transform="translate(0 0)" xlink:href="#path_0"></use></mask><g mask="url(#bg-mask-0)" ><path id="路径 1" fill-rule="evenodd" fill="url(#linear_0)" opacity="1" d="M5.28003 25.5L30.72 25.5L33.96 29.94C35.1601 31.62 34.5 33 32.4 33L3.30001 33C1.26 33 0.600006 31.68 1.80001 30L5.28003 25.5Z"></path><path id="路径 2" fill-rule="evenodd" fill="url(#linear_1)" opacity="1" d="M8.21994 4.02002L24.48 4.02002C26.5799 4.02002 28.26 5.7 28.26 7.80002L28.26 25.98C28.26 28.08 26.5799 29.76 24.48 29.76L8.21994 29.76C6.11995 29.76 4.43994 28.08 4.43994 25.98L4.43994 7.80002C4.43994 5.7 6.11995 4.02002 8.21994 4.02002Z"></path><path id="路径 3" fill-rule="evenodd" fill="url(#linear_2)" opacity="1" d="M7.13999 4L23.4 4C25.5 4 27.18 5.67998 27.18 7.78L27.18 25.96C27.18 28.06 25.5 29.74 23.4 29.74L7.13999 29.74C5.03999 29.74 3.35999 28.06 3.35999 25.96L3.35999 7.78C3.35999 5.67998 5.03999 4 7.13999 4Z"></path><path id="拼合图形" fill-rule="evenodd" fill="url(#linear_3)" opacity="1" d="M20.7187 15.7022L15.9887 20.7322C15.6316 21.0893 14.9702 21.1733 14.5587 20.7822L11.1287 17.5222C10.7373 17.1502 10.6767 16.5136 11.0487 16.1222C11.4207 15.7308 12.0139 15.7188 12.4487 16.1322L15.1587 18.7022L19.2887 14.3522C19.6608 13.9608 20.3373 13.8602 20.7287 14.2322C21.0788 14.6477 21.0907 15.3108 20.7187 15.7022Z"></path><path id="拼合图形" fill-rule="evenodd" style="fill:#FFFFFF" opacity="1" d="M20.3318 15.1299L15.6018 20.1599C15.2447 20.5171 14.5833 20.601 14.1718 20.2099L10.7418 16.9499C10.3504 16.5779 10.2898 15.9413 10.6618 15.5499C11.0338 15.1585 11.627 15.1466 12.0618 15.5599L14.7718 18.1299L18.9018 13.7799C19.2738 13.3885 19.9504 13.2879 20.3418 13.6599C20.6919 14.0754 20.7038 14.7385 20.3318 15.1299Z"></path><path id="路径 8" fill-rule="evenodd" style="fill:#000000" opacity="0.2" d="M11.88 7.20003C10.74 7.20003 9.83997 6.48001 9.83997 5.64002L9.83997 5.58002C9.83997 4.74003 10.74 4.02002 11.88 4.02002L22.7 4.02002C22.7 5.58011 22.28 6.14002 21.8 6.50002C21.32 6.86002 20.7 7.20003 20.16 7.20003L11.88 7.20003Z"></path><path id="路径 9" fill-rule="evenodd" fill="url(#linear_4)" opacity="1" d="M19.5 6.3599L11.34 6.3599C10.26 6.3599 9.36001 5.45991 9.36001 4.37991C9.3 3.2999 10.2 2.3999 11.34 2.3999L19.5 2.3999C20.58 2.3999 21.48 3.2999 21.48 4.37991L21.48 4.43989C21.48 4.97989 21.24 5.45991 20.88 5.81991C20.52 6.1799 20.04 6.3599 19.5 6.3599Z"></path><path id="路径 10" fill-rule="evenodd" fill="url(#linear_5)" opacity="1" d="M21.3 24.7799C21.3 24.8849 21.3027 24.9899 21.3079 25.0949C21.3131 25.1998 21.3209 25.3046 21.3312 25.4091C21.3416 25.5137 21.3546 25.6179 21.3702 25.7219C21.3857 25.8258 21.4039 25.9293 21.4245 26.0323C21.4452 26.1354 21.4685 26.2379 21.4942 26.3398C21.52 26.4417 21.5483 26.5429 21.579 26.6435C21.6098 26.744 21.6431 26.8438 21.6788 26.9427C21.7146 27.0416 21.7527 27.1396 21.7933 27.2367C21.8339 27.3337 21.8768 27.4298 21.9222 27.5248C21.9675 27.6197 22.0152 27.7136 22.0652 27.8062C22.1152 27.8989 22.1674 27.9903 22.222 28.0804C22.2765 28.1705 22.3332 28.2593 22.3921 28.3466C22.451 28.434 22.5121 28.5198 22.5752 28.6043C22.6384 28.6887 22.7037 28.7715 22.7709 28.8527C22.8382 28.9339 22.9075 29.0134 22.9787 29.0913C23.0499 29.1691 23.123 29.2452 23.198 29.3195C23.273 29.3938 23.3498 29.4662 23.4283 29.5368C23.5069 29.6073 23.5872 29.6759 23.6692 29.7426C23.7511 29.8092 23.8347 29.8739 23.9199 29.9365C24.0051 29.999 24.0918 30.0595 24.1799 30.1179C24.2681 30.1763 24.3577 30.2324 24.4486 30.2865C24.5396 30.3405 24.6319 30.3923 24.7254 30.4418C24.8189 30.4913 24.9136 30.5386 25.0095 30.5835C25.1054 30.6284 25.2023 30.6709 25.3002 30.7112C25.3982 30.7514 25.4971 30.7892 25.597 30.8246C25.6968 30.86 25.7975 30.8929 25.899 30.9234C26.0005 30.9539 26.1026 30.9819 26.2055 31.0075C26.3084 31.033 26.4118 31.056 26.5159 31.0765C26.6199 31.097 26.7243 31.1149 26.8292 31.1304C26.9341 31.1458 27.0393 31.1586 27.1449 31.1689C27.2504 31.1792 27.3561 31.187 27.4621 31.1921C27.568 31.1973 27.674 31.1999 27.78 31.1999C27.8861 31.1999 27.9921 31.1973 28.098 31.1921C28.2039 31.187 28.3096 31.1792 28.4152 31.1689C28.5207 31.1586 28.6259 31.1458 28.7309 31.1304C28.8358 31.1149 28.9402 31.097 29.0442 31.0765C29.1482 31.056 29.2517 31.033 29.3546 31.0075C29.4574 30.9819 29.5596 30.9539 29.6611 30.9234C29.7626 30.8929 29.8632 30.86 29.9631 30.8246C30.0629 30.7892 30.1618 30.7514 30.2598 30.7112C30.3578 30.6709 30.4547 30.6284 30.5506 30.5835C30.6465 30.5386 30.7412 30.4913 30.8347 30.4418C30.9282 30.3923 31.0205 30.3405 31.1114 30.2865C31.2024 30.2324 31.2919 30.1763 31.3801 30.1179C31.4683 30.0595 31.555 29.999 31.6402 29.9365C31.7254 29.8739 31.8089 29.8092 31.8909 29.7426C31.9729 29.6759 32.0532 29.6073 32.1317 29.5368C32.2103 29.4662 32.2871 29.3938 32.3621 29.3195C32.4371 29.2452 32.5102 29.1691 32.5814 29.0913C32.6526 29.0134 32.7219 28.9339 32.7891 28.8527C32.8564 28.7715 32.9217 28.6887 32.9848 28.6043C33.048 28.5198 33.109 28.434 33.168 28.3466C33.2269 28.2593 33.2836 28.1705 33.3381 28.0804C33.3926 27.9903 33.4449 27.8989 33.4949 27.8062C33.5449 27.7136 33.5925 27.6197 33.6379 27.5247C33.6832 27.4298 33.7262 27.3337 33.7668 27.2367C33.8074 27.1396 33.8455 27.0416 33.8812 26.9427C33.917 26.8438 33.9502 26.744 33.981 26.6435C34.0118 26.5429 34.0401 26.4417 34.0658 26.3398C34.0916 26.2379 34.1148 26.1354 34.1355 26.0323C34.1562 25.9293 34.1743 25.8258 34.1899 25.7219C34.2055 25.6179 34.2185 25.5137 34.2288 25.4091C34.2392 25.3046 34.247 25.1998 34.2522 25.0949C34.2574 24.9899 34.26 24.8849 34.26 24.7799C34.26 24.6748 34.2574 24.5698 34.2522 24.4649C34.247 24.3599 34.2392 24.2551 34.2288 24.1506C34.2185 24.046 34.2055 23.9418 34.1899 23.8378C34.1743 23.7339 34.1562 23.6304 34.1355 23.5274C34.1148 23.4243 34.0916 23.3219 34.0658 23.2199C34.0401 23.118 34.0118 23.0168 33.981 22.9162C33.9502 22.8157 33.917 22.716 33.8812 22.617C33.8455 22.5181 33.8074 22.4201 33.7668 22.323C33.7262 22.226 33.6832 22.1299 33.6379 22.035C33.5925 21.94 33.5449 21.8462 33.4949 21.7535C33.4449 21.6608 33.3926 21.5694 33.3381 21.4793C33.2836 21.3892 33.2269 21.3005 33.168 21.2131C33.109 21.1257 33.048 21.0399 32.9848 20.9555C32.9217 20.8711 32.8564 20.7883 32.7891 20.7071C32.7219 20.6258 32.6526 20.5463 32.5814 20.4685C32.5102 20.3906 32.4371 20.3145 32.3621 20.2402C32.2871 20.1659 32.2103 20.0935 32.1317 20.023C32.0532 19.9524 31.9729 19.8838 31.8909 19.8171C31.8089 19.7505 31.7254 19.6859 31.6402 19.6233C31.555 19.5607 31.4683 19.5002 31.3801 19.4418C31.2919 19.3835 31.2024 19.3273 31.1114 19.2733C31.0205 19.2192 30.9282 19.1675 30.8347 19.1179C30.7412 19.0684 30.6464 19.0212 30.5506 18.9763C30.4547 18.9313 30.3578 18.8888 30.2598 18.8486C30.1618 18.8084 30.0629 18.7705 29.9631 18.7352C29.8632 18.6998 29.7626 18.6668 29.6611 18.6363C29.5596 18.6058 29.4574 18.5778 29.3546 18.5523C29.2517 18.5267 29.1482 18.5037 29.0442 18.4832C28.9402 18.4627 28.8358 18.4448 28.7309 18.4293C28.6259 18.4139 28.5207 18.4011 28.4152 18.3908C28.3096 18.3805 28.2039 18.3728 28.098 18.3676C27.9921 18.3624 27.8861 18.3599 27.78 18.3599C27.674 18.3599 27.568 18.3624 27.4621 18.3676C27.3561 18.3728 27.2504 18.3805 27.1449 18.3908C27.0393 18.4011 26.9341 18.4139 26.8292 18.4294C26.7243 18.4448 26.6199 18.4627 26.5159 18.4832C26.4118 18.5037 26.3084 18.5267 26.2055 18.5523C26.1026 18.5778 26.0005 18.6058 25.899 18.6363C25.7975 18.6668 25.6968 18.6998 25.597 18.7352C25.4971 18.7705 25.3982 18.8084 25.3002 18.8486C25.2023 18.8888 25.1054 18.9313 25.0095 18.9763C24.9136 19.0212 24.8189 19.0684 24.7254 19.1179C24.6319 19.1675 24.5396 19.2192 24.4486 19.2733C24.3577 19.3273 24.2681 19.3835 24.1799 19.4418C24.0918 19.5002 24.0051 19.5607 23.9199 19.6233C23.8347 19.6859 23.7511 19.7505 23.6692 19.8171C23.5872 19.8838 23.5069 19.9524 23.4283 20.023C23.3498 20.0935 23.273 20.1659 23.198 20.2402C23.123 20.3145 23.0499 20.3906 22.9787 20.4685C22.9075 20.5463 22.8382 20.6258 22.7709 20.7071C22.7037 20.7883 22.6384 20.8711 22.5752 20.9555C22.5121 21.0399 22.451 21.1257 22.3921 21.2131C22.3332 21.3005 22.2765 21.3892 22.222 21.4793C22.1674 21.5694 22.1152 21.6608 22.0652 21.7535C22.0152 21.8462 21.9675 21.94 21.9222 22.035C21.8768 22.1299 21.8339 22.226 21.7933 22.323C21.7527 22.4201 21.7146 22.5181 21.6788 22.617C21.6431 22.716 21.6098 22.8157 21.579 22.9162C21.5483 23.0168 21.52 23.118 21.4942 23.2199C21.4685 23.3219 21.4452 23.4243 21.4245 23.5274C21.4039 23.6304 21.3857 23.7339 21.3702 23.8378C21.3546 23.9418 21.3416 24.046 21.3312 24.1506C21.3209 24.2551 21.3131 24.3599 21.3079 24.4649C21.3027 24.5698 21.3 24.6748 21.3 24.7799Z"></path><path id="路径 11" fill-rule="evenodd" fill="url(#linear_6)" opacity="1" d="M20.22 24.7799C20.22 24.8849 20.2226 24.9899 20.2278 25.0949C20.233 25.1998 20.2408 25.3046 20.2512 25.4091C20.2616 25.5137 20.2745 25.6179 20.2901 25.7219C20.3056 25.8258 20.3238 25.9293 20.3445 26.0323C20.3652 26.1354 20.3884 26.2379 20.4141 26.3398C20.4399 26.4417 20.4682 26.5429 20.499 26.6435C20.5298 26.744 20.563 26.8438 20.5987 26.9427C20.6345 27.0416 20.6726 27.1396 20.7132 27.2367C20.7538 27.3337 20.7968 27.4298 20.8421 27.5248C20.8874 27.6197 20.9351 27.7136 20.9851 27.8062C21.0351 27.8989 21.0874 27.9903 21.1419 28.0804C21.1964 28.1705 21.2531 28.2593 21.312 28.3466C21.371 28.434 21.432 28.5198 21.4952 28.6043C21.5583 28.6887 21.6236 28.7715 21.6908 28.8527C21.7581 28.9339 21.8274 29.0134 21.8986 29.0913C21.9698 29.1691 22.0429 29.2452 22.1179 29.3195C22.1929 29.3938 22.2697 29.4662 22.3483 29.5368C22.4268 29.6073 22.5071 29.6759 22.5891 29.7426C22.6711 29.8092 22.7546 29.8739 22.8398 29.9365C22.925 29.999 23.0117 30.0595 23.0999 30.1179C23.188 30.1763 23.2776 30.2324 23.3686 30.2865C23.4595 30.3405 23.5518 30.3923 23.6453 30.4418C23.7388 30.4913 23.8335 30.5386 23.9294 30.5835C24.0253 30.6284 24.1222 30.6709 24.2202 30.7112C24.3181 30.7514 24.4171 30.7892 24.5169 30.8246C24.6168 30.86 24.7174 30.8929 24.8189 30.9234C24.9204 30.9539 25.0226 30.9819 25.1255 31.0075C25.2283 31.033 25.3318 31.056 25.4358 31.0765C25.5398 31.097 25.6442 31.1149 25.7491 31.1304C25.854 31.1458 25.9593 31.1586 26.0648 31.1689C26.1703 31.1792 26.2761 31.187 26.382 31.1921C26.4879 31.1973 26.5939 31.1999 26.7 31.1999C26.806 31.1999 26.912 31.1973 27.0179 31.1921C27.1238 31.187 27.2296 31.1792 27.3351 31.1689C27.4406 31.1586 27.5459 31.1458 27.6508 31.1304C27.7557 31.1149 27.8601 31.097 27.9642 31.0765C28.0682 31.056 28.1716 31.033 28.2745 31.0075C28.3773 30.9819 28.4795 30.9539 28.581 30.9234C28.6825 30.8929 28.7832 30.86 28.883 30.8246C28.9828 30.7892 29.0818 30.7514 29.1798 30.7112C29.2777 30.6709 29.3747 30.6284 29.4705 30.5835C29.5664 30.5386 29.6611 30.4913 29.7546 30.4418C29.8481 30.3923 29.9404 30.3405 30.0313 30.2865C30.1223 30.2324 30.2119 30.1763 30.3 30.1179C30.3882 30.0595 30.4749 29.999 30.5601 29.9365C30.6453 29.8739 30.7288 29.8092 30.8108 29.7426C30.8928 29.6759 30.9731 29.6073 31.0516 29.5368C31.1302 29.4662 31.207 29.3938 31.282 29.3195C31.357 29.2452 31.4301 29.1691 31.5013 29.0913C31.5725 29.0134 31.6418 28.9339 31.7091 28.8527C31.7763 28.7715 31.8416 28.6887 31.9047 28.6043C31.9679 28.5198 32.029 28.434 32.0879 28.3466C32.1468 28.2593 32.2035 28.1705 32.258 28.0804C32.3126 27.9903 32.3648 27.8989 32.4148 27.8062C32.4648 27.7136 32.5125 27.6197 32.5578 27.5247C32.6031 27.4298 32.6461 27.3337 32.6867 27.2367C32.7273 27.1396 32.7654 27.0416 32.8012 26.9427C32.8369 26.8438 32.8701 26.744 32.9009 26.6435C32.9317 26.5429 32.96 26.4417 32.9858 26.3398C33.0115 26.2379 33.0347 26.1354 33.0555 26.0323C33.0762 25.9293 33.0943 25.8258 33.1098 25.7219C33.1254 25.6179 33.1384 25.5137 33.1488 25.4091C33.1592 25.3046 33.167 25.1998 33.1722 25.0949C33.1774 24.9899 33.18 24.8849 33.18 24.7799C33.18 24.6748 33.1774 24.5698 33.1722 24.4649C33.167 24.3599 33.1592 24.2551 33.1488 24.1506C33.1384 24.046 33.1254 23.9418 33.1098 23.8378C33.0943 23.7339 33.0762 23.6304 33.0555 23.5274C33.0347 23.4243 33.0115 23.3219 32.9858 23.2199C32.96 23.118 32.9317 23.0168 32.9009 22.9162C32.8701 22.8157 32.8369 22.716 32.8012 22.617C32.7654 22.5181 32.7273 22.4201 32.6867 22.323C32.6461 22.226 32.6031 22.1299 32.5578 22.035C32.5125 21.94 32.4648 21.8462 32.4148 21.7535C32.3648 21.6608 32.3126 21.5694 32.258 21.4793C32.2035 21.3892 32.1468 21.3005 32.0879 21.2131C32.029 21.1257 31.9679 21.0399 31.9047 20.9555C31.8416 20.8711 31.7763 20.7883 31.7091 20.7071C31.6418 20.6258 31.5725 20.5463 31.5013 20.4685C31.4301 20.3906 31.357 20.3145 31.282 20.2402C31.207 20.1659 31.1302 20.0935 31.0516 20.023C30.9731 19.9524 30.8928 19.8838 30.8108 19.8171C30.7288 19.7505 30.6453 19.6859 30.5601 19.6233C30.4749 19.5607 30.3882 19.5002 30.3 19.4418C30.2119 19.3835 30.1223 19.3273 30.0313 19.2733C29.9404 19.2192 29.8481 19.1675 29.7546 19.1179C29.6611 19.0684 29.5664 19.0212 29.4705 18.9763C29.3747 18.9313 29.2777 18.8888 29.1798 18.8486C29.0818 18.8084 28.9828 18.7705 28.883 18.7352C28.7832 18.6998 28.6825 18.6668 28.581 18.6363C28.4795 18.6058 28.3773 18.5778 28.2745 18.5523C28.1716 18.5267 28.0682 18.5037 27.9642 18.4832C27.8601 18.4627 27.7557 18.4448 27.6508 18.4293C27.5459 18.4139 27.4406 18.4011 27.3351 18.3908C27.2296 18.3805 27.1238 18.3728 27.0179 18.3676C26.912 18.3624 26.806 18.3599 26.7 18.3599C26.5939 18.3599 26.4879 18.3624 26.382 18.3676C26.2761 18.3728 26.1703 18.3805 26.0648 18.3908C25.9593 18.4011 25.854 18.4139 25.7491 18.4294C25.6442 18.4448 25.5398 18.4627 25.4358 18.4832C25.3318 18.5037 25.2283 18.5267 25.1254 18.5523C25.0226 18.5778 24.9204 18.6058 24.8189 18.6363C24.7174 18.6668 24.6168 18.6998 24.5169 18.7352C24.4171 18.7705 24.3181 18.8084 24.2202 18.8486C24.1222 18.8888 24.0253 18.9313 23.9294 18.9763C23.8335 19.0212 23.7388 19.0684 23.6453 19.1179C23.5518 19.1675 23.4595 19.2192 23.3686 19.2733C23.2776 19.3273 23.188 19.3835 23.0999 19.4418C23.0117 19.5002 22.925 19.5607 22.8398 19.6233C22.7546 19.6859 22.6711 19.7505 22.5891 19.8171C22.5071 19.8838 22.4268 19.9524 22.3483 20.023C22.2697 20.0935 22.1929 20.1659 22.1179 20.2402C22.0429 20.3145 21.9698 20.3906 21.8986 20.4685C21.8274 20.5463 21.7581 20.6258 21.6908 20.7071C21.6236 20.7883 21.5583 20.8711 21.4952 20.9555C21.432 21.0399 21.371 21.1257 21.312 21.2131C21.2531 21.3005 21.1964 21.3892 21.1419 21.4793C21.0874 21.5694 21.0351 21.6608 20.9851 21.7535C20.9351 21.8462 20.8874 21.94 20.8421 22.035C20.7968 22.1299 20.7538 22.226 20.7132 22.323C20.6726 22.4201 20.6345 22.5181 20.5987 22.617C20.563 22.716 20.5298 22.8157 20.499 22.9162C20.4682 23.0168 20.4399 23.118 20.4141 23.2199C20.3884 23.3219 20.3652 23.4243 20.3445 23.5274C20.3238 23.6304 20.3057 23.7339 20.2901 23.8378C20.2745 23.9418 20.2616 24.046 20.2512 24.1506C20.2408 24.2551 20.233 24.3599 20.2278 24.4649C20.2226 24.5698 20.22 24.6748 20.22 24.7799Z"></path><path id="路径 11" fill-rule="evenodd" fill="url(#linear_7)" opacity="1" d="M20.22 24.7799C20.22 24.8849 20.2226 24.9899 20.2278 25.0949C20.233 25.1998 20.2408 25.3046 20.2512 25.4091C20.2616 25.5137 20.2745 25.6179 20.2901 25.7219C20.3056 25.8258 20.3238 25.9293 20.3445 26.0323C20.3652 26.1354 20.3884 26.2379 20.4141 26.3398C20.4399 26.4417 20.4682 26.5429 20.499 26.6435C20.5298 26.744 20.563 26.8438 20.5987 26.9427C20.6345 27.0416 20.6726 27.1396 20.7132 27.2367C20.7538 27.3337 20.7968 27.4298 20.8421 27.5248C20.8874 27.6197 20.9351 27.7136 20.9851 27.8062C21.0351 27.8989 21.0874 27.9903 21.1419 28.0804C21.1964 28.1705 21.2531 28.2593 21.312 28.3466C21.371 28.434 21.432 28.5198 21.4952 28.6043C21.5583 28.6887 21.6236 28.7715 21.6908 28.8527C21.7581 28.9339 21.8274 29.0134 21.8986 29.0913C21.9698 29.1691 22.0429 29.2452 22.1179 29.3195C22.1929 29.3938 22.2697 29.4662 22.3483 29.5368C22.4268 29.6073 22.5071 29.6759 22.5891 29.7426C22.6711 29.8092 22.7546 29.8739 22.8398 29.9365C22.925 29.999 23.0117 30.0595 23.0999 30.1179C23.188 30.1763 23.2776 30.2324 23.3686 30.2865C23.4595 30.3405 23.5518 30.3923 23.6453 30.4418C23.7388 30.4913 23.8335 30.5386 23.9294 30.5835C24.0253 30.6284 24.1222 30.6709 24.2202 30.7112C24.3181 30.7514 24.4171 30.7892 24.5169 30.8246C24.6168 30.86 24.7174 30.8929 24.8189 30.9234C24.9204 30.9539 25.0226 30.9819 25.1255 31.0075C25.2283 31.033 25.3318 31.056 25.4358 31.0765C25.5398 31.097 25.6442 31.1149 25.7491 31.1304C25.854 31.1458 25.9593 31.1586 26.0648 31.1689C26.1703 31.1792 26.2761 31.187 26.382 31.1921C26.4879 31.1973 26.5939 31.1999 26.7 31.1999C26.806 31.1999 26.912 31.1973 27.0179 31.1921C27.1238 31.187 27.2296 31.1792 27.3351 31.1689C27.4406 31.1586 27.5459 31.1458 27.6508 31.1304C27.7557 31.1149 27.8601 31.097 27.9642 31.0765C28.0682 31.056 28.1716 31.033 28.2745 31.0075C28.3773 30.9819 28.4795 30.9539 28.581 30.9234C28.6825 30.8929 28.7832 30.86 28.883 30.8246C28.9828 30.7892 29.0818 30.7514 29.1798 30.7112C29.2777 30.6709 29.3747 30.6284 29.4705 30.5835C29.5664 30.5386 29.6611 30.4913 29.7546 30.4418C29.8481 30.3923 29.9404 30.3405 30.0313 30.2865C30.1223 30.2324 30.2119 30.1763 30.3 30.1179C30.3882 30.0595 30.4749 29.999 30.5601 29.9365C30.6453 29.8739 30.7288 29.8092 30.8108 29.7426C30.8928 29.6759 30.9731 29.6073 31.0516 29.5368C31.1302 29.4662 31.207 29.3938 31.282 29.3195C31.357 29.2452 31.4301 29.1691 31.5013 29.0913C31.5725 29.0134 31.6418 28.9339 31.7091 28.8527C31.7763 28.7715 31.8416 28.6887 31.9047 28.6043C31.9679 28.5198 32.029 28.434 32.0879 28.3466C32.1468 28.2593 32.2035 28.1705 32.258 28.0804C32.3126 27.9903 32.3648 27.8989 32.4148 27.8062C32.4648 27.7136 32.5125 27.6197 32.5578 27.5247C32.6031 27.4298 32.6461 27.3337 32.6867 27.2367C32.7273 27.1396 32.7654 27.0416 32.8012 26.9427C32.8369 26.8438 32.8701 26.744 32.9009 26.6435C32.9317 26.5429 32.96 26.4417 32.9858 26.3398C33.0115 26.2379 33.0347 26.1354 33.0555 26.0323C33.0762 25.9293 33.0943 25.8258 33.1098 25.7219C33.1254 25.6179 33.1384 25.5137 33.1488 25.4091C33.1592 25.3046 33.167 25.1998 33.1722 25.0949C33.1774 24.9899 33.18 24.8849 33.18 24.7799C33.18 24.6748 33.1774 24.5698 33.1722 24.4649C33.167 24.3599 33.1592 24.2551 33.1488 24.1506C33.1384 24.046 33.1254 23.9418 33.1098 23.8378C33.0943 23.7339 33.0762 23.6304 33.0555 23.5274C33.0347 23.4243 33.0115 23.3219 32.9858 23.2199C32.96 23.118 32.9317 23.0168 32.9009 22.9162C32.8701 22.8157 32.8369 22.716 32.8012 22.617C32.7654 22.5181 32.7273 22.4201 32.6867 22.323C32.6461 22.226 32.6031 22.1299 32.5578 22.035C32.5125 21.94 32.4648 21.8462 32.4148 21.7535C32.3648 21.6608 32.3126 21.5694 32.258 21.4793C32.2035 21.3892 32.1468 21.3005 32.0879 21.2131C32.029 21.1257 31.9679 21.0399 31.9047 20.9555C31.8416 20.8711 31.7763 20.7883 31.7091 20.7071C31.6418 20.6258 31.5725 20.5463 31.5013 20.4685C31.4301 20.3906 31.357 20.3145 31.282 20.2402C31.207 20.1659 31.1302 20.0935 31.0516 20.023C30.9731 19.9524 30.8928 19.8838 30.8108 19.8171C30.7288 19.7505 30.6453 19.6859 30.5601 19.6233C30.4749 19.5607 30.3882 19.5002 30.3 19.4418C30.2119 19.3835 30.1223 19.3273 30.0313 19.2733C29.9404 19.2192 29.8481 19.1675 29.7546 19.1179C29.6611 19.0684 29.5664 19.0212 29.4705 18.9763C29.3747 18.9313 29.2777 18.8888 29.1798 18.8486C29.0818 18.8084 28.9828 18.7705 28.883 18.7352C28.7832 18.6998 28.6825 18.6668 28.581 18.6363C28.4795 18.6058 28.3773 18.5778 28.2745 18.5523C28.1716 18.5267 28.0682 18.5037 27.9642 18.4832C27.8601 18.4627 27.7557 18.4448 27.6508 18.4293C27.5459 18.4139 27.4406 18.4011 27.3351 18.3908C27.2296 18.3805 27.1238 18.3728 27.0179 18.3676C26.912 18.3624 26.806 18.3599 26.7 18.3599C26.5939 18.3599 26.4879 18.3624 26.382 18.3676C26.2761 18.3728 26.1703 18.3805 26.0648 18.3908C25.9593 18.4011 25.854 18.4139 25.7491 18.4294C25.6442 18.4448 25.5398 18.4627 25.4358 18.4832C25.3318 18.5037 25.2283 18.5267 25.1254 18.5523C25.0226 18.5778 24.9204 18.6058 24.8189 18.6363C24.7174 18.6668 24.6168 18.6998 24.5169 18.7352C24.4171 18.7705 24.3181 18.8084 24.2202 18.8486C24.1222 18.8888 24.0253 18.9313 23.9294 18.9763C23.8335 19.0212 23.7388 19.0684 23.6453 19.1179C23.5518 19.1675 23.4595 19.2192 23.3686 19.2733C23.2776 19.3273 23.188 19.3835 23.0999 19.4418C23.0117 19.5002 22.925 19.5607 22.8398 19.6233C22.7546 19.6859 22.6711 19.7505 22.5891 19.8171C22.5071 19.8838 22.4268 19.9524 22.3483 20.023C22.2697 20.0935 22.1929 20.1659 22.1179 20.2402C22.0429 20.3145 21.9698 20.3906 21.8986 20.4685C21.8274 20.5463 21.7581 20.6258 21.6908 20.7071C21.6236 20.7883 21.5583 20.8711 21.4952 20.9555C21.432 21.0399 21.371 21.1257 21.312 21.2131C21.2531 21.3005 21.1964 21.3892 21.1419 21.4793C21.0874 21.5694 21.0351 21.6608 20.9851 21.7535C20.9351 21.8462 20.8874 21.94 20.8421 22.035C20.7968 22.1299 20.7538 22.226 20.7132 22.323C20.6726 22.4201 20.6345 22.5181 20.5987 22.617C20.563 22.716 20.5298 22.8157 20.499 22.9162C20.4682 23.0168 20.4399 23.118 20.4141 23.2199C20.3884 23.3219 20.3652 23.4243 20.3445 23.5274C20.3238 23.6304 20.3057 23.7339 20.2901 23.8378C20.2745 23.9418 20.2616 24.046 20.2512 24.1506C20.2408 24.2551 20.233 24.3599 20.2278 24.4649C20.2226 24.5698 20.22 24.6748 20.22 24.7799Z"></path><path id="路径 12" fill-rule="evenodd" fill="url(#linear_8)" opacity="1" d="M24.3 26.5199L26.4 26.5199L26.4 25.4999L24.3 25.4999C23.7 25.4999 23.4601 25.1399 23.4601 24.7799C23.4601 24.4199 23.76 24.1799 24.3 24.1799L25.8001 24.1799C25.8001 24.1799 24.66 22.6199 24.3 22.0199C23.94 21.2399 25.5 20.9399 25.92 21.5999C26.3401 22.3199 27.24 23.6999 27.24 23.6999C27.24 23.6999 27.96 22.1399 28.44 21.3599C28.86 20.6399 30.42 21.4799 29.94 22.2599C29.52 22.9199 28.68 24.1799 28.68 24.1799L30.18 24.1799C30.78 24.1799 30.96 24.3599 30.96 24.7799C30.96 25.1999 30.78 25.4999 30.18 25.4999L28.08 25.4999L28.08 26.5199L30.18 26.5199C30.78 26.5199 31.02 26.6999 31.02 27.1199C31.02 27.4799 30.72 27.7799 30.18 27.7799L28.08 27.7799L28.08 27.8999C28.08 28.7399 27.78 29.1599 27.24 29.1599L26.64 29.1599C26.3401 29.1599 26.4 28.4399 26.4 27.8999L26.4 27.7799L24.3 27.7799C23.7 27.7799 23.4601 27.4799 23.4601 27.1199C23.4 26.6999 23.7 26.5199 24.3 26.5199Z"></path><path id="路径 13" fill-rule="evenodd" style="fill:#FFFFFF" opacity="1" d="M23.76 25.92L25.86 25.92L25.86 24.9L23.76 24.9C23.16 24.9 22.92 24.54 22.92 24.18C22.92 23.82 23.22 23.58 23.76 23.58L25.26 23.58L24.12 21.72C23.76 20.94 24.96 20.34 25.38 20.94C25.8 21.66 26.7 23.04 26.7 23.04C26.7 23.04 27.66 21.54 28.14 20.76C28.56 20.04 29.82 20.88 29.4 21.66C28.98 22.32 28.14 23.58 28.14 23.58L29.64 23.58C30.24 23.58 30.48 23.76 30.48 24.18C30.48 24.6 30.18 24.9 29.64 24.9L27.54 24.9L27.54 25.92L29.64 25.92C30.24 25.92 30.48 26.1 30.48 26.52C30.48 26.88 30.18 27.18 29.64 27.18L27.54 27.18L27.54 27.3C27.54 28.14 27.24 28.56 26.7 28.56C26.16 28.56 25.86 28.14 25.86 27.3L25.86 27.18L23.76 27.18C23.16 27.18 22.92 26.88 22.92 26.52C22.86 26.1 23.16 25.92 23.76 25.92Z"></path></g></g><defs><rect id="path_0" x="0" y="0" width="36" height="36" rx="0" ry="0"/><linearGradient id="linear_0" x1="29.118975615823377%" y1="5.169204491319128%" x2="83.92306268066953%" y2="62.989477019684955%" gradientUnits="objectBoundingBox"><stop offset="0" stop-color="#E8F8FA" stop-opacity="0.9" /><stop offset="1" stop-color="#BADEF7" stop-opacity="1" /></linearGradient><linearGradient id="linear_1" x1="29.11899706499738%" y1="5.169204491319128%" x2="83.92302783459778%" y2="62.989477019684955%" gradientUnits="objectBoundingBox"><stop offset="0" stop-color="#E8F8FA" stop-opacity="0.9" /><stop offset="1" stop-color="#BADEF7" stop-opacity="1" /></linearGradient><linearGradient id="linear_2" x1="80.91945695811759%" y1="13.935026372865188%" x2="20.632706194639567%" y2="92.94617590615914%" gradientUnits="objectBoundingBox"><stop offset="0" stop-color="#57DDFF" stop-opacity="1" /><stop offset="1" stop-color="#1692F7" stop-opacity="1" /></linearGradient><linearGradient id="linear_3" x1="39.92800319587529%" y1="17.244%" x2="88.17898788569074%" y2="85.071%" gradientUnits="objectBoundingBox"><stop offset="0" stop-color="#D7F2FA" stop-opacity="0.18" /><stop offset="1" stop-color="#BFCDD9" stop-opacity="0.2" /></linearGradient><linearGradient id="linear_4" x1="29.11904410057963%" y1="5.169204491319128%" x2="83.92295142115293%" y2="62.989477019684955%" gradientUnits="objectBoundingBox"><stop offset="0" stop-color="#E8F8FA" stop-opacity="0.9" /><stop offset="1" stop-color="#BADEF7" stop-opacity="1" /></linearGradient><linearGradient id="linear_5" x1="39.92803035783179%" y1="17.244%" x2="88.17888492537135%" y2="85.071%" gradientUnits="objectBoundingBox"><stop offset="0" stop-color="#FAD7EA" stop-opacity="0.18" /><stop offset="1" stop-color="#D9BFCA" stop-opacity="0.2" /></linearGradient><linearGradient id="linear_6" x1="35.651059432468756%" y1="38.03640723644769%" x2="99.99991177134724%" y2="100.00013980735723%" gradientUnits="objectBoundingBox"><stop offset="0" stop-color="#FAEDF2" stop-opacity="0.96" /><stop offset="1" stop-color="#FCCFDD" stop-opacity="1" /></linearGradient><linearGradient id="linear_7" x1="80.92095688157582%" y1="13.935019482155228%" x2="20.63310658269107%" y2="92.94612994534626%" gradientUnits="objectBoundingBox"><stop offset="0" stop-color="#FF57A5" stop-opacity="1" /><stop offset="1" stop-color="#FC2828" stop-opacity="1" /></linearGradient><linearGradient id="linear_8" x1="39.92793790192511%" y1="17.244%" x2="88.17923538943617%" y2="85.071%" gradientUnits="objectBoundingBox"><stop offset="0" stop-color="#FAD7EA" stop-opacity="0.18" /><stop offset="1" stop-color="#D9BFCA" stop-opacity="0.2" /></linearGradient></defs></svg>