<svg xmlns="http://www.w3.org/2000/svg" xmlns:xlink="http://www.w3.org/1999/xlink" width="36" height="36" viewBox="0 0 36 36" fill="none"><g opacity="1"  transform="translate(0 0)"><mask id="bg-mask-0" fill="white"><use transform="translate(0 0)" xlink:href="#path_0"></use></mask><g mask="url(#bg-mask-0)" ><path id="路径 1" fill-rule="evenodd" fill="url(#linear_0)" opacity="1" d="M29.88 6L8.99999 6.59998C7.67998 6.59998 6.59998 7.67998 6.59998 8.99999L6.59998 23.22C6.59998 24.6 7.67998 25.68 8.93998 25.68L16.8 25.68L17.58 27.6L18.72 28.2C19.32 28.5 20.16 28.38 20.64 27.9L22.74 25.68L30.6 25.68C31.92 25.68 32.94 24.6 32.94 23.22L32.94 8.99999C33 7.67998 31.14 6 29.88 6Z"></path><path id="路径 2" fill-rule="evenodd" fill="url(#linear_1)" opacity="1" d="M28.86 6L7.13999 6C5.87999 6 4.79999 7.13998 4.79999 8.52L4.79999 23.1C4.79999 24.48 5.87999 25.62 7.13999 25.62L15 25.62L17.16 27.9C17.64 28.38 18.36 28.38 18.84 27.9L21 25.62L28.86 25.62C30.18 25.62 31.2 24.48 31.2 23.1L31.2 8.52C31.2 7.13998 30.12 6 28.86 6Z"></path><g opacity="1"  transform="translate(10 7)"><mask id="bg-mask-1" fill="white"><use transform="translate(0 0)" xlink:href="#path_1"></use></mask><g mask="url(#bg-mask-1)" ><path id="路径 1" fill-rule="evenodd" fill="url(#linear_2)" opacity="1" d="M9.95605 10.6044L11.2029 9.35754L15.4779 13.6325L14.2311 14.8794L9.95605 10.6044Z"></path><path id="路径 2" fill-rule="evenodd" fill="url(#linear_3)" opacity="1" d="M16.3092 14.9982L15.4779 15.8294C15.2404 16.0669 14.8842 16.0669 14.6467 15.8294L11.6185 12.8013C11.381 12.5638 11.381 12.2075 11.6185 11.97L12.4498 11.1388C12.6873 10.9013 13.0435 10.9013 13.281 11.1388L16.3092 14.1669C16.5467 14.4044 16.5467 14.7607 16.3092 14.9982ZM6.33417 9.00129L9.54042 5.79504L12.2123 8.46692L9.00604 11.6732L6.33417 9.00129Z"></path><path id="路径 4" fill-rule="evenodd" fill="url(#linear_4)" opacity="1" d="M9.00605 12.5043L8.47167 13.0387C8.23417 13.2762 7.87792 13.2762 7.64042 13.0387L4.79042 10.1887C4.6123 10.0106 4.6123 9.65432 4.8498 9.41682L5.38417 8.88245C5.62167 8.64495 5.97792 8.64495 6.21542 8.88245L9.06542 11.7324C9.24355 11.9106 9.24355 12.3262 9.00605 12.5043ZM13.5779 7.93245L13.0435 8.46682C12.806 8.70432 12.4498 8.70432 12.2123 8.46682L9.3623 5.61682C9.1248 5.37932 9.1248 5.02307 9.3623 4.78557L9.95605 4.31057C10.1935 4.07307 10.5498 4.07307 10.7873 4.31057L13.6373 7.16057C13.8154 7.39807 13.8154 7.75432 13.5779 7.93245Z"></path><path id="路径 6" fill-rule="evenodd" fill="url(#linear_5)" opacity="1" d="M9.95603 14.9981L4.19666 14.9981L4.19666 14.7012C4.19666 14.4043 4.43416 14.2262 4.67166 14.2262L9.48103 14.2262C9.7779 14.2262 9.95603 14.4637 9.95603 14.7012L9.95603 14.9981Z"></path><path id="路径 7" fill-rule="evenodd" fill="url(#linear_6)" opacity="1" d="M10.2529 15.9483L3.8998 15.9483C3.60293 15.9483 3.4248 15.7108 3.4248 15.4733C3.4248 15.1764 3.6623 14.9983 3.8998 14.9983L10.2529 14.9983C10.5498 14.9983 10.7279 15.2358 10.7279 15.4733C10.7279 15.7108 10.4904 15.9483 10.2529 15.9483Z"></path></g></g><g opacity="1"  transform="translate(8.5 6.5)"><mask id="bg-mask-2" fill="white"><use transform="translate(0 0)" xlink:href="#path_2"></use></mask><g mask="url(#bg-mask-2)" ><path id="路径 1" fill-rule="evenodd" style="fill:#FFFFFF" opacity="1" d="M9.95605 10.6044L11.2029 9.35754L15.4779 13.6325L14.2311 14.8794L9.95605 10.6044Z"></path><path id="路径 2" fill-rule="evenodd" style="fill:#FFFFFF" opacity="1" d="M16.3092 14.9982L15.4779 15.8294C15.2404 16.0669 14.8842 16.0669 14.6467 15.8294L11.6185 12.8013C11.381 12.5638 11.381 12.2075 11.6185 11.97L12.4498 11.1388C12.6873 10.9013 13.0435 10.9013 13.281 11.1388L16.3092 14.1669C16.5467 14.4044 16.5467 14.7607 16.3092 14.9982ZM6.33417 9.00129L9.54042 5.79504L12.2123 8.46692L9.00604 11.6732L6.33417 9.00129Z"></path><path id="路径 4" fill-rule="evenodd" style="fill:#FFFFFF" opacity="1" d="M9.00605 12.5043L8.47167 13.0387C8.23417 13.2762 7.87792 13.2762 7.64042 13.0387L4.79042 10.1887C4.6123 10.0106 4.6123 9.65432 4.8498 9.41682L5.38417 8.88245C5.62167 8.64495 5.97792 8.64495 6.21542 8.88245L9.06542 11.7324C9.24355 11.9106 9.24355 12.3262 9.00605 12.5043ZM13.5779 7.93245L13.0435 8.46682C12.806 8.70432 12.4498 8.70432 12.2123 8.46682L9.3623 5.61682C9.1248 5.37932 9.1248 5.02307 9.3623 4.78557L9.95605 4.31057C10.1935 4.07307 10.5498 4.07307 10.7873 4.31057L13.6373 7.16057C13.8154 7.39807 13.8154 7.75432 13.5779 7.93245Z"></path><path id="路径 6" fill-rule="evenodd" style="fill:#FFFFFF" opacity="1" d="M9.95603 14.9981L4.19666 14.9981L4.19666 14.7012C4.19666 14.4043 4.43416 14.2262 4.67166 14.2262L9.48103 14.2262C9.7779 14.2262 9.95603 14.4637 9.95603 14.7012L9.95603 14.9981Z"></path><path id="路径 7" fill-rule="evenodd" style="fill:#FFFFFF" opacity="1" d="M10.2529 15.9483L3.8998 15.9483C3.60293 15.9483 3.4248 15.7108 3.4248 15.4733C3.4248 15.1764 3.6623 14.9983 3.8998 14.9983L10.2529 14.9983C10.5498 14.9983 10.7279 15.2358 10.7279 15.4733C10.7279 15.7108 10.4904 15.9483 10.2529 15.9483Z"></path></g></g><path id="路径 5" fill-rule="evenodd" fill="url(#linear_7)" opacity="1" d="M5.40002 32.4C5.40002 32.4196 5.40966 32.4403 5.42002 32.46C5.43038 32.4796 5.43933 32.5004 5.46002 32.52C5.48072 32.5395 5.50904 32.5605 5.54002 32.58C5.57099 32.5994 5.60882 32.6107 5.65002 32.63C5.6912 32.6492 5.73872 32.6709 5.79002 32.69C5.84131 32.709 5.89874 32.7312 5.96002 32.75C6.02131 32.7687 6.07891 32.7815 6.15003 32.8C6.22116 32.8184 6.29924 32.8418 6.38003 32.86C6.46081 32.8781 6.54974 32.8922 6.64003 32.91C6.73028 32.9277 6.82051 32.9526 6.92003 32.97C7.01954 32.9873 7.13149 33.0031 7.24003 33.02C7.34856 33.0368 7.45275 33.0536 7.57003 33.07C7.68733 33.0863 7.81426 33.0942 7.94003 33.11C8.06579 33.1257 8.19611 33.1448 8.33003 33.16C8.46395 33.1751 8.59823 33.1954 8.74003 33.21C8.8818 33.2245 9.03076 33.2361 9.18003 33.25C9.32934 33.2638 9.48362 33.2768 9.64003 33.29C9.79644 33.3032 9.95683 33.3175 10.12 33.33C10.2832 33.3424 10.4505 33.3483 10.62 33.36C10.7896 33.3717 10.9545 33.389 11.13 33.4C11.3056 33.4109 11.4889 33.4199 11.67 33.43C11.8511 33.4401 12.0338 33.46 12.22 33.46C12.4062 33.46 12.5892 33.48 12.78 33.48C12.9709 33.48 13.165 33.51 13.36 33.51C13.5551 33.51 13.7513 33.53 13.95 33.53C14.1488 33.53 14.358 33.55 14.56 33.55C14.7621 33.55 14.9652 33.56 15.17 33.56C15.3748 33.56 15.573 33.58 15.78 33.58C15.9871 33.58 16.2012 33.59 16.41 33.59C16.6189 33.59 16.8299 33.59 17.04 33.59C17.2501 33.59 17.4592 33.6 17.67 33.6C17.8809 33.6 18.0889 33.6 18.3 33.6C18.5112 33.6 18.7192 33.6 18.93 33.6C19.1409 33.6 19.3499 33.59 19.56 33.59C19.7701 33.59 19.9812 33.59 20.19 33.59C20.3989 33.59 20.613 33.58 20.82 33.58C21.0271 33.58 21.2253 33.56 21.43 33.56C21.6348 33.56 21.838 33.55 22.04 33.55C22.2421 33.55 22.4513 33.53 22.65 33.53C22.8489 33.53 23.045 33.51 23.24 33.51C23.4351 33.51 23.6292 33.48 23.82 33.48C24.0109 33.48 24.1938 33.46 24.38 33.46C24.5662 33.46 24.749 33.4401 24.93 33.43C25.1111 33.4199 25.2945 33.4109 25.47 33.4C25.6456 33.389 25.8105 33.3717 25.98 33.36C26.1496 33.3483 26.3168 33.3424 26.48 33.33C26.6432 33.3175 26.8036 33.3032 26.96 33.29C27.1165 33.2768 27.2708 33.2638 27.42 33.25C27.5694 33.2361 27.7183 33.2245 27.86 33.21C28.0018 33.1954 28.1361 33.1751 28.27 33.16C28.404 33.1448 28.5343 33.1257 28.66 33.11C28.7858 33.0942 28.9128 33.0863 29.03 33.07C29.1474 33.0536 29.2515 33.0368 29.36 33.02C29.4686 33.0031 29.5805 32.9873 29.68 32.97C29.7796 32.9526 29.8698 32.9277 29.96 32.91C30.0503 32.8922 30.1392 32.8781 30.22 32.86C30.3008 32.8418 30.3789 32.8184 30.45 32.8C30.5212 32.7815 30.5788 32.7687 30.64 32.75C30.7013 32.7312 30.7588 32.709 30.81 32.69C30.8613 32.6709 30.9089 32.6492 30.95 32.63C30.9912 32.6107 31.0291 32.5994 31.06 32.58C31.091 32.5605 31.1193 32.5395 31.14 32.52C31.1608 32.5004 31.1697 32.4796 31.18 32.46C31.1904 32.4403 31.2 32.4196 31.2 32.4C31.2 32.3803 31.1904 32.3596 31.18 32.34C31.1697 32.3203 31.1608 32.2995 31.14 32.28C31.1193 32.2604 31.091 32.2394 31.06 32.22C31.0291 32.2005 30.9912 32.1892 30.95 32.17C30.9089 32.1507 30.8613 32.129 30.81 32.11C30.7588 32.0909 30.7013 32.0687 30.64 32.05C30.5788 32.0312 30.5212 32.0184 30.45 32C30.3789 31.9815 30.3009 31.9581 30.22 31.94C30.1393 31.9218 30.0503 31.9077 29.96 31.89C29.8698 31.8722 29.7796 31.8472 29.68 31.83C29.5805 31.8126 29.4686 31.7968 29.36 31.78C29.2515 31.7631 29.1474 31.7463 29.03 31.73C28.9128 31.7136 28.7858 31.7057 28.66 31.69C28.5343 31.6742 28.404 31.6551 28.27 31.64C28.1361 31.6248 28.0018 31.6045 27.86 31.59C27.7183 31.5754 27.5694 31.5638 27.42 31.55C27.2708 31.5361 27.1165 31.5231 26.96 31.51C26.8036 31.4968 26.6432 31.4824 26.48 31.47C26.3168 31.4575 26.1496 31.4516 25.98 31.44C25.8105 31.4283 25.6456 31.4109 25.47 31.4C25.2945 31.3891 25.1111 31.3801 24.93 31.37C24.749 31.3598 24.5662 31.34 24.38 31.34C24.1938 31.34 24.0109 31.32 23.82 31.32C23.6292 31.32 23.4351 31.29 23.24 31.29C23.045 31.29 22.8489 31.27 22.65 31.27C22.4513 31.27 22.2421 31.25 22.04 31.25C21.838 31.25 21.6348 31.24 21.43 31.24C21.2253 31.24 21.0271 31.22 20.82 31.22C20.613 31.22 20.3989 31.21 20.19 31.21C19.9812 31.21 19.7701 31.21 19.56 31.21C19.3499 31.21 19.1409 31.2 18.93 31.2C18.7192 31.2 18.5112 31.2 18.3 31.2C18.0889 31.2 17.8809 31.2 17.67 31.2C17.4592 31.2 17.2501 31.21 17.04 31.21C16.8299 31.21 16.6189 31.21 16.41 31.21C16.2012 31.21 15.9871 31.22 15.78 31.22C15.573 31.22 15.3748 31.24 15.17 31.24C14.9652 31.24 14.7621 31.25 14.56 31.25C14.358 31.25 14.1488 31.27 13.95 31.27C13.7513 31.27 13.5551 31.29 13.36 31.29C13.165 31.29 12.9709 31.32 12.78 31.32C12.5892 31.32 12.4062 31.34 12.22 31.34C12.0338 31.34 11.8511 31.3598 11.67 31.37C11.4889 31.3801 11.3056 31.3891 11.13 31.4C10.9545 31.4109 10.7896 31.4283 10.62 31.44C10.4505 31.4516 10.2832 31.4575 10.12 31.47C9.95683 31.4824 9.79644 31.4968 9.64003 31.51C9.48362 31.5231 9.32934 31.5361 9.18003 31.55C9.03076 31.5638 8.8818 31.5754 8.74003 31.59C8.59825 31.6045 8.46397 31.6248 8.33003 31.64C8.19611 31.6551 8.06579 31.6742 7.94003 31.69C7.81426 31.7057 7.68733 31.7136 7.57003 31.73C7.45275 31.7463 7.34856 31.7631 7.24003 31.78C7.13149 31.7968 7.01954 31.8126 6.92003 31.83C6.82051 31.8472 6.73028 31.8722 6.64003 31.89C6.54974 31.9077 6.46081 31.9218 6.38003 31.94C6.29924 31.9581 6.22116 31.9815 6.15003 32C6.07891 32.0184 6.02131 32.0312 5.96002 32.05C5.89874 32.0687 5.84131 32.0909 5.79002 32.11C5.73872 32.129 5.6912 32.1507 5.65002 32.17C5.60882 32.1892 5.57099 32.2005 5.54002 32.22C5.50904 32.2394 5.48072 32.2604 5.46002 32.28C5.43933 32.2995 5.43038 32.3203 5.42002 32.34C5.40966 32.3596 5.40002 32.3803 5.40002 32.4Z"></path><path id="路径 6" fill-rule="evenodd" fill="url(#linear_8)" opacity="1" d="M29.38 10.7027C29.38 10.7469 29.3811 10.791 29.3832 10.8352C29.3854 10.8793 29.3887 10.9233 29.393 10.9673C29.3973 11.0113 29.4027 11.0552 29.4092 11.0989C29.4157 11.1425 29.4232 11.1861 29.4319 11.2294C29.4405 11.2728 29.4502 11.3159 29.4609 11.3587C29.4716 11.4016 29.4834 11.4442 29.4963 11.4865C29.5091 11.5288 29.5229 11.5707 29.5378 11.6123C29.5527 11.6539 29.5686 11.6951 29.5855 11.7359C29.6024 11.7767 29.6203 11.8171 29.6392 11.8571C29.6581 11.897 29.678 11.9365 29.6988 11.9754C29.7196 12.0144 29.7414 12.0529 29.7641 12.0908C29.7868 12.1287 29.8105 12.166 29.835 12.2027C29.8596 12.2394 29.885 12.2756 29.9113 12.311C29.9376 12.3466 29.9648 12.3814 29.9928 12.4155C30.0209 12.4497 30.0497 12.4831 30.0794 12.5159C30.1091 12.5486 30.1396 12.5806 30.1708 12.6118C30.202 12.6431 30.234 12.6736 30.2668 12.7033C30.2995 12.7329 30.333 12.7618 30.3671 12.7898C30.4013 12.8178 30.4361 12.845 30.4716 12.8713C30.5071 12.8977 30.5432 12.9231 30.58 12.9477C30.6167 12.9722 30.654 12.9958 30.6919 13.0185C30.7298 13.0412 30.7683 13.063 30.8072 13.0839C30.8462 13.1047 30.8856 13.1246 30.9256 13.1434C30.9655 13.1623 31.0059 13.1803 31.0467 13.1972C31.0876 13.2141 31.1288 13.23 31.1704 13.2448C31.212 13.2597 31.254 13.2736 31.2962 13.2864C31.3385 13.2993 31.3811 13.311 31.424 13.3218C31.4668 13.3325 31.5099 13.3422 31.5533 13.3508C31.5966 13.3594 31.6401 13.367 31.6838 13.3734C31.7275 13.3799 31.7714 13.3854 31.8153 13.3897C31.8593 13.394 31.9034 13.3973 31.9475 13.3994C31.9916 13.4016 32.0358 13.4027 32.08 13.4027C32.1242 13.4027 32.1683 13.4016 32.2125 13.3994C32.2566 13.3973 32.3007 13.394 32.3446 13.3897C32.3886 13.3854 32.4325 13.3799 32.4762 13.3734C32.5199 13.367 32.5634 13.3594 32.6068 13.3508C32.6501 13.3422 32.6932 13.3325 32.7361 13.3218C32.7789 13.311 32.8215 13.2993 32.8638 13.2864C32.9061 13.2736 32.948 13.2597 32.9896 13.2448C33.0312 13.23 33.0724 13.2141 33.1132 13.1972C33.1541 13.1803 33.1944 13.1623 33.2344 13.1434C33.2743 13.1246 33.3138 13.1047 33.3528 13.0839C33.3918 13.063 33.4302 13.0412 33.4681 13.0185C33.506 12.9958 33.5433 12.9722 33.58 12.9477C33.6168 12.9231 33.6529 12.8977 33.6884 12.8713C33.7239 12.845 33.7587 12.8178 33.7929 12.7898C33.827 12.7618 33.8605 12.7329 33.8932 12.7033C33.9259 12.6736 33.9579 12.6431 33.9892 12.6118C34.0204 12.5806 34.0509 12.5486 34.0806 12.5159C34.1102 12.4831 34.1391 12.4497 34.1671 12.4155C34.1951 12.3814 34.2223 12.3466 34.2487 12.311C34.275 12.2756 34.3004 12.2394 34.325 12.2027C34.3495 12.166 34.3731 12.1287 34.3959 12.0908C34.4186 12.0529 34.4404 12.0144 34.4612 11.9754C34.4821 11.9365 34.5019 11.897 34.5207 11.8571C34.5396 11.8171 34.5576 11.7767 34.5744 11.7359C34.5913 11.6951 34.6072 11.6539 34.6223 11.6123C34.637 11.5707 34.6508 11.5288 34.6637 11.4865C34.6766 11.4442 34.6885 11.4016 34.6993 11.3587C34.7098 11.3159 34.7194 11.2728 34.7281 11.2294C34.7368 11.1861 34.7444 11.1425 34.7509 11.0989C34.7573 11.0552 34.7626 11.0113 34.7671 10.9673C34.7713 10.9233 34.7745 10.8793 34.7766 10.8352C34.7789 10.791 34.7801 10.7469 34.7801 10.7027C34.7801 10.6585 34.7789 10.6143 34.7766 10.5702C34.7745 10.5261 34.7713 10.482 34.7671 10.438C34.7626 10.3941 34.7573 10.3502 34.7509 10.3065C34.7444 10.2628 34.7368 10.2193 34.7281 10.1759C34.7194 10.1326 34.7098 10.0895 34.6993 10.0466C34.6885 10.0038 34.6766 9.96119 34.6637 9.91891C34.6508 9.87663 34.637 9.83468 34.6223 9.79305C34.6072 9.75145 34.5913 9.71025 34.5744 9.66944C34.5576 9.62862 34.5396 9.58822 34.5207 9.54826C34.5019 9.50832 34.4821 9.46887 34.4612 9.42989C34.4404 9.39094 34.4186 9.35251 34.3959 9.31461C34.3731 9.27669 34.3495 9.23937 34.325 9.20264C34.3004 9.16589 34.275 9.12977 34.2487 9.09429C34.2223 9.0588 34.1951 9.02397 34.1671 8.9898C34.1391 8.95566 34.1102 8.92221 34.0806 8.88947C34.0509 8.85673 34.0204 8.82473 33.9892 8.79349C33.9579 8.76225 33.9259 8.73179 33.8932 8.70212C33.8605 8.67242 33.827 8.64356 33.7929 8.61553C33.7587 8.5875 33.7239 8.56032 33.6884 8.534C33.6529 8.50768 33.6168 8.48225 33.58 8.45771C33.5433 8.43315 33.506 8.40951 33.4681 8.3868C33.4302 8.36409 33.3918 8.34232 33.3528 8.32148C33.3138 8.30065 33.2743 8.28078 33.2344 8.26189C33.1945 8.243 33.1541 8.22511 33.1132 8.20821C33.0724 8.19129 33.0312 8.17538 32.9896 8.1605C32.948 8.14562 32.9061 8.13177 32.8638 8.11895C32.8215 8.1061 32.7789 8.09431 32.7361 8.08358C32.6932 8.07285 32.6501 8.06317 32.6068 8.05454C32.5634 8.04594 32.5199 8.03839 32.4762 8.0319C32.4325 8.02541 32.3886 8.01999 32.3446 8.01566C32.3007 8.01134 32.2566 8.0081 32.2125 8.00592C32.1683 8.00376 32.1242 8.00269 32.08 8.00269C32.0358 8.00269 31.9916 8.00376 31.9475 8.00592C31.9034 8.0081 31.8593 8.01134 31.8153 8.01566C31.7714 8.01999 31.7275 8.02541 31.6838 8.0319C31.6401 8.03837 31.5966 8.04591 31.5533 8.05454C31.5099 8.06317 31.4668 8.07285 31.424 8.08358C31.3811 8.09431 31.3385 8.1061 31.2962 8.11895C31.254 8.13177 31.212 8.14562 31.1704 8.1605C31.1288 8.17538 31.0876 8.19129 31.0467 8.20821C31.0059 8.22511 30.9655 8.243 30.9256 8.26189C30.8856 8.28078 30.8462 8.30065 30.8072 8.32148C30.7683 8.34232 30.7298 8.36409 30.6919 8.3868C30.654 8.40951 30.6167 8.43315 30.58 8.45771C30.5432 8.48225 30.5071 8.50768 30.4716 8.534C30.4361 8.56032 30.4013 8.5875 30.3671 8.61553C30.333 8.64356 30.2995 8.67242 30.2668 8.70212C30.234 8.73179 30.202 8.76225 30.1708 8.79349C30.1396 8.82473 30.1091 8.85673 30.0794 8.88947C30.0497 8.92221 30.0209 8.95566 29.9929 8.9898C29.9648 9.02397 29.9376 9.0588 29.9113 9.09429C29.885 9.12977 29.8596 9.16589 29.835 9.20264C29.8105 9.23937 29.7868 9.27669 29.7641 9.31461C29.7414 9.35251 29.7196 9.39094 29.6988 9.42989C29.678 9.46887 29.6581 9.50832 29.6392 9.54826C29.6203 9.58822 29.6024 9.62862 29.5855 9.66944C29.5686 9.71025 29.5527 9.75145 29.5378 9.79305C29.5229 9.83468 29.5091 9.87663 29.4963 9.91891C29.4834 9.96119 29.4716 10.0038 29.4609 10.0466C29.4502 10.0895 29.4405 10.1326 29.4319 10.1759C29.4232 10.2193 29.4157 10.2628 29.4092 10.3065C29.4027 10.3502 29.3973 10.3941 29.393 10.438C29.3887 10.482 29.3854 10.5261 29.3832 10.5702C29.3811 10.6143 29.38 10.6585 29.38 10.7027Z"></path><path id="路径 7" fill-rule="evenodd" fill="url(#linear_9)" opacity="1" d="M28 10.7026C28 10.7468 28.0011 10.791 28.0033 10.8351C28.0054 10.8792 28.0087 10.9233 28.013 10.9673C28.0173 11.0112 28.0228 11.0551 28.0293 11.0988C28.0357 11.1425 28.0433 11.186 28.0519 11.2294C28.0605 11.2727 28.0702 11.3158 28.0809 11.3587C28.0917 11.4015 28.1034 11.4441 28.1163 11.4864C28.1291 11.5287 28.143 11.5706 28.1579 11.6122C28.1727 11.6538 28.1886 11.6951 28.2055 11.7359C28.2224 11.7767 28.2404 11.8171 28.2592 11.857C28.2781 11.897 28.298 11.9364 28.3188 11.9754C28.3396 12.0144 28.3614 12.0528 28.3842 12.0907C28.4069 12.1286 28.4305 12.1659 28.455 12.2026C28.4796 12.2394 28.505 12.2755 28.5314 12.311C28.5577 12.3465 28.5848 12.3813 28.6129 12.4155C28.6409 12.4496 28.6698 12.4831 28.6994 12.5158C28.7291 12.5486 28.7596 12.5805 28.7908 12.6118C28.8221 12.6431 28.8541 12.6735 28.8868 12.7032C28.9196 12.7329 28.953 12.7617 28.9872 12.7898C29.0213 12.8178 29.0561 12.845 29.0916 12.8713C29.1271 12.8976 29.1632 12.923 29.2 12.9476C29.2367 12.9721 29.274 12.9958 29.3119 13.0185C29.3498 13.0412 29.3883 13.063 29.4272 13.0838C29.4662 13.1047 29.5057 13.1245 29.5456 13.1434C29.5855 13.1623 29.6259 13.1802 29.6668 13.1971C29.7076 13.214 29.7488 13.2299 29.7904 13.2448C29.832 13.2597 29.874 13.2735 29.9163 13.2864C29.9585 13.2992 30.0011 13.311 30.0439 13.3217C30.0868 13.3324 30.1299 13.3421 30.1733 13.3507C30.2166 13.3594 30.2601 13.3669 30.3038 13.3734C30.3475 13.3799 30.3914 13.3853 30.4354 13.3896C30.4793 13.394 30.5234 13.3972 30.5675 13.3994C30.6117 13.4015 30.6558 13.4026 30.7 13.4026C30.7442 13.4026 30.7884 13.4015 30.8325 13.3994C30.8766 13.3972 30.9207 13.394 30.9647 13.3896C31.0086 13.3853 31.0525 13.3799 31.0962 13.3734C31.1399 13.3669 31.1834 13.3594 31.2267 13.3507C31.2701 13.3421 31.3132 13.3324 31.3561 13.3217C31.3989 13.311 31.4415 13.2992 31.4838 13.2864C31.5261 13.2735 31.568 13.2597 31.6096 13.2448C31.6512 13.2299 31.6924 13.214 31.7332 13.1971C31.7741 13.1802 31.8145 13.1623 31.8544 13.1434C31.8944 13.1245 31.9338 13.1047 31.9728 13.0838C32.0117 13.063 32.0502 13.0412 32.0881 13.0185C32.126 12.9958 32.1633 12.9721 32.2 12.9476C32.2368 12.923 32.2729 12.8976 32.3084 12.8713C32.3439 12.845 32.3787 12.8178 32.4129 12.7898C32.447 12.7617 32.4805 12.7329 32.5132 12.7032C32.546 12.6735 32.5779 12.6431 32.6092 12.6118C32.6404 12.5805 32.6709 12.5486 32.7006 12.5158C32.7302 12.4831 32.7591 12.4496 32.7872 12.4155C32.8152 12.3813 32.8424 12.3465 32.8687 12.311C32.895 12.2755 32.9204 12.2394 32.945 12.2026C32.9695 12.1659 32.9932 12.1286 33.0159 12.0907C33.0386 12.0528 33.0604 12.0144 33.0812 11.9754C33.1021 11.9364 33.1219 11.897 33.1408 11.857C33.1597 11.8171 33.1776 11.7767 33.1945 11.7359C33.2114 11.6951 33.2273 11.6538 33.2422 11.6122C33.2571 11.5706 33.2709 11.5287 33.2837 11.4864C33.2966 11.4441 33.3084 11.4015 33.3191 11.3587C33.3298 11.3158 33.3395 11.2727 33.3481 11.2294C33.3568 11.186 33.3643 11.1425 33.3708 11.0988C33.3773 11.0551 33.3827 11.0112 33.387 10.9673C33.3914 10.9233 33.3946 10.8792 33.3968 10.8351C33.3989 10.791 33.4 10.7468 33.4 10.7026C33.4 10.6584 33.399 10.6142 33.3969 10.5701C33.3948 10.5259 33.3916 10.4818 33.3873 10.4378C33.3829 10.3938 33.3776 10.3499 33.3711 10.3062C33.3647 10.2624 33.3572 10.2189 33.3486 10.1755C33.34 10.1321 33.3304 10.089 33.3196 10.0461C33.3089 10.0032 33.2972 9.96059 33.2844 9.91827C33.2716 9.87594 33.2578 9.83396 33.2429 9.79234C33.228 9.75069 33.2122 9.70944 33.1953 9.66859C33.1783 9.62771 33.1605 9.58728 33.1416 9.5473C33.1227 9.50731 33.1029 9.46782 33.082 9.42882C33.0612 9.38982 33.0395 9.35135 33.0168 9.3134C32.9941 9.27546 32.9705 9.2381 32.9459 9.20132C32.9213 9.16455 32.8959 9.1284 32.8696 9.09287C32.8433 9.05733 32.8161 9.02247 32.7881 8.98828C32.7601 8.95408 32.7312 8.9206 32.7015 8.88784C32.6718 8.85505 32.6414 8.82301 32.6101 8.79172C32.5789 8.76045 32.5469 8.72996 32.5141 8.70024C32.4814 8.67055 32.4479 8.64166 32.4138 8.61358C32.3796 8.58553 32.3448 8.55833 32.3093 8.53198C32.2738 8.50562 32.2376 8.48014 32.2009 8.45555C32.1642 8.43099 32.1268 8.40733 32.0889 8.38457C32.0509 8.36184 32.0125 8.34004 31.9735 8.31918C31.9345 8.29832 31.8951 8.27844 31.8551 8.25952C31.8151 8.24061 31.7747 8.22269 31.7339 8.20577C31.693 8.18885 31.6518 8.17293 31.6102 8.15803C31.5685 8.14312 31.5266 8.12925 31.4843 8.1164C31.442 8.10356 31.3994 8.09176 31.3565 8.081C31.3136 8.07024 31.2705 8.06055 31.2271 8.05193C31.1837 8.0433 31.1402 8.03574 31.0964 8.02925C31.0527 8.02276 31.0088 8.01734 30.9648 8.01301C30.9208 8.00867 30.8768 8.00541 30.8326 8.00323C30.7884 8.00108 30.7442 8 30.7 8C30.6558 8 30.6116 8.00108 30.5675 8.00323C30.5233 8.00541 30.4792 8.00867 30.4352 8.01301C30.3912 8.01734 30.3473 8.02276 30.3036 8.02925C30.2599 8.03574 30.2163 8.0433 30.1729 8.05193C30.1296 8.06055 30.0865 8.07024 30.0436 8.081C30.0007 8.09176 29.9581 8.10356 29.9158 8.1164C29.8735 8.12925 29.8315 8.14312 29.7899 8.15803C29.7483 8.17293 29.707 8.18885 29.6662 8.20577C29.6253 8.22269 29.5849 8.24061 29.5449 8.25952C29.505 8.27844 29.4655 8.29832 29.4265 8.31918C29.3875 8.34004 29.3491 8.36184 29.3112 8.38457C29.2733 8.40733 29.2359 8.43099 29.1991 8.45555C29.1624 8.48014 29.1263 8.50562 29.0908 8.53198C29.0553 8.55833 29.0204 8.58553 28.9863 8.61358C28.9521 8.64166 28.9186 8.67055 28.8859 8.70024C28.8532 8.72996 28.8212 8.76045 28.7899 8.79172C28.7586 8.82301 28.7282 8.85505 28.6985 8.88784C28.6688 8.9206 28.64 8.95408 28.612 8.98828C28.5839 9.02247 28.5568 9.05733 28.5304 9.09287C28.5041 9.1284 28.4787 9.16455 28.4541 9.20132C28.4296 9.2381 28.406 9.27546 28.3833 9.3134C28.3606 9.35135 28.3388 9.38982 28.318 9.42882C28.2972 9.46782 28.2773 9.50731 28.2584 9.5473C28.2396 9.58728 28.2217 9.62771 28.2048 9.66859C28.1879 9.70944 28.172 9.75069 28.1572 9.79234C28.1423 9.83396 28.1285 9.87594 28.1157 9.91827C28.1029 9.96059 28.0911 10.0032 28.0804 10.0461C28.0697 10.089 28.06 10.1321 28.0514 10.1755C28.0429 10.2189 28.0353 10.2624 28.0289 10.3062C28.0225 10.3499 28.0171 10.3938 28.0128 10.4378C28.0085 10.4818 28.0053 10.5259 28.0032 10.5701C28.001 10.6142 28 10.6584 28 10.7026Z"></path><path id="路径 7" fill-rule="evenodd" fill="url(#linear_10)" opacity="1" d="M28 10.7026C28 10.7468 28.0011 10.791 28.0033 10.8351C28.0054 10.8792 28.0087 10.9233 28.013 10.9673C28.0173 11.0112 28.0228 11.0551 28.0293 11.0988C28.0357 11.1425 28.0433 11.186 28.0519 11.2294C28.0605 11.2727 28.0702 11.3158 28.0809 11.3587C28.0917 11.4015 28.1034 11.4441 28.1163 11.4864C28.1291 11.5287 28.143 11.5706 28.1579 11.6122C28.1727 11.6538 28.1886 11.6951 28.2055 11.7359C28.2224 11.7767 28.2404 11.8171 28.2592 11.857C28.2781 11.897 28.298 11.9364 28.3188 11.9754C28.3396 12.0144 28.3614 12.0528 28.3842 12.0907C28.4069 12.1286 28.4305 12.1659 28.455 12.2026C28.4796 12.2394 28.505 12.2755 28.5314 12.311C28.5577 12.3465 28.5848 12.3813 28.6129 12.4155C28.6409 12.4496 28.6698 12.4831 28.6994 12.5158C28.7291 12.5486 28.7596 12.5805 28.7908 12.6118C28.8221 12.6431 28.8541 12.6735 28.8868 12.7032C28.9196 12.7329 28.953 12.7617 28.9872 12.7898C29.0213 12.8178 29.0561 12.845 29.0916 12.8713C29.1271 12.8976 29.1632 12.923 29.2 12.9476C29.2367 12.9721 29.274 12.9958 29.3119 13.0185C29.3498 13.0412 29.3883 13.063 29.4272 13.0838C29.4662 13.1047 29.5057 13.1245 29.5456 13.1434C29.5855 13.1623 29.6259 13.1802 29.6668 13.1971C29.7076 13.214 29.7488 13.2299 29.7904 13.2448C29.832 13.2597 29.874 13.2735 29.9163 13.2864C29.9585 13.2992 30.0011 13.311 30.0439 13.3217C30.0868 13.3324 30.1299 13.3421 30.1733 13.3507C30.2166 13.3594 30.2601 13.3669 30.3038 13.3734C30.3475 13.3799 30.3914 13.3853 30.4354 13.3896C30.4793 13.394 30.5234 13.3972 30.5675 13.3994C30.6117 13.4015 30.6558 13.4026 30.7 13.4026C30.7442 13.4026 30.7884 13.4015 30.8325 13.3994C30.8766 13.3972 30.9207 13.394 30.9647 13.3896C31.0086 13.3853 31.0525 13.3799 31.0962 13.3734C31.1399 13.3669 31.1834 13.3594 31.2267 13.3507C31.2701 13.3421 31.3132 13.3324 31.3561 13.3217C31.3989 13.311 31.4415 13.2992 31.4838 13.2864C31.5261 13.2735 31.568 13.2597 31.6096 13.2448C31.6512 13.2299 31.6924 13.214 31.7332 13.1971C31.7741 13.1802 31.8145 13.1623 31.8544 13.1434C31.8944 13.1245 31.9338 13.1047 31.9728 13.0838C32.0117 13.063 32.0502 13.0412 32.0881 13.0185C32.126 12.9958 32.1633 12.9721 32.2 12.9476C32.2368 12.923 32.2729 12.8976 32.3084 12.8713C32.3439 12.845 32.3787 12.8178 32.4129 12.7898C32.447 12.7617 32.4805 12.7329 32.5132 12.7032C32.546 12.6735 32.5779 12.6431 32.6092 12.6118C32.6404 12.5805 32.6709 12.5486 32.7006 12.5158C32.7302 12.4831 32.7591 12.4496 32.7872 12.4155C32.8152 12.3813 32.8424 12.3465 32.8687 12.311C32.895 12.2755 32.9204 12.2394 32.945 12.2026C32.9695 12.1659 32.9932 12.1286 33.0159 12.0907C33.0386 12.0528 33.0604 12.0144 33.0812 11.9754C33.1021 11.9364 33.1219 11.897 33.1408 11.857C33.1597 11.8171 33.1776 11.7767 33.1945 11.7359C33.2114 11.6951 33.2273 11.6538 33.2422 11.6122C33.2571 11.5706 33.2709 11.5287 33.2837 11.4864C33.2966 11.4441 33.3084 11.4015 33.3191 11.3587C33.3298 11.3158 33.3395 11.2727 33.3481 11.2294C33.3568 11.186 33.3643 11.1425 33.3708 11.0988C33.3773 11.0551 33.3827 11.0112 33.387 10.9673C33.3914 10.9233 33.3946 10.8792 33.3968 10.8351C33.3989 10.791 33.4 10.7468 33.4 10.7026C33.4 10.6584 33.399 10.6142 33.3969 10.5701C33.3948 10.5259 33.3916 10.4818 33.3873 10.4378C33.3829 10.3938 33.3776 10.3499 33.3711 10.3062C33.3647 10.2624 33.3572 10.2189 33.3486 10.1755C33.34 10.1321 33.3304 10.089 33.3196 10.0461C33.3089 10.0032 33.2972 9.96059 33.2844 9.91827C33.2716 9.87594 33.2578 9.83396 33.2429 9.79234C33.228 9.75069 33.2122 9.70944 33.1953 9.66859C33.1783 9.62771 33.1605 9.58728 33.1416 9.5473C33.1227 9.50731 33.1029 9.46782 33.082 9.42882C33.0612 9.38982 33.0395 9.35135 33.0168 9.3134C32.9941 9.27546 32.9705 9.2381 32.9459 9.20132C32.9213 9.16455 32.8959 9.1284 32.8696 9.09287C32.8433 9.05733 32.8161 9.02247 32.7881 8.98828C32.7601 8.95408 32.7312 8.9206 32.7015 8.88784C32.6718 8.85505 32.6414 8.82301 32.6101 8.79172C32.5789 8.76045 32.5469 8.72996 32.5141 8.70024C32.4814 8.67055 32.4479 8.64166 32.4138 8.61358C32.3796 8.58553 32.3448 8.55833 32.3093 8.53198C32.2738 8.50562 32.2376 8.48014 32.2009 8.45555C32.1642 8.43099 32.1268 8.40733 32.0889 8.38457C32.0509 8.36184 32.0125 8.34004 31.9735 8.31918C31.9345 8.29832 31.8951 8.27844 31.8551 8.25952C31.8151 8.24061 31.7747 8.22269 31.7339 8.20577C31.693 8.18885 31.6518 8.17293 31.6102 8.15803C31.5685 8.14312 31.5266 8.12925 31.4843 8.1164C31.442 8.10356 31.3994 8.09176 31.3565 8.081C31.3136 8.07024 31.2705 8.06055 31.2271 8.05193C31.1837 8.0433 31.1402 8.03574 31.0964 8.02925C31.0527 8.02276 31.0088 8.01734 30.9648 8.01301C30.9208 8.00867 30.8768 8.00541 30.8326 8.00323C30.7884 8.00108 30.7442 8 30.7 8C30.6558 8 30.6116 8.00108 30.5675 8.00323C30.5233 8.00541 30.4792 8.00867 30.4352 8.01301C30.3912 8.01734 30.3473 8.02276 30.3036 8.02925C30.2599 8.03574 30.2163 8.0433 30.1729 8.05193C30.1296 8.06055 30.0865 8.07024 30.0436 8.081C30.0007 8.09176 29.9581 8.10356 29.9158 8.1164C29.8735 8.12925 29.8315 8.14312 29.7899 8.15803C29.7483 8.17293 29.707 8.18885 29.6662 8.20577C29.6253 8.22269 29.5849 8.24061 29.5449 8.25952C29.505 8.27844 29.4655 8.29832 29.4265 8.31918C29.3875 8.34004 29.3491 8.36184 29.3112 8.38457C29.2733 8.40733 29.2359 8.43099 29.1991 8.45555C29.1624 8.48014 29.1263 8.50562 29.0908 8.53198C29.0553 8.55833 29.0204 8.58553 28.9863 8.61358C28.9521 8.64166 28.9186 8.67055 28.8859 8.70024C28.8532 8.72996 28.8212 8.76045 28.7899 8.79172C28.7586 8.82301 28.7282 8.85505 28.6985 8.88784C28.6688 8.9206 28.64 8.95408 28.612 8.98828C28.5839 9.02247 28.5568 9.05733 28.5304 9.09287C28.5041 9.1284 28.4787 9.16455 28.4541 9.20132C28.4296 9.2381 28.406 9.27546 28.3833 9.3134C28.3606 9.35135 28.3388 9.38982 28.318 9.42882C28.2972 9.46782 28.2773 9.50731 28.2584 9.5473C28.2396 9.58728 28.2217 9.62771 28.2048 9.66859C28.1879 9.70944 28.172 9.75069 28.1572 9.79234C28.1423 9.83396 28.1285 9.87594 28.1157 9.91827C28.1029 9.96059 28.0911 10.0032 28.0804 10.0461C28.0697 10.089 28.06 10.1321 28.0514 10.1755C28.0429 10.2189 28.0353 10.2624 28.0289 10.3062C28.0225 10.3499 28.0171 10.3938 28.0128 10.4378C28.0085 10.4818 28.0053 10.5259 28.0032 10.5701C28.001 10.6142 28 10.6584 28 10.7026Z"></path></g></g><defs><rect id="path_0" x="0" y="0" width="36" height="36" rx="0" ry="0"/><linearGradient id="linear_0" x1="29.11900863386589%" y1="5.169204491319128%" x2="83.92300903995222%" y2="62.989477019684955%" gradientUnits="objectBoundingBox"><stop offset="0" stop-color="#E8F8FA" stop-opacity="0.9" /><stop offset="1" stop-color="#BADEF7" stop-opacity="1" /></linearGradient><linearGradient id="linear_1" x1="80.91955653970194%" y1="13.935026372865188%" x2="20.632611612071404%" y2="92.94617590615914%" gradientUnits="objectBoundingBox"><stop offset="0" stop-color="#57DDFF" stop-opacity="1" /><stop offset="1" stop-color="#1692F7" stop-opacity="1" /></linearGradient><rect id="path_1" x="0" y="0" width="19" height="19" rx="0" ry="0"/><linearGradient id="linear_2" x1="29.119002177206294%" y1="5.169204491319128%" x2="83.92301952936425%" y2="62.989477019684955%" gradientUnits="objectBoundingBox"><stop offset="0" stop-color="#E8F8FA" stop-opacity="0.9" /><stop offset="1" stop-color="#BADEF7" stop-opacity="1" /></linearGradient><linearGradient id="linear_3" x1="29.119040985991045%" y1="5.169204491319128%" x2="83.92295648107631%" y2="62.989477019684955%" gradientUnits="objectBoundingBox"><stop offset="0" stop-color="#E8F8FA" stop-opacity="0.9" /><stop offset="1" stop-color="#BADEF7" stop-opacity="1" /></linearGradient><linearGradient id="linear_4" x1="29.11892212052281%" y1="5.169204491319128%" x2="83.92314958849555%" y2="62.989477019684955%" gradientUnits="objectBoundingBox"><stop offset="0" stop-color="#E8F8FA" stop-opacity="0.9" /><stop offset="1" stop-color="#BADEF7" stop-opacity="1" /></linearGradient><linearGradient id="linear_5" x1="29.11889775021688%" y1="5.169204491319128%" x2="83.92318918020332%" y2="62.989477019684955%" gradientUnits="objectBoundingBox"><stop offset="0" stop-color="#E8F8FA" stop-opacity="0.9" /><stop offset="1" stop-color="#BADEF7" stop-opacity="1" /></linearGradient><linearGradient id="linear_6" x1="29.11900271763141%" y1="5.169204491319128%" x2="83.92301865139608%" y2="62.989477019684955%" gradientUnits="objectBoundingBox"><stop offset="0" stop-color="#E8F8FA" stop-opacity="0.9" /><stop offset="1" stop-color="#BADEF7" stop-opacity="1" /></linearGradient><rect id="path_2" x="0" y="0" width="19" height="19" rx="0" ry="0"/><linearGradient id="linear_7" x1="29.118988206110814%" y1="5.169204491319128%" x2="83.923042226639%" y2="62.989477019684955%" gradientUnits="objectBoundingBox"><stop offset="0" stop-color="#E8F8FA" stop-opacity="0.9" /><stop offset="1" stop-color="#BADEF7" stop-opacity="1" /></linearGradient><linearGradient id="linear_8" x1="39.928027139399035%" y1="17.244%" x2="88.17889712518706%" y2="85.071%" gradientUnits="objectBoundingBox"><stop offset="0" stop-color="#FAD7EA" stop-opacity="0.18" /><stop offset="1" stop-color="#D9BFCA" stop-opacity="0.2" /></linearGradient><linearGradient id="linear_9" x1="35.65095303143242%" y1="38.03640723644769%" x2="100.00028253338388%" y2="100.00013980735723%" gradientUnits="objectBoundingBox"><stop offset="0" stop-color="#FAEDF2" stop-opacity="0.96" /><stop offset="1" stop-color="#FCCFDD" stop-opacity="1" /></linearGradient><linearGradient id="linear_10" x1="80.92118616831941%" y1="13.935019482155228%" x2="20.632888819722528%" y2="92.94612994534626%" gradientUnits="objectBoundingBox"><stop offset="0" stop-color="#FF57A5" stop-opacity="1" /><stop offset="1" stop-color="#FC2828" stop-opacity="1" /></linearGradient></defs></svg>