<svg xmlns="http://www.w3.org/2000/svg" xmlns:xlink="http://www.w3.org/1999/xlink" width="60" height="60" viewBox="0 0 60 60" fill="none"><g opacity="1"  transform="translate(0 0)"><mask id="bg-mask-0" fill="white"><use transform="translate(0 0)" xlink:href="#path_0"></use></mask><g mask="url(#bg-mask-0)" ><path id="路径 1" fill-rule="evenodd" fill="url(#linear_0)" opacity="1" d="M9.79982 43.5L52.1998 43.5L57.5998 50.9C59.5997 53.7 58.4998 56 54.9999 56L6.49982 56C3.09985 56 1.99984 53.8 3.99985 51L9.79982 43.5Z"></path><path id="路径 2" fill-rule="evenodd" style="fill:#DAE9FF" opacity="1" d="M16.99 8.33337L40.9337 8.33337C44.0261 8.33337 46.5 11.0529 46.5 14.4523L46.5 43.8812C46.5 47.2806 44.0261 50.0001 40.9337 50.0001L16.99 50.0001C13.8976 50.0001 11.4237 47.2806 11.4237 43.8812L11.4237 14.4523C11.4237 11.0529 13.8976 8.33337 16.99 8.33337Z"></path><path id="路径 3" fill-rule="evenodd" fill="url(#linear_1)" opacity="1" d="M15.3995 8.33337L39.4316 8.33337C42.524 8.33337 44.9979 11.0529 44.9979 14.4523L44.9979 43.8812C44.9979 47.2806 42.524 50.0001 39.4316 50.0001L15.3995 50.0001C12.3072 50.0001 9.83325 47.2806 9.83325 43.8812L9.83325 14.4523C9.83325 11.0529 12.3072 8.33337 15.3995 8.33337Z"></path><path id="路径 4" fill-rule="evenodd" fill="url(#linear_2)" opacity="1" d="M56.1002 52L55.1002 51C56.3002 49.4 57.0002 47.4 57.0002 45.2C57.0002 39.8 52.6002 35.4 47.1002 35.4C41.6002 35.4 37.2002 39.8 37.2002 45.2C37.2002 50.6 41.6002 55.0001 47.1002 55.0001C49.3002 55.0001 50.7002 54.5 52.4002 53.3L53.5002 54.3C54.1002 54.9 55.3002 54.9 55.8002 54.3C56.4002 53.8 56.7002 52.8 56.1002 52Z"></path><path id="路径 5" fill-rule="evenodd" fill="url(#linear_3)" opacity="1" d="M54.5999 51.3999L53.2999 50.0999C54.4999 48.4999 55.1999 46.5 55.1999 44.2999C55.1999 38.8999 50.7999 34.4999 45.2999 34.4999C39.7999 34.4999 35.3999 38.8999 35.3999 44.2999C35.3999 49.6999 39.7999 54.0999 45.2999 54.0999C47.4999 54.0999 49.4999 53.2999 51.0999 52.1999L52.3999 53.4999C52.9999 54.0999 53.8999 54.0999 54.4999 53.4999C55.0999 52.8999 55.0999 51.9999 54.5999 51.3999Z"></path><path id="路径 5" fill-rule="evenodd" fill="url(#linear_4)" opacity="1" d="M54.5999 51.3999L53.2999 50.0999C54.4999 48.4999 55.1999 46.5 55.1999 44.2999C55.1999 38.8999 50.7999 34.4999 45.2999 34.4999C39.7999 34.4999 35.3999 38.8999 35.3999 44.2999C35.3999 49.6999 39.7999 54.0999 45.2999 54.0999C47.4999 54.0999 49.4999 53.2999 51.0999 52.1999L52.3999 53.4999C52.9999 54.0999 53.8999 54.0999 54.4999 53.4999C55.0999 52.8999 55.0999 51.9999 54.5999 51.3999Z"></path><path id="路径 6" fill-rule="evenodd" style="fill:#FFFFFF" opacity="1" d="M39.0999 44.2C39.0999 44.2998 39.1023 44.3996 39.1073 44.4993C39.1123 44.599 39.1198 44.6986 39.1297 44.7979C39.1396 44.8972 39.1521 44.9963 39.1669 45.095C39.1818 45.1937 39.1992 45.2921 39.219 45.39C39.2388 45.4879 39.261 45.5853 39.2857 45.6821C39.3103 45.779 39.3374 45.8752 39.3668 45.9707C39.3963 46.0663 39.4281 46.161 39.4623 46.255C39.4964 46.349 39.5329 46.4421 39.5718 46.5343C39.6106 46.6266 39.6517 46.7178 39.6951 46.8081C39.7385 46.8983 39.7841 46.9874 39.8319 47.0755C39.8797 47.1636 39.9297 47.2504 39.9819 47.336C40.0341 47.4216 40.0883 47.5059 40.1447 47.5889C40.2011 47.672 40.2595 47.7535 40.32 47.8337C40.3804 47.914 40.4428 47.9926 40.5072 48.0698C40.5715 48.1469 40.6378 48.2225 40.7059 48.2965C40.7741 48.3705 40.844 48.4427 40.9158 48.5133C40.9875 48.5839 41.061 48.6527 41.1362 48.7197C41.2114 48.7868 41.2882 48.852 41.3666 48.9153C41.445 48.9787 41.525 49.0401 41.6065 49.0995C41.688 49.159 41.7709 49.2164 41.8553 49.2719C41.9397 49.3274 42.0254 49.3808 42.1124 49.4321C42.1994 49.4835 42.2877 49.5326 42.3772 49.5797C42.4667 49.6267 42.5573 49.6716 42.649 49.7143C42.7407 49.757 42.8334 49.7975 42.9272 49.8357C43.0209 49.8739 43.1156 49.9098 43.2111 49.9434C43.3066 49.9771 43.403 50.0083 43.5001 50.0373C43.5972 50.0663 43.6949 50.0929 43.7933 50.1171C43.8918 50.1414 43.9907 50.1633 44.0903 50.1828C44.1898 50.2022 44.2897 50.2193 44.3901 50.2339C44.4905 50.2486 44.5911 50.2608 44.6921 50.2706C44.7931 50.2804 44.8943 50.2877 44.9956 50.2926C45.0969 50.2975 45.1983 50.3 45.2998 50.3C45.4013 50.3 45.5027 50.2975 45.6041 50.2926C45.7054 50.2877 45.8066 50.2804 45.9075 50.2706C46.0085 50.2608 46.1092 50.2486 46.2096 50.2339C46.3099 50.2193 46.4098 50.2022 46.5094 50.1828C46.6089 50.1633 46.7079 50.1414 46.8063 50.1171C46.9047 50.0929 47.0025 50.0663 47.0996 50.0373C47.1967 50.0083 47.293 49.9771 47.3885 49.9434C47.4841 49.9097 47.5787 49.8738 47.6725 49.8357C47.7662 49.7974 47.859 49.757 47.9507 49.7143C48.0424 49.6716 48.133 49.6267 48.2225 49.5797C48.312 49.5326 48.4003 49.4835 48.4873 49.4321C48.5743 49.3808 48.66 49.3274 48.7444 49.2719C48.8287 49.2164 48.9117 49.159 48.9932 49.0995C49.0747 49.0401 49.1546 48.9787 49.2331 48.9153C49.3115 48.852 49.3883 48.7868 49.4635 48.7197C49.5387 48.6527 49.6122 48.5839 49.6839 48.5133C49.7557 48.4427 49.8256 48.3705 49.8937 48.2965C49.9618 48.2225 50.0281 48.1469 50.0925 48.0698C50.1569 47.9926 50.2193 47.914 50.2797 47.8337C50.3401 47.7535 50.3985 47.672 50.4549 47.5889C50.5113 47.5059 50.5656 47.4216 50.6177 47.336C50.6699 47.2504 50.7199 47.1636 50.7677 47.0755C50.8156 46.9874 50.8611 46.8983 50.9046 46.8081C50.948 46.7178 50.9891 46.6266 51.0279 46.5343C51.0667 46.4421 51.1033 46.349 51.1374 46.255C51.1716 46.161 51.2034 46.0663 51.2329 45.9707C51.2623 45.8752 51.2893 45.779 51.314 45.6821C51.3387 45.5853 51.3609 45.4879 51.3807 45.39C51.4005 45.2921 51.4178 45.1937 51.4327 45.095C51.4476 44.9963 51.46 44.8972 51.47 44.7979C51.4799 44.6986 51.4874 44.599 51.4924 44.4993C51.4974 44.3996 51.4998 44.2998 51.4998 44.2C51.4998 44.1002 51.4974 44.0004 51.4924 43.9006C51.4874 43.801 51.4799 43.7014 51.47 43.602C51.46 43.5027 51.4476 43.4037 51.4327 43.3049C51.4178 43.2062 51.4005 43.1078 51.3807 43.0099C51.3609 42.912 51.3387 42.8146 51.314 42.7178C51.2893 42.621 51.2623 42.5248 51.2329 42.4292C51.2034 42.3337 51.1716 42.2389 51.1374 42.1449C51.1033 42.051 51.0667 41.9578 51.0279 41.8656C50.9891 41.7734 50.948 41.6821 50.9046 41.5919C50.8611 41.5016 50.8156 41.4125 50.7677 41.3244C50.7199 41.2364 50.6699 41.1496 50.6177 41.0639C50.5656 40.9783 50.5113 40.894 50.4549 40.811C50.3985 40.728 50.3401 40.6464 50.2797 40.5662C50.2193 40.486 50.1569 40.4074 50.0925 40.3302C50.0281 40.253 49.9618 40.1774 49.8937 40.1035C49.8256 40.0295 49.7557 39.9572 49.6839 39.8866C49.6122 39.816 49.5387 39.7472 49.4635 39.6802C49.3883 39.6131 49.3115 39.5479 49.2331 39.4846C49.1546 39.4213 49.0747 39.3599 48.9932 39.3004C48.9117 39.2409 48.8287 39.1835 48.7444 39.128C48.66 39.0725 48.5743 39.0191 48.4873 38.9678C48.4003 38.9165 48.312 38.8673 48.2225 38.8203C48.133 38.7732 48.0424 38.7283 47.9507 38.6856C47.859 38.643 47.7662 38.6025 47.6725 38.5643C47.5787 38.5261 47.4841 38.4902 47.3885 38.4566C47.293 38.4229 47.1967 38.3916 47.0996 38.3627C47.0025 38.3337 46.9047 38.307 46.8063 38.2828C46.7079 38.2585 46.6089 38.2367 46.5094 38.2172C46.4098 38.1977 46.3099 38.1807 46.2096 38.166C46.1092 38.1514 46.0085 38.1391 45.9075 38.1293C45.8066 38.1196 45.7054 38.1122 45.6041 38.1073C45.5027 38.1024 45.4013 38.1 45.2998 38.1C45.1983 38.1 45.0969 38.1024 44.9956 38.1073C44.8943 38.1122 44.7931 38.1196 44.6921 38.1293C44.5911 38.1391 44.4905 38.1514 44.3901 38.166C44.2897 38.1807 44.1898 38.1977 44.0903 38.2172C43.9907 38.2367 43.8918 38.2585 43.7933 38.2828C43.6949 38.307 43.5972 38.3337 43.5001 38.3627C43.403 38.3916 43.3066 38.4229 43.2111 38.4566C43.1156 38.4902 43.0209 38.5261 42.9272 38.5643C42.8334 38.6025 42.7407 38.643 42.649 38.6856C42.5573 38.7283 42.4667 38.7732 42.3772 38.8203C42.2877 38.8673 42.1994 38.9165 42.1124 38.9678C42.0254 39.0191 41.9397 39.0725 41.8553 39.128C41.7709 39.1835 41.688 39.2409 41.6065 39.3004C41.525 39.3599 41.445 39.4213 41.3666 39.4846C41.2882 39.5479 41.2114 39.6131 41.1362 39.6802C41.061 39.7472 40.9875 39.816 40.9158 39.8866C40.844 39.9572 40.7741 40.0295 40.7059 40.1035C40.6378 40.1774 40.5715 40.253 40.5072 40.3302C40.4428 40.4074 40.3804 40.486 40.32 40.5662C40.2595 40.6464 40.2011 40.728 40.1447 40.811C40.0883 40.894 40.0341 40.9783 39.9819 41.0639C39.9297 41.1496 39.8797 41.2364 39.8319 41.3244C39.7841 41.4125 39.7385 41.5016 39.6951 41.5919C39.6517 41.6821 39.6106 41.7734 39.5718 41.8656C39.5329 41.9578 39.4964 42.051 39.4623 42.1449C39.4281 42.2389 39.3963 42.3337 39.3668 42.4292C39.3374 42.5248 39.3103 42.621 39.2857 42.7178C39.261 42.8146 39.2388 42.912 39.219 43.0099C39.1992 43.1078 39.1818 43.2062 39.1669 43.3049C39.1521 43.4037 39.1396 43.5027 39.1297 43.602C39.1198 43.7014 39.1123 43.801 39.1073 43.9006C39.1023 44.0004 39.0999 44.1002 39.0999 44.2Z"></path><path id="路径 7" fill-rule="evenodd" style="fill:#DB344E" opacity="0.3" d="M48.7998 46.3L48.5999 46.3C48.0999 46.2 47.7999 45.7 47.8998 45.1999C47.9999 44.8 48.0999 44.5 48.0999 44.1C48.0999 43.3999 47.8998 42.7999 47.4999 42.1999C47.1999 41.8 47.2998 41.2 47.6999 40.9C48.0999 40.6 48.6999 40.6999 48.9999 41.1C49.5999 42 49.9998 43 49.9998 43.9999C49.9998 44.5999 49.8999 45.1 49.7999 45.4999C49.5999 46 49.1999 46.3 48.7998 46.3Z"></path><path id="路径 7" fill-rule="evenodd" fill="url(#linear_5)" opacity="1" d="M48.7998 46.3L48.5999 46.3C48.0999 46.2 47.7999 45.7 47.8998 45.1999C47.9999 44.8 48.0999 44.5 48.0999 44.1C48.0999 43.3999 47.8998 42.7999 47.4999 42.1999C47.1999 41.8 47.2998 41.2 47.6999 40.9C48.0999 40.6 48.6999 40.6999 48.9999 41.1C49.5999 42 49.9998 43 49.9998 43.9999C49.9998 44.5999 49.8999 45.1 49.7999 45.4999C49.5999 46 49.1999 46.3 48.7998 46.3Z"></path><path id="路径 8" fill-rule="evenodd" style="fill:#FFFFFF" opacity="0.5" d="M37.0462 21.1L19.2871 21.1C18.492 21.1 17.7852 21.8 17.7852 22.7C17.7852 23.6 18.4036 24.3 19.2871 24.3L37.0462 24.3C37.8413 24.3 38.5482 23.6 38.5482 22.7C38.5482 21.8 37.8413 21.1 37.0462 21.1Z"></path><path id="路径 9" fill-rule="evenodd" style="fill:#FFFFFF" opacity="1" d="M36.1628 20.2L18.4921 20.2C17.6969 20.2 16.9901 20.8999 16.9901 21.7999C16.9901 22.6999 17.6086 23.3999 18.4921 23.3999L36.1628 23.3999C36.958 23.3999 37.6648 22.6999 37.6648 21.7999C37.5764 20.8999 36.958 20.2 36.1628 20.2Z"></path><path id="路径 10" fill-rule="evenodd" style="fill:#FFFFFF" opacity="0.5" d="M36.9578 30.9001L19.2871 30.9001C18.492 30.9001 17.7852 31.6001 17.7852 32.5001C17.7852 33.4001 18.4036 34.1001 19.2871 34.1001L36.9578 34.1001C37.753 34.1001 38.4598 33.4001 38.4598 32.5001C38.3715 31.7001 37.753 30.9001 36.9578 30.9001Z"></path><path id="路径 11" fill-rule="evenodd" style="fill:#FFFFFF" opacity="1" d="M36.1628 30.1001L18.4921 30.1001C17.6969 30.1001 16.9901 30.8001 16.9901 31.7001C16.9901 32.6001 17.6086 33.3001 18.4921 33.3001L36.1628 33.3001C36.958 33.3001 37.6648 32.6001 37.6648 31.7001C37.5764 30.8001 36.958 30.1001 36.1628 30.1001Z"></path><path id="路径 13" fill-rule="evenodd" style="fill:#000000" opacity="0.2" d="M37.5066 12.3647C38.0066 11.7647 38.3366 10.9647 38.3366 10.0647L38.3366 9.96466C38.3366 9.37466 38.1966 8.81466 37.9666 8.33466L22.0266 8.34466C21.7966 8.82466 21.6666 9.38466 21.6666 9.96466C21.6666 11.7647 22.9066 13.2647 24.3866 13.2647L35.6066 13.2647C36.3566 13.2647 37.0166 12.9647 37.5066 12.3647Z"></path><path id="路径 13" fill-rule="evenodd" fill="url(#linear_6)" opacity="1" d="M33.9439 11.6L22.7228 11.6C21.2376 11.6 20 10.1 20 8.29998C20 6.49998 21.2376 5 22.7228 5L33.9439 5C35.4291 5 36.6667 6.49998 36.6667 8.29998L36.6667 8.4C36.6667 9.3 36.3367 10.1 35.8416 10.7C35.3466 11.3 34.6865 11.6 33.9439 11.6Z"></path><path id="路径 14" fill-rule="evenodd" style="fill:#DB344E" opacity="0.3" d="M45.9 41.4C46.4 41.4 46.8 41 46.8 40.5C46.8 40 46.4 39.6 45.9 39.6C45.4 39.6 45 40 45 40.5C45 41 45.4 41.4 45.9 41.4Z"></path><path id="路径 14" fill-rule="evenodd" fill="url(#linear_7)" opacity="1" d="M45.9 41.4C46.4 41.4 46.8 41 46.8 40.5C46.8 40 46.4 39.6 45.9 39.6C45.4 39.6 45 40 45 40.5C45 41 45.4 41.4 45.9 41.4Z"></path></g></g><defs><rect id="path_0" x="0" y="0" width="60" height="60" rx="0" ry="0"/><linearGradient id="linear_0" x1="29.118995987561814%" y1="5.169204491319128%" x2="83.92302958498671%" y2="62.989477019684955%" gradientUnits="objectBoundingBox"><stop offset="0" stop-color="#E8F8FA" stop-opacity="0.9" /><stop offset="1" stop-color="#BADEF7" stop-opacity="1" /></linearGradient><linearGradient id="linear_1" x1="80.9194524170678%" y1="13.935026372865188%" x2="20.632710507727708%" y2="92.94617590615914%" gradientUnits="objectBoundingBox"><stop offset="0" stop-color="#57DDFF" stop-opacity="1" /><stop offset="1" stop-color="#1692F7" stop-opacity="1" /></linearGradient><linearGradient id="linear_2" x1="39.92797516177399%" y1="17.244%" x2="88.17909415196891%" y2="85.071%" gradientUnits="objectBoundingBox"><stop offset="0" stop-color="#FAD7EA" stop-opacity="0.18" /><stop offset="1" stop-color="#D9BFCA" stop-opacity="0.2" /></linearGradient><linearGradient id="linear_3" x1="35.650980797903614%" y1="38.03640723644769%" x2="100.00018577912509%" y2="100.00013980735723%" gradientUnits="objectBoundingBox"><stop offset="0" stop-color="#FAEDF2" stop-opacity="0.96" /><stop offset="1" stop-color="#FCCFDD" stop-opacity="1" /></linearGradient><linearGradient id="linear_4" x1="80.92112633352852%" y1="13.935019482155228%" x2="20.632945647262932%" y2="92.94612994534626%" gradientUnits="objectBoundingBox"><stop offset="0" stop-color="#FF57A5" stop-opacity="1" /><stop offset="1" stop-color="#FC2828" stop-opacity="1" /></linearGradient><linearGradient id="linear_5" x1="80.92188903681848%" y1="13.935%" x2="20.632155643599862%" y2="92.946%" gradientUnits="objectBoundingBox"><stop offset="0" stop-color="#FF57A5" stop-opacity="1" /><stop offset="1" stop-color="#FC2828" stop-opacity="1" /></linearGradient><linearGradient id="linear_6" x1="29.118939804112593%" y1="5.169204491319129%" x2="83.92309779345288%" y2="62.98947701968497%" gradientUnits="objectBoundingBox"><stop offset="0" stop-color="#E8F8FA" stop-opacity="0.9" /><stop offset="1" stop-color="#BADEF7" stop-opacity="1" /></linearGradient><linearGradient id="linear_7" x1="80.92183878580734%" y1="13.935%" x2="20.63220336914058%" y2="92.946%" gradientUnits="objectBoundingBox"><stop offset="0" stop-color="#FF57A5" stop-opacity="1" /><stop offset="1" stop-color="#FC2828" stop-opacity="1" /></linearGradient></defs></svg>