<svg xmlns="http://www.w3.org/2000/svg" xmlns:xlink="http://www.w3.org/1999/xlink" width="60" height="60" viewBox="0 0 60 60" fill="none"><g opacity="1"  transform="translate(0 0)"><mask id="bg-mask-0" fill="white"><use transform="translate(0 0)" xlink:href="#path_0"></use></mask><g mask="url(#bg-mask-0)" ><path id="路径 1" fill-rule="evenodd" fill="url(#linear_0)" opacity="1" d="M8.8 42.5L51.2 42.5L56.6 49.9C58.6002 52.7 57.5 55 54 55L5.49997 55C2.09997 55 0.99997 52.8 2.99997 50L8.8 42.5Z"></path><path id="路径 2" fill-rule="evenodd" fill="url(#linear_1)" opacity="1" d="M13.6999 6.70007L40.7999 6.70007C44.2999 6.70007 47.0999 9.50004 47.0999 13.0001L47.0999 43.3001C47.0999 46.8001 44.2999 49.6001 40.7999 49.6001L13.6999 49.6001C10.1999 49.6001 7.3999 46.8001 7.3999 43.3001L7.3999 13.0001C7.3999 9.50004 10.1999 6.70007 13.6999 6.70007Z"></path><path id="路径 3" fill-rule="evenodd" fill="url(#linear_2)" opacity="1" d="M11.9 6.66663L39 6.66663C42.5 6.66663 45.3 9.46659 45.3 12.9666L45.3 43.2666C45.3 46.7666 42.5 49.5666 39 49.5666L11.9 49.5666C8.39998 49.5666 5.59998 46.7666 5.59998 43.2666L5.59998 12.9666C5.59998 9.46659 8.39998 6.66663 11.9 6.66663Z"></path><path id="拼合图形" fill-rule="evenodd" fill="url(#linear_3)" opacity="1" d="M34.5312 26.1703L26.6479 34.5537C26.0526 35.1489 24.9504 35.2889 24.2645 34.637L18.5479 29.2037C17.8956 28.5837 17.7945 27.5227 18.4146 26.8703C19.0346 26.218 20.0231 26.1981 20.7479 26.887L25.2645 31.1704L32.1479 23.9203C32.7679 23.268 33.8955 23.1003 34.5479 23.7204C35.1314 24.4128 35.1512 25.518 34.5312 26.1703Z"></path><path id="拼合图形" fill-rule="evenodd" style="fill:#FFFFFF" opacity="1" d="M33.8864 25.2166L26.003 33.5999C25.4078 34.1952 24.3055 34.3351 23.6197 33.6833L17.903 28.2499C17.2507 27.6299 17.1497 26.5689 17.7697 25.9166C18.3897 25.2643 19.3782 25.2444 20.103 25.9333L24.6197 30.2166L31.503 22.9666C32.1231 22.3143 33.2507 22.1466 33.903 22.7666C34.4865 23.4591 34.5064 24.5643 33.8864 25.2166Z"></path><path id="路径 8" fill-rule="evenodd" style="fill:#000000" opacity="0.2" d="M19.8 12.0001C17.9 12.0001 16.4 10.8001 16.4 9.40008L16.4 9.30008C16.4 7.9001 17.9 6.70007 19.8 6.70007L37.8333 6.70007C37.8333 9.30022 37.1333 10.2334 36.3333 10.8334C35.5333 11.4334 34.5 12.0001 33.6 12.0001L19.8 12.0001Z"></path><path id="路径 9" fill-rule="evenodd" fill="url(#linear_4)" opacity="1" d="M32.5 10.6001L18.9 10.6001C17.1 10.6001 15.6 9.10008 15.6 7.30008C15.5 5.50006 17 4.00006 18.9 4.00006L32.5 4.00006C34.3 4.00006 35.8 5.50006 35.8 7.30008L35.8 7.40004C35.8 8.30004 35.4 9.10008 34.8 9.70008C34.2 10.3001 33.4 10.6001 32.5 10.6001Z"></path><path id="路径 10" fill-rule="evenodd" fill="url(#linear_5)" opacity="1" d="M35.5001 41.3C35.5001 41.4751 35.5044 41.6501 35.5131 41.825C35.5217 41.9999 35.5347 42.1745 35.552 42.3488C35.5694 42.523 35.591 42.6968 35.617 42.87C35.6429 43.0432 35.6731 43.2157 35.7075 43.3874C35.742 43.5592 35.7807 43.73 35.8237 43.8999C35.8666 44.0697 35.9138 44.2384 35.9651 44.406C36.0164 44.5736 36.0718 44.7398 36.1314 44.9047C36.1909 45.0696 36.2545 45.2329 36.3221 45.3947C36.3898 45.5564 36.4614 45.7165 36.5369 45.8748C36.6125 46.0331 36.692 46.1895 36.7753 46.3439C36.8586 46.4983 36.9457 46.6507 37.0366 46.8009C37.1274 46.951 37.222 47.099 37.3202 47.2446C37.4184 47.3902 37.5201 47.5333 37.6254 47.674C37.7307 47.8147 37.8394 47.9526 37.9515 48.088C38.0637 48.2233 38.1791 48.3559 38.2978 48.4857C38.4165 48.6154 38.5383 48.7422 38.6633 48.866C38.7883 48.9898 38.9162 49.1106 39.0472 49.2282C39.1782 49.3458 39.312 49.4601 39.4486 49.5712C39.5852 49.6823 39.7245 49.79 39.8665 49.8943C40.0085 49.9986 40.1529 50.0994 40.2999 50.1967C40.4468 50.294 40.5961 50.3876 40.7477 50.4777C40.8993 50.5677 41.0531 50.654 41.209 50.7365C41.3648 50.8191 41.5227 50.8978 41.6825 50.9727C41.8422 51.0475 42.0037 51.1185 42.167 51.1855C42.3303 51.2525 42.4952 51.3155 42.6616 51.3745C42.828 51.4335 42.9958 51.4884 43.1649 51.5392C43.3341 51.5901 43.5044 51.6368 43.6759 51.6793C43.8473 51.7219 44.0197 51.7602 44.1931 51.7944C44.3664 51.8286 44.5405 51.8584 44.7153 51.8842C44.8902 51.9099 45.0656 51.9313 45.2414 51.9484C45.4173 51.9656 45.5935 51.9785 45.7701 51.9871C45.9466 51.9957 46.1233 52 46.3001 52C46.4768 52 46.6534 51.9957 46.83 51.9871C47.0065 51.9785 47.1827 51.9656 47.3586 51.9484C47.5345 51.9313 47.7099 51.9099 47.8847 51.8842C48.0596 51.8584 48.2337 51.8286 48.407 51.7944C48.5804 51.7602 48.7527 51.7219 48.9242 51.6793C49.0957 51.6368 49.266 51.5901 49.4351 51.5392C49.6043 51.4884 49.772 51.4335 49.9384 51.3745C50.1048 51.3155 50.2697 51.2525 50.433 51.1855C50.5963 51.1185 50.7579 51.0475 50.9177 50.9727C51.0774 50.8978 51.2352 50.8191 51.3911 50.7365C51.547 50.654 51.7008 50.5677 51.8523 50.4777C52.0039 50.3876 52.1532 50.294 52.3002 50.1967C52.4471 50.0994 52.5916 49.9986 52.7336 49.8943C52.8756 49.79 53.0148 49.6823 53.1515 49.5712C53.2881 49.4601 53.4219 49.3458 53.5529 49.2282C53.6838 49.1106 53.8118 48.9898 53.9368 48.866C54.0618 48.7422 54.1836 48.6154 54.3023 48.4857C54.421 48.3559 54.5364 48.2233 54.6486 48.088C54.7607 47.9526 54.8694 47.8147 54.9747 47.674C55.08 47.5333 55.1817 47.3902 55.2799 47.2446C55.3781 47.099 55.4726 46.951 55.5635 46.8009C55.6544 46.6507 55.7414 46.4983 55.8248 46.3439C55.9081 46.1895 55.9875 46.0331 56.0631 45.8748C56.1387 45.7165 56.2103 45.5564 56.2779 45.3947C56.3456 45.2329 56.4092 45.0696 56.4687 44.9047C56.5282 44.7398 56.5837 44.5736 56.635 44.406C56.6863 44.2384 56.7334 44.0697 56.7764 43.8999C56.8193 43.73 56.858 43.5592 56.8925 43.3874C56.927 43.2157 56.9572 43.0432 56.9832 42.87C57.0091 42.6968 57.0307 42.523 57.048 42.3488C57.0654 42.1745 57.0784 41.9999 57.0871 41.825C57.0957 41.6501 57.1001 41.4751 57.1001 41.3C57.1001 41.1248 57.0957 40.9499 57.0871 40.775C57.0784 40.6001 57.0654 40.4254 57.048 40.2512C57.0307 40.0769 57.0091 39.9032 56.9832 39.7299C56.9572 39.5567 56.927 39.3842 56.8925 39.2125C56.858 39.0408 56.8193 38.87 56.7764 38.7001C56.7334 38.5302 56.6863 38.3615 56.635 38.1939C56.5837 38.0264 56.5282 37.8602 56.4687 37.6953C56.4092 37.5304 56.3456 37.367 56.2779 37.2052C56.2103 37.0435 56.1387 36.8835 56.0631 36.7251C55.9875 36.5669 55.9081 36.4105 55.8248 36.256C55.7414 36.1016 55.6544 35.9493 55.5635 35.7991C55.4726 35.6489 55.3781 35.501 55.2799 35.3554C55.1817 35.2098 55.08 35.0666 54.9747 34.926C54.8694 34.7854 54.7607 34.6473 54.6486 34.512C54.5364 34.3766 54.421 34.244 54.3023 34.1143C54.1836 33.9846 54.0618 33.8578 53.9368 33.7339C53.8118 33.6101 53.6838 33.4894 53.5529 33.3718C53.4219 33.2542 53.2881 33.1398 53.1515 33.0287C53.0148 32.9177 52.8756 32.81 52.7336 32.7057C52.5916 32.6013 52.4471 32.5005 52.3002 32.4033C52.1532 32.306 52.0039 32.2123 51.8523 32.1223C51.7008 32.0323 51.547 31.946 51.3911 31.8634C51.2352 31.7809 51.0774 31.7022 50.9176 31.6273C50.7578 31.5524 50.5963 31.4815 50.433 31.4145C50.2697 31.3475 50.1048 31.2845 49.9384 31.2255C49.772 31.1665 49.6043 31.1116 49.4351 31.0607C49.266 31.0099 49.0957 30.9632 48.9242 30.9207C48.7527 30.8781 48.5804 30.8397 48.407 30.8056C48.2337 30.7714 48.0596 30.7415 47.8847 30.7158C47.7099 30.6901 47.5345 30.6687 47.3586 30.6515C47.1827 30.6343 47.0065 30.6215 46.83 30.6129C46.6534 30.6043 46.4768 30.6 46.3001 30.6C46.1233 30.6 45.9466 30.6043 45.7701 30.6129C45.5935 30.6215 45.4173 30.6343 45.2414 30.6515C45.0656 30.6687 44.8902 30.6901 44.7153 30.7158C44.5405 30.7415 44.3664 30.7714 44.1931 30.8056C44.0197 30.8397 43.8473 30.8781 43.6759 30.9207C43.5044 30.9632 43.3341 31.0099 43.1649 31.0607C42.9958 31.1116 42.828 31.1665 42.6616 31.2255C42.4952 31.2845 42.3303 31.3475 42.167 31.4145C42.0037 31.4815 41.8422 31.5524 41.6825 31.6273C41.5227 31.7021 41.3648 31.7809 41.209 31.8634C41.0531 31.946 40.8993 32.0323 40.7477 32.1223C40.5961 32.2123 40.4468 32.306 40.2999 32.4033C40.1529 32.5005 40.0085 32.6013 39.8665 32.7057C39.7245 32.81 39.5852 32.9177 39.4486 33.0287C39.312 33.1398 39.1782 33.2542 39.0472 33.3718C38.9162 33.4894 38.7883 33.6101 38.6633 33.7339C38.5383 33.8578 38.4165 33.9846 38.2978 34.1143C38.1791 34.244 38.0637 34.3766 37.9515 34.512C37.8394 34.6473 37.7307 34.7854 37.6254 34.926C37.5201 35.0666 37.4184 35.2098 37.3202 35.3554C37.222 35.501 37.1274 35.6489 37.0366 35.7991C36.9457 35.9493 36.8586 36.1016 36.7753 36.256C36.692 36.4105 36.6125 36.5669 36.5369 36.7251C36.4614 36.8835 36.3898 37.0435 36.3221 37.2052C36.2545 37.367 36.1909 37.5304 36.1314 37.6953C36.0718 37.8602 36.0164 38.0264 35.9651 38.1939C35.9138 38.3615 35.8666 38.5302 35.8237 38.7001C35.7807 38.87 35.742 39.0408 35.7075 39.2125C35.6731 39.3842 35.6429 39.5567 35.617 39.7299C35.591 39.9032 35.5694 40.0769 35.552 40.2512C35.5347 40.4254 35.5217 40.6001 35.5131 40.775C35.5044 40.9499 35.5001 41.1248 35.5001 41.3Z"></path><path id="路径 11" fill-rule="evenodd" fill="url(#linear_6)" opacity="1" d="M33.7 41.3C33.7 41.4751 33.7043 41.6501 33.713 41.825C33.7216 41.9999 33.7346 42.1745 33.7519 42.3488C33.7693 42.523 33.7909 42.6968 33.8168 42.87C33.8427 43.0432 33.8729 43.2157 33.9074 43.3874C33.9419 43.5592 33.9806 43.73 34.0236 43.8999C34.0665 44.0697 34.1137 44.2384 34.165 44.406C34.2163 44.5736 34.2717 44.7398 34.3312 44.9047C34.3908 45.0696 34.4544 45.2329 34.522 45.3947C34.5897 45.5564 34.6613 45.7165 34.7368 45.8748C34.8124 46.0331 34.8919 46.1895 34.9752 46.3439C35.0585 46.4983 35.1456 46.6507 35.2365 46.8009C35.3273 46.951 35.4218 47.099 35.5201 47.2446C35.6183 47.3902 35.72 47.5333 35.8253 47.674C35.9306 47.8147 36.0393 47.9526 36.1514 48.088C36.2635 48.2233 36.379 48.3559 36.4977 48.4857C36.6164 48.6154 36.7382 48.7422 36.8632 48.866C36.9882 48.9898 37.1161 49.1106 37.2471 49.2282C37.3781 49.3458 37.5119 49.4601 37.6485 49.5712C37.7851 49.6823 37.9244 49.79 38.0664 49.8943C38.2084 49.9986 38.3528 50.0994 38.4998 50.1967C38.6467 50.294 38.796 50.3876 38.9476 50.4777C39.0992 50.5677 39.253 50.654 39.4089 50.7365C39.5647 50.8191 39.7226 50.8978 39.8824 50.9727C40.0421 51.0475 40.2036 51.1185 40.3669 51.1855C40.5302 51.2525 40.6951 51.3155 40.8615 51.3745C41.0279 51.4335 41.1957 51.4884 41.3648 51.5392C41.534 51.5901 41.7043 51.6368 41.8758 51.6793C42.0472 51.7219 42.2196 51.7602 42.393 51.7944C42.5663 51.8286 42.7404 51.8584 42.9152 51.8842C43.0901 51.9099 43.2654 51.9313 43.4413 51.9484C43.6172 51.9656 43.7935 51.9785 43.97 51.9871C44.1466 51.9957 44.3232 52 44.5 52C44.6767 52 44.8533 51.9957 45.0299 51.9871C45.2064 51.9785 45.3826 51.9656 45.5585 51.9484C45.7344 51.9313 45.9098 51.9099 46.0846 51.8842C46.2595 51.8584 46.4335 51.8286 46.6069 51.7944C46.7803 51.7602 46.9527 51.7219 47.1241 51.6793C47.2956 51.6368 47.4659 51.5901 47.635 51.5392C47.8042 51.4884 47.9719 51.4335 48.1383 51.3745C48.3047 51.3155 48.4696 51.2525 48.6329 51.1855C48.7962 51.1185 48.9578 51.0475 49.1175 50.9727C49.2773 50.8978 49.4351 50.8191 49.591 50.7365C49.7469 50.654 49.9007 50.5677 50.0522 50.4777C50.2038 50.3876 50.3531 50.294 50.5001 50.1967C50.6471 50.0994 50.7915 49.9986 50.9335 49.8943C51.0755 49.79 51.2147 49.6823 51.3514 49.5712C51.488 49.4601 51.6218 49.3458 51.7527 49.2282C51.8837 49.1106 52.0117 48.9898 52.1367 48.866C52.2617 48.7422 52.3835 48.6154 52.5022 48.4857C52.6209 48.3559 52.7363 48.2233 52.8484 48.088C52.9605 47.9526 53.0693 47.8147 53.1746 47.674C53.2799 47.5333 53.3816 47.3902 53.4798 47.2446C53.578 47.099 53.6725 46.951 53.7634 46.8009C53.8543 46.6507 53.9413 46.4983 54.0247 46.3439C54.108 46.1895 54.1874 46.0331 54.263 45.8748C54.3385 45.7165 54.4101 45.5564 54.4778 45.3947C54.5455 45.2329 54.6091 45.0696 54.6686 44.9047C54.7281 44.7398 54.7836 44.5736 54.8349 44.406C54.8862 44.2384 54.9333 44.0697 54.9763 43.8999C55.0192 43.73 55.0579 43.5592 55.0924 43.3874C55.1269 43.2157 55.1571 43.0432 55.1831 42.87C55.209 42.6968 55.2306 42.523 55.2479 42.3488C55.2653 42.1745 55.2783 41.9999 55.2869 41.825C55.2956 41.6501 55.2999 41.4751 55.2999 41.3C55.2999 41.1248 55.2956 40.9499 55.2869 40.775C55.2783 40.6001 55.2653 40.4254 55.2479 40.2512C55.2306 40.0769 55.209 39.9032 55.1831 39.7299C55.1571 39.5567 55.1269 39.3842 55.0924 39.2125C55.0579 39.0408 55.0192 38.87 54.9763 38.7001C54.9333 38.5302 54.8862 38.3615 54.8349 38.1939C54.7836 38.0264 54.7281 37.8602 54.6686 37.6953C54.6091 37.5304 54.5455 37.367 54.4778 37.2052C54.4101 37.0435 54.3385 36.8835 54.263 36.7251C54.1874 36.5669 54.108 36.4105 54.0247 36.256C53.9413 36.1016 53.8543 35.9493 53.7634 35.7991C53.6725 35.6489 53.578 35.501 53.4798 35.3554C53.3816 35.2098 53.2799 35.0666 53.1746 34.926C53.0693 34.7854 52.9605 34.6473 52.8484 34.512C52.7363 34.3766 52.6209 34.244 52.5022 34.1143C52.3835 33.9846 52.2617 33.8578 52.1367 33.7339C52.0117 33.6101 51.8837 33.4894 51.7527 33.3718C51.6218 33.2542 51.488 33.1398 51.3514 33.0287C51.2147 32.9177 51.0755 32.81 50.9335 32.7057C50.7915 32.6013 50.647 32.5005 50.5001 32.4033C50.3531 32.306 50.2038 32.2123 50.0522 32.1223C49.9007 32.0323 49.7469 31.946 49.591 31.8634C49.4351 31.7809 49.2773 31.7022 49.1175 31.6273C48.9578 31.5524 48.7962 31.4815 48.6329 31.4145C48.4696 31.3475 48.3047 31.2845 48.1383 31.2255C47.9719 31.1665 47.8042 31.1116 47.635 31.0607C47.4659 31.0099 47.2956 30.9632 47.1241 30.9207C46.9527 30.8781 46.7803 30.8397 46.6069 30.8056C46.4335 30.7714 46.2595 30.7415 46.0846 30.7158C45.9098 30.6901 45.7344 30.6687 45.5585 30.6515C45.3826 30.6343 45.2064 30.6215 45.0299 30.6129C44.8533 30.6043 44.6767 30.6 44.5 30.6C44.3232 30.6 44.1466 30.6043 43.97 30.6129C43.7935 30.6215 43.6172 30.6343 43.4413 30.6515C43.2654 30.6687 43.0901 30.6901 42.9152 30.7158C42.7404 30.7415 42.5663 30.7714 42.393 30.8056C42.2196 30.8397 42.0472 30.8781 41.8757 30.9207C41.7043 30.9632 41.534 31.0099 41.3648 31.0607C41.1957 31.1116 41.0279 31.1665 40.8615 31.2255C40.6951 31.2845 40.5302 31.3475 40.3669 31.4145C40.2036 31.4815 40.0421 31.5524 39.8824 31.6273C39.7226 31.7021 39.5647 31.7809 39.4089 31.8634C39.253 31.946 39.0992 32.0323 38.9476 32.1223C38.796 32.2123 38.6467 32.306 38.4998 32.4033C38.3528 32.5005 38.2084 32.6013 38.0664 32.7057C37.9244 32.81 37.7851 32.9177 37.6485 33.0287C37.5119 33.1398 37.3781 33.2542 37.2471 33.3718C37.1161 33.4894 36.9882 33.6101 36.8632 33.7339C36.7382 33.8578 36.6164 33.9846 36.4977 34.1143C36.379 34.244 36.2635 34.3766 36.1514 34.512C36.0393 34.6473 35.9306 34.7854 35.8253 34.926C35.72 35.0666 35.6183 35.2098 35.5201 35.3554C35.4218 35.501 35.3273 35.6489 35.2365 35.7991C35.1456 35.9493 35.0585 36.1016 34.9752 36.256C34.8919 36.4105 34.8124 36.5669 34.7368 36.7251C34.6613 36.8835 34.5897 37.0435 34.522 37.2052C34.4544 37.367 34.3908 37.5304 34.3312 37.6953C34.2717 37.8602 34.2163 38.0264 34.165 38.1939C34.1137 38.3615 34.0665 38.5302 34.0236 38.7001C33.9806 38.87 33.9419 39.0408 33.9074 39.2125C33.873 39.3842 33.8428 39.5567 33.8168 39.7299C33.7909 39.9032 33.7693 40.0769 33.7519 40.2512C33.7346 40.4254 33.7216 40.6001 33.713 40.775C33.7043 40.9499 33.7 41.1248 33.7 41.3Z"></path><path id="路径 11" fill-rule="evenodd" fill="url(#linear_7)" opacity="1" d="M33.7 41.3C33.7 41.4751 33.7043 41.6501 33.713 41.825C33.7216 41.9999 33.7346 42.1745 33.7519 42.3488C33.7693 42.523 33.7909 42.6968 33.8168 42.87C33.8427 43.0432 33.8729 43.2157 33.9074 43.3874C33.9419 43.5592 33.9806 43.73 34.0236 43.8999C34.0665 44.0697 34.1137 44.2384 34.165 44.406C34.2163 44.5736 34.2717 44.7398 34.3312 44.9047C34.3908 45.0696 34.4544 45.2329 34.522 45.3947C34.5897 45.5564 34.6613 45.7165 34.7368 45.8748C34.8124 46.0331 34.8919 46.1895 34.9752 46.3439C35.0585 46.4983 35.1456 46.6507 35.2365 46.8009C35.3273 46.951 35.4218 47.099 35.5201 47.2446C35.6183 47.3902 35.72 47.5333 35.8253 47.674C35.9306 47.8147 36.0393 47.9526 36.1514 48.088C36.2635 48.2233 36.379 48.3559 36.4977 48.4857C36.6164 48.6154 36.7382 48.7422 36.8632 48.866C36.9882 48.9898 37.1161 49.1106 37.2471 49.2282C37.3781 49.3458 37.5119 49.4601 37.6485 49.5712C37.7851 49.6823 37.9244 49.79 38.0664 49.8943C38.2084 49.9986 38.3528 50.0994 38.4998 50.1967C38.6467 50.294 38.796 50.3876 38.9476 50.4777C39.0992 50.5677 39.253 50.654 39.4089 50.7365C39.5647 50.8191 39.7226 50.8978 39.8824 50.9727C40.0421 51.0475 40.2036 51.1185 40.3669 51.1855C40.5302 51.2525 40.6951 51.3155 40.8615 51.3745C41.0279 51.4335 41.1957 51.4884 41.3648 51.5392C41.534 51.5901 41.7043 51.6368 41.8758 51.6793C42.0472 51.7219 42.2196 51.7602 42.393 51.7944C42.5663 51.8286 42.7404 51.8584 42.9152 51.8842C43.0901 51.9099 43.2654 51.9313 43.4413 51.9484C43.6172 51.9656 43.7935 51.9785 43.97 51.9871C44.1466 51.9957 44.3232 52 44.5 52C44.6767 52 44.8533 51.9957 45.0299 51.9871C45.2064 51.9785 45.3826 51.9656 45.5585 51.9484C45.7344 51.9313 45.9098 51.9099 46.0846 51.8842C46.2595 51.8584 46.4335 51.8286 46.6069 51.7944C46.7803 51.7602 46.9527 51.7219 47.1241 51.6793C47.2956 51.6368 47.4659 51.5901 47.635 51.5392C47.8042 51.4884 47.9719 51.4335 48.1383 51.3745C48.3047 51.3155 48.4696 51.2525 48.6329 51.1855C48.7962 51.1185 48.9578 51.0475 49.1175 50.9727C49.2773 50.8978 49.4351 50.8191 49.591 50.7365C49.7469 50.654 49.9007 50.5677 50.0522 50.4777C50.2038 50.3876 50.3531 50.294 50.5001 50.1967C50.6471 50.0994 50.7915 49.9986 50.9335 49.8943C51.0755 49.79 51.2147 49.6823 51.3514 49.5712C51.488 49.4601 51.6218 49.3458 51.7527 49.2282C51.8837 49.1106 52.0117 48.9898 52.1367 48.866C52.2617 48.7422 52.3835 48.6154 52.5022 48.4857C52.6209 48.3559 52.7363 48.2233 52.8484 48.088C52.9605 47.9526 53.0693 47.8147 53.1746 47.674C53.2799 47.5333 53.3816 47.3902 53.4798 47.2446C53.578 47.099 53.6725 46.951 53.7634 46.8009C53.8543 46.6507 53.9413 46.4983 54.0247 46.3439C54.108 46.1895 54.1874 46.0331 54.263 45.8748C54.3385 45.7165 54.4101 45.5564 54.4778 45.3947C54.5455 45.2329 54.6091 45.0696 54.6686 44.9047C54.7281 44.7398 54.7836 44.5736 54.8349 44.406C54.8862 44.2384 54.9333 44.0697 54.9763 43.8999C55.0192 43.73 55.0579 43.5592 55.0924 43.3874C55.1269 43.2157 55.1571 43.0432 55.1831 42.87C55.209 42.6968 55.2306 42.523 55.2479 42.3488C55.2653 42.1745 55.2783 41.9999 55.2869 41.825C55.2956 41.6501 55.2999 41.4751 55.2999 41.3C55.2999 41.1248 55.2956 40.9499 55.2869 40.775C55.2783 40.6001 55.2653 40.4254 55.2479 40.2512C55.2306 40.0769 55.209 39.9032 55.1831 39.7299C55.1571 39.5567 55.1269 39.3842 55.0924 39.2125C55.0579 39.0408 55.0192 38.87 54.9763 38.7001C54.9333 38.5302 54.8862 38.3615 54.8349 38.1939C54.7836 38.0264 54.7281 37.8602 54.6686 37.6953C54.6091 37.5304 54.5455 37.367 54.4778 37.2052C54.4101 37.0435 54.3385 36.8835 54.263 36.7251C54.1874 36.5669 54.108 36.4105 54.0247 36.256C53.9413 36.1016 53.8543 35.9493 53.7634 35.7991C53.6725 35.6489 53.578 35.501 53.4798 35.3554C53.3816 35.2098 53.2799 35.0666 53.1746 34.926C53.0693 34.7854 52.9605 34.6473 52.8484 34.512C52.7363 34.3766 52.6209 34.244 52.5022 34.1143C52.3835 33.9846 52.2617 33.8578 52.1367 33.7339C52.0117 33.6101 51.8837 33.4894 51.7527 33.3718C51.6218 33.2542 51.488 33.1398 51.3514 33.0287C51.2147 32.9177 51.0755 32.81 50.9335 32.7057C50.7915 32.6013 50.647 32.5005 50.5001 32.4033C50.3531 32.306 50.2038 32.2123 50.0522 32.1223C49.9007 32.0323 49.7469 31.946 49.591 31.8634C49.4351 31.7809 49.2773 31.7022 49.1175 31.6273C48.9578 31.5524 48.7962 31.4815 48.6329 31.4145C48.4696 31.3475 48.3047 31.2845 48.1383 31.2255C47.9719 31.1665 47.8042 31.1116 47.635 31.0607C47.4659 31.0099 47.2956 30.9632 47.1241 30.9207C46.9527 30.8781 46.7803 30.8397 46.6069 30.8056C46.4335 30.7714 46.2595 30.7415 46.0846 30.7158C45.9098 30.6901 45.7344 30.6687 45.5585 30.6515C45.3826 30.6343 45.2064 30.6215 45.0299 30.6129C44.8533 30.6043 44.6767 30.6 44.5 30.6C44.3232 30.6 44.1466 30.6043 43.97 30.6129C43.7935 30.6215 43.6172 30.6343 43.4413 30.6515C43.2654 30.6687 43.0901 30.6901 42.9152 30.7158C42.7404 30.7415 42.5663 30.7714 42.393 30.8056C42.2196 30.8397 42.0472 30.8781 41.8757 30.9207C41.7043 30.9632 41.534 31.0099 41.3648 31.0607C41.1957 31.1116 41.0279 31.1665 40.8615 31.2255C40.6951 31.2845 40.5302 31.3475 40.3669 31.4145C40.2036 31.4815 40.0421 31.5524 39.8824 31.6273C39.7226 31.7021 39.5647 31.7809 39.4089 31.8634C39.253 31.946 39.0992 32.0323 38.9476 32.1223C38.796 32.2123 38.6467 32.306 38.4998 32.4033C38.3528 32.5005 38.2084 32.6013 38.0664 32.7057C37.9244 32.81 37.7851 32.9177 37.6485 33.0287C37.5119 33.1398 37.3781 33.2542 37.2471 33.3718C37.1161 33.4894 36.9882 33.6101 36.8632 33.7339C36.7382 33.8578 36.6164 33.9846 36.4977 34.1143C36.379 34.244 36.2635 34.3766 36.1514 34.512C36.0393 34.6473 35.9306 34.7854 35.8253 34.926C35.72 35.0666 35.6183 35.2098 35.5201 35.3554C35.4218 35.501 35.3273 35.6489 35.2365 35.7991C35.1456 35.9493 35.0585 36.1016 34.9752 36.256C34.8919 36.4105 34.8124 36.5669 34.7368 36.7251C34.6613 36.8835 34.5897 37.0435 34.522 37.2052C34.4544 37.367 34.3908 37.5304 34.3312 37.6953C34.2717 37.8602 34.2163 38.0264 34.165 38.1939C34.1137 38.3615 34.0665 38.5302 34.0236 38.7001C33.9806 38.87 33.9419 39.0408 33.9074 39.2125C33.873 39.3842 33.8428 39.5567 33.8168 39.7299C33.7909 39.9032 33.7693 40.0769 33.7519 40.2512C33.7346 40.4254 33.7216 40.6001 33.713 40.775C33.7043 40.9499 33.7 41.1248 33.7 41.3Z"></path><path id="路径 12" fill-rule="evenodd" fill="url(#linear_8)" opacity="1" d="M40.5001 44.2L44 44.2L44 42.5L40.5001 42.5C39.5 42.5 39.1001 41.9 39.1001 41.3C39.1001 40.7 39.6001 40.3 40.5001 40.3L43.0001 40.3C43.0001 40.3 41.1001 37.7 40.5001 36.7C39.9001 35.4 42.5 34.9 43.2001 36C43.9001 37.2 45.4001 39.5 45.4001 39.5C45.4001 39.5 46.6001 36.9 47.4 35.6C48.1001 34.4 50.7 35.8 49.9001 37.1C49.2 38.2 47.8001 40.3 47.8001 40.3L50.3 40.3C51.3 40.3 51.6 40.6 51.6 41.3C51.6 42 51.3 42.5 50.3 42.5L46.8 42.5L46.8 44.2L50.3 44.2C51.3 44.2 51.7001 44.5 51.7001 45.2C51.7001 45.8 51.2 46.3 50.3 46.3L46.8 46.3L46.8 46.5C46.8 47.9 46.3001 48.6 45.4001 48.6L44.4001 48.6C43.9001 48.6 44 47.4 44 46.5L44 46.3L40.5001 46.3C39.5 46.3 39.1001 45.8 39.1001 45.2C39.0001 44.5 39.5 44.2 40.5001 44.2Z"></path><path id="路径 13" fill-rule="evenodd" style="fill:#FFFFFF" opacity="1" d="M39.6 43.2L43.1 43.2L43.1 41.5L39.6 41.5C38.6 41.5 38.2 40.9 38.2 40.3C38.2 39.7 38.7 39.3 39.6 39.3L42.1 39.3L40.2 36.1999C39.6 34.9 41.6 33.9 42.3 34.9C43 36.1 44.5 38.4 44.5 38.4C44.5 38.4 46.0999 35.8999 46.9 34.6C47.5999 33.4 49.7 34.8 49 36.1C48.3 37.2 46.9 39.3 46.9 39.3L49.4 39.3C50.4 39.3 50.8 39.6 50.8 40.3C50.8 41 50.2999 41.5 49.4 41.5L45.9 41.5L45.9 43.2L49.4 43.2C50.4 43.2 50.8 43.5 50.8 44.2C50.8 44.8 50.2999 45.3 49.4 45.3L45.9 45.3L45.9 45.5C45.9 46.9 45.4 47.6 44.5 47.6C43.6 47.6 43.1 46.9 43.1 45.5L43.1 45.3L39.6 45.3C38.6 45.3 38.2 44.8 38.2 44.2C38.1 43.5 38.6 43.2 39.6 43.2Z"></path></g></g><defs><rect id="path_0" x="0" y="0" width="60" height="60" rx="0" ry="0"/><linearGradient id="linear_0" x1="29.119026750282746%" y1="5.169204491319128%" x2="83.92297960823791%" y2="62.989477019684955%" gradientUnits="objectBoundingBox"><stop offset="0" stop-color="#E8F8FA" stop-opacity="0.9" /><stop offset="1" stop-color="#BADEF7" stop-opacity="1" /></linearGradient><linearGradient id="linear_1" x1="29.118997972413556%" y1="5.169204491319128%" x2="83.92302636042027%" y2="62.989477019684955%" gradientUnits="objectBoundingBox"><stop offset="0" stop-color="#E8F8FA" stop-opacity="0.9" /><stop offset="1" stop-color="#BADEF7" stop-opacity="1" /></linearGradient><linearGradient id="linear_2" x1="80.9195335886424%" y1="13.935026372865188%" x2="20.632633410983004%" y2="92.94617590615914%" gradientUnits="objectBoundingBox"><stop offset="0" stop-color="#57DDFF" stop-opacity="1" /><stop offset="1" stop-color="#1692F7" stop-opacity="1" /></linearGradient><linearGradient id="linear_3" x1="39.928006704753486%" y1="17.244%" x2="88.17897458491029%" y2="85.071%" gradientUnits="objectBoundingBox"><stop offset="0" stop-color="#D7F2FA" stop-opacity="0.18" /><stop offset="1" stop-color="#BFCDD9" stop-opacity="0.2" /></linearGradient><linearGradient id="linear_4" x1="29.118954611802618%" y1="5.169204491319128%" x2="83.92309680355066%" y2="62.989477019684955%" gradientUnits="objectBoundingBox"><stop offset="0" stop-color="#E8F8FA" stop-opacity="0.9" /><stop offset="1" stop-color="#BADEF7" stop-opacity="1" /></linearGradient><linearGradient id="linear_5" x1="39.92801138418692%" y1="17.244%" x2="88.17895684701426%" y2="85.071%" gradientUnits="objectBoundingBox"><stop offset="0" stop-color="#FAD7EA" stop-opacity="0.18" /><stop offset="1" stop-color="#D9BFCA" stop-opacity="0.2" /></linearGradient><linearGradient id="linear_6" x1="35.65096597112389%" y1="38.03640723644769%" x2="100.00023744410164%" y2="100.00013980735723%" gradientUnits="objectBoundingBox"><stop offset="0" stop-color="#FAEDF2" stop-opacity="0.96" /><stop offset="1" stop-color="#FCCFDD" stop-opacity="1" /></linearGradient><linearGradient id="linear_7" x1="80.92115828419514%" y1="13.935019482155228%" x2="20.63291530241219%" y2="92.94612994534626%" gradientUnits="objectBoundingBox"><stop offset="0" stop-color="#FF57A5" stop-opacity="1" /><stop offset="1" stop-color="#FC2828" stop-opacity="1" /></linearGradient><linearGradient id="linear_8" x1="39.928009254872734%" y1="17.244%" x2="88.17896491840882%" y2="85.071%" gradientUnits="objectBoundingBox"><stop offset="0" stop-color="#FAD7EA" stop-opacity="0.18" /><stop offset="1" stop-color="#D9BFCA" stop-opacity="0.2" /></linearGradient></defs></svg>