<svg xmlns="http://www.w3.org/2000/svg" xmlns:xlink="http://www.w3.org/1999/xlink" width="36" height="36" viewBox="0 0 36 36" fill="none"><g opacity="1"  transform="translate(0 0)"><mask id="bg-mask-0" fill="white"><use transform="translate(0 0)" xlink:href="#path_0"></use></mask><g mask="url(#bg-mask-0)" ><path id="路径 1" fill-rule="evenodd" fill="url(#linear_0)" opacity="1" d="M6.48001 22.8L29.16 22.8L33.3 28.2001C34.8 30.1201 34.02 31.7401 31.56 31.7401L4.32001 31.7401C1.86001 31.7401 1.08001 30.1201 2.52001 28.2001L6.48001 22.8Z"></path><path id="路径 2" fill-rule="evenodd" fill="url(#linear_1)" opacity="1" d="M5.93999 9.03648C6.05998 7.6521 7.31998 6.59998 8.81999 6.59998L28.56 6.59998C30.06 6.59998 31.32 7.70749 31.44 9.03648C31.44 9.03648 31.56 10.3101 31.56 11.03L31.56 21.1081C31.56 22.4925 30.36 23.6 28.92 23.6L8.75998 23.6C7.26 23.6 5.69998 22.5479 5.15998 21.2742L4.97998 20.8866L5.93999 9.03648Z"></path><path id="路径 3" fill-rule="evenodd" fill="url(#linear_2)" opacity="1" d="M7.49999 6.59998L27.18 6.59998C28.68 6.59998 29.88 7.8 29.88 9.29998L29.88 21.36C29.88 22.86 28.68 24.06 27.18 24.06L7.49999 24.06C6.00001 24 4.79999 22.8 4.79999 21.3L4.79999 9.29998C4.79999 7.8 6.00001 6.59998 7.49999 6.59998Z"></path><path id="路径 4" fill-rule="evenodd" fill="url(#linear_3)" opacity="1" d="M13.62 17.04L16.14 17.04L16.14 15.78L13.62 15.78C12.96 15.78 12.6 15.3601 12.6 14.8201C12.6 14.34 12.96 14.1001 13.62 14.1001L15.42 14.1001C15.42 14.1001 14.1 12.18 13.62 11.4C13.2 10.44 15.06 9.78005 15.6 10.56C16.14 11.46 17.28 13.38 17.28 13.38C17.28 13.38 17.94 11.52 18.48 10.56C18.96 9.66002 20.82 10.74 20.28 11.76C19.8 12.54 18.78 14.16 18.78 14.16L20.4 13.98C21.06 13.98 21.48 14.4 21.48 14.88C21.48 15.3601 21.24 15.84 20.58 15.84L18.06 15.84L18.06 17.1L20.4 16.92C21.06 16.92 21.54 17.3401 21.54 17.82C21.54 18.3 21.18 18.66 20.52 18.66L18 18.66L18 18.84C18 19.92 17.7 20.46 17.04 20.46L16.38 20.46C16.02 20.46 15.66 19.8601 15.66 19.1401L16.08 18.72L13.56 18.72C12.9 18.72 12.54 18.36 12.54 17.8801C12.6 17.28 12.96 17.04 13.62 17.04Z"></path><path id="路径 5" fill-rule="evenodd" style="fill:#FFFFFF" opacity="1" d="M13.02 16.62L15.54 16.62L15.54 15.42L13.02 15.42C12.36 15.42 12 15 12 14.52C12 14.04 12.36 13.86 13.02 13.86L14.82 13.86C14.82 13.86 13.92 12.42 13.44 11.64C13.02 10.74 14.46 10.02 14.94 10.74C15.48 11.58 16.5 13.26 16.5 13.26C16.5 13.26 17.64 11.46 18.18 10.56C18.66 9.71997 20.22 10.68 19.68 11.64L18.18 13.92L19.98 13.92C20.64 13.92 21 14.16 21 14.58C21 15.06 20.64 15.48 19.98 15.48L17.46 15.48L17.46 16.68L19.98 16.68C20.64 16.68 21 16.92 21 17.4C21 17.88 20.64 18.18 19.98 18.18L17.46 18.18L17.46 18.36C17.46 19.38 17.16 19.86 16.5 19.86C15.84 19.86 15.54 19.38 15.54 18.36L15.54 18.18L13.02 18.18C12.36 18.18 12 17.82 12 17.4C12 16.86 12.36 16.62 13.02 16.62Z"></path><path id="路径 6" fill-rule="evenodd" fill="url(#linear_4)" opacity="1" d="M25.2 19.08C25.5 18.48 26.22 18 26.88 18L28.26 18C29.58 18 30.24 18.96 29.7 20.16L28.74 22.2L29.76 22.26C32.34 22.38 32.88 23.88 31.08 25.68L26.64 29.88C26.16 30.36 25.26 30.48 24.66 30.24L24.3 30.06L27.24 25.14L23.64 25.14C22.98 25.14 22.68 24.66 22.92 24.06L25.2 19.08Z"></path><path id="路径 7" fill-rule="evenodd" fill="url(#linear_5)" opacity="1" d="M23.4 19.08C23.7 18.48 24.42 18 25.08 18L27.72 18C28.38 18 28.68 18.48 28.44 19.08L27 22.2L30.48 22.26C31.8 22.26 32.1 23.04 31.14 23.94L29.28 25.68L24.84 29.88C24.36 30.36 24.12 30.18 24.3 29.52L25.44 25.14L21.84 25.14C21.18 25.14 20.88 24.66 21.12 24.06L23.4 19.08Z"></path><path id="路径 7" fill-rule="evenodd" fill="url(#linear_6)" opacity="1" d="M23.4 19.08C23.7 18.48 24.42 18 25.08 18L27.72 18C28.38 18 28.68 18.48 28.44 19.08L27 22.2L30.48 22.26C31.8 22.26 32.1 23.04 31.14 23.94L29.28 25.68L24.84 29.88C24.36 30.36 24.12 30.18 24.3 29.52L25.44 25.14L21.84 25.14C21.18 25.14 20.88 24.66 21.12 24.06L23.4 19.08Z"></path></g></g><defs><rect id="path_0" x="0" y="0" width="36" height="36" rx="0" ry="0"/><linearGradient id="linear_0" x1="29.118979706097747%" y1="5.169204491319128%" x2="83.92305603565865%" y2="62.989477019684955%" gradientUnits="objectBoundingBox"><stop offset="0" stop-color="#E8F8FA" stop-opacity="0.9" /><stop offset="1" stop-color="#BADEF7" stop-opacity="1" /></linearGradient><linearGradient id="linear_1" x1="29.11900667913106%" y1="5.169204491319128%" x2="83.92301221559107%" y2="62.989477019684955%" gradientUnits="objectBoundingBox"><stop offset="0" stop-color="#E8F8FA" stop-opacity="0.9" /><stop offset="1" stop-color="#BADEF7" stop-opacity="1" /></linearGradient><linearGradient id="linear_2" x1="80.9195483986497%" y1="13.935026372865188%" x2="20.632619344441135%" y2="92.94617590615914%" gradientUnits="objectBoundingBox"><stop offset="0" stop-color="#57DDFF" stop-opacity="1" /><stop offset="1" stop-color="#1692F7" stop-opacity="1" /></linearGradient><linearGradient id="linear_3" x1="39.928000000000004%" y1="17.244%" x2="88.179%" y2="85.071%" gradientUnits="objectBoundingBox"><stop offset="0" stop-color="#D7F2FA" stop-opacity="0.18" /><stop offset="1" stop-color="#BFCDD9" stop-opacity="0.2" /></linearGradient><linearGradient id="linear_4" x1="39.92801049904661%" y1="17.244%" x2="88.17896020223388%" y2="85.071%" gradientUnits="objectBoundingBox"><stop offset="0" stop-color="#FAD7EA" stop-opacity="0.18" /><stop offset="1" stop-color="#D9BFCA" stop-opacity="0.2" /></linearGradient><linearGradient id="linear_5" x1="35.650988509679884%" y1="38.03640723644769%" x2="100.00015890688798%" y2="100.00013980735723%" gradientUnits="objectBoundingBox"><stop offset="0" stop-color="#FAEDF2" stop-opacity="0.96" /><stop offset="1" stop-color="#FCCFDD" stop-opacity="1" /></linearGradient><linearGradient id="linear_6" x1="80.9211097151935%" y1="13.935019482155228%" x2="20.632961430373232%" y2="92.94612994534626%" gradientUnits="objectBoundingBox"><stop offset="0" stop-color="#FF57A5" stop-opacity="1" /><stop offset="1" stop-color="#FC2828" stop-opacity="1" /></linearGradient></defs></svg>