<svg xmlns="http://www.w3.org/2000/svg" xmlns:xlink="http://www.w3.org/1999/xlink" width="60" height="60" viewBox="0 0 60 60" fill="none"><g opacity="1"  transform="translate(0 0)"><mask id="bg-mask-0" fill="white"><use transform="translate(0 0)" xlink:href="#path_0"></use></mask><g mask="url(#bg-mask-0)" ><path id="路径 1" fill-rule="evenodd" fill="url(#linear_0)" opacity="1" d="M3 52.4002C3 52.4296 3.00606 52.4591 3.01819 52.4885C3.03031 52.5179 3.04849 52.5473 3.07271 52.5766C3.09693 52.6059 3.12717 52.6352 3.16344 52.6643C3.19969 52.6934 3.24193 52.7224 3.29014 52.7513C3.33836 52.7802 3.39248 52.809 3.45253 52.8376C3.51257 52.8661 3.57846 52.8945 3.6502 52.9227C3.72194 52.9509 3.79943 52.9788 3.88269 53.0066C3.96594 53.0343 4.05485 53.0618 4.14942 53.089C4.24399 53.1162 4.3441 53.1431 4.44976 53.1698C4.55542 53.1964 4.66649 53.2227 4.78299 53.2487C4.89948 53.2747 5.02125 53.3003 5.1483 53.3256C5.27535 53.3508 5.40752 53.3757 5.54481 53.4002C5.6821 53.4247 5.82436 53.4488 5.97158 53.4724C6.11877 53.4961 6.27076 53.5193 6.42756 53.5421C6.58431 53.5649 6.74568 53.5872 6.91166 53.609C7.0776 53.6308 7.24795 53.6521 7.42272 53.673C7.59744 53.6938 7.77635 53.7141 7.95943 53.7339C8.14256 53.7537 8.32963 53.7729 8.52065 53.7916C8.7117 53.8103 8.90648 53.8284 9.10494 53.846C9.3034 53.8635 9.50537 53.8804 9.71086 53.8968C9.91635 53.9132 10.1251 53.9289 10.3371 53.9441C10.549 53.9592 10.764 53.9737 10.9819 53.9876C11.1998 54.0015 11.4205 54.0148 11.6439 54.0274C11.8673 54.0399 12.0932 54.0519 12.3215 54.0632C12.5498 54.0745 12.7803 54.0851 13.013 54.095C13.2456 54.1049 13.4802 54.1141 13.7167 54.1227C13.9532 54.1312 14.1913 54.1391 14.431 54.1463C14.6707 54.1534 14.9118 54.1598 15.1542 54.1656C15.3965 54.1713 15.6399 54.1764 15.8844 54.1807C16.1288 54.185 16.374 54.1886 16.6199 54.1915C16.8659 54.1944 17.1122 54.1966 17.3591 54.198C17.6059 54.1994 17.8529 54.2002 18.1 54.2002C18.3471 54.2002 18.5941 54.1994 18.8409 54.198C19.0877 54.1966 19.3341 54.1944 19.58 54.1915C19.826 54.1886 20.0712 54.185 20.3156 54.1807C20.5601 54.1764 20.8035 54.1713 21.0459 54.1656C21.2883 54.1598 21.5293 54.1534 21.769 54.1463C22.0087 54.1391 22.2468 54.1312 22.4833 54.1226C22.7198 54.1141 22.9543 54.1049 23.187 54.095C23.4197 54.085 23.6502 54.0744 23.8785 54.0632C24.1069 54.0519 24.3327 54.0399 24.5561 54.0274C24.7795 54.0148 25.0001 54.0015 25.2181 53.9876C25.436 53.9737 25.651 53.9592 25.8629 53.9441C26.0749 53.9289 26.2836 53.9132 26.4891 53.8968C26.6946 53.8804 26.8966 53.8635 27.095 53.846C27.2936 53.8284 27.4883 53.8103 27.6793 53.7916C27.8704 53.7729 28.0574 53.7537 28.2405 53.7339C28.4237 53.7141 28.6025 53.6938 28.7773 53.673C28.9521 53.6521 29.1224 53.6308 29.2884 53.609C29.4543 53.5872 29.6157 53.5649 29.7725 53.5421C29.9292 53.5193 30.0812 53.4961 30.2285 53.4724C30.3756 53.4488 30.5179 53.4247 30.6552 53.4002C30.7925 53.3757 30.9247 53.3508 31.0517 53.3256C31.1787 53.3003 31.3005 53.2747 31.417 53.2487C31.5335 53.2227 31.6446 53.1964 31.7503 53.1698C31.8559 53.1431 31.956 53.1162 32.0506 53.089C32.1451 53.0618 32.2341 53.0343 32.3173 53.0066C32.4006 52.9788 32.4781 52.9509 32.5498 52.9227C32.6215 52.8945 32.6874 52.8661 32.7475 52.8376C32.8075 52.809 32.8617 52.7802 32.9099 52.7513C32.9581 52.7224 33.0003 52.6934 33.0366 52.6643C33.0728 52.6352 33.1031 52.6059 33.1273 52.5766C33.1515 52.5473 33.1697 52.5179 33.1818 52.4885C33.1939 52.4591 33.2 52.4296 33.2 52.4002C33.2 52.3707 33.1939 52.3413 33.1818 52.3119C33.1697 52.2824 33.1515 52.2531 33.1273 52.2237C33.1031 52.1944 33.0728 52.1652 33.0366 52.1361C33.0003 52.1069 32.9581 52.0779 32.9099 52.049C32.8617 52.0201 32.8075 51.9914 32.7475 51.9628C32.6874 51.9342 32.6215 51.9058 32.5498 51.8777C32.4781 51.8495 32.4006 51.8215 32.3173 51.7938C32.2341 51.766 32.1451 51.7386 32.0506 51.7113C31.956 51.6841 31.8559 51.6572 31.7503 51.6306C31.6446 51.6039 31.5335 51.5776 31.417 51.5517C31.3005 51.5257 31.1787 51.5001 31.0517 51.4748C30.9247 51.4495 30.7925 51.4246 30.6552 51.4001C30.5179 51.3756 30.3756 51.3516 30.2285 51.3279C30.0812 51.3043 29.9292 51.2811 29.7725 51.2583C29.6157 51.2355 29.4543 51.2132 29.2884 51.1914C29.1224 51.1695 28.9521 51.1482 28.7773 51.1274C28.6025 51.1066 28.4237 51.0863 28.2405 51.0664C28.0574 51.0467 27.8704 51.0275 27.6793 51.0088C27.4883 50.9901 27.2936 50.972 27.095 50.9544C26.8966 50.9369 26.6946 50.9199 26.4891 50.9036C26.2836 50.8872 26.0749 50.8714 25.8629 50.8563C25.651 50.8411 25.436 50.8266 25.2181 50.8127C25.0001 50.7988 24.7795 50.7856 24.5561 50.773C24.3327 50.7604 24.1069 50.7485 23.8785 50.7372C23.6502 50.7259 23.4197 50.7153 23.187 50.7054C22.9543 50.6955 22.7198 50.6862 22.4833 50.6777C22.2468 50.6691 22.0087 50.6613 21.769 50.6541C21.5293 50.647 21.2883 50.6405 21.0459 50.6348C20.8035 50.629 20.5601 50.624 20.3156 50.6197C20.0712 50.6153 19.826 50.6117 19.58 50.6088C19.3341 50.6059 19.0877 50.6038 18.8409 50.6023C18.5941 50.6009 18.3471 50.6002 18.1 50.6002C17.8529 50.6002 17.6059 50.6009 17.3591 50.6023C17.1122 50.6038 16.8659 50.6059 16.6199 50.6088C16.374 50.6117 16.1288 50.6153 15.8844 50.6197C15.6399 50.624 15.3965 50.629 15.1542 50.6348C14.9118 50.6405 14.6707 50.647 14.431 50.6541C14.1913 50.6613 13.9532 50.6691 13.7167 50.6777C13.4802 50.6862 13.2456 50.6955 13.013 50.7054C12.7803 50.7153 12.5498 50.7259 12.3215 50.7372C12.0932 50.7485 11.8673 50.7604 11.6439 50.773C11.4205 50.7856 11.1998 50.7988 10.9819 50.8127C10.764 50.8266 10.549 50.8411 10.3371 50.8563C10.1251 50.8714 9.91641 50.8872 9.71092 50.9036C9.50543 50.9199 9.3034 50.9369 9.10494 50.9544C8.90648 50.972 8.7117 50.9901 8.52065 51.0087C8.32963 51.0274 8.14256 51.0467 7.95943 51.0664C7.77635 51.0863 7.59744 51.1066 7.42272 51.1274C7.24795 51.1482 7.0776 51.1695 6.91166 51.1914C6.74568 51.2132 6.58431 51.2355 6.42756 51.2583C6.27076 51.2811 6.11877 51.3043 5.97158 51.3279C5.82436 51.3516 5.6821 51.3756 5.54481 51.4001C5.40752 51.4246 5.27535 51.4495 5.1483 51.4748C5.02125 51.5001 4.89948 51.5257 4.78299 51.5517C4.6665 51.5776 4.55542 51.6039 4.44976 51.6306C4.3441 51.6572 4.24399 51.6841 4.14942 51.7113C4.05485 51.7386 3.96594 51.766 3.88269 51.7938C3.79943 51.8215 3.72194 51.8495 3.6502 51.8777C3.57846 51.9058 3.51257 51.9342 3.45253 51.9628C3.39248 51.9914 3.33836 52.0201 3.29014 52.049C3.24193 52.0779 3.1997 52.1069 3.16344 52.1361C3.12717 52.1652 3.09693 52.1944 3.07271 52.2237C3.04849 52.2531 3.03032 52.2824 3.01819 52.3119C3.00606 52.3413 3 52.3707 3 52.4002Z"></path><path id="路径 2" fill-rule="evenodd" fill="url(#linear_1)" opacity="1" d="M34.1 54.7001C34.1 54.7214 34.1034 54.7426 34.1102 54.7639C34.1169 54.7851 34.127 54.8063 34.1405 54.8275C34.154 54.8487 34.1708 54.8698 34.191 54.8908C34.2111 54.9119 34.2346 54.9328 34.2615 54.9537C34.2883 54.9746 34.3184 54.9953 34.3518 55.016C34.3852 55.0366 34.4219 55.0571 34.4617 55.0774C34.5017 55.0978 34.5448 55.118 34.5911 55.138C34.6374 55.1581 34.6869 55.1779 34.7395 55.1976C34.7921 55.2172 34.8478 55.2367 34.9065 55.2559C34.9653 55.2751 35.0271 55.2941 35.0919 55.3129C35.1567 55.3317 35.2244 55.3502 35.2951 55.3684C35.3658 55.3867 35.4393 55.4046 35.5157 55.4223C35.5921 55.44 35.6712 55.4574 35.7531 55.4745C35.835 55.4916 35.9195 55.5084 36.0067 55.5248C36.094 55.5413 36.1837 55.5574 36.276 55.5731C36.3684 55.5889 36.4631 55.6043 36.5603 55.6193C36.6576 55.6344 36.7571 55.649 36.859 55.6633C36.9608 55.6776 37.0649 55.6915 37.1712 55.705C37.2774 55.7185 37.3858 55.7316 37.4962 55.7442C37.6066 55.7569 37.7189 55.7691 37.8333 55.781C37.9476 55.7928 38.0637 55.8042 38.1816 55.8151C38.2995 55.8261 38.4191 55.8365 38.5403 55.8465C38.6616 55.8566 38.7843 55.8662 38.9086 55.8753C39.0328 55.8844 39.1585 55.893 39.2855 55.9011C39.4125 55.9093 39.5407 55.9169 39.6702 55.9241C39.7996 55.9313 39.9301 55.9379 40.0617 55.9441C40.1932 55.9503 40.3257 55.9559 40.459 55.9611C40.5923 55.9663 40.7265 55.971 40.8613 55.9751C40.9961 55.9792 41.1315 55.9829 41.2675 55.986C41.4035 55.9891 41.5399 55.9917 41.6767 55.9939C41.8136 55.9959 41.9506 55.9975 42.0879 55.9985C42.2252 55.9996 42.3626 56.0001 42.5 56.0001C42.6376 56.0001 42.775 55.9996 42.9122 55.9985C43.0495 55.9975 43.1866 55.9959 43.3234 55.9939C43.4602 55.9917 43.5966 55.9891 43.7326 55.986C43.8686 55.9829 44.004 55.9792 44.1388 55.9751C44.2736 55.971 44.4077 55.9663 44.5411 55.9611C44.6744 55.9559 44.8069 55.9503 44.9384 55.9441C45.07 55.9379 45.2005 55.9313 45.3299 55.9241C45.4594 55.9169 45.5876 55.9093 45.7146 55.9011C45.8416 55.893 45.9672 55.8844 46.0915 55.8753C46.2158 55.8662 46.3386 55.8566 46.4598 55.8466C46.581 55.8366 46.7006 55.8261 46.8185 55.8151C46.9365 55.8042 47.0525 55.7928 47.1669 55.781C47.2812 55.7692 47.3935 55.7569 47.5039 55.7442C47.6143 55.7316 47.7227 55.7185 47.829 55.705C47.9352 55.6915 48.0393 55.6776 48.1412 55.6633C48.243 55.649 48.3425 55.6344 48.4397 55.6193C48.5369 55.6043 48.6318 55.5889 48.724 55.5731C48.8163 55.5574 48.9061 55.5413 48.9933 55.5248C49.0806 55.5084 49.1651 55.4916 49.247 55.4745C49.3289 55.4574 49.4081 55.44 49.4844 55.4223C49.5608 55.4046 49.6343 55.3867 49.705 55.3684C49.7757 55.3502 49.8434 55.3317 49.9082 55.3129C49.973 55.2941 50.0348 55.2751 50.0936 55.2559C50.1523 55.2367 50.208 55.2172 50.2607 55.1976C50.3132 55.1779 50.3627 55.1581 50.409 55.138C50.4554 55.118 50.4984 55.0978 50.5383 55.0774C50.5782 55.0571 50.6149 55.0366 50.6483 55.016C50.6817 54.9953 50.7118 54.9746 50.7387 54.9537C50.7654 54.9328 50.7889 54.9119 50.8092 54.8908C50.8293 54.8698 50.8461 54.8487 50.8596 54.8275C50.8731 54.8063 50.8832 54.7851 50.89 54.7639C50.8967 54.7426 50.9 54.7214 50.9 54.7001C50.9 54.6788 50.8967 54.6575 50.89 54.6363C50.8832 54.6151 50.8731 54.5938 50.8596 54.5727C50.8461 54.5515 50.8293 54.5304 50.8092 54.5093C50.7889 54.4883 50.7654 54.4673 50.7387 54.4465C50.7118 54.4256 50.6817 54.4049 50.6483 54.3842C50.6149 54.3636 50.5782 54.3431 50.5383 54.3227C50.4984 54.3024 50.4554 54.2822 50.409 54.2621C50.3627 54.2421 50.3132 54.2222 50.2607 54.2026C50.208 54.1829 50.1523 54.1635 50.0936 54.1443C50.0348 54.125 49.973 54.106 49.9082 54.0873C49.8434 54.0685 49.7757 54.05 49.705 54.0317C49.6343 54.0135 49.5608 53.9955 49.4844 53.9778C49.4081 53.9601 49.3289 53.9427 49.247 53.9257C49.1651 53.9086 49.0806 53.8918 48.9933 53.8754C48.9061 53.859 48.8163 53.8428 48.724 53.8271C48.6318 53.8113 48.5369 53.7959 48.4397 53.7808C48.3425 53.7658 48.243 53.7511 48.1412 53.7368C48.0393 53.7226 47.9352 53.7087 47.829 53.6952C47.7227 53.6817 47.6144 53.6686 47.5039 53.6559C47.3935 53.6432 47.2812 53.631 47.1669 53.6192C47.0525 53.6074 46.9365 53.596 46.8185 53.585C46.7006 53.5741 46.581 53.5636 46.4598 53.5536C46.3386 53.5436 46.2158 53.534 46.0915 53.5249C45.9673 53.5158 45.8416 53.5072 45.7146 53.4991C45.5876 53.4909 45.4594 53.4832 45.3299 53.4761C45.2005 53.4689 45.07 53.4622 44.9385 53.456C44.8069 53.4499 44.6744 53.4442 44.5411 53.4391C44.4077 53.4339 44.2737 53.4292 44.1388 53.425C44.004 53.4209 43.8686 53.4173 43.7326 53.4141C43.5966 53.411 43.4602 53.4084 43.3234 53.4064C43.1866 53.4042 43.0495 53.4027 42.9122 53.4017C42.775 53.4006 42.6376 53.4001 42.5 53.4001C42.3626 53.4001 42.2252 53.4006 42.0879 53.4017C41.9506 53.4027 41.8136 53.4042 41.6767 53.4064C41.5399 53.4084 41.4035 53.411 41.2675 53.4141C41.1315 53.4173 40.9961 53.4209 40.8613 53.425C40.7265 53.4292 40.5923 53.4339 40.459 53.4391C40.3257 53.4442 40.1932 53.4499 40.0617 53.456C39.9301 53.4622 39.7996 53.4689 39.6702 53.4761C39.5407 53.4832 39.4125 53.4909 39.2855 53.4991C39.1585 53.5072 39.0328 53.5158 38.9086 53.5249C38.7843 53.534 38.6616 53.5436 38.5403 53.5536C38.4191 53.5636 38.2995 53.5741 38.1816 53.585C38.0637 53.5959 37.9476 53.6073 37.8333 53.6192C37.719 53.631 37.6066 53.6432 37.4962 53.6559C37.3858 53.6686 37.2774 53.6817 37.1712 53.6952C37.0649 53.7087 36.9608 53.7226 36.859 53.7368C36.7571 53.7511 36.6576 53.7658 36.5604 53.7808C36.4632 53.7959 36.3684 53.8113 36.2761 53.8271C36.1837 53.8428 36.094 53.859 36.0068 53.8754C35.9196 53.8918 35.835 53.9086 35.7531 53.9257C35.6712 53.9427 35.5921 53.9601 35.5157 53.9778C35.4394 53.9955 35.3658 54.0135 35.2951 54.0317C35.2244 54.05 35.1567 54.0685 35.0919 54.0873C35.0271 54.106 34.9653 54.125 34.9065 54.1443C34.8478 54.1635 34.7921 54.1829 34.7395 54.2026C34.6869 54.2222 34.6374 54.2421 34.5911 54.2621C34.5448 54.2822 34.5017 54.3024 34.4617 54.3227C34.4219 54.3431 34.3852 54.3636 34.3518 54.3842C34.3184 54.4049 34.2883 54.4256 34.2615 54.4465C34.2346 54.4673 34.2111 54.4883 34.191 54.5093C34.1708 54.5304 34.154 54.5515 34.1405 54.5727C34.127 54.5938 34.1169 54.6151 34.1102 54.6363C34.1034 54.6575 34.1 54.6788 34.1 54.7001Z"></path><path id="路径 3" fill-rule="evenodd" style="fill:#000000" opacity="1" d="M33.3 24.2L11.8 24.2C11.1 24.2 10.5 24.7001 10.5 25.3001C10.5 25.9001 11.1 26.4 11.8 26.4L33.3 26.4C34 26.4 34.6 25.9001 34.6 25.3001C34.6 24.7001 34 24.2 33.3 24.2Z"></path><path id="路径 4" fill-rule="evenodd" fill="url(#linear_2)" opacity="1" d="M54.8 28.1002L33.7001 28.7002C32.4 28.7002 31.3 29.8002 31.3 31.1002L31.3 45.1002C31.3 46.4002 32.4 47.5002 33.7001 47.5002L41.6 47.5002L41.8 49.3002L43.8 50.2002C44.2001 50.4002 44.9 50.3002 45.2 49.9002L47.6 47.5002L54.4 47.5002C55.7 47.5002 57.4 46.4002 57.4 45.1002L57.4 31.1002C57.5 29.8002 56.1 28.1002 54.8 28.1002Z"></path><path id="路径 5" fill-rule="evenodd" fill="url(#linear_3)" opacity="1" d="M52.9999 28.1002L31.1 28.1002C29.8 28.1002 28.7 29.2002 28.7 30.5002L28.7 44.3002C28.7 45.6002 29.8 46.7002 31.1 46.7002L39 46.7002L41.4 49.1002C41.7 49.4002 42.3 49.4002 42.6 49.1002L45 46.7002L52.9999 46.7002C54.3 46.7002 55.3999 45.6002 55.3999 44.3002L55.3999 30.5002C55.3 29.2002 54.3 28.1002 52.9999 28.1002Z"></path><path id="路径 5" fill-rule="evenodd" fill="url(#linear_4)" opacity="1" d="M52.9999 28.1002L31.1 28.1002C29.8 28.1002 28.7 29.2002 28.7 30.5002L28.7 44.3002C28.7 45.6002 29.8 46.7002 31.1 46.7002L39 46.7002L41.4 49.1002C41.7 49.4002 42.3 49.4002 42.6 49.1002L45 46.7002L52.9999 46.7002C54.3 46.7002 55.3999 45.6002 55.3999 44.3002L55.3999 30.5002C55.3 29.2002 54.3 28.1002 52.9999 28.1002Z"></path><path id="路径 6" fill-rule="evenodd" fill="url(#linear_5)" opacity="1" d="M39.5999 11.0002L9.39996 11.8002C7.49994 11.8002 5.99994 13.3002 5.99994 15.2002L5.99994 35.0002C5.99994 36.9002 7.49994 38.4002 9.39996 38.4002L20.8 38.4002L21.8999 41.1002L23.5 41.9002C24.4 42.3002 25.6 42.1002 26.2999 41.4002L29.2999 38.3002L40.6999 38.3002C42.5999 38.3002 44.0999 36.8002 44.0999 34.9002L44.0999 15.2002C44.0999 13.3002 41.5 11.0002 39.5999 11.0002Z"></path><path id="路径 7" fill-rule="evenodd" style="fill:#3889FF" opacity="1" d="M37.7 11.0002L6.40002 11.0002C4.5 11.0002 3 12.5002 3 14.4002L3 34.2002C3 36.1002 4.5 37.6002 6.40002 37.6002L17.8 37.6002L20.8 40.7002C21.5 41.4002 22.6 41.4002 23.3 40.7002L26.3 37.6002L37.7 37.6002C39.6 37.6002 41.1 36.1002 41.1 34.2002L41.1 14.4002C41.1 12.5002 39.6 11.0002 37.7 11.0002Z"></path><g opacity="1"  transform="translate(7.492919921875 18.32598876953125)"><path id="路径 9" fill-rule="evenodd" fill="url(#linear_6)" opacity="1" d="M3.53556 4.7194L7.04752 8.2785C7.75464 8.98562 7.76431 9.91873 7.07109 10.6119C6.37783 11.3052 5.42119 11.3191 4.71407 10.6119L1.17855 7.07642C0.471468 6.36934 0.485291 5.41266 1.17855 4.7194C1.87176 4.02619 2.89917 4.08301 3.53556 4.7194Z"></path><path id="路径 9" fill-rule="evenodd" fill="url(#linear_7)" opacity="1" d="M11.7856 3.53575L18.8319 10.6322C19.539 11.3393 19.5487 12.2724 18.8555 12.9657C18.1622 13.6589 17.2056 13.6728 16.4985 12.9657L9.42855 5.89277C8.72147 5.18569 8.73529 4.229 9.42855 3.53575C10.1218 2.84253 11.1492 2.89935 11.7856 3.53575Z"></path><path id="路径 9" fill-rule="evenodd" fill="url(#linear_8)" opacity="1" d="M11.7952 5.90263L7.08121 10.6167C6.37409 11.3238 5.41741 11.3099 4.72419 10.6167C4.03094 9.92341 4.01707 8.96677 4.72419 8.25965L9.43823 3.54561C10.1453 2.83853 11.102 2.85236 11.7952 3.54561C12.4885 4.23883 12.4316 5.26623 11.7952 5.90263Z"></path><path id="路径 9" fill-rule="evenodd" fill="url(#linear_9)" opacity="1" d="M28.2952 3.53575L18.8681 12.9623C18.161 13.6694 17.2043 13.6555 16.5111 12.9623C15.8178 12.2691 15.804 11.3124 16.5111 10.6053L25.9382 1.17873C26.6453 0.471648 27.602 0.485471 28.2952 1.17873C28.9885 1.87194 28.9316 2.89935 28.2952 3.53575Z"></path></g><path id="路径 9" fill-rule="evenodd" style="fill:#FFFFFF" opacity="1" d="M10.2021 21.3791L13.7141 24.9382C14.4212 25.6453 14.4309 26.5785 13.7377 27.2717C13.0444 27.9649 12.0878 27.9788 11.3806 27.2717L7.84511 23.7361C7.13803 23.0291 7.15186 22.0724 7.84511 21.3791C8.53833 20.6859 9.56573 20.7427 10.2021 21.3791Z"></path><path id="路径 9" fill-rule="evenodd" style="fill:#FFFFFF" opacity="1" d="M18.4516 20.2003L25.4979 27.2968C26.205 28.0039 26.2147 28.937 25.5215 29.6302C24.8283 30.3235 23.8716 30.3373 23.1645 29.6302L16.0946 22.5573C15.3875 21.8502 15.4013 20.8936 16.0946 20.2003C16.7878 19.5071 17.8152 19.5639 18.4516 20.2003Z"></path><path id="路径 9" fill-rule="evenodd" style="fill:#FFFFFF" opacity="1" d="M18.4517 22.5575L13.7376 27.2716C13.0305 27.9787 12.0738 27.9648 11.3806 27.2716C10.6874 26.5783 10.6735 25.6217 11.3806 24.9146L16.0947 20.2005C16.8017 19.4934 17.7584 19.5073 18.4517 20.2005C19.1449 20.8937 19.0881 21.9211 18.4517 22.5575Z"></path><path id="路径 9" fill-rule="evenodd" style="fill:#FFFFFF" opacity="1" d="M34.9499 20.2024L25.5228 29.6289C24.8156 30.3361 23.8589 30.3222 23.1657 29.6289C22.4725 28.9357 22.4586 27.979 23.1657 27.2719L32.5929 17.8454C33.3 17.1383 34.2567 17.1521 34.9499 17.8454C35.6431 18.5386 35.5863 19.566 34.9499 20.2024Z"></path><path id="路径 10" fill-rule="evenodd" fill="url(#linear_10)" opacity="1" d="M48 10.5002C48 10.5738 48.0018 10.6474 48.0055 10.721C48.009 10.7945 48.0145 10.868 48.0217 10.9413C48.0289 11.0146 48.0379 11.0876 48.0487 11.1605C48.0595 11.2333 48.0721 11.3059 48.0865 11.3781C48.1008 11.4503 48.117 11.5222 48.1349 11.5936C48.1528 11.665 48.1724 11.736 48.1938 11.8065C48.2151 11.877 48.2382 11.9469 48.263 12.0162C48.2878 12.0855 48.3143 12.1542 48.3425 12.2223C48.3707 12.2903 48.4005 12.3576 48.4321 12.4242C48.4636 12.4908 48.4966 12.5565 48.5313 12.6215C48.5661 12.6864 48.6023 12.7505 48.6402 12.8136C48.6781 12.8768 48.7175 12.939 48.7584 13.0003C48.7993 13.0615 48.8417 13.1217 48.8856 13.1808C48.9295 13.24 48.9747 13.298 49.0215 13.3549C49.0682 13.4119 49.1163 13.4677 49.1657 13.5222C49.2152 13.5768 49.2659 13.6301 49.318 13.6822C49.3701 13.7343 49.4234 13.785 49.478 13.8345C49.5325 13.8839 49.5883 13.932 49.6453 13.9787C49.7022 14.0254 49.7602 14.0707 49.8193 14.1146C49.8785 14.1585 49.9387 14.2009 49.9999 14.2418C50.0612 14.2827 50.1234 14.3221 50.1865 14.36C50.2497 14.3978 50.3138 14.4341 50.3787 14.4689C50.4437 14.5035 50.5094 14.5367 50.576 14.5681C50.6426 14.5996 50.7099 14.6295 50.7779 14.6576C50.846 14.6858 50.9147 14.7123 50.984 14.7372C51.0533 14.7619 51.1232 14.785 51.1937 14.8064C51.2642 14.8278 51.3351 14.8474 51.4066 14.8653C51.478 14.8832 51.5499 14.8993 51.6221 14.9137C51.6943 14.9281 51.7669 14.9407 51.8397 14.9515C51.9126 14.9623 51.9856 14.9713 52.0589 14.9785C52.1322 14.9857 52.2057 14.9912 52.2792 14.9947C52.3528 14.9984 52.4264 15.0002 52.5 15.0002C52.5736 15.0002 52.6472 14.9984 52.7208 14.9947C52.7943 14.9912 52.8678 14.9857 52.9411 14.9785C53.0144 14.9713 53.0874 14.9623 53.1603 14.9515C53.2331 14.9407 53.3057 14.9281 53.3779 14.9137C53.4501 14.8993 53.522 14.8832 53.5934 14.8653C53.6649 14.8474 53.7358 14.8278 53.8063 14.8064C53.8768 14.785 53.9467 14.7619 54.016 14.7372C54.0853 14.7123 54.154 14.6858 54.2221 14.6576C54.2901 14.6295 54.3574 14.5996 54.424 14.5681C54.4906 14.5367 54.5563 14.5035 54.6213 14.4689C54.6862 14.4341 54.7503 14.3978 54.8135 14.36C54.8766 14.3221 54.9388 14.2827 55.0001 14.2418C55.0613 14.2009 55.1215 14.1585 55.1807 14.1146C55.2398 14.0707 55.2979 14.0254 55.3547 13.9787C55.4117 13.932 55.4675 13.8839 55.522 13.8345C55.5766 13.785 55.6299 13.7343 55.682 13.6822C55.7341 13.6301 55.7848 13.5768 55.8343 13.5222C55.8837 13.4677 55.9318 13.4119 55.9785 13.3549C56.0252 13.298 56.0705 13.24 56.1144 13.1808C56.1583 13.1217 56.2007 13.0615 56.2416 13.0003C56.2825 12.939 56.3219 12.8768 56.3597 12.8136C56.3977 12.7505 56.4339 12.6864 56.4687 12.6215C56.5034 12.5565 56.5365 12.4908 56.5679 12.4242C56.5994 12.3576 56.6293 12.2903 56.6575 12.2223C56.6856 12.1542 56.7121 12.0855 56.7369 12.0162C56.7618 11.9469 56.7848 11.877 56.8062 11.8065C56.8276 11.736 56.8472 11.665 56.8651 11.5936C56.883 11.5222 56.8992 11.4503 56.9135 11.3781C56.9279 11.3059 56.9405 11.2333 56.9513 11.1605C56.9621 11.0876 56.9711 11.0146 56.9783 10.9413C56.9855 10.868 56.991 10.7945 56.9946 10.721C56.9982 10.6474 57 10.5738 57 10.5002C57 10.4265 56.9982 10.353 56.9946 10.2794C56.991 10.2059 56.9855 10.1324 56.9783 10.0591C56.9711 9.98581 56.9621 9.91274 56.9513 9.83989C56.9405 9.76704 56.9279 9.6945 56.9135 9.62227C56.8992 9.55005 56.883 9.47821 56.8651 9.40677C56.8472 9.33532 56.8276 9.26437 56.8062 9.1939C56.7848 9.12342 56.7618 9.05352 56.737 8.98419C56.7121 8.91485 56.6856 8.84616 56.6575 8.77811C56.6293 8.71007 56.5994 8.64276 56.5679 8.5762C56.5365 8.5096 56.5034 8.44384 56.4687 8.37891C56.4339 8.31395 56.3977 8.24989 56.3598 8.18673C56.3219 8.12356 56.2825 8.06135 56.2416 8.00011C56.2007 7.93889 56.1583 7.8787 56.1144 7.81952C56.0705 7.76038 56.0252 7.70235 55.9785 7.64544C55.9318 7.58848 55.8837 7.53272 55.8343 7.47815C55.7848 7.42358 55.7341 7.37026 55.682 7.31819C55.6299 7.26612 55.5766 7.21536 55.522 7.16591C55.4675 7.11645 55.4117 7.06837 55.3547 7.02165C55.2979 6.97493 55.2398 6.92964 55.1807 6.88577C55.1215 6.8419 55.0613 6.7995 55.0001 6.75856C54.9388 6.71766 54.8766 6.67827 54.8135 6.64038C54.7503 6.60253 54.6862 6.56624 54.6213 6.53151C54.5563 6.49682 54.4906 6.46374 54.424 6.43225C54.3574 6.40077 54.2901 6.37093 54.2221 6.34272C54.154 6.31456 54.0853 6.28805 54.016 6.26321C53.9467 6.23841 53.8768 6.21532 53.8063 6.19395C53.7358 6.17259 53.6649 6.15296 53.5934 6.13507C53.522 6.11714 53.4501 6.101 53.3779 6.08667C53.3057 6.07229 53.2331 6.05969 53.1603 6.04887C53.0874 6.03809 53.0144 6.02909 52.9411 6.02186C52.8678 6.01464 52.7944 6.00923 52.7208 6.00563C52.6472 6.002 52.5736 6.00018 52.5 6.00018C52.4264 6.00018 52.3528 6.002 52.2792 6.00563C52.2057 6.00923 52.1322 6.01464 52.0589 6.02186C51.9856 6.02909 51.9126 6.03809 51.8397 6.04887C51.7669 6.05969 51.6943 6.07229 51.6221 6.08667C51.5499 6.101 51.478 6.11714 51.4066 6.13507C51.3351 6.15296 51.2642 6.17259 51.1937 6.19395C51.1232 6.21532 51.0533 6.23841 50.984 6.26321C50.9147 6.28805 50.846 6.31456 50.7779 6.34272C50.7099 6.37093 50.6426 6.40077 50.576 6.43225C50.5094 6.46374 50.4437 6.49682 50.3787 6.53151C50.3138 6.56624 50.2497 6.60253 50.1865 6.64038C50.1234 6.67827 50.0612 6.71766 49.9999 6.75856C49.9387 6.7995 49.8785 6.8419 49.8193 6.88577C49.7602 6.92964 49.7022 6.97493 49.6453 7.02165C49.5883 7.06837 49.5325 7.11645 49.478 7.16591C49.4234 7.21536 49.3701 7.26612 49.318 7.31819C49.2659 7.37026 49.2152 7.42358 49.1657 7.47815C49.1163 7.53272 49.0682 7.58848 49.0215 7.64544C48.9747 7.70235 48.9295 7.76038 48.8856 7.81952C48.8417 7.8787 48.7993 7.93889 48.7584 8.00011C48.7175 8.06135 48.6781 8.12356 48.6402 8.18673C48.6023 8.24989 48.5661 8.31395 48.5313 8.37891C48.4966 8.44384 48.4636 8.5096 48.4321 8.5762C48.4005 8.64276 48.3707 8.71007 48.3425 8.77811C48.3144 8.84616 48.2879 8.91485 48.263 8.98419C48.2382 9.05352 48.2151 9.12342 48.1938 9.1939C48.1724 9.26437 48.1528 9.33532 48.1349 9.40677C48.117 9.47821 48.1009 9.55005 48.0865 9.62227C48.0721 9.6945 48.0595 9.76704 48.0487 9.83989C48.0379 9.91274 48.0289 9.98581 48.0217 10.0591C48.0145 10.1324 48.009 10.2059 48.0055 10.2794C48.0018 10.353 48 10.4265 48 10.5002Z"></path><path id="路径 11" fill-rule="evenodd" fill="url(#linear_11)" opacity="1" d="M45.9999 10.5002C45.9999 10.5738 46.0017 10.6474 46.0053 10.721C46.009 10.7945 46.0144 10.868 46.0216 10.9413C46.0288 11.0146 46.0378 11.0876 46.0486 11.1605C46.0594 11.2333 46.072 11.3059 46.0864 11.3781C46.1007 11.4503 46.1169 11.5222 46.1348 11.5936C46.1527 11.665 46.1723 11.736 46.1937 11.8065C46.2151 11.877 46.2382 11.9469 46.263 12.0162C46.2878 12.0855 46.3143 12.1542 46.3425 12.2223C46.3706 12.2903 46.4005 12.3576 46.4319 12.4242C46.4634 12.4908 46.4965 12.5565 46.5313 12.6215C46.566 12.6864 46.6023 12.7505 46.6401 12.8136C46.678 12.8768 46.7174 12.939 46.7583 13.0003C46.7992 13.0615 46.8416 13.1217 46.8855 13.1808C46.9293 13.24 46.9746 13.298 47.0213 13.3549C47.0681 13.4119 47.1162 13.4677 47.1657 13.5222C47.2151 13.5768 47.2659 13.6301 47.3179 13.6822C47.37 13.7343 47.4233 13.785 47.4779 13.8345C47.5325 13.8839 47.5882 13.932 47.6451 13.9787C47.7021 14.0254 47.7601 14.0707 47.8193 14.1146C47.8784 14.1585 47.9386 14.2009 47.9999 14.2418C48.0611 14.2827 48.1233 14.3221 48.1864 14.36C48.2496 14.3978 48.3136 14.4341 48.3786 14.4689C48.4436 14.5035 48.5093 14.5367 48.5759 14.5681C48.6425 14.5996 48.7098 14.6295 48.7778 14.6576C48.8459 14.6858 48.9146 14.7123 48.9839 14.7372C49.0533 14.7619 49.1232 14.785 49.1936 14.8064C49.2641 14.8278 49.3351 14.8474 49.4065 14.8653C49.4779 14.8832 49.5498 14.8993 49.622 14.9137C49.6943 14.9281 49.7668 14.9407 49.8396 14.9515C49.9125 14.9623 49.9856 14.9713 50.0588 14.9785C50.1321 14.9857 50.2055 14.9912 50.2791 14.9947C50.3527 14.9984 50.4263 15.0002 50.4999 15.0002C50.5736 15.0002 50.6472 14.9984 50.7207 14.9947C50.7943 14.9912 50.8677 14.9857 50.941 14.9785C51.0143 14.9713 51.0874 14.9623 51.1602 14.9515C51.233 14.9407 51.3056 14.9281 51.3778 14.9137C51.4501 14.8993 51.5219 14.8832 51.5933 14.8653C51.6647 14.8474 51.7357 14.8278 51.8062 14.8064C51.8767 14.785 51.9466 14.7619 52.0159 14.7372C52.0853 14.7123 52.154 14.6858 52.222 14.6576C52.29 14.6295 52.3573 14.5996 52.4239 14.5681C52.4905 14.5367 52.5562 14.5035 52.6212 14.4689C52.6862 14.4341 52.7502 14.3978 52.8134 14.36C52.8766 14.3221 52.9387 14.2827 53 14.2418C53.0612 14.2009 53.1214 14.1585 53.1805 14.1146C53.2397 14.0707 53.2978 14.0254 53.3547 13.9787C53.4116 13.932 53.4674 13.8839 53.5219 13.8345C53.5765 13.785 53.6298 13.7343 53.6819 13.6822C53.734 13.6301 53.7847 13.5768 53.8342 13.5222C53.8837 13.4677 53.9318 13.4119 53.9785 13.3549C54.0252 13.298 54.0705 13.24 54.1144 13.1808C54.1582 13.1217 54.2006 13.0615 54.2415 13.0003C54.2825 12.939 54.3218 12.8768 54.3597 12.8136C54.3975 12.7505 54.4338 12.6864 54.4686 12.6215C54.5033 12.5565 54.5364 12.4908 54.5679 12.4242C54.5993 12.3576 54.6292 12.2903 54.6573 12.2223C54.6855 12.1542 54.7121 12.0855 54.7369 12.0162C54.7616 11.9469 54.7848 11.877 54.8062 11.8065C54.8276 11.736 54.8472 11.665 54.8651 11.5936C54.8829 11.5222 54.8991 11.4503 54.9135 11.3781C54.9278 11.3059 54.9404 11.2333 54.9512 11.1605C54.962 11.0876 54.9711 11.0146 54.9783 10.9413C54.9855 10.868 54.9909 10.7945 54.9945 10.721C54.9981 10.6474 54.9999 10.5738 54.9999 10.5002C54.9999 10.4265 54.9981 10.353 54.9945 10.2794C54.9909 10.2059 54.9855 10.1324 54.9783 10.0591C54.9711 9.98581 54.962 9.91274 54.9512 9.83989C54.9404 9.76704 54.9278 9.6945 54.9135 9.62227C54.8991 9.55005 54.8829 9.47821 54.8651 9.40677C54.8472 9.33532 54.8276 9.26437 54.8062 9.1939C54.7848 9.12342 54.7616 9.05352 54.7369 8.98419C54.7121 8.91485 54.6855 8.84616 54.6573 8.77811C54.6292 8.71007 54.5993 8.64276 54.5679 8.5762C54.5364 8.5096 54.5033 8.44384 54.4686 8.37891C54.4338 8.31395 54.3975 8.24989 54.3597 8.18673C54.3218 8.12356 54.2825 8.06135 54.2415 8.00011C54.2006 7.93889 54.1582 7.8787 54.1144 7.81952C54.0705 7.76038 54.0252 7.70235 53.9785 7.64544C53.9318 7.58848 53.8837 7.53272 53.8342 7.47815C53.7847 7.42358 53.734 7.37026 53.6819 7.31819C53.6298 7.26612 53.5765 7.21536 53.5219 7.16591C53.4674 7.11645 53.4116 7.06837 53.3547 7.02165C53.2978 6.97493 53.2397 6.92964 53.1805 6.88577C53.1214 6.8419 53.0612 6.7995 53 6.75856C52.9387 6.71766 52.8766 6.67827 52.8134 6.64038C52.7502 6.60253 52.6862 6.56624 52.6212 6.53151C52.5562 6.49682 52.4905 6.46374 52.4239 6.43225C52.3573 6.40077 52.29 6.37093 52.222 6.34272C52.154 6.31456 52.0853 6.28805 52.0159 6.26321C51.9466 6.23841 51.8767 6.21532 51.8062 6.19395C51.7357 6.17259 51.6647 6.15296 51.5933 6.13507C51.5219 6.11714 51.4501 6.101 51.3778 6.08667C51.3056 6.07229 51.233 6.05969 51.1602 6.04887C51.0874 6.03809 51.0143 6.02909 50.941 6.02186C50.8677 6.01464 50.7943 6.00923 50.7207 6.00563C50.6472 6.002 50.5736 6.00018 50.4999 6.00018C50.4263 6.00018 50.3527 6.002 50.2791 6.00563C50.2055 6.00923 50.1321 6.01464 50.0588 6.02186C49.9856 6.02909 49.9125 6.03809 49.8396 6.04887C49.7668 6.05969 49.6943 6.07229 49.622 6.08667C49.5498 6.101 49.478 6.11714 49.4065 6.13507C49.3351 6.15296 49.2641 6.17259 49.1936 6.19395C49.1232 6.21532 49.0533 6.23841 48.9839 6.26321C48.9146 6.28805 48.8459 6.31456 48.7778 6.34272C48.7098 6.37093 48.6425 6.40077 48.5759 6.43225C48.5093 6.46374 48.4436 6.49682 48.3786 6.53151C48.3137 6.56624 48.2496 6.60253 48.1864 6.64038C48.1233 6.67827 48.0611 6.71766 47.9999 6.75856C47.9386 6.7995 47.8784 6.8419 47.8193 6.88577C47.7601 6.92964 47.7021 6.97493 47.6451 7.02165C47.5882 7.06837 47.5325 7.11645 47.4779 7.16591C47.4233 7.21536 47.37 7.26612 47.3179 7.31819C47.2659 7.37026 47.2151 7.42358 47.1657 7.47815C47.1162 7.53272 47.0681 7.58848 47.0213 7.64544C46.9746 7.70235 46.9293 7.76038 46.8855 7.81952C46.8416 7.8787 46.7992 7.93889 46.7583 8.00011C46.7174 8.06135 46.678 8.12356 46.6401 8.18673C46.6023 8.24989 46.566 8.31395 46.5313 8.37891C46.4965 8.44384 46.4634 8.5096 46.4319 8.5762C46.4005 8.64276 46.3706 8.71007 46.3425 8.77811C46.3143 8.84616 46.2878 8.91485 46.263 8.98419C46.2382 9.05352 46.2151 9.12342 46.1937 9.1939C46.1723 9.26437 46.1527 9.33532 46.1348 9.40677C46.1169 9.47821 46.1007 9.55005 46.0864 9.62227C46.072 9.6945 46.0594 9.76704 46.0486 9.83989C46.0378 9.91274 46.0288 9.98581 46.0216 10.0591C46.0144 10.1324 46.009 10.2059 46.0053 10.2794C46.0017 10.353 45.9999 10.4265 45.9999 10.5002Z"></path><path id="路径 11" fill-rule="evenodd" fill="url(#linear_12)" opacity="1" d="M45.9999 10.5002C45.9999 10.5738 46.0017 10.6474 46.0053 10.721C46.009 10.7945 46.0144 10.868 46.0216 10.9413C46.0288 11.0146 46.0378 11.0876 46.0486 11.1605C46.0594 11.2333 46.072 11.3059 46.0864 11.3781C46.1007 11.4503 46.1169 11.5222 46.1348 11.5936C46.1527 11.665 46.1723 11.736 46.1937 11.8065C46.2151 11.877 46.2382 11.9469 46.263 12.0162C46.2878 12.0855 46.3143 12.1542 46.3425 12.2223C46.3706 12.2903 46.4005 12.3576 46.4319 12.4242C46.4634 12.4908 46.4965 12.5565 46.5313 12.6215C46.566 12.6864 46.6023 12.7505 46.6401 12.8136C46.678 12.8768 46.7174 12.939 46.7583 13.0003C46.7992 13.0615 46.8416 13.1217 46.8855 13.1808C46.9293 13.24 46.9746 13.298 47.0213 13.3549C47.0681 13.4119 47.1162 13.4677 47.1657 13.5222C47.2151 13.5768 47.2659 13.6301 47.3179 13.6822C47.37 13.7343 47.4233 13.785 47.4779 13.8345C47.5325 13.8839 47.5882 13.932 47.6451 13.9787C47.7021 14.0254 47.7601 14.0707 47.8193 14.1146C47.8784 14.1585 47.9386 14.2009 47.9999 14.2418C48.0611 14.2827 48.1233 14.3221 48.1864 14.36C48.2496 14.3978 48.3136 14.4341 48.3786 14.4689C48.4436 14.5035 48.5093 14.5367 48.5759 14.5681C48.6425 14.5996 48.7098 14.6295 48.7778 14.6576C48.8459 14.6858 48.9146 14.7123 48.9839 14.7372C49.0533 14.7619 49.1232 14.785 49.1936 14.8064C49.2641 14.8278 49.3351 14.8474 49.4065 14.8653C49.4779 14.8832 49.5498 14.8993 49.622 14.9137C49.6943 14.9281 49.7668 14.9407 49.8396 14.9515C49.9125 14.9623 49.9856 14.9713 50.0588 14.9785C50.1321 14.9857 50.2055 14.9912 50.2791 14.9947C50.3527 14.9984 50.4263 15.0002 50.4999 15.0002C50.5736 15.0002 50.6472 14.9984 50.7207 14.9947C50.7943 14.9912 50.8677 14.9857 50.941 14.9785C51.0143 14.9713 51.0874 14.9623 51.1602 14.9515C51.233 14.9407 51.3056 14.9281 51.3778 14.9137C51.4501 14.8993 51.5219 14.8832 51.5933 14.8653C51.6647 14.8474 51.7357 14.8278 51.8062 14.8064C51.8767 14.785 51.9466 14.7619 52.0159 14.7372C52.0853 14.7123 52.154 14.6858 52.222 14.6576C52.29 14.6295 52.3573 14.5996 52.4239 14.5681C52.4905 14.5367 52.5562 14.5035 52.6212 14.4689C52.6862 14.4341 52.7502 14.3978 52.8134 14.36C52.8766 14.3221 52.9387 14.2827 53 14.2418C53.0612 14.2009 53.1214 14.1585 53.1805 14.1146C53.2397 14.0707 53.2978 14.0254 53.3547 13.9787C53.4116 13.932 53.4674 13.8839 53.5219 13.8345C53.5765 13.785 53.6298 13.7343 53.6819 13.6822C53.734 13.6301 53.7847 13.5768 53.8342 13.5222C53.8837 13.4677 53.9318 13.4119 53.9785 13.3549C54.0252 13.298 54.0705 13.24 54.1144 13.1808C54.1582 13.1217 54.2006 13.0615 54.2415 13.0003C54.2825 12.939 54.3218 12.8768 54.3597 12.8136C54.3975 12.7505 54.4338 12.6864 54.4686 12.6215C54.5033 12.5565 54.5364 12.4908 54.5679 12.4242C54.5993 12.3576 54.6292 12.2903 54.6573 12.2223C54.6855 12.1542 54.7121 12.0855 54.7369 12.0162C54.7616 11.9469 54.7848 11.877 54.8062 11.8065C54.8276 11.736 54.8472 11.665 54.8651 11.5936C54.8829 11.5222 54.8991 11.4503 54.9135 11.3781C54.9278 11.3059 54.9404 11.2333 54.9512 11.1605C54.962 11.0876 54.9711 11.0146 54.9783 10.9413C54.9855 10.868 54.9909 10.7945 54.9945 10.721C54.9981 10.6474 54.9999 10.5738 54.9999 10.5002C54.9999 10.4265 54.9981 10.353 54.9945 10.2794C54.9909 10.2059 54.9855 10.1324 54.9783 10.0591C54.9711 9.98581 54.962 9.91274 54.9512 9.83989C54.9404 9.76704 54.9278 9.6945 54.9135 9.62227C54.8991 9.55005 54.8829 9.47821 54.8651 9.40677C54.8472 9.33532 54.8276 9.26437 54.8062 9.1939C54.7848 9.12342 54.7616 9.05352 54.7369 8.98419C54.7121 8.91485 54.6855 8.84616 54.6573 8.77811C54.6292 8.71007 54.5993 8.64276 54.5679 8.5762C54.5364 8.5096 54.5033 8.44384 54.4686 8.37891C54.4338 8.31395 54.3975 8.24989 54.3597 8.18673C54.3218 8.12356 54.2825 8.06135 54.2415 8.00011C54.2006 7.93889 54.1582 7.8787 54.1144 7.81952C54.0705 7.76038 54.0252 7.70235 53.9785 7.64544C53.9318 7.58848 53.8837 7.53272 53.8342 7.47815C53.7847 7.42358 53.734 7.37026 53.6819 7.31819C53.6298 7.26612 53.5765 7.21536 53.5219 7.16591C53.4674 7.11645 53.4116 7.06837 53.3547 7.02165C53.2978 6.97493 53.2397 6.92964 53.1805 6.88577C53.1214 6.8419 53.0612 6.7995 53 6.75856C52.9387 6.71766 52.8766 6.67827 52.8134 6.64038C52.7502 6.60253 52.6862 6.56624 52.6212 6.53151C52.5562 6.49682 52.4905 6.46374 52.4239 6.43225C52.3573 6.40077 52.29 6.37093 52.222 6.34272C52.154 6.31456 52.0853 6.28805 52.0159 6.26321C51.9466 6.23841 51.8767 6.21532 51.8062 6.19395C51.7357 6.17259 51.6647 6.15296 51.5933 6.13507C51.5219 6.11714 51.4501 6.101 51.3778 6.08667C51.3056 6.07229 51.233 6.05969 51.1602 6.04887C51.0874 6.03809 51.0143 6.02909 50.941 6.02186C50.8677 6.01464 50.7943 6.00923 50.7207 6.00563C50.6472 6.002 50.5736 6.00018 50.4999 6.00018C50.4263 6.00018 50.3527 6.002 50.2791 6.00563C50.2055 6.00923 50.1321 6.01464 50.0588 6.02186C49.9856 6.02909 49.9125 6.03809 49.8396 6.04887C49.7668 6.05969 49.6943 6.07229 49.622 6.08667C49.5498 6.101 49.478 6.11714 49.4065 6.13507C49.3351 6.15296 49.2641 6.17259 49.1936 6.19395C49.1232 6.21532 49.0533 6.23841 48.9839 6.26321C48.9146 6.28805 48.8459 6.31456 48.7778 6.34272C48.7098 6.37093 48.6425 6.40077 48.5759 6.43225C48.5093 6.46374 48.4436 6.49682 48.3786 6.53151C48.3137 6.56624 48.2496 6.60253 48.1864 6.64038C48.1233 6.67827 48.0611 6.71766 47.9999 6.75856C47.9386 6.7995 47.8784 6.8419 47.8193 6.88577C47.7601 6.92964 47.7021 6.97493 47.6451 7.02165C47.5882 7.06837 47.5325 7.11645 47.4779 7.16591C47.4233 7.21536 47.37 7.26612 47.3179 7.31819C47.2659 7.37026 47.2151 7.42358 47.1657 7.47815C47.1162 7.53272 47.0681 7.58848 47.0213 7.64544C46.9746 7.70235 46.9293 7.76038 46.8855 7.81952C46.8416 7.8787 46.7992 7.93889 46.7583 8.00011C46.7174 8.06135 46.678 8.12356 46.6401 8.18673C46.6023 8.24989 46.566 8.31395 46.5313 8.37891C46.4965 8.44384 46.4634 8.5096 46.4319 8.5762C46.4005 8.64276 46.3706 8.71007 46.3425 8.77811C46.3143 8.84616 46.2878 8.91485 46.263 8.98419C46.2382 9.05352 46.2151 9.12342 46.1937 9.1939C46.1723 9.26437 46.1527 9.33532 46.1348 9.40677C46.1169 9.47821 46.1007 9.55005 46.0864 9.62227C46.072 9.6945 46.0594 9.76704 46.0486 9.83989C46.0378 9.91274 46.0288 9.98581 46.0216 10.0591C46.0144 10.1324 46.009 10.2059 46.0053 10.2794C46.0017 10.353 45.9999 10.4265 45.9999 10.5002Z"></path></g></g><defs><rect id="path_0" x="0" y="0" width="60" height="60" rx="0" ry="0"/><linearGradient id="linear_0" x1="29.118995952711007%" y1="5.169204491319128%" x2="83.92302964160491%" y2="62.989477019684955%" gradientUnits="objectBoundingBox"><stop offset="0" stop-color="#E8F8FA" stop-opacity="0.9" /><stop offset="1" stop-color="#BADEF7" stop-opacity="1" /></linearGradient><linearGradient id="linear_1" x1="29.119019565261063%" y1="5.169204491319128%" x2="83.92299128093826%" y2="62.989477019684955%" gradientUnits="objectBoundingBox"><stop offset="0" stop-color="#E8F8FA" stop-opacity="0.9" /><stop offset="1" stop-color="#BADEF7" stop-opacity="1" /></linearGradient><linearGradient id="linear_2" x1="39.928007482789546%" y1="17.244%" x2="88.17897163568091%" y2="85.071%" gradientUnits="objectBoundingBox"><stop offset="0" stop-color="#FAD7EA" stop-opacity="0.18" /><stop offset="1" stop-color="#D9BFCA" stop-opacity="0.2" /></linearGradient><linearGradient id="linear_3" x1="35.65095588147644%" y1="38.03640723644769%" x2="100.00027260220128%" y2="100.00013980735723%" gradientUnits="objectBoundingBox"><stop offset="0" stop-color="#FAEDF2" stop-opacity="0.96" /><stop offset="1" stop-color="#FCCFDD" stop-opacity="1" /></linearGradient><linearGradient id="linear_4" x1="80.92118002667516%" y1="13.935019482155228%" x2="20.632894652692457%" y2="92.94612994534626%" gradientUnits="objectBoundingBox"><stop offset="0" stop-color="#FF57A5" stop-opacity="1" /><stop offset="1" stop-color="#FC2828" stop-opacity="1" /></linearGradient><linearGradient id="linear_5" x1="29.118995850940767%" y1="5.169204491319128%" x2="83.92302980693962%" y2="62.989477019684955%" gradientUnits="objectBoundingBox"><stop offset="0" stop-color="#E8F8FA" stop-opacity="0.9" /><stop offset="1" stop-color="#BADEF7" stop-opacity="1" /></linearGradient><linearGradient id="linear_6" x1="4.6462971514826314" y1="3.600146902131321" x2="6.512804566808588" y2="8.192310724579997" gradientUnits="userSpaceOnUse"><stop offset="0" stop-color="#E8F8FA" stop-opacity="0.9" /><stop offset="1" stop-color="#BADEF7" stop-opacity="1" /></linearGradient><linearGradient id="linear_7" x1="14.658883610579679" y1="1.678543606288048" x2="18.462343082510877" y2="8.209372749693998" gradientUnits="userSpaceOnUse"><stop offset="0" stop-color="#E8F8FA" stop-opacity="0.9" /><stop offset="1" stop-color="#BADEF7" stop-opacity="1" /></linearGradient><linearGradient id="linear_8" x1="11.732195235124362" y1="4.267298373498727" x2="6.49414682463159" y2="6.779682815612432" gradientUnits="userSpaceOnUse"><stop offset="0" stop-color="#E8F8FA" stop-opacity="0.9" /><stop offset="1" stop-color="#BADEF7" stop-opacity="1" /></linearGradient><linearGradient id="linear_9" x1="27.8357878627644" y1="0.9166747331616364" x2="20.014746796534318" y2="6.011705853491552" gradientUnits="userSpaceOnUse"><stop offset="0" stop-color="#E8F8FA" stop-opacity="0.9" /><stop offset="1" stop-color="#BADEF7" stop-opacity="1" /></linearGradient><linearGradient id="linear_10" x1="39.928000000000004%" y1="17.244%" x2="88.179%" y2="85.071%" gradientUnits="objectBoundingBox"><stop offset="0" stop-color="#FAD7EA" stop-opacity="0.18" /><stop offset="1" stop-color="#D9BFCA" stop-opacity="0.2" /></linearGradient><linearGradient id="linear_11" x1="35.651016183457926%" y1="38.03640723644769%" x2="100.00006247562506%" y2="100.00013980735723%" gradientUnits="objectBoundingBox"><stop offset="0" stop-color="#FAEDF2" stop-opacity="0.96" /><stop offset="1" stop-color="#FCCFDD" stop-opacity="1" /></linearGradient><linearGradient id="linear_12" x1="80.9210500801498%" y1="13.935019482155228%" x2="20.633018068205594%" y2="92.94612994534626%" gradientUnits="objectBoundingBox"><stop offset="0" stop-color="#FF57A5" stop-opacity="1" /><stop offset="1" stop-color="#FC2828" stop-opacity="1" /></linearGradient></defs></svg>