<svg xmlns="http://www.w3.org/2000/svg" xmlns:xlink="http://www.w3.org/1999/xlink" width="36" height="36" viewBox="0 0 36 36" fill="none"><g opacity="1"  transform="translate(0 0)"><mask id="bg-mask-0" fill="white"><use transform="translate(0 0)" xlink:href="#path_0"></use></mask><g mask="url(#bg-mask-0)" ><path id="路径 1" fill-rule="evenodd" fill="url(#linear_0)" opacity="1" d="M5.28003 25.2L30.9 25.2L34.14 29.8199C35.3999 31.56 34.62 33 32.46 33L3.42002 33C1.26002 33 0.540021 31.6199 1.86002 29.88L5.28003 25.2Z"></path><path id="路径 2" fill-rule="evenodd" fill="url(#linear_1)" opacity="1" d="M9.94044 4.19995L26.25 4.19995C28.3333 4.19995 30 5.87993 30 7.97995L30 26.2199C30 28.32 28.3333 29.9999 26.25 29.9999L9.94044 29.9999C7.85708 29.9999 6.19043 28.32 6.19043 26.2199L6.19043 7.97995C6.19043 5.87993 7.85708 4.19995 9.94044 4.19995Z"></path><path id="路径 3" fill-rule="evenodd" fill="url(#linear_2)" opacity="1" d="M8.75 4.19995L25.06 4.19995C27.1433 4.19995 28.81 5.87992 28.81 7.97994L28.81 26.2199C28.81 28.3199 27.1433 29.9999 25.06 29.9999L8.75 29.9999C6.66666 29.9999 5 28.3199 5 26.2199L5 7.97994C5 5.87992 6.66666 4.19995 8.75 4.19995Z"></path><path id="路径 4" fill-rule="evenodd" style="fill:#DAE9FF" opacity="1" d="M9.82877 18L11.6888 18C11.9676 18 12.1588 18.24 12.1588 18.6L12.1588 23.4C12.1588 23.76 11.9676 24 11.6888 24L9.82877 24C9.54996 24 9.36877 23.76 9.36877 23.4L9.36877 18.6C9.36877 18.24 9.54996 18 9.82877 18ZM15.6787 15L17.5287 15C17.8075 15 17.9987 15.24 17.9987 15.6L17.9987 23.4C17.9987 23.76 17.8075 24 17.5287 24L15.6787 24C15.3999 24 15.2087 23.76 15.2087 23.4L15.2087 15.6C15.2087 15.24 15.3999 15 15.6787 15Z"></path><path id="路径 5" fill-rule="evenodd" style="fill:#DAE9FF" opacity="1" d="M7.97998 23.7998C7.97998 23.4399 8.24733 23.2 8.51465 23.2L24.5544 23.2C24.8217 23.2 25.0891 23.4399 25.0891 23.7998C25.0891 24.1598 24.8217 24.3998 24.5544 24.3998L8.51465 24.3998C8.19385 24.3998 7.97998 24.1598 7.97998 23.7998Z"></path><path id="路径 6" fill-rule="evenodd" style="fill:#DAE9FF" opacity="1" d="M21.5323 11.2L23.6613 11.2C23.9807 11.2 24.1936 11.44 24.1936 11.8L24.1936 23.8C24.1936 24.16 23.9807 24.4 23.6613 24.4L21.5323 24.4C21.2129 24.4 21 24.16 21 23.8L21 11.8C21 11.44 21.2129 11.2 21.5323 11.2Z"></path><path id="路径 7" fill-rule="evenodd" style="fill:#FFFFFF" opacity="1" d="M9.36674 17.4L11.2267 17.4C11.5055 17.4 11.6967 17.64 11.6967 18L11.6967 22.8C11.6967 23.16 11.5055 23.4 11.2267 23.4L9.36674 23.4C9.08793 23.4 8.90674 23.16 8.90674 22.8L8.90674 18C8.90674 17.64 9.08793 17.4 9.36674 17.4ZM15.1467 14.4L16.9967 14.4C17.2755 14.4 17.4667 14.64 17.4667 15L17.4667 22.8C17.4667 23.16 17.2755 23.4 16.9967 23.4L15.1467 23.4C14.8679 23.4 14.6767 23.16 14.6767 22.8L14.6767 15C14.6767 14.64 14.8679 14.4 15.1467 14.4ZM21.1367 10.2L22.9967 10.2C23.2755 10.2 23.4567 10.44 23.4567 10.8L23.4567 22.8C23.4567 23.16 23.2755 23.4 22.9967 23.4L21.1367 23.4C20.8579 23.4 20.6667 23.16 20.6667 22.8L20.6667 10.8C20.6667 10.44 20.8579 10.2 21.1367 10.2Z"></path><path id="路径 8" fill-rule="evenodd" style="fill:#FFFFFF" opacity="1" d="M7.62463 22.8L23.6644 22.8C23.9852 22.8 24.199 23.04 24.199 23.4C24.199 23.7599 23.9852 23.9999 23.6644 23.9999L7.62463 23.9999C7.30384 23.9999 7.08997 23.7599 7.08997 23.4C7.08997 23.04 7.30384 22.8 7.62463 22.8Z"></path><path id="路径 11" fill-rule="evenodd" fill="url(#linear_3)" opacity="1" d="M16.8 22.0199C16.8 21.1199 17.52 20.3999 18.42 20.3999L30.42 20.3999C31.32 20.3999 32.16 21.1199 32.28 22.0199C32.28 22.0199 32.4 22.7999 32.4 23.2799L32.4 29.0399C32.4 29.9399 31.68 30.6599 30.78 30.6599L18.42 30.6599C17.52 30.6599 16.8 29.9399 16.8 29.0399L16.8 22.0199Z"></path><path id="路径 12" fill-rule="evenodd" fill="url(#linear_4)" opacity="1" d="M17.82 20.3999L29.58 20.3999C30.48 20.3999 31.2 21.1199 31.2 22.0199L31.2 28.9799C31.2 29.8799 30.48 30.5999 29.58 30.5999L17.82 30.5999C16.92 30.5999 16.2 29.8799 16.2 28.9799L16.2 22.0199C16.2 21.1199 16.92 20.3999 17.82 20.3999Z"></path><path id="路径 12" fill-rule="evenodd" fill="url(#linear_5)" opacity="1" d="M17.82 20.3999L29.58 20.3999C30.48 20.3999 31.2 21.1199 31.2 22.0199L31.2 28.9799C31.2 29.8799 30.48 30.5999 29.58 30.5999L17.82 30.5999C16.92 30.5999 16.2 29.8799 16.2 28.9799L16.2 22.0199C16.2 21.1199 16.92 20.3999 17.82 20.3999Z"></path><path id="路径 13" fill-rule="evenodd" style="fill:#FFFFFF" opacity="1" d="M19.1999 29.7C18.96 29.7 18.78 29.64 18.6 29.46C18.24 29.1 18.24 28.56 18.6 28.2L21.66 25.02C21.9599 24.72 22.4399 24.66 22.7999 24.9001L24.4199 26.04L27.6 22.8C27.96 22.44 28.5 22.44 28.86 22.8C29.22 23.16 29.22 23.7 28.86 24.06L25.1399 27.84C24.8399 28.1401 24.36 28.2 24 27.9601L22.38 26.82L19.86 29.4001C19.68 29.5801 19.4399 29.7 19.1999 29.7Z"></path><path id="路径 14" fill-rule="evenodd" style="fill:#FFFFFF" opacity="1" d="M29.1 24.2401C29.04 24.5401 28.8 24.6601 28.56 24.4201L27.12 23.0401C26.88 22.8001 26.94 22.5601 27.24 22.5001L28.8 22.2001C29.1 22.1401 29.34 22.3201 29.28 22.6801L29.1 24.2401Z"></path></g></g><defs><rect id="path_0" x="0" y="0" width="36" height="36" rx="0" ry="0"/><linearGradient id="linear_0" x1="29.118969193068672%" y1="5.169204491319128%" x2="83.92307311500007%" y2="62.989477019684955%" gradientUnits="objectBoundingBox"><stop offset="0" stop-color="#E8F8FA" stop-opacity="0.9" /><stop offset="1" stop-color="#BADEF7" stop-opacity="1" /></linearGradient><linearGradient id="linear_1" x1="39.927999867805255%" y1="17.244%" x2="88.17900050109839%" y2="85.071%" gradientUnits="objectBoundingBox"><stop offset="0" stop-color="#D7F2FA" stop-opacity="0.18" /><stop offset="1" stop-color="#BFCDD9" stop-opacity="0.2" /></linearGradient><linearGradient id="linear_2" x1="80.91953965803495%" y1="13.935026372865188%" x2="20.632627646275203%" y2="92.94617590615914%" gradientUnits="objectBoundingBox"><stop offset="0" stop-color="#57DDFF" stop-opacity="1" /><stop offset="1" stop-color="#1692F7" stop-opacity="1" /></linearGradient><linearGradient id="linear_3" x1="39.92801576272036%" y1="17.244%" x2="88.17894024971203%" y2="85.071%" gradientUnits="objectBoundingBox"><stop offset="0" stop-color="#FAD7EA" stop-opacity="0.18" /><stop offset="1" stop-color="#D9BFCA" stop-opacity="0.2" /></linearGradient><linearGradient id="linear_4" x1="35.651016183457926%" y1="38.03640723644769%" x2="100.00006247562506%" y2="100.00013980735723%" gradientUnits="objectBoundingBox"><stop offset="0" stop-color="#FAEDF2" stop-opacity="0.96" /><stop offset="1" stop-color="#FCCFDD" stop-opacity="1" /></linearGradient><linearGradient id="linear_5" x1="80.9210500801498%" y1="13.935019482155228%" x2="20.633018068205594%" y2="92.94612994534626%" gradientUnits="objectBoundingBox"><stop offset="0" stop-color="#FF57A5" stop-opacity="1" /><stop offset="1" stop-color="#FC2828" stop-opacity="1" /></linearGradient></defs></svg>