<svg xmlns="http://www.w3.org/2000/svg" xmlns:xlink="http://www.w3.org/1999/xlink" width="16" height="16" viewBox="0 0 16 16" fill="none"><g opacity="1"  transform="translate(0 0)"><mask id="bg-mask-0" fill="white"><use transform="translate(0 0)" xlink:href="#path_0"></use></mask><g mask="url(#bg-mask-0)" ><path id="拼合图形" fill-rule="evenodd" style="fill:#FFFFFF" opacity="0.6" d="M9.48734 10.9071C9.2691 11.1691 9.28287 11.559 9.52864 11.8047L11.1953 13.4714C11.2578 13.5339 11.3299 13.5821 11.4116 13.6159C11.4933 13.6497 11.5783 13.6667 11.6667 13.6667C11.7551 13.6667 11.8402 13.6497 11.9218 13.6159C12.0035 13.5821 12.0756 13.5339 12.1381 13.4714C12.1691 13.4405 12.1967 13.4068 12.221 13.3704C12.2453 13.334 12.2659 13.2956 12.2826 13.2551C12.2994 13.2147 12.312 13.173 12.3206 13.1301C12.3291 13.0871 12.3334 13.0438 12.3334 13C12.3334 12.9562 12.3291 12.9129 12.3206 12.8699C12.312 12.827 12.2994 12.7853 12.2826 12.7449C12.2659 12.7044 12.2453 12.666 12.221 12.6296C12.1967 12.5932 12.1691 12.5596 12.1381 12.5286L11.6095 11.9999L14.6667 11.9999C14.7105 11.9999 14.7538 11.9957 14.7968 11.9871C14.8397 11.9786 14.8814 11.9659 14.9218 11.9492C14.9623 11.9324 15.0007 11.9119 15.0371 11.8876C15.0735 11.8633 15.1072 11.8356 15.1381 11.8047C15.1691 11.7737 15.1967 11.74 15.221 11.7036C15.2453 11.6673 15.2659 11.6288 15.2826 11.5884C15.2994 11.5479 15.312 11.5063 15.3206 11.4633C15.3291 11.4204 15.3334 11.377 15.3334 11.3333C15.3334 11.2895 15.3291 11.2461 15.3206 11.2032C15.312 11.1603 15.2994 11.1186 15.2826 11.0781C15.2659 11.0377 15.2453 10.9993 15.221 10.9629C15.1967 10.9265 15.1691 10.8928 15.1381 10.8619C15.1072 10.8309 15.0735 10.8033 15.0371 10.779C15.0007 10.7546 14.9623 10.7341 14.9218 10.7173C14.8814 10.7006 14.8397 10.6879 14.7968 10.6794C14.7538 10.6709 14.7105 10.6666 14.6667 10.6666L11.6096 10.6666L12.1381 10.1381C12.2006 10.0756 12.2488 10.0035 12.2826 9.92179C12.3165 9.84011 12.3334 9.75507 12.3334 9.66667C12.3334 9.57826 12.3165 9.49322 12.2826 9.41154C12.2488 9.32987 12.2006 9.25777 12.1381 9.19526C12.0756 9.13275 12.0035 9.08458 11.9218 9.05075C11.8402 9.01692 11.7551 9 11.6667 9C11.5783 9 11.4933 9.01692 11.4116 9.05075C11.3299 9.08458 11.2578 9.13275 11.1953 9.19526L9.53428 10.8563C9.51775 10.8724 9.50211 10.8894 9.48734 10.9071Z"></path><path id="拼合图形" fill-rule="evenodd" style="fill:#FFFFFF" opacity="0.6" d="M3.33335 3.66659L8.00002 7.16659L12.6667 3.66659L3.33335 3.66659ZM0.85913 2.53135C0.740145 2.65176 0.666687 2.81726 0.666687 2.99992L0.666687 12.9999C0.666687 13.3681 0.965164 13.6666 1.33335 13.6666L8.00002 13.6666C8.0438 13.6666 8.08715 13.6624 8.13008 13.6538C8.17302 13.6452 8.2147 13.6326 8.25514 13.6158C8.29558 13.5991 8.334 13.5786 8.3704 13.5542C8.4068 13.5299 8.44047 13.5023 8.47142 13.4713C8.50238 13.4404 8.53001 13.4067 8.55433 13.3703C8.57865 13.3339 8.59919 13.2955 8.61594 13.255C8.63269 13.2146 8.64533 13.173 8.65387 13.13C8.66241 13.0871 8.66668 13.0437 8.66668 12.9999C8.66668 12.9561 8.66241 12.9128 8.65387 12.8698C8.64533 12.8269 8.63269 12.7852 8.61594 12.7448C8.59919 12.7044 8.57865 12.6659 8.55433 12.6295C8.53001 12.5931 8.50238 12.5595 8.47142 12.5285C8.44047 12.4976 8.4068 12.47 8.3704 12.4456C8.334 12.4213 8.29558 12.4008 8.25514 12.384C8.2147 12.3673 8.17302 12.3546 8.13008 12.346C8.08715 12.3375 8.0438 12.3332 8.00002 12.3332L2.00002 12.3332L2.00002 4.33325L7.60002 8.53325C7.83705 8.71103 8.16298 8.71103 8.40002 8.53325L14.0001 4.33325L14.0001 7.99992C14.0001 8.04369 14.0043 8.08705 14.0129 8.12998C14.0214 8.17291 14.034 8.2146 14.0508 8.25504C14.0675 8.29548 14.088 8.3339 14.1124 8.3703C14.1367 8.40669 14.1643 8.44036 14.1953 8.47132C14.2263 8.50227 14.26 8.52991 14.2964 8.55423C14.3327 8.57855 14.3711 8.59908 14.4116 8.61584C14.452 8.63259 14.4937 8.64524 14.5367 8.65378C14.5796 8.66232 14.6229 8.66659 14.6667 8.66659C14.7105 8.66659 14.7538 8.66232 14.7968 8.65378C14.8397 8.64524 14.8814 8.63259 14.9219 8.61584C14.9623 8.59908 15.0007 8.57855 15.0371 8.55423C15.0735 8.52991 15.1071 8.50227 15.1381 8.47132C15.1691 8.44036 15.1967 8.40669 15.221 8.3703C15.2453 8.3339 15.2659 8.29548 15.2827 8.25504C15.2994 8.2146 15.312 8.17291 15.3206 8.12998C15.3291 8.08705 15.3334 8.04369 15.3334 7.99992L15.3334 2.99992C15.3334 2.63218 15.0357 2.33398 14.6681 2.33325L14.6669 2.33325L14.6667 2.33325L14.6666 2.33325L1.33335 2.33325C1.1507 2.33325 0.985198 2.40671 0.864785 2.52569C0.862889 2.52757 0.861004 2.52945 0.85913 2.53135Z"></path></g></g><defs><rect id="path_0" x="0" y="0" width="16" height="16" rx="0" ry="0"/></defs></svg>