<svg xmlns="http://www.w3.org/2000/svg" xmlns:xlink="http://www.w3.org/1999/xlink" width="68" height="68" viewBox="0 0 68 68" fill="none"><g opacity="1"  transform="translate(0 0)"><mask id="mask-0" fill="white"><path d="M0 68L68 68L68 0L0 0L0 68Z"  ></path></mask><path d="M0 68L68 68L68 0L0 0L0 68Z"  ></path><g mask="url(#mask-0)"><path id="shadow" fill-rule="evenodd" style="fill:#A0D1F2" d="M34.0793 63.4219L34.0793 63.4219C47.2193 63.4219 57.8793 52.7619 57.8793 39.6219L57.8793 39.6219C57.8793 26.4819 47.2193 15.8219 34.0793 15.8219L34.0793 15.8219C20.9393 15.8219 10.2793 26.4819 10.2793 39.6219L10.2793 39.6219C10.2793 52.7619 20.9393 63.4219 34.0793 63.4219Z"></path></g><g mask="url(#mask-0)"><path id="BG" fill-rule="evenodd" fill="url(#linear_0)" d="M32.5163 51.9502L48.2173 42.8853C54.7211 39.1303 56.9502 30.8112 53.1952 24.3073L44.1302 8.6063C40.3753 2.10246 32.0562 -0.126635 25.5523 3.62836L9.8513 12.6934C3.34745 16.4484 1.11836 24.7674 4.87336 31.2713L13.9383 46.9723C17.6933 53.4762 26.0124 55.7052 32.5163 51.9502Z"></path></g><g mask="url(#mask-0)"><path id="glass" fill-rule="evenodd" fill="url(#linear_1)" d="M32.8666 55.87L50.9966 55.87C58.5066 55.87 64.5966 49.78 64.5966 42.27L64.5966 24.14C64.5966 16.63 58.5066 10.54 50.9966 10.54L32.8666 10.54C25.3566 10.54 19.2666 16.63 19.2666 24.14L19.2666 42.27C19.2666 49.78 25.3566 55.87 32.8666 55.87Z"></path></g><g mask="url(#mask-0)"><g filter="url(#filter_7)"><path id="并集" fill-rule="evenodd" fill="url(#linear_2)" opacity="1" d="M36.91 29.522C34.41 29.522 33.39 26.322 35.42 24.872C39.32 22.092 44.55 22.092 48.45 24.872C50.48 26.322 49.46 29.522 46.96 29.522L36.91 29.522ZM37.5855 39.1959L37.5855 33.4488C37.5855 32.1988 36.5655 31.1788 35.3155 31.1788L34.6455 31.1788C33.3955 31.1788 32.3755 32.1988 32.3755 33.4488L32.3755 39.1959L31.9833 39.1959C31.0033 39.1959 30.2033 39.9959 30.2033 40.9759C30.2033 40.9981 30.2037 41.0202 30.2045 41.0421C29.4539 41.2511 28.9 41.942 28.9 42.7574C28.9 43.7374 29.7 44.5374 30.68 44.5374L53.19 44.5374C54.17 44.5374 54.97 43.7374 54.97 42.7574C54.97 41.9408 54.4145 41.2491 53.6622 41.0412C53.6629 41.0195 53.6633 40.9978 53.6633 40.9759C53.6633 39.9959 52.8633 39.1959 51.8833 39.1959L51.4878 39.1959L51.4878 33.4488C51.4878 32.1988 50.4678 31.1788 49.2178 31.1788L48.5478 31.1788C47.2978 31.1788 46.2778 32.1988 46.2778 33.4488L46.2778 39.1959L44.5366 39.1959L44.5366 33.4488C44.5366 32.1988 43.5166 31.1788 42.2666 31.1788L41.5966 31.1788C40.3466 31.1788 39.3266 32.1988 39.3266 33.4488L39.3266 39.1959L37.5855 39.1959Z"></path></g></g></g><defs><filter id="filter_3" x="-6.8" y="-6.8" width="61.1999755859375" height="61.1999755859375" filterUnits="userSpaceOnUse" color-interpolation-filters="sRGB"><feFlood flood-opacity="0" result="BackgroundImageFix"/>
          <feBlend mode="normal" in="SourceGraphic" in2="BackgroundImageFix" result="shape"/>
          <feGaussianBlur stdDeviation="3.4" result="effect1_foregroundBlur" /></filter><linearGradient id="linear_0" x1="29.680410879420755" y1="3.3036757282277147" x2="23.92106299487248" y2="47.98841297448543" gradientUnits="userSpaceOnUse"><stop offset="0" stop-color="#57DDFF" stop-opacity="1" /><stop offset="1" stop-color="#1692F7" stop-opacity="1" /></linearGradient><filter id="filter_4" x="0" y="0" width="55.245751557044066" height="54.114106702398914" filterUnits="userSpaceOnUse" color-interpolation-filters="sRGB"><feFlood flood-opacity="0" result="feFloodId"/>
        <feColorMatrix in="SourceAlpha" type="matrix" values="0 0 0 0 0 0 0 0 0 0 0 0 0 0 0 0 0 0 127 0" result="hardAlpha"/>
        
        <feOffset dx="-0.22666666666666666" dy="0.33999999999999997"/>
        
         <feComposite in2="hardAlpha" operator="out"/>
        <feColorMatrix type="matrix" values="0 0 0 0 0.03137254901960784 0 0 0 0 0.5254901960784314 0 0 0 0 0.8117647058823529 0 0 0 1 0"/>
        <feBlend mode="normal" in2="BackgroundImageFix" result="dropShadow_1"/>
        <feBlend mode="normal" in="SourceGraphic" in2="dropShadow_2" result="shape"/></filter><linearGradient id="linear_1" x1="39.927250316257165%" y1="17.244%" x2="88.18184175691198%" y2="85.071%" gradientUnits="objectBoundingBox"><stop offset="0" stop-color="#D7F2FA" stop-opacity="0.18" /><stop offset="1" stop-color="#BFCDD9" stop-opacity="0.2" /></linearGradient><filter id="filter_5" x="0" y="0" width="78.19659999999999" height="60.40333333333333" filterUnits="userSpaceOnUse" color-interpolation-filters="sRGB"><feFlood flood-opacity="0" result="feFloodId"/>
        <feColorMatrix in="SourceAlpha" type="matrix" values="0 0 0 0 0 0 0 0 0 0 0 0 0 0 0 0 0 0 127 0" result="hardAlpha"/>
        
        <feOffset dx="0.22666666666666666" dy="0.33999999999999997"/>
        
         <feComposite in2="hardAlpha" operator="out"/>
        <feColorMatrix type="matrix" values="0 0 0 0 0.4666666666666667 0 0 0 0 0.6980392156862745 0 0 0 0 0.8313725490196079 0 0 0 0.49 0"/>
        <feBlend mode="normal" in2="BackgroundImageFix" result="dropShadow_1"/>
        
        <feColorMatrix in="SourceAlpha" type="matrix" values="0 0 0 0 0 0 0 0 0 0 0 0 0 0 0 0 0 0 127 0" result="hardAlpha"/>
        <feMorphology radius="-4.533333333333333" operator="dilate" in="SourceAlpha"/>
        <feOffset dx="-9.066666666666666" dy="0"/>
        <feGaussianBlur stdDeviation="3.4"/>
         <feComposite in2="hardAlpha" operator="out"/>
        <feColorMatrix type="matrix" values="0 0 0 0 0.10196078431372549 0 0 0 0 0.788235294117647 0 0 0 0 1 0 0 0 0.87 0"/>
        <feBlend mode="normal" in2="dropShadow_1" result="dropShadow_2"/>
        <feBlend mode="normal" in="SourceGraphic" in2="dropShadow_3" result="shape"/>
          <feBlend mode="normal" in="SourceGraphic" in2="BackgroundImageFix" result="shape"/> 
          <feColorMatrix in="SourceAlpha" type="matrix" values="0 0 0 0 0 0 0 0 0 0 0 0 0 0 0 0 0 0 127 0" result="hardAlpha"/>
          
          <feOffset dx="0.11333333333333333" dy="0.22666666666666666"/>
          <feGaussianBlur stdDeviation="0.11333333333333333"/>
          <feComposite in2="hardAlpha" operator="arithmetic" k2="-1" k3="1"/>
          <feColorMatrix type="matrix" values="0 0 0 0 0.9294117647058824 0 0 0 0 0.8941176470588236 0 0 0 0 0.8941176470588236 0 0 0 0.59 0"/>
          <feBlend mode="normal" in2="shape" result="innerShadow_0" />
          </filter><filter id="filter_6" x="-6.8" y="-6.8" width="58.9333740234375" height="58.9333740234375" filterUnits="userSpaceOnUse" color-interpolation-filters="sRGB"><feFlood flood-opacity="0" result="BackgroundImageFix"/>
          <feGaussianBlur in="BackgroundImage" stdDeviation="3.4"/>
          <feComposite in2="SourceAlpha" operator="in" result="effect1_backgroundBlur"/>
          <feBlend mode="normal" in="SourceGraphic" in2="effect1_backgroundBlur" result="shape"/></filter><linearGradient id="linear_2" x1="29.121687292007444%" y1="5.169204491319128%" x2="83.91865732394615%" y2="62.989477019684955%" gradientUnits="objectBoundingBox"><stop offset="0" stop-color="#E8F8FA" stop-opacity="0.9" /><stop offset="1" stop-color="#BADEF7" stop-opacity="1" /></linearGradient><filter id="filter_7" x="0" y="0" width="65.17" height="55.870733333333334" filterUnits="userSpaceOnUse" color-interpolation-filters="sRGB"><feFlood flood-opacity="0" result="feFloodId"/>
        <feColorMatrix in="SourceAlpha" type="matrix" values="0 0 0 0 0 0 0 0 0 0 0 0 0 0 0 0 0 0 127 0" result="hardAlpha"/>
        
        <feOffset dx="1.1333333333333333" dy="2.2666666666666666"/>
        <feGaussianBlur stdDeviation="2.2666666666666666"/>
         <feComposite in2="hardAlpha" operator="out"/>
        <feColorMatrix type="matrix" values="0 0 0 0 0.5372549019607843 0 0 0 0 0.7647058823529411 0 0 0 0 0.9607843137254902 0 0 0 0.69 0"/>
        <feBlend mode="normal" in2="BackgroundImageFix" result="dropShadow_1"/>
        
        <feColorMatrix in="SourceAlpha" type="matrix" values="0 0 0 0 0 0 0 0 0 0 0 0 0 0 0 0 0 0 127 0" result="hardAlpha"/>
        
        <feOffset dx="0.22666666666666666" dy="0.22666666666666666"/>
        <feGaussianBlur stdDeviation="0.11333333333333333"/>
         <feComposite in2="hardAlpha" operator="out"/>
        <feColorMatrix type="matrix" values="0 0 0 0 0 0 0 0 0 0 0 0 0 0 0 0 0 0 0.25 0"/>
        <feBlend mode="normal" in2="dropShadow_1" result="dropShadow_2"/>
        <feBlend mode="normal" in="SourceGraphic" in2="dropShadow_3" result="shape"/>
          <feBlend mode="normal" in="SourceGraphic" in2="BackgroundImageFix" result="shape"/> 
          <feColorMatrix in="SourceAlpha" type="matrix" values="0 0 0 0 0 0 0 0 0 0 0 0 0 0 0 0 0 0 127 0" result="hardAlpha"/>
          
          <feOffset dx="0.22666666666666666" dy="0.22666666666666666"/>
          <feGaussianBlur stdDeviation="0.11333333333333333"/>
          <feComposite in2="hardAlpha" operator="arithmetic" k2="-1" k3="1"/>
          <feColorMatrix type="matrix" values="0 0 0 0 1 0 0 0 0 1 0 0 0 0 1 0 0 0 1 0"/>
          <feBlend mode="normal" in2="shape" result="innerShadow_0" />
          </filter></defs></svg>