<svg xmlns="http://www.w3.org/2000/svg" xmlns:xlink="http://www.w3.org/1999/xlink" width="32" height="32" viewBox="0 0 32 32" fill="none"><g opacity="1"  transform="translate(0 0)"><mask id="bg-mask-0" fill="white"><use transform="translate(0 0)" xlink:href="#path_0"></use></mask><g mask="url(#bg-mask-0)" ><g opacity="1"  transform="translate(0 0)"><path d="M32 0L32 32L0 32L0 0L32 0ZM16.7907 31.0107L16.776 31.0133L16.6813 31.06L16.6547 31.0653L16.636 31.06L16.5413 31.0133C16.528 31.008 16.516 31.012 16.5093 31.02L16.504 31.0333L16.4813 31.604L16.488 31.6307L16.5013 31.648L16.64 31.7467L16.66 31.752L16.676 31.7467L16.8147 31.648L16.8307 31.6267L16.836 31.604L16.8133 31.0347C16.8107 31.0213 16.8013 31.012 16.7907 31.0107ZM17.144 30.86L17.1267 30.8627L16.88 30.9867L16.8667 31L16.8627 31.0147L16.8867 31.588L16.8933 31.604L16.904 31.6133L17.172 31.7373C17.188 31.7427 17.2027 31.7373 17.2107 31.7267L17.216 31.708L17.1707 30.8893C17.1667 30.8733 17.1573 30.8627 17.144 30.86ZM16.1907 30.8627C16.1767 30.8563 16.1647 30.8589 16.1547 30.8707L16.1467 30.8893L16.1013 31.708C16.1013 31.724 16.1107 31.7347 16.124 31.74L16.144 31.7373L16.412 31.6133L16.4253 31.6027L16.4307 31.588L16.4533 31.0147L16.4493 30.9987L16.436 30.9853L16.1907 30.8627Z"  ></path><path id="路径 2" fill-rule="evenodd" style="fill:#333333" opacity="1" d="M21.3333 13.3333C25.5386 13.3333 29.3333 16.248 29.3333 20.284C29.3333 22.5453 28.1066 24.488 26.32 25.724C26.2613 26.0773 26.3093 26.4333 26.3093 26.7893C26.3097 26.8684 26.3025 26.9467 26.2876 27.0241C26.2725 27.1017 26.2501 27.1771 26.2204 27.2503C26.1905 27.3235 26.1538 27.3929 26.1104 27.4589C26.0669 27.5249 26.0174 27.586 25.9618 27.6421C25.9064 27.6984 25.846 27.7487 25.7805 27.7929C25.715 27.8372 25.646 27.8747 25.5732 27.9055C25.5004 27.9361 25.4253 27.9595 25.3478 27.9753C25.2705 27.9912 25.1924 27.9995 25.1133 28C24.2066 28 23.3666 27.7013 22.656 27.14C22.2253 27.2027 21.7826 27.2347 21.3333 27.2347C17.128 27.2347 13.3333 24.32 13.3333 20.284C13.3333 16.248 17.128 13.3333 21.3333 13.3333ZM12.6666 4C17.7026 4 22.1986 7.38 22.632 12.0827C22.2009 12.0276 21.768 12 21.3333 12C16.6226 12 12 15.2973 12 20.2787C12 20.7507 12.0413 21.208 12.12 21.648C11.7061 21.6288 11.2946 21.5871 10.8853 21.5227C9.99196 22.2547 8.96129 22.6667 7.80529 22.6667C7.11463 22.6667 6.55596 22.088 6.55596 21.3733L6.56129 21.1107L6.58396 20.5813C6.59683 20.3156 6.57239 20.0535 6.51063 19.7947C4.22663 18.2227 2.66663 15.7253 2.66663 12.832C2.66663 7.74267 7.36663 4 12.6666 4ZM18.6666 17.3333C18.579 17.3333 18.4924 17.3419 18.4065 17.3589C18.3206 17.376 18.2373 17.4013 18.1564 17.4348C18.0754 17.4683 17.9986 17.5093 17.9258 17.558C17.853 17.6067 17.7857 17.6619 17.7238 17.7239C17.6618 17.7857 17.6066 17.8531 17.558 17.9259C17.5093 17.9987 17.4682 18.0755 17.4348 18.1564C17.4013 18.2373 17.376 18.3207 17.3589 18.4065C17.3418 18.4924 17.3333 18.5791 17.3333 18.6667C17.3333 18.7543 17.3418 18.8409 17.3589 18.9268C17.376 19.0127 17.4013 19.096 17.4348 19.1769C17.4682 19.2579 17.5093 19.3347 17.558 19.4075C17.6066 19.4803 17.6618 19.5476 17.7238 19.6095C17.7857 19.6713 17.853 19.7267 17.9258 19.7753C17.9986 19.824 18.0754 19.8651 18.1564 19.8985C18.2373 19.932 18.3206 19.9573 18.4065 19.9744C18.4924 19.9915 18.579 20 18.6666 20C18.7542 20 18.8409 19.9915 18.9268 19.9744C19.0126 19.9573 19.096 19.932 19.1769 19.8985C19.2578 19.8651 19.3346 19.824 19.4074 19.7753C19.4802 19.7267 19.5476 19.6713 19.6094 19.6095C19.6713 19.5476 19.7266 19.4803 19.7753 19.4075C19.824 19.3347 19.865 19.2579 19.8985 19.1769C19.932 19.096 19.9573 19.0127 19.9744 18.9268C19.9914 18.8409 20 18.7543 20 18.6667C20 18.5791 19.9914 18.4924 19.9744 18.4065C19.9573 18.3207 19.932 18.2373 19.8985 18.1564C19.865 18.0755 19.824 17.9987 19.7753 17.9259C19.7266 17.8531 19.6713 17.7857 19.6094 17.7239C19.5476 17.6619 19.4802 17.6067 19.4074 17.558C19.3346 17.5093 19.2578 17.4683 19.1769 17.4348C19.096 17.4013 19.0126 17.376 18.9268 17.3589C18.8409 17.3419 18.7542 17.3333 18.6666 17.3333ZM24 17.3333C23.9124 17.3333 23.8257 17.3419 23.7398 17.3589C23.654 17.376 23.5706 17.4013 23.4897 17.4348C23.4088 17.4683 23.332 17.5093 23.2592 17.558C23.1864 17.6067 23.119 17.6619 23.0572 17.7239C22.9952 17.7857 22.94 17.8531 22.8913 17.9259C22.8426 17.9987 22.8016 18.0755 22.7681 18.1564C22.7346 18.2373 22.7093 18.3207 22.6922 18.4065C22.6752 18.4924 22.6666 18.5791 22.6666 18.6667C22.6666 18.7543 22.6752 18.8409 22.6922 18.9268C22.7093 19.0127 22.7346 19.096 22.7681 19.1769C22.8016 19.2579 22.8426 19.3347 22.8913 19.4075C22.94 19.4803 22.9952 19.5476 23.0572 19.6095C23.119 19.6713 23.1864 19.7267 23.2592 19.7753C23.332 19.824 23.4088 19.8651 23.4897 19.8985C23.5706 19.932 23.654 19.9573 23.7398 19.9744C23.8257 19.9915 23.9124 20 24 20C24.0876 20 24.1742 19.9915 24.2601 19.9744C24.346 19.9573 24.4293 19.932 24.5102 19.8985C24.5912 19.8651 24.668 19.824 24.7408 19.7753C24.8136 19.7267 24.8809 19.6713 24.9428 19.6095C25.0046 19.5476 25.06 19.4803 25.1086 19.4075C25.1573 19.3347 25.1984 19.2579 25.2318 19.1769C25.2653 19.096 25.2906 19.0127 25.3077 18.9268C25.3248 18.8409 25.3333 18.7543 25.3333 18.6667C25.3333 18.5791 25.3248 18.4924 25.3077 18.4065C25.2906 18.3207 25.2653 18.2373 25.2318 18.1564C25.1984 18.0755 25.1573 17.9987 25.1086 17.9259C25.06 17.8531 25.0046 17.7857 24.9428 17.7239C24.8809 17.6619 24.8136 17.6067 24.7408 17.558C24.668 17.5093 24.5912 17.4683 24.5102 17.4348C24.4293 17.4013 24.346 17.376 24.2601 17.3589C24.1742 17.3419 24.0876 17.3333 24 17.3333ZM9.33329 8C9.24575 8 9.15904 8.00853 9.07317 8.02561C8.98731 8.04269 8.90393 8.06799 8.82305 8.10149C8.74216 8.135 8.66532 8.17607 8.59253 8.22471C8.51975 8.27335 8.45239 8.32861 8.39048 8.39052C8.32857 8.45243 8.27331 8.51979 8.22467 8.59257C8.17603 8.66536 8.13496 8.7422 8.10145 8.82309C8.06795 8.90397 8.04265 8.98735 8.02557 9.07321C8.00849 9.15908 7.99996 9.24579 7.99996 9.33333C7.99996 9.42088 8.00849 9.50759 8.02557 9.59345C8.04265 9.67932 8.06795 9.76269 8.10145 9.84357C8.13496 9.92447 8.17603 10.0013 8.22467 10.0741C8.27331 10.1469 8.32857 10.2142 8.39048 10.2761C8.45239 10.3381 8.51975 10.3933 8.59253 10.442C8.66532 10.4906 8.74216 10.5317 8.82305 10.5652C8.90393 10.5987 8.98731 10.624 9.07317 10.641C9.15904 10.6581 9.24575 10.6667 9.33329 10.6667C9.42084 10.6667 9.50755 10.6581 9.59341 10.641C9.67928 10.624 9.76265 10.5987 9.84353 10.5652C9.92443 10.5317 10.0013 10.4906 10.0741 10.442C10.1468 10.3933 10.2142 10.3381 10.2761 10.2761C10.338 10.2142 10.3933 10.1469 10.4419 10.0741C10.4906 10.0013 10.5316 9.92447 10.5651 9.84357C10.5986 9.76269 10.6239 9.67932 10.641 9.59345C10.6581 9.50759 10.6666 9.42088 10.6666 9.33333C10.6666 9.24579 10.6581 9.15908 10.641 9.07321C10.6239 8.98735 10.5986 8.90397 10.5651 8.82309C10.5316 8.7422 10.4906 8.66536 10.4419 8.59257C10.3933 8.51979 10.338 8.45243 10.2761 8.39052C10.2142 8.32861 10.1468 8.27335 10.0741 8.22471C10.0013 8.17607 9.92443 8.135 9.84353 8.10149C9.76265 8.06799 9.67928 8.04269 9.59341 8.02561C9.50755 8.00853 9.42084 8 9.33329 8ZM16 8C15.9124 8 15.8257 8.00853 15.7398 8.02561C15.654 8.04269 15.5706 8.06799 15.4897 8.10149C15.4088 8.135 15.332 8.17607 15.2592 8.22471C15.1864 8.27335 15.119 8.32861 15.0572 8.39052C14.9952 8.45243 14.9399 8.51979 14.8913 8.59257C14.8427 8.66536 14.8016 8.7422 14.7681 8.82309C14.7346 8.90397 14.7093 8.98735 14.6922 9.07321C14.6752 9.15908 14.6666 9.24579 14.6666 9.33333C14.6666 9.42088 14.6752 9.50759 14.6922 9.59345C14.7093 9.67932 14.7346 9.76269 14.7681 9.84357C14.8016 9.92447 14.8427 10.0013 14.8913 10.0741C14.9399 10.1469 14.9952 10.2142 15.0572 10.2761C15.119 10.3381 15.1864 10.3933 15.2592 10.442C15.332 10.4906 15.4088 10.5317 15.4897 10.5652C15.5706 10.5987 15.654 10.624 15.7398 10.641C15.8257 10.6581 15.9124 10.6667 16 10.6667C16.0876 10.6667 16.1742 10.6581 16.2601 10.641C16.346 10.624 16.4293 10.5987 16.5102 10.5652C16.5912 10.5317 16.668 10.4906 16.7408 10.442C16.8136 10.3933 16.8809 10.3381 16.9428 10.2761C17.0046 10.2142 17.06 10.1469 17.1086 10.0741C17.1573 10.0013 17.1984 9.92447 17.2318 9.84357C17.2653 9.76269 17.2906 9.67932 17.3077 9.59345C17.3248 9.50759 17.3333 9.42088 17.3333 9.33333C17.3333 9.24579 17.3248 9.15908 17.3077 9.07321C17.2906 8.98735 17.2653 8.90397 17.2318 8.82309C17.1984 8.7422 17.1573 8.66536 17.1086 8.59257C17.06 8.51979 17.0046 8.45243 16.9428 8.39052C16.8809 8.32861 16.8136 8.27335 16.7408 8.22471C16.668 8.17607 16.5912 8.135 16.5102 8.10149C16.4293 8.06799 16.346 8.04269 16.2601 8.02561C16.1742 8.00853 16.0876 8 16 8Z"></path></g></g></g><defs><rect id="path_0" x="0" y="0" width="32" height="32" rx="0" ry="0"/></defs></svg>