<svg xmlns="http://www.w3.org/2000/svg" xmlns:xlink="http://www.w3.org/1999/xlink" width="32" height="32" viewBox="0 0 32 32" fill="none"><g opacity="1"  transform="translate(0 0)"><mask id="bg-mask-0" fill="white"><use transform="translate(0 0)" xlink:href="#path_0"></use></mask><g mask="url(#bg-mask-0)" ><path id="路径 1" fill-rule="evenodd" style="fill:#1952E7" opacity="1" d="M15.8721 14.1853C19.1178 14.1853 21.6024 11.8189 21.6024 8.72988C21.6024 5.63447 19.1178 3.27451 15.8721 3.27451C12.6231 3.27451 10.1416 5.63447 10.1416 8.72988C10.1416 11.8189 12.6199 14.1853 15.8721 14.1853ZM15.8721 17.8211C11.4751 17.8211 2.49902 20.002 2.49902 24.1847L2.49902 28.7319L29.2387 28.7319L29.2387 24.1847C29.2387 20.002 20.2626 17.8211 15.8721 17.8211ZM15.8657 27.4656L13.9566 24.7059L15.8657 19.1866L17.7747 24.7059L15.8657 27.4656Z"></path></g></g><defs><rect id="path_0" x="0" y="0" width="32" height="32" rx="0" ry="0"/></defs></svg>