<svg xmlns="http://www.w3.org/2000/svg" xmlns:xlink="http://www.w3.org/1999/xlink" width="60" height="60" viewBox="0 0 60 60" fill="none"><g opacity="1"  transform="translate(0 0)"><g opacity="1"  transform="translate(0.810546875 4.729705810546875)"><g opacity="1"  transform="translate(0 16.86968994140625)"><path id="Union" fill-rule="evenodd" fill="url(#linear_0)" opacity="1" d="M43.8188 8.43281C35.7521 3.77549 22.6734 3.77549 14.6067 8.43281C10.5728 10.7618 8.55614 13.8143 8.55664 16.8668L8.55664 19.7529C8.55711 22.6138 10.3296 25.4747 13.8741 27.7397C14.1104 27.8907 14.3546 28.039 14.6067 28.1846C22.6734 32.8419 35.7521 32.8419 43.8188 28.1846C47.8526 25.8556 49.8693 22.8031 49.8688 19.7506L49.8688 16.8645C49.8683 13.8128 47.8516 10.7612 43.8188 8.43281Z"></path><path id="Ellipse 44" fill-rule="evenodd" fill="url(#linear_1)" opacity="1" d="M43.8225 8.43485C35.7513 3.77493 22.6745 3.77493 14.6033 8.43485C6.54078 13.0898 6.54078 20.6396 14.612 25.2995C22.6745 29.9545 35.7513 29.9545 43.8138 25.2995C51.885 20.6396 51.885 13.0898 43.8225 8.43485Z"></path><path id="Ellipse 44" fill-rule="evenodd" fill="url(#linear_2)" opacity="1" d="M43.8225 8.43485C35.7513 3.77493 22.6745 3.77493 14.6033 8.43485C6.54078 13.0898 6.54078 20.6396 14.612 25.2995C22.6745 29.9545 35.7513 29.9545 43.8138 25.2995C51.885 20.6396 51.885 13.0898 43.8225 8.43485Z"></path><path id="Ellipse 44" fill-rule="evenodd" fill="url(#linear_3)" opacity="1" d="M43.8225 8.43485C35.7513 3.77493 22.6745 3.77493 14.6033 8.43485C6.54078 13.0898 6.54078 20.6396 14.612 25.2995C22.6745 29.9545 35.7513 29.9545 43.8138 25.2995C51.885 20.6396 51.885 13.0898 43.8225 8.43485Z"></path><path id="Ellipse 44" fill-rule="evenodd" fill="url(#linear_4)" opacity="1" d="M43.8225 8.43485C35.7513 3.77493 22.6745 3.77493 14.6033 8.43485C6.54078 13.0898 6.54078 20.6396 14.612 25.2995C22.6745 29.9545 35.7513 29.9545 43.8138 25.2995C51.885 20.6396 51.885 13.0898 43.8225 8.43485Z"></path><path fill-rule="evenodd" id="Ellipse 44" style="fill:url(#linear_5); opacity:100" d="M14.6033 8.43485C22.6745 3.77493 35.7513 3.77493 43.8225 8.43485C51.885 13.0898 51.885 20.6396 43.8138 25.2995C35.7513 29.9545 22.6745 29.9545 14.612 25.2995C6.54078 20.6396 6.54078 13.0898 14.6033 8.43485ZM14.6911 8.48552C22.7113 3.85507 35.7145 3.85507 43.7347 8.48552C51.7501 13.1132 51.7414 20.6212 43.726 25.2489C35.7106 29.8766 22.7151 29.8766 14.6998 25.2489C6.67959 20.6184 6.67092 13.116 14.6911 8.48552Z"></path></g><g filter="url(#filter_5)"><path id="Intersect" fill-rule="evenodd" fill="url(#linear_6)" opacity="1" d="M43.2538 5.49269C43.8669 5.77844 44.2279 6.48678 44.2279 7.46287L44.2279 20.0261C44.2279 21.2456 43.6645 22.6978 42.7499 23.8355L33.3274 35.5572C32.4128 36.695 31.286 37.3456 30.3714 37.2639L20.9489 36.4223C20.7664 36.406 20.5978 36.3611 20.445 36.2898L10.7695 31.7781C10.9224 31.8493 11.091 31.8943 11.2735 31.9106L20.6959 32.7522C21.6106 32.8339 22.7374 32.1833 23.652 31.0455L33.0744 19.3238C33.9891 18.186 34.5525 16.7339 34.5525 15.5144L34.5525 2.95114C34.5525 1.9753 34.1917 1.26707 33.5789 0.981176L43.2538 5.49269Z"></path><path id="Intersect" fill-rule="evenodd" fill="url(#linear_7)" opacity="1" d="M43.2538 5.49269C43.8669 5.77844 44.2279 6.48678 44.2279 7.46287L44.2279 20.0261C44.2279 21.2456 43.6645 22.6978 42.7499 23.8355L33.3274 35.5572C32.4128 36.695 31.286 37.3456 30.3714 37.2639L20.9489 36.4223C20.7664 36.406 20.5978 36.3611 20.445 36.2898L10.7695 31.7781C10.9224 31.8493 11.091 31.8943 11.2735 31.9106L20.6959 32.7522C21.6106 32.8339 22.7374 32.1833 23.652 31.0455L33.0744 19.3238C33.9891 18.186 34.5525 16.7339 34.5525 15.5144L34.5525 2.95114C34.5525 1.9753 34.1917 1.26707 33.5789 0.981176L43.2538 5.49269Z"></path><path id="Intersect" fill-rule="evenodd" fill="url(#linear_8)" opacity="1" d="M43.2538 5.49269C43.8669 5.77844 44.2279 6.48678 44.2279 7.46287L44.2279 20.0261C44.2279 21.2456 43.6645 22.6978 42.7499 23.8355L33.3274 35.5572C32.4128 36.695 31.286 37.3456 30.3714 37.2639L20.9489 36.4223C20.7664 36.406 20.5978 36.3611 20.445 36.2898L10.7695 31.7781C10.9224 31.8493 11.091 31.8943 11.2735 31.9106L20.6959 32.7522C21.6106 32.8339 22.7374 32.1833 23.652 31.0455L33.0744 19.3238C33.9891 18.186 34.5525 16.7339 34.5525 15.5144L34.5525 2.95114C34.5525 1.9753 34.1917 1.26707 33.5789 0.981176L43.2538 5.49269Z"></path></g><path id="Intersect" fill-rule="evenodd" style="fill:#D9D9D9" opacity="1" d="M41.1491 10.7838C41.1491 10.0491 40.8773 9.51586 40.4156 9.30067L30.7405 4.78911C31.202 5.0044 31.4737 5.53753 31.4737 6.27206L31.4737 15.7301C31.4737 16.6482 31.0493 17.7414 30.3603 18.598L23.2627 27.4224C22.5738 28.279 21.725 28.7688 21.036 28.7073L13.9384 28.0737C13.8008 28.0614 13.6738 28.0275 13.5586 27.9738L23.234 32.4856C23.3492 32.5393 23.4763 32.5732 23.6139 32.5854L30.7115 33.219C31.4004 33.2805 32.2492 32.7907 32.9382 31.9342L40.0358 23.1097C40.7247 22.2531 41.1491 21.1599 41.1491 20.2418L41.1491 10.7838Z"></path><path id="Union" fill-rule="evenodd" fill="url(#linear_9)" opacity="1" d="M23.2619 4.05553C22.5729 3.99403 21.7241 4.48381 21.0352 5.34038L13.9376 14.1649C13.2486 15.0214 12.8242 16.1146 12.8242 17.0327L12.8242 26.4907C12.8242 27.2255 13.096 27.7587 13.5577 27.9739L23.2328 32.4854C22.7713 32.2701 22.4996 31.737 22.4996 31.0025L22.4996 21.5444C22.4996 20.6264 22.9241 19.5332 23.613 18.6766L30.7106 9.85211C31.3996 8.99554 32.2484 8.50576 32.9373 8.56726L40.0349 9.20083C40.1725 9.21311 40.2995 9.247 40.4147 9.3007L30.7393 4.78897C30.6241 4.73527 30.4971 4.70138 30.3595 4.6891L23.2619 4.05553Z"></path><path id="Polygon 1" fill-rule="evenodd" fill="url(#linear_10)" opacity="1" d="M30.8607 9.8521C31.5383 8.99553 32.3731 8.50575 33.0507 8.56725L40.0312 9.20082C40.7088 9.26232 41.1262 9.86575 41.1262 10.7838L41.1262 20.2419C41.1262 21.1599 40.7088 22.2531 40.0312 23.1097L33.0507 31.9342C32.3731 32.7908 31.5383 33.2805 30.8607 33.219L23.8801 32.5855C23.2026 32.524 22.7852 31.9205 22.7852 31.0025L22.7852 21.5444C22.7852 20.6264 23.2026 19.5331 23.8801 18.6766L30.8607 9.8521Z"></path><path fill-rule="evenodd" id="Polygon 1" style="fill:url(#linear_11); opacity:100" d="M33.0507 8.56725C32.3731 8.50575 31.5383 8.99553 30.8607 9.8521L23.8801 18.6766C23.2026 19.5331 22.7852 20.6264 22.7852 21.5444L22.7852 31.0025C22.7852 31.9205 23.2026 32.524 23.8801 32.5855L30.8607 33.219C31.5383 33.2805 32.3731 32.7908 33.0507 31.9342L40.0312 23.1097C40.7088 22.2531 41.1262 21.1599 41.1262 20.2419L41.1262 10.7838C41.1262 9.86575 40.7088 9.26232 40.0312 9.20082L33.0507 8.56725ZM23.9861 18.7604L30.9667 9.93593Q31.4591 9.3134 32.0241 8.98195Q32.5735 8.65962 33.0384 8.70183L40.019 9.33539Q40.4642 9.37581 40.7217 9.74798Q40.9911 10.1375 40.9911 10.7838L40.9911 20.2419Q40.9911 20.9055 40.7066 21.6507Q40.4206 22.3997 39.9252 23.0259L32.9447 31.8504Q32.4522 32.4729 31.8873 32.8043Q31.3379 33.1267 30.8729 33.0845L23.8924 32.4509Q23.4471 32.4105 23.1897 32.0383Q22.9203 31.6488 22.9203 31.0025L22.9203 21.5444Q22.9203 20.8808 23.2048 20.1356Q23.4908 19.3866 23.9861 18.7604Z"></path><g id="Intersect" filter="url(#filter_10)"><g filter="url(#filter_9)"><path id="Intersect" fill-rule="evenodd" fill="url(#linear_12)" opacity="1" d="M30.3728 6.22529C31.2874 5.0875 32.4142 4.43692 33.3288 4.51861L42.7513 5.36019C42.9338 5.37649 43.1024 5.42147 43.2552 5.49272L33.5798 0.980992C33.4269 0.909737 33.2584 0.864759 33.0759 0.848457L23.6534 0.00687796C22.7388 -0.0748121 21.612 0.57577 20.6974 1.71356L11.2749 13.4352C10.3603 14.573 9.79688 16.0252 9.79688 17.2447L9.79688 29.8079C9.79688 30.784 10.1578 31.4924 10.7709 31.7781L20.4459 36.2896C19.8331 36.0037 19.4723 35.2955 19.4723 34.3196L19.4723 21.7564C19.4723 20.5369 20.0357 19.0848 20.9503 17.947L30.3728 6.22529Z"></path></g></g><g filter="url(#filter_11)"><path id="Intersect" fill-rule="evenodd" fill="url(#linear_13)" opacity="1" d="M36.2044 12.6837C36.3553 12.5966 36.4929 12.5831 36.5966 12.6315L35.372 12.0604C35.2682 12.012 35.1306 12.0254 34.9797 12.1126L33.8762 12.7497C33.553 12.9363 33.291 13.39 33.291 13.7632L33.291 24.0722C33.291 24.2711 33.3654 24.407 33.4839 24.4623L34.7086 25.0334C34.5902 24.9781 34.5158 24.8423 34.5158 24.6434L34.5158 14.3343C34.5158 13.9612 34.7777 13.5074 35.1009 13.3208L36.2044 12.6837Z"></path></g><g filter="url(#filter_12)"><path id="Intersect" fill-rule="evenodd" fill="url(#linear_14)" opacity="1" d="M33.0013 17.1943C33.1522 17.1072 33.2897 17.0937 33.3935 17.1421L32.1688 16.571C32.0651 16.5226 31.9275 16.5361 31.7766 16.6232L30.673 17.2603C30.3499 17.4469 30.0879 17.9007 30.0879 18.2738L30.0879 25.9221C30.0879 26.121 30.1623 26.2568 30.2808 26.3121L31.5055 26.8832C31.3871 26.8279 31.3126 26.6921 31.3126 26.4932L31.3126 18.8449C31.3126 18.4718 31.5746 18.018 31.8978 17.8314L33.0013 17.1943Z"></path></g><g filter="url(#filter_13)"><path id="Intersect" fill-rule="evenodd" fill="url(#linear_15)" opacity="1" d="M29.7962 22.1744C29.9471 22.0873 30.0846 22.0738 30.1884 22.1222L28.9637 21.5511C28.8599 21.5027 28.7224 21.5162 28.5715 21.6033L27.468 22.2404C27.1448 22.427 26.8828 22.8808 26.8828 23.2539L26.8828 27.7719C26.8828 27.9708 26.9573 28.1067 27.0758 28.162L28.3004 28.733C28.182 28.6778 28.1075 28.5419 28.1075 28.343L28.1075 23.825C28.1075 23.4519 28.3695 22.9981 28.6927 22.8115L29.7962 22.1744Z"></path></g><g filter="url(#filter_14)"><path id="Union" fill-rule="evenodd" style="fill:#EEF3FD" opacity="1" d="M34.5155 14.3343C34.5155 13.9611 34.7775 13.5074 35.1006 13.3208L36.2042 12.6837C36.5273 12.4971 36.7893 12.6484 36.7893 13.0215L36.7893 23.3306C36.7893 23.7037 36.5273 24.1575 36.2042 24.3441L35.1006 24.9812C34.7775 25.1678 34.5155 25.0165 34.5155 24.6433L34.5155 14.3343ZM31.3115 18.8449C31.3115 18.4718 31.5734 18.018 31.8966 17.8314L33.0001 17.1943C33.3233 17.0077 33.5853 17.159 33.5853 17.5321L33.5853 25.1804C33.5853 25.5536 33.3233 26.0073 33.0001 26.1939L31.8966 26.831C31.5734 27.0176 31.3115 26.8664 31.3115 26.4932L31.3115 18.8449ZM28.6926 22.8116C28.3694 22.9981 28.1074 23.4519 28.1074 23.8251L28.1074 28.343C28.1074 28.7162 28.3694 28.8675 28.6926 28.6809L29.7961 28.0438C30.1193 27.8572 30.3813 27.4034 30.3813 27.0302L30.3813 22.5123C30.3813 22.1391 30.1193 21.9879 29.7961 22.1744L28.6926 22.8116Z"></path></g><g opacity="1"  transform="translate(34.93359375 10.9945068359375)"><path id="Union" fill-rule="evenodd" fill="url(#linear_16)" opacity="1" d="M15.302 0.459916C14.883 0.264627 14.3276 0.319024 13.7184 0.670736L1.95001 7.46526C1.28528 7.84904 0.746415 8.78238 0.746415 9.54994L0.746415 23.139C0.746415 23.942 1.04692 24.4906 1.52517 24.7137L0.779103 24.3658C0.300651 24.1428 0 23.5942 0 22.7909L0 9.20188C0 8.43432 0.538866 7.50098 1.20359 7.1172L12.972 0.322677C13.5812 -0.0290355 14.1366 -0.0834317 14.5555 0.111857L15.302 0.459916Z"></path><g id="Rectangle 24" filter="url(#filter_18)"><g filter="url(#filter_17)"><path id="Rectangle 24" fill-rule="evenodd" fill="url(#linear_17)" opacity="1" d="M0.746094 9.54996C0.746094 8.7824 1.28496 7.84906 1.94968 7.46528L13.7181 0.670761C15.023 -0.0825842 16.0807 0.528122 16.0807 2.03481L16.0807 15.6238C16.0807 16.3914 15.5419 17.3248 14.8771 17.7085L3.1087 24.503C1.80387 25.2564 0.746094 24.6457 0.746094 23.139L0.746094 9.54996Z"></path></g></g><g opacity="1"  transform="translate(3.783203125 10.553955078125)"><g filter="url(#filter_19)"></g><path id="Vector (Stroke)" fill-rule="evenodd" fill="url(#linear_18)" opacity="1" d="M4.2487 -1.09037C2.51083 0.13482 1.15912 2.61654 1.15912 4.6824C1.15912 6.89899 2.71528 7.79744 4.6349 6.68915C6.42398 5.65622 7.89736 3.24474 8.08947 1.1271L4.6349 3.1216C4.42161 3.24474 4.2487 3.14491 4.2487 2.89862L4.2487 -1.09037ZM0.386719 5.12834C0.386719 2.41917 2.28869 -0.875145 4.6349 -2.22973C4.84819 -2.35287 5.0211 -2.25305 5.0211 -2.00676L5.0211 2.00674L8.49688 -1.04904e-05C8.71017 -0.123154 8.88308 -0.0233269 8.88308 0.222961C8.88308 2.93213 6.9811 6.22645 4.6349 7.58103C2.28869 8.93562 0.386719 7.83751 0.386719 5.12834ZM5.56496 -2.4761C5.66407 -2.61734 5.79191 -2.71565 5.90922 -2.74083C7.23083 -3.02456 8.27345 -2.4226 8.68853 -1.13617C8.72537 -1.02199 8.70416 -0.862128 8.6314 -0.705671C8.55864 -0.549215 8.44303 -0.414865 8.32008 -0.343877L5.79349 1.11485C5.5802 1.23799 5.4073 1.13816 5.4073 0.891877L5.4073 -2.02559C5.4073 -2.16757 5.46584 -2.33486 5.56496 -2.4761ZM6.17969 -1.81266L6.17969 -1.07288e-05L7.74948 -0.906331C7.41198 -1.49555 6.85872 -1.81497 6.17969 -1.81266Z"></path><path id="Vector (Stroke)" fill-rule="evenodd" fill="url(#linear_19)" opacity="1" d="M4.2487 -1.09037C2.51083 0.13482 1.15912 2.61654 1.15912 4.6824C1.15912 6.89899 2.71528 7.79744 4.6349 6.68915C6.42398 5.65622 7.89736 3.24474 8.08947 1.1271L4.6349 3.1216C4.42161 3.24474 4.2487 3.14491 4.2487 2.89862L4.2487 -1.09037ZM0.386719 5.12834C0.386719 2.41917 2.28869 -0.875145 4.6349 -2.22973C4.84819 -2.35287 5.0211 -2.25305 5.0211 -2.00676L5.0211 2.00674L8.49688 -1.04904e-05C8.71017 -0.123154 8.88308 -0.0233269 8.88308 0.222961C8.88308 2.93213 6.9811 6.22645 4.6349 7.58103C2.28869 8.93562 0.386719 7.83751 0.386719 5.12834ZM5.56496 -2.4761C5.66407 -2.61734 5.79191 -2.71565 5.90922 -2.74083C7.23083 -3.02456 8.27345 -2.4226 8.68853 -1.13617C8.72537 -1.02199 8.70416 -0.862128 8.6314 -0.705671C8.55864 -0.549215 8.44303 -0.414865 8.32008 -0.343877L5.79349 1.11485C5.5802 1.23799 5.4073 1.13816 5.4073 0.891877L5.4073 -2.02559C5.4073 -2.16757 5.46584 -2.33486 5.56496 -2.4761ZM6.17969 -1.81266L6.17969 -1.07288e-05L7.74948 -0.906331C7.41198 -1.49555 6.85872 -1.81497 6.17969 -1.81266Z"></path><path  id="Vector (Stroke)" style="fill:#FFFFFF; opacity:1;" d="M4.29628 -0.620899M4.29628 -0.620899Q3.15001 0.187213 2.37384 1.62978Q1.5921 3.08271 1.5921 4.43241C1.5921 6.37288 2.95441 7.15941 4.6349 6.18918Q5.80378 5.51432 6.67118 4.11085Q7.53239 2.71739 7.65911 1.32063L8.08947 1.1271L8.08947 1.62707L4.6349 3.62156C4.18248 3.88277 3.81572 3.67102 3.81572 3.14861L3.81572 -0.84039L4.2487 -1.09037L4.29628 -0.620899ZM4.68169 -1.89864L4.68169 2.64864C4.68169 2.6188 4.66074 2.60671 4.6349 2.62163L8.57296 0.347985L8.51983 0.933559Q8.35692 2.7294 7.25092 4.51892Q6.13642 6.32221 4.6349 7.18912C2.47615 8.43547 0.72613 7.4251 0.72613 4.93238Q0.72613 3.19857 1.73057 1.33174Q2.72734 -0.520837 4.20113 -1.55985L4.68169 -1.89864ZM-0.0462667 5.37833C-0.0462668 2.39303 2.04956 -1.23705 4.6349 -2.7297C5.08732 -2.9909 5.45408 -2.77915 5.45408 -2.25674L5.45408 1.75675L5.0211 2.00674L5.0211 1.50677L8.49688 -0.499979C8.9493 -0.761186 9.31606 -0.549436 9.31606 -0.0270233C9.31606 2.95827 7.22024 6.58836 4.6349 8.081C2.04956 9.57365 -0.0462666 8.36362 -0.0462667 5.37833ZM0.819704 4.87836C0.819704 7.3114 2.52783 8.29758 4.6349 7.08106C6.74197 5.86454 8.45009 2.90599 8.45009 0.472946C8.45009 0.502783 8.47104 0.514878 8.49688 0.499959L4.58811 2.75669L4.58811 -1.75677C4.58811 -1.72693 4.60906 -1.71484 4.6349 -1.72976C2.52783 -0.513239 0.819704 2.44532 0.819704 4.87836ZM5.30874 -2.7312C5.51898 -3.03079 5.79014 -3.23931 6.03896 -3.29273C7.49925 -3.60623 8.64298 -2.94589 9.10162 -1.52448C9.17977 -1.28228 9.13477 -0.943188 8.98043 -0.611321C8.8261 -0.279459 8.58088 0.00551558 8.32008 0.156091L5.79349 1.61482C5.34107 1.87602 4.97431 1.66427 4.97431 1.14186L4.97431 -1.77561C4.97431 -2.07676 5.0985 -2.43161 5.30874 -2.7312L5.30874 -2.7312ZM5.82118 -2.221C5.83319 -2.23811 5.84028 -2.25838 5.84028 -2.27558L5.84028 0.641892C5.84028 0.612055 5.81933 0.599961 5.79349 0.61488L8.32008 -0.843847C8.30518 -0.835247 8.29118 -0.818971 8.28236 -0.800021C8.27355 -0.781065 8.27098 -0.761698 8.27544 -0.747862C7.90167 -1.90626 6.96956 -2.44442 5.77947 -2.18893C5.79368 -2.19198 5.80917 -2.20389 5.82118 -2.221L5.82118 -2.221ZM6.61268 -2.06265L6.61268 -0.249995L6.17969 -1.07288e-05L6.17969 -0.49998L7.74948 -1.4063L7.74948 -0.906331L7.36175 -0.45994C7.06558 -0.976985 6.58282 -1.25571 5.98697 -1.25368L6.17969 -1.81266L6.61268 -2.06265ZM5.74671 -1.56268L5.74671 -2.36951L6.37241 -2.37164C7.13731 -2.37425 7.75703 -2.01645 8.13721 -1.35272L8.44822 -0.809777L5.74671 0.749943L5.74671 -1.56268Z"></path></g></g></g></g><defs><linearGradient id="linear_0" x1="-0.043974726428780204%" y1="50.11244199164175%" x2="99.94494014366578%" y2="50.11244199164175%" gradientUnits="objectBoundingBox"><stop offset="0" stop-color="#246BD4" stop-opacity="1" /><stop offset="0.20370835065841675" stop-color="#8BBAFF" stop-opacity="1" /><stop offset="0.31394901871681213" stop-color="#8BBAFF" stop-opacity="1" /><stop offset="0.5" stop-color="#4A90F9" stop-opacity="1" /><stop offset="0.75" stop-color="#8BBAFF" stop-opacity="1" /><stop offset="0.890625" stop-color="#69A5FE" stop-opacity="1" /><stop offset="1" stop-color="#246BD4" stop-opacity="1" /></linearGradient><linearGradient id="linear_1" x1="10.532736461979535" y1="13.624249506018256" x2="40.57591883989758" y2="30.334634397587955" gradientUnits="userSpaceOnUse"><stop offset="0" stop-color="#2254D4" stop-opacity="1" /><stop offset="1" stop-color="#81BBFF" stop-opacity="1" /></linearGradient><linearGradient id="linear_2" x1="23.78568246849271" y1="15.663287880472824" x2="33.90417409215619" y2="37.492380994524" gradientUnits="userSpaceOnUse"><stop offset="0" stop-color="#0F2F9F" stop-opacity="0.54" /><stop offset="0.5155659914016724" stop-color="#2053D6" stop-opacity="0" /></linearGradient><radialGradient id="linear_3" cx="24.57345247069586%" cy="55.883562958635856%" fx="24.57345247069586%" fy="55.883562958635856%" r="0.675649787285888" gradientTransform="translate(0.24573452470695858 0.5588356295863586) scale(1 1) rotate(89.62994298963991) scale(1 1.4783503732282626) translate(-0.24573452470695858 -0.5588356295863586)" ><stop offset="0" stop-color="#2330A9" stop-opacity="1" /><stop offset="1" stop-color="#2330A9" stop-opacity="0" /></radialGradient><linearGradient id="linear_4" x1="10.210020802418779" y1="29.491685559052456" x2="26.56864220282018" y2="37.14613742204266" gradientUnits="userSpaceOnUse"><stop offset="0" stop-color="#7EC1FF" stop-opacity="0.6499999761581421" /><stop offset="1" stop-color="#7EC1FF" stop-opacity="0" /></linearGradient><linearGradient id="linear_5" x1="79.12243308549664%" y1="14.618655073647785%" x2="21.092612034542963%" y2="85.4752729762834%" gradientUnits="objectBoundingBox"><stop offset="0" stop-color="#C6E3F8" stop-opacity="1" /><stop offset="0.2135416716337204" stop-color="#C6E3F8" stop-opacity="0.15" /><stop offset="0.5" stop-color="#C6E3F8" stop-opacity="1" /><stop offset="0.75" stop-color="#C6E3F8" stop-opacity="0.15" /><stop offset="1" stop-color="#C6E3F8" stop-opacity="1" /></linearGradient><linearGradient id="linear_6" x1="88.49467130256711%" y1="7.634782876980789%" x2="16.5462498354357%" y2="92.4549822275156%" gradientUnits="objectBoundingBox"><stop offset="0" stop-color="#C9D8FF" stop-opacity="1" /><stop offset="1" stop-color="#CBD6FF" stop-opacity="1" /></linearGradient><linearGradient id="linear_7" x1="27.481641945514507%" y1="97.15806159794008%" x2="40.60551821306176%" y2="71.36106480680489%" gradientUnits="objectBoundingBox"><stop offset="0" stop-color="#E9EFFF" stop-opacity="1" /><stop offset="1" stop-color="#E9EFFF" stop-opacity="0" /></linearGradient><radialGradient id="linear_8" cx="34.57044966875203%" cy="79.83147044153507%" fx="34.57044966875203%" fy="79.83147044153507%" r="0.30171385811604595" gradientTransform="translate(0.34570449668752035 0.7983147044153507) scale(1.08462808194939 1) rotate(355.15157869922035) scale(1 0.7493022547898768) translate(-0.34570449668752035 -0.7983147044153507)" ><stop offset="0.296875" stop-color="#3054B2" stop-opacity="1" /><stop offset="1" stop-color="#3054B2" stop-opacity="0" /></radialGradient><filter id="filter_5" x="0" y="0" width="44.2279" height="37.2707793774172" filterUnits="userSpaceOnUse" color-interpolation-filters="sRGB"><feFlood flood-opacity="0" result="feFloodId"/>
          <feBlend mode="normal" in="SourceGraphic" in2="BackgroundImageFix" result="shape"/> 
          <feColorMatrix in="SourceAlpha" type="matrix" values="0 0 0 0 0 0 0 0 0 0 0 0 0 0 0 0 0 0 127 0" result="hardAlpha"/>
          
          <feOffset dx="0" dy="0"/>
          <feGaussianBlur stdDeviation="2.4662346548601324"/>
          <feComposite in2="hardAlpha" operator="arithmetic" k2="-1" k3="1"/>
          <feColorMatrix type="matrix" values="0 0 0 0 0.4666666666666667 0 0 0 0 0.592156862745098 0 0 0 0 0.7803921568627451 0 0 0 1 0"/>
          <feBlend mode="normal" in2="shape" result="innerShadow_0" />
          
           
          <feColorMatrix in="SourceAlpha" type="matrix" values="0 0 0 0 0 0 0 0 0 0 0 0 0 0 0 0 0 0 127 0" result="hardAlpha"/>
          
          <feOffset dx="0" dy="0"/>
          <feGaussianBlur stdDeviation="0.5404387200643993"/>
          <feComposite in2="hardAlpha" operator="arithmetic" k2="-1" k3="1"/>
          <feColorMatrix type="matrix" values="0 0 0 0 0.8941176470588236 0 0 0 0 0.9372549019607843 0 0 0 0 1 0 0 0 1 0"/>
          <feBlend mode="normal" in2="innerShadow_0" result="innerShadow_1" />
          </filter><linearGradient id="linear_9" x1="74.98501189098896%" y1="6.005502476519589%" x2="18.406655605979974%" y2="91.23378162357048%" gradientUnits="objectBoundingBox"><stop offset="0" stop-color="#01359A" stop-opacity="1" /><stop offset="0.018161559477448463" stop-color="#2352CC" stop-opacity="1" /><stop offset="0.08157739043235779" stop-color="#6AA3F9" stop-opacity="1" /><stop offset="0.12703610956668854" stop-color="#AFCFFF" stop-opacity="1" /><stop offset="0.3458334505558014" stop-color="#6AA3F9" stop-opacity="1" /><stop offset="0.5959751605987549" stop-color="#366BF4" stop-opacity="1" /><stop offset="0.6711434125900269" stop-color="#01359A" stop-opacity="1" /><stop offset="0.9114583134651184" stop-color="#1957D0" stop-opacity="1" /><stop offset="1" stop-color="#256EDA" stop-opacity="1" /></linearGradient><linearGradient id="linear_10" x1="100.00217238700179%" y1="0%" x2="1.6402278844649798%" y2="101.35467551084344%" gradientUnits="objectBoundingBox"><stop offset="0" stop-color="#499DFF" stop-opacity="1" /><stop offset="1" stop-color="#113DAF" stop-opacity="1" /></linearGradient><linearGradient id="linear_11" x1="50%" y1="0%" x2="51%" y2="100%" gradientUnits="objectBoundingBox"><stop offset="0" stop-color="#B7CBFF" stop-opacity="1" /><stop offset="1" stop-color="#B7CBFF" stop-opacity="0" /></linearGradient><linearGradient id="linear_12" x1="82.23996788707548%" y1="4.825826517139024%" x2="19.984661981841295%" y2="93.89915908510017%" gradientUnits="objectBoundingBox"><stop offset="0" stop-color="#9ABCFF" stop-opacity="0.30000001192092896" /><stop offset="0.10417874157428741" stop-color="#FDFEFF" stop-opacity="0.30000001192092896" /><stop offset="0.3773757219314575" stop-color="#FDFEFF" stop-opacity="0.30000001192092896" /><stop offset="0.560166597366333" stop-color="#1967DC" stop-opacity="0.30000001192092896" /><stop offset="0.8013519048690796" stop-color="#FFFFFF" stop-opacity="0.30000001192092896" /><stop offset="1" stop-color="#E8F0FF" stop-opacity="0.30000001192092896" /></linearGradient><filter id="filter_9" x="0" y="0" width="43.2552" height="36.2896" filterUnits="userSpaceOnUse" color-interpolation-filters="sRGB"><feFlood flood-opacity="0" result="feFloodId"/>
          <feBlend mode="normal" in="SourceGraphic" in2="BackgroundImageFix" result="shape"/> 
          <feColorMatrix in="SourceAlpha" type="matrix" values="0 0 0 0 0 0 0 0 0 0 0 0 0 0 0 0 0 0 127 0" result="hardAlpha"/>
          
          <feOffset dx="-0.27047695713423225" dy="0"/>
          <feGaussianBlur stdDeviation="0.9458965586637149"/>
          <feComposite in2="hardAlpha" operator="arithmetic" k2="-1" k3="1"/>
          <feColorMatrix type="matrix" values="0 0 0 0 0.7215686274509804 0 0 0 0 0.8313725490196079 0 0 0 0 1 0 0 0 1 0"/>
          <feBlend mode="normal" in2="shape" result="innerShadow_0" />
          
           
          <feColorMatrix in="SourceAlpha" type="matrix" values="0 0 0 0 0 0 0 0 0 0 0 0 0 0 0 0 0 0 127 0" result="hardAlpha"/>
          
          <feOffset dx="-0.13498088146508352" dy="-0.06749044073254176"/>
          <feGaussianBlur stdDeviation="0.13523847856711613"/>
          <feComposite in2="hardAlpha" operator="arithmetic" k2="-1" k3="1"/>
          <feColorMatrix type="matrix" values="0 0 0 0 1 0 0 0 0 1 0 0 0 0 1 0 0 0 0.7 0"/>
          <feBlend mode="normal" in2="innerShadow_0" result="innerShadow_1" />
          </filter><filter id="filter_10" x="-0.8784061179311733" y="-0.8784061179311733" width="35.21579661086235" height="38.0472785444561" filterUnits="userSpaceOnUse" color-interpolation-filters="sRGB"><feFlood flood-opacity="0" result="BackgroundImageFix"/>
          <feGaussianBlur in="BackgroundImage" stdDeviation="0.43920305896558665"/>
          <feComposite in2="SourceAlpha" operator="in" result="effect1_backgroundBlur"/>
          <feBlend mode="normal" in="SourceGraphic" in2="effect1_backgroundBlur" result="shape"/></filter><linearGradient id="linear_13" x1="73.28389278885169%" y1="0.0353704085029799%" x2="215.15691022478651%" y2="67.11433535172839%" gradientUnits="objectBoundingBox"><stop offset="0.23967871069908142" stop-color="#87ADE7" stop-opacity="1" /><stop offset="0.34495633840560913" stop-color="#DAEBFF" stop-opacity="1" /><stop offset="0.48372071981430054" stop-color="#87ADE7" stop-opacity="1" /></linearGradient><filter id="filter_11" x="0" y="0" width="40.380186234654865" height="28.07356099818877" filterUnits="userSpaceOnUse" color-interpolation-filters="sRGB"><feFlood flood-opacity="0" result="feFloodId"/>
        <feColorMatrix in="SourceAlpha" type="matrix" values="0 0 0 0 0 0 0 0 0 0 0 0 0 0 0 0 0 0 127 0" result="hardAlpha"/>
        
        <feOffset dx="-0.8109156771986314" dy="-0.06749044073254176"/>
        <feGaussianBlur stdDeviation="0.7431676393640572"/>
         <feComposite in2="hardAlpha" operator="out"/>
        <feColorMatrix type="matrix" values="0 0 0 0 0.12549019607843137 0 0 0 0 0.20392156862745098 0 0 0 0 0.7607843137254902 0 0 0 1 0"/>
        <feBlend mode="normal" in2="BackgroundImageFix" result="dropShadow_1"/>
        
        <feColorMatrix in="SourceAlpha" type="matrix" values="0 0 0 0 0 0 0 0 0 0 0 0 0 0 0 0 0 0 127 0" result="hardAlpha"/>
        
        <feOffset dx="-0.8109156771986314" dy="-0.06749044073254176"/>
        <feGaussianBlur stdDeviation="0.4054578385993157"/>
         <feComposite in2="hardAlpha" operator="out"/>
        <feColorMatrix type="matrix" values="0 0 0 0 0.12549019607843137 0 0 0 0 0.20392156862745098 0 0 0 0 0.7607843137254902 0 0 0 1 0"/>
        <feBlend mode="normal" in2="dropShadow_1" result="dropShadow_2"/>
        <feBlend mode="normal" in="SourceGraphic" in2="dropShadow_3" result="shape"/>
          <feBlend mode="normal" in="SourceGraphic" in2="BackgroundImageFix" result="shape"/> 
          <feColorMatrix in="SourceAlpha" type="matrix" values="0 0 0 0 0 0 0 0 0 0 0 0 0 0 0 0 0 0 127 0" result="hardAlpha"/>
          
          <feOffset dx="0" dy="0"/>
          <feGaussianBlur stdDeviation="0.10123566109881264"/>
          <feComposite in2="hardAlpha" operator="arithmetic" k2="-1" k3="1"/>
          <feColorMatrix type="matrix" values="0 0 0 0 0.9294117647058824 0 0 0 0 0.9568627450980393 0 0 0 0 0.996078431372549 0 0 0 1 0"/>
          <feBlend mode="normal" in2="shape" result="innerShadow_0" />
          </filter><linearGradient id="linear_14" x1="73.28389278885172%" y1="0.0353704085029799%" x2="215.15691022478669%" y2="67.11433535172839%" gradientUnits="objectBoundingBox"><stop offset="0.23967871069908142" stop-color="#87ADE7" stop-opacity="1" /><stop offset="0.34495633840560913" stop-color="#DAEBFF" stop-opacity="1" /><stop offset="0.48372071981430054" stop-color="#87ADE7" stop-opacity="1" /></linearGradient><filter id="filter_12" x="0" y="0" width="37.177086234654865" height="29.92336099818877" filterUnits="userSpaceOnUse" color-interpolation-filters="sRGB"><feFlood flood-opacity="0" result="feFloodId"/>
        <feColorMatrix in="SourceAlpha" type="matrix" values="0 0 0 0 0 0 0 0 0 0 0 0 0 0 0 0 0 0 127 0" result="hardAlpha"/>
        
        <feOffset dx="-0.8109156771986314" dy="-0.06749044073254176"/>
        <feGaussianBlur stdDeviation="0.7431676393640572"/>
         <feComposite in2="hardAlpha" operator="out"/>
        <feColorMatrix type="matrix" values="0 0 0 0 0.12549019607843137 0 0 0 0 0.20392156862745098 0 0 0 0 0.7607843137254902 0 0 0 1 0"/>
        <feBlend mode="normal" in2="BackgroundImageFix" result="dropShadow_1"/>
        
        <feColorMatrix in="SourceAlpha" type="matrix" values="0 0 0 0 0 0 0 0 0 0 0 0 0 0 0 0 0 0 127 0" result="hardAlpha"/>
        
        <feOffset dx="-0.8109156771986314" dy="-0.06749044073254176"/>
        <feGaussianBlur stdDeviation="0.4054578385993157"/>
         <feComposite in2="hardAlpha" operator="out"/>
        <feColorMatrix type="matrix" values="0 0 0 0 0.12549019607843137 0 0 0 0 0.20392156862745098 0 0 0 0 0.7607843137254902 0 0 0 1 0"/>
        <feBlend mode="normal" in2="dropShadow_1" result="dropShadow_2"/>
        <feBlend mode="normal" in="SourceGraphic" in2="dropShadow_3" result="shape"/>
          <feBlend mode="normal" in="SourceGraphic" in2="BackgroundImageFix" result="shape"/> 
          <feColorMatrix in="SourceAlpha" type="matrix" values="0 0 0 0 0 0 0 0 0 0 0 0 0 0 0 0 0 0 127 0" result="hardAlpha"/>
          
          <feOffset dx="0" dy="0"/>
          <feGaussianBlur stdDeviation="0.10123566109881264"/>
          <feComposite in2="hardAlpha" operator="arithmetic" k2="-1" k3="1"/>
          <feColorMatrix type="matrix" values="0 0 0 0 0.9294117647058824 0 0 0 0 0.9568627450980393 0 0 0 0 0.996078431372549 0 0 0 1 0"/>
          <feBlend mode="normal" in2="shape" result="innerShadow_0" />
          </filter><linearGradient id="linear_15" x1="73.28389917819449%" y1="0.03537001568072601%" x2="0.27149079552370325%" y2="79.1475190483744%" gradientUnits="objectBoundingBox"><stop offset="0.23967871069908142" stop-color="#87ADE7" stop-opacity="1" /><stop offset="0.34495633840560913" stop-color="#DAEBFF" stop-opacity="1" /><stop offset="0.48372071981430054" stop-color="#87ADE7" stop-opacity="1" /></linearGradient><filter id="filter_13" x="0" y="0" width="33.971986234654864" height="31.77316099818877" filterUnits="userSpaceOnUse" color-interpolation-filters="sRGB"><feFlood flood-opacity="0" result="feFloodId"/>
        <feColorMatrix in="SourceAlpha" type="matrix" values="0 0 0 0 0 0 0 0 0 0 0 0 0 0 0 0 0 0 127 0" result="hardAlpha"/>
        
        <feOffset dx="-0.8109156771986314" dy="-0.06749044073254176"/>
        <feGaussianBlur stdDeviation="0.7431676393640572"/>
         <feComposite in2="hardAlpha" operator="out"/>
        <feColorMatrix type="matrix" values="0 0 0 0 0.12549019607843137 0 0 0 0 0.20392156862745098 0 0 0 0 0.7607843137254902 0 0 0 1 0"/>
        <feBlend mode="normal" in2="BackgroundImageFix" result="dropShadow_1"/>
        
        <feColorMatrix in="SourceAlpha" type="matrix" values="0 0 0 0 0 0 0 0 0 0 0 0 0 0 0 0 0 0 127 0" result="hardAlpha"/>
        
        <feOffset dx="-0.8109156771986314" dy="-0.06749044073254176"/>
        <feGaussianBlur stdDeviation="0.4054578385993157"/>
         <feComposite in2="hardAlpha" operator="out"/>
        <feColorMatrix type="matrix" values="0 0 0 0 0.12549019607843137 0 0 0 0 0.20392156862745098 0 0 0 0 0.7607843137254902 0 0 0 1 0"/>
        <feBlend mode="normal" in2="dropShadow_1" result="dropShadow_2"/>
        <feBlend mode="normal" in="SourceGraphic" in2="dropShadow_3" result="shape"/>
          <feBlend mode="normal" in="SourceGraphic" in2="BackgroundImageFix" result="shape"/> 
          <feColorMatrix in="SourceAlpha" type="matrix" values="0 0 0 0 0 0 0 0 0 0 0 0 0 0 0 0 0 0 127 0" result="hardAlpha"/>
          
          <feOffset dx="0" dy="0"/>
          <feGaussianBlur stdDeviation="0.10123566109881264"/>
          <feComposite in2="hardAlpha" operator="arithmetic" k2="-1" k3="1"/>
          <feColorMatrix type="matrix" values="0 0 0 0 0.9294117647058824 0 0 0 0 0.9568627450980393 0 0 0 0 0.996078431372549 0 0 0 1 0"/>
          <feBlend mode="normal" in2="shape" result="innerShadow_0" />
          </filter><filter id="filter_14" x="0" y="0" width="36.7893" height="28.760819298083646" filterUnits="userSpaceOnUse" color-interpolation-filters="sRGB"><feFlood flood-opacity="0" result="feFloodId"/>
          <feBlend mode="normal" in="SourceGraphic" in2="BackgroundImageFix" result="shape"/> 
          <feColorMatrix in="SourceAlpha" type="matrix" values="0 0 0 0 0 0 0 0 0 0 0 0 0 0 0 0 0 0 127 0" result="hardAlpha"/>
          
          <feOffset dx="0" dy="0"/>
          <feGaussianBlur stdDeviation="0.13523847856711613"/>
          <feComposite in2="hardAlpha" operator="arithmetic" k2="-1" k3="1"/>
          <feColorMatrix type="matrix" values="0 0 0 0 1 0 0 0 0 1 0 0 0 0 1 0 0 0 1 0"/>
          <feBlend mode="normal" in2="shape" result="innerShadow_0" />
          
           
          <feColorMatrix in="SourceAlpha" type="matrix" values="0 0 0 0 0 0 0 0 0 0 0 0 0 0 0 0 0 0 127 0" result="hardAlpha"/>
          
          <feOffset dx="0" dy="0"/>
          <feGaussianBlur stdDeviation="0.13523847856711613"/>
          <feComposite in2="hardAlpha" operator="arithmetic" k2="-1" k3="1"/>
          <feColorMatrix type="matrix" values="0 0 0 0 1 0 0 0 0 1 0 0 0 0 1 0 0 0 1 0"/>
          <feBlend mode="normal" in2="innerShadow_0" result="innerShadow_1" />
          
           
          <feColorMatrix in="SourceAlpha" type="matrix" values="0 0 0 0 0 0 0 0 0 0 0 0 0 0 0 0 0 0 127 0" result="hardAlpha"/>
          
          <feOffset dx="0" dy="0"/>
          <feGaussianBlur stdDeviation="0.13523847856711613"/>
          <feComposite in2="hardAlpha" operator="arithmetic" k2="-1" k3="1"/>
          <feColorMatrix type="matrix" values="0 0 0 0 1 0 0 0 0 1 0 0 0 0 1 0 0 0 1 0"/>
          <feBlend mode="normal" in2="innerShadow_1" result="innerShadow_2" />
          </filter><linearGradient id="linear_16" x1="83.35234583927125%" y1="0.09156562677345992%" x2="12.956904422786012%" y2="100.04363373573513%" gradientUnits="objectBoundingBox"><stop offset="0" stop-color="#5291F0" stop-opacity="1" /><stop offset="0.42423462867736816" stop-color="#AFCFFF" stop-opacity="0.42" /><stop offset="0.6258895993232727" stop-color="#2F8EFE" stop-opacity="0.28" /><stop offset="1" stop-color="#003CB2" stop-opacity="1" /></linearGradient><linearGradient id="linear_17" x1="96.42963533184195%" y1="-3.9352877826460633%" x2="19.986555307312667%" y2="93.89930121166519%" gradientUnits="objectBoundingBox"><stop offset="0" stop-color="#6FB7F9" stop-opacity="0.4399999976158142" /><stop offset="0.10417874157428741" stop-color="#FDFEFF" stop-opacity="0.4399999976158142" /><stop offset="0.3915654122829437" stop-color="#FDFEFF" stop-opacity="0.4399999976158142" /><stop offset="0.5826100707054138" stop-color="#3881D7" stop-opacity="0.4399999976158142" /><stop offset="1" stop-color="#E3EFF7" stop-opacity="0.4399999976158142" /></linearGradient><filter id="filter_17" x="0" y="0" width="16.0807" height="24.82571360308704" filterUnits="userSpaceOnUse" color-interpolation-filters="sRGB"><feFlood flood-opacity="0" result="feFloodId"/>
          <feBlend mode="normal" in="SourceGraphic" in2="BackgroundImageFix" result="shape"/> 
          <feColorMatrix in="SourceAlpha" type="matrix" values="0 0 0 0 0 0 0 0 0 0 0 0 0 0 0 0 0 0 127 0" result="hardAlpha"/>
          
          <feOffset dx="-0.27047695713423225" dy="0"/>
          <feGaussianBlur stdDeviation="0.9458965586637149"/>
          <feComposite in2="hardAlpha" operator="arithmetic" k2="-1" k3="1"/>
          <feColorMatrix type="matrix" values="0 0 0 0 0.792156862745098 0 0 0 0 0.8745098039215686 0 0 0 0 1 0 0 0 1 0"/>
          <feBlend mode="normal" in2="shape" result="innerShadow_0" />
          
           
          <feColorMatrix in="SourceAlpha" type="matrix" values="0 0 0 0 0 0 0 0 0 0 0 0 0 0 0 0 0 0 127 0" result="hardAlpha"/>
          
          <feOffset dx="-0.13498088146508352" dy="0.13498088146508352"/>
          <feGaussianBlur stdDeviation="0.13523847856711613"/>
          <feComposite in2="hardAlpha" operator="arithmetic" k2="-1" k3="1"/>
          <feColorMatrix type="matrix" values="0 0 0 0 0.7294117647058823 0 0 0 0 0.8392156862745098 0 0 0 0 1 0 0 0 1 0"/>
          <feBlend mode="normal" in2="innerShadow_0" result="innerShadow_1" />
          </filter><filter id="filter_18" x="-0.8784061179311733" y="-0.8784061179311733" width="17.09079661086235" height="26.232972285300825" filterUnits="userSpaceOnUse" color-interpolation-filters="sRGB"><feFlood flood-opacity="0" result="BackgroundImageFix"/>
          <feGaussianBlur in="BackgroundImage" stdDeviation="0.43920305896558665"/>
          <feComposite in2="SourceAlpha" operator="in" result="effect1_backgroundBlur"/>
          <feBlend mode="normal" in="SourceGraphic" in2="effect1_backgroundBlur" result="shape"/></filter><filter id="filter_19" x="0" y="0" width="12.712566454997363" height="11.939775148899557" filterUnits="userSpaceOnUse" color-interpolation-filters="sRGB"><feFlood flood-opacity="0" result="feFloodId"/>
        <feColorMatrix in="SourceAlpha" type="matrix" values="0 0 0 0 0 0 0 0 0 0 0 0 0 0 0 0 0 0 127 0" result="hardAlpha"/>
        
        <feOffset dx="-0.7727913060978063" dy="0"/>
        <feGaussianBlur stdDeviation="0.3091165224391226"/>
         <feComposite in2="hardAlpha" operator="out"/>
        <feColorMatrix type="matrix" values="0 0 0 0 0.17254901960784313 0 0 0 0 0.35294117647058826 0 0 0 0 0.8235294117647058 0 0 0 0.7 0"/>
        <feBlend mode="normal" in2="BackgroundImageFix" result="dropShadow_1"/>
        
        <feColorMatrix in="SourceAlpha" type="matrix" values="0 0 0 0 0 0 0 0 0 0 0 0 0 0 0 0 0 0 127 0" result="hardAlpha"/>
        
        <feOffset dx="-0.10303884081304085" dy="-0.10303884081304085"/>
        
         <feComposite in2="hardAlpha" operator="out"/>
        <feColorMatrix type="matrix" values="0 0 0 0 0.6745098039215687 0 0 0 0 0.792156862745098 0 0 0 0 0.9803921568627451 0 0 0 1 0"/>
        <feBlend mode="normal" in2="dropShadow_1" result="dropShadow_2"/>
        
        <feColorMatrix in="SourceAlpha" type="matrix" values="0 0 0 0 0 0 0 0 0 0 0 0 0 0 0 0 0 0 127 0" result="hardAlpha"/>
        
        <feOffset dx="-0.2060776816260817" dy="-0.2060776816260817"/>
        
         <feComposite in2="hardAlpha" operator="out"/>
        <feColorMatrix type="matrix" values="0 0 0 0 0.6745098039215687 0 0 0 0 0.792156862745098 0 0 0 0 0.9803921568627451 0 0 0 1 0"/>
        <feBlend mode="normal" in2="dropShadow_2" result="dropShadow_3"/>
        
        <feColorMatrix in="SourceAlpha" type="matrix" values="0 0 0 0 0 0 0 0 0 0 0 0 0 0 0 0 0 0 127 0" result="hardAlpha"/>
        
        <feOffset dx="-0.2575971020326021" dy="-0.2575971020326021"/>
        
         <feComposite in2="hardAlpha" operator="out"/>
        <feColorMatrix type="matrix" values="0 0 0 0 0.6745098039215687 0 0 0 0 0.792156862745098 0 0 0 0 0.9803921568627451 0 0 0 1 0"/>
        <feBlend mode="normal" in2="dropShadow_3" result="dropShadow_4"/>
        
        <feColorMatrix in="SourceAlpha" type="matrix" values="0 0 0 0 0 0 0 0 0 0 0 0 0 0 0 0 0 0 127 0" result="hardAlpha"/>
        
        <feOffset dx="-0.3091165224391226" dy="-0.3091165224391226"/>
        
         <feComposite in2="hardAlpha" operator="out"/>
        <feColorMatrix type="matrix" values="0 0 0 0 0.6745098039215687 0 0 0 0 0.792156862745098 0 0 0 0 0.9803921568627451 0 0 0 1 0"/>
        <feBlend mode="normal" in2="dropShadow_4" result="dropShadow_5"/>
        
        <feColorMatrix in="SourceAlpha" type="matrix" values="0 0 0 0 0 0 0 0 0 0 0 0 0 0 0 0 0 0 127 0" result="hardAlpha"/>
        
        <feOffset dx="-0.360635942845643" dy="-0.360635942845643"/>
        
         <feComposite in2="hardAlpha" operator="out"/>
        <feColorMatrix type="matrix" values="0 0 0 0 0.6745098039215687 0 0 0 0 0.792156862745098 0 0 0 0 0.9803921568627451 0 0 0 1 0"/>
        <feBlend mode="normal" in2="dropShadow_5" result="dropShadow_6"/>
        <feBlend mode="normal" in="SourceGraphic" in2="dropShadow_7" result="shape"/></filter><linearGradient id="linear_18" x1="0.9602364200134146" y1="4.345788066590698" x2="9.451679523020525" y2="-0.5326609051783642" gradientUnits="userSpaceOnUse"><stop offset="0" stop-color="#D0E3FF" stop-opacity="1" /><stop offset="1" stop-color="#FFFFFF" stop-opacity="1" /></linearGradient><radialGradient id="linear_19" cx="-113.94020821374178%" cy="147.22121824827158%" fx="-113.94020821374178%" fy="147.22121824827158%" r="1.2494145185818772" gradientTransform="translate(-1.1394020821374178 1.472212182482716) scale(1 1) rotate(290.1898028587749) scale(1 1.2656412804816286) translate(1.1394020821374178 -1.472212182482716)" ><stop offset="0" stop-color="#2C67FF" stop-opacity="1" /><stop offset="1" stop-color="#2C67FF" stop-opacity="0" /></radialGradient></defs></svg>