<svg xmlns="http://www.w3.org/2000/svg" xmlns:xlink="http://www.w3.org/1999/xlink" width="32" height="32" viewBox="0 0 32 32" fill="none"><g opacity="1"  transform="translate(0 0)"><mask id="bg-mask-0" fill="white"><use transform="translate(0 0)" xlink:href="#path_0"></use></mask><g mask="url(#bg-mask-0)" ><g opacity="1"  transform="translate(0 0)"><path d="M32 0L32 32L0 32L0 0L32 0ZM16.7907 31.0107L16.776 31.0133L16.6813 31.06L16.6547 31.0653L16.636 31.06L16.5413 31.0133C16.528 31.008 16.516 31.012 16.5093 31.02L16.504 31.0333L16.4813 31.604L16.488 31.6307L16.5013 31.648L16.64 31.7467L16.66 31.752L16.676 31.7467L16.8147 31.648L16.8307 31.6267L16.836 31.604L16.8133 31.0347C16.8107 31.0213 16.8013 31.012 16.7907 31.0107ZM17.144 30.86L17.1267 30.8627L16.88 30.9867L16.8667 31L16.8627 31.0147L16.8867 31.588L16.8933 31.604L16.904 31.6133L17.172 31.7373C17.188 31.7427 17.2027 31.7373 17.2107 31.7267L17.216 31.708L17.1707 30.8893C17.1667 30.8733 17.1573 30.8627 17.144 30.86ZM16.1907 30.8627C16.1767 30.8563 16.1647 30.8589 16.1547 30.8707L16.1467 30.8893L16.1013 31.708C16.1013 31.724 16.1107 31.7347 16.124 31.74L16.144 31.7373L16.412 31.6133L16.4253 31.6027L16.4307 31.588L16.4533 31.0147L16.4493 30.9987L16.436 30.9853L16.1907 30.8627Z"  ></path><path id="路径 2" fill-rule="evenodd" style="fill:#1952E7" opacity="1" d="M16 2.66666C8.63596 2.66666 2.66663 8.63599 2.66663 16C2.66663 18.52 3.36663 20.88 4.58396 22.8907L3.39463 26.9333C3.36048 27.0495 3.34231 27.1679 3.34011 27.2888C3.33789 27.4097 3.35173 27.5289 3.38161 27.6461C3.41151 27.7633 3.45638 27.8745 3.51623 27.9796C3.57607 28.0848 3.64876 28.1801 3.73431 28.2656C3.81984 28.3512 3.91518 28.4239 4.02032 28.4837C4.12545 28.5436 4.23663 28.5884 4.35385 28.6184C4.47107 28.6483 4.59016 28.6621 4.71112 28.6599C4.83207 28.6576 4.95057 28.6395 5.06663 28.6053L9.10929 27.416C9.62643 27.7289 10.1624 28.0052 10.7173 28.2449C11.2722 28.4845 11.8408 28.6855 12.4231 28.8475C13.0054 29.0095 13.596 29.1312 14.1949 29.2125C14.7938 29.2939 15.3955 29.3341 16 29.3333C23.364 29.3333 29.3333 23.364 29.3333 16C29.3333 8.63599 23.364 2.66666 16 2.66666ZM12.984 19.0173C15.6813 21.7133 18.256 22.0693 19.1653 22.1027C20.548 22.1533 21.8946 21.0973 22.4186 19.872C22.4517 19.7959 22.4741 19.7165 22.486 19.6343C22.4978 19.552 22.4985 19.4697 22.4881 19.3873C22.4778 19.3048 22.4568 19.2252 22.4252 19.1484C22.3934 19.0716 22.3521 19.0004 22.3013 18.9347C21.5706 18.0013 20.5826 17.3307 19.6173 16.664C19.5673 16.6295 19.5146 16.6 19.459 16.5756C19.4034 16.5512 19.3461 16.5324 19.2869 16.5191C19.2277 16.5056 19.1677 16.498 19.107 16.4961C19.0464 16.4944 18.9861 16.4983 18.9262 16.508C18.8664 16.5177 18.8078 16.5331 18.7509 16.554C18.694 16.5749 18.6394 16.6012 18.5876 16.6325C18.5357 16.664 18.4872 16.7001 18.4421 16.7408C18.3972 16.7815 18.3564 16.8261 18.32 16.8747L17.52 18.0947C17.4989 18.1275 17.4725 18.1552 17.4409 18.1779C17.4093 18.2007 17.3745 18.2167 17.3368 18.2261C17.299 18.2356 17.2608 18.2376 17.2221 18.2324C17.1836 18.2272 17.1473 18.2151 17.1133 18.196C16.5706 17.8853 15.78 17.3573 15.212 16.7893C14.644 16.2213 14.148 15.4667 13.8693 14.9587C13.8521 14.9264 13.841 14.8921 13.8361 14.8559C13.8313 14.8196 13.833 14.7836 13.8412 14.7479C13.8494 14.7122 13.8637 14.6792 13.8838 14.6487C13.904 14.6181 13.9289 14.5921 13.9586 14.5707L15.1906 13.656C15.2342 13.6181 15.274 13.5766 15.31 13.5315C15.3461 13.4862 15.3777 13.4381 15.4049 13.3872C15.4321 13.3363 15.4545 13.2833 15.4721 13.2283C15.4897 13.1733 15.5021 13.1171 15.5094 13.0598C15.5167 13.0025 15.5188 12.945 15.5156 12.8874C15.5125 12.8297 15.5041 12.7728 15.4905 12.7166C15.4769 12.6605 15.4584 12.606 15.4349 12.5533C15.4114 12.5005 15.3833 12.4503 15.3506 12.4027C14.7533 11.528 14.0573 10.416 13.048 9.67866C12.9828 9.63146 12.9127 9.59339 12.8377 9.56444C12.7627 9.5355 12.6852 9.51663 12.6052 9.50787C12.5253 9.49911 12.4455 9.50072 12.366 9.51271C12.2864 9.52471 12.2098 9.5467 12.136 9.57866C10.9093 10.104 9.84796 11.4507 9.89863 12.836C9.93196 13.7453 10.288 16.32 12.984 19.0173Z"></path></g></g></g><defs><rect id="path_0" x="0" y="0" width="32" height="32" rx="0" ry="0"/></defs></svg>