<svg xmlns="http://www.w3.org/2000/svg" xmlns:xlink="http://www.w3.org/1999/xlink" width="30" height="30" viewBox="0 0 30 30" fill="none"><g opacity="1"  transform="translate(0 0)"><mask id="bg-mask-0" fill="white"><use transform="translate(0 0)" xlink:href="#path_0"></use></mask><g mask="url(#bg-mask-0)" ><g opacity="1"  transform="translate(3.75 2.499755859375)"><path id="路径 1" fill-rule="evenodd" style="fill:#FFC300" opacity="1" d="M0 3.285L11.2556 0L22.5 3.285L22.5 10.0212C22.5 10.2353 22.4958 10.4493 22.4874 10.6631C22.4791 10.877 22.4666 11.0906 22.4499 11.304C22.4332 11.5174 22.4123 11.7304 22.3873 11.9429C22.3623 12.1555 22.3332 12.3676 22.2999 12.579C22.2666 12.7904 22.2292 13.0011 22.1876 13.2111C22.1461 13.4211 22.1006 13.6302 22.0509 13.8384C22.0012 14.0466 21.9474 14.2537 21.8897 14.4598C21.8319 14.6659 21.7702 14.8708 21.7044 15.0745C21.6386 15.2782 21.5689 15.4805 21.4953 15.6814C21.4216 15.8824 21.344 16.0819 21.2626 16.2798C21.1811 16.4778 21.0959 16.674 21.0068 16.8686C20.9176 17.0632 20.8248 17.256 20.7281 17.447C20.6315 17.638 20.5312 17.827 20.4271 18.0141C20.3231 18.2011 20.2155 18.3861 20.1042 18.5689C19.993 18.7518 19.8783 18.9324 19.7599 19.1108C19.6416 19.2892 19.5199 19.4652 19.3948 19.6389C19.2696 19.8125 19.1411 19.9836 19.0093 20.1522C18.8774 20.3208 18.7423 20.4868 18.604 20.6501C18.4657 20.8134 18.3242 20.9741 18.1796 21.1319C18.0351 21.2897 17.8874 21.4446 17.7367 21.5967C17.5861 21.7488 17.4326 21.8978 17.2761 22.0439C17.1197 22.1899 16.9604 22.3329 16.7984 22.4727C16.6363 22.6125 16.4716 22.7491 16.3043 22.8826C16.1369 23.016 15.9669 23.1461 15.7945 23.2729C15.6221 23.3997 15.4472 23.523 15.2699 23.6429C15.0926 23.7629 14.9131 23.8794 14.7312 23.9923C14.5494 24.1052 14.3655 24.2146 14.1794 24.3204C13.9934 24.4261 13.8053 24.5282 13.6152 24.6266C13.4251 24.7251 13.2332 24.8197 13.0394 24.9106C12.8456 25.0016 12.6502 25.0886 12.453 25.1719C12.2558 25.2553 12.0571 25.3346 11.8569 25.4102C11.6566 25.4858 11.4549 25.5573 11.2519 25.625C11.0487 25.5573 10.847 25.4858 10.6467 25.4102C10.4464 25.3347 10.2476 25.2553 10.0503 25.1719C9.85312 25.0886 9.65756 25.0016 9.46375 24.9106C9.26994 24.8197 9.07794 24.7251 8.88781 24.6266C8.69763 24.5282 8.5095 24.4261 8.32337 24.3203C8.13719 24.2145 7.95319 24.1052 7.77131 23.9923C7.58944 23.8793 7.40981 23.7628 7.2325 23.6428C7.05519 23.5229 6.88025 23.3995 6.70775 23.2727C6.53525 23.1459 6.36525 23.0158 6.19781 22.8824C6.03039 22.7489 5.86562 22.6122 5.7035 22.4724C5.54142 22.3326 5.38212 22.1896 5.22563 22.0435C5.06908 21.8974 4.91548 21.7483 4.76481 21.5963C4.61411 21.4442 4.46644 21.2892 4.32181 21.1313C4.17714 20.9735 4.03562 20.8129 3.89725 20.6495C3.75887 20.4861 3.62375 20.3201 3.49187 20.1514C3.36 19.9828 3.23146 19.8117 3.10625 19.638C2.98104 19.4643 2.85927 19.2883 2.74094 19.1099C2.62261 18.9314 2.50779 18.7508 2.39651 18.5679C2.28523 18.3849 2.17757 18.1999 2.07351 18.0129C1.96946 17.8258 1.86909 17.6367 1.77242 17.4457C1.67575 17.2546 1.58284 17.0618 1.49369 16.8671C1.40455 16.6725 1.31924 16.4762 1.23777 16.2782C1.15629 16.0802 1.07871 15.8807 1.00502 15.6797C0.931331 15.4787 0.861594 15.2763 0.795806 15.0726C0.730025 14.8688 0.668238 14.6639 0.610456 14.4578C0.552673 14.2516 0.498933 14.0444 0.449237 13.8361C0.399546 13.6279 0.353936 13.4187 0.312406 13.2087C0.270881 12.9987 0.233469 12.7879 0.200169 12.5765C0.166873 12.365 0.137714 12.1529 0.112694 11.9403C0.0876769 11.7277 0.0668188 11.5146 0.0501189 11.3012C0.0334188 11.0878 0.0208918 10.8741 0.0125376 10.6601C0.00417918 10.4462 0 10.2322 0 10.0181L0 3.285Z"></path><path  id="路径 2" style="fill:#FFFFFF; opacity:1;" d="M6.33211 11.1681L10.7071 15.5431L10 16.2502L9.29289 15.5431L16.7929 8.04314Q16.8625 7.97349 16.9444 7.91877Q17.0263 7.86406 17.1173 7.82636Q17.2083 7.78867 17.3049 7.76946Q17.4015 7.75024 17.5 7.75024Q17.5985 7.75024 17.6951 7.76946Q17.7917 7.78867 17.8827 7.82636Q17.9737 7.86406 18.0556 7.91877Q18.1375 7.97349 18.2071 8.04314Q18.2768 8.11278 18.3315 8.19467Q18.3862 8.27657 18.4239 8.36756Q18.4616 8.45855 18.4808 8.55515Q18.5 8.65175 18.5 8.75024Q18.5 8.84873 18.4808 8.94533Q18.4616 9.04193 18.4239 9.13293Q18.3862 9.22392 18.3315 9.30581Q18.2768 9.38771 18.2071 9.45735L10.7071 16.9574C10.3166 17.3479 9.68342 17.3479 9.29289 16.9574L4.91789 12.5824Q4.84825 12.5127 4.79353 12.4308Q4.73881 12.3489 4.70112 12.2579Q4.66343 12.1669 4.64421 12.0703Q4.625 11.9737 4.625 11.8752Q4.625 11.7768 4.64421 11.6802Q4.66343 11.5836 4.70112 11.4926Q4.73881 11.4016 4.79353 11.3197Q4.84825 11.2378 4.91789 11.1681Q4.98754 11.0985 5.06943 11.0438Q5.15132 10.9891 5.24232 10.9514Q5.33331 10.9137 5.42991 10.8945Q5.52651 10.8752 5.625 10.8752Q5.72349 10.8752 5.82009 10.8945Q5.91669 10.9137 6.00768 10.9514Q6.09868 10.9891 6.18057 11.0438Q6.26246 11.0985 6.33211 11.1681Z"></path></g></g></g><defs><rect id="path_0" x="0" y="0" width="30" height="30" rx="0" ry="0"/></defs></svg>