<svg xmlns="http://www.w3.org/2000/svg" xmlns:xlink="http://www.w3.org/1999/xlink" width="30" height="30" viewBox="0 0 30 30" fill="none"><g opacity="1"  transform="translate(0 0)"><mask id="bg-mask-0" fill="white"><use transform="translate(0 0)" xlink:href="#path_0"></use></mask><g mask="url(#bg-mask-0)" ><g opacity="1"  transform="translate(0 0)"><path d="M30 0L30 30L0 30L0 0L30 0ZM15.7413 29.0725L15.7275 29.075L15.6388 29.1187L15.6138 29.1238L15.5962 29.1187L15.5075 29.075C15.495 29.07 15.4838 29.0737 15.4775 29.0812L15.4725 29.0938L15.4513 29.6287L15.4575 29.6537L15.47 29.67L15.6 29.7625L15.6187 29.7675L15.6337 29.7625L15.7638 29.67L15.7788 29.65L15.7837 29.6287L15.7625 29.095C15.76 29.0825 15.7513 29.0737 15.7413 29.0725ZM16.0725 28.9312L16.0562 28.9338L15.825 29.05L15.8125 29.0625L15.8088 29.0763L15.8313 29.6138L15.8375 29.6287L15.8475 29.6375L16.0987 29.7537C16.1138 29.7588 16.1275 29.7537 16.135 29.7437L16.14 29.7262L16.0975 28.9587C16.0938 28.9438 16.085 28.9338 16.0725 28.9312ZM15.1788 28.9338C15.1656 28.9277 15.1544 28.9303 15.145 28.9412L15.1375 28.9587L15.095 29.7262C15.095 29.7412 15.1038 29.7512 15.1163 29.7563L15.135 29.7537L15.3862 29.6375L15.3988 29.6275L15.4038 29.6138L15.425 29.0763L15.4213 29.0613L15.4087 29.0487L15.1788 28.9338Z"  ></path><path id="路径 2" fill-rule="evenodd" style="fill:#FFC300" opacity="1" d="M16.2496 3.75C16.3276 3.74997 16.4054 3.75359 16.483 3.76085C16.5606 3.7681 16.6377 3.77896 16.7144 3.79344C16.791 3.80791 16.8669 3.82593 16.9417 3.8475C17.0166 3.86906 17.0904 3.89407 17.163 3.92254C17.2356 3.951 17.3067 3.9828 17.3764 4.01791C17.446 4.05303 17.5137 4.09132 17.5799 4.13279C17.6459 4.17425 17.7099 4.21871 17.7717 4.26616C17.8336 4.31361 17.8931 4.36385 17.9502 4.41687C18.0075 4.46989 18.0621 4.52546 18.114 4.58359C18.166 4.64172 18.2151 4.70215 18.2615 4.76487C18.3079 4.8276 18.3511 4.89235 18.3914 4.95913C18.4316 5.0259 18.4686 5.09441 18.5025 5.16465C18.5364 5.2349 18.5669 5.30658 18.594 5.37967C18.6211 5.45276 18.6449 5.52698 18.665 5.60229C18.6852 5.6776 18.7019 5.75369 18.715 5.83056C18.7281 5.90742 18.7375 5.98474 18.7434 6.0625L18.7496 6.25L18.7496 23.75L19.9996 23.75L19.9996 11.875C19.9996 11.8387 20.0027 11.8027 20.009 11.7669C20.0152 11.7312 20.0245 11.6963 20.0369 11.6621C20.0492 11.628 20.0645 11.5952 20.0825 11.5637C20.1006 11.5322 20.1212 11.5026 20.1445 11.4747C20.1677 11.4468 20.1932 11.4211 20.2209 11.3977C20.2486 11.3743 20.2781 11.3534 20.3095 11.3351C20.3409 11.3168 20.3735 11.3013 20.4075 11.2887C20.4416 11.2761 20.4765 11.2665 20.5121 11.26L20.6246 11.25L22.4996 11.25C22.5776 11.25 22.6554 11.2536 22.733 11.2609C22.8106 11.2681 22.8877 11.279 22.9644 11.2934C23.041 11.3079 23.1169 11.3259 23.1917 11.3475C23.2666 11.3691 23.3404 11.3941 23.413 11.4225C23.4856 11.451 23.5567 11.4828 23.6264 11.5179C23.696 11.553 23.7637 11.5913 23.8299 11.6328C23.8959 11.6743 23.9599 11.7187 24.0217 11.7662C24.0836 11.8136 24.1431 11.8639 24.2002 11.9169C24.2575 11.9699 24.3121 12.0255 24.364 12.0836C24.416 12.1417 24.4651 12.2022 24.5115 12.2649C24.5579 12.3276 24.6011 12.3924 24.6414 12.4591C24.6816 12.5259 24.7186 12.5944 24.7525 12.6646C24.7864 12.7349 24.8169 12.8065 24.844 12.8796C24.8711 12.9528 24.8949 13.027 24.915 13.1023C24.9352 13.1776 24.9519 13.2537 24.965 13.3305C24.9781 13.4074 24.9875 13.4848 24.9934 13.5625L24.9996 13.75L24.9996 23.75L26.2496 23.75C26.3285 23.7501 26.4067 23.7576 26.4842 23.7725C26.5619 23.7874 26.6372 23.8095 26.7106 23.8386C26.784 23.8678 26.8539 23.9036 26.9204 23.9461C26.987 23.9885 27.049 24.0369 27.1064 24.091C27.1637 24.1453 27.2155 24.2044 27.2617 24.2684C27.3079 24.3324 27.3477 24.4001 27.3811 24.4716C27.4145 24.5433 27.4407 24.6173 27.4601 24.6938C27.4795 24.7703 27.4915 24.8479 27.4961 24.9268C27.5007 25.0056 27.4979 25.0841 27.4876 25.1624C27.4774 25.2406 27.4599 25.3173 27.4351 25.3921C27.4104 25.4671 27.3787 25.5391 27.3404 25.608C27.302 25.677 27.2574 25.7418 27.2067 25.8023C27.1561 25.8629 27.1002 25.9181 27.0391 25.968C26.978 26.0179 26.9126 26.0616 26.8432 26.0993C26.7739 26.1369 26.7015 26.1676 26.6262 26.1915C26.5511 26.2154 26.4742 26.2319 26.3959 26.2413L26.2496 26.25L3.7496 26.25C3.67066 26.2499 3.59244 26.2424 3.51492 26.2275C3.4374 26.2126 3.36198 26.1905 3.28865 26.1614C3.2153 26.1321 3.14536 26.0963 3.07881 26.0539C3.01226 26.0115 2.95028 25.9631 2.89288 25.9089C2.83548 25.8548 2.78368 25.7956 2.73748 25.7316C2.69128 25.6676 2.6515 25.5999 2.61813 25.5284C2.58477 25.4568 2.55842 25.3828 2.53908 25.3063C2.51974 25.2298 2.50776 25.1521 2.50313 25.0733C2.49851 24.9944 2.50132 24.9159 2.51157 24.8376C2.52182 24.7594 2.53933 24.6828 2.5641 24.6079C2.58886 24.5329 2.62044 24.4609 2.65883 24.392C2.69723 24.323 2.74176 24.2583 2.79242 24.1978C2.84309 24.1371 2.89898 24.0819 2.96011 24.032C3.02124 23.9821 3.08652 23.9384 3.15593 23.9008C3.22535 23.8631 3.29768 23.8324 3.37291 23.8085C3.44815 23.7846 3.52496 23.7681 3.60335 23.7588L3.7496 23.75L4.9996 23.75L4.9996 6.25C4.99958 6.17202 5.00319 6.09421 5.01045 6.01657C5.0177 5.93894 5.02856 5.86181 5.04304 5.78519C5.05751 5.70858 5.07553 5.6328 5.0971 5.55786C5.11865 5.48292 5.14366 5.40916 5.17214 5.33656C5.2006 5.26398 5.23239 5.19286 5.26751 5.12325C5.30263 5.05363 5.34091 4.9858 5.38239 4.91976C5.42385 4.85373 5.46831 4.78977 5.51576 4.7279C5.56321 4.66602 5.61345 4.60649 5.66648 4.54931C5.71949 4.49214 5.77506 4.43756 5.83319 4.38559C5.89131 4.33361 5.95175 4.28446 6.01448 4.23814C6.0772 4.19182 6.14195 4.14853 6.20873 4.10826C6.2755 4.068 6.344 4.03095 6.41425 3.99709C6.4845 3.96324 6.55616 3.93274 6.62926 3.9056C6.70236 3.87845 6.77656 3.85478 6.85189 3.83458C6.92719 3.81438 7.00329 3.79773 7.08016 3.78465C7.15703 3.77157 7.23434 3.7621 7.3121 3.75625L7.4996 3.75L16.2496 3.75ZM13.7496 18.75L9.9996 18.75L9.9996 21.25L13.7496 21.25L13.7496 18.75ZM13.7496 13.75L9.9996 13.75L9.9996 16.25L13.7496 16.25L13.7496 13.75ZM13.7496 8.75L9.9996 8.75L9.9996 11.25L13.7496 11.25L13.7496 8.75Z"></path></g></g></g><defs><rect id="path_0" x="0" y="0" width="30" height="30" rx="0" ry="0"/></defs></svg>