<svg xmlns="http://www.w3.org/2000/svg" xmlns:xlink="http://www.w3.org/1999/xlink" width="30" height="30" viewBox="0 0 30 30" fill="none"><g opacity="1"  transform="translate(0 0)"><mask id="bg-mask-0" fill="white"><use transform="translate(0 0)" xlink:href="#path_0"></use></mask><g mask="url(#bg-mask-0)" ><g opacity="1"  transform="translate(-1 0)"><mask id="bg-mask-1" fill="white"><use transform="translate(0 0)" xlink:href="#path_1"></use></mask><g mask="url(#bg-mask-1)" ><path id="路径 1" fill-rule="evenodd" style="fill:#FFC300" opacity="1" d="M27.5625 4.3125L2.4375 4.3125C1.125 4.3125 0 5.4375 0 6.75L0 23.25C0 24.5625 1.125 25.6875 2.4375 25.6875L27.5625 25.6875C28.875 25.6875 30 24.5625 30 23.25L30 6.75C30 5.4375 28.875 4.3125 27.5625 4.3125Z"></path><path  id="路径 2" style="fill:#FFFFFF; opacity:1;" d="M5.21913 13.3753L9.21913 8.37531Q9.28066 8.2984 9.35601 8.23497Q9.43136 8.17154 9.51763 8.12403Q9.60391 8.07652 9.69779 8.04676Q9.79168 8.01699 9.88957 8.00612Q9.98746 7.99524 10.0856 8.00367Q10.1837 8.0121 10.2783 8.03951Q10.3729 8.06692 10.4604 8.11226Q10.5478 8.1576 10.6247 8.21913Q10.7016 8.28066 10.765 8.35601Q10.8285 8.43136 10.876 8.51763Q10.9235 8.60391 10.9532 8.69779Q10.983 8.79168 10.9939 8.88957Q11.0048 8.98746 10.9963 9.08559Q10.9879 9.18372 10.9605 9.27832Q10.9331 9.37292 10.8877 9.46035Q10.8424 9.54779 10.7809 9.62469L6.78087 14.6247Q6.71934 14.7016 6.64399 14.765Q6.56864 14.8285 6.48237 14.876Q6.39609 14.9235 6.30221 14.9532Q6.20832 14.983 6.11043 14.9939Q6.01254 15.0048 5.91441 14.9963Q5.81628 14.9879 5.72168 14.9605Q5.62708 14.9331 5.53965 14.8877Q5.45221 14.8424 5.37531 14.7809Q5.2984 14.7193 5.23497 14.644Q5.17154 14.5686 5.12403 14.4824Q5.07652 14.3961 5.04676 14.3022Q5.01699 14.2083 5.00612 14.1104Q4.99524 14.0125 5.00367 13.9144Q5.0121 13.8163 5.03951 13.7217Q5.06692 13.6271 5.11226 13.5396Q5.1576 13.4522 5.21913 13.3753Z"></path><path  id="路径 2" style="fill:#FFFFFF; opacity:1;" d="M11.2191 13.3753L15.2191 8.37531Q15.2807 8.2984 15.356 8.23497Q15.4314 8.17154 15.5176 8.12403Q15.6039 8.07652 15.6978 8.04676Q15.7917 8.01699 15.8896 8.00612Q15.9875 7.99524 16.0856 8.00367Q16.1837 8.0121 16.2783 8.03951Q16.3729 8.06692 16.4604 8.11226Q16.5478 8.1576 16.6247 8.21913Q16.7016 8.28066 16.765 8.35601Q16.8285 8.43136 16.876 8.51763Q16.9235 8.60391 16.9532 8.69779Q16.983 8.79168 16.9939 8.88957Q17.0048 8.98746 16.9963 9.08559Q16.9879 9.18372 16.9605 9.27832Q16.9331 9.37292 16.8877 9.46035Q16.8424 9.54779 16.7809 9.62469L12.7809 14.6247Q12.7193 14.7016 12.644 14.765Q12.5686 14.8285 12.4824 14.876Q12.3961 14.9235 12.3022 14.9532Q12.2083 14.983 12.1104 14.9939Q12.0125 15.0048 11.9144 14.9963Q11.8163 14.9879 11.7217 14.9605Q11.6271 14.9331 11.5396 14.8877Q11.4522 14.8424 11.3753 14.7809Q11.2984 14.7193 11.235 14.644Q11.1715 14.5686 11.124 14.4824Q11.0765 14.3961 11.0468 14.3022Q11.017 14.2083 11.0061 14.1104Q10.9952 14.0125 11.0037 13.9144Q11.0121 13.8163 11.0395 13.7217Q11.0669 13.6271 11.1123 13.5396Q11.1576 13.4522 11.2191 13.3753Z"></path><path  id="路径 2" style="fill:#FFFFFF; opacity:1;" d="M17.2191 13.3753L21.2191 8.37531Q21.2807 8.2984 21.356 8.23497Q21.4314 8.17154 21.5176 8.12403Q21.6039 8.07652 21.6978 8.04676Q21.7917 8.01699 21.8896 8.00612Q21.9875 7.99524 22.0856 8.00367Q22.1837 8.0121 22.2783 8.03951Q22.3729 8.06692 22.4604 8.11226Q22.5478 8.1576 22.6247 8.21913Q22.7016 8.28066 22.765 8.35601Q22.8285 8.43136 22.876 8.51763Q22.9235 8.60391 22.9532 8.69779Q22.983 8.79168 22.9939 8.88957Q23.0048 8.98746 22.9963 9.08559Q22.9879 9.18372 22.9605 9.27832Q22.9331 9.37292 22.8877 9.46035Q22.8424 9.54779 22.7809 9.62469L18.7809 14.6247Q18.7193 14.7016 18.644 14.765Q18.5686 14.8285 18.4824 14.876Q18.3961 14.9235 18.3022 14.9532Q18.2083 14.983 18.1104 14.9939Q18.0125 15.0048 17.9144 14.9963Q17.8163 14.9879 17.7217 14.9605Q17.6271 14.9331 17.5396 14.8877Q17.4522 14.8424 17.3753 14.7809Q17.2984 14.7193 17.235 14.644Q17.1715 14.5686 17.124 14.4824Q17.0765 14.3961 17.0468 14.3022Q17.017 14.2083 17.0061 14.1104Q16.9952 14.0125 17.0037 13.9144Q17.0121 13.8163 17.0395 13.7217Q17.0669 13.6271 17.1123 13.5396Q17.1576 13.4522 17.2191 13.3753Z"></path><path  id="路径 2" style="fill:#FFFFFF; opacity:1;" d="M5.5 20L23.5 20Q23.5985 20 23.6951 20.0192Q23.7917 20.0384 23.8827 20.0761Q23.9737 20.1138 24.0556 20.1685Q24.1375 20.2232 24.2071 20.2929Q24.2767 20.3625 24.3315 20.4444Q24.3862 20.5263 24.4239 20.6173Q24.4616 20.7083 24.4808 20.8049Q24.5 20.9015 24.5 21Q24.5 21.0985 24.4808 21.1951Q24.4616 21.2917 24.4239 21.3827Q24.3862 21.4737 24.3315 21.5556Q24.2767 21.6375 24.2071 21.7071Q24.1375 21.7767 24.0556 21.8315Q23.9737 21.8862 23.8827 21.9239Q23.7917 21.9616 23.6951 21.9808Q23.5985 22 23.5 22L5.5 22Q5.40151 22 5.30491 21.9808Q5.20831 21.9616 5.11732 21.9239Q5.02632 21.8862 4.94443 21.8315Q4.86254 21.7767 4.79289 21.7071Q4.72325 21.6375 4.66853 21.5556Q4.61381 21.4737 4.57612 21.3827Q4.53843 21.2917 4.51921 21.1951Q4.5 21.0985 4.5 21Q4.5 20.9015 4.51921 20.8049Q4.53843 20.7083 4.57612 20.6173Q4.61381 20.5263 4.66853 20.4444Q4.72325 20.3625 4.79289 20.2929Q4.86254 20.2232 4.94443 20.1685Q5.02632 20.1138 5.11732 20.0761Q5.20831 20.0384 5.30491 20.0192Q5.40151 20 5.5 20Z"></path></g></g></g></g><defs><rect id="path_0" x="0" y="0" width="30" height="30" rx="0" ry="0"/><rect id="path_1" x="0" y="0" width="30" height="30" rx="0" ry="0"/></defs></svg>