<svg xmlns="http://www.w3.org/2000/svg" xmlns:xlink="http://www.w3.org/1999/xlink" width="180" height="180" viewBox="0 0 180 180" fill="none"><g opacity="1"  transform="translate(0 0)"><g opacity="1"  transform="translate(12 0)"><path id="蒙版" style="fill:url(#linear_0); opacity:100" d="M78.162 178.424L149.952 136.484L150.291 137.064L149.945 137.639L80.5446 95.8994L80.8908 95.3238L81.219 95.9099L6.66896 137.65L6.34082 137.064L6.67834 136.483L78.8383 178.423L78.5008 179.004L78.162 178.424ZM78.5017 179.781L4.98539 137.053L80.9029 94.5472L151.608 137.072L78.8396 179.584L78.5017 179.781Z"></path><g opacity="1"  transform="translate(0 0)"><g opacity="1"  transform="translate(0 0)"><path id="多边形" fill-rule="evenodd" fill="url(#linear_1)" opacity="0.2" d="M78 0L10.45 38.82L10.45 116.47L78 155.3L145.55 116.47L145.55 38.82L78 0Z"></path><g opacity="1"  transform="translate(10.779296875 77.64801025390625)"><g opacity="1"  transform="translate(0 -0.00006103515625)"><mask id="mask-0" fill="white"><path id="蒙版" fill-rule="evenodd" fill="url(#linear_2)" d="M67.561 80.1699L135.111 39.2299L69.971 -6.10352e-05L0.000976562 39.2299L67.561 80.1699Z"></path></mask><path id="蒙版" fill-rule="evenodd" fill="url(#linear_2)" opacity="1" d="M67.561 80.1699L135.111 39.2299L69.971 -6.10352e-05L0.000976562 39.2299L67.561 80.1699Z"></path><g mask="url(#mask-0)"><path id="矩形" fill-rule="evenodd" fill="url(#linear_3)" d="M67.5413 59.971L101.461 39.821L68.7513 20.201L33.6113 39.821L67.5413 59.971Z"></path></g><g mask="url(#mask-0)"><path id="椭圆形" fill-rule="evenodd" style="fill:#4870F2" d="M67.8515 -51.7653C42.2915 -51.7653 21.5615 -31.1353 21.5615 -5.68532C21.5615 19.7747 42.2915 40.4047 67.8515 40.4047C93.4215 40.4047 114.152 19.7747 114.152 -5.68532C114.152 -31.1353 93.4215 -51.7653 67.8515 -51.7653Z"></path></g></g><path id="矩形" fill-rule="evenodd" fill="url(#linear_4)" opacity="1" d="M0.000976562 50.9661L67.851 90.9161L67.561 79.5061L0.000976562 39.2261L0.000976562 50.9661Z"></path><path id="矩形" fill-rule="evenodd" fill="url(#linear_5)" opacity="1" d="M67.8566 90.9161L135.117 51.4661L135.117 39.2261L67.5566 79.5061L67.8566 90.9161Z"></path></g></g></g></g><g opacity="1"  transform="translate(23.4140625 26.513916015625)"><g opacity="1"  transform="translate(11.89453125 0)"><g opacity="1"  transform="translate(14.1943359375 -0.00006103515625)"><mask id="mask-1" fill="white"><path id="蒙版" fill-rule="evenodd" fill="url(#linear_6)" d="M41.199 0C18.449 0 -0.000976562 18.36 -0.000976562 41.02C-0.000976562 63.67 18.449 82.03 41.199 82.03C63.959 82.03 82.399 63.67 82.399 41.02C82.399 18.36 63.959 0 41.199 0Z"></path></mask><path id="蒙版" fill-rule="evenodd" fill="url(#linear_6)" opacity="1" d="M41.199 0C18.449 0 -0.000976562 18.36 -0.000976562 41.02C-0.000976562 63.67 18.449 82.03 41.199 82.03C63.959 82.03 82.399 63.67 82.399 41.02C82.399 18.36 63.959 0 41.199 0Z"></path><g mask="url(#mask-1)"><path id="椭圆形" fill-rule="evenodd" style="fill:#B8C9FF" d="M35.0439 -9.71271C26.5739 -9.71271 19.7139 -2.88271 19.7139 5.54729C19.7139 13.9773 26.5739 20.8073 35.0439 20.8073C43.5139 20.8073 50.3739 13.9773 50.3739 5.54729C50.3739 -2.88271 43.5139 -9.71271 35.0439 -9.71271Z"></path></g><g mask="url(#mask-1)"><path id="路径 3" fill-rule="evenodd" fill="url(#linear_7)" d="M42.1258 95.7013C70.8858 101.871 92.9858 65.9713 87.8558 54.7813C82.7258 43.5913 69.6558 41.0213 67.2558 50.1113C64.8558 59.2113 50.3758 73.0013 35.0358 68.6213C19.7158 64.2413 32.0458 27.3513 19.7158 20.6613C7.38582 13.9713 -3.28418 63.0213 -3.28418 63.0213C-3.28418 63.0213 13.3658 89.5413 42.1258 95.7013Z"></path></g><g mask="url(#mask-1)"><path id="椭圆形" fill-rule="evenodd" style="fill:#B8C9FF" d="M45.5682 70.7038C37.8682 70.7038 31.6182 76.9238 31.6182 84.5938C31.6182 92.2638 37.8682 98.4838 45.5682 98.4838C53.2782 98.4838 59.5182 92.2638 59.5182 84.5938C59.5182 76.9238 53.2782 70.7038 45.5682 70.7038Z"></path></g><g mask="url(#mask-1)"><path id="椭圆形" fill-rule="evenodd" fill="url(#linear_8)" d="M52.8852 23.4377C47.4652 23.4377 43.0752 27.8077 43.0752 33.2077C43.0752 38.5977 47.4652 42.9677 52.8852 42.9677C58.3052 42.9677 62.6952 38.5977 62.6952 33.2077C62.6952 27.8077 58.3052 23.4377 52.8852 23.4377Z"></path></g><g mask="url(#mask-1)"><path id="椭圆形" fill-rule="evenodd" fill="url(#linear_9)" d="M14.8004 43.0851C11.9604 43.0851 9.65039 45.3851 9.65039 48.2151C9.65039 51.0451 11.9604 53.3451 14.8004 53.3451C17.6504 53.3451 19.9504 51.0451 19.9504 48.2151C19.9504 45.3851 17.6504 43.0851 14.8004 43.0851Z"></path></g></g><path id="椭圆形" fill-rule="evenodd" fill="url(#linear_10)" opacity="0.42" d="M5.06902 35.9787C2.26902 35.9787 -0.000976562 38.2387 -0.000976562 41.0287C-0.000976562 43.8187 2.26902 46.0787 5.06902 46.0787C7.87902 46.0787 10.149 43.8187 10.149 41.0287C10.149 38.2387 7.87902 35.9787 5.06902 35.9787Z"></path><path id="椭圆形备份 2" fill-rule="evenodd" fill="url(#linear_11)" opacity="0.57" d="M103.827 8.73834C99.9667 8.73834 96.8467 11.8483 96.8467 15.6783C96.8467 19.5183 99.9667 22.6283 103.827 22.6283C107.677 22.6283 110.797 19.5183 110.797 15.6783C110.797 11.8483 107.677 8.73834 103.827 8.73834Z"></path></g><path id="路径" style="fill:url(#linear_12); opacity:100" d="M36.9478 21.5183M36.9478 21.5183Q20.515 23.9907 10.7496 28.6601Q1.26257 33.1963 1.26257 38.1998Q1.26257 45.5647 19.8113 51.1674Q39.079 56.9872 66.38 56.9872Q93.6876 56.9872 112.957 51.1674Q131.507 45.565 131.507 38.1998Q131.507 32.7734 120.51 27.9758Q109.192 23.0382 90.6899 20.8234Q90.6283 20.816 90.5678 20.8026Q90.5072 20.7893 90.4482 20.77Q90.3893 20.7508 90.3325 20.7258Q90.2757 20.7009 90.2216 20.6705Q90.1675 20.6401 90.1167 20.6046Q90.0658 20.5691 90.0187 20.5287Q89.9716 20.4884 89.9287 20.4436Q89.8858 20.3989 89.8474 20.3501Q89.8091 20.3013 89.7757 20.249Q89.7424 20.1968 89.7143 20.1415Q89.6862 20.0862 89.6637 20.0284Q89.6411 19.9706 89.6244 19.9109Q89.6076 19.8511 89.5968 19.7901Q89.586 19.729 89.5812 19.6671Q89.5764 19.6053 89.5777 19.5433Q89.579 19.4813 89.5864 19.4197Q89.5938 19.3581 89.6071 19.2975Q89.6205 19.237 89.6397 19.178Q89.659 19.119 89.6839 19.0623Q89.7088 19.0055 89.7392 18.9514Q89.7696 18.8973 89.8051 18.8465Q89.8407 18.7956 89.881 18.7485Q89.9214 18.7014 89.9661 18.6585Q90.0109 18.6155 90.0596 18.5772Q90.1084 18.5389 90.1607 18.5055Q90.213 18.4721 90.2683 18.444Q90.3236 18.416 90.3814 18.3934Q90.4392 18.3709 90.4989 18.3541Q90.5586 18.3374 90.6197 18.3266Q90.6807 18.3157 90.7426 18.311Q90.8044 18.3062 90.8664 18.3075Q90.9285 18.3088 90.99 18.3161Q109.861 20.5752 121.52 25.6613Q134.033 31.12 134.033 38.1998Q134.033 47.4401 113.688 53.5847Q94.0607 59.5123 66.38 59.5123Q38.7061 59.5123 19.0812 53.5846Q-1.26257 47.4398 -1.26256 38.1998Q-1.26256 31.6048 9.66036 26.382Q19.7661 21.5499 36.5721 19.0212Q36.6335 19.012 36.6954 19.0089Q36.7574 19.0057 36.8193 19.0086Q36.8813 19.0115 36.9427 19.0205Q37.004 19.0295 37.0642 19.0444Q37.1244 19.0593 37.1829 19.0801Q37.2413 19.1009 37.2974 19.1273Q37.3536 19.1537 37.4068 19.1855Q37.4601 19.2173 37.51 19.2541Q37.5599 19.2909 37.6059 19.3325Q37.652 19.3741 37.6937 19.4199Q37.7355 19.4658 37.7725 19.5155Q37.8096 19.5653 37.8416 19.6184Q37.8736 19.6716 37.9002 19.7276Q37.9269 19.7836 37.9479 19.8419Q37.9689 19.9003 37.9841 19.9604Q37.9993 20.0206 38.0085 20.0819Q38.0177 20.1432 38.0209 20.2052Q38.0241 20.2671 38.0212 20.3291Q38.0182 20.3911 38.0093 20.4524Q38.0003 20.5138 37.9854 20.574Q37.9704 20.6342 37.9496 20.6926Q37.9289 20.7511 37.9025 20.8072Q37.8761 20.8633 37.8443 20.9166Q37.8125 20.9699 37.7757 21.0198Q37.7388 21.0697 37.6973 21.1157Q37.6557 21.1618 37.6098 21.2035Q37.5639 21.2452 37.5142 21.2823Q37.4645 21.3194 37.4113 21.3514Q37.3582 21.3834 37.3022 21.41Q37.2462 21.4366 37.1878 21.4576Q37.1294 21.4787 37.0693 21.4939Q37.0092 21.509 36.9478 21.5183Z"></path></g></g><defs><linearGradient id="linear_0" x1="50%" y1="50%" x2="50.00000000000002%" y2="73.85163281832696%" gradientUnits="objectBoundingBox"><stop offset="0" stop-color="#9FB4FF" stop-opacity="0.28" /><stop offset="1" stop-color="#7391FF" stop-opacity="1" /></linearGradient><linearGradient id="linear_1" x1="50%" y1="0%" x2="51%" y2="100%" gradientUnits="objectBoundingBox"><stop offset="0" stop-color="#3A65F2" stop-opacity="1" /><stop offset="1" stop-color="#3D7FFF" stop-opacity="1" /></linearGradient><linearGradient id="linear_2" x1="50%" y1="93.258283530281%" x2="51%" y2="25.464745588847215%" gradientUnits="objectBoundingBox"><stop offset="0" stop-color="#EFF5FF" stop-opacity="1" /><stop offset="1" stop-color="#A2BFF4" stop-opacity="1" /></linearGradient><linearGradient id="linear_3" x1="50%" y1="113.36121237589403%" x2="53.78268507856525%" y2="-55.19144552911257%" gradientUnits="objectBoundingBox"><stop offset="0" stop-color="#A2BFF4" stop-opacity="1" /><stop offset="1" stop-color="#EFF5FF" stop-opacity="1" /></linearGradient><filter id="filter_10" x="-7.5753984158683" y="-7.5753984158683" width="83.00452226508621" height="54.921647966990506" filterUnits="userSpaceOnUse" color-interpolation-filters="sRGB"><feFlood flood-opacity="0" result="BackgroundImageFix"/>
          <feBlend mode="normal" in="SourceGraphic" in2="BackgroundImageFix" result="shape"/>
          <feGaussianBlur stdDeviation="3.78769920793415" result="effect1_foregroundBlur" /></filter><filter id="filter_12" x="-13.423374203761043" y="-13.423374203761043" width="119.43219762627209" height="119.01412015740001" filterUnits="userSpaceOnUse" color-interpolation-filters="sRGB"><feFlood flood-opacity="0" result="BackgroundImageFix"/>
          <feBlend mode="normal" in="SourceGraphic" in2="BackgroundImageFix" result="shape"/>
          <feGaussianBlur stdDeviation="6.711687101880521" result="effect1_foregroundBlur" /></filter><linearGradient id="linear_4" x1="96.1767846815361%" y1="90.61677191559987%" x2="-0.0027365056438084464%" y2="13.705267796560605%" gradientUnits="objectBoundingBox"><stop offset="0" stop-color="#D9E7FC" stop-opacity="1" /><stop offset="1" stop-color="#3963F1" stop-opacity="1" /></linearGradient><linearGradient id="linear_5" x1="0.0034089775911302195%" y1="100.00000000000036%" x2="88.03896465672386%" y2="28.521973664987144%" gradientUnits="objectBoundingBox"><stop offset="0" stop-color="#D9E7FC" stop-opacity="1" /><stop offset="1" stop-color="#3963F1" stop-opacity="1" /></linearGradient><radialGradient id="linear_6" cx="19.16696229583356%" cy="9.513608837195493%" fx="19.16696229583356%" fy="9.513608837195493%" r="1.052377830326489" gradientTransform="translate(0.1916696229583356 0.09513608837195493) scale(0.9954843091356144 1) rotate(51.501607721784296) scale(1 1) translate(-0.1916696229583356 -0.09513608837195493)" ><stop offset="0" stop-color="#8FA9FF" stop-opacity="1" /><stop offset="0.5451054068069117" stop-color="#537AFF" stop-opacity="1" /><stop offset="0.8433132783182085" stop-color="#436CF9" stop-opacity="1" /><stop offset="1" stop-color="#00E0DB" stop-opacity="1" /></radialGradient><filter id="filter_20" x="-13.423374203761043" y="-13.423374203761043" width="57.50999456230724" height="57.37152677361095" filterUnits="userSpaceOnUse" color-interpolation-filters="sRGB"><feFlood flood-opacity="0" result="BackgroundImageFix"/>
          <feBlend mode="normal" in="SourceGraphic" in2="BackgroundImageFix" result="shape"/>
          <feGaussianBlur stdDeviation="6.711687101880521" result="effect1_foregroundBlur" /></filter><linearGradient id="linear_7" x1="16.32228337692063%" y1="15.647484808283707%" x2="50%" y2="78.39763179984338%" gradientUnits="objectBoundingBox"><stop offset="0" stop-color="#3661F0" stop-opacity="1" /><stop offset="1" stop-color="#6086FF" stop-opacity="1" /></linearGradient><filter id="filter_23" x="-13.423374203761043" y="-13.423374203761043" width="54.749214227834585" height="54.62321477715099" filterUnits="userSpaceOnUse" color-interpolation-filters="sRGB"><feFlood flood-opacity="0" result="BackgroundImageFix"/>
          <feBlend mode="normal" in="SourceGraphic" in2="BackgroundImageFix" result="shape"/>
          <feGaussianBlur stdDeviation="6.711687101880521" result="effect1_foregroundBlur" /></filter><linearGradient id="linear_8" x1="16.322688980499%" y1="15.647484808283707%" x2="50%" y2="78.39763179984338%" gradientUnits="objectBoundingBox"><stop offset="0" stop-color="#3661F0" stop-opacity="1" /><stop offset="1" stop-color="#6086FF" stop-opacity="1" /></linearGradient><linearGradient id="linear_9" x1="16.306685873272546%" y1="15.647484808283707%" x2="50%" y2="78.39763179984338%" gradientUnits="objectBoundingBox"><stop offset="0" stop-color="#3661F0" stop-opacity="1" /><stop offset="1" stop-color="#6086FF" stop-opacity="1" /></linearGradient><radialGradient id="linear_10" cx="19.17942954523861%" cy="9.513907295114121%" fx="19.17942954523861%" fy="9.513907295114121%" r="1.0522341697298858" gradientTransform="translate(0.1917942954523861 0.09513907295114121) scale(0.9954842554247398 1) rotate(51.51377023023224) scale(1 1) translate(-0.1917942954523861 -0.09513907295114121)" ><stop offset="0" stop-color="#8FA9FF" stop-opacity="1" /><stop offset="0.5451054068069117" stop-color="#537AFF" stop-opacity="1" /><stop offset="1" stop-color="#436CF9" stop-opacity="1" /></radialGradient><radialGradient id="linear_11" cx="19.16635428279827%" cy="9.512222974982503%" fx="19.16635428279827%" fy="9.512222974982503%" r="1.0522916040585024" gradientTransform="translate(0.1916635428279827 0.09512222974982502) scale(0.9954842897579371 1) rotate(51.49699019327005) scale(1 1) translate(-0.1916635428279827 -0.09512222974982502)" ><stop offset="0" stop-color="#8FA9FF" stop-opacity="1" /><stop offset="0.4561950120821721" stop-color="#537AFF" stop-opacity="1" /><stop offset="1" stop-color="#1C00FF" stop-opacity="0.54" /></radialGradient><linearGradient id="linear_12" x1="50%" y1="0%" x2="51%" y2="100%" gradientUnits="objectBoundingBox"><stop offset="0" stop-color="#9CBCFA" stop-opacity="0" /><stop offset="1" stop-color="#92ABFF" stop-opacity="1" /></linearGradient></defs></svg>