<svg xmlns="http://www.w3.org/2000/svg" xmlns:xlink="http://www.w3.org/1999/xlink" width="180" height="180" viewBox="0 0 180 180" fill="none"><g opacity="1"  transform="translate(0 0)"><g opacity="1"  transform="translate(12 0)"><g opacity="1"  transform="translate(0 0)"><g opacity="1"  transform="translate(0 0)"><path id="蒙版" style="fill:url(#linear_0); opacity:100" d="M77.9832 178.333L149.953 136.483L150.291 137.064L149.945 137.639L80.5446 95.8994L80.8908 95.3238L81.219 95.9099L6.66896 137.65L6.34082 137.064L6.67843 136.483L78.6584 178.333L78.3208 178.914L77.9832 178.333ZM78.3208 179.691L4.98557 137.053L80.9029 94.5472L151.61 137.074L78.6585 179.494L78.3208 179.691Z"></path><g opacity="1"  transform="translate(0 0)"><g opacity="1"  transform="translate(0 0)"><path id="多边形" fill-rule="evenodd" fill="url(#linear_1)" opacity="0.2" d="M78 0L10.45 38.82L10.45 116.47L78 155.3L145.55 116.47L145.55 38.82L78 0Z"></path><g opacity="1"  transform="translate(10.7802734375 77.64801025390625)"><g opacity="1"  transform="translate(0 -0.00006103515625)"><mask id="mask-0" fill="white"><path id="蒙版" fill-rule="evenodd" fill="url(#linear_2)" d="M67.56 80.1699L135.11 39.2299L69.97 -6.10352e-05L0 39.2299L67.56 80.1699Z"></path></mask><path id="蒙版" fill-rule="evenodd" fill="url(#linear_2)" opacity="1" d="M67.56 80.1699L135.11 39.2299L69.97 -6.10352e-05L0 39.2299L67.56 80.1699Z"></path><g mask="url(#mask-0)"><path id="矩形" fill-rule="evenodd" fill="url(#linear_3)" d="M67.5404 59.971L101.46 39.821L68.7504 20.201L33.6104 39.821L67.5404 59.971Z"></path></g><g mask="url(#mask-0)"><path id="椭圆形" fill-rule="evenodd" style="fill:#4870F2" d="M67.8505 -51.7653C42.2905 -51.7653 21.5605 -31.1353 21.5605 -5.68532C21.5605 19.7747 42.2905 40.4047 67.8505 40.4047C93.4205 40.4047 114.151 19.7747 114.151 -5.68532C114.151 -31.1353 93.4205 -51.7653 67.8505 -51.7653Z"></path></g></g><path id="矩形" fill-rule="evenodd" fill="url(#linear_4)" opacity="1" d="M0 50.9661L67.85 90.9161L67.56 79.5061L0 39.2261L0 50.9661Z"></path><path id="矩形" fill-rule="evenodd" fill="url(#linear_5)" opacity="1" d="M67.8557 90.9161L135.116 51.4661L135.116 39.2261L67.5557 79.5061L67.8557 90.9161Z"></path></g></g></g></g><g opacity="1"  transform="translate(17.755859375 65.022216796875)"><mask id="mask-1" fill="white"><path id="蒙版" fill-rule="evenodd" fill="url(#linear_6)" d="M60.88 71.9699L121.76 35.2099L63.06 -6.10352e-05L0 35.2099L60.88 71.9699Z"></path></mask><path id="蒙版" fill-rule="evenodd" fill="url(#linear_6)" opacity="1" d="M60.88 71.9699L121.76 35.2099L63.06 -6.10352e-05L0 35.2099L60.88 71.9699Z"></path><g mask="url(#mask-1)"><path id="路径 2" fill-rule="evenodd" style="fill:#3D7FFF" d="M114.902 20.7351L100.192 2.52509L26.9521 53.0251L46.8421 65.5251L114.902 20.7351Z"></path></g><g mask="url(#mask-1)"><g id="路径 4" filter="url(#filter_22)"></g></g></g><g opacity="1"  transform="translate(39.484375 30.1702880859375)"><g opacity="1"  transform="translate(0.0009765625 0)"><g opacity="1"  transform="translate(20.0888671875 20.95245361328125)"><path id="矩形" fill-rule="evenodd" fill="url(#linear_7)" opacity="1" d="M0 6.14L10.04 12.28L20.09 6.14L10.04 0L0 6.14Z"></path><path id="矩形" fill-rule="evenodd" fill="url(#linear_8)" opacity="1" d="M10.0449 47.8894L20.0849 41.3894L20.0849 5.77936L10.0449 12.2794L10.0449 47.8894Z"></path><path id="矩形" style="fill:url(#linear_9); opacity:100" d="M9.87338 47.6244L19.9134 41.1244L20.0849 41.3894L19.7693 41.3894L19.7693 5.77936L20.0849 5.77936L20.2565 6.04432L10.2165 12.5443L10.0449 12.2794L10.3606 12.2794L10.3606 47.8894L10.0449 47.8894L9.87338 47.6244ZM9.72928 48.4697L9.72928 12.1077L20.4006 5.19899L20.4006 41.561L10.2165 48.1543L9.72928 48.4697Z"></path><path id="矩形" fill-rule="evenodd" fill="url(#linear_10)" opacity="1" d="M0 5.77936L0 41.3894L10.04 47.8894L10.04 12.2794L0 5.77936Z"></path></g><g opacity="1"  transform="translate(0 41.9049072265625)"><path id="矩形" fill-rule="evenodd" fill="url(#linear_11)" opacity="1" d="M-0.000976562 6.24L10.039 12.47L20.089 6.24L10.039 0L-0.000976562 6.24Z"></path><path id="矩形" fill-rule="evenodd" fill="url(#linear_12)" opacity="1" d="M10.0439 39.9096L20.0839 33.3096L20.0839 5.86963L10.0439 12.4696L10.0439 39.9096Z"></path><path id="矩形" style="fill:url(#linear_13); opacity:100" d="M9.87056 39.6459L19.9106 33.0459L20.0839 33.3096L19.7683 33.3096L19.7683 5.86963L20.0839 5.86963L20.2573 6.13338L10.2173 12.7334L10.0439 12.4696L10.3596 12.4696L10.3596 39.9096L10.0439 39.9096L9.87056 39.6459ZM9.7283 40.4949L9.7283 12.2994L20.3996 5.2844L20.3996 33.4799L10.2173 40.1734L9.7283 40.4949Z"></path><path id="矩形" fill-rule="evenodd" fill="url(#linear_14)" opacity="1" d="M-0.000976562 5.86963L-0.000976562 33.3096L10.039 39.9096L10.039 12.4696L-0.000976562 5.86963Z"></path></g><g opacity="1"  transform="translate(40.1796875 0)"><path id="矩形" fill-rule="evenodd" fill="url(#linear_15)" opacity="1" d="M-0.000976562 6.24L10.039 12.47L20.089 6.24L10.039 0L-0.000976562 6.24Z"></path><path id="矩形" fill-rule="evenodd" fill="url(#linear_16)" opacity="1" d="M10.0439 59.8596L20.0839 53.2596L20.0839 5.86963L10.0439 12.4696L10.0439 59.8596Z"></path><path id="矩形" style="fill:url(#linear_17); opacity:100" d="M9.87056 59.5959L19.9106 52.9959L20.0839 53.2596L19.7683 53.2596L19.7683 5.86963L20.0839 5.86963L20.2573 6.13338L10.2173 12.7334L10.0439 12.4696L10.3596 12.4696L10.3596 59.8596L10.0439 59.8596L9.87056 59.5959ZM9.7283 60.4449L9.7283 12.2994L20.3996 5.2844L20.3996 53.4299L10.2173 60.1234L9.7283 60.4449Z"></path><path id="矩形" fill-rule="evenodd" fill="url(#linear_18)" opacity="1" d="M-0.000976562 5.86963L-0.000976562 53.2596L10.039 59.8596L10.039 12.4696L-0.000976562 5.86963Z"></path></g></g><g opacity="1"  transform="translate(17.5791015625 12.49945068359375)"><g opacity="1"  transform="translate(20.0888671875 20.952392578125)"><path id="矩形" fill-rule="evenodd" fill="url(#linear_19)" opacity="1" d="M0.000976562 6.14L10.041 12.28L20.091 6.14L10.041 0L0.000976562 6.14Z"></path><path id="矩形" fill-rule="evenodd" fill="url(#linear_20)" opacity="1" d="M10.0449 47.8893L20.0849 41.3893L20.0849 5.7793L10.0449 12.2793L10.0449 47.8893Z"></path><path id="矩形" style="fill:url(#linear_21); opacity:100" d="M9.87338 47.6243L19.9134 41.1243L20.0849 41.3893L19.7693 41.3893L19.7693 5.7793L20.0849 5.7793L20.2565 6.04426L10.2165 12.5443L10.0449 12.2793L10.3606 12.2793L10.3606 47.8893L10.0449 47.8893L9.87338 47.6243ZM9.72928 48.4697L9.72928 12.1076L20.4006 5.19893L20.4006 41.561L10.2165 48.1543L9.72928 48.4697Z"></path><path id="矩形" fill-rule="evenodd" fill="url(#linear_22)" opacity="1" d="M0.000976562 5.7793L0.000976562 41.3893L10.041 47.8893L10.041 12.2793L0.000976562 5.7793Z"></path></g><g opacity="1"  transform="translate(0 41.9049072265625)"><path id="矩形" fill-rule="evenodd" fill="url(#linear_23)" opacity="1" d="M0 6.24L10.04 12.47L20.09 6.24L10.04 0L0 6.24Z"></path><path id="矩形" fill-rule="evenodd" fill="url(#linear_24)" opacity="1" d="M10.0439 39.9096L20.0839 33.3096L20.0839 5.86963L10.0439 12.4696L10.0439 39.9096Z"></path><path id="矩形" style="fill:url(#linear_25); opacity:100" d="M9.87056 39.6459L19.9106 33.0459L20.0839 33.3096L19.7683 33.3096L19.7683 5.86963L20.0839 5.86963L20.2573 6.13338L10.2173 12.7334L10.0439 12.4696L10.3596 12.4696L10.3596 39.9096L10.0439 39.9096L9.87056 39.6459ZM9.7283 40.4949L9.7283 12.2994L20.3996 5.2844L20.3996 33.4799L10.2173 40.1734L9.7283 40.4949Z"></path><path id="矩形" fill-rule="evenodd" fill="url(#linear_26)" opacity="1" d="M0 5.86963L0 33.3096L10.04 39.9096L10.04 12.4696L0 5.86963Z"></path></g><g opacity="1"  transform="translate(40.1787109375 0)"><path id="矩形" fill-rule="evenodd" fill="url(#linear_27)" opacity="1" d="M0 6.24L10.04 12.47L20.09 6.24L10.04 0L0 6.24Z"></path><path id="矩形" fill-rule="evenodd" fill="url(#linear_28)" opacity="1" d="M10.0459 59.8596L20.0859 53.2596L20.0859 5.86963L10.0459 12.4696L10.0459 59.8596Z"></path><path id="矩形" style="fill:url(#linear_29); opacity:100" d="M9.87251 59.5959L19.9125 52.9959L20.0859 53.2596L19.7703 53.2596L19.7703 5.86963L20.0859 5.86963L20.2593 6.13338L10.2193 12.7334L10.0459 12.4696L10.3615 12.4696L10.3615 59.8596L10.0459 59.8596L9.87251 59.5959ZM9.73026 60.4449L9.73026 12.2994L20.4015 5.2844L20.4015 53.4299L10.2193 60.1234L9.73026 60.4449Z"></path><path id="矩形" fill-rule="evenodd" fill="url(#linear_30)" opacity="1" d="M0 5.86963L0 53.2596L10.04 59.8596L10.04 12.4696L0 5.86963Z"></path></g></g></g></g><path id="路径备份 3" style="fill:url(#linear_31); opacity:100" d="M48.3629 48.0322M48.3629 48.0322Q31.93 50.5047 22.1647 55.174Q12.6776 59.7102 12.6776 64.7137Q12.6776 72.0786 31.2264 77.6813Q50.4941 83.5011 77.795 83.5011Q105.103 83.5011 124.373 77.6813Q142.922 72.0789 142.922 64.7137Q142.922 59.2873 131.925 54.4897Q120.607 49.5521 102.105 47.3373Q102.043 47.3299 101.983 47.3166Q101.922 47.3032 101.863 47.2839Q101.804 47.2647 101.748 47.2398Q101.691 47.2148 101.637 47.1844Q101.583 47.1541 101.532 47.1185Q101.481 47.083 101.434 47.0426Q101.387 47.0023 101.344 46.9575Q101.301 46.9128 101.262 46.864Q101.224 46.8152 101.191 46.763Q101.157 46.7107 101.129 46.6554Q101.101 46.6001 101.079 46.5423Q101.056 46.4845 101.039 46.4248Q101.023 46.3651 101.012 46.304Q101.001 46.2429 100.996 46.1811Q100.991 46.1192 100.993 46.0572Q100.994 45.9952 101.001 45.9336Q101.009 45.872 101.022 45.8115Q101.036 45.7509 101.055 45.6919Q101.074 45.633 101.099 45.5762Q101.124 45.5194 101.154 45.4653Q101.185 45.4112 101.22 45.3604Q101.256 45.3095 101.296 45.2624Q101.336 45.2153 101.381 45.1724Q101.426 45.1295 101.475 45.0911Q101.523 45.0528 101.576 45.0194Q101.628 44.986 101.683 44.958Q101.739 44.9299 101.796 44.9073Q101.854 44.8848 101.914 44.8681Q101.974 44.8513 102.035 44.8405Q102.096 44.8297 102.158 44.8249Q102.219 44.8201 102.281 44.8214Q102.343 44.8227 102.405 44.8301Q121.276 47.0891 132.935 52.1752Q145.448 57.634 145.448 64.7137Q145.448 73.954 125.103 80.0986Q105.476 86.0262 77.795 86.0262Q50.1211 86.0262 30.4962 80.0986Q10.1525 73.9538 10.1525 64.7137Q10.1525 58.1187 21.0754 52.8959Q31.1812 48.0638 47.9872 45.5352Q48.0485 45.5259 48.1105 45.5228Q48.1724 45.5196 48.2344 45.5225Q48.2963 45.5254 48.3577 45.5344Q48.4191 45.5434 48.4793 45.5583Q48.5395 45.5733 48.5979 45.594Q48.6563 45.6148 48.7125 45.6412Q48.7686 45.6676 48.8219 45.6994Q48.8751 45.7312 48.925 45.768Q48.9749 45.8049 49.021 45.8464Q49.067 45.888 49.1088 45.9338Q49.1505 45.9797 49.1876 46.0295Q49.2246 46.0792 49.2566 46.1323Q49.2886 46.1855 49.3153 46.2415Q49.3419 46.2975 49.3629 46.3559Q49.3839 46.4142 49.3991 46.4744Q49.4143 46.5345 49.4235 46.5958Q49.4328 46.6572 49.436 46.7191Q49.4391 46.7811 49.4362 46.843Q49.4333 46.905 49.4243 46.9663Q49.4153 47.0277 49.4004 47.0879Q49.3855 47.1481 49.3647 47.2066Q49.3439 47.265 49.3175 47.3211Q49.2911 47.3773 49.2593 47.4305Q49.2275 47.4838 49.1907 47.5337Q49.1539 47.5836 49.1123 47.6296Q49.0707 47.6757 49.0249 47.7174Q48.979 47.7592 48.9292 47.7962Q48.8795 47.8333 48.8264 47.8653Q48.7732 47.8973 48.7172 47.9239Q48.6612 47.9505 48.6028 47.9715Q48.5445 47.9926 48.4844 48.0078Q48.4242 48.023 48.3629 48.0322Z"></path></g></g><defs><linearGradient id="linear_0" x1="50%" y1="50%" x2="50.00000000000002%" y2="73.85163281832696%" gradientUnits="objectBoundingBox"><stop offset="0" stop-color="#9FB4FF" stop-opacity="0.28" /><stop offset="1" stop-color="#7391FF" stop-opacity="1" /></linearGradient><linearGradient id="linear_1" x1="50%" y1="0%" x2="51%" y2="100%" gradientUnits="objectBoundingBox"><stop offset="0" stop-color="#3A65F2" stop-opacity="1" /><stop offset="1" stop-color="#3D7FFF" stop-opacity="1" /></linearGradient><linearGradient id="linear_2" x1="50%" y1="93.258283530281%" x2="51%" y2="25.464745588847215%" gradientUnits="objectBoundingBox"><stop offset="0" stop-color="#EFF5FF" stop-opacity="1" /><stop offset="1" stop-color="#A2BFF4" stop-opacity="1" /></linearGradient><linearGradient id="linear_3" x1="50%" y1="113.36121237589403%" x2="53.78269086632893%" y2="-55.19144552911257%" gradientUnits="objectBoundingBox"><stop offset="0" stop-color="#A2BFF4" stop-opacity="1" /><stop offset="1" stop-color="#EFF5FF" stop-opacity="1" /></linearGradient><filter id="filter_12" x="-7.5753984158683" y="-7.5753984158683" width="83.00452607978347" height="54.92165559638504" filterUnits="userSpaceOnUse" color-interpolation-filters="sRGB"><feFlood flood-opacity="0" result="BackgroundImageFix"/>
          <feBlend mode="normal" in="SourceGraphic" in2="BackgroundImageFix" result="shape"/>
          <feGaussianBlur stdDeviation="3.78769920793415" result="effect1_foregroundBlur" /></filter><filter id="filter_14" x="-13.423374203761043" y="-13.423374203761043" width="119.43220144096935" height="119.01412206474865" filterUnits="userSpaceOnUse" color-interpolation-filters="sRGB"><feFlood flood-opacity="0" result="BackgroundImageFix"/>
          <feBlend mode="normal" in="SourceGraphic" in2="BackgroundImageFix" result="shape"/>
          <feGaussianBlur stdDeviation="6.711687101880521" result="effect1_foregroundBlur" /></filter><linearGradient id="linear_4" x1="96.17679349368409%" y1="90.61677191559987%" x2="-0.002746047917414492%" y2="13.705267796560605%" gradientUnits="objectBoundingBox"><stop offset="0" stop-color="#D9E7FC" stop-opacity="1" /><stop offset="1" stop-color="#3963F1" stop-opacity="1" /></linearGradient><linearGradient id="linear_5" x1="0.003329328317406622%" y1="100.00000000000036%" x2="88.03902525637368%" y2="28.521973664987144%" gradientUnits="objectBoundingBox"><stop offset="0" stop-color="#D9E7FC" stop-opacity="1" /><stop offset="1" stop-color="#3963F1" stop-opacity="1" /></linearGradient><linearGradient id="linear_6" x1="50%" y1="93.258283530281%" x2="51%" y2="25.464745588847215%" gradientUnits="objectBoundingBox"><stop offset="0" stop-color="#EFF5FF" stop-opacity="1" /><stop offset="1" stop-color="#A2BFF4" stop-opacity="1" /></linearGradient><filter id="filter_20" x="-18.93849603967075" y="-18.93849603967075" width="125.82294163378486" height="100.87706837328682" filterUnits="userSpaceOnUse" color-interpolation-filters="sRGB"><feFlood flood-opacity="0" result="BackgroundImageFix"/>
          <feBlend mode="normal" in="SourceGraphic" in2="BackgroundImageFix" result="shape"/>
          <feGaussianBlur stdDeviation="9.469248019835375" result="effect1_foregroundBlur" /></filter><filter id="filter_22" x="-44.18982409256507" y="-44.18982409256507" width="173.98948476349926" height="149.5255679849348" filterUnits="userSpaceOnUse" color-interpolation-filters="sRGB"><feFlood flood-opacity="0" result="BackgroundImageFix"/>
          <feBlend mode="normal" in="SourceGraphic" in2="BackgroundImageFix" result="shape"/>
          <feGaussianBlur stdDeviation="22.094912046282534" result="effect1_foregroundBlur" /></filter><linearGradient id="linear_7" x1="50%" y1="0%" x2="51%" y2="100%" gradientUnits="objectBoundingBox"><stop offset="0" stop-color="#6F91FF" stop-opacity="1" /><stop offset="1" stop-color="#CAD7FF" stop-opacity="1" /></linearGradient><linearGradient id="linear_8" x1="50%" y1="0%" x2="51%" y2="100%" gradientUnits="objectBoundingBox"><stop offset="0" stop-color="#7193FF" stop-opacity="1" /><stop offset="0.5772157917004638" stop-color="#DBE7FC" stop-opacity="1" /><stop offset="1" stop-color="#7999FF" stop-opacity="1" /></linearGradient><linearGradient id="linear_9" x1="50%" y1="28.700561290899884%" x2="51%" y2="100%" gradientUnits="objectBoundingBox"><stop offset="0" stop-color="#FFFFFF" stop-opacity="0.34" /><stop offset="1" stop-color="#FFFFFF" stop-opacity="0" /></linearGradient><linearGradient id="linear_10" x1="50%" y1="12.722079824170507%" x2="51%" y2="100%" gradientUnits="objectBoundingBox"><stop offset="0" stop-color="#6184FD" stop-opacity="1" /><stop offset="1" stop-color="#2451F2" stop-opacity="1" /></linearGradient><linearGradient id="linear_11" x1="50%" y1="0%" x2="51%" y2="100%" gradientUnits="objectBoundingBox"><stop offset="0" stop-color="#6F91FF" stop-opacity="1" /><stop offset="1" stop-color="#CAD7FF" stop-opacity="1" /></linearGradient><linearGradient id="linear_12" x1="50%" y1="0%" x2="51%" y2="100%" gradientUnits="objectBoundingBox"><stop offset="0" stop-color="#7193FF" stop-opacity="1" /><stop offset="0.5772157917004638" stop-color="#DBE7FC" stop-opacity="1" /><stop offset="1" stop-color="#7999FF" stop-opacity="1" /></linearGradient><linearGradient id="linear_13" x1="50%" y1="28.700561290899884%" x2="51%" y2="100%" gradientUnits="objectBoundingBox"><stop offset="0" stop-color="#FFFFFF" stop-opacity="0.34" /><stop offset="1" stop-color="#FFFFFF" stop-opacity="0" /></linearGradient><linearGradient id="linear_14" x1="50%" y1="12.722079824170507%" x2="51%" y2="100%" gradientUnits="objectBoundingBox"><stop offset="0" stop-color="#6184FD" stop-opacity="1" /><stop offset="1" stop-color="#2451F2" stop-opacity="1" /></linearGradient><linearGradient id="linear_15" x1="50%" y1="0%" x2="51%" y2="100%" gradientUnits="objectBoundingBox"><stop offset="0" stop-color="#6F91FF" stop-opacity="1" /><stop offset="1" stop-color="#CAD7FF" stop-opacity="1" /></linearGradient><linearGradient id="linear_16" x1="50%" y1="0%" x2="51%" y2="100%" gradientUnits="objectBoundingBox"><stop offset="0" stop-color="#7193FF" stop-opacity="1" /><stop offset="0.5772157917004638" stop-color="#DBE7FC" stop-opacity="1" /><stop offset="1" stop-color="#7999FF" stop-opacity="1" /></linearGradient><linearGradient id="linear_17" x1="50%" y1="28.700561290899884%" x2="51%" y2="100%" gradientUnits="objectBoundingBox"><stop offset="0" stop-color="#FFFFFF" stop-opacity="0.34" /><stop offset="1" stop-color="#FFFFFF" stop-opacity="0" /></linearGradient><linearGradient id="linear_18" x1="50%" y1="12.722079824170507%" x2="51%" y2="100%" gradientUnits="objectBoundingBox"><stop offset="0" stop-color="#6184FD" stop-opacity="1" /><stop offset="1" stop-color="#2451F2" stop-opacity="1" /></linearGradient><linearGradient id="linear_19" x1="50%" y1="0%" x2="51%" y2="100%" gradientUnits="objectBoundingBox"><stop offset="0" stop-color="#6F91FF" stop-opacity="1" /><stop offset="1" stop-color="#CAD7FF" stop-opacity="1" /></linearGradient><linearGradient id="linear_20" x1="50%" y1="0%" x2="51%" y2="100%" gradientUnits="objectBoundingBox"><stop offset="0" stop-color="#7193FF" stop-opacity="1" /><stop offset="0.5772157917004638" stop-color="#DBE7FC" stop-opacity="1" /><stop offset="1" stop-color="#7999FF" stop-opacity="1" /></linearGradient><linearGradient id="linear_21" x1="50%" y1="28.700561290899884%" x2="51%" y2="100%" gradientUnits="objectBoundingBox"><stop offset="0" stop-color="#FFFFFF" stop-opacity="0.34" /><stop offset="1" stop-color="#FFFFFF" stop-opacity="0" /></linearGradient><linearGradient id="linear_22" x1="50%" y1="12.722079824170507%" x2="51%" y2="100%" gradientUnits="objectBoundingBox"><stop offset="0" stop-color="#6184FD" stop-opacity="1" /><stop offset="1" stop-color="#2451F2" stop-opacity="1" /></linearGradient><linearGradient id="linear_23" x1="50%" y1="0%" x2="51%" y2="100%" gradientUnits="objectBoundingBox"><stop offset="0" stop-color="#6F91FF" stop-opacity="1" /><stop offset="1" stop-color="#CAD7FF" stop-opacity="1" /></linearGradient><linearGradient id="linear_24" x1="50%" y1="0%" x2="51%" y2="100%" gradientUnits="objectBoundingBox"><stop offset="0" stop-color="#7193FF" stop-opacity="1" /><stop offset="0.5772157917004638" stop-color="#DBE7FC" stop-opacity="1" /><stop offset="1" stop-color="#7999FF" stop-opacity="1" /></linearGradient><linearGradient id="linear_25" x1="50%" y1="28.700561290899884%" x2="51%" y2="100%" gradientUnits="objectBoundingBox"><stop offset="0" stop-color="#FFFFFF" stop-opacity="0.34" /><stop offset="1" stop-color="#FFFFFF" stop-opacity="0" /></linearGradient><linearGradient id="linear_26" x1="50%" y1="12.722079824170507%" x2="51%" y2="100%" gradientUnits="objectBoundingBox"><stop offset="0" stop-color="#6184FD" stop-opacity="1" /><stop offset="1" stop-color="#2451F2" stop-opacity="1" /></linearGradient><linearGradient id="linear_27" x1="50%" y1="0%" x2="51%" y2="100%" gradientUnits="objectBoundingBox"><stop offset="0" stop-color="#6F91FF" stop-opacity="1" /><stop offset="1" stop-color="#CAD7FF" stop-opacity="1" /></linearGradient><linearGradient id="linear_28" x1="50%" y1="0%" x2="51%" y2="100%" gradientUnits="objectBoundingBox"><stop offset="0" stop-color="#7193FF" stop-opacity="1" /><stop offset="0.5772157917004638" stop-color="#DBE7FC" stop-opacity="1" /><stop offset="1" stop-color="#7999FF" stop-opacity="1" /></linearGradient><linearGradient id="linear_29" x1="50%" y1="28.700561290899884%" x2="51%" y2="100%" gradientUnits="objectBoundingBox"><stop offset="0" stop-color="#FFFFFF" stop-opacity="0.34" /><stop offset="1" stop-color="#FFFFFF" stop-opacity="0" /></linearGradient><linearGradient id="linear_30" x1="50%" y1="12.722079824170507%" x2="51%" y2="100%" gradientUnits="objectBoundingBox"><stop offset="0" stop-color="#6184FD" stop-opacity="1" /><stop offset="1" stop-color="#2451F2" stop-opacity="1" /></linearGradient><linearGradient id="linear_31" x1="50%" y1="0%" x2="51%" y2="100%" gradientUnits="objectBoundingBox"><stop offset="0" stop-color="#9CBCFA" stop-opacity="0" /><stop offset="1" stop-color="#92ABFF" stop-opacity="1" /></linearGradient></defs></svg>