<svg xmlns="http://www.w3.org/2000/svg" xmlns:xlink="http://www.w3.org/1999/xlink" width="180" height="180" viewBox="0 0 180 180" fill="none"><g opacity="1"  transform="translate(0 0)"><g opacity="1"  transform="translate(12 0)"><g opacity="1"  transform="translate(0 0)"><path id="蒙版" style="fill:url(#linear_0); opacity:100" d="M77.984 178.418L149.954 136.548L150.292 137.128L149.945 137.704L80.5455 95.9439L80.8918 95.3684L81.2201 95.9544L6.67005 137.714L6.3418 137.128L6.67952 136.548L78.6595 178.418L78.3218 178.998L77.984 178.418ZM78.3218 179.775L4.98704 137.117L80.9039 94.5918L151.611 137.138L78.6596 179.579L78.3218 179.775Z"></path><g opacity="1"  transform="translate(0 0)"><g opacity="1"  transform="translate(0 0)"><path id="多边形" fill-rule="evenodd" fill="url(#linear_1)" opacity="0.2" d="M78 0L10.45 38.84L10.45 116.53L78 155.37L145.55 116.53L145.55 38.84L78 0Z"></path><g opacity="1"  transform="translate(10.7802734375 77.68426513671875)"><g opacity="1"  transform="translate(0 -0.00006103515625)"><mask id="mask-0" fill="white"><path id="蒙版" fill-rule="evenodd" fill="url(#linear_2)" d="M67.56 80.21L135.11 39.25L69.97 0L0 39.25L67.56 80.21Z"></path></mask><path id="蒙版" fill-rule="evenodd" fill="url(#linear_2)" opacity="1" d="M67.56 80.21L135.11 39.25L69.97 0L0 39.25L67.56 80.21Z"></path><g mask="url(#mask-0)"><path id="矩形" fill-rule="evenodd" fill="url(#linear_3)" d="M67.5404 60.0006L101.46 39.8406L68.7504 20.2106L33.6104 39.8406L67.5404 60.0006Z"></path></g><g mask="url(#mask-0)"><path id="椭圆形" fill-rule="evenodd" style="fill:#4870F2" d="M67.8515 -51.7894C42.2915 -51.7894 21.5615 -31.1494 21.5615 -5.67943C21.5615 19.7806 42.2915 40.4206 67.8515 40.4206C93.4215 40.4206 114.152 19.7806 114.152 -5.67943C114.152 -31.1494 93.4215 -51.7894 67.8515 -51.7894Z"></path></g></g><path id="矩形" fill-rule="evenodd" fill="url(#linear_4)" opacity="1" d="M0 50.9845L67.85 90.9545L67.56 79.5445L0 39.2445L0 50.9845Z"></path><path id="矩形" fill-rule="evenodd" fill="url(#linear_5)" opacity="1" d="M67.8557 90.9545L135.116 51.4945L135.116 39.2445L67.5557 79.5445L67.8557 90.9545Z"></path></g></g></g></g><g opacity="1"  transform="translate(29.1455078125 14.40460205078125)"><g opacity="1"  transform="translate(0 0)"><g opacity="1"  transform="translate(0 0)"><g id="椭圆形" filter="url(#filter_20)"><path id="椭圆形" fill-rule="evenodd" fill="url(#linear_6)" opacity="0.78" d="M49.8742 87.4935C34.2242 87.4935 21.5342 90.9135 21.5342 95.1335C21.5342 99.3635 34.2242 102.784 49.8742 102.784C65.5342 102.784 78.2242 99.3635 78.2242 95.1335C78.2242 90.9135 65.5342 87.4935 49.8742 87.4935Z"></path></g><path id="椭圆形" fill-rule="evenodd" fill="url(#linear_7)" opacity="0.78" d="M56.2913 87.4935C44.1813 87.4935 34.3613 90.9135 34.3613 95.1335C34.3613 99.3635 44.1813 102.784 56.2913 102.784C68.4013 102.784 78.2213 99.3635 78.2213 95.1335C78.2213 90.9135 68.4013 87.4935 56.2913 87.4935Z"></path><path id="矩形" fill-rule="evenodd" fill="url(#linear_8)" opacity="1" d="M52.082 98.9174C44.052 98.3875 54.662 100.457 62.512 98.2475C67.532 96.0475 70.4819 90.7575 69.712 85.3275L69.712 61.3275L40.502 61.3275L40.502 81.1375C39.302 89.1375 44.282 96.7775 52.082 98.9174Z"></path><path id="矩形" fill-rule="evenodd" fill="url(#linear_9)" opacity="1" d="M53.722 92.3137L53.732 92.3137C54.642 92.3137 55.372 91.5837 55.372 90.6737L55.372 81.9437C55.372 81.0337 54.642 80.3037 53.732 80.3037L53.722 80.3037C52.812 80.3037 52.082 81.0337 52.082 81.9437L52.082 90.6737C52.082 91.5837 52.812 92.3137 53.722 92.3137Z"></path><path id="矩形" style="fill:url(#linear_10); opacity:100" d="M53.722 91.9696L53.732 91.9696C54.4477 91.9696 55.0279 91.3894 55.0279 90.6737L55.0279 81.9437C55.0279 81.228 54.4477 80.6478 53.732 80.6478L53.722 80.6478C53.0063 80.6478 52.4261 81.228 52.4261 81.9437L52.4261 90.6737C52.4261 91.3894 53.0063 91.9696 53.722 91.9696ZM53.722 92.6578C52.6262 92.6578 51.7379 91.7695 51.7379 90.6737L51.7379 81.9437C51.7379 80.8479 52.6262 79.9596 53.722 79.9596L53.732 79.9596C54.8278 79.9596 55.7161 80.8479 55.7161 81.9437L55.7161 90.6737C55.7161 91.7695 54.8278 92.6578 53.732 92.6578L53.722 92.6578Z"></path><path id="矩形" fill-rule="evenodd" fill="url(#linear_11)" opacity="1" d="M59.2045 92.3121L59.2145 92.3121C60.1245 92.3121 60.8545 91.5821 60.8545 90.6721L60.8545 86.3121C60.8545 85.4021 60.1245 84.6721 59.2145 84.6721L59.2045 84.6721C58.2945 84.6721 57.5645 85.4021 57.5645 86.3121L57.5645 90.6721C57.5645 91.5821 58.2945 92.3121 59.2045 92.3121Z"></path><path id="矩形" style="fill:url(#linear_12); opacity:100" d="M59.2045 91.968L59.2145 91.968C59.9302 91.968 60.5104 91.3878 60.5104 90.6721L60.5104 86.3121C60.5104 85.5964 59.9302 85.0162 59.2145 85.0162L59.2045 85.0162C58.4887 85.0162 57.9086 85.5964 57.9086 86.3121L57.9086 90.6721C57.9086 91.3878 58.4887 91.968 59.2045 91.968ZM59.2045 92.6562C58.1087 92.6562 57.2204 91.7678 57.2204 90.6721L57.2204 86.3121C57.2204 85.2163 58.1087 84.328 59.2045 84.328L59.2145 84.328C60.3102 84.328 61.1986 85.2163 61.1986 86.3121L61.1986 90.6721C61.1986 91.7678 60.3102 92.6562 59.2145 92.6562L59.2045 92.6562Z"></path><path id="矩形" fill-rule="evenodd" fill="url(#linear_13)" opacity="1" d="M64.6859 92.3161L64.6959 92.3161C65.6059 92.3161 66.3359 91.5861 66.3359 90.6761L66.3359 88.4961C66.3359 87.5861 65.6059 86.8561 64.6959 86.8561L64.6859 86.8561C63.7759 86.8561 63.0459 87.5861 63.0459 88.4961L63.0459 90.6761C63.0459 91.5861 63.7759 92.3161 64.6859 92.3161Z"></path><path id="矩形" style="fill:url(#linear_14); opacity:100" d="M64.6859 91.972L64.6959 91.972C65.4116 91.972 65.9918 91.3918 65.9918 90.6761L65.9918 88.4961C65.9918 87.7804 65.4116 87.2002 64.6959 87.2002L64.6859 87.2002C63.9702 87.2002 63.39 87.7804 63.39 88.4961L63.39 90.6761C63.39 91.3918 63.9702 91.972 64.6859 91.972ZM64.6859 92.6602C63.5901 92.6602 62.7018 91.7719 62.7018 90.6761L62.7018 88.4961C62.7018 87.4004 63.5901 86.512 64.6859 86.512L64.6959 86.512C65.7917 86.512 66.68 87.4004 66.68 88.4961L66.68 90.6761C66.68 91.7719 65.7917 92.6602 64.6959 92.6602L64.6859 92.6602Z"></path><g opacity="1"  transform="translate(10.5009765625 7.0731201171875)"><mask id="mask-1" fill="white"><path id="蒙版" fill-rule="evenodd" fill="url(#linear_15)" opacity="1" d="M0 33.81C0 15.14 15.2 0 33.95 0C52.7 0 67.9 15.14 67.9 33.81C67.9 49.7114 56.8738 63.0521 42.0192 66.659C27.4681 83.501 16.1145 84.8146 8.0218 81.0587C0.495948 77.5748 0.304205 45.0706 0.340867 38.6188C0.116219 37.0481 0 35.4425 0 33.81Z"></path></mask><path id="蒙版" fill-rule="evenodd" fill="url(#linear_15)" opacity="1" d="M0 33.81C0 15.14 15.2 0 33.95 0C52.7 0 67.9 15.14 67.9 33.81C67.9 49.7114 56.8738 63.0521 42.0192 66.659C27.4681 83.501 16.1145 84.8146 8.0218 81.0587C0.495948 77.5748 0.304205 45.0706 0.340867 38.6188C0.116219 37.0481 0 35.4425 0 33.81Z"></path><g mask="url(#mask-1)"><path id="椭圆形" fill-rule="evenodd" fill="url(#linear_16)" d="M16.1882 66.835C8.9882 66.835 3.1582 71.765 3.1582 77.845C3.1582 83.925 8.9882 88.855 16.1882 88.855C23.3782 88.855 29.2082 83.925 29.2082 77.845C29.2082 71.765 23.3782 66.835 16.1882 66.835Z"></path></g></g><path id="椭圆形" fill-rule="evenodd" fill="url(#linear_17)" opacity="1" d="M59.4371 11.0643C47.3984 4.9552 29.2079 16.4698 18.8144 36.7855C8.42553 57.0923 9.76428 78.5173 21.8029 84.6265C33.8504 90.7401 52.041 79.2255 62.4299 58.9187C72.8234 38.603 71.4846 17.178 59.4371 11.0643Z"></path><path id="椭圆形" style="fill:url(#linear_18); opacity:100" d="M59.222 11.4847M59.222 11.4847Q50.4327 7.02449 38.7617 14.4136Q26.9713 21.8783 19.2355 36.9992Q11.5028 52.1141 12.3703 65.9999Q13.2291 79.746 22.018 84.2061Q30.8129 88.6691 42.4856 81.2822Q54.2755 73.821 62.0088 58.705Q69.7452 43.5829 68.8769 29.696Q68.0173 15.948 59.222 11.4847ZM59.6521 10.6439Q68.9277 15.351 69.8208 29.6355Q70.7052 43.7801 62.851 59.1324Q54.9998 74.4788 42.9912 82.0783Q30.8629 89.7536 21.5878 85.0469Q12.3187 80.3432 11.4264 66.0603Q10.5428 51.917 18.3933 36.5718Q26.2469 21.2208 38.2559 13.6176Q50.3826 5.93997 59.6521 10.6439Z"></path><path id="矩形" fill-rule="evenodd" style="fill:#FFFFFF" opacity="1" d="M13.9658 48.1462C13.9658 51.1462 15.9358 54.1762 18.3658 54.9162L33.2558 59.4462C35.6858 60.1862 37.6458 58.3562 37.6458 55.3562C37.6458 52.3562 35.6858 49.3162 33.2558 48.5762L18.3658 44.0462C15.9358 43.3062 13.9658 45.1462 13.9658 48.1462Z"></path><path id="矩形" fill-rule="evenodd" fill="url(#linear_19)" opacity="1" d="M12.0801 49.4688C12.0801 52.2888 14.0501 55.1388 16.4801 55.8388L31.3701 60.0988C33.8001 60.7888 35.7601 59.0688 35.7601 56.2488C35.7601 53.4188 33.8001 50.5688 31.3701 49.8788L16.4801 45.6088C14.0501 44.9188 12.0801 46.6388 12.0801 49.4688Z"></path><path id="椭圆形" fill-rule="evenodd" style="fill:#0042DC" opacity="1" d="M64.1847 47.1741C57.2147 47.1741 51.5547 52.8041 51.5547 59.7541C51.5547 66.7041 57.2147 72.3341 64.1847 72.3341C71.1647 72.3341 76.8147 66.7041 76.8147 59.7541C76.8147 52.8041 71.1647 47.1741 64.1847 47.1741Z"></path><path id="椭圆形" fill-rule="evenodd" fill="url(#linear_20)" opacity="1" d="M66.5528 47.1741C59.5829 47.1741 53.9229 52.8041 53.9229 59.7541C53.9229 66.7041 59.5829 72.3341 66.5528 72.3341C73.5329 72.3341 79.1829 66.7041 79.1829 59.7541C79.1829 52.8041 73.5329 47.1741 66.5528 47.1741Z"></path><path id="椭圆形" style="fill:url(#linear_21); opacity:100" d="M66.5528 47.5182C59.7952 47.5182 54.2669 52.9964 54.2669 59.7541C54.2669 66.5394 59.7675 71.99 66.5528 71.99C73.3106 71.99 78.8388 66.5118 78.8388 59.7541C78.8388 52.9688 73.3382 47.5182 66.5528 47.5182ZM66.5528 46.83C73.7182 46.83 79.5269 52.5887 79.5269 59.7541C79.5269 66.8918 73.6906 72.6782 66.5528 72.6782C59.3875 72.6782 53.5788 66.9195 53.5788 59.7541C53.5788 52.6163 59.4151 46.83 66.5528 46.83Z"></path></g></g></g><path id="路径" style="fill:url(#linear_22); opacity:100" d="M48.3634 48.0537M48.3634 48.0537Q31.928 50.5341 22.1649 55.2042Q12.6776 59.7424 12.6776 64.7452Q12.6776 72.1159 31.2262 77.7166Q50.4883 83.5327 77.795 83.5327Q105.109 83.5327 124.373 77.7165Q142.922 72.1161 142.922 64.7452Q142.922 59.312 131.925 54.5124Q120.609 49.5739 102.105 47.3588Q102.043 47.3515 101.983 47.3381Q101.922 47.3247 101.863 47.3055Q101.804 47.2862 101.748 47.2613Q101.691 47.2364 101.637 47.206Q101.583 47.1756 101.532 47.1401Q101.481 47.1045 101.434 47.0642Q101.387 47.0238 101.344 46.9791Q101.301 46.9343 101.262 46.8856Q101.224 46.8368 101.191 46.7845Q101.157 46.7322 101.129 46.6769Q101.101 46.6216 101.079 46.5638Q101.056 46.506 101.039 46.4463Q101.023 46.3866 101.012 46.3255Q101.001 46.2645 100.996 46.2026Q100.991 46.1408 100.993 46.0788Q100.994 46.0167 101.001 45.9552Q101.009 45.8936 101.022 45.833Q101.036 45.7724 101.055 45.7135Q101.074 45.6545 101.099 45.5977Q101.124 45.5409 101.154 45.4868Q101.185 45.4328 101.22 45.3819Q101.256 45.3311 101.296 45.284Q101.336 45.2369 101.381 45.1939Q101.426 45.151 101.475 45.1127Q101.523 45.0743 101.576 45.041Q101.628 45.0076 101.683 44.9795Q101.739 44.9514 101.796 44.9289Q101.854 44.9064 101.914 44.8896Q101.974 44.8728 102.035 44.862Q102.096 44.8512 102.158 44.8464Q102.219 44.8416 102.281 44.8429Q102.343 44.8442 102.405 44.8516Q121.279 47.1109 132.935 52.1981Q145.448 57.6589 145.448 64.7452Q145.448 73.9915 125.102 80.1339Q105.481 86.0578 77.795 86.0578Q50.1154 86.0578 30.4963 80.1339Q10.1525 73.9911 10.1525 64.7452Q10.1525 58.1511 21.0752 52.9263Q31.1784 48.0935 47.9866 45.5568Q48.048 45.5475 48.1099 45.5443Q48.1719 45.5411 48.2338 45.544Q48.2958 45.5469 48.3571 45.5559Q48.4185 45.5648 48.4787 45.5797Q48.5389 45.5946 48.5974 45.6154Q48.6558 45.6361 48.712 45.6625Q48.7681 45.6889 48.8214 45.7206Q48.8747 45.7524 48.9246 45.7892Q48.9745 45.826 49.0206 45.8676Q49.0666 45.9091 49.1084 45.955Q49.1502 46.0008 49.1872 46.0506Q49.2243 46.1003 49.2563 46.1534Q49.2884 46.2065 49.315 46.2625Q49.3417 46.3185 49.3627 46.3769Q49.3838 46.4352 49.399 46.4954Q49.4142 46.5555 49.4235 46.6168Q49.4327 46.6781 49.4359 46.7401Q49.4391 46.802 49.4362 46.864Q49.4333 46.9259 49.4244 46.9873Q49.4155 47.0487 49.4005 47.1089Q49.3856 47.1691 49.3649 47.2276Q49.3441 47.286 49.3177 47.3422Q49.2914 47.3983 49.2596 47.4516Q49.2279 47.5049 49.191 47.5548Q49.1542 47.6047 49.1127 47.6507Q49.0711 47.6968 49.0253 47.7386Q48.9794 47.7803 48.9297 47.8174Q48.88 47.8545 48.8269 47.8865Q48.7737 47.9185 48.7177 47.9452Q48.6617 47.9719 48.6034 47.9929Q48.545 48.014 48.4849 48.0292Q48.4248 48.0444 48.3634 48.0537Z"></path></g></g><defs><linearGradient id="linear_0" x1="50%" y1="50%" x2="50.00000000000002%" y2="73.85163281832696%" gradientUnits="objectBoundingBox"><stop offset="0" stop-color="#9FB4FF" stop-opacity="0.28" /><stop offset="1" stop-color="#7391FF" stop-opacity="1" /></linearGradient><linearGradient id="linear_1" x1="50%" y1="0%" x2="51%" y2="100%" gradientUnits="objectBoundingBox"><stop offset="0" stop-color="#3A65F2" stop-opacity="1" /><stop offset="1" stop-color="#3D7FFF" stop-opacity="1" /></linearGradient><linearGradient id="linear_2" x1="50%" y1="93.258283530281%" x2="51%" y2="25.464745588847215%" gradientUnits="objectBoundingBox"><stop offset="0" stop-color="#EFF5FF" stop-opacity="1" /><stop offset="1" stop-color="#A2BFF4" stop-opacity="1" /></linearGradient><linearGradient id="linear_3" x1="50%" y1="113.36121237589403%" x2="53.782688527061396%" y2="-55.19144552911257%" gradientUnits="objectBoundingBox"><stop offset="0" stop-color="#A2BFF4" stop-opacity="1" /><stop offset="1" stop-color="#EFF5FF" stop-opacity="1" /></linearGradient><filter id="filter_11" x="-7.5753984158683" y="-7.5753984158683" width="83.00448411811355" height="54.94027131904129" filterUnits="userSpaceOnUse" color-interpolation-filters="sRGB"><feFlood flood-opacity="0" result="BackgroundImageFix"/>
          <feBlend mode="normal" in="SourceGraphic" in2="BackgroundImageFix" result="shape"/>
          <feGaussianBlur stdDeviation="3.78769920793415" result="effect1_foregroundBlur" /></filter><filter id="filter_13" x="-13.423374203761043" y="-13.423374203761043" width="119.4321518499049" height="119.05727201286876" filterUnits="userSpaceOnUse" color-interpolation-filters="sRGB"><feFlood flood-opacity="0" result="BackgroundImageFix"/>
          <feBlend mode="normal" in="SourceGraphic" in2="BackgroundImageFix" result="shape"/>
          <feGaussianBlur stdDeviation="6.711687101880521" result="effect1_foregroundBlur" /></filter><linearGradient id="linear_4" x1="96.17676688434962%" y1="90.61677191559987%" x2="-0.0027172338813255784%" y2="13.705267796560605%" gradientUnits="objectBoundingBox"><stop offset="0" stop-color="#D9E7FC" stop-opacity="1" /><stop offset="1" stop-color="#3963F1" stop-opacity="1" /></linearGradient><linearGradient id="linear_5" x1="0.0033632064730597937%" y1="100.00000000000036%" x2="88.038999480817%" y2="28.521973664987144%" gradientUnits="objectBoundingBox"><stop offset="0" stop-color="#D9E7FC" stop-opacity="1" /><stop offset="1" stop-color="#3963F1" stop-opacity="1" /></linearGradient><linearGradient id="linear_6" x1="14.603514152958427%" y1="4.169921874999716%" x2="81.90541923822245%" y2="90.84228515624915%" gradientUnits="objectBoundingBox"><stop offset="0" stop-color="#7C9BFE" stop-opacity="1" /><stop offset="0.5850929054054054" stop-color="#344FFF" stop-opacity="1" /><stop offset="1" stop-color="#1D34D7" stop-opacity="1" /></linearGradient><filter id="filter_20" x="-6.881913305820256" y="-6.881913305820256" width="70.4514830142284" height="29.05288148224598" filterUnits="userSpaceOnUse" color-interpolation-filters="sRGB"><feFlood flood-opacity="0" result="BackgroundImageFix"/>
          <feBlend mode="normal" in="SourceGraphic" in2="BackgroundImageFix" result="shape"/>
          <feGaussianBlur stdDeviation="3.440956652910128" result="effect1_foregroundBlur" /></filter><linearGradient id="linear_7" x1="14.601557694181292%" y1="4.169921874999716%" x2="81.90718273637806%" y2="90.84228515624915%" gradientUnits="objectBoundingBox"><stop offset="0" stop-color="#7C9BFE" stop-opacity="1" /><stop offset="0.5850929054054054" stop-color="#344FFF" stop-opacity="1" /><stop offset="1" stop-color="#1D34D7" stop-opacity="1" /></linearGradient><linearGradient id="linear_8" x1="50%" y1="21.818053886737232%" x2="50.00000000000141%" y2="225.74537270220887%" gradientUnits="objectBoundingBox"><stop offset="0" stop-color="#2451F2" stop-opacity="1" /><stop offset="1" stop-color="#7596FF" stop-opacity="1" /></linearGradient><linearGradient id="linear_9" x1="50%" y1="0%" x2="51%" y2="100%" gradientUnits="objectBoundingBox"><stop offset="0" stop-color="#7193FF" stop-opacity="1" /><stop offset="0.5772157917004638" stop-color="#DBE7FC" stop-opacity="1" /><stop offset="1" stop-color="#7999FF" stop-opacity="1" /></linearGradient><linearGradient id="linear_10" x1="50%" y1="28.700561290899884%" x2="51%" y2="100%" gradientUnits="objectBoundingBox"><stop offset="0" stop-color="#FFFFFF" stop-opacity="0.34" /><stop offset="1" stop-color="#FFFFFF" stop-opacity="0" /></linearGradient><linearGradient id="linear_11" x1="50%" y1="0%" x2="51%" y2="100%" gradientUnits="objectBoundingBox"><stop offset="0" stop-color="#7193FF" stop-opacity="1" /><stop offset="0.5772157917004638" stop-color="#DBE7FC" stop-opacity="1" /><stop offset="1" stop-color="#7999FF" stop-opacity="1" /></linearGradient><linearGradient id="linear_12" x1="50%" y1="28.700561290899884%" x2="51%" y2="100%" gradientUnits="objectBoundingBox"><stop offset="0" stop-color="#FFFFFF" stop-opacity="0.34" /><stop offset="1" stop-color="#FFFFFF" stop-opacity="0" /></linearGradient><linearGradient id="linear_13" x1="50%" y1="0%" x2="51%" y2="100%" gradientUnits="objectBoundingBox"><stop offset="0" stop-color="#7193FF" stop-opacity="1" /><stop offset="0.5772157917004638" stop-color="#DBE7FC" stop-opacity="1" /><stop offset="1" stop-color="#7999FF" stop-opacity="1" /></linearGradient><linearGradient id="linear_14" x1="50%" y1="28.700561290899884%" x2="51%" y2="100%" gradientUnits="objectBoundingBox"><stop offset="0" stop-color="#FFFFFF" stop-opacity="0.34" /><stop offset="1" stop-color="#FFFFFF" stop-opacity="0" /></linearGradient><radialGradient id="linear_15" cx="20.388230463627185%" cy="8.320836180722315%" fx="20.388230463627185%" fy="8.320836180722315%" r="1.0476453563549002" gradientTransform="translate(0.20388230463627185 0.08320836180722316) scale(1.2193771494682613 1) rotate(58.702472970808515) scale(1 1) translate(-0.20388230463627185 -0.08320836180722316)" ><stop offset="0" stop-color="#C0CFFF" stop-opacity="1" /><stop offset="0.1651690917804539" stop-color="#9CB4FF" stop-opacity="1" /><stop offset="0.280765426757756" stop-color="#6F91FF" stop-opacity="1" /><stop offset="0.5457608710747243" stop-color="#2451F2" stop-opacity="1" /><stop offset="0.7239759290540541" stop-color="#3762F0" stop-opacity="1" /><stop offset="1" stop-color="#2451F2" stop-opacity="1" /></radialGradient><linearGradient id="linear_16" x1="0.2517025884371442%" y1="49.75000023841858%" x2="101.26410906563244%" y2="49.75000023841858%" gradientUnits="objectBoundingBox"><stop offset="0" stop-color="#3D7FFF" stop-opacity="1" /><stop offset="1" stop-color="#53FDF3" stop-opacity="1" /></linearGradient><linearGradient id="linear_17" x1="54.97030220416548" y1="13.899214128905246" x2="17.848144740145795" y2="87.05176172767935" gradientUnits="userSpaceOnUse"><stop offset="0" stop-color="#2E94FF" stop-opacity="0.31" /><stop offset="1" stop-color="#DAA4FF" stop-opacity="0" /></linearGradient><linearGradient id="linear_18" x1="50%" y1="0%" x2="51%" y2="97.84100506756756%" gradientUnits="objectBoundingBox"><stop offset="0" stop-color="#EBECFF" stop-opacity="0.35" /><stop offset="1" stop-color="#D3D4FF" stop-opacity="0" /></linearGradient><linearGradient id="linear_19" x1="50%" y1="0%" x2="33.09806478756425%" y2="79.96227738218025%" gradientUnits="objectBoundingBox"><stop offset="0" stop-color="#BACDFD" stop-opacity="1" /><stop offset="1" stop-color="#1C45FF" stop-opacity="1" /></linearGradient><linearGradient id="linear_20" x1="50%" y1="0%" x2="51%" y2="100%" gradientUnits="objectBoundingBox"><stop offset="0" stop-color="#7193FF" stop-opacity="1" /><stop offset="0.5772157917004638" stop-color="#DBE7FC" stop-opacity="1" /><stop offset="1" stop-color="#7999FF" stop-opacity="1" /></linearGradient><linearGradient id="linear_21" x1="50%" y1="28.700561290899884%" x2="51%" y2="100%" gradientUnits="objectBoundingBox"><stop offset="0" stop-color="#FFFFFF" stop-opacity="0.34" /><stop offset="1" stop-color="#FFFFFF" stop-opacity="0" /></linearGradient><linearGradient id="linear_22" x1="50%" y1="0%" x2="51%" y2="100%" gradientUnits="objectBoundingBox"><stop offset="0" stop-color="#9CBCFA" stop-opacity="0" /><stop offset="1" stop-color="#92ABFF" stop-opacity="1" /></linearGradient></defs></svg>