<svg xmlns="http://www.w3.org/2000/svg" xmlns:xlink="http://www.w3.org/1999/xlink" width="80" height="80" viewBox="0 0 80 80" fill="none"><g opacity="1"  transform="translate(0 0)"><mask id="bg-mask-0" fill="white"><use transform="translate(0 0)" xlink:href="#path_0"></use></mask><g mask="url(#bg-mask-0)" ><g opacity="1"  transform="translate(10.677734375 7.742431640625)"><g opacity="1"  transform="translate(0.001953125 10.054931640625)"><g opacity="1"  transform="translate(0 0)"><g filter="url(#filter_4)"><path id="矩形 1" fill-rule="evenodd" style="fill:#21CF4A" opacity="1" d="M6.58471 21.9852C4.18055 23.3994 3.56537 25.6692 3.56537 27.4087C3.56537 28.6108 4.23712 31.1776 5.87053 32.3019L12.4537 36.4385L23.5977 43.2125C25.0614 44.0823 26.8857 44.054 28.3282 43.1489L45.9422 32.0261C50.0081 29.2755 48.2615 25.2521 48.0989 24.4247C47.2503 22.9115 47.3352 23.8308 45.5179 22.9045L28.0524 14.0232C26.7514 13.3585 25.2099 13.3585 23.9159 14.0303L6.58471 21.9852Z"></path></g><path id="矩形 1" fill-rule="evenodd" style="fill:#50E273" opacity="1" d="M5.35508 29.564L23.8953 41.0191C25.1752 41.804 26.7803 41.8111 28.0673 41.0332L46.9964 29.5852C49.5349 28.0508 49.5774 24.388 47.0742 22.79L28.1592 10.7056C26.8298 9.85703 25.1398 9.8641 23.8176 10.7197L5.27729 22.8112C2.81657 24.4092 2.86607 28.0225 5.35508 29.564Z"></path><path id="矩形 1" style="fill:url(#linear_0); opacity:100" d="M5.40185 29.4883L23.9421 40.9434C25.1921 41.71 26.7661 41.7157 28.0212 40.9571L46.9504 29.5091C49.4351 28.0072 49.4735 24.4273 47.0263 22.865L28.1113 10.7805C26.8155 9.95344 25.1566 9.95926 23.8659 10.7944L5.3259 22.8857C2.91861 24.4491 2.96177 27.9771 5.40193 29.4884L5.40185 29.4883ZM5.30822 29.6397C2.75712 28.0597 2.71223 24.3709 5.22868 22.7366L23.7692 10.645C25.1184 9.77199 26.8525 9.76593 28.2071 10.6306L47.1221 22.715C49.6805 24.3483 49.6401 28.0912 47.0425 29.6614L28.1133 41.1094C26.8012 41.9025 25.1558 41.8965 23.8486 41.0948L5.3083 29.6397L5.30822 29.6397Z"></path></g></g><g opacity="1"  transform="translate(4.626953125 -0.000244140625)"><g id="矩形 1" filter="url(#filter_8)"><g filter="url(#filter_7)"><path id="矩形 1" fill-rule="evenodd" style="fill:#FFFFFF" opacity="0.2" d="M6.59164 21.9788C4.18041 23.4001 3.5723 25.6628 3.57937 27.4094C3.5723 28.6044 4.51275 31.2701 6.14616 32.3945L12.4606 36.4462L23.5975 43.2132C25.0612 44.0829 26.8926 44.0475 28.3351 43.1424L45.9421 32.0268C50.0079 29.2761 49.1947 25.2527 48.0987 24.4254C47.1866 23.7536 47.3351 23.8314 45.5249 22.9122L28.0594 14.0168C26.7583 13.3521 25.2097 13.3592 23.9157 14.0309L6.59164 21.9788Z"></path></g></g><g id="矩形 1" filter="url(#filter_10)"><path id="矩形 1" fill-rule="evenodd" style="fill:#FFFFFF" opacity="0.5" d="M5.35703 29.564L23.8973 41.0191C25.1772 41.804 26.7823 41.8111 28.0692 41.0332L46.9984 29.5852C49.5369 28.0508 49.5793 24.388 47.0762 22.79L28.1611 10.7056C26.8318 9.85703 25.1418 9.8641 23.8195 10.7197L5.27925 22.8112C2.81852 24.4092 2.86802 28.0225 5.35703 29.564Z"></path><path id="矩形 1" style="fill:url(#linear_1); opacity:100" d="M5.4038 29.4883L23.9441 40.9434C25.1941 41.71 26.768 41.7157 28.0232 40.9571L46.9523 29.5091C49.4371 28.0072 49.4754 24.4273 47.0283 22.865L28.1132 10.7805C26.8174 9.95344 25.1585 9.95926 23.8679 10.7944L5.32786 22.8857C2.92056 24.4491 2.96373 27.9771 5.40388 29.4884L5.4038 29.4883ZM5.31017 29.6397C2.75907 28.0597 2.71419 24.3709 5.23064 22.7366L23.7712 10.645C25.1204 9.77199 26.8544 9.76593 28.209 10.6306L47.1241 22.715C49.6824 24.3483 49.642 28.0912 47.0444 29.6614L28.1152 41.1094C26.8031 41.9025 25.1578 41.8965 23.8505 41.0948L5.31026 29.6397L5.31017 29.6397Z"></path></g></g></g><g opacity="1"  transform="translate(32.658203125 34.70458984375)"><mask id="bg-mask-1" fill="white"><use transform="translate(0 0) rotate(-48.10800295987081)" xlink:href="#path_1"></use></mask><g mask="url(#bg-mask-1)" ><g filter="url(#filter_12)"><path id="路径 1" fill-rule="evenodd" style="fill:#50E273" opacity="1" d="M1.36876 -1.32497C1.56841 -1.54754 1.79816 -1.68214 2.05803 -1.72877C2.3179 -1.7754 2.53686 -1.71885 2.71492 -1.55913L3.2014 -1.12275C3.37946 -0.963026 3.46098 -0.750052 3.44594 -0.48381C3.43091 -0.217568 3.32358 0.0268397 3.12393 0.249416L2.37904 0.703425C2.18652 0.918052 1.95874 1.04726 1.69569 1.09103C1.43264 1.13481 1.21208 1.07683 1.03402 0.917107L0.547538 0.480728C0.369477 0.321008 0.289561 0.10945 0.307776 -0.15394C0.325991 -0.41733 0.431362 -0.656332 0.623882 -0.870959L1.36876 -1.32497ZM9.59574 -7.81396C9.78826 -8.02859 10.0144 -8.15922 10.2743 -8.20584C10.5342 -8.25247 10.7531 -8.19592 10.9312 -8.0362L11.4177 -7.59982C11.5957 -7.4401 11.6773 -7.22711 11.6622 -6.96087C11.6472 -6.69463 11.5434 -6.4542 11.3509 -6.23957L6.16102 -2.57182C5.96137 -2.34924 5.73003 -2.21607 5.46698 -2.1723C5.20393 -2.12852 4.98337 -2.18649 4.80531 -2.34621L4.31883 -2.78259C4.14077 -2.94231 4.06085 -3.15387 4.07907 -3.41726C4.09728 -3.68064 4.20621 -3.92363 4.40586 -4.1462L9.59574 -7.81396ZM5.22563 0.713377C5.42528 0.490801 5.65662 0.35763 5.91967 0.313856C6.18272 0.270081 6.40328 0.328049 6.58134 0.487769L7.06782 0.924148C7.23952 1.07816 7.40687 1.37726 7.39184 1.6435C7.3768 1.90974 7.18048 2.06519 6.98083 2.28776L6.23599 2.74176C6.04347 2.95639 5.81568 3.08559 5.55263 3.12937C5.28958 3.17314 5.07222 3.11802 4.90052 2.964L4.41404 2.52764C4.23598 2.36792 4.16567 2.13546 4.18071 1.86922C4.19574 1.60298 4.28831 1.38202 4.48083 1.16739L5.22563 0.713377ZM13.6306 -5.68676C13.8232 -5.90138 14.051 -6.03059 14.314 -6.07436C14.577 -6.11814 14.7976 -6.06016 14.9757 -5.90044L15.4622 -5.46406C15.6339 -5.31004 15.7122 -5.09993 15.6971 -4.83368C15.6821 -4.56744 15.5783 -4.327 15.3858 -4.11237L10.1069 -0.444616C9.90729 -0.22204 9.67595 -0.0888638 9.4129 -0.0450892C9.14985 -0.00131464 8.93247 -0.0564351 8.76077 -0.210451L8.27428 -0.646828C8.09622 -0.806549 8.01471 -1.01953 8.02974 -1.28577C8.04478 -1.55201 8.15212 -1.79642 8.35177 -2.019L13.6306 -5.68676ZM9.00272 2.93789C9.20237 2.71531 9.43371 2.58213 9.69676 2.53835C9.95981 2.49458 10.1772 2.5497 10.3489 2.70372L10.8354 3.1401C11.0135 3.29982 11.0949 3.5128 11.0799 3.77904C11.0649 4.04529 10.9575 4.28969 10.7579 4.51227L10.013 4.96629C9.82052 5.18092 9.59274 5.31011 9.32969 5.35388C9.06664 5.39766 8.84607 5.33969 8.66801 5.17997L8.18153 4.74359C8.00983 4.58958 7.93152 4.37945 7.94655 4.1132C7.96159 3.84696 8.06536 3.60653 8.25788 3.39191L9.00272 2.93789ZM17.3187 -3.55107C17.5112 -3.7657 17.739 -3.8949 18.002 -3.93868C18.2651 -3.98245 18.4825 -3.92733 18.6542 -3.77331L19.1407 -3.33695C19.3187 -3.17723 19.4003 -2.96424 19.3852 -2.698C19.3702 -2.43176 19.2664 -2.19132 19.0739 -1.97669L13.795 1.69107C13.5954 1.91364 13.364 2.04682 13.101 2.09059C12.8379 2.13437 12.6174 2.0764 12.4393 1.91668L11.9528 1.4803C11.7811 1.32628 11.7028 1.11615 11.7178 0.84991C11.7328 0.583668 11.8402 0.339261 12.0398 0.116684L17.3187 -3.55107Z"></path></g></g></g></g></g><defs><rect id="path_0" x="0" y="0" width="80" height="80" rx="0" ry="0"/><filter id="filter_4" x="0" y="0" width="60.53443942822895" height="58.08477581908349" filterUnits="userSpaceOnUse" color-interpolation-filters="sRGB"><feFlood flood-opacity="0" result="feFloodId"/>
        <feColorMatrix in="SourceAlpha" type="matrix" values="0 0 0 0 0 0 0 0 0 0 0 0 0 0 0 0 0 0 127 0" result="hardAlpha"/>
        
        <feOffset dx="1.2458286985539486" dy="3.5595105672969964"/>
        <feGaussianBlur stdDeviation="2.6696329254727473"/>
         <feComposite in2="hardAlpha" operator="out"/>
        <feColorMatrix type="matrix" values="0 0 0 0 0.12941176470588237 0 0 0 0 0.8117647058823529 0 0 0 0 0.2901960784313726 0 0 0 0.6 0"/>
        <feBlend mode="normal" in2="BackgroundImageFix" result="dropShadow_1"/>
        <feBlend mode="normal" in="SourceGraphic" in2="dropShadow_2" result="shape"/></filter><linearGradient id="linear_0" x1="24.874642657372014%" y1="96.014%" x2="58.11453213406443%" y2="42.033%" gradientUnits="objectBoundingBox"><stop offset="0" stop-color="#FFFFFF" stop-opacity="0.5" /><stop offset="1" stop-color="#FFFFFF" stop-opacity="0" /></linearGradient><filter id="filter_7" x="0" y="0" width="55.04141162784113" height="50.162076897878265" filterUnits="userSpaceOnUse" color-interpolation-filters="sRGB"><feFlood flood-opacity="0" result="feFloodId"/>
        <feColorMatrix in="SourceAlpha" type="matrix" values="0 0 0 0 0 0 0 0 0 0 0 0 0 0 0 0 0 0 127 0" result="hardAlpha"/>
        
        <feOffset dx="1.2458286985539486" dy="1.5127919911012233"/>
        <feGaussianBlur stdDeviation="1.2013348164627362"/>
         <feComposite in2="hardAlpha" operator="out"/>
        <feColorMatrix type="matrix" values="0 0 0 0 0.12941176470588237 0 0 0 0 0.8117647058823529 0 0 0 0 0.2901960784313726 0 0 0 0.6 0"/>
        <feBlend mode="normal" in2="BackgroundImageFix" result="dropShadow_1"/>
        <feBlend mode="normal" in="SourceGraphic" in2="dropShadow_2" result="shape"/></filter><filter id="filter_8" x="-4.4493882091212456" y="-4.4493882091212456" width="44.19464311413579" height="44.27384016167574" filterUnits="userSpaceOnUse" color-interpolation-filters="sRGB"><feFlood flood-opacity="0" result="BackgroundImageFix"/>
          <feGaussianBlur in="BackgroundImage" stdDeviation="2.2246941045606228"/>
          <feComposite in2="SourceAlpha" operator="in" result="effect1_backgroundBlur"/>
          <feBlend mode="normal" in="SourceGraphic" in2="effect1_backgroundBlur" result="shape"/></filter><linearGradient id="linear_1" x1="47.00555183794149%" y1="88.594%" x2="58.114539640460094%" y2="42.033%" gradientUnits="objectBoundingBox"><stop offset="0" stop-color="#FFFFFF" stop-opacity="0.8" /><stop offset="1" stop-color="#FFFFFF" stop-opacity="0" /></linearGradient><filter id="filter_10" x="-4.4493882091212456" y="-4.4493882091212456" width="46.023955709013975" height="46.02395952371124" filterUnits="userSpaceOnUse" color-interpolation-filters="sRGB"><feFlood flood-opacity="0" result="BackgroundImageFix"/>
          <feGaussianBlur in="BackgroundImage" stdDeviation="2.2246941045606228"/>
          <feComposite in2="SourceAlpha" operator="in" result="effect1_backgroundBlur"/>
          <feBlend mode="normal" in="SourceGraphic" in2="effect1_backgroundBlur" result="shape"/></filter><rect id="path_1" x="0" y="0" width="16.01772117614746" height="12.814176559448242" rx="0" ry="0"/><filter id="filter_12" x="0" y="0" width="19.386968576109844" height="5.368007924324322" filterUnits="userSpaceOnUse" color-interpolation-filters="sRGB"><feFlood flood-opacity="0" result="feFloodId"/>
          <feBlend mode="normal" in="SourceGraphic" in2="BackgroundImageFix" result="shape"/> 
          <feColorMatrix in="SourceAlpha" type="matrix" values="0 0 0 0 0 0 0 0 0 0 0 0 0 0 0 0 0 0 127 0" result="hardAlpha"/>
          
          <feOffset dx="-0.0889877641824249" dy="0.44493882091212456"/>
          <feGaussianBlur stdDeviation="0.0889877641824249"/>
          <feComposite in2="hardAlpha" operator="arithmetic" k2="-1" k3="1"/>
          <feColorMatrix type="matrix" values="0 0 0 0 1 0 0 0 0 1 0 0 0 0 1 0 0 0 1 0"/>
          <feBlend mode="normal" in2="shape" result="innerShadow_0" />
          </filter></defs></svg>