<svg xmlns="http://www.w3.org/2000/svg" xmlns:xlink="http://www.w3.org/1999/xlink" width="80" height="80" viewBox="0 0 80 80" fill="none"><g opacity="1"  transform="translate(0 0)"><mask id="bg-mask-0" fill="white"><use transform="translate(0 0)" xlink:href="#path_0"></use></mask><g mask="url(#bg-mask-0)" ><g opacity="1"  transform="translate(16.017578125 21.26806640625)"><g filter="url(#filter_2)"><path id="圆形 1" fill-rule="evenodd" style="fill:#7416F7" opacity="1" d="M21.98 7.03027C9.83998 7.03027 0 13.3503 0 21.5802C0 29.8102 7.95999 37.5102 21.98 37.5102C35.7299 37.5102 44.2699 29.6202 44.2699 21.5802C44.2699 13.5403 34.1199 7.03027 21.98 7.03027Z"></path></g><path id="圆形 1" fill-rule="evenodd" style="fill:#9369FF" opacity="1" d="M22.3355 6.40723C10.1955 6.40723 0.355469 12.9172 0.355469 20.9572C0.355469 28.9872 10.1955 35.5072 22.3355 35.5072C34.4755 35.5072 44.3155 28.9872 44.3155 20.9572C44.3155 12.9172 34.4755 6.40723 22.3355 6.40723Z"></path><path id="圆形 1" style="fill:url(#linear_0); opacity:100" d="M22.3355 6.49621M22.3355 6.49621Q13.2563 6.49621 6.84208 10.7414Q0.444458 14.9757 0.444457 20.9572Q0.444457 26.933 6.8421 31.1693Q13.259 35.4182 22.3355 35.4182Q31.4119 35.4182 37.8288 31.1693Q44.2263 26.9329 44.2265 20.9572Q44.2263 14.9757 37.8288 10.7414Q31.4148 6.49622 22.3355 6.49622L22.3355 6.49621ZM22.3355 6.31824Q31.468 6.31824 37.9271 10.593Q44.4043 14.8801 44.4045 20.9572Q44.4043 27.0286 37.9271 31.3177Q31.4656 35.5962 22.3355 35.5962Q13.2054 35.5962 6.74384 31.3177Q0.266481 27.0286 0.266481 20.9572Q0.266479 14.8801 6.74385 10.593Q13.2026 6.31824 22.3355 6.31824L22.3355 6.31824Z"></path><g id="圆形 1" filter="url(#filter_5)"><g filter="url(#filter_4)"><path id="圆形 1" fill-rule="evenodd" style="fill:#FFFFFF" opacity="0.5" d="M27.1883 0C15.6583 0 6.31836 6.15999 6.31836 13.75C6.31836 21.34 13.9283 28.4799 27.1883 28.4799C39.2883 28.4799 48.0583 21.34 48.0583 13.75C48.0583 6.15999 38.7083 0 27.1883 0Z"></path><path id="圆形 1" style="fill:url(#linear_1); opacity:100" d="M27.1883 0.0889876M27.1883 0.0889876Q18.5692 0.0889872 12.4786 4.10304Q6.40735 8.10429 6.40734 13.75Q6.40735 19.7227 11.835 23.8906Q17.6957 28.3909 27.1883 28.391Q36.0071 28.3911 42.108 23.8896Q47.9694 19.5648 47.9693 13.75Q47.9694 8.10545 41.8943 4.10305Q35.8017 0.0889891 27.1883 0.0889876L27.1883 0.0889876ZM27.1883 -0.0889876Q35.8549 -0.0889585 41.9922 3.95443Q48.1471 8.0095 48.1473 13.75Q48.1474 19.6547 42.2136 24.0328Q36.0659 28.569 27.1883 28.5689Q17.6352 28.5689 11.7267 24.0318Q6.22937 19.8104 6.22937 13.75Q6.22937 8.00844 12.3806 3.95444Q18.5158 -0.0889872 27.1883 -0.0889876L27.1883 -0.0889876Z"></path></g></g><g id="圆形 1" filter="url(#filter_7)"><path id="圆形 1" fill-rule="evenodd" style="fill:#FFFFFF" opacity="0.5" d="M27.2336 0.26709C15.9236 0.26709 6.76367 5.17707 6.76367 12.767C6.76367 20.367 15.9236 26.517 27.2336 26.517C38.5335 26.517 47.6935 20.367 47.6935 12.767C47.6935 5.17707 38.5335 0.26709 27.2336 0.26709Z"></path><path id="圆形 1" style="fill:url(#linear_2); opacity:100" d="M27.2336 0.356077M27.2336 0.356077Q18.5744 0.356077 12.8025 3.74755Q6.85266 7.24353 6.85266 12.767Q6.85266 18.4191 12.807 22.4181Q18.7775 26.428 27.2336 26.428Q35.683 26.4279 41.6514 22.4181Q47.6045 18.4185 47.6045 12.767Q47.6045 7.24392 41.6559 3.74754Q35.8858 0.356079 27.2336 0.356077L27.2336 0.356077ZM27.2336 0.178103Q35.9344 0.178101 41.7461 3.59411Q47.7825 7.14212 47.7825 12.767Q47.7825 18.5133 41.7506 22.5658Q35.7373 26.6061 27.2336 26.6059Q18.7233 26.606 12.7078 22.5659Q6.67468 18.5139 6.67468 12.767Q6.67468 7.14169 12.7123 3.5941Q18.5259 0.178102 27.2336 0.178103L27.2336 0.178103Z"></path></g></g><g opacity="1"  transform="translate(31.14453125 29.455078125)"><g filter="url(#filter_8)"></g><mask id="bg-mask-1" fill="white"><use transform="translate(0 0)" xlink:href="#path_1"></use></mask><g mask="url(#bg-mask-1)" ><g opacity="1"  transform="translate(-0.01171875 -0.030517578125)"><g filter="url(#filter_10)"><path id="路径 2" fill-rule="evenodd" style="fill:#7416F7" opacity="1" d="M25.5526 2.19475C25.2526 1.57772 24.1126 1.25926 23.0226 1.48815L12.6825 4.91165L3.54251 0.303861C2.72251 -0.114124 1.4225 -0.034508 0.632502 0.473046C-0.147501 0.990552 -0.127501 1.73695 0.692502 2.14499L10.6825 7.19067C11.2025 7.44942 11.9525 7.51909 12.6525 7.37976L24.1126 3.71741C24.4826 3.64775 24.8026 3.51837 25.0526 3.34918C25.5326 3.04067 25.7526 2.60278 25.5526 2.19475Z"></path></g><path id="路径 3" fill-rule="evenodd" fill="url(#linear_3)" opacity="1" d="M24.7352 4.879L24.7526 4.91199L24.7352 4.879ZM12.6481 7.37992L12.6653 7.41297L12.6481 7.37992ZM12.6838 4.91221L12.6421 4.93929L12.6676 4.95215L12.7012 4.94521L12.6838 4.91221ZM23.6428 2.64376L23.6256 2.61074L23.6428 2.64376ZM26.1723 3.35035L26.2311 3.33898L26.1723 3.35035ZM25.6276 4.48815C25.386 4.64496 25.0772 4.77003 24.7175 4.84609L24.7529 4.9119C25.1335 4.83145 25.4605 4.69902 25.7164 4.53295L25.6276 4.48815ZM24.7179 4.846L12.6308 7.34693L12.6655 7.41292L24.7526 4.91199L24.7179 4.846ZM12.631 7.34688C11.9531 7.48556 11.227 7.41429 10.7207 7.15892L10.6374 7.21307C11.1758 7.48468 11.9469 7.55987 12.6653 7.41297L12.631 7.34688ZM10.7207 7.15892L0.735009 2.12165L0.6516 2.1758L10.6374 7.21307L10.7207 7.15892ZM0.735009 2.12165C-0.0586824 1.72127 -0.0861359 0.994086 0.677643 0.498269L0.588816 0.45346C-0.219321 0.978077 -0.192949 1.74977 0.6516 2.1758L0.735009 2.12165ZM0.677643 0.498269C1.44142 0.00245197 2.70559 -0.0731851 3.49928 0.32719L3.58269 0.273044C2.73814 -0.152986 1.39696 -0.071152 0.588816 0.45346L0.677643 0.498269ZM3.49928 0.32719L12.6421 4.93929L12.7256 4.88514L3.58269 0.273044L3.49928 0.32719ZM12.7012 4.94521L23.6601 2.67676L23.6255 2.61077L12.6665 4.87921L12.7012 4.94521ZM23.66 2.67679C24.7235 2.45842 25.821 2.76421 26.1136 3.36184L26.231 3.33887C25.9199 2.70333 24.7529 2.37927 23.6256 2.61074L23.66 2.67679ZM26.1135 3.36173C26.305 3.75786 26.0979 4.18279 25.6276 4.48815L25.7164 4.53295C26.2142 4.20978 26.4343 3.75948 26.2311 3.33898L26.1135 3.36173Z"></path></g></g></g></g></g><defs><rect id="path_0" x="0" y="0" width="80" height="80" rx="0" ry="0"/><filter id="filter_2" x="0" y="0" width="59.397819911012235" height="58.77827563959955" filterUnits="userSpaceOnUse" color-interpolation-filters="sRGB"><feFlood flood-opacity="0" result="feFloodId"/>
        <feColorMatrix in="SourceAlpha" type="matrix" values="0 0 0 0 0 0 0 0 0 0 0 0 0 0 0 0 0 0 127 0" result="hardAlpha"/>
        
        <feOffset dx="0" dy="6.1401557285873185"/>
        <feGaussianBlur stdDeviation="3.7819799777530583"/>
         <feComposite in2="hardAlpha" operator="out"/>
        <feColorMatrix type="matrix" values="0 0 0 0 0.4549019607843137 0 0 0 0 0.08627450980392157 0 0 0 0 0.9686274509803922 0 0 0 0.4 0"/>
        <feBlend mode="normal" in2="BackgroundImageFix" result="dropShadow_1"/>
        <feBlend mode="normal" in="SourceGraphic" in2="dropShadow_2" result="shape"/></filter><linearGradient id="linear_0" x1="19.238597828425288%" y1="96.014%" x2="59.93475965361193%" y2="42.033%" gradientUnits="objectBoundingBox"><stop offset="0" stop-color="#FFFFFF" stop-opacity="0.8" /><stop offset="1" stop-color="#FFFFFF" stop-opacity="0" /></linearGradient><linearGradient id="linear_1" x1="0.2177808388652396%" y1="59.779%" x2="90.88016273074065%" y2="23.857%" gradientUnits="objectBoundingBox"><stop offset="0" stop-color="#FFFFFF" stop-opacity="0.4" /><stop offset="1" stop-color="#FFFFFF" stop-opacity="0" /></linearGradient><filter id="filter_4" x="0" y="0" width="63.364195439377085" height="49.9259511679644" filterUnits="userSpaceOnUse" color-interpolation-filters="sRGB"><feFlood flood-opacity="0" result="feFloodId"/>
        <feColorMatrix in="SourceAlpha" type="matrix" values="0 0 0 0 0 0 0 0 0 0 0 0 0 0 0 0 0 0 127 0" result="hardAlpha"/>
        
        <feOffset dx="0" dy="6.1401557285873185"/>
        <feGaussianBlur stdDeviation="3.7819799777530583"/>
         <feComposite in2="hardAlpha" operator="out"/>
        <feColorMatrix type="matrix" values="0 0 0 0 0.4549019607843137 0 0 0 0 0.08627450980392157 0 0 0 0 0.9686274509803922 0 0 0 0.4 0"/>
        <feBlend mode="normal" in2="BackgroundImageFix" result="dropShadow_1"/>
        <feBlend mode="normal" in="SourceGraphic" in2="dropShadow_2" result="shape"/></filter><filter id="filter_5" x="-4.4493882091212456" y="-4.4493882091212456" width="50.63412798074249" height="37.37492311624054" filterUnits="userSpaceOnUse" color-interpolation-filters="sRGB"><feFlood flood-opacity="0" result="BackgroundImageFix"/>
          <feGaussianBlur in="BackgroundImage" stdDeviation="2.2246941045606228"/>
          <feComposite in2="SourceAlpha" operator="in" result="effect1_backgroundBlur"/>
          <feBlend mode="normal" in="SourceGraphic" in2="effect1_backgroundBlur" result="shape"/></filter><linearGradient id="linear_2" x1="0.2107259488583884%" y1="59.779%" x2="90.88595606531646%" y2="23.857%" gradientUnits="objectBoundingBox"><stop offset="0" stop-color="#FFFFFF" stop-opacity="1" /><stop offset="1" stop-color="#FFFFFF" stop-opacity="0" /></linearGradient><filter id="filter_7" x="-4.4493882091212456" y="-4.4493882091212456" width="49.83334673074249" height="35.15029466775421" filterUnits="userSpaceOnUse" color-interpolation-filters="sRGB"><feFlood flood-opacity="0" result="BackgroundImageFix"/>
          <feGaussianBlur in="BackgroundImage" stdDeviation="2.2246941045606228"/>
          <feComposite in2="SourceAlpha" operator="in" result="effect1_backgroundBlur"/>
          <feBlend mode="normal" in="SourceGraphic" in2="effect1_backgroundBlur" result="shape"/></filter><filter id="filter_8" x="0" y="0" width="26.25146484375" height="7.4749932289123535" filterUnits="userSpaceOnUse" color-interpolation-filters="sRGB"><feFlood flood-opacity="0" result="feFloodId"/>
          <feBlend mode="normal" in="SourceGraphic" in2="BackgroundImageFix" result="shape"/> 
          <feColorMatrix in="SourceAlpha" type="matrix" values="0 0 0 0 0 0 0 0 0 0 0 0 0 0 0 0 0 0 127 0" result="hardAlpha"/>
          
          <feOffset dx="0" dy="0.14873309027657422"/>
          <feGaussianBlur stdDeviation="5.986506883632113"/>
          <feComposite in2="hardAlpha" operator="arithmetic" k2="-1" k3="1"/>
          <feColorMatrix type="matrix" values="0 0 0 0 1 0 0 0 0 1 0 0 0 0 1 0 0 0 1 0"/>
          <feBlend mode="normal" in2="shape" result="innerShadow_0" />
          </filter><rect id="path_1" x="0" y="0" width="26.25146484375" height="7.4749932289123535" rx="0" ry="0"/><filter id="filter_10" x="0" y="0" width="25.62635" height="7.450179216129898" filterUnits="userSpaceOnUse" color-interpolation-filters="sRGB"><feFlood flood-opacity="0" result="feFloodId"/>
          <feBlend mode="normal" in="SourceGraphic" in2="BackgroundImageFix" result="shape"/> 
          <feColorMatrix in="SourceAlpha" type="matrix" values="0 0 0 0 0 0 0 0 0 0 0 0 0 0 0 0 0 0 127 0" result="hardAlpha"/>
          
          <feOffset dx="0" dy="0.3718327256914356"/>
          <feGaussianBlur stdDeviation="0.11154981770743061"/>
          <feComposite in2="hardAlpha" operator="arithmetic" k2="-1" k3="1"/>
          <feColorMatrix type="matrix" values="0 0 0 0 1 0 0 0 0 1 0 0 0 0 1 0 0 0 1 0"/>
          <feBlend mode="normal" in2="shape" result="innerShadow_0" />
          </filter><linearGradient id="linear_3" x1="11.015983556980375%" y1="18.290114684196567%" x2="80.4258638731058%" y2="-49.72314168448986%" gradientUnits="objectBoundingBox"><stop offset="0" stop-color="#FFFFFF" stop-opacity="0.25" /><stop offset="1" stop-color="#FFFFFF" stop-opacity="0" /></linearGradient></defs></svg>