<svg xmlns="http://www.w3.org/2000/svg" xmlns:xlink="http://www.w3.org/1999/xlink" width="80" height="80" viewBox="0 0 80 80" fill="none"><g opacity="1"  transform="translate(0 0)"><mask id="bg-mask-0" fill="white"><use transform="translate(0 0)" xlink:href="#path_0"></use></mask><g mask="url(#bg-mask-0)" ><g opacity="1"  transform="translate(17.796875 27.4970703125)"><g filter="url(#filter_2)"><path id="圆形 1" fill-rule="evenodd" style="fill:#FF556F" opacity="1" d="M21.98 0.623047C9.84001 0.623047 0 6.94305 0 15.1731C0 23.4031 7.96001 31.1031 21.98 31.1031C35.73 31.1031 44.3601 23.1231 44.3601 15.0831C44.3601 7.05305 34.12 0.623047 21.98 0.623047Z"></path></g><path id="圆形 1" fill-rule="evenodd" style="fill:#FF7585" opacity="1" d="M22.3374 0C10.1974 0 0.357422 6.51 0.357422 14.55C0.357422 22.58 10.1974 29.1 22.3374 29.1C34.4774 29.1 44.3174 22.58 44.3174 14.55C44.3174 6.51 34.4774 0 22.3374 0Z"></path><path id="圆形 1" style="fill:url(#linear_0); opacity:100" d="M22.3374 0.0889878M22.3374 0.0889878Q13.2583 0.0889883 6.84403 4.33421Q0.446411 8.56845 0.44641 14.55Q0.44641 20.5258 6.84405 24.7621Q13.2609 29.011 22.3374 29.011Q31.4138 29.011 37.8308 24.762Q44.2283 20.5256 44.2284 14.55Q44.2283 8.56848 37.8308 4.33421Q31.4167 0.0889893 22.3374 0.0889887L22.3374 0.0889878ZM22.3374 -0.0889868Q31.47 -0.0889893 37.929 4.18579Q44.4062 8.47284 44.4064 14.55Q44.4062 20.6213 37.929 24.9104Q31.4675 29.189 22.3374 29.189Q13.2073 29.189 6.74579 24.9104Q0.268434 20.6214 0.268434 14.55Q0.268433 8.47284 6.74581 4.18579Q13.2046 -0.0889873 22.3374 -0.0889878L22.3374 -0.0889868Z"></path></g><g opacity="1"  transform="translate(25.2734375 21.4462890625)"><g id="路径 2" filter="url(#filter_6)"><g filter="url(#filter_5)"><path id="路径 2" fill-rule="evenodd" style="fill:#FFFFFF" opacity="0.4" d="M36.7985 10.4124C36.7985 10.4124 36.8126 10.4125 36.7985 10.4124ZM36.7892 11.7842L36.7924 11.3175C36.7959 10.7942 36.4242 10.3462 35.9086 10.2508C33.1827 9.72321 25.1237 8.3604 19.3114 12.5071C15.1953 15.7249 12.8902 20.9208 14.2605 25.3142C15.2291 27.4351 17.9975 27.9488 19.6632 26.3196L35.7065 13.9901C36.3889 13.4573 36.7904 12.6539 36.7892 11.7842Z"></path></g></g><g id="路径 2" filter="url(#filter_8)"><g filter="url(#filter_7)"><path id="路径 2" fill-rule="evenodd" style="fill:#FFFFFF" opacity="0.5" d="M20.1718 23.4282L30.9838 15.0656C34.3268 13.2285 33.8228 8.28938 30.1889 7.15457C26.4378 6.5988 22.4993 7.61863 19.827 9.62288C15.7109 12.8406 13.4059 18.0365 14.7762 22.4299C15.7377 24.5437 18.5131 25.0645 20.1718 23.4282Z"></path><path id="路径 2" style="fill:url(#linear_1); opacity:100" d="M20.1173 23.3578L30.9348 14.9909L30.9409 14.9876C34.2118 13.1901 33.7249 8.35202 30.1623 7.23951L30.1889 7.15457L30.1758 7.2426L30.1889 7.15457L30.1758 7.2426Q27.4175 6.8339 24.6245 7.51517Q21.8993 8.1799 19.8804 9.69407Q18.3524 10.8886 17.1792 12.4178Q16.014 13.9366 15.3266 15.6192Q14.6264 17.3328 14.4972 19.0346Q14.3627 20.8054 14.8611 22.4034L14.7762 22.4299L14.8572 22.3931C15.7944 24.4534 18.498 24.9544 20.1093 23.3648L20.1131 23.3611L20.1173 23.3578ZM20.2262 23.4986L20.1718 23.4282L20.2343 23.4915C18.5349 25.168 15.6836 24.6397 14.6952 22.4668L14.6929 22.4617L14.6912 22.4564Q14.1827 20.8259 14.3197 19.0211Q14.451 17.2914 15.1618 15.5519Q15.8583 13.8472 17.038 12.3095Q18.225 10.7623 19.7736 9.55169Q21.8216 8.01568 24.5823 7.34227Q27.4091 6.65277 30.2019 7.06654L30.2088 7.06756L30.2019 7.06654L30.2088 7.06756L30.2154 7.06963C33.9277 8.2289 34.435 13.2706 31.0266 15.1435L30.9838 15.0656L31.0382 15.1359L20.2262 23.4986Z"></path></g></g><g opacity="1"  transform="translate(0 0)"><g id="圆形 1" filter="url(#filter_11)"><g filter="url(#filter_10)"><path id="圆形 1" fill-rule="evenodd" style="fill:#FFFFFF" opacity="0.4" d="M8.93996 0.864746C3.99998 0.864746 0 0.864746 0 6.74858C0 10.0751 3.25999 13.052 8.93996 13.052C14.1299 13.052 17.8899 10.125 17.8899 6.74858C18.1099 1.51407 13.8799 0.864746 8.93996 0.864746Z"></path><path id="圆形 1" style="fill:url(#linear_2); opacity:100" d="M8.93996 0.902844M8.93996 0.902844Q6.53034 0.902844 5.46231 0.994639Q3.71019 1.14523 2.63329 1.6349Q1.3665 2.21091 0.735658 3.36524Q0.0381377 4.64158 0.0381374 6.74858Q0.0381375 7.99469 0.631855 9.11909Q1.23319 10.2579 2.36309 11.1174Q3.54156 12.0138 5.15781 12.4984Q6.87741 13.0139 8.93996 13.0139Q10.8347 13.0139 12.5169 12.5054Q14.1198 12.0209 15.3388 11.1356Q16.5358 10.2663 17.1883 9.13887Q17.8518 7.99248 17.8518 6.74858L17.8518 6.74778L17.8518 6.74698L17.8518 6.74778L17.8518 6.74698Q18.0009 3.20029 15.333 1.87785Q14.1979 1.31521 12.4484 1.08576Q11.0537 0.902844 8.93996 0.902844L8.93996 0.902844ZM8.93996 0.826649Q11.0586 0.826649 12.4583 1.01022Q14.2204 1.24132 15.3669 1.80959Q18.0792 3.15405 17.928 6.75018L17.8899 6.74858L17.928 6.75018L17.8899 6.74858L17.9281 6.74858Q17.9281 8.01292 17.2543 9.177Q16.5937 10.3184 15.3836 11.1973Q14.1542 12.0901 12.539 12.5784Q10.846 13.0901 8.93996 13.0901Q6.86625 13.0901 5.13589 12.5714Q3.50637 12.0829 2.31688 11.178Q1.17358 10.3083 0.56439 9.15464Q-0.0381375 8.01356 -0.0381374 6.74858Q-0.0381377 4.62214 0.66871 3.32873Q1.31174 2.1521 2.60169 1.56555Q3.69056 1.07044 5.45577 0.918724Q6.52712 0.826648 8.93996 0.826648L8.93996 0.826649Z"></path></g></g><g id="圆形 1" filter="url(#filter_13)"><path id="圆形 1" fill-rule="evenodd" style="fill:#FFFFFF" opacity="0.4" d="M8.9595 0C4.11947 0 0.189453 2.09782 0.189453 5.35445C0.189453 8.60108 4.11947 11.2383 8.9595 11.2383C13.8095 11.2383 17.7295 8.60108 17.7295 5.35445C17.7295 2.09782 13.8095 0 8.9595 0Z"></path><path id="圆形 1" style="fill:url(#linear_3); opacity:100" d="M8.9595 0.0888956M8.9595 0.0888956Q7.16235 0.0888955 5.56775 0.465184Q3.98865 0.837815 2.80454 1.53264Q1.6003 2.23927 0.952812 3.19379Q0.278442 4.18794 0.278441 5.35445Q0.278441 6.52471 0.954426 7.59608Q1.6105 8.63589 2.80908 9.44009Q4.01164 10.247 5.57163 10.69Q7.1891 11.1494 8.9595 11.1494Q10.7334 11.1494 12.3516 10.69Q13.9119 10.2471 15.1136 9.44011Q16.3109 8.63617 16.9659 7.59614Q17.6405 6.52502 17.6406 5.35445Q17.6405 4.18761 16.9676 3.19373Q16.3211 2.23902 15.1182 1.53262Q13.9349 0.837722 12.3555 0.465187Q10.7601 0.0888963 8.9595 0.0888959L8.9595 0.0888956ZM8.9595 -0.0888952Q10.7809 -0.0888951 12.3964 0.292154Q14.0019 0.670854 15.2084 1.37936Q16.4459 2.10612 17.115 3.09412Q17.8185 4.13312 17.8185 5.35445Q17.8185 6.57631 17.1166 7.69082Q16.4414 8.76274 15.2129 9.58766Q13.9877 10.4104 12.4002 10.8611Q10.7582 11.3272 8.9595 11.3272Q7.16429 11.3272 5.52295 10.861Q3.93583 10.4103 2.70985 9.58768Q1.48002 8.76251 0.803862 7.69088Q0.100465 6.57606 0.100465 5.35445Q0.100465 4.13337 0.805476 3.09406Q1.47551 2.1063 2.71439 1.37934Q3.92163 0.670945 5.52683 0.292155Q7.14161 -0.0888955 8.9595 -0.0888956L8.9595 -0.0888952Z"></path></g></g><g opacity="1"  transform="translate(21.2265625 11.0537109375)"><g filter="url(#filter_15)"><path  id="并集" style="fill:#FF7585; opacity:1;" d="M3.93 0L3.93 5.33L0 5.33L0 4.33L3.43 4.33L3.43 4.83L2.93 4.83L2.93 0L3.93 0Z"></path></g></g></g></g></g><defs><rect id="path_0" x="0" y="0" width="80" height="80" rx="0" ry="0"/><filter id="filter_2" x="0" y="0" width="55.03863170189099" height="46.40899543937709" filterUnits="userSpaceOnUse" color-interpolation-filters="sRGB"><feFlood flood-opacity="0" result="feFloodId"/>
        <feColorMatrix in="SourceAlpha" type="matrix" values="0 0 0 0 0 0 0 0 0 0 0 0 0 0 0 0 0 0 127 0" result="hardAlpha"/>
        
        <feOffset dx="0" dy="4.627363737486095"/>
        <feGaussianBlur stdDeviation="2.6696329254727473"/>
         <feComposite in2="hardAlpha" operator="out"/>
        <feColorMatrix type="matrix" values="0 0 0 0 1 0 0 0 0 0.3333333333333333 0 0 0 0 0.43529411764705883 0 0 0 0.4 0"/>
        <feBlend mode="normal" in2="BackgroundImageFix" result="dropShadow_1"/>
        <feBlend mode="normal" in="SourceGraphic" in2="dropShadow_2" result="shape"/></filter><linearGradient id="linear_0" x1="19.238560890739276%" y1="96.014%" x2="59.93477158307569%" y2="42.033%" gradientUnits="objectBoundingBox"><stop offset="0" stop-color="#FFFFFF" stop-opacity="0.8" /><stop offset="1" stop-color="#FFFFFF" stop-opacity="0" /></linearGradient><filter id="filter_5" x="0" y="0" width="43.92378780126066" height="33.8654274857895" filterUnits="userSpaceOnUse" color-interpolation-filters="sRGB"><feFlood flood-opacity="0" result="feFloodId"/>
        <feColorMatrix in="SourceAlpha" type="matrix" values="0 0 0 0 0 0 0 0 0 0 0 0 0 0 0 0 0 0 127 0" result="hardAlpha"/>
        
        <feOffset dx="-3.0255839822024466" dy="2.4916573971078972"/>
        <feGaussianBlur stdDeviation="1.0233592880978863"/>
         <feComposite in2="hardAlpha" operator="out"/>
        <feColorMatrix type="matrix" values="0 0 0 0 1 0 0 0 0 0.3333333333333333 0 0 0 0 0.43529411764705883 0 0 0 1 0"/>
        <feBlend mode="normal" in2="BackgroundImageFix" result="dropShadow_1"/>
        <feBlend mode="normal" in="SourceGraphic" in2="dropShadow_2" result="shape"/></filter><filter id="filter_6" x="-3.5595105672969964" y="-3.5595105672969964" width="34.573382096508055" height="19.95641394160083" filterUnits="userSpaceOnUse" color-interpolation-filters="sRGB"><feFlood flood-opacity="0" result="BackgroundImageFix"/>
          <feGaussianBlur in="BackgroundImage" stdDeviation="1.7797552836484982"/>
          <feComposite in2="SourceAlpha" operator="in" result="effect1_backgroundBlur"/>
          <feBlend mode="normal" in="SourceGraphic" in2="effect1_backgroundBlur" result="shape"/></filter><linearGradient id="linear_1" x1="-12.054226640677332%" y1="46.366%" x2="104.18264060138591%" y2="23.857%" gradientUnits="objectBoundingBox"><stop offset="0" stop-color="#FFFFFF" stop-opacity="1" /><stop offset="1" stop-color="#FFFFFF" stop-opacity="0" /></linearGradient><filter id="filter_7" x="0" y="0" width="36.759371659227064" height="27.964677803021615" filterUnits="userSpaceOnUse" color-interpolation-filters="sRGB"><feFlood flood-opacity="0" result="feFloodId"/>
        <feColorMatrix in="SourceAlpha" type="matrix" values="0 0 0 0 0 0 0 0 0 0 0 0 0 0 0 0 0 0 127 0" result="hardAlpha"/>
        
        <feOffset dx="-0.6864770379787066" dy="0.7246146511997458"/>
        <feGaussianBlur stdDeviation="0.6674082313681872"/>
         <feComposite in2="hardAlpha" operator="out"/>
        <feColorMatrix type="matrix" values="0 0 0 0 1 0 0 0 0 0.3333333333333333 0 0 0 0 0.43529411764705883 0 0 0 0.4 0"/>
        <feBlend mode="normal" in2="BackgroundImageFix" result="dropShadow_1"/>
        <feBlend mode="normal" in="SourceGraphic" in2="dropShadow_2" result="shape"/></filter><filter id="filter_8" x="-1.906880661051963" y="-1.906880661051963" width="28.917664138876386" height="16.519790260397382" filterUnits="userSpaceOnUse" color-interpolation-filters="sRGB"><feFlood flood-opacity="0" result="BackgroundImageFix"/>
          <feGaussianBlur in="BackgroundImage" stdDeviation="0.9534403305259815"/>
          <feComposite in2="SourceAlpha" operator="in" result="effect1_backgroundBlur"/>
          <feBlend mode="normal" in="SourceGraphic" in2="effect1_backgroundBlur" result="shape"/></filter><linearGradient id="linear_2" x1="0.22004305053729406%" y1="59.779%" x2="90.8783050477598%" y2="23.857%" gradientUnits="objectBoundingBox"><stop offset="0" stop-color="#FFFFFF" stop-opacity="0.4" /><stop offset="1" stop-color="#FFFFFF" stop-opacity="0" /></linearGradient><filter id="filter_10" x="0" y="0" width="20.733010609078644" height="18.467541077387573" filterUnits="userSpaceOnUse" color-interpolation-filters="sRGB"><feFlood flood-opacity="0" result="feFloodId"/>
        <feColorMatrix in="SourceAlpha" type="matrix" values="0 0 0 0 0 0 0 0 0 0 0 0 0 0 0 0 0 0 127 0" result="hardAlpha"/>
        
        <feOffset dx="-0.0889877641824249" dy="2.6696329254727473"/>
        <feGaussianBlur stdDeviation="0.6674082313681872"/>
         <feComposite in2="hardAlpha" operator="out"/>
        <feColorMatrix type="matrix" values="0 0 0 0 1 0 0 0 0 0.3333333333333333 0 0 0 0 0.43529411764705883 0 0 0 1 0"/>
        <feBlend mode="normal" in2="BackgroundImageFix" result="dropShadow_1"/>
        <feBlend mode="normal" in="SourceGraphic" in2="dropShadow_2" result="shape"/></filter><filter id="filter_11" x="-1.906880661051963" y="-1.906880661051963" width="21.708780853353925" height="16.017850486837812" filterUnits="userSpaceOnUse" color-interpolation-filters="sRGB"><feFlood flood-opacity="0" result="BackgroundImageFix"/>
          <feGaussianBlur in="BackgroundImage" stdDeviation="0.9534403305259815"/>
          <feComposite in2="SourceAlpha" operator="in" result="effect1_backgroundBlur"/>
          <feBlend mode="normal" in="SourceGraphic" in2="effect1_backgroundBlur" result="shape"/></filter><linearGradient id="linear_3" x1="0.49334508418964185%" y1="59.779%" x2="90.65387488376516%" y2="23.857%" gradientUnits="objectBoundingBox"><stop offset="0" stop-color="#FFFFFF" stop-opacity="0.7" /><stop offset="1" stop-color="#FFFFFF" stop-opacity="0" /></linearGradient><filter id="filter_13" x="-1.906880661051963" y="-1.906880661051963" width="21.356974212728925" height="15.064298240744062" filterUnits="userSpaceOnUse" color-interpolation-filters="sRGB"><feFlood flood-opacity="0" result="BackgroundImageFix"/>
          <feGaussianBlur in="BackgroundImage" stdDeviation="0.9534403305259815"/>
          <feComposite in2="SourceAlpha" operator="in" result="effect1_backgroundBlur"/>
          <feBlend mode="normal" in="SourceGraphic" in2="effect1_backgroundBlur" result="shape"/></filter><filter id="filter_15" x="0" y="0" width="4.431839942932129" height="5.834479808807373" filterUnits="userSpaceOnUse" color-interpolation-filters="sRGB"><feFlood flood-opacity="0" result="feFloodId"/>
          <feBlend mode="normal" in="SourceGraphic" in2="BackgroundImageFix" result="shape"/> 
          <feColorMatrix in="SourceAlpha" type="matrix" values="0 0 0 0 0 0 0 0 0 0 0 0 0 0 0 0 0 0 127 0" result="hardAlpha"/>
          
          <feOffset dx="0.2" dy="0.2"/>
          <feGaussianBlur stdDeviation="0.1"/>
          <feComposite in2="hardAlpha" operator="arithmetic" k2="-1" k3="1"/>
          <feColorMatrix type="matrix" values="0 0 0 0 1 0 0 0 0 1 0 0 0 0 1 0 0 0 1 0"/>
          <feBlend mode="normal" in2="shape" result="innerShadow_0" />
          </filter></defs></svg>