<svg xmlns="http://www.w3.org/2000/svg" xmlns:xlink="http://www.w3.org/1999/xlink" width="80" height="80" viewBox="0 0 80 80" fill="none"><g opacity="1"  transform="translate(0 0)"><mask id="bg-mask-0" fill="white"><use transform="translate(0 0)" xlink:href="#path_0"></use></mask><g mask="url(#bg-mask-0)" ><g opacity="1"  transform="translate(16.017578125 15.928955078125)"><g opacity="1"  transform="translate(0 11.74609375)"><g filter="url(#filter_3)"><path id="圆形 1" fill-rule="evenodd" style="fill:#FFA929" opacity="1" d="M21.9802 0.623047C9.84007 0.623047 0 6.94309 0 15.1732C0 23.4032 7.96006 31.1033 21.9802 31.1033C35.7303 31.1033 44.2303 23.2032 44.2303 15.1732C44.2303 7.13309 34.1202 0.623047 21.9802 0.623047Z"></path></g><path id="圆形 1" fill-rule="evenodd" style="fill:#FFC266" opacity="1" d="M22.3359 0C10.1957 0 0.355469 6.51014 0.355469 14.5503C0.355469 22.5805 10.1957 29.1006 22.3359 29.1006C34.4762 29.1006 44.3164 22.5805 44.3164 14.5503C44.3164 6.51014 34.4762 0 22.3359 0Z"></path><path id="圆形 1" style="fill:url(#linear_0); opacity:100" d="M22.3359 0.0889897M22.3359 0.0889897Q13.2566 0.0889892 6.84222 4.3343Q0.44446 8.56863 0.444458 14.5503Q0.444458 20.5262 6.84224 24.7626Q13.2592 29.0116 22.3359 29.0116Q31.4125 29.0116 37.8296 24.7626Q44.2275 20.5263 44.2274 14.5503Q44.2275 8.5686 37.8296 4.3343Q31.4155 0.0889911 22.3359 0.0889907L22.3359 0.0889897ZM22.3359 -0.0889888Q31.4687 -0.0889911 37.9279 4.18588Q44.4055 8.47302 44.4054 14.5503Q44.4055 20.6218 37.9279 24.911Q31.4662 29.1896 22.3359 29.1896Q13.2057 29.1896 6.74397 24.911Q0.266479 20.6219 0.266479 14.5503Q0.266478 8.47302 6.74399 4.18588Q13.2029 -0.0889892 22.3359 -0.0889897L22.3359 -0.0889888Z"></path></g><g opacity="1"  transform="translate(16.021484375 18.50927734375)"><g opacity="1"  transform="translate(-0.001953125 0)"><g opacity="1"  transform="translate(0 0)"><g id="矩形 1" filter="url(#filter_9)"><g filter="url(#filter_8)"><path id="矩形 1" fill-rule="evenodd" style="fill:#FFFFFF" opacity="0.5" d="M2.86363 9.57615C1.81708 10.1984 1.55545 11.1813 1.54837 11.938C1.54837 12.4612 1.95851 13.6209 2.6727 14.1088L5.42342 15.8696L10.2743 18.8254C10.9178 19.2001 11.7098 19.186 12.3391 18.7971L20.0114 13.9533C21.7792 12.7512 21.0226 11.0046 20.9448 10.6439C20.5771 9.97922 20.6125 10.3823 19.8276 9.97922L12.2189 6.10417C11.6532 5.82132 10.9744 5.82132 10.4157 6.11124L2.86363 9.57615Z"></path></g></g><g id="矩形 1" filter="url(#filter_11)"><path id="矩形 1" fill-rule="evenodd" style="fill:#FFFFFF" opacity="0.5" d="M5.65667 14.9267L5.65667 14.9267C9.12848 17.0692 13.5195 17.0904 17.0055 14.9762L17.0903 14.9337C19.7561 13.3287 19.8055 9.47501 17.1822 7.79921L17.0055 7.69314C13.5478 5.47995 9.1002 5.50116 5.65667 7.74264L5.57182 7.7992C2.9768 9.48915 3.02629 13.3004 5.65667 14.9267Z"></path><path id="矩形 1" style="fill:url(#linear_1); opacity:100" d="M5.7034 14.851C9.14857 16.977 13.4978 16.9995 16.9593 14.9001L16.9624 14.8982L17.0505 14.8542L17.0903 14.9337L17.0444 14.8575C19.6579 13.2839 19.7052 9.51649 17.1343 7.8742L17.1822 7.79921L17.1365 7.87551L16.9586 7.76879L16.9575 7.76809C13.5228 5.56964 9.12293 5.59254 5.70521 7.81722L5.62118 7.87325C3.08162 9.52708 3.12658 13.2578 5.70346 14.851L5.7034 14.851ZM5.60987 15.0024C2.92203 13.3405 2.87518 9.44913 5.52246 7.72516L5.60812 7.66806C9.08445 5.40523 13.5599 5.38204 17.0534 7.6182L17.0055 7.69314L17.0513 7.61684L17.2291 7.72355L17.2301 7.72422C19.9123 9.43759 19.8628 13.3683 17.1362 15.01L17.1332 15.0118L17.0453 15.0558L17.0055 14.9762L17.0516 15.0523C13.533 17.1863 9.11197 17.1635 5.60994 15.0024L5.60987 15.0024Z"></path></g></g></g><g opacity="1"  transform="translate(6.2265625 8.186767578125)"><g filter="url(#filter_12)"></g><path  id="路径 13" style="fill:#FFC045; opacity:1;" d="M4.44224 5.87238L4.44942 -0.000807846Q4.4495 -0.0663204 4.46243 -0.130559Q4.47537 -0.194797 4.50066 -0.255292Q4.52595 -0.315787 4.56263 -0.370215Q4.59931 -0.424642 4.64596 -0.47091Q4.69262 -0.517178 4.74746 -0.553509Q4.80229 -0.58984 4.86321 -0.614837Q4.92412 -0.639834 4.98877 -0.652537Q5.05342 -0.66524 5.11932 -0.66516Q5.18521 -0.66508 5.24983 -0.652222Q5.31445 -0.639363 5.3753 -0.614218Q5.43615 -0.589074 5.4909 -0.552611Q5.54565 -0.516149 5.59219 -0.469768Q5.63873 -0.423387 5.67528 -0.368871Q5.71182 -0.314355 5.73697 -0.253799Q5.76211 -0.193243 5.77489 -0.128974Q5.78767 -0.0647047 5.78759 0.000807846L5.78041 5.874Q5.78033 5.93951 5.7674 6.00375Q5.75446 6.06798 5.72917 6.12848Q5.70388 6.18897 5.6672 6.2434Q5.63052 6.29783 5.58387 6.3441Q5.53721 6.39037 5.48238 6.4267Q5.42754 6.46303 5.36662 6.48802Q5.30571 6.51302 5.24106 6.52572Q5.17641 6.53843 5.11052 6.53835Q5.04462 6.53827 4.98 6.52541Q4.91538 6.51255 4.85453 6.48741Q4.79368 6.46226 4.73893 6.4258Q4.68418 6.38934 4.63764 6.34295Q4.5911 6.29657 4.55455 6.24206Q4.51801 6.18754 4.49286 6.12699Q4.46772 6.06643 4.45494 6.00216Q4.44216 5.93789 4.44224 5.87238Z"></path><path  id="路径 14" style="fill:#FFC045; opacity:1;" d="M10.2335 3.67638L0.000291555 3.68036Q-0.0731776 3.68039 -0.145241 3.66617Q-0.217304 3.65195 -0.285191 3.62402Q-0.353079 3.5961 -0.414182 3.55554Q-0.475285 3.51499 -0.527256 3.46336Q-0.579227 3.41174 -0.620068 3.35102Q-0.660909 3.29031 -0.689051 3.22284Q-0.717193 3.15538 -0.731555 3.08375Q-0.745916 3.01212 -0.745945 2.93908Q-0.745973 2.86604 -0.731668 2.7944Q-0.717363 2.72276 -0.689274 2.65527Q-0.661186 2.58778 -0.620392 2.52704Q-0.579599 2.46629 -0.527669 2.41463Q-0.475738 2.36296 -0.414667 2.32236Q-0.353596 2.28176 -0.28573 2.25378Q-0.217864 2.2258 -0.145813 2.21153Q-0.0737607 2.19725 -0.000291555 2.19722L10.2329 2.19325Q10.3064 2.19322 10.3784 2.20744Q10.4505 2.22166 10.5184 2.24958Q10.5863 2.27751 10.6474 2.31806Q10.7085 2.35862 10.7605 2.41024Q10.8124 2.46187 10.8533 2.52258Q10.8941 2.58329 10.9223 2.65076Q10.9504 2.71823 10.9648 2.78986Q10.9791 2.86149 10.9792 2.93452Q10.9792 3.00756 10.9649 3.0792Q10.9506 3.15084 10.9225 3.21833Q10.8944 3.28582 10.8536 3.34657Q10.8128 3.40731 10.7609 3.45898Q10.7089 3.51064 10.6479 3.55124Q10.5868 3.59185 10.5189 3.61982Q10.4511 3.6478 10.379 3.66208Q10.307 3.67635 10.2335 3.67638Z"></path></g></g><g opacity="1"  transform="translate(2.4921875 9.254638671875)"><g opacity="1"  transform="translate(0 0)"><g opacity="1"  transform="translate(0 0)"><g id="矩形 1" filter="url(#filter_19)"><g filter="url(#filter_18)"><path id="矩形 1" fill-rule="evenodd" style="fill:#FFFFFF" opacity="0.5" d="M2.86558 9.57615C1.81903 10.1984 1.5574 11.1813 1.55033 11.938C1.55033 12.4612 1.96046 13.6209 2.67466 14.1088L5.42538 15.8696L10.2763 18.8254C10.9197 19.2001 11.7117 19.186 12.3411 18.7971L20.0134 13.9533C21.7812 12.7512 21.0246 11.0046 20.9468 10.6439C20.5791 9.97922 20.6144 10.3823 19.8295 9.97922L12.2209 6.10417C11.6552 5.82132 10.9763 5.82132 10.4177 6.11124L2.86558 9.57615Z"></path></g></g><g id="矩形 1" filter="url(#filter_21)"><path id="矩形 1" fill-rule="evenodd" style="fill:#FFFFFF" opacity="0.5" d="M5.65862 14.9267L5.65862 14.9267C9.13043 17.0692 13.5215 17.0904 17.0074 14.9762L17.0923 14.9337C19.758 13.3287 19.8075 9.47501 17.1842 7.79921L17.0074 7.69314C13.5497 5.47995 9.10215 5.50116 5.65862 7.74264L5.57377 7.7992C2.97875 9.48915 3.02824 13.3004 5.65862 14.9267Z"></path><path id="矩形 1" style="fill:url(#linear_2); opacity:100" d="M5.70535 14.851C9.15052 16.977 13.4998 16.9995 16.9613 14.9001L16.9644 14.8982L17.0525 14.8542L17.0923 14.9337L17.0464 14.8575C19.6598 13.2839 19.7071 9.51649 17.1363 7.8742L17.1842 7.79921L17.1384 7.87551L16.9605 7.76879L16.9594 7.76809C13.5248 5.56964 9.12489 5.59254 5.70716 7.81722L5.62313 7.87325C3.08357 9.52708 3.12854 13.2578 5.70542 14.851L5.70535 14.851ZM5.61183 15.0024C2.92399 13.3405 2.87714 9.44913 5.52441 7.72516L5.61007 7.66806C9.08641 5.40523 13.5618 5.38204 17.0554 7.6182L17.0074 7.69314L17.0532 7.61684L17.231 7.72355L17.2321 7.72422C19.9142 9.43759 19.8647 13.3683 17.1382 15.01L17.1352 15.0118L17.0472 15.0558L17.0074 14.9762L17.0536 15.0523C13.5349 17.1863 9.11393 17.1635 5.61189 15.0024L5.61183 15.0024Z"></path></g></g></g><g opacity="1"  transform="translate(8.185546875 9.2548828125)"><g filter="url(#filter_22)"></g><path  id="路径 9" style="fill:#FFC045; opacity:1;" d="M-0.420095 2.64436L5.34937 -0.723266Q5.42107 -0.765113 5.49945 -0.79201Q5.57784 -0.818907 5.65991 -0.829821Q5.74198 -0.840734 5.82458 -0.835244Q5.90718 -0.829755 5.98713 -0.808073Q6.06708 -0.786391 6.14131 -0.74935Q6.21555 -0.712309 6.28121 -0.661333Q6.34687 -0.610357 6.40144 -0.547404Q6.45601 -0.484452 6.49738 -0.411942Q6.53876 -0.339432 6.56535 -0.260151Q6.59195 -0.18087 6.60274 -0.0978659Q6.61353 -0.0148612 6.6081 0.0686776Q6.60267 0.152216 6.58123 0.233079Q6.55979 0.313942 6.52317 0.389021Q6.48655 0.4641 6.43615 0.53051Q6.38574 0.59692 6.3235 0.652109Q6.26126 0.707298 6.18956 0.749145L0.420095 4.11677Q0.348402 4.15862 0.270014 4.18552Q0.191627 4.21241 0.109557 4.22333Q0.0274875 4.23424 -0.0551102 4.22875Q-0.137708 4.22326 -0.21766 4.20158Q-0.297612 4.1799 -0.371845 4.14286Q-0.446078 4.10582 -0.51174 4.05484Q-0.577402 4.00386 -0.631969 3.94091Q-0.686537 3.87796 -0.727913 3.80545Q-0.769288 3.73294 -0.795882 3.65366Q-0.822476 3.57438 -0.833267 3.49137Q-0.844057 3.40837 -0.838629 3.32483Q-0.833202 3.24129 -0.811764 3.16043Q-0.790326 3.07956 -0.753703 3.00449Q-0.717079 2.92941 -0.666677 2.863Q-0.616275 2.79659 -0.554032 2.7414Q-0.491788 2.68621 -0.420095 2.64436Z"></path><path  id="路径 10" style="fill:#FFC045; opacity:1;" d="M5.36219 4.10321L-0.397198 0.735631Q-0.468859 0.69373 -0.531061 0.638494Q-0.593262 0.583259 -0.643614 0.516812Q-0.693966 0.450364 -0.730533 0.375259Q-0.7671 0.300153 -0.788478 0.219275Q-0.809855 0.138398 -0.815221 0.0548559Q-0.820586 -0.0286858 -0.809734 -0.111681Q-0.798882 -0.194676 -0.77223 -0.273935Q-0.745577 -0.353195 -0.704148 -0.425672Q-0.662719 -0.498149 -0.608106 -0.56106Q-0.553493 -0.62397 -0.487794 -0.674895Q-0.422095 -0.725821 -0.347835 -0.762805Q-0.273576 -0.799789 -0.193609 -0.821409Q-0.113642 -0.84303 -0.0310418 -0.848457Q0.0515588 -0.853884 0.133619 -0.842908Q0.215679 -0.831933 0.294046 -0.804977Q0.372412 -0.77802 0.444073 -0.736119L6.20346 2.63146Q6.27512 2.67336 6.33732 2.7286Q6.39952 2.78383 6.44987 2.85028Q6.50023 2.91673 6.53679 2.99183Q6.57336 3.06694 6.59474 3.14781Q6.61612 3.22869 6.62148 3.31223Q6.62685 3.39578 6.61599 3.47877Q6.60514 3.56177 6.57849 3.64103Q6.55184 3.72028 6.51041 3.79276Q6.46898 3.86524 6.41437 3.92815Q6.35975 3.99106 6.29405 4.04199Q6.22835 4.09291 6.1541 4.12989Q6.07983 4.16688 5.99987 4.1885Q5.9199 4.21012 5.8373 4.21555Q5.7547 4.22097 5.67264 4.21Q5.59058 4.19902 5.51221 4.17207Q5.43385 4.14511 5.36219 4.10321Z"></path></g></g><g opacity="1"  transform="translate(28.919921875 9.254638671875)"><g opacity="1"  transform="translate(0 0)"><g opacity="1"  transform="translate(0 0)"><g id="矩形 1" filter="url(#filter_29)"><g filter="url(#filter_28)"><path id="矩形 1" fill-rule="evenodd" style="fill:#FFFFFF" opacity="0.5" d="M2.86753 9.57615C1.82099 10.1984 1.55935 11.1813 1.55228 11.938C1.55228 12.4612 1.96241 13.6209 2.67661 14.1088L5.42733 15.8696L10.2782 18.8254C10.9217 19.2001 11.7137 19.186 12.343 18.7971L20.0153 13.9533C21.7832 12.7512 21.0265 11.0046 20.9487 10.6439C20.581 9.97922 20.6164 10.3823 19.8315 9.97922L12.2228 6.10417C11.6571 5.82132 10.9783 5.82132 10.4196 6.11124L2.86753 9.57615Z"></path></g></g><g id="矩形 1" filter="url(#filter_31)"><path id="矩形 1" fill-rule="evenodd" style="fill:#FFFFFF" opacity="0.5" d="M5.65862 14.9267L5.65862 14.9267C9.13043 17.0692 13.5215 17.0904 17.0074 14.9762L17.0923 14.9337C19.758 13.3287 19.8075 9.47501 17.1842 7.79921L17.0074 7.69314C13.5497 5.47995 9.10215 5.50116 5.65862 7.74264L5.57377 7.7992C2.97875 9.48915 3.02824 13.3004 5.65862 14.9267Z"></path><path id="矩形 1" style="fill:url(#linear_3); opacity:100" d="M5.70535 14.851C9.15052 16.977 13.4998 16.9995 16.9613 14.9001L16.9644 14.8982L17.0525 14.8542L17.0923 14.9337L17.0464 14.8575C19.6598 13.2839 19.7071 9.51649 17.1363 7.8742L17.1842 7.79921L17.1384 7.87551L16.9605 7.76879L16.9594 7.76809C13.5248 5.56964 9.12489 5.59254 5.70716 7.81722L5.62313 7.87325C3.08357 9.52708 3.12854 13.2578 5.70542 14.851L5.70535 14.851ZM5.61183 15.0024C2.92399 13.3405 2.87714 9.44913 5.52441 7.72516L5.61007 7.66806C9.08641 5.40523 13.5618 5.38204 17.0554 7.6182L17.0074 7.69314L17.0532 7.61684L17.231 7.72355L17.2321 7.72422C19.9142 9.43759 19.8647 13.3683 17.1382 15.01L17.1352 15.0118L17.0472 15.0558L17.0074 14.9762L17.0536 15.0523C13.5349 17.1863 9.11393 17.1635 5.61189 15.0024L5.61183 15.0024Z"></path></g></g></g><g opacity="1"  transform="translate(8.544921875 9.744140625)"><g filter="url(#filter_32)"></g><path  id="路径 9" style="fill:#FFC045; opacity:1;" d="M-0.420095 2.64436L5.34937 -0.723266Q5.42107 -0.765113 5.49945 -0.79201Q5.57784 -0.818907 5.65991 -0.829821Q5.74198 -0.840734 5.82458 -0.835244Q5.90718 -0.829755 5.98713 -0.808073Q6.06708 -0.786391 6.14131 -0.74935Q6.21555 -0.712309 6.28121 -0.661333Q6.34687 -0.610357 6.40144 -0.547404Q6.45601 -0.484452 6.49738 -0.411942Q6.53876 -0.339432 6.56535 -0.260151Q6.59195 -0.18087 6.60274 -0.0978659Q6.61353 -0.0148612 6.6081 0.0686776Q6.60267 0.152216 6.58123 0.233079Q6.55979 0.313942 6.52317 0.389021Q6.48655 0.4641 6.43615 0.53051Q6.38574 0.59692 6.3235 0.652109Q6.26126 0.707298 6.18956 0.749145L0.420095 4.11677Q0.348402 4.15862 0.270014 4.18552Q0.191627 4.21241 0.109557 4.22333Q0.0274875 4.23424 -0.0551102 4.22875Q-0.137708 4.22326 -0.21766 4.20158Q-0.297612 4.1799 -0.371845 4.14286Q-0.446078 4.10582 -0.51174 4.05484Q-0.577402 4.00386 -0.631969 3.94091Q-0.686537 3.87796 -0.727913 3.80545Q-0.769288 3.73294 -0.795882 3.65366Q-0.822476 3.57438 -0.833267 3.49137Q-0.844057 3.40837 -0.838629 3.32483Q-0.833202 3.24129 -0.811764 3.16043Q-0.790326 3.07956 -0.753703 3.00449Q-0.717079 2.92941 -0.666677 2.863Q-0.616275 2.79659 -0.554032 2.7414Q-0.491788 2.68621 -0.420095 2.64436Z"></path><path  id="路径 10" style="fill:#FFC045; opacity:1;" d="M5.36219 4.10345L-0.397198 0.735875Q-0.468859 0.693974 -0.531061 0.638739Q-0.593262 0.583503 -0.643614 0.517056Q-0.693966 0.450608 -0.730533 0.375503Q-0.7671 0.300397 -0.788478 0.219519Q-0.809855 0.138642 -0.815221 0.0551Q-0.820586 -0.0284417 -0.809734 -0.111437Q-0.798882 -0.194432 -0.77223 -0.273691Q-0.745577 -0.35295 -0.704148 -0.425428Q-0.662719 -0.497905 -0.608106 -0.560815Q-0.553493 -0.623726 -0.487794 -0.674651Q-0.422095 -0.725577 -0.347835 -0.762561Q-0.273576 -0.799544 -0.193609 -0.821165Q-0.113642 -0.842786 -0.0310418 -0.848213Q0.0515588 -0.85364 0.133619 -0.842664Q0.215679 -0.831689 0.294046 -0.804732Q0.372412 -0.777776 0.444073 -0.735875L6.20346 2.6317Q6.27512 2.6736 6.33732 2.72884Q6.39952 2.78408 6.44987 2.85052Q6.50023 2.91697 6.53679 2.99208Q6.57336 3.06718 6.59474 3.14806Q6.61612 3.22894 6.62148 3.31248Q6.62685 3.39602 6.61599 3.47902Q6.60514 3.56201 6.57849 3.64127Q6.55184 3.72053 6.51041 3.79301Q6.46898 3.86548 6.41437 3.92839Q6.35975 3.9913 6.29405 4.04223Q6.22835 4.09315 6.1541 4.13014Q6.07983 4.16712 5.99987 4.18874Q5.9199 4.21036 5.8373 4.21579Q5.7547 4.22122 5.67264 4.21024Q5.59058 4.19927 5.51221 4.17231Q5.43385 4.14536 5.36219 4.10345Z"></path></g></g><g opacity="1"  transform="translate(15.216796875 -0.000244140625)"><g opacity="1"  transform="translate(0 0)"><g opacity="1"  transform="translate(0 0)"><g id="矩形 1" filter="url(#filter_39)"><g filter="url(#filter_38)"><path id="矩形 1" fill-rule="evenodd" style="fill:#FFFFFF" opacity="0.5" d="M2.86753 9.57615C1.82099 10.1984 1.55935 11.1813 1.55228 11.938C1.55228 12.4612 1.96241 13.6209 2.67661 14.1088L5.42733 15.8696L10.2782 18.8254C10.9217 19.2001 11.7137 19.186 12.343 18.7971L20.0153 13.9533C21.7832 12.7512 21.0265 11.0046 20.9487 10.6439C20.581 9.97922 20.6164 10.3823 19.8315 9.97922L12.2228 6.10417C11.6571 5.82132 10.9783 5.82132 10.4196 6.11124L2.86753 9.57615Z"></path></g></g><g id="矩形 1" filter="url(#filter_41)"><path id="矩形 1" fill-rule="evenodd" style="fill:#FFFFFF" opacity="0.5" d="M5.65862 14.9267L5.65862 14.9267C9.13043 17.0692 13.5215 17.0904 17.0074 14.9762L17.0923 14.9337C19.758 13.3287 19.8075 9.47501 17.1842 7.79921L17.0074 7.69314C13.5497 5.47995 9.10215 5.50116 5.65862 7.74264L5.57377 7.7992C2.97875 9.48915 3.02824 13.3004 5.65862 14.9267Z"></path><path id="矩形 1" style="fill:url(#linear_4); opacity:100" d="M5.70535 14.851C9.15052 16.977 13.4998 16.9995 16.9613 14.9001L16.9644 14.8982L17.0525 14.8542L17.0923 14.9337L17.0464 14.8575C19.6598 13.2839 19.7071 9.51649 17.1363 7.8742L17.1842 7.79921L17.1384 7.87551L16.9605 7.76879L16.9594 7.76809C13.5248 5.56964 9.12489 5.59254 5.70716 7.81722L5.62313 7.87325C3.08357 9.52708 3.12854 13.2578 5.70542 14.851L5.70535 14.851ZM5.61183 15.0024C2.92399 13.3405 2.87714 9.44913 5.52441 7.72516L5.61007 7.66806C9.08641 5.40523 13.5618 5.38204 17.0554 7.6182L17.0074 7.69314L17.0532 7.61684L17.231 7.72355L17.2321 7.72422C19.9142 9.43759 19.8647 13.3683 17.1382 15.01L17.1352 15.0118L17.0472 15.0558L17.0074 14.9762L17.0536 15.0523C13.5349 17.1863 9.11393 17.1635 5.61189 15.0024L5.61183 15.0024Z"></path></g></g></g><g filter="url(#filter_42)"><path  id="路径 15" style="fill:#FFC045; opacity:1;" d="M10.0378 8.88705L11.1372 14.4894L10.3513 14.6436L9.93396 13.96L16.3465 10.045L16.7639 10.7286L16.5883 11.51L9.07644 9.82267L9.25195 9.04127L10.0378 8.88705ZM8.46606 9.19548C8.3547 8.62795 8.86318 8.13311 9.42747 8.25986L16.9394 9.94714C17.6417 10.1049 17.7956 11.037 17.1812 11.4121L10.7686 15.3271C10.2926 15.6177 9.67278 15.345 9.5654 14.7978L8.46606 9.19548Z"></path></g></g></g></g></g><defs><rect id="path_0" x="0" y="0" width="80.00008392333984" height="80.00008392333984" rx="0" ry="0"/><filter id="filter_3" x="0" y="0" width="54.90884330174076" height="46.40921206582842" filterUnits="userSpaceOnUse" color-interpolation-filters="sRGB"><feFlood flood-opacity="0" result="feFloodId"/>
        <feColorMatrix in="SourceAlpha" type="matrix" values="0 0 0 0 0 0 0 0 0 0 0 0 0 0 0 0 0 0 127 0" result="hardAlpha"/>
        
        <feOffset dx="0" dy="4.627368764087661"/>
        <feGaussianBlur stdDeviation="2.6696358254351895"/>
         <feComposite in2="hardAlpha" operator="out"/>
        <feColorMatrix type="matrix" values="0 0 0 0 1 0 0 0 0 0.6627450980392157 0 0 0 0 0.1607843137254902 0 0 0 0.4 0"/>
        <feBlend mode="normal" in2="BackgroundImageFix" result="dropShadow_1"/>
        <feBlend mode="normal" in="SourceGraphic" in2="dropShadow_2" result="shape"/></filter><linearGradient id="linear_0" x1="19.239909798457486%" y1="96.014%" x2="59.934335937330395%" y2="42.033%" gradientUnits="objectBoundingBox"><stop offset="0" stop-color="#FFFFFF" stop-opacity="0.8" /><stop offset="1" stop-color="#FFFFFF" stop-opacity="0" /></linearGradient><filter id="filter_8" x="0" y="0" width="24.55397881211159" height="24.25972190586501" filterUnits="userSpaceOnUse" color-interpolation-filters="sRGB"><feFlood flood-opacity="0" result="feFloodId"/>
        <feColorMatrix in="SourceAlpha" type="matrix" values="0 0 0 0 0 0 0 0 0 0 0 0 0 0 0 0 0 0 127 0" result="hardAlpha"/>
        
        <feOffset dx="0.978866469326236" dy="2.7586236862830287"/>
        <feGaussianBlur stdDeviation="0.6008193848410329"/>
         <feComposite in2="hardAlpha" operator="out"/>
        <feColorMatrix type="matrix" values="0 0 0 0 1 0 0 0 0 0.6627450980392157 0 0 0 0 0.1607843137254902 0 0 0 0.6 0"/>
        <feBlend mode="normal" in2="BackgroundImageFix" result="dropShadow_1"/>
        <feBlend mode="normal" in="SourceGraphic" in2="dropShadow_2" result="shape"/></filter><filter id="filter_9" x="-1.9381270478742996" y="-1.9381270478742996" width="19.24236108274811" height="19.355569853500064" filterUnits="userSpaceOnUse" color-interpolation-filters="sRGB"><feFlood flood-opacity="0" result="BackgroundImageFix"/>
          <feGaussianBlur in="BackgroundImage" stdDeviation="0.9690635239371498"/>
          <feComposite in2="SourceAlpha" operator="in" result="effect1_backgroundBlur"/>
          <feBlend mode="normal" in="SourceGraphic" in2="effect1_backgroundBlur" result="shape"/></filter><linearGradient id="linear_1" x1="78.95208986969709%" y1="76.484%" x2="60.31712976744171%" y2="42.033%" gradientUnits="objectBoundingBox"><stop offset="0" stop-color="#FFFFFF" stop-opacity="1" /><stop offset="1" stop-color="#FFFFFF" stop-opacity="0" /></linearGradient><filter id="filter_11" x="-1.9381270478742996" y="-1.9381270478742996" width="20.04804135771149" height="20.048043265060123" filterUnits="userSpaceOnUse" color-interpolation-filters="sRGB"><feFlood flood-opacity="0" result="BackgroundImageFix"/>
          <feGaussianBlur in="BackgroundImage" stdDeviation="0.9690635239371498"/>
          <feComposite in2="SourceAlpha" operator="in" result="effect1_backgroundBlur"/>
          <feBlend mode="normal" in="SourceGraphic" in2="effect1_backgroundBlur" result="shape"/></filter><filter id="filter_12" x="0" y="0" width="10.234375" height="5.873641490936279" filterUnits="userSpaceOnUse" color-interpolation-filters="sRGB"><feFlood flood-opacity="0" result="feFloodId"/>
          <feBlend mode="normal" in="SourceGraphic" in2="BackgroundImageFix" result="shape"/> 
          <feColorMatrix in="SourceAlpha" type="matrix" values="0 0 0 0 0 0 0 0 0 0 0 0 0 0 0 0 0 0 127 0" result="hardAlpha"/>
          
          <feOffset dx="0" dy="0.41969259289379546"/>
          <feGaussianBlur stdDeviation="0.09026731703773631"/>
          <feComposite in2="hardAlpha" operator="arithmetic" k2="-1" k3="1"/>
          <feColorMatrix type="matrix" values="0 0 0 0 1 0 0 0 0 1 0 0 0 0 1 0 0 0 1 0"/>
          <feBlend mode="normal" in2="shape" result="innerShadow_0" />
          </filter><filter id="filter_18" x="0" y="0" width="24.55597881211159" height="24.25972190586501" filterUnits="userSpaceOnUse" color-interpolation-filters="sRGB"><feFlood flood-opacity="0" result="feFloodId"/>
        <feColorMatrix in="SourceAlpha" type="matrix" values="0 0 0 0 0 0 0 0 0 0 0 0 0 0 0 0 0 0 127 0" result="hardAlpha"/>
        
        <feOffset dx="0.978866469326236" dy="2.7586236862830287"/>
        <feGaussianBlur stdDeviation="0.6008193848410329"/>
         <feComposite in2="hardAlpha" operator="out"/>
        <feColorMatrix type="matrix" values="0 0 0 0 1 0 0 0 0 0.6627450980392157 0 0 0 0 0.1607843137254902 0 0 0 0.6 0"/>
        <feBlend mode="normal" in2="BackgroundImageFix" result="dropShadow_1"/>
        <feBlend mode="normal" in="SourceGraphic" in2="dropShadow_2" result="shape"/></filter><filter id="filter_19" x="-1.9381270478742996" y="-1.9381270478742996" width="19.24236108274811" height="19.355569853500064" filterUnits="userSpaceOnUse" color-interpolation-filters="sRGB"><feFlood flood-opacity="0" result="BackgroundImageFix"/>
          <feGaussianBlur in="BackgroundImage" stdDeviation="0.9690635239371498"/>
          <feComposite in2="SourceAlpha" operator="in" result="effect1_backgroundBlur"/>
          <feBlend mode="normal" in="SourceGraphic" in2="effect1_backgroundBlur" result="shape"/></filter><linearGradient id="linear_2" x1="76.06128103597491%" y1="80.21000000000001%" x2="60.31715197578481%" y2="42.033%" gradientUnits="objectBoundingBox"><stop offset="0" stop-color="#FFFFFF" stop-opacity="1" /><stop offset="1" stop-color="#FFFFFF" stop-opacity="0" /></linearGradient><filter id="filter_21" x="-1.9381270478742996" y="-1.9381270478742996" width="20.04804135771149" height="20.048043265060123" filterUnits="userSpaceOnUse" color-interpolation-filters="sRGB"><feFlood flood-opacity="0" result="BackgroundImageFix"/>
          <feGaussianBlur in="BackgroundImage" stdDeviation="0.9690635239371498"/>
          <feComposite in2="SourceAlpha" operator="in" result="effect1_backgroundBlur"/>
          <feBlend mode="normal" in="SourceGraphic" in2="effect1_backgroundBlur" result="shape"/></filter><filter id="filter_22" x="0" y="0" width="5.78515625" height="3.3820912837982178" filterUnits="userSpaceOnUse" color-interpolation-filters="sRGB"><feFlood flood-opacity="0" result="feFloodId"/>
          <feBlend mode="normal" in="SourceGraphic" in2="BackgroundImageFix" result="shape"/> 
          <feColorMatrix in="SourceAlpha" type="matrix" values="0 0 0 0 0 0 0 0 0 0 0 0 0 0 0 0 0 0 127 0" result="hardAlpha"/>
          
          <feOffset dx="0" dy="0.3559514433913586"/>
          <feGaussianBlur stdDeviation="0.08898786084783965"/>
          <feComposite in2="hardAlpha" operator="arithmetic" k2="-1" k3="1"/>
          <feColorMatrix type="matrix" values="0 0 0 0 1 0 0 0 0 1 0 0 0 0 1 0 0 0 1 0"/>
          <feBlend mode="normal" in2="shape" result="innerShadow_0" />
          </filter><filter id="filter_28" x="0" y="0" width="24.557914345698677" height="24.25972190586501" filterUnits="userSpaceOnUse" color-interpolation-filters="sRGB"><feFlood flood-opacity="0" result="feFloodId"/>
        <feColorMatrix in="SourceAlpha" type="matrix" values="0 0 0 0 0 0 0 0 0 0 0 0 0 0 0 0 0 0 127 0" result="hardAlpha"/>
        
        <feOffset dx="0.978866469326236" dy="2.7586236862830287"/>
        <feGaussianBlur stdDeviation="0.6008193848410329"/>
         <feComposite in2="hardAlpha" operator="out"/>
        <feColorMatrix type="matrix" values="0 0 0 0 1 0 0 0 0 0.6627450980392157 0 0 0 0 0.1607843137254902 0 0 0 0.6 0"/>
        <feBlend mode="normal" in2="BackgroundImageFix" result="dropShadow_1"/>
        <feBlend mode="normal" in="SourceGraphic" in2="dropShadow_2" result="shape"/></filter><filter id="filter_29" x="-1.3348179127175948" y="-1.3348179127175948" width="18.0357428124347" height="18.148951583186655" filterUnits="userSpaceOnUse" color-interpolation-filters="sRGB"><feFlood flood-opacity="0" result="BackgroundImageFix"/>
          <feGaussianBlur in="BackgroundImage" stdDeviation="0.6674089563587974"/>
          <feComposite in2="SourceAlpha" operator="in" result="effect1_backgroundBlur"/>
          <feBlend mode="normal" in="SourceGraphic" in2="effect1_backgroundBlur" result="shape"/></filter><linearGradient id="linear_3" x1="78.22917582707717%" y1="73.456%" x2="60.31715197578481%" y2="42.033%" gradientUnits="objectBoundingBox"><stop offset="0" stop-color="#FFFFFF" stop-opacity="1" /><stop offset="1" stop-color="#FFFFFF" stop-opacity="0" /></linearGradient><filter id="filter_31" x="-0.8898786084783965" y="-0.8898786084783965" width="17.951544478919683" height="17.951546386268316" filterUnits="userSpaceOnUse" color-interpolation-filters="sRGB"><feFlood flood-opacity="0" result="BackgroundImageFix"/>
          <feGaussianBlur in="BackgroundImage" stdDeviation="0.44493930423919825"/>
          <feComposite in2="SourceAlpha" operator="in" result="effect1_backgroundBlur"/>
          <feBlend mode="normal" in="SourceGraphic" in2="effect1_backgroundBlur" result="shape"/></filter><filter id="filter_32" x="0" y="0" width="5.78515625" height="3.3820912837982178" filterUnits="userSpaceOnUse" color-interpolation-filters="sRGB"><feFlood flood-opacity="0" result="feFloodId"/>
          <feBlend mode="normal" in="SourceGraphic" in2="BackgroundImageFix" result="shape"/> 
          <feColorMatrix in="SourceAlpha" type="matrix" values="0 0 0 0 0 0 0 0 0 0 0 0 0 0 0 0 0 0 127 0" result="hardAlpha"/>
          
          <feOffset dx="0" dy="0.3559514433913586"/>
          <feGaussianBlur stdDeviation="0.08898786084783965"/>
          <feComposite in2="hardAlpha" operator="arithmetic" k2="-1" k3="1"/>
          <feColorMatrix type="matrix" values="0 0 0 0 1 0 0 0 0 1 0 0 0 0 1 0 0 0 1 0"/>
          <feBlend mode="normal" in2="shape" result="innerShadow_0" />
          </filter><filter id="filter_38" x="0" y="0" width="24.557914345698677" height="24.25972190586501" filterUnits="userSpaceOnUse" color-interpolation-filters="sRGB"><feFlood flood-opacity="0" result="feFloodId"/>
        <feColorMatrix in="SourceAlpha" type="matrix" values="0 0 0 0 0 0 0 0 0 0 0 0 0 0 0 0 0 0 127 0" result="hardAlpha"/>
        
        <feOffset dx="0.978866469326236" dy="2.7586236862830287"/>
        <feGaussianBlur stdDeviation="0.6008193848410329"/>
         <feComposite in2="hardAlpha" operator="out"/>
        <feColorMatrix type="matrix" values="0 0 0 0 1 0 0 0 0 0.6627450980392157 0 0 0 0 0.1607843137254902 0 0 0 0.6 0"/>
        <feBlend mode="normal" in2="BackgroundImageFix" result="dropShadow_1"/>
        <feBlend mode="normal" in="SourceGraphic" in2="dropShadow_2" result="shape"/></filter><filter id="filter_39" x="-1.9381270478742996" y="-1.9381270478742996" width="19.24236108274811" height="19.355569853500064" filterUnits="userSpaceOnUse" color-interpolation-filters="sRGB"><feFlood flood-opacity="0" result="BackgroundImageFix"/>
          <feGaussianBlur in="BackgroundImage" stdDeviation="0.9690635239371498"/>
          <feComposite in2="SourceAlpha" operator="in" result="effect1_backgroundBlur"/>
          <feBlend mode="normal" in="SourceGraphic" in2="effect1_backgroundBlur" result="shape"/></filter><linearGradient id="linear_4" x1="76.06128103597491%" y1="81.607%" x2="60.31715197578481%" y2="42.033%" gradientUnits="objectBoundingBox"><stop offset="0" stop-color="#FFFFFF" stop-opacity="1" /><stop offset="1" stop-color="#FFFFFF" stop-opacity="0" /></linearGradient><filter id="filter_41" x="-1.9381270478742996" y="-1.9381270478742996" width="20.04804135771149" height="20.048043265060123" filterUnits="userSpaceOnUse" color-interpolation-filters="sRGB"><feFlood flood-opacity="0" result="BackgroundImageFix"/>
          <feGaussianBlur in="BackgroundImage" stdDeviation="0.9690635239371498"/>
          <feComposite in2="SourceAlpha" operator="in" result="effect1_backgroundBlur"/>
          <feBlend mode="normal" in="SourceGraphic" in2="effect1_backgroundBlur" result="shape"/></filter><filter id="filter_42" x="0" y="0" width="18.365681495261114" height="16.245381495261114" filterUnits="userSpaceOnUse" color-interpolation-filters="sRGB"><feFlood flood-opacity="0" result="feFloodId"/>
          <feBlend mode="normal" in="SourceGraphic" in2="BackgroundImageFix" result="shape"/> 
          <feColorMatrix in="SourceAlpha" type="matrix" values="0 0 0 0 0 0 0 0 0 0 0 0 0 0 0 0 0 0 127 0" result="hardAlpha"/>
          
          <feOffset dx="0" dy="0.44493930423919825"/>
          <feGaussianBlur stdDeviation="0.08898786084783965"/>
          <feComposite in2="hardAlpha" operator="arithmetic" k2="-1" k3="1"/>
          <feColorMatrix type="matrix" values="0 0 0 0 1 0 0 0 0 1 0 0 0 0 1 0 0 0 1 0"/>
          <feBlend mode="normal" in2="shape" result="innerShadow_0" />
          </filter></defs></svg>