<svg xmlns="http://www.w3.org/2000/svg" xmlns:xlink="http://www.w3.org/1999/xlink" width="80" height="80" viewBox="0 0 80 80" fill="none"><g opacity="1"  transform="translate(0 0)"><mask id="bg-mask-0" fill="white"><use transform="translate(0 0)" xlink:href="#path_0"></use></mask><g mask="url(#bg-mask-0)" ><g opacity="1"  transform="translate(10.6796875 7.7421875)"><g opacity="1"  transform="translate(0 10.05517578125)"><g opacity="1"  transform="translate(0 0)"><g filter="url(#filter_4)"><path id="矩形 1" fill-rule="evenodd" style="fill:#1E59FA" opacity="1" d="M6.58471 21.9852C4.18055 23.3994 3.56537 25.6692 3.56537 27.4087C3.56537 28.6108 4.23712 31.1776 5.87053 32.3019L12.4537 36.4385L23.5977 43.2125C25.0614 44.0823 26.8857 44.054 28.3282 43.1489L45.9422 32.0261C50.0081 29.2755 48.2615 25.2521 48.0989 24.4247C47.2503 22.9115 47.3352 23.8308 45.5179 22.9045L28.0524 14.0232C26.7514 13.3585 25.2099 13.3585 23.9159 14.0303L6.58471 21.9852Z"></path></g><path id="矩形 1" fill-rule="evenodd" style="fill:#337AFF" opacity="1" d="M12.9918 34.2733L12.9918 34.2733C20.9609 39.2019 31.023 39.2514 39.0415 34.4006L39.2395 34.2733C45.3418 30.5752 45.4479 21.7576 39.4375 17.9109L39.0486 17.6635C31.0937 12.5794 20.9043 12.6289 12.9918 17.7837L12.7938 17.9109C6.84706 21.7929 6.95313 30.5398 12.9918 34.2733Z"></path><path id="矩形 1" style="fill:url(#linear_0); opacity:100" d="M13.0386 34.1977C20.981 39.1097 31.0051 39.1581 38.9955 34.3245L39.0415 34.4006L38.9934 34.3258L39.1924 34.1978L39.1934 34.1972C45.2413 30.532 45.3459 21.798 39.3895 17.9859L39.0008 17.7385C31.0749 12.673 20.9216 12.7238 13.0404 17.8582L12.8419 17.9858C6.95279 21.8302 7.05616 30.4989 13.0386 34.1976L13.0386 34.1977ZM12.945 34.349C6.85168 30.5817 6.74634 21.7524 12.7457 17.8361L12.9432 17.7091C20.8831 12.5365 31.1118 12.4854 39.0964 17.5884L39.4855 17.836C45.5528 21.7191 45.4462 30.616 39.2856 34.3494L39.2395 34.2733L39.2876 34.3482L39.0886 34.4761L39.0876 34.4768C31.04 39.345 20.9442 39.2962 12.945 34.349L12.945 34.349Z"></path></g></g><g opacity="1"  transform="translate(4.625 0)"><g id="矩形 1" filter="url(#filter_8)"><g filter="url(#filter_7)"><path id="矩形 1" fill-rule="evenodd" style="fill:#FFFFFF" opacity="0.4" d="M6.58471 21.9847C4.18055 23.3989 3.56537 25.6688 3.56537 27.4082C3.56537 28.6103 4.50582 31.262 6.13923 32.3863L12.4537 36.438L23.5977 43.212C25.0614 44.0818 26.8857 44.0535 28.3282 43.1484L45.9422 32.0256C50.0081 29.275 48.2615 25.2516 48.0989 24.4242C47.2503 22.911 47.3352 23.8303 45.5179 22.904L28.0524 14.0227C26.7514 13.358 25.2099 13.358 23.9159 14.0298L6.58471 21.9847Z"></path></g></g><g id="矩形 1" filter="url(#filter_10)"><path id="矩形 1" fill-rule="evenodd" style="fill:#FFFFFF" opacity="0.5" d="M12.9938 34.2733L12.9938 34.2733C20.9628 39.2019 31.0249 39.2514 39.0435 34.4006L39.2415 34.2733C45.3438 30.5752 45.4498 21.7576 39.4394 17.9109L39.0505 17.6635C31.0956 12.5794 20.9062 12.6289 12.9938 17.7837L12.7958 17.9109C6.84902 21.7929 6.95508 30.5398 12.9938 34.2733Z"></path><path id="矩形 1" style="fill:url(#linear_1); opacity:100" d="M13.0406 34.1977C20.983 39.1097 31.0071 39.1581 38.9974 34.3245L39.0435 34.4006L38.9953 34.3258L39.1943 34.1978L39.1953 34.1972C45.2432 30.532 45.3479 21.798 39.3915 17.9859L39.0028 17.7385C31.0768 12.673 20.9236 12.7238 13.0423 17.8582L12.8439 17.9858C6.95474 21.8302 7.05812 30.4989 13.0405 34.1976L13.0406 34.1977ZM12.947 34.349C6.85364 30.5817 6.74829 21.7524 12.7476 17.8361L12.9452 17.7091C20.885 12.5365 31.1138 12.4854 39.0983 17.5884L39.4874 17.836C45.5548 21.7191 45.4482 30.616 39.2876 34.3494L39.2415 34.2733L39.2896 34.3482L39.0906 34.4761L39.0895 34.4768C31.042 39.345 20.9462 39.2962 12.9469 34.349L12.947 34.349Z"></path></g></g><g opacity="1"  transform="translate(18.421875 15.306396484375)"><g opacity="1"  transform="translate(0 -0.000244140625)"><g filter="url(#filter_12)"></g><path id="路径 1" fill-rule="evenodd" style="fill:#337AFF" opacity="1" d="M5.17064 15.0806C4.89455 15.2495 4.74116 15.3434 4.66453 15.3559C4.31181 15.5374 3.91362 15.4378 3.77623 15.1444C3.63885 14.8509 3.82339 14.4634 4.17611 14.282C4.4368 14.1568 10.6786 10.8529 11.5824 2.20043C11.6289 1.86307 11.9512 1.56294 12.3496 1.5251C12.7174 1.50602 12.9928 1.74939 12.9615 2.11173C12.1353 10.2019 6.85785 14.0484 5.17064 15.0806Z"></path><path  id="路径 1" style="fill:#337AFF; opacity:1;" d="M5.28674 15.2704M5.28674 15.2704Q4.82012 15.5559 4.70052 15.5755L4.66453 15.3559L4.76631 15.5538L4.66453 15.3559L4.76631 15.5538Q4.42924 15.7272 4.08733 15.6445Q3.72353 15.5565 3.57475 15.2387Q3.428 14.9252 3.59085 14.5769Q3.74111 14.2556 4.07433 14.0841L4.07705 14.0827L4.07981 14.0814L4.07705 14.0827L4.07981 14.0814Q4.48814 13.8853 5.18536 13.3782Q6.41136 12.4866 7.47165 11.2913Q10.8011 7.53794 11.3611 2.17732L11.3615 2.17366L11.362 2.17002L11.3615 2.17366L11.362 2.17002Q11.4085 1.83281 11.6856 1.58469Q11.9605 1.33858 12.3286 1.30362L12.3333 1.30317L12.3381 1.30292L12.3333 1.30317L12.3381 1.30292Q12.712 1.28353 12.9572 1.51292Q13.2156 1.75468 13.1831 2.13086Q12.6432 7.41806 9.5646 11.3794Q7.67733 13.8079 5.28674 15.2704L5.28674 15.2704ZM5.05453 14.8909Q7.37585 13.4707 9.21328 11.1064Q12.2136 7.24584 12.7398 2.0926Q12.7537 1.93187 12.6532 1.83785Q12.5461 1.73768 12.3611 1.74727L12.3496 1.5251L12.3611 1.74727L12.3496 1.5251L12.3707 1.74657Q12.1483 1.76769 11.9824 1.91619Q11.8269 2.05539 11.8027 2.23084L11.5824 2.20043L11.8027 2.23084L11.5824 2.20043L11.8036 2.22354Q11.2288 7.7263 7.8045 11.5866Q6.71214 12.818 5.44708 13.7381Q4.71717 14.269 4.2724 14.4825L4.17611 14.282L4.2724 14.4825L4.17611 14.282L4.27789 14.4798Q4.0798 14.5817 3.99391 14.7654Q3.91923 14.9251 3.97772 15.05Q4.03588 15.1743 4.19193 15.212Q4.37291 15.2558 4.56275 15.1581L4.59394 15.1421L4.56275 15.1581L4.59394 15.1421L4.62854 15.1364Q4.66221 15.1309 5.05453 14.8909L5.05453 14.8909Z"></path><path id="路径 2" fill-rule="evenodd" style="fill:#337AFF" opacity="1" d="M14.3225 2.89566C14.6168 2.61014 14.6133 2.20199 14.3373 2.01915L12.6562 0.785102C12.5234 0.70221 12.3513 0.631663 12.1664 0.67442C12.0157 0.696301 11.8124 0.785522 11.6902 0.930641L9.88026 2.85853C9.62014 3.12318 9.61513 3.53655 9.89965 3.71417C10.1363 3.90936 10.5918 3.82997 10.8415 3.54826L12.16 2.12026L13.375 2.99474C13.6045 3.15912 13.9302 3.13573 14.169 2.9896L14.3225 2.89566Z"></path><path  id="路径 2" style="fill:#337AFF; opacity:1;" d="M14.2916 2.86373M14.2916 2.86373Q14.4971 2.66427 14.4993 2.41851Q14.5013 2.1812 14.3127 2.05624L14.3118 2.05565L12.6299 0.820969L12.6562 0.785102L12.6326 0.822844L12.6562 0.785102L12.6326 0.822844Q12.3865 0.669189 12.1765 0.717769L12.1747 0.718186L12.1728 0.718452L12.1747 0.718186L12.1728 0.718452Q11.8928 0.7591 11.7242 0.959305L11.7234 0.960221L9.91235 2.88936L9.91199 2.88972L9.91235 2.88936L9.91199 2.88972Q9.72748 3.07745 9.73021 3.31848Q9.73292 3.55763 9.92321 3.67643L9.9257 3.67798L9.92796 3.67985L9.9257 3.67798L9.92796 3.67985Q10.0898 3.81331 10.358 3.76623Q10.6314 3.71823 10.8082 3.51875L12.1541 2.06114L13.401 2.95863Q13.5558 3.06952 13.7674 3.06413Q13.9704 3.05896 14.1458 2.95165L14.2993 2.85771L14.3225 2.89566L14.2916 2.86373ZM14.35 2.93104L14.1922 3.02756Q13.9965 3.14731 13.7696 3.15309Q13.5283 3.15924 13.349 3.03085L12.1341 2.15637L12.16 2.12026L12.1927 2.15044L10.8748 3.57777Q10.6774 3.80051 10.3734 3.85388Q10.0648 3.90805 9.87134 3.7485L9.89965 3.71417L9.87134 3.7485L9.89965 3.71417L9.87609 3.75192Q9.64449 3.60733 9.64123 3.31949Q9.63808 3.04146 9.84853 2.82734L9.88026 2.85853L9.84853 2.82734L9.88026 2.85853L9.84782 2.82808L11.6577 0.900187L11.6902 0.930641L11.6561 0.901977Q11.8465 0.675895 12.16 0.630387L12.1664 0.674419L12.16 0.630387L12.1664 0.674419L12.1564 0.63107Q12.4024 0.574184 12.6797 0.74736L12.6812 0.748245L12.6797 0.74736L12.6812 0.748245L14.3636 1.98328L14.3373 2.01915L14.3619 1.98206Q14.5907 2.13369 14.5882 2.41929Q14.5858 2.70224 14.3535 2.9276L14.35 2.93104Z"></path></g><g opacity="1"  transform="translate(9.4296875 5.160400390625)"><g filter="url(#filter_15)"></g><path  id="路径 3" style="fill:#337AFF; opacity:1;" d="M-0.505915 11.9446L2.06411 13.772C2.2172 13.8965 2.41245 13.9711 2.62514 13.9711C3.11663 13.9711 3.51506 13.5726 3.51506 13.0811C3.51506 12.7836 3.36907 12.5202 3.14482 12.3586L3.14583 12.3572L0.524234 10.4932C0.377199 10.3858 0.195999 10.3225 0 10.3225C-0.491492 10.3225 -0.889925 10.7209 -0.889925 11.2124C-0.889925 11.516 -0.73794 11.784 -0.505915 11.9446Z"></path><path  id="路径 3" style="fill:#337AFF; opacity:1;" d="M1.60208 8.30709L5.91112 11.2396L5.91137 11.2393C6.05315 11.3347 6.22392 11.3904 6.4077 11.3904C6.89917 11.3904 7.29758 10.992 7.29758 10.5006C7.29758 10.1828 7.13102 9.90392 6.88043 9.7465L2.60209 6.83484C2.45761 6.73354 2.28165 6.67409 2.0918 6.67409C1.60033 6.67409 1.20192 7.0725 1.20192 7.56396C1.20192 7.8745 1.36099 8.14789 1.60208 8.30709Z"></path><path  id="路径 3" style="fill:#337AFF; opacity:1;" d="M3.85265 4.64574L9.80286 8.90873L9.8029 8.90868C9.94928 9.01445 10.1291 9.07678 10.3235 9.07678C10.815 9.07678 11.2134 8.67839 11.2134 8.18694C11.2134 7.882 11.06 7.61288 10.8261 7.45254L4.88792 3.19815C4.74047 3.08973 4.55838 3.02568 4.36133 3.02568C3.86988 3.02568 3.47148 3.42408 3.47148 3.91553C3.47148 4.21783 3.62223 4.48492 3.85265 4.64574Z"></path><path  id="路径 3" style="fill:#337AFF; opacity:1;" d="M6.45233 0.711888L13.8745 6.40588L13.877 6.40268C14.0267 6.5171 14.2138 6.58507 14.4168 6.58507C14.9083 6.58507 15.3067 6.18667 15.3067 5.69522C15.3067 5.37655 15.1392 5.097 14.8874 4.93982L7.53458 -0.700951C7.38348 -0.819302 7.19314 -0.889855 6.98633 -0.889855C6.49487 -0.889855 6.09647 -0.491454 6.09647 0C6.09647 0.291092 6.23624 0.549538 6.45233 0.711888Z"></path></g></g></g></g></g><defs><rect id="path_0" x="0" y="0" width="80" height="80" rx="0" ry="0"/><filter id="filter_4" x="0" y="0" width="61.602292598418046" height="59.152628989272586" filterUnits="userSpaceOnUse" color-interpolation-filters="sRGB"><feFlood flood-opacity="0" result="feFloodId"/>
        <feColorMatrix in="SourceAlpha" type="matrix" values="0 0 0 0 0 0 0 0 0 0 0 0 0 0 0 0 0 0 127 0" result="hardAlpha"/>
        
        <feOffset dx="2.3136818687430476" dy="4.627363737486095"/>
        <feGaussianBlur stdDeviation="2.6696329254727473"/>
         <feComposite in2="hardAlpha" operator="out"/>
        <feColorMatrix type="matrix" values="0 0 0 0 0.11764705882352941 0 0 0 0 0.34901960784313724 0 0 0 0 0.9803921568627451 0 0 0 0.4 0"/>
        <feBlend mode="normal" in2="BackgroundImageFix" result="dropShadow_1"/>
        <feBlend mode="normal" in="SourceGraphic" in2="dropShadow_2" result="shape"/></filter><linearGradient id="linear_0" x1="46.166752776794574%" y1="88.594%" x2="60.38756888113939%" y2="42.033%" gradientUnits="objectBoundingBox"><stop offset="0" stop-color="#FFFFFF" stop-opacity="0.8" /><stop offset="1" stop-color="#FFFFFF" stop-opacity="0" /></linearGradient><filter id="filter_7" x="0" y="0" width="56.17403898329013" height="51.76614456213132" filterUnits="userSpaceOnUse" color-interpolation-filters="sRGB"><feFlood flood-opacity="0" result="feFloodId"/>
        <feColorMatrix in="SourceAlpha" type="matrix" values="0 0 0 0 0 0 0 0 0 0 0 0 0 0 0 0 0 0 127 0" result="hardAlpha"/>
        
        <feOffset dx="2.0467185761957727" dy="2.4026696329254724"/>
        <feGaussianBlur stdDeviation="1.379310344827586"/>
         <feComposite in2="hardAlpha" operator="out"/>
        <feColorMatrix type="matrix" values="0 0 0 0 0.11764705882352941 0 0 0 0 0.34901960784313724 0 0 0 0 0.9803921568627451 0 0 0 0.4 0"/>
        <feBlend mode="normal" in2="BackgroundImageFix" result="dropShadow_1"/>
        <feBlend mode="normal" in="SourceGraphic" in2="dropShadow_2" result="shape"/></filter><filter id="filter_8" x="-4.4493882091212456" y="-4.4493882091212456" width="44.1760858359671" height="44.43598116067413" filterUnits="userSpaceOnUse" color-interpolation-filters="sRGB"><feFlood flood-opacity="0" result="BackgroundImageFix"/>
          <feGaussianBlur in="BackgroundImage" stdDeviation="2.2246941045606228"/>
          <feComposite in2="SourceAlpha" operator="in" result="effect1_backgroundBlur"/>
          <feBlend mode="normal" in="SourceGraphic" in2="effect1_backgroundBlur" result="shape"/></filter><linearGradient id="linear_1" x1="46.166757706316176%" y1="88.594%" x2="60.38755552281883%" y2="42.033%" gradientUnits="objectBoundingBox"><stop offset="0" stop-color="#FFFFFF" stop-opacity="0.8" /><stop offset="1" stop-color="#FFFFFF" stop-opacity="0" /></linearGradient><filter id="filter_10" x="-4.4493882091212456" y="-4.4493882091212456" width="46.023955709013975" height="46.02395952371124" filterUnits="userSpaceOnUse" color-interpolation-filters="sRGB"><feFlood flood-opacity="0" result="BackgroundImageFix"/>
          <feGaussianBlur in="BackgroundImage" stdDeviation="2.2246941045606228"/>
          <feComposite in2="SourceAlpha" operator="in" result="effect1_backgroundBlur"/>
          <feBlend mode="normal" in="SourceGraphic" in2="effect1_backgroundBlur" result="shape"/></filter><filter id="filter_12" x="0" y="0" width="16.7109375" height="15.720940589904785" filterUnits="userSpaceOnUse" color-interpolation-filters="sRGB"><feFlood flood-opacity="0" result="feFloodId"/>
          <feBlend mode="normal" in="SourceGraphic" in2="BackgroundImageFix" result="shape"/> 
          <feColorMatrix in="SourceAlpha" type="matrix" values="0 0 0 0 0 0 0 0 0 0 0 0 0 0 0 0 0 0 127 0" result="hardAlpha"/>
          
          <feOffset dx="0.0889877641824249" dy="0.3559510567296996"/>
          <feGaussianBlur stdDeviation="0.0889877641824249"/>
          <feComposite in2="hardAlpha" operator="arithmetic" k2="-1" k3="1"/>
          <feColorMatrix type="matrix" values="0 0 0 0 1 0 0 0 0 1 0 0 0 0 1 0 0 0 1 0"/>
          <feBlend mode="normal" in2="shape" result="innerShadow_0" />
          </filter><filter id="filter_15" x="0" y="0" width="14.416015625" height="13.081199645996094" filterUnits="userSpaceOnUse" color-interpolation-filters="sRGB"><feFlood flood-opacity="0" result="feFloodId"/>
          <feBlend mode="normal" in="SourceGraphic" in2="BackgroundImageFix" result="shape"/> 
          <feColorMatrix in="SourceAlpha" type="matrix" values="0 0 0 0 0 0 0 0 0 0 0 0 0 0 0 0 0 0 127 0" result="hardAlpha"/>
          
          <feOffset dx="0" dy="0.3559510567296996"/>
          <feGaussianBlur stdDeviation="0.0889877641824249"/>
          <feComposite in2="hardAlpha" operator="arithmetic" k2="-1" k3="1"/>
          <feColorMatrix type="matrix" values="0 0 0 0 1 0 0 0 0 1 0 0 0 0 1 0 0 0 1 0"/>
          <feBlend mode="normal" in2="shape" result="innerShadow_0" />
          </filter></defs></svg>